G75*
%MOIN*%
%OFA0B0*%
%FSLAX25Y25*%
%IPPOS*%
%LPD*%
%AMOC8*
5,1,8,0,0,1.08239X$1,22.5*
%
%ADD10C,0.00000*%
%ADD11R,0.06299X0.10630*%
%ADD12R,0.05906X0.05118*%
%ADD13R,0.05906X0.05906*%
%ADD14OC8,0.06600*%
%ADD15R,0.05118X0.05906*%
%ADD16OC8,0.04800*%
%ADD17C,0.04134*%
%ADD18R,0.08000X0.02600*%
%ADD19C,0.02400*%
%ADD20R,0.07900X0.04300*%
%ADD21C,0.05315*%
%ADD22OC8,0.06200*%
%ADD23C,0.06200*%
%ADD24C,0.01181*%
%ADD25C,0.01969*%
%ADD26C,0.01000*%
%ADD27C,0.02362*%
%ADD28C,0.02165*%
D10*
X0065745Y0061101D02*
X0294091Y0061101D01*
X0294376Y0061104D01*
X0294662Y0061115D01*
X0294947Y0061132D01*
X0295231Y0061156D01*
X0295515Y0061187D01*
X0295798Y0061225D01*
X0296079Y0061270D01*
X0296360Y0061321D01*
X0296640Y0061379D01*
X0296918Y0061444D01*
X0297194Y0061516D01*
X0297468Y0061594D01*
X0297741Y0061679D01*
X0298011Y0061771D01*
X0298279Y0061869D01*
X0298545Y0061973D01*
X0298808Y0062084D01*
X0299068Y0062201D01*
X0299326Y0062324D01*
X0299580Y0062454D01*
X0299831Y0062590D01*
X0300079Y0062731D01*
X0300323Y0062879D01*
X0300564Y0063032D01*
X0300800Y0063192D01*
X0301033Y0063357D01*
X0301262Y0063527D01*
X0301487Y0063703D01*
X0301707Y0063885D01*
X0301923Y0064071D01*
X0302134Y0064263D01*
X0302341Y0064460D01*
X0302543Y0064662D01*
X0302740Y0064869D01*
X0302932Y0065080D01*
X0303118Y0065296D01*
X0303300Y0065516D01*
X0303476Y0065741D01*
X0303646Y0065970D01*
X0303811Y0066203D01*
X0303971Y0066439D01*
X0304124Y0066680D01*
X0304272Y0066924D01*
X0304413Y0067172D01*
X0304549Y0067423D01*
X0304679Y0067677D01*
X0304802Y0067935D01*
X0304919Y0068195D01*
X0305030Y0068458D01*
X0305134Y0068724D01*
X0305232Y0068992D01*
X0305324Y0069262D01*
X0305409Y0069535D01*
X0305487Y0069809D01*
X0305559Y0070085D01*
X0305624Y0070363D01*
X0305682Y0070643D01*
X0305733Y0070924D01*
X0305778Y0071205D01*
X0305816Y0071488D01*
X0305847Y0071772D01*
X0305871Y0072056D01*
X0305888Y0072341D01*
X0305899Y0072627D01*
X0305902Y0072912D01*
X0305902Y0159526D01*
X0305902Y0155589D02*
X0305902Y0076849D01*
X0288185Y0072912D02*
X0288187Y0073065D01*
X0288193Y0073219D01*
X0288203Y0073372D01*
X0288217Y0073524D01*
X0288235Y0073677D01*
X0288257Y0073828D01*
X0288282Y0073979D01*
X0288312Y0074130D01*
X0288346Y0074280D01*
X0288383Y0074428D01*
X0288424Y0074576D01*
X0288469Y0074722D01*
X0288518Y0074868D01*
X0288571Y0075012D01*
X0288627Y0075154D01*
X0288687Y0075295D01*
X0288751Y0075435D01*
X0288818Y0075573D01*
X0288889Y0075709D01*
X0288964Y0075843D01*
X0289041Y0075975D01*
X0289123Y0076105D01*
X0289207Y0076233D01*
X0289295Y0076359D01*
X0289386Y0076482D01*
X0289480Y0076603D01*
X0289578Y0076721D01*
X0289678Y0076837D01*
X0289782Y0076950D01*
X0289888Y0077061D01*
X0289997Y0077169D01*
X0290109Y0077274D01*
X0290223Y0077375D01*
X0290341Y0077474D01*
X0290460Y0077570D01*
X0290582Y0077663D01*
X0290707Y0077752D01*
X0290834Y0077839D01*
X0290963Y0077921D01*
X0291094Y0078001D01*
X0291227Y0078077D01*
X0291362Y0078150D01*
X0291499Y0078219D01*
X0291638Y0078284D01*
X0291778Y0078346D01*
X0291920Y0078404D01*
X0292063Y0078459D01*
X0292208Y0078510D01*
X0292354Y0078557D01*
X0292501Y0078600D01*
X0292649Y0078639D01*
X0292798Y0078675D01*
X0292948Y0078706D01*
X0293099Y0078734D01*
X0293250Y0078758D01*
X0293403Y0078778D01*
X0293555Y0078794D01*
X0293708Y0078806D01*
X0293861Y0078814D01*
X0294014Y0078818D01*
X0294168Y0078818D01*
X0294321Y0078814D01*
X0294474Y0078806D01*
X0294627Y0078794D01*
X0294779Y0078778D01*
X0294932Y0078758D01*
X0295083Y0078734D01*
X0295234Y0078706D01*
X0295384Y0078675D01*
X0295533Y0078639D01*
X0295681Y0078600D01*
X0295828Y0078557D01*
X0295974Y0078510D01*
X0296119Y0078459D01*
X0296262Y0078404D01*
X0296404Y0078346D01*
X0296544Y0078284D01*
X0296683Y0078219D01*
X0296820Y0078150D01*
X0296955Y0078077D01*
X0297088Y0078001D01*
X0297219Y0077921D01*
X0297348Y0077839D01*
X0297475Y0077752D01*
X0297600Y0077663D01*
X0297722Y0077570D01*
X0297841Y0077474D01*
X0297959Y0077375D01*
X0298073Y0077274D01*
X0298185Y0077169D01*
X0298294Y0077061D01*
X0298400Y0076950D01*
X0298504Y0076837D01*
X0298604Y0076721D01*
X0298702Y0076603D01*
X0298796Y0076482D01*
X0298887Y0076359D01*
X0298975Y0076233D01*
X0299059Y0076105D01*
X0299141Y0075975D01*
X0299218Y0075843D01*
X0299293Y0075709D01*
X0299364Y0075573D01*
X0299431Y0075435D01*
X0299495Y0075295D01*
X0299555Y0075154D01*
X0299611Y0075012D01*
X0299664Y0074868D01*
X0299713Y0074722D01*
X0299758Y0074576D01*
X0299799Y0074428D01*
X0299836Y0074280D01*
X0299870Y0074130D01*
X0299900Y0073979D01*
X0299925Y0073828D01*
X0299947Y0073677D01*
X0299965Y0073524D01*
X0299979Y0073372D01*
X0299989Y0073219D01*
X0299995Y0073065D01*
X0299997Y0072912D01*
X0299995Y0072759D01*
X0299989Y0072605D01*
X0299979Y0072452D01*
X0299965Y0072300D01*
X0299947Y0072147D01*
X0299925Y0071996D01*
X0299900Y0071845D01*
X0299870Y0071694D01*
X0299836Y0071544D01*
X0299799Y0071396D01*
X0299758Y0071248D01*
X0299713Y0071102D01*
X0299664Y0070956D01*
X0299611Y0070812D01*
X0299555Y0070670D01*
X0299495Y0070529D01*
X0299431Y0070389D01*
X0299364Y0070251D01*
X0299293Y0070115D01*
X0299218Y0069981D01*
X0299141Y0069849D01*
X0299059Y0069719D01*
X0298975Y0069591D01*
X0298887Y0069465D01*
X0298796Y0069342D01*
X0298702Y0069221D01*
X0298604Y0069103D01*
X0298504Y0068987D01*
X0298400Y0068874D01*
X0298294Y0068763D01*
X0298185Y0068655D01*
X0298073Y0068550D01*
X0297959Y0068449D01*
X0297841Y0068350D01*
X0297722Y0068254D01*
X0297600Y0068161D01*
X0297475Y0068072D01*
X0297348Y0067985D01*
X0297219Y0067903D01*
X0297088Y0067823D01*
X0296955Y0067747D01*
X0296820Y0067674D01*
X0296683Y0067605D01*
X0296544Y0067540D01*
X0296404Y0067478D01*
X0296262Y0067420D01*
X0296119Y0067365D01*
X0295974Y0067314D01*
X0295828Y0067267D01*
X0295681Y0067224D01*
X0295533Y0067185D01*
X0295384Y0067149D01*
X0295234Y0067118D01*
X0295083Y0067090D01*
X0294932Y0067066D01*
X0294779Y0067046D01*
X0294627Y0067030D01*
X0294474Y0067018D01*
X0294321Y0067010D01*
X0294168Y0067006D01*
X0294014Y0067006D01*
X0293861Y0067010D01*
X0293708Y0067018D01*
X0293555Y0067030D01*
X0293403Y0067046D01*
X0293250Y0067066D01*
X0293099Y0067090D01*
X0292948Y0067118D01*
X0292798Y0067149D01*
X0292649Y0067185D01*
X0292501Y0067224D01*
X0292354Y0067267D01*
X0292208Y0067314D01*
X0292063Y0067365D01*
X0291920Y0067420D01*
X0291778Y0067478D01*
X0291638Y0067540D01*
X0291499Y0067605D01*
X0291362Y0067674D01*
X0291227Y0067747D01*
X0291094Y0067823D01*
X0290963Y0067903D01*
X0290834Y0067985D01*
X0290707Y0068072D01*
X0290582Y0068161D01*
X0290460Y0068254D01*
X0290341Y0068350D01*
X0290223Y0068449D01*
X0290109Y0068550D01*
X0289997Y0068655D01*
X0289888Y0068763D01*
X0289782Y0068874D01*
X0289678Y0068987D01*
X0289578Y0069103D01*
X0289480Y0069221D01*
X0289386Y0069342D01*
X0289295Y0069465D01*
X0289207Y0069591D01*
X0289123Y0069719D01*
X0289041Y0069849D01*
X0288964Y0069981D01*
X0288889Y0070115D01*
X0288818Y0070251D01*
X0288751Y0070389D01*
X0288687Y0070529D01*
X0288627Y0070670D01*
X0288571Y0070812D01*
X0288518Y0070956D01*
X0288469Y0071102D01*
X0288424Y0071248D01*
X0288383Y0071396D01*
X0288346Y0071544D01*
X0288312Y0071694D01*
X0288282Y0071845D01*
X0288257Y0071996D01*
X0288235Y0072147D01*
X0288217Y0072300D01*
X0288203Y0072452D01*
X0288193Y0072605D01*
X0288187Y0072759D01*
X0288185Y0072912D01*
X0273421Y0088503D02*
X0273423Y0088637D01*
X0273429Y0088771D01*
X0273439Y0088905D01*
X0273453Y0089039D01*
X0273471Y0089172D01*
X0273492Y0089304D01*
X0273518Y0089436D01*
X0273548Y0089567D01*
X0273581Y0089697D01*
X0273618Y0089825D01*
X0273660Y0089953D01*
X0273704Y0090080D01*
X0273753Y0090205D01*
X0273805Y0090328D01*
X0273861Y0090450D01*
X0273921Y0090571D01*
X0273984Y0090689D01*
X0274050Y0090806D01*
X0274120Y0090920D01*
X0274193Y0091033D01*
X0274270Y0091143D01*
X0274350Y0091251D01*
X0274433Y0091356D01*
X0274519Y0091459D01*
X0274608Y0091559D01*
X0274700Y0091657D01*
X0274795Y0091752D01*
X0274893Y0091844D01*
X0274993Y0091933D01*
X0275096Y0092019D01*
X0275201Y0092102D01*
X0275309Y0092182D01*
X0275419Y0092259D01*
X0275532Y0092332D01*
X0275646Y0092402D01*
X0275763Y0092468D01*
X0275881Y0092531D01*
X0276002Y0092591D01*
X0276124Y0092647D01*
X0276247Y0092699D01*
X0276372Y0092748D01*
X0276499Y0092792D01*
X0276627Y0092834D01*
X0276755Y0092871D01*
X0276885Y0092904D01*
X0277016Y0092934D01*
X0277148Y0092960D01*
X0277280Y0092981D01*
X0277413Y0092999D01*
X0277547Y0093013D01*
X0277681Y0093023D01*
X0277815Y0093029D01*
X0277949Y0093031D01*
X0278083Y0093029D01*
X0278217Y0093023D01*
X0278351Y0093013D01*
X0278485Y0092999D01*
X0278618Y0092981D01*
X0278750Y0092960D01*
X0278882Y0092934D01*
X0279013Y0092904D01*
X0279143Y0092871D01*
X0279271Y0092834D01*
X0279399Y0092792D01*
X0279526Y0092748D01*
X0279651Y0092699D01*
X0279774Y0092647D01*
X0279896Y0092591D01*
X0280017Y0092531D01*
X0280135Y0092468D01*
X0280252Y0092402D01*
X0280366Y0092332D01*
X0280479Y0092259D01*
X0280589Y0092182D01*
X0280697Y0092102D01*
X0280802Y0092019D01*
X0280905Y0091933D01*
X0281005Y0091844D01*
X0281103Y0091752D01*
X0281198Y0091657D01*
X0281290Y0091559D01*
X0281379Y0091459D01*
X0281465Y0091356D01*
X0281548Y0091251D01*
X0281628Y0091143D01*
X0281705Y0091033D01*
X0281778Y0090920D01*
X0281848Y0090806D01*
X0281914Y0090689D01*
X0281977Y0090571D01*
X0282037Y0090450D01*
X0282093Y0090328D01*
X0282145Y0090205D01*
X0282194Y0090080D01*
X0282238Y0089953D01*
X0282280Y0089825D01*
X0282317Y0089697D01*
X0282350Y0089567D01*
X0282380Y0089436D01*
X0282406Y0089304D01*
X0282427Y0089172D01*
X0282445Y0089039D01*
X0282459Y0088905D01*
X0282469Y0088771D01*
X0282475Y0088637D01*
X0282477Y0088503D01*
X0282475Y0088369D01*
X0282469Y0088235D01*
X0282459Y0088101D01*
X0282445Y0087967D01*
X0282427Y0087834D01*
X0282406Y0087702D01*
X0282380Y0087570D01*
X0282350Y0087439D01*
X0282317Y0087309D01*
X0282280Y0087181D01*
X0282238Y0087053D01*
X0282194Y0086926D01*
X0282145Y0086801D01*
X0282093Y0086678D01*
X0282037Y0086556D01*
X0281977Y0086435D01*
X0281914Y0086317D01*
X0281848Y0086200D01*
X0281778Y0086086D01*
X0281705Y0085973D01*
X0281628Y0085863D01*
X0281548Y0085755D01*
X0281465Y0085650D01*
X0281379Y0085547D01*
X0281290Y0085447D01*
X0281198Y0085349D01*
X0281103Y0085254D01*
X0281005Y0085162D01*
X0280905Y0085073D01*
X0280802Y0084987D01*
X0280697Y0084904D01*
X0280589Y0084824D01*
X0280479Y0084747D01*
X0280366Y0084674D01*
X0280252Y0084604D01*
X0280135Y0084538D01*
X0280017Y0084475D01*
X0279896Y0084415D01*
X0279774Y0084359D01*
X0279651Y0084307D01*
X0279526Y0084258D01*
X0279399Y0084214D01*
X0279271Y0084172D01*
X0279143Y0084135D01*
X0279013Y0084102D01*
X0278882Y0084072D01*
X0278750Y0084046D01*
X0278618Y0084025D01*
X0278485Y0084007D01*
X0278351Y0083993D01*
X0278217Y0083983D01*
X0278083Y0083977D01*
X0277949Y0083975D01*
X0277815Y0083977D01*
X0277681Y0083983D01*
X0277547Y0083993D01*
X0277413Y0084007D01*
X0277280Y0084025D01*
X0277148Y0084046D01*
X0277016Y0084072D01*
X0276885Y0084102D01*
X0276755Y0084135D01*
X0276627Y0084172D01*
X0276499Y0084214D01*
X0276372Y0084258D01*
X0276247Y0084307D01*
X0276124Y0084359D01*
X0276002Y0084415D01*
X0275881Y0084475D01*
X0275763Y0084538D01*
X0275646Y0084604D01*
X0275532Y0084674D01*
X0275419Y0084747D01*
X0275309Y0084824D01*
X0275201Y0084904D01*
X0275096Y0084987D01*
X0274993Y0085073D01*
X0274893Y0085162D01*
X0274795Y0085254D01*
X0274700Y0085349D01*
X0274608Y0085447D01*
X0274519Y0085547D01*
X0274433Y0085650D01*
X0274350Y0085755D01*
X0274270Y0085863D01*
X0274193Y0085973D01*
X0274120Y0086086D01*
X0274050Y0086200D01*
X0273984Y0086317D01*
X0273921Y0086435D01*
X0273861Y0086556D01*
X0273805Y0086678D01*
X0273753Y0086801D01*
X0273704Y0086926D01*
X0273660Y0087053D01*
X0273618Y0087181D01*
X0273581Y0087309D01*
X0273548Y0087439D01*
X0273518Y0087570D01*
X0273492Y0087702D01*
X0273471Y0087834D01*
X0273453Y0087967D01*
X0273439Y0088101D01*
X0273429Y0088235D01*
X0273423Y0088369D01*
X0273421Y0088503D01*
X0273028Y0139684D02*
X0273030Y0139818D01*
X0273036Y0139952D01*
X0273046Y0140086D01*
X0273060Y0140220D01*
X0273078Y0140353D01*
X0273099Y0140485D01*
X0273125Y0140617D01*
X0273155Y0140748D01*
X0273188Y0140878D01*
X0273225Y0141006D01*
X0273267Y0141134D01*
X0273311Y0141261D01*
X0273360Y0141386D01*
X0273412Y0141509D01*
X0273468Y0141631D01*
X0273528Y0141752D01*
X0273591Y0141870D01*
X0273657Y0141987D01*
X0273727Y0142101D01*
X0273800Y0142214D01*
X0273877Y0142324D01*
X0273957Y0142432D01*
X0274040Y0142537D01*
X0274126Y0142640D01*
X0274215Y0142740D01*
X0274307Y0142838D01*
X0274402Y0142933D01*
X0274500Y0143025D01*
X0274600Y0143114D01*
X0274703Y0143200D01*
X0274808Y0143283D01*
X0274916Y0143363D01*
X0275026Y0143440D01*
X0275139Y0143513D01*
X0275253Y0143583D01*
X0275370Y0143649D01*
X0275488Y0143712D01*
X0275609Y0143772D01*
X0275731Y0143828D01*
X0275854Y0143880D01*
X0275979Y0143929D01*
X0276106Y0143973D01*
X0276234Y0144015D01*
X0276362Y0144052D01*
X0276492Y0144085D01*
X0276623Y0144115D01*
X0276755Y0144141D01*
X0276887Y0144162D01*
X0277020Y0144180D01*
X0277154Y0144194D01*
X0277288Y0144204D01*
X0277422Y0144210D01*
X0277556Y0144212D01*
X0277690Y0144210D01*
X0277824Y0144204D01*
X0277958Y0144194D01*
X0278092Y0144180D01*
X0278225Y0144162D01*
X0278357Y0144141D01*
X0278489Y0144115D01*
X0278620Y0144085D01*
X0278750Y0144052D01*
X0278878Y0144015D01*
X0279006Y0143973D01*
X0279133Y0143929D01*
X0279258Y0143880D01*
X0279381Y0143828D01*
X0279503Y0143772D01*
X0279624Y0143712D01*
X0279742Y0143649D01*
X0279859Y0143583D01*
X0279973Y0143513D01*
X0280086Y0143440D01*
X0280196Y0143363D01*
X0280304Y0143283D01*
X0280409Y0143200D01*
X0280512Y0143114D01*
X0280612Y0143025D01*
X0280710Y0142933D01*
X0280805Y0142838D01*
X0280897Y0142740D01*
X0280986Y0142640D01*
X0281072Y0142537D01*
X0281155Y0142432D01*
X0281235Y0142324D01*
X0281312Y0142214D01*
X0281385Y0142101D01*
X0281455Y0141987D01*
X0281521Y0141870D01*
X0281584Y0141752D01*
X0281644Y0141631D01*
X0281700Y0141509D01*
X0281752Y0141386D01*
X0281801Y0141261D01*
X0281845Y0141134D01*
X0281887Y0141006D01*
X0281924Y0140878D01*
X0281957Y0140748D01*
X0281987Y0140617D01*
X0282013Y0140485D01*
X0282034Y0140353D01*
X0282052Y0140220D01*
X0282066Y0140086D01*
X0282076Y0139952D01*
X0282082Y0139818D01*
X0282084Y0139684D01*
X0282082Y0139550D01*
X0282076Y0139416D01*
X0282066Y0139282D01*
X0282052Y0139148D01*
X0282034Y0139015D01*
X0282013Y0138883D01*
X0281987Y0138751D01*
X0281957Y0138620D01*
X0281924Y0138490D01*
X0281887Y0138362D01*
X0281845Y0138234D01*
X0281801Y0138107D01*
X0281752Y0137982D01*
X0281700Y0137859D01*
X0281644Y0137737D01*
X0281584Y0137616D01*
X0281521Y0137498D01*
X0281455Y0137381D01*
X0281385Y0137267D01*
X0281312Y0137154D01*
X0281235Y0137044D01*
X0281155Y0136936D01*
X0281072Y0136831D01*
X0280986Y0136728D01*
X0280897Y0136628D01*
X0280805Y0136530D01*
X0280710Y0136435D01*
X0280612Y0136343D01*
X0280512Y0136254D01*
X0280409Y0136168D01*
X0280304Y0136085D01*
X0280196Y0136005D01*
X0280086Y0135928D01*
X0279973Y0135855D01*
X0279859Y0135785D01*
X0279742Y0135719D01*
X0279624Y0135656D01*
X0279503Y0135596D01*
X0279381Y0135540D01*
X0279258Y0135488D01*
X0279133Y0135439D01*
X0279006Y0135395D01*
X0278878Y0135353D01*
X0278750Y0135316D01*
X0278620Y0135283D01*
X0278489Y0135253D01*
X0278357Y0135227D01*
X0278225Y0135206D01*
X0278092Y0135188D01*
X0277958Y0135174D01*
X0277824Y0135164D01*
X0277690Y0135158D01*
X0277556Y0135156D01*
X0277422Y0135158D01*
X0277288Y0135164D01*
X0277154Y0135174D01*
X0277020Y0135188D01*
X0276887Y0135206D01*
X0276755Y0135227D01*
X0276623Y0135253D01*
X0276492Y0135283D01*
X0276362Y0135316D01*
X0276234Y0135353D01*
X0276106Y0135395D01*
X0275979Y0135439D01*
X0275854Y0135488D01*
X0275731Y0135540D01*
X0275609Y0135596D01*
X0275488Y0135656D01*
X0275370Y0135719D01*
X0275253Y0135785D01*
X0275139Y0135855D01*
X0275026Y0135928D01*
X0274916Y0136005D01*
X0274808Y0136085D01*
X0274703Y0136168D01*
X0274600Y0136254D01*
X0274500Y0136343D01*
X0274402Y0136435D01*
X0274307Y0136530D01*
X0274215Y0136628D01*
X0274126Y0136728D01*
X0274040Y0136831D01*
X0273957Y0136936D01*
X0273877Y0137044D01*
X0273800Y0137154D01*
X0273727Y0137267D01*
X0273657Y0137381D01*
X0273591Y0137498D01*
X0273528Y0137616D01*
X0273468Y0137737D01*
X0273412Y0137859D01*
X0273360Y0137982D01*
X0273311Y0138107D01*
X0273267Y0138234D01*
X0273225Y0138362D01*
X0273188Y0138490D01*
X0273155Y0138620D01*
X0273125Y0138751D01*
X0273099Y0138883D01*
X0273078Y0139015D01*
X0273060Y0139148D01*
X0273046Y0139282D01*
X0273036Y0139416D01*
X0273030Y0139550D01*
X0273028Y0139684D01*
X0294091Y0171337D02*
X0294376Y0171334D01*
X0294662Y0171323D01*
X0294947Y0171306D01*
X0295231Y0171282D01*
X0295515Y0171251D01*
X0295798Y0171213D01*
X0296079Y0171168D01*
X0296360Y0171117D01*
X0296640Y0171059D01*
X0296918Y0170994D01*
X0297194Y0170922D01*
X0297468Y0170844D01*
X0297741Y0170759D01*
X0298011Y0170667D01*
X0298279Y0170569D01*
X0298545Y0170465D01*
X0298808Y0170354D01*
X0299068Y0170237D01*
X0299326Y0170114D01*
X0299580Y0169984D01*
X0299831Y0169848D01*
X0300079Y0169707D01*
X0300323Y0169559D01*
X0300564Y0169406D01*
X0300800Y0169246D01*
X0301033Y0169081D01*
X0301262Y0168911D01*
X0301487Y0168735D01*
X0301707Y0168553D01*
X0301923Y0168367D01*
X0302134Y0168175D01*
X0302341Y0167978D01*
X0302543Y0167776D01*
X0302740Y0167569D01*
X0302932Y0167358D01*
X0303118Y0167142D01*
X0303300Y0166922D01*
X0303476Y0166697D01*
X0303646Y0166468D01*
X0303811Y0166235D01*
X0303971Y0165999D01*
X0304124Y0165758D01*
X0304272Y0165514D01*
X0304413Y0165266D01*
X0304549Y0165015D01*
X0304679Y0164761D01*
X0304802Y0164503D01*
X0304919Y0164243D01*
X0305030Y0163980D01*
X0305134Y0163714D01*
X0305232Y0163446D01*
X0305324Y0163176D01*
X0305409Y0162903D01*
X0305487Y0162629D01*
X0305559Y0162353D01*
X0305624Y0162075D01*
X0305682Y0161795D01*
X0305733Y0161514D01*
X0305778Y0161233D01*
X0305816Y0160950D01*
X0305847Y0160666D01*
X0305871Y0160382D01*
X0305888Y0160097D01*
X0305899Y0159811D01*
X0305902Y0159526D01*
X0288185Y0159526D02*
X0288187Y0159679D01*
X0288193Y0159833D01*
X0288203Y0159986D01*
X0288217Y0160138D01*
X0288235Y0160291D01*
X0288257Y0160442D01*
X0288282Y0160593D01*
X0288312Y0160744D01*
X0288346Y0160894D01*
X0288383Y0161042D01*
X0288424Y0161190D01*
X0288469Y0161336D01*
X0288518Y0161482D01*
X0288571Y0161626D01*
X0288627Y0161768D01*
X0288687Y0161909D01*
X0288751Y0162049D01*
X0288818Y0162187D01*
X0288889Y0162323D01*
X0288964Y0162457D01*
X0289041Y0162589D01*
X0289123Y0162719D01*
X0289207Y0162847D01*
X0289295Y0162973D01*
X0289386Y0163096D01*
X0289480Y0163217D01*
X0289578Y0163335D01*
X0289678Y0163451D01*
X0289782Y0163564D01*
X0289888Y0163675D01*
X0289997Y0163783D01*
X0290109Y0163888D01*
X0290223Y0163989D01*
X0290341Y0164088D01*
X0290460Y0164184D01*
X0290582Y0164277D01*
X0290707Y0164366D01*
X0290834Y0164453D01*
X0290963Y0164535D01*
X0291094Y0164615D01*
X0291227Y0164691D01*
X0291362Y0164764D01*
X0291499Y0164833D01*
X0291638Y0164898D01*
X0291778Y0164960D01*
X0291920Y0165018D01*
X0292063Y0165073D01*
X0292208Y0165124D01*
X0292354Y0165171D01*
X0292501Y0165214D01*
X0292649Y0165253D01*
X0292798Y0165289D01*
X0292948Y0165320D01*
X0293099Y0165348D01*
X0293250Y0165372D01*
X0293403Y0165392D01*
X0293555Y0165408D01*
X0293708Y0165420D01*
X0293861Y0165428D01*
X0294014Y0165432D01*
X0294168Y0165432D01*
X0294321Y0165428D01*
X0294474Y0165420D01*
X0294627Y0165408D01*
X0294779Y0165392D01*
X0294932Y0165372D01*
X0295083Y0165348D01*
X0295234Y0165320D01*
X0295384Y0165289D01*
X0295533Y0165253D01*
X0295681Y0165214D01*
X0295828Y0165171D01*
X0295974Y0165124D01*
X0296119Y0165073D01*
X0296262Y0165018D01*
X0296404Y0164960D01*
X0296544Y0164898D01*
X0296683Y0164833D01*
X0296820Y0164764D01*
X0296955Y0164691D01*
X0297088Y0164615D01*
X0297219Y0164535D01*
X0297348Y0164453D01*
X0297475Y0164366D01*
X0297600Y0164277D01*
X0297722Y0164184D01*
X0297841Y0164088D01*
X0297959Y0163989D01*
X0298073Y0163888D01*
X0298185Y0163783D01*
X0298294Y0163675D01*
X0298400Y0163564D01*
X0298504Y0163451D01*
X0298604Y0163335D01*
X0298702Y0163217D01*
X0298796Y0163096D01*
X0298887Y0162973D01*
X0298975Y0162847D01*
X0299059Y0162719D01*
X0299141Y0162589D01*
X0299218Y0162457D01*
X0299293Y0162323D01*
X0299364Y0162187D01*
X0299431Y0162049D01*
X0299495Y0161909D01*
X0299555Y0161768D01*
X0299611Y0161626D01*
X0299664Y0161482D01*
X0299713Y0161336D01*
X0299758Y0161190D01*
X0299799Y0161042D01*
X0299836Y0160894D01*
X0299870Y0160744D01*
X0299900Y0160593D01*
X0299925Y0160442D01*
X0299947Y0160291D01*
X0299965Y0160138D01*
X0299979Y0159986D01*
X0299989Y0159833D01*
X0299995Y0159679D01*
X0299997Y0159526D01*
X0299995Y0159373D01*
X0299989Y0159219D01*
X0299979Y0159066D01*
X0299965Y0158914D01*
X0299947Y0158761D01*
X0299925Y0158610D01*
X0299900Y0158459D01*
X0299870Y0158308D01*
X0299836Y0158158D01*
X0299799Y0158010D01*
X0299758Y0157862D01*
X0299713Y0157716D01*
X0299664Y0157570D01*
X0299611Y0157426D01*
X0299555Y0157284D01*
X0299495Y0157143D01*
X0299431Y0157003D01*
X0299364Y0156865D01*
X0299293Y0156729D01*
X0299218Y0156595D01*
X0299141Y0156463D01*
X0299059Y0156333D01*
X0298975Y0156205D01*
X0298887Y0156079D01*
X0298796Y0155956D01*
X0298702Y0155835D01*
X0298604Y0155717D01*
X0298504Y0155601D01*
X0298400Y0155488D01*
X0298294Y0155377D01*
X0298185Y0155269D01*
X0298073Y0155164D01*
X0297959Y0155063D01*
X0297841Y0154964D01*
X0297722Y0154868D01*
X0297600Y0154775D01*
X0297475Y0154686D01*
X0297348Y0154599D01*
X0297219Y0154517D01*
X0297088Y0154437D01*
X0296955Y0154361D01*
X0296820Y0154288D01*
X0296683Y0154219D01*
X0296544Y0154154D01*
X0296404Y0154092D01*
X0296262Y0154034D01*
X0296119Y0153979D01*
X0295974Y0153928D01*
X0295828Y0153881D01*
X0295681Y0153838D01*
X0295533Y0153799D01*
X0295384Y0153763D01*
X0295234Y0153732D01*
X0295083Y0153704D01*
X0294932Y0153680D01*
X0294779Y0153660D01*
X0294627Y0153644D01*
X0294474Y0153632D01*
X0294321Y0153624D01*
X0294168Y0153620D01*
X0294014Y0153620D01*
X0293861Y0153624D01*
X0293708Y0153632D01*
X0293555Y0153644D01*
X0293403Y0153660D01*
X0293250Y0153680D01*
X0293099Y0153704D01*
X0292948Y0153732D01*
X0292798Y0153763D01*
X0292649Y0153799D01*
X0292501Y0153838D01*
X0292354Y0153881D01*
X0292208Y0153928D01*
X0292063Y0153979D01*
X0291920Y0154034D01*
X0291778Y0154092D01*
X0291638Y0154154D01*
X0291499Y0154219D01*
X0291362Y0154288D01*
X0291227Y0154361D01*
X0291094Y0154437D01*
X0290963Y0154517D01*
X0290834Y0154599D01*
X0290707Y0154686D01*
X0290582Y0154775D01*
X0290460Y0154868D01*
X0290341Y0154964D01*
X0290223Y0155063D01*
X0290109Y0155164D01*
X0289997Y0155269D01*
X0289888Y0155377D01*
X0289782Y0155488D01*
X0289678Y0155601D01*
X0289578Y0155717D01*
X0289480Y0155835D01*
X0289386Y0155956D01*
X0289295Y0156079D01*
X0289207Y0156205D01*
X0289123Y0156333D01*
X0289041Y0156463D01*
X0288964Y0156595D01*
X0288889Y0156729D01*
X0288818Y0156865D01*
X0288751Y0157003D01*
X0288687Y0157143D01*
X0288627Y0157284D01*
X0288571Y0157426D01*
X0288518Y0157570D01*
X0288469Y0157716D01*
X0288424Y0157862D01*
X0288383Y0158010D01*
X0288346Y0158158D01*
X0288312Y0158308D01*
X0288282Y0158459D01*
X0288257Y0158610D01*
X0288235Y0158761D01*
X0288217Y0158914D01*
X0288203Y0159066D01*
X0288193Y0159219D01*
X0288187Y0159373D01*
X0288185Y0159526D01*
X0294091Y0171337D02*
X0065745Y0171337D01*
X0065460Y0171334D01*
X0065174Y0171323D01*
X0064889Y0171306D01*
X0064605Y0171282D01*
X0064321Y0171251D01*
X0064038Y0171213D01*
X0063757Y0171168D01*
X0063476Y0171117D01*
X0063196Y0171059D01*
X0062918Y0170994D01*
X0062642Y0170922D01*
X0062368Y0170844D01*
X0062095Y0170759D01*
X0061825Y0170667D01*
X0061557Y0170569D01*
X0061291Y0170465D01*
X0061028Y0170354D01*
X0060768Y0170237D01*
X0060510Y0170114D01*
X0060256Y0169984D01*
X0060005Y0169848D01*
X0059757Y0169707D01*
X0059513Y0169559D01*
X0059272Y0169406D01*
X0059036Y0169246D01*
X0058803Y0169081D01*
X0058574Y0168911D01*
X0058349Y0168735D01*
X0058129Y0168553D01*
X0057913Y0168367D01*
X0057702Y0168175D01*
X0057495Y0167978D01*
X0057293Y0167776D01*
X0057096Y0167569D01*
X0056904Y0167358D01*
X0056718Y0167142D01*
X0056536Y0166922D01*
X0056360Y0166697D01*
X0056190Y0166468D01*
X0056025Y0166235D01*
X0055865Y0165999D01*
X0055712Y0165758D01*
X0055564Y0165514D01*
X0055423Y0165266D01*
X0055287Y0165015D01*
X0055157Y0164761D01*
X0055034Y0164503D01*
X0054917Y0164243D01*
X0054806Y0163980D01*
X0054702Y0163714D01*
X0054604Y0163446D01*
X0054512Y0163176D01*
X0054427Y0162903D01*
X0054349Y0162629D01*
X0054277Y0162353D01*
X0054212Y0162075D01*
X0054154Y0161795D01*
X0054103Y0161514D01*
X0054058Y0161233D01*
X0054020Y0160950D01*
X0053989Y0160666D01*
X0053965Y0160382D01*
X0053948Y0160097D01*
X0053937Y0159811D01*
X0053934Y0159526D01*
X0053934Y0072912D01*
X0053937Y0072627D01*
X0053948Y0072341D01*
X0053965Y0072056D01*
X0053989Y0071772D01*
X0054020Y0071488D01*
X0054058Y0071205D01*
X0054103Y0070924D01*
X0054154Y0070643D01*
X0054212Y0070363D01*
X0054277Y0070085D01*
X0054349Y0069809D01*
X0054427Y0069535D01*
X0054512Y0069262D01*
X0054604Y0068992D01*
X0054702Y0068724D01*
X0054806Y0068458D01*
X0054917Y0068195D01*
X0055034Y0067935D01*
X0055157Y0067677D01*
X0055287Y0067423D01*
X0055423Y0067172D01*
X0055564Y0066924D01*
X0055712Y0066680D01*
X0055865Y0066439D01*
X0056025Y0066203D01*
X0056190Y0065970D01*
X0056360Y0065741D01*
X0056536Y0065516D01*
X0056718Y0065296D01*
X0056904Y0065080D01*
X0057096Y0064869D01*
X0057293Y0064662D01*
X0057495Y0064460D01*
X0057702Y0064263D01*
X0057913Y0064071D01*
X0058129Y0063885D01*
X0058349Y0063703D01*
X0058574Y0063527D01*
X0058803Y0063357D01*
X0059036Y0063192D01*
X0059272Y0063032D01*
X0059513Y0062879D01*
X0059757Y0062731D01*
X0060005Y0062590D01*
X0060256Y0062454D01*
X0060510Y0062324D01*
X0060768Y0062201D01*
X0061028Y0062084D01*
X0061291Y0061973D01*
X0061557Y0061869D01*
X0061825Y0061771D01*
X0062095Y0061679D01*
X0062368Y0061594D01*
X0062642Y0061516D01*
X0062918Y0061444D01*
X0063196Y0061379D01*
X0063476Y0061321D01*
X0063757Y0061270D01*
X0064038Y0061225D01*
X0064321Y0061187D01*
X0064605Y0061156D01*
X0064889Y0061132D01*
X0065174Y0061115D01*
X0065460Y0061104D01*
X0065745Y0061101D01*
X0059839Y0072912D02*
X0059841Y0073065D01*
X0059847Y0073219D01*
X0059857Y0073372D01*
X0059871Y0073524D01*
X0059889Y0073677D01*
X0059911Y0073828D01*
X0059936Y0073979D01*
X0059966Y0074130D01*
X0060000Y0074280D01*
X0060037Y0074428D01*
X0060078Y0074576D01*
X0060123Y0074722D01*
X0060172Y0074868D01*
X0060225Y0075012D01*
X0060281Y0075154D01*
X0060341Y0075295D01*
X0060405Y0075435D01*
X0060472Y0075573D01*
X0060543Y0075709D01*
X0060618Y0075843D01*
X0060695Y0075975D01*
X0060777Y0076105D01*
X0060861Y0076233D01*
X0060949Y0076359D01*
X0061040Y0076482D01*
X0061134Y0076603D01*
X0061232Y0076721D01*
X0061332Y0076837D01*
X0061436Y0076950D01*
X0061542Y0077061D01*
X0061651Y0077169D01*
X0061763Y0077274D01*
X0061877Y0077375D01*
X0061995Y0077474D01*
X0062114Y0077570D01*
X0062236Y0077663D01*
X0062361Y0077752D01*
X0062488Y0077839D01*
X0062617Y0077921D01*
X0062748Y0078001D01*
X0062881Y0078077D01*
X0063016Y0078150D01*
X0063153Y0078219D01*
X0063292Y0078284D01*
X0063432Y0078346D01*
X0063574Y0078404D01*
X0063717Y0078459D01*
X0063862Y0078510D01*
X0064008Y0078557D01*
X0064155Y0078600D01*
X0064303Y0078639D01*
X0064452Y0078675D01*
X0064602Y0078706D01*
X0064753Y0078734D01*
X0064904Y0078758D01*
X0065057Y0078778D01*
X0065209Y0078794D01*
X0065362Y0078806D01*
X0065515Y0078814D01*
X0065668Y0078818D01*
X0065822Y0078818D01*
X0065975Y0078814D01*
X0066128Y0078806D01*
X0066281Y0078794D01*
X0066433Y0078778D01*
X0066586Y0078758D01*
X0066737Y0078734D01*
X0066888Y0078706D01*
X0067038Y0078675D01*
X0067187Y0078639D01*
X0067335Y0078600D01*
X0067482Y0078557D01*
X0067628Y0078510D01*
X0067773Y0078459D01*
X0067916Y0078404D01*
X0068058Y0078346D01*
X0068198Y0078284D01*
X0068337Y0078219D01*
X0068474Y0078150D01*
X0068609Y0078077D01*
X0068742Y0078001D01*
X0068873Y0077921D01*
X0069002Y0077839D01*
X0069129Y0077752D01*
X0069254Y0077663D01*
X0069376Y0077570D01*
X0069495Y0077474D01*
X0069613Y0077375D01*
X0069727Y0077274D01*
X0069839Y0077169D01*
X0069948Y0077061D01*
X0070054Y0076950D01*
X0070158Y0076837D01*
X0070258Y0076721D01*
X0070356Y0076603D01*
X0070450Y0076482D01*
X0070541Y0076359D01*
X0070629Y0076233D01*
X0070713Y0076105D01*
X0070795Y0075975D01*
X0070872Y0075843D01*
X0070947Y0075709D01*
X0071018Y0075573D01*
X0071085Y0075435D01*
X0071149Y0075295D01*
X0071209Y0075154D01*
X0071265Y0075012D01*
X0071318Y0074868D01*
X0071367Y0074722D01*
X0071412Y0074576D01*
X0071453Y0074428D01*
X0071490Y0074280D01*
X0071524Y0074130D01*
X0071554Y0073979D01*
X0071579Y0073828D01*
X0071601Y0073677D01*
X0071619Y0073524D01*
X0071633Y0073372D01*
X0071643Y0073219D01*
X0071649Y0073065D01*
X0071651Y0072912D01*
X0071649Y0072759D01*
X0071643Y0072605D01*
X0071633Y0072452D01*
X0071619Y0072300D01*
X0071601Y0072147D01*
X0071579Y0071996D01*
X0071554Y0071845D01*
X0071524Y0071694D01*
X0071490Y0071544D01*
X0071453Y0071396D01*
X0071412Y0071248D01*
X0071367Y0071102D01*
X0071318Y0070956D01*
X0071265Y0070812D01*
X0071209Y0070670D01*
X0071149Y0070529D01*
X0071085Y0070389D01*
X0071018Y0070251D01*
X0070947Y0070115D01*
X0070872Y0069981D01*
X0070795Y0069849D01*
X0070713Y0069719D01*
X0070629Y0069591D01*
X0070541Y0069465D01*
X0070450Y0069342D01*
X0070356Y0069221D01*
X0070258Y0069103D01*
X0070158Y0068987D01*
X0070054Y0068874D01*
X0069948Y0068763D01*
X0069839Y0068655D01*
X0069727Y0068550D01*
X0069613Y0068449D01*
X0069495Y0068350D01*
X0069376Y0068254D01*
X0069254Y0068161D01*
X0069129Y0068072D01*
X0069002Y0067985D01*
X0068873Y0067903D01*
X0068742Y0067823D01*
X0068609Y0067747D01*
X0068474Y0067674D01*
X0068337Y0067605D01*
X0068198Y0067540D01*
X0068058Y0067478D01*
X0067916Y0067420D01*
X0067773Y0067365D01*
X0067628Y0067314D01*
X0067482Y0067267D01*
X0067335Y0067224D01*
X0067187Y0067185D01*
X0067038Y0067149D01*
X0066888Y0067118D01*
X0066737Y0067090D01*
X0066586Y0067066D01*
X0066433Y0067046D01*
X0066281Y0067030D01*
X0066128Y0067018D01*
X0065975Y0067010D01*
X0065822Y0067006D01*
X0065668Y0067006D01*
X0065515Y0067010D01*
X0065362Y0067018D01*
X0065209Y0067030D01*
X0065057Y0067046D01*
X0064904Y0067066D01*
X0064753Y0067090D01*
X0064602Y0067118D01*
X0064452Y0067149D01*
X0064303Y0067185D01*
X0064155Y0067224D01*
X0064008Y0067267D01*
X0063862Y0067314D01*
X0063717Y0067365D01*
X0063574Y0067420D01*
X0063432Y0067478D01*
X0063292Y0067540D01*
X0063153Y0067605D01*
X0063016Y0067674D01*
X0062881Y0067747D01*
X0062748Y0067823D01*
X0062617Y0067903D01*
X0062488Y0067985D01*
X0062361Y0068072D01*
X0062236Y0068161D01*
X0062114Y0068254D01*
X0061995Y0068350D01*
X0061877Y0068449D01*
X0061763Y0068550D01*
X0061651Y0068655D01*
X0061542Y0068763D01*
X0061436Y0068874D01*
X0061332Y0068987D01*
X0061232Y0069103D01*
X0061134Y0069221D01*
X0061040Y0069342D01*
X0060949Y0069465D01*
X0060861Y0069591D01*
X0060777Y0069719D01*
X0060695Y0069849D01*
X0060618Y0069981D01*
X0060543Y0070115D01*
X0060472Y0070251D01*
X0060405Y0070389D01*
X0060341Y0070529D01*
X0060281Y0070670D01*
X0060225Y0070812D01*
X0060172Y0070956D01*
X0060123Y0071102D01*
X0060078Y0071248D01*
X0060037Y0071396D01*
X0060000Y0071544D01*
X0059966Y0071694D01*
X0059936Y0071845D01*
X0059911Y0071996D01*
X0059889Y0072147D01*
X0059871Y0072300D01*
X0059857Y0072452D01*
X0059847Y0072605D01*
X0059841Y0072759D01*
X0059839Y0072912D01*
X0059839Y0159526D02*
X0059841Y0159679D01*
X0059847Y0159833D01*
X0059857Y0159986D01*
X0059871Y0160138D01*
X0059889Y0160291D01*
X0059911Y0160442D01*
X0059936Y0160593D01*
X0059966Y0160744D01*
X0060000Y0160894D01*
X0060037Y0161042D01*
X0060078Y0161190D01*
X0060123Y0161336D01*
X0060172Y0161482D01*
X0060225Y0161626D01*
X0060281Y0161768D01*
X0060341Y0161909D01*
X0060405Y0162049D01*
X0060472Y0162187D01*
X0060543Y0162323D01*
X0060618Y0162457D01*
X0060695Y0162589D01*
X0060777Y0162719D01*
X0060861Y0162847D01*
X0060949Y0162973D01*
X0061040Y0163096D01*
X0061134Y0163217D01*
X0061232Y0163335D01*
X0061332Y0163451D01*
X0061436Y0163564D01*
X0061542Y0163675D01*
X0061651Y0163783D01*
X0061763Y0163888D01*
X0061877Y0163989D01*
X0061995Y0164088D01*
X0062114Y0164184D01*
X0062236Y0164277D01*
X0062361Y0164366D01*
X0062488Y0164453D01*
X0062617Y0164535D01*
X0062748Y0164615D01*
X0062881Y0164691D01*
X0063016Y0164764D01*
X0063153Y0164833D01*
X0063292Y0164898D01*
X0063432Y0164960D01*
X0063574Y0165018D01*
X0063717Y0165073D01*
X0063862Y0165124D01*
X0064008Y0165171D01*
X0064155Y0165214D01*
X0064303Y0165253D01*
X0064452Y0165289D01*
X0064602Y0165320D01*
X0064753Y0165348D01*
X0064904Y0165372D01*
X0065057Y0165392D01*
X0065209Y0165408D01*
X0065362Y0165420D01*
X0065515Y0165428D01*
X0065668Y0165432D01*
X0065822Y0165432D01*
X0065975Y0165428D01*
X0066128Y0165420D01*
X0066281Y0165408D01*
X0066433Y0165392D01*
X0066586Y0165372D01*
X0066737Y0165348D01*
X0066888Y0165320D01*
X0067038Y0165289D01*
X0067187Y0165253D01*
X0067335Y0165214D01*
X0067482Y0165171D01*
X0067628Y0165124D01*
X0067773Y0165073D01*
X0067916Y0165018D01*
X0068058Y0164960D01*
X0068198Y0164898D01*
X0068337Y0164833D01*
X0068474Y0164764D01*
X0068609Y0164691D01*
X0068742Y0164615D01*
X0068873Y0164535D01*
X0069002Y0164453D01*
X0069129Y0164366D01*
X0069254Y0164277D01*
X0069376Y0164184D01*
X0069495Y0164088D01*
X0069613Y0163989D01*
X0069727Y0163888D01*
X0069839Y0163783D01*
X0069948Y0163675D01*
X0070054Y0163564D01*
X0070158Y0163451D01*
X0070258Y0163335D01*
X0070356Y0163217D01*
X0070450Y0163096D01*
X0070541Y0162973D01*
X0070629Y0162847D01*
X0070713Y0162719D01*
X0070795Y0162589D01*
X0070872Y0162457D01*
X0070947Y0162323D01*
X0071018Y0162187D01*
X0071085Y0162049D01*
X0071149Y0161909D01*
X0071209Y0161768D01*
X0071265Y0161626D01*
X0071318Y0161482D01*
X0071367Y0161336D01*
X0071412Y0161190D01*
X0071453Y0161042D01*
X0071490Y0160894D01*
X0071524Y0160744D01*
X0071554Y0160593D01*
X0071579Y0160442D01*
X0071601Y0160291D01*
X0071619Y0160138D01*
X0071633Y0159986D01*
X0071643Y0159833D01*
X0071649Y0159679D01*
X0071651Y0159526D01*
X0071649Y0159373D01*
X0071643Y0159219D01*
X0071633Y0159066D01*
X0071619Y0158914D01*
X0071601Y0158761D01*
X0071579Y0158610D01*
X0071554Y0158459D01*
X0071524Y0158308D01*
X0071490Y0158158D01*
X0071453Y0158010D01*
X0071412Y0157862D01*
X0071367Y0157716D01*
X0071318Y0157570D01*
X0071265Y0157426D01*
X0071209Y0157284D01*
X0071149Y0157143D01*
X0071085Y0157003D01*
X0071018Y0156865D01*
X0070947Y0156729D01*
X0070872Y0156595D01*
X0070795Y0156463D01*
X0070713Y0156333D01*
X0070629Y0156205D01*
X0070541Y0156079D01*
X0070450Y0155956D01*
X0070356Y0155835D01*
X0070258Y0155717D01*
X0070158Y0155601D01*
X0070054Y0155488D01*
X0069948Y0155377D01*
X0069839Y0155269D01*
X0069727Y0155164D01*
X0069613Y0155063D01*
X0069495Y0154964D01*
X0069376Y0154868D01*
X0069254Y0154775D01*
X0069129Y0154686D01*
X0069002Y0154599D01*
X0068873Y0154517D01*
X0068742Y0154437D01*
X0068609Y0154361D01*
X0068474Y0154288D01*
X0068337Y0154219D01*
X0068198Y0154154D01*
X0068058Y0154092D01*
X0067916Y0154034D01*
X0067773Y0153979D01*
X0067628Y0153928D01*
X0067482Y0153881D01*
X0067335Y0153838D01*
X0067187Y0153799D01*
X0067038Y0153763D01*
X0066888Y0153732D01*
X0066737Y0153704D01*
X0066586Y0153680D01*
X0066433Y0153660D01*
X0066281Y0153644D01*
X0066128Y0153632D01*
X0065975Y0153624D01*
X0065822Y0153620D01*
X0065668Y0153620D01*
X0065515Y0153624D01*
X0065362Y0153632D01*
X0065209Y0153644D01*
X0065057Y0153660D01*
X0064904Y0153680D01*
X0064753Y0153704D01*
X0064602Y0153732D01*
X0064452Y0153763D01*
X0064303Y0153799D01*
X0064155Y0153838D01*
X0064008Y0153881D01*
X0063862Y0153928D01*
X0063717Y0153979D01*
X0063574Y0154034D01*
X0063432Y0154092D01*
X0063292Y0154154D01*
X0063153Y0154219D01*
X0063016Y0154288D01*
X0062881Y0154361D01*
X0062748Y0154437D01*
X0062617Y0154517D01*
X0062488Y0154599D01*
X0062361Y0154686D01*
X0062236Y0154775D01*
X0062114Y0154868D01*
X0061995Y0154964D01*
X0061877Y0155063D01*
X0061763Y0155164D01*
X0061651Y0155269D01*
X0061542Y0155377D01*
X0061436Y0155488D01*
X0061332Y0155601D01*
X0061232Y0155717D01*
X0061134Y0155835D01*
X0061040Y0155956D01*
X0060949Y0156079D01*
X0060861Y0156205D01*
X0060777Y0156333D01*
X0060695Y0156463D01*
X0060618Y0156595D01*
X0060543Y0156729D01*
X0060472Y0156865D01*
X0060405Y0157003D01*
X0060341Y0157143D01*
X0060281Y0157284D01*
X0060225Y0157426D01*
X0060172Y0157570D01*
X0060123Y0157716D01*
X0060078Y0157862D01*
X0060037Y0158010D01*
X0060000Y0158158D01*
X0059966Y0158308D01*
X0059936Y0158459D01*
X0059911Y0158610D01*
X0059889Y0158761D01*
X0059871Y0158914D01*
X0059857Y0159066D01*
X0059847Y0159219D01*
X0059841Y0159373D01*
X0059839Y0159526D01*
D11*
X0203934Y0092597D03*
X0214957Y0092597D03*
X0227556Y0131967D03*
X0238579Y0131967D03*
D12*
X0244879Y0108148D03*
X0244879Y0100668D03*
X0197635Y0106574D03*
X0197635Y0114054D03*
D13*
X0173028Y0098503D03*
X0159249Y0098503D03*
X0159249Y0084723D03*
X0173028Y0084723D03*
X0173028Y0070944D03*
X0159249Y0070944D03*
D14*
X0090115Y0076495D03*
X0082241Y0076495D03*
X0081493Y0154605D03*
X0089367Y0154605D03*
D15*
X0140745Y0098503D03*
X0148225Y0098503D03*
X0148225Y0084723D03*
X0140745Y0084723D03*
X0140745Y0070944D03*
X0148225Y0070944D03*
X0201768Y0129999D03*
X0209249Y0129999D03*
D16*
X0159406Y0150668D03*
X0139406Y0150668D03*
D17*
X0080312Y0130589D03*
X0070863Y0130589D03*
X0080705Y0122519D03*
X0080705Y0116219D03*
X0080705Y0109920D03*
X0080312Y0101849D03*
X0070863Y0101849D03*
X0070469Y0113070D03*
X0070469Y0119369D03*
D18*
X0209157Y0119782D03*
X0209157Y0114782D03*
X0209157Y0109782D03*
X0209157Y0104782D03*
X0233357Y0104782D03*
X0233357Y0109782D03*
X0233357Y0114782D03*
X0233357Y0119782D03*
D19*
X0154327Y0120156D03*
X0150390Y0120156D03*
X0150390Y0116219D03*
X0154327Y0116219D03*
D20*
X0213399Y0159526D03*
X0248799Y0159526D03*
D21*
X0288186Y0127873D03*
X0288186Y0118030D03*
X0288186Y0110156D03*
X0288186Y0100314D03*
D22*
X0118894Y0111219D03*
D23*
X0118894Y0121219D03*
D24*
X0140548Y0118188D02*
X0140548Y0129015D01*
X0141886Y0130353D01*
X0153517Y0130353D01*
X0153343Y0130527D01*
X0153343Y0132558D01*
X0153517Y0130353D02*
X0166138Y0130353D01*
X0166138Y0114251D01*
X0177949Y0122125D02*
X0177949Y0085708D01*
X0176965Y0084723D01*
X0173028Y0084723D01*
X0181886Y0076849D02*
X0181886Y0118188D01*
X0174012Y0126062D02*
X0174012Y0098927D01*
X0173589Y0098503D01*
X0159249Y0098503D02*
X0148225Y0098503D01*
X0148225Y0084723D02*
X0159249Y0084723D01*
X0159249Y0070944D02*
X0148225Y0070944D01*
X0175981Y0070944D02*
X0181886Y0076849D01*
X0233357Y0109782D02*
X0243245Y0109782D01*
X0244879Y0108148D01*
X0239505Y0114782D02*
X0248799Y0124077D01*
X0248799Y0159526D01*
X0213399Y0159526D02*
X0213383Y0159526D01*
X0201768Y0129999D02*
X0201572Y0129802D01*
X0201572Y0122125D01*
X0203914Y0119782D01*
X0209157Y0119782D01*
X0197635Y0114251D02*
X0197635Y0114054D01*
X0233357Y0114782D02*
X0239505Y0114782D01*
D25*
X0279327Y0120156D03*
X0280312Y0110314D03*
X0221257Y0082755D03*
X0189760Y0068975D03*
X0162201Y0108345D03*
X0166138Y0114251D03*
X0177949Y0122125D03*
X0174012Y0126062D03*
X0181886Y0118188D03*
X0194319Y0122487D03*
X0153343Y0132558D03*
X0136808Y0123030D03*
X0132674Y0122125D03*
X0140548Y0118188D03*
X0189760Y0163463D03*
D26*
X0305902Y0061101D02*
X0053934Y0061101D01*
X0305902Y0061101D01*
X0305902Y0171337D01*
X0053934Y0171337D01*
X0053934Y0061101D01*
X0053934Y0062100D02*
X0305902Y0062100D01*
X0305902Y0063098D02*
X0053934Y0063098D01*
X0053934Y0064097D02*
X0305902Y0064097D01*
X0305902Y0065095D02*
X0053934Y0065095D01*
X0053934Y0066094D02*
X0305902Y0066094D01*
X0305902Y0067092D02*
X0296779Y0067092D01*
X0297720Y0067482D02*
X0299522Y0069284D01*
X0300497Y0071638D01*
X0300497Y0074186D01*
X0299522Y0076541D01*
X0297720Y0078343D01*
X0295365Y0079318D01*
X0292817Y0079318D01*
X0290463Y0078343D01*
X0288661Y0076541D01*
X0287686Y0074186D01*
X0287686Y0071638D01*
X0288661Y0069284D01*
X0290463Y0067482D01*
X0292817Y0066507D01*
X0295365Y0066507D01*
X0297720Y0067482D01*
X0298329Y0068091D02*
X0305902Y0068091D01*
X0305902Y0069089D02*
X0299327Y0069089D01*
X0299855Y0070088D02*
X0305902Y0070088D01*
X0305902Y0071086D02*
X0300268Y0071086D01*
X0300497Y0072085D02*
X0305902Y0072085D01*
X0305902Y0073083D02*
X0300497Y0073083D01*
X0300497Y0074082D02*
X0305902Y0074082D01*
X0305902Y0075080D02*
X0300126Y0075080D01*
X0299713Y0076079D02*
X0305902Y0076079D01*
X0305902Y0077077D02*
X0298985Y0077077D01*
X0297986Y0078076D02*
X0305902Y0078076D01*
X0305902Y0079074D02*
X0295953Y0079074D01*
X0292230Y0079074D02*
X0183961Y0079074D01*
X0183961Y0078076D02*
X0290196Y0078076D01*
X0289198Y0077077D02*
X0183961Y0077077D01*
X0183961Y0076079D02*
X0288470Y0076079D01*
X0288056Y0075080D02*
X0183052Y0075080D01*
X0182746Y0074774D02*
X0183961Y0075990D01*
X0183961Y0116772D01*
X0183979Y0116790D01*
X0184355Y0117697D01*
X0184355Y0118679D01*
X0183979Y0119586D01*
X0183285Y0120281D01*
X0182377Y0120656D01*
X0181395Y0120656D01*
X0180488Y0120281D01*
X0180024Y0119817D01*
X0180024Y0120709D01*
X0180042Y0120727D01*
X0180418Y0121634D01*
X0180418Y0122616D01*
X0180042Y0123523D01*
X0179348Y0124218D01*
X0178440Y0124593D01*
X0177458Y0124593D01*
X0176551Y0124218D01*
X0176087Y0123754D01*
X0176087Y0124646D01*
X0176105Y0124664D01*
X0176481Y0125571D01*
X0176481Y0126553D01*
X0176105Y0127460D01*
X0175411Y0128155D01*
X0174503Y0128530D01*
X0173521Y0128530D01*
X0172614Y0128155D01*
X0171920Y0127460D01*
X0171544Y0126553D01*
X0171544Y0125571D01*
X0171920Y0124664D01*
X0171938Y0124646D01*
X0171938Y0102940D01*
X0169461Y0102940D01*
X0168591Y0102070D01*
X0168591Y0094935D01*
X0169461Y0094066D01*
X0175875Y0094066D01*
X0175875Y0089160D01*
X0169461Y0089160D01*
X0168591Y0088291D01*
X0168591Y0081156D01*
X0169461Y0080286D01*
X0176596Y0080286D01*
X0177465Y0081156D01*
X0177465Y0082648D01*
X0177825Y0082648D01*
X0179040Y0083864D01*
X0179812Y0084636D01*
X0179812Y0077709D01*
X0177040Y0074937D01*
X0176596Y0075381D01*
X0169461Y0075381D01*
X0168591Y0074511D01*
X0168591Y0067376D01*
X0169461Y0066507D01*
X0176596Y0066507D01*
X0177465Y0067376D01*
X0177465Y0069494D01*
X0182746Y0074774D01*
X0182053Y0074082D02*
X0287686Y0074082D01*
X0287686Y0073083D02*
X0181055Y0073083D01*
X0180056Y0072085D02*
X0287686Y0072085D01*
X0287914Y0071086D02*
X0191073Y0071086D01*
X0190937Y0071177D02*
X0191344Y0070905D01*
X0191690Y0070559D01*
X0191962Y0070152D01*
X0192149Y0069700D01*
X0192245Y0069220D01*
X0192245Y0068975D01*
X0189761Y0068975D01*
X0189761Y0068975D01*
X0189761Y0066491D01*
X0190005Y0066491D01*
X0190485Y0066586D01*
X0190937Y0066774D01*
X0191344Y0067046D01*
X0191690Y0067392D01*
X0191962Y0067799D01*
X0192149Y0068251D01*
X0192245Y0068731D01*
X0192245Y0068975D01*
X0189761Y0068975D01*
X0189760Y0068975D01*
X0187276Y0068975D01*
X0187276Y0068731D01*
X0187372Y0068251D01*
X0187559Y0067799D01*
X0187831Y0067392D01*
X0188177Y0067046D01*
X0188584Y0066774D01*
X0189036Y0066586D01*
X0189516Y0066491D01*
X0189760Y0066491D01*
X0189760Y0068975D01*
X0189760Y0068975D01*
X0187276Y0068975D01*
X0187276Y0069220D01*
X0187372Y0069700D01*
X0187559Y0070152D01*
X0187831Y0070559D01*
X0188177Y0070905D01*
X0188584Y0071177D01*
X0189036Y0071364D01*
X0189516Y0071459D01*
X0189760Y0071459D01*
X0189760Y0068975D01*
X0189761Y0068975D01*
X0189761Y0071459D01*
X0190005Y0071459D01*
X0190485Y0071364D01*
X0190937Y0071177D01*
X0189761Y0071086D02*
X0189760Y0071086D01*
X0189760Y0070088D02*
X0189761Y0070088D01*
X0189760Y0069089D02*
X0189761Y0069089D01*
X0189760Y0068091D02*
X0189761Y0068091D01*
X0189760Y0067092D02*
X0189761Y0067092D01*
X0191391Y0067092D02*
X0291403Y0067092D01*
X0289854Y0068091D02*
X0192083Y0068091D01*
X0192245Y0069089D02*
X0288855Y0069089D01*
X0288328Y0070088D02*
X0191989Y0070088D01*
X0188448Y0071086D02*
X0179058Y0071086D01*
X0178059Y0070088D02*
X0187532Y0070088D01*
X0187276Y0069089D02*
X0177465Y0069089D01*
X0177465Y0068091D02*
X0187438Y0068091D01*
X0188130Y0067092D02*
X0177181Y0067092D01*
X0175981Y0070944D02*
X0173028Y0070944D01*
X0168591Y0071086D02*
X0163686Y0071086D01*
X0163686Y0070088D02*
X0168591Y0070088D01*
X0168591Y0069089D02*
X0163686Y0069089D01*
X0163686Y0068091D02*
X0168591Y0068091D01*
X0168875Y0067092D02*
X0163402Y0067092D01*
X0163686Y0067376D02*
X0163686Y0074511D01*
X0162816Y0075381D01*
X0155681Y0075381D01*
X0154812Y0074511D01*
X0154812Y0073019D01*
X0152268Y0073019D01*
X0152268Y0074511D01*
X0151399Y0075381D01*
X0145051Y0075381D01*
X0144485Y0074814D01*
X0143919Y0075381D01*
X0143410Y0075381D01*
X0143410Y0080286D01*
X0143919Y0080286D01*
X0144485Y0080853D01*
X0145051Y0080286D01*
X0151399Y0080286D01*
X0152268Y0081156D01*
X0152268Y0082648D01*
X0154812Y0082648D01*
X0154812Y0081156D01*
X0155681Y0080286D01*
X0162816Y0080286D01*
X0163686Y0081156D01*
X0163686Y0088291D01*
X0162816Y0089160D01*
X0155681Y0089160D01*
X0154812Y0088291D01*
X0154812Y0086798D01*
X0152268Y0086798D01*
X0152268Y0088291D01*
X0151399Y0089160D01*
X0145051Y0089160D01*
X0144485Y0088594D01*
X0143919Y0089160D01*
X0143410Y0089160D01*
X0143410Y0094066D01*
X0143919Y0094066D01*
X0144485Y0094632D01*
X0145051Y0094066D01*
X0151399Y0094066D01*
X0152268Y0094935D01*
X0152268Y0096428D01*
X0154812Y0096428D01*
X0154812Y0094935D01*
X0155681Y0094066D01*
X0162816Y0094066D01*
X0163686Y0094935D01*
X0163686Y0102070D01*
X0162816Y0102940D01*
X0155681Y0102940D01*
X0154812Y0102070D01*
X0154812Y0100578D01*
X0152268Y0100578D01*
X0152268Y0102070D01*
X0151399Y0102940D01*
X0145051Y0102940D01*
X0144485Y0102373D01*
X0143919Y0102940D01*
X0143410Y0102940D01*
X0143410Y0106710D01*
X0143004Y0107690D01*
X0135339Y0115355D01*
X0135339Y0121024D01*
X0135631Y0120829D01*
X0136083Y0120642D01*
X0136563Y0120546D01*
X0136808Y0120546D01*
X0137052Y0120546D01*
X0137532Y0120642D01*
X0137984Y0120829D01*
X0138391Y0121101D01*
X0138473Y0121182D01*
X0138473Y0119604D01*
X0138455Y0119586D01*
X0138079Y0118679D01*
X0138079Y0117697D01*
X0138455Y0116790D01*
X0139150Y0116095D01*
X0140057Y0115719D01*
X0141039Y0115719D01*
X0141946Y0116095D01*
X0142641Y0116790D01*
X0143016Y0117697D01*
X0143016Y0118679D01*
X0142641Y0119586D01*
X0142623Y0119604D01*
X0142623Y0128155D01*
X0142746Y0128278D01*
X0164064Y0128278D01*
X0164064Y0115667D01*
X0164046Y0115649D01*
X0163670Y0114742D01*
X0163670Y0113760D01*
X0164046Y0112853D01*
X0164740Y0112158D01*
X0165647Y0111782D01*
X0166629Y0111782D01*
X0167537Y0112158D01*
X0168231Y0112853D01*
X0168607Y0113760D01*
X0168607Y0114742D01*
X0168231Y0115649D01*
X0168213Y0115667D01*
X0168213Y0131213D01*
X0166998Y0132428D01*
X0155812Y0132428D01*
X0155812Y0133049D01*
X0155436Y0133956D01*
X0154741Y0134651D01*
X0153834Y0135026D01*
X0152852Y0135026D01*
X0151945Y0134651D01*
X0151250Y0133956D01*
X0150875Y0133049D01*
X0150875Y0132428D01*
X0142809Y0132428D01*
X0147557Y0137176D01*
X0175861Y0137176D01*
X0192060Y0120977D01*
X0194940Y0118097D01*
X0194067Y0118097D01*
X0193198Y0117228D01*
X0193198Y0110880D01*
X0193753Y0110325D01*
X0193481Y0110054D01*
X0193284Y0109712D01*
X0193182Y0109330D01*
X0193182Y0107074D01*
X0197134Y0107074D01*
X0197134Y0106074D01*
X0193182Y0106074D01*
X0193182Y0103817D01*
X0193284Y0103436D01*
X0193481Y0103094D01*
X0193761Y0102814D01*
X0194103Y0102617D01*
X0194484Y0102515D01*
X0197135Y0102515D01*
X0197135Y0106074D01*
X0198134Y0106074D01*
X0198134Y0102515D01*
X0200785Y0102515D01*
X0201166Y0102617D01*
X0201508Y0102814D01*
X0201788Y0103094D01*
X0201985Y0103436D01*
X0202087Y0103817D01*
X0202087Y0106074D01*
X0198135Y0106074D01*
X0198135Y0107074D01*
X0202087Y0107074D01*
X0202087Y0109330D01*
X0201985Y0109712D01*
X0201788Y0110054D01*
X0201516Y0110325D01*
X0202072Y0110880D01*
X0202072Y0112117D01*
X0204092Y0112117D01*
X0203672Y0111697D01*
X0203672Y0107868D01*
X0204249Y0107291D01*
X0204236Y0107283D01*
X0203956Y0107003D01*
X0203759Y0106661D01*
X0203657Y0106280D01*
X0203657Y0104932D01*
X0209006Y0104932D01*
X0209006Y0104632D01*
X0203657Y0104632D01*
X0203657Y0103285D01*
X0203759Y0102903D01*
X0203956Y0102561D01*
X0204236Y0102282D01*
X0204578Y0102085D01*
X0204959Y0101982D01*
X0209007Y0101982D01*
X0209007Y0104632D01*
X0209307Y0104632D01*
X0209307Y0104932D01*
X0214657Y0104932D01*
X0214657Y0106280D01*
X0214554Y0106661D01*
X0214357Y0107003D01*
X0214078Y0107283D01*
X0214064Y0107291D01*
X0214641Y0107868D01*
X0214641Y0111697D01*
X0214221Y0112117D01*
X0216623Y0112117D01*
X0216623Y0099397D01*
X0211193Y0099397D01*
X0210323Y0098527D01*
X0210323Y0086668D01*
X0211193Y0085798D01*
X0218722Y0085798D01*
X0219591Y0086668D01*
X0219591Y0093068D01*
X0220798Y0094275D01*
X0221548Y0095025D01*
X0221953Y0096004D01*
X0221953Y0149230D01*
X0221548Y0150209D01*
X0216048Y0155709D01*
X0216048Y0155892D01*
X0217964Y0155892D01*
X0218833Y0156762D01*
X0218833Y0162291D01*
X0217964Y0163161D01*
X0208834Y0163161D01*
X0207965Y0162291D01*
X0207965Y0156762D01*
X0208834Y0155892D01*
X0210717Y0155892D01*
X0210717Y0154075D01*
X0211123Y0153095D01*
X0216623Y0147596D01*
X0216623Y0117448D01*
X0214221Y0117448D01*
X0214641Y0117868D01*
X0214641Y0121697D01*
X0213771Y0122567D01*
X0204542Y0122567D01*
X0204303Y0122328D01*
X0203646Y0122984D01*
X0203646Y0125562D01*
X0204942Y0125562D01*
X0205497Y0126117D01*
X0205769Y0125846D01*
X0206111Y0125648D01*
X0206492Y0125546D01*
X0208749Y0125546D01*
X0208749Y0129499D01*
X0209749Y0129499D01*
X0209749Y0130499D01*
X0213308Y0130499D01*
X0213308Y0133149D01*
X0213205Y0133531D01*
X0213008Y0133873D01*
X0212729Y0134152D01*
X0212387Y0134349D01*
X0212005Y0134452D01*
X0209749Y0134452D01*
X0209749Y0130499D01*
X0208749Y0130499D01*
X0208749Y0134452D01*
X0206492Y0134452D01*
X0206111Y0134349D01*
X0205769Y0134152D01*
X0205497Y0133881D01*
X0204942Y0134436D01*
X0198595Y0134436D01*
X0197725Y0133566D01*
X0197725Y0126431D01*
X0198595Y0125562D01*
X0199497Y0125562D01*
X0199497Y0121265D01*
X0200712Y0120050D01*
X0203055Y0117708D01*
X0203832Y0117708D01*
X0204092Y0117448D01*
X0201852Y0117448D01*
X0201202Y0118097D01*
X0200300Y0118097D01*
X0200300Y0119702D01*
X0199894Y0120682D01*
X0195829Y0124747D01*
X0178475Y0142101D01*
X0177495Y0142507D01*
X0145923Y0142507D01*
X0144944Y0142101D01*
X0144194Y0141351D01*
X0130414Y0127572D01*
X0130009Y0126592D01*
X0130009Y0113721D01*
X0130414Y0112741D01*
X0131164Y0111991D01*
X0138079Y0105076D01*
X0138079Y0102940D01*
X0137571Y0102940D01*
X0136701Y0102070D01*
X0136701Y0094935D01*
X0137571Y0094066D01*
X0138079Y0094066D01*
X0138079Y0089160D01*
X0137571Y0089160D01*
X0136701Y0088291D01*
X0136701Y0081156D01*
X0137571Y0080286D01*
X0138079Y0080286D01*
X0138079Y0075381D01*
X0137571Y0075381D01*
X0136701Y0074511D01*
X0136701Y0067376D01*
X0137571Y0066507D01*
X0143919Y0066507D01*
X0144485Y0067073D01*
X0145051Y0066507D01*
X0151399Y0066507D01*
X0152268Y0067376D01*
X0152268Y0068869D01*
X0154812Y0068869D01*
X0154812Y0067376D01*
X0155681Y0066507D01*
X0162816Y0066507D01*
X0163686Y0067376D01*
X0163686Y0072085D02*
X0168591Y0072085D01*
X0168591Y0073083D02*
X0163686Y0073083D01*
X0163686Y0074082D02*
X0168591Y0074082D01*
X0169160Y0075080D02*
X0163117Y0075080D01*
X0163601Y0081071D02*
X0168675Y0081071D01*
X0168591Y0082070D02*
X0163686Y0082070D01*
X0163686Y0083068D02*
X0168591Y0083068D01*
X0168591Y0084067D02*
X0163686Y0084067D01*
X0163686Y0085066D02*
X0168591Y0085066D01*
X0168591Y0086064D02*
X0163686Y0086064D01*
X0163686Y0087063D02*
X0168591Y0087063D01*
X0168591Y0088061D02*
X0163686Y0088061D01*
X0162917Y0089060D02*
X0169360Y0089060D01*
X0175875Y0090058D02*
X0143410Y0090058D01*
X0143410Y0091057D02*
X0175875Y0091057D01*
X0175875Y0092055D02*
X0143410Y0092055D01*
X0143410Y0093054D02*
X0175875Y0093054D01*
X0175875Y0094052D02*
X0143410Y0094052D01*
X0144019Y0089060D02*
X0144950Y0089060D01*
X0151500Y0089060D02*
X0155580Y0089060D01*
X0154812Y0088061D02*
X0152268Y0088061D01*
X0152268Y0087063D02*
X0154812Y0087063D01*
X0154812Y0082070D02*
X0152268Y0082070D01*
X0152184Y0081071D02*
X0154896Y0081071D01*
X0155381Y0075080D02*
X0151699Y0075080D01*
X0152268Y0074082D02*
X0154812Y0074082D01*
X0154812Y0073083D02*
X0152268Y0073083D01*
X0152268Y0068091D02*
X0154812Y0068091D01*
X0155096Y0067092D02*
X0151984Y0067092D01*
X0144751Y0075080D02*
X0144219Y0075080D01*
X0143410Y0076079D02*
X0178182Y0076079D01*
X0179180Y0077077D02*
X0143410Y0077077D01*
X0143410Y0078076D02*
X0179812Y0078076D01*
X0179812Y0079074D02*
X0143410Y0079074D01*
X0143410Y0080073D02*
X0179812Y0080073D01*
X0179812Y0081071D02*
X0177381Y0081071D01*
X0177465Y0082070D02*
X0179812Y0082070D01*
X0179812Y0083068D02*
X0178245Y0083068D01*
X0179243Y0084067D02*
X0179812Y0084067D01*
X0183961Y0084067D02*
X0219146Y0084067D01*
X0219055Y0083932D02*
X0218868Y0083479D01*
X0218772Y0082999D01*
X0218772Y0082755D01*
X0221256Y0082755D01*
X0221256Y0082755D01*
X0221256Y0085239D01*
X0221012Y0085239D01*
X0220532Y0085144D01*
X0220080Y0084956D01*
X0219673Y0084684D01*
X0219327Y0084338D01*
X0219055Y0083932D01*
X0218786Y0083068D02*
X0183961Y0083068D01*
X0183961Y0082070D02*
X0218860Y0082070D01*
X0218868Y0082030D02*
X0219055Y0081578D01*
X0219327Y0081171D01*
X0219673Y0080825D01*
X0220080Y0080553D01*
X0220532Y0080366D01*
X0221012Y0080271D01*
X0221256Y0080271D01*
X0221256Y0082755D01*
X0221257Y0082755D01*
X0223741Y0082755D01*
X0223741Y0082999D01*
X0223645Y0083479D01*
X0223458Y0083932D01*
X0223186Y0084338D01*
X0222840Y0084684D01*
X0222433Y0084956D01*
X0221981Y0085144D01*
X0221501Y0085239D01*
X0221257Y0085239D01*
X0221257Y0082755D01*
X0221257Y0082755D01*
X0223741Y0082755D01*
X0223741Y0082510D01*
X0223645Y0082030D01*
X0223458Y0081578D01*
X0223186Y0081171D01*
X0222840Y0080825D01*
X0222433Y0080553D01*
X0221981Y0080366D01*
X0221501Y0080271D01*
X0221257Y0080271D01*
X0221257Y0082755D01*
X0221256Y0082755D01*
X0218772Y0082755D01*
X0218772Y0082510D01*
X0218868Y0082030D01*
X0219427Y0081071D02*
X0183961Y0081071D01*
X0183961Y0080073D02*
X0305902Y0080073D01*
X0305902Y0081071D02*
X0223087Y0081071D01*
X0223653Y0082070D02*
X0305902Y0082070D01*
X0305902Y0083068D02*
X0223727Y0083068D01*
X0223368Y0084067D02*
X0275521Y0084067D01*
X0275102Y0084241D02*
X0276949Y0083475D01*
X0278950Y0083475D01*
X0280797Y0084241D01*
X0282212Y0085655D01*
X0282977Y0087503D01*
X0282977Y0089503D01*
X0282212Y0091351D01*
X0280797Y0092765D01*
X0278950Y0093530D01*
X0276949Y0093530D01*
X0275102Y0092765D01*
X0273687Y0091351D01*
X0272922Y0089503D01*
X0272922Y0087503D01*
X0273687Y0085655D01*
X0275102Y0084241D01*
X0274277Y0085066D02*
X0222170Y0085066D01*
X0221257Y0085066D02*
X0221256Y0085066D01*
X0220344Y0085066D02*
X0183961Y0085066D01*
X0183961Y0086064D02*
X0199894Y0086064D01*
X0199863Y0086082D02*
X0200205Y0085885D01*
X0200587Y0085782D01*
X0203434Y0085782D01*
X0203434Y0092097D01*
X0204434Y0092097D01*
X0204434Y0093097D01*
X0208583Y0093097D01*
X0208583Y0098110D01*
X0208481Y0098491D01*
X0208284Y0098833D01*
X0208004Y0099113D01*
X0207662Y0099310D01*
X0207281Y0099412D01*
X0204434Y0099412D01*
X0204434Y0093097D01*
X0203434Y0093097D01*
X0203434Y0092097D01*
X0199284Y0092097D01*
X0199284Y0087085D01*
X0199386Y0086703D01*
X0199584Y0086361D01*
X0199863Y0086082D01*
X0199290Y0087063D02*
X0183961Y0087063D01*
X0183961Y0088061D02*
X0199284Y0088061D01*
X0199284Y0089060D02*
X0183961Y0089060D01*
X0183961Y0090058D02*
X0199284Y0090058D01*
X0199284Y0091057D02*
X0183961Y0091057D01*
X0183961Y0092055D02*
X0199284Y0092055D01*
X0199284Y0093097D02*
X0203434Y0093097D01*
X0203434Y0099412D01*
X0200587Y0099412D01*
X0200205Y0099310D01*
X0199863Y0099113D01*
X0199584Y0098833D01*
X0199386Y0098491D01*
X0199284Y0098110D01*
X0199284Y0093097D01*
X0199284Y0094052D02*
X0183961Y0094052D01*
X0183961Y0093054D02*
X0203434Y0093054D01*
X0203434Y0094052D02*
X0204434Y0094052D01*
X0204434Y0093054D02*
X0210323Y0093054D01*
X0210323Y0094052D02*
X0208583Y0094052D01*
X0208583Y0095051D02*
X0210323Y0095051D01*
X0210323Y0096049D02*
X0208583Y0096049D01*
X0208583Y0097048D02*
X0210323Y0097048D01*
X0210323Y0098046D02*
X0208583Y0098046D01*
X0208072Y0099045D02*
X0210841Y0099045D01*
X0209307Y0101982D02*
X0213354Y0101982D01*
X0213736Y0102085D01*
X0214078Y0102282D01*
X0214357Y0102561D01*
X0214554Y0102903D01*
X0214657Y0103285D01*
X0214657Y0104632D01*
X0209307Y0104632D01*
X0209307Y0101982D01*
X0209307Y0102040D02*
X0209007Y0102040D01*
X0209007Y0103039D02*
X0209307Y0103039D01*
X0209307Y0104037D02*
X0209007Y0104037D01*
X0204743Y0102040D02*
X0183961Y0102040D01*
X0183961Y0101042D02*
X0216623Y0101042D01*
X0216623Y0102040D02*
X0213570Y0102040D01*
X0214591Y0103039D02*
X0216623Y0103039D01*
X0216623Y0104037D02*
X0214657Y0104037D01*
X0214657Y0105036D02*
X0216623Y0105036D01*
X0216623Y0106034D02*
X0214657Y0106034D01*
X0214327Y0107033D02*
X0216623Y0107033D01*
X0216623Y0108031D02*
X0214641Y0108031D01*
X0214641Y0109030D02*
X0216623Y0109030D01*
X0216623Y0110028D02*
X0214641Y0110028D01*
X0214641Y0111027D02*
X0216623Y0111027D01*
X0216623Y0112025D02*
X0214313Y0112025D01*
X0214641Y0118016D02*
X0216623Y0118016D01*
X0216623Y0119015D02*
X0214641Y0119015D01*
X0214641Y0120013D02*
X0216623Y0120013D01*
X0216623Y0121012D02*
X0214641Y0121012D01*
X0214327Y0122010D02*
X0216623Y0122010D01*
X0216623Y0123009D02*
X0203646Y0123009D01*
X0203646Y0124007D02*
X0216623Y0124007D01*
X0216623Y0125006D02*
X0203646Y0125006D01*
X0205385Y0126004D02*
X0205610Y0126004D01*
X0208749Y0126004D02*
X0209749Y0126004D01*
X0209749Y0125546D02*
X0212005Y0125546D01*
X0212387Y0125648D01*
X0212729Y0125846D01*
X0213008Y0126125D01*
X0213205Y0126467D01*
X0213308Y0126849D01*
X0213308Y0129499D01*
X0209749Y0129499D01*
X0209749Y0125546D01*
X0209749Y0127003D02*
X0208749Y0127003D01*
X0208749Y0128002D02*
X0209749Y0128002D01*
X0209749Y0129000D02*
X0208749Y0129000D01*
X0209749Y0129999D02*
X0216623Y0129999D01*
X0216623Y0130997D02*
X0213308Y0130997D01*
X0213308Y0131996D02*
X0216623Y0131996D01*
X0216623Y0132994D02*
X0213308Y0132994D01*
X0212888Y0133993D02*
X0216623Y0133993D01*
X0216623Y0134991D02*
X0185585Y0134991D01*
X0186583Y0133993D02*
X0198151Y0133993D01*
X0197725Y0132994D02*
X0187582Y0132994D01*
X0188580Y0131996D02*
X0197725Y0131996D01*
X0197725Y0130997D02*
X0189579Y0130997D01*
X0190577Y0129999D02*
X0197725Y0129999D01*
X0197725Y0129000D02*
X0191576Y0129000D01*
X0192574Y0128002D02*
X0197725Y0128002D01*
X0197725Y0127003D02*
X0193573Y0127003D01*
X0194572Y0126004D02*
X0198152Y0126004D01*
X0199497Y0125006D02*
X0195570Y0125006D01*
X0196569Y0124007D02*
X0199497Y0124007D01*
X0199497Y0123009D02*
X0197567Y0123009D01*
X0198566Y0122010D02*
X0199497Y0122010D01*
X0199564Y0121012D02*
X0199750Y0121012D01*
X0200171Y0120013D02*
X0200749Y0120013D01*
X0200300Y0119015D02*
X0201747Y0119015D01*
X0201283Y0118016D02*
X0202746Y0118016D01*
X0193986Y0118016D02*
X0184355Y0118016D01*
X0184216Y0119015D02*
X0194022Y0119015D01*
X0193024Y0120013D02*
X0183552Y0120013D01*
X0180221Y0120013D02*
X0180024Y0120013D01*
X0180160Y0121012D02*
X0192025Y0121012D01*
X0191027Y0122010D02*
X0180418Y0122010D01*
X0180255Y0123009D02*
X0190028Y0123009D01*
X0189030Y0124007D02*
X0179558Y0124007D01*
X0176341Y0124007D02*
X0176087Y0124007D01*
X0176247Y0125006D02*
X0188031Y0125006D01*
X0187033Y0126004D02*
X0176481Y0126004D01*
X0176295Y0127003D02*
X0186034Y0127003D01*
X0185036Y0128002D02*
X0175564Y0128002D01*
X0172461Y0128002D02*
X0168213Y0128002D01*
X0168213Y0129000D02*
X0184037Y0129000D01*
X0183039Y0129999D02*
X0168213Y0129999D01*
X0168213Y0130997D02*
X0182040Y0130997D01*
X0181042Y0131996D02*
X0167430Y0131996D01*
X0164064Y0128002D02*
X0142623Y0128002D01*
X0142623Y0127003D02*
X0164064Y0127003D01*
X0164064Y0126004D02*
X0142623Y0126004D01*
X0142623Y0125006D02*
X0164064Y0125006D01*
X0164064Y0124007D02*
X0142623Y0124007D01*
X0142623Y0123009D02*
X0164064Y0123009D01*
X0164064Y0122010D02*
X0142623Y0122010D01*
X0142623Y0121012D02*
X0164064Y0121012D01*
X0164064Y0120013D02*
X0142623Y0120013D01*
X0142877Y0119015D02*
X0164064Y0119015D01*
X0164064Y0118016D02*
X0143016Y0118016D01*
X0142735Y0117018D02*
X0164064Y0117018D01*
X0164064Y0116019D02*
X0141763Y0116019D01*
X0139333Y0116019D02*
X0135339Y0116019D01*
X0135339Y0117018D02*
X0138361Y0117018D01*
X0138079Y0118016D02*
X0135339Y0118016D01*
X0135339Y0119015D02*
X0138219Y0119015D01*
X0138473Y0120013D02*
X0135339Y0120013D01*
X0135339Y0121012D02*
X0135357Y0121012D01*
X0136808Y0121012D02*
X0136808Y0121012D01*
X0136808Y0120546D02*
X0136808Y0123030D01*
X0136808Y0123030D01*
X0136808Y0120546D01*
X0136808Y0122010D02*
X0136808Y0122010D01*
X0136808Y0123009D02*
X0136808Y0123009D01*
X0136808Y0123030D02*
X0136808Y0125515D01*
X0136808Y0123030D01*
X0136808Y0123030D01*
X0136808Y0124007D02*
X0136808Y0124007D01*
X0136808Y0125006D02*
X0136808Y0125006D01*
X0136808Y0125515D02*
X0136563Y0125515D01*
X0136083Y0125419D01*
X0135631Y0125232D01*
X0135578Y0125196D01*
X0138473Y0128092D01*
X0138473Y0124878D01*
X0138391Y0124960D01*
X0137984Y0125232D01*
X0137532Y0125419D01*
X0137052Y0125515D01*
X0136808Y0125515D01*
X0136386Y0126004D02*
X0138473Y0126004D01*
X0138473Y0125006D02*
X0138323Y0125006D01*
X0138473Y0127003D02*
X0137384Y0127003D01*
X0138383Y0128002D02*
X0138473Y0128002D01*
X0134838Y0131996D02*
X0092032Y0131996D01*
X0092032Y0132994D02*
X0135837Y0132994D01*
X0136835Y0133993D02*
X0092032Y0133993D01*
X0092032Y0134991D02*
X0137834Y0134991D01*
X0138832Y0135990D02*
X0092032Y0135990D01*
X0092032Y0136988D02*
X0139831Y0136988D01*
X0140829Y0137987D02*
X0092032Y0137987D01*
X0092032Y0138985D02*
X0141828Y0138985D01*
X0142826Y0139984D02*
X0092032Y0139984D01*
X0092032Y0140982D02*
X0143825Y0140982D01*
X0144823Y0141981D02*
X0092032Y0141981D01*
X0092032Y0142979D02*
X0216623Y0142979D01*
X0216623Y0141981D02*
X0178595Y0141981D01*
X0179594Y0140982D02*
X0216623Y0140982D01*
X0216623Y0139984D02*
X0180592Y0139984D01*
X0181591Y0138985D02*
X0216623Y0138985D01*
X0216623Y0137987D02*
X0182589Y0137987D01*
X0183588Y0136988D02*
X0216623Y0136988D01*
X0216623Y0135990D02*
X0184586Y0135990D01*
X0180043Y0132994D02*
X0155812Y0132994D01*
X0155400Y0133993D02*
X0179045Y0133993D01*
X0178046Y0134991D02*
X0153920Y0134991D01*
X0152767Y0134991D02*
X0145372Y0134991D01*
X0144374Y0133993D02*
X0151287Y0133993D01*
X0150875Y0132994D02*
X0143375Y0132994D01*
X0146371Y0135990D02*
X0177048Y0135990D01*
X0176049Y0136988D02*
X0147369Y0136988D01*
X0133840Y0130997D02*
X0092032Y0130997D01*
X0092032Y0129999D02*
X0132841Y0129999D01*
X0131843Y0129000D02*
X0092032Y0129000D01*
X0092032Y0128002D02*
X0130844Y0128002D01*
X0130179Y0127003D02*
X0092032Y0127003D01*
X0092032Y0126004D02*
X0130009Y0126004D01*
X0130009Y0125006D02*
X0121591Y0125006D01*
X0121491Y0125106D02*
X0119806Y0125804D01*
X0117982Y0125804D01*
X0116298Y0125106D01*
X0115008Y0123816D01*
X0114310Y0122131D01*
X0114310Y0120307D01*
X0115008Y0118623D01*
X0116298Y0117333D01*
X0117982Y0116635D01*
X0119806Y0116635D01*
X0121491Y0117333D01*
X0122781Y0118623D01*
X0123479Y0120307D01*
X0123479Y0122131D01*
X0122781Y0123816D01*
X0121491Y0125106D01*
X0122589Y0124007D02*
X0130009Y0124007D01*
X0130009Y0123009D02*
X0123115Y0123009D01*
X0123479Y0122010D02*
X0130009Y0122010D01*
X0130009Y0121012D02*
X0123479Y0121012D01*
X0123357Y0120013D02*
X0130009Y0120013D01*
X0130009Y0119015D02*
X0122943Y0119015D01*
X0122174Y0118016D02*
X0130009Y0118016D01*
X0130009Y0117018D02*
X0120730Y0117018D01*
X0120800Y0115819D02*
X0119194Y0115819D01*
X0119194Y0111519D01*
X0118594Y0111519D01*
X0118594Y0110919D01*
X0114294Y0110919D01*
X0114294Y0109314D01*
X0116989Y0106619D01*
X0118594Y0106619D01*
X0118594Y0110919D01*
X0119194Y0110919D01*
X0119194Y0106619D01*
X0120800Y0106619D01*
X0123494Y0109314D01*
X0123494Y0110919D01*
X0119194Y0110919D01*
X0119194Y0111519D01*
X0123494Y0111519D01*
X0123494Y0113125D01*
X0120800Y0115819D01*
X0121598Y0115021D02*
X0130009Y0115021D01*
X0130009Y0116019D02*
X0090700Y0116019D01*
X0091626Y0116946D02*
X0092032Y0117925D01*
X0092032Y0150505D01*
X0094151Y0152623D01*
X0094151Y0156587D01*
X0091348Y0159389D01*
X0087385Y0159389D01*
X0085441Y0157445D01*
X0083481Y0159405D01*
X0081793Y0159405D01*
X0081793Y0154905D01*
X0081193Y0154905D01*
X0081193Y0159405D01*
X0079505Y0159405D01*
X0076693Y0156593D01*
X0076693Y0154905D01*
X0081193Y0154905D01*
X0081193Y0154305D01*
X0081793Y0154305D01*
X0081793Y0149805D01*
X0083481Y0149805D01*
X0085441Y0151765D01*
X0086701Y0150505D01*
X0086701Y0119560D01*
X0084201Y0117059D01*
X0083716Y0118231D01*
X0082717Y0119230D01*
X0082400Y0119361D01*
X0082979Y0119748D01*
X0083476Y0120245D01*
X0083866Y0120829D01*
X0084135Y0121478D01*
X0084272Y0122167D01*
X0084272Y0122330D01*
X0080894Y0122330D01*
X0080894Y0122708D01*
X0080516Y0122708D01*
X0080516Y0126085D01*
X0080354Y0126085D01*
X0079665Y0125948D01*
X0079016Y0125680D01*
X0078432Y0125289D01*
X0077935Y0124792D01*
X0077544Y0124208D01*
X0077276Y0123559D01*
X0077138Y0122870D01*
X0077138Y0122708D01*
X0080516Y0122708D01*
X0080516Y0122330D01*
X0077138Y0122330D01*
X0077138Y0122167D01*
X0077276Y0121478D01*
X0077544Y0120829D01*
X0077935Y0120245D01*
X0078432Y0119748D01*
X0079011Y0119361D01*
X0078694Y0119230D01*
X0077695Y0118231D01*
X0077154Y0116926D01*
X0077154Y0115513D01*
X0077695Y0114208D01*
X0078694Y0113209D01*
X0079030Y0113070D01*
X0078694Y0112931D01*
X0077695Y0111932D01*
X0077154Y0110627D01*
X0077154Y0109214D01*
X0077695Y0107909D01*
X0078694Y0106910D01*
X0079999Y0106369D01*
X0081412Y0106369D01*
X0082717Y0106910D01*
X0083716Y0107909D01*
X0084257Y0109214D01*
X0084257Y0109576D01*
X0091626Y0116946D01*
X0091656Y0117018D02*
X0117058Y0117018D01*
X0116989Y0115819D02*
X0114294Y0113125D01*
X0114294Y0111519D01*
X0118594Y0111519D01*
X0118594Y0115819D01*
X0116989Y0115819D01*
X0116190Y0115021D02*
X0089701Y0115021D01*
X0088703Y0114022D02*
X0115192Y0114022D01*
X0114294Y0113024D02*
X0087704Y0113024D01*
X0086706Y0112025D02*
X0114294Y0112025D01*
X0114294Y0110028D02*
X0084709Y0110028D01*
X0084180Y0109030D02*
X0114579Y0109030D01*
X0115577Y0108031D02*
X0083767Y0108031D01*
X0082840Y0107033D02*
X0116576Y0107033D01*
X0118594Y0107033D02*
X0119194Y0107033D01*
X0119194Y0108031D02*
X0118594Y0108031D01*
X0118594Y0109030D02*
X0119194Y0109030D01*
X0119194Y0110028D02*
X0118594Y0110028D01*
X0118594Y0111027D02*
X0085707Y0111027D01*
X0078919Y0113024D02*
X0074020Y0113024D01*
X0074020Y0112363D02*
X0074020Y0113776D01*
X0073480Y0115081D01*
X0072481Y0116080D01*
X0072145Y0116219D01*
X0072481Y0116358D01*
X0073480Y0117357D01*
X0074020Y0118663D01*
X0074020Y0120075D01*
X0073480Y0121381D01*
X0072481Y0122379D01*
X0071176Y0122920D01*
X0069763Y0122920D01*
X0068458Y0122379D01*
X0067459Y0121381D01*
X0066918Y0120075D01*
X0066918Y0118663D01*
X0067459Y0117357D01*
X0068458Y0116358D01*
X0068793Y0116219D01*
X0068458Y0116080D01*
X0067459Y0115081D01*
X0066918Y0113776D01*
X0066918Y0112363D01*
X0067459Y0111058D01*
X0068458Y0110059D01*
X0069763Y0109519D01*
X0071176Y0109519D01*
X0072481Y0110059D01*
X0073480Y0111058D01*
X0074020Y0112363D01*
X0073880Y0112025D02*
X0077788Y0112025D01*
X0077320Y0111027D02*
X0073448Y0111027D01*
X0072406Y0110028D02*
X0077154Y0110028D01*
X0077230Y0109030D02*
X0053934Y0109030D01*
X0053934Y0110028D02*
X0068532Y0110028D01*
X0067490Y0111027D02*
X0053934Y0111027D01*
X0053934Y0112025D02*
X0067058Y0112025D01*
X0066918Y0113024D02*
X0053934Y0113024D01*
X0053934Y0114022D02*
X0067020Y0114022D01*
X0067434Y0115021D02*
X0053934Y0115021D01*
X0053934Y0116019D02*
X0068397Y0116019D01*
X0067798Y0117018D02*
X0053934Y0117018D01*
X0053934Y0118016D02*
X0067186Y0118016D01*
X0066918Y0119015D02*
X0053934Y0119015D01*
X0053934Y0120013D02*
X0066918Y0120013D01*
X0067306Y0121012D02*
X0053934Y0121012D01*
X0053934Y0122010D02*
X0068089Y0122010D01*
X0072850Y0122010D02*
X0077170Y0122010D01*
X0077166Y0123009D02*
X0053934Y0123009D01*
X0053934Y0124007D02*
X0077461Y0124007D01*
X0078148Y0125006D02*
X0053934Y0125006D01*
X0053934Y0126004D02*
X0079947Y0126004D01*
X0080516Y0126004D02*
X0080894Y0126004D01*
X0080894Y0126085D02*
X0080894Y0122708D01*
X0084272Y0122708D01*
X0084272Y0122870D01*
X0084135Y0123559D01*
X0083866Y0124208D01*
X0083476Y0124792D01*
X0082979Y0125289D01*
X0082395Y0125680D01*
X0081746Y0125948D01*
X0081057Y0126085D01*
X0080894Y0126085D01*
X0081464Y0126004D02*
X0086701Y0126004D01*
X0086701Y0125006D02*
X0083262Y0125006D01*
X0083949Y0124007D02*
X0086701Y0124007D01*
X0086701Y0123009D02*
X0084245Y0123009D01*
X0084241Y0122010D02*
X0086701Y0122010D01*
X0086701Y0121012D02*
X0083942Y0121012D01*
X0083245Y0120013D02*
X0086701Y0120013D01*
X0086157Y0119015D02*
X0082932Y0119015D01*
X0083805Y0118016D02*
X0085158Y0118016D01*
X0080894Y0123009D02*
X0080516Y0123009D01*
X0080516Y0124007D02*
X0080894Y0124007D01*
X0080894Y0125006D02*
X0080516Y0125006D01*
X0081018Y0127038D02*
X0079605Y0127038D01*
X0078300Y0127579D01*
X0077301Y0128578D01*
X0076760Y0129883D01*
X0076760Y0131296D01*
X0077301Y0132601D01*
X0078300Y0133600D01*
X0079605Y0134141D01*
X0081018Y0134141D01*
X0082323Y0133600D01*
X0083322Y0132601D01*
X0083863Y0131296D01*
X0083863Y0129883D01*
X0083322Y0128578D01*
X0082323Y0127579D01*
X0081018Y0127038D01*
X0082746Y0128002D02*
X0086701Y0128002D01*
X0086701Y0129000D02*
X0083497Y0129000D01*
X0083863Y0129999D02*
X0086701Y0129999D01*
X0086701Y0130997D02*
X0083863Y0130997D01*
X0083573Y0131996D02*
X0086701Y0131996D01*
X0086701Y0132994D02*
X0082929Y0132994D01*
X0081375Y0133993D02*
X0086701Y0133993D01*
X0086701Y0134991D02*
X0053934Y0134991D01*
X0053934Y0133993D02*
X0069799Y0133993D01*
X0070156Y0134141D02*
X0068851Y0133600D01*
X0067852Y0132601D01*
X0067312Y0131296D01*
X0067312Y0129883D01*
X0067852Y0128578D01*
X0068851Y0127579D01*
X0070156Y0127038D01*
X0071569Y0127038D01*
X0072874Y0127579D01*
X0073873Y0128578D01*
X0074414Y0129883D01*
X0074414Y0131296D01*
X0073873Y0132601D01*
X0072874Y0133600D01*
X0071569Y0134141D01*
X0070156Y0134141D01*
X0071927Y0133993D02*
X0079248Y0133993D01*
X0077694Y0132994D02*
X0073480Y0132994D01*
X0074124Y0131996D02*
X0077050Y0131996D01*
X0076760Y0130997D02*
X0074414Y0130997D01*
X0074414Y0129999D02*
X0076760Y0129999D01*
X0077126Y0129000D02*
X0074048Y0129000D01*
X0073297Y0128002D02*
X0077877Y0128002D01*
X0086701Y0127003D02*
X0053934Y0127003D01*
X0053934Y0128002D02*
X0068429Y0128002D01*
X0067677Y0129000D02*
X0053934Y0129000D01*
X0053934Y0129999D02*
X0067312Y0129999D01*
X0067312Y0130997D02*
X0053934Y0130997D01*
X0053934Y0131996D02*
X0067602Y0131996D01*
X0068245Y0132994D02*
X0053934Y0132994D01*
X0053934Y0135990D02*
X0086701Y0135990D01*
X0086701Y0136988D02*
X0053934Y0136988D01*
X0053934Y0137987D02*
X0086701Y0137987D01*
X0086701Y0138985D02*
X0053934Y0138985D01*
X0053934Y0139984D02*
X0086701Y0139984D01*
X0086701Y0140982D02*
X0053934Y0140982D01*
X0053934Y0141981D02*
X0086701Y0141981D01*
X0086701Y0142979D02*
X0053934Y0142979D01*
X0053934Y0143978D02*
X0086701Y0143978D01*
X0086701Y0144976D02*
X0053934Y0144976D01*
X0053934Y0145975D02*
X0086701Y0145975D01*
X0086701Y0146973D02*
X0053934Y0146973D01*
X0053934Y0147972D02*
X0086701Y0147972D01*
X0086701Y0148970D02*
X0053934Y0148970D01*
X0053934Y0149969D02*
X0079341Y0149969D01*
X0079505Y0149805D02*
X0081193Y0149805D01*
X0081193Y0154305D01*
X0076693Y0154305D01*
X0076693Y0152617D01*
X0079505Y0149805D01*
X0078342Y0150967D02*
X0053934Y0150967D01*
X0053934Y0151966D02*
X0077344Y0151966D01*
X0076693Y0152964D02*
X0053934Y0152964D01*
X0053934Y0153963D02*
X0062438Y0153963D01*
X0062116Y0154096D02*
X0064471Y0153121D01*
X0067019Y0153121D01*
X0069373Y0154096D01*
X0071175Y0155898D01*
X0072150Y0158252D01*
X0072150Y0160801D01*
X0071175Y0163155D01*
X0069373Y0164957D01*
X0067019Y0165932D01*
X0064471Y0165932D01*
X0062116Y0164957D01*
X0060314Y0163155D01*
X0059339Y0160801D01*
X0059339Y0158252D01*
X0060314Y0155898D01*
X0062116Y0154096D01*
X0061251Y0154961D02*
X0053934Y0154961D01*
X0053934Y0155960D02*
X0060289Y0155960D01*
X0059875Y0156958D02*
X0053934Y0156958D01*
X0053934Y0157957D02*
X0059462Y0157957D01*
X0059339Y0158955D02*
X0053934Y0158955D01*
X0053934Y0159954D02*
X0059339Y0159954D01*
X0059402Y0160952D02*
X0053934Y0160952D01*
X0053934Y0161951D02*
X0059816Y0161951D01*
X0060229Y0162949D02*
X0053934Y0162949D01*
X0053934Y0163948D02*
X0061107Y0163948D01*
X0062106Y0164946D02*
X0053934Y0164946D01*
X0053934Y0165945D02*
X0189502Y0165945D01*
X0189516Y0165948D02*
X0189036Y0165852D01*
X0188584Y0165665D01*
X0188177Y0165393D01*
X0187831Y0165047D01*
X0187559Y0164640D01*
X0187372Y0164188D01*
X0187276Y0163708D01*
X0187276Y0163463D01*
X0187276Y0163219D01*
X0187372Y0162739D01*
X0187559Y0162287D01*
X0187831Y0161880D01*
X0188177Y0161534D01*
X0188584Y0161262D01*
X0189036Y0161075D01*
X0189516Y0160979D01*
X0189760Y0160979D01*
X0189760Y0163463D01*
X0187276Y0163463D01*
X0189760Y0163463D01*
X0189760Y0163463D01*
X0189761Y0163463D01*
X0189761Y0163463D01*
X0192245Y0163463D01*
X0192245Y0163219D01*
X0192149Y0162739D01*
X0191962Y0162287D01*
X0191690Y0161880D01*
X0191344Y0161534D01*
X0190937Y0161262D01*
X0190485Y0161075D01*
X0190005Y0160979D01*
X0189761Y0160979D01*
X0189761Y0163463D01*
X0192245Y0163463D01*
X0192245Y0163708D01*
X0192149Y0164188D01*
X0191962Y0164640D01*
X0191690Y0165047D01*
X0191344Y0165393D01*
X0190937Y0165665D01*
X0190485Y0165852D01*
X0190005Y0165948D01*
X0189761Y0165948D01*
X0189761Y0163464D01*
X0189760Y0163464D01*
X0189760Y0165948D01*
X0189516Y0165948D01*
X0189760Y0165945D02*
X0189761Y0165945D01*
X0190019Y0165945D02*
X0305902Y0165945D01*
X0305902Y0166943D02*
X0053934Y0166943D01*
X0053934Y0167942D02*
X0305902Y0167942D01*
X0305902Y0168940D02*
X0053934Y0168940D01*
X0053934Y0169939D02*
X0305902Y0169939D01*
X0305902Y0170937D02*
X0053934Y0170937D01*
X0069384Y0164946D02*
X0187764Y0164946D01*
X0187324Y0163948D02*
X0070382Y0163948D01*
X0071260Y0162949D02*
X0187330Y0162949D01*
X0187783Y0161951D02*
X0071674Y0161951D01*
X0072087Y0160952D02*
X0207965Y0160952D01*
X0207965Y0159954D02*
X0072150Y0159954D01*
X0072150Y0158955D02*
X0079055Y0158955D01*
X0078056Y0157957D02*
X0072028Y0157957D01*
X0071614Y0156958D02*
X0077058Y0156958D01*
X0076693Y0155960D02*
X0071201Y0155960D01*
X0070238Y0154961D02*
X0076693Y0154961D01*
X0076693Y0153963D02*
X0069051Y0153963D01*
X0081193Y0153963D02*
X0081793Y0153963D01*
X0081793Y0154961D02*
X0081193Y0154961D01*
X0081193Y0155960D02*
X0081793Y0155960D01*
X0081793Y0156958D02*
X0081193Y0156958D01*
X0081193Y0157957D02*
X0081793Y0157957D01*
X0081793Y0158955D02*
X0081193Y0158955D01*
X0083931Y0158955D02*
X0086951Y0158955D01*
X0085953Y0157957D02*
X0084929Y0157957D01*
X0081793Y0152964D02*
X0081193Y0152964D01*
X0081193Y0151966D02*
X0081793Y0151966D01*
X0081793Y0150967D02*
X0081193Y0150967D01*
X0081193Y0149969D02*
X0081793Y0149969D01*
X0083645Y0149969D02*
X0086701Y0149969D01*
X0086239Y0150967D02*
X0084643Y0150967D01*
X0092032Y0149969D02*
X0135506Y0149969D01*
X0135506Y0150368D02*
X0135506Y0149053D01*
X0137791Y0146768D01*
X0139106Y0146768D01*
X0139106Y0150368D01*
X0139706Y0150368D01*
X0139706Y0146768D01*
X0141022Y0146768D01*
X0143306Y0149053D01*
X0143306Y0150368D01*
X0139706Y0150368D01*
X0139706Y0150968D01*
X0143306Y0150968D01*
X0143306Y0152284D01*
X0141022Y0154568D01*
X0139706Y0154568D01*
X0139706Y0150968D01*
X0139106Y0150968D01*
X0139106Y0150368D01*
X0135506Y0150368D01*
X0135506Y0150968D02*
X0139106Y0150968D01*
X0139106Y0154568D01*
X0137791Y0154568D01*
X0135506Y0152284D01*
X0135506Y0150968D01*
X0135506Y0151966D02*
X0093493Y0151966D01*
X0094151Y0152964D02*
X0136187Y0152964D01*
X0137185Y0153963D02*
X0094151Y0153963D01*
X0094151Y0154961D02*
X0210717Y0154961D01*
X0210764Y0153963D02*
X0161605Y0153963D01*
X0161015Y0154552D02*
X0157797Y0154552D01*
X0155522Y0152277D01*
X0155522Y0149059D01*
X0157797Y0146784D01*
X0161015Y0146784D01*
X0163290Y0149059D01*
X0163290Y0152277D01*
X0161015Y0154552D01*
X0162603Y0152964D02*
X0211254Y0152964D01*
X0212253Y0151966D02*
X0163290Y0151966D01*
X0163290Y0150967D02*
X0213251Y0150967D01*
X0214250Y0149969D02*
X0163290Y0149969D01*
X0163201Y0148970D02*
X0215248Y0148970D01*
X0216247Y0147972D02*
X0162203Y0147972D01*
X0161204Y0146973D02*
X0216623Y0146973D01*
X0216623Y0145975D02*
X0092032Y0145975D01*
X0092032Y0146973D02*
X0137586Y0146973D01*
X0136587Y0147972D02*
X0092032Y0147972D01*
X0092032Y0148970D02*
X0135589Y0148970D01*
X0139106Y0148970D02*
X0139706Y0148970D01*
X0139706Y0147972D02*
X0139106Y0147972D01*
X0139106Y0146973D02*
X0139706Y0146973D01*
X0141227Y0146973D02*
X0157608Y0146973D01*
X0156609Y0147972D02*
X0142225Y0147972D01*
X0143224Y0148970D02*
X0155611Y0148970D01*
X0155522Y0149969D02*
X0143306Y0149969D01*
X0143306Y0151966D02*
X0155522Y0151966D01*
X0155522Y0150967D02*
X0139706Y0150967D01*
X0139106Y0150967D02*
X0092495Y0150967D01*
X0094151Y0155960D02*
X0208767Y0155960D01*
X0207965Y0156958D02*
X0093780Y0156958D01*
X0092781Y0157957D02*
X0207965Y0157957D01*
X0207965Y0158955D02*
X0091783Y0158955D01*
X0092032Y0144976D02*
X0216623Y0144976D01*
X0216623Y0143978D02*
X0092032Y0143978D01*
X0092032Y0125006D02*
X0116198Y0125006D01*
X0115199Y0124007D02*
X0092032Y0124007D01*
X0092032Y0123009D02*
X0114674Y0123009D01*
X0114310Y0122010D02*
X0092032Y0122010D01*
X0092032Y0121012D02*
X0114310Y0121012D01*
X0114432Y0120013D02*
X0092032Y0120013D01*
X0092032Y0119015D02*
X0114845Y0119015D01*
X0115614Y0118016D02*
X0092032Y0118016D01*
X0078479Y0119015D02*
X0074020Y0119015D01*
X0074020Y0120013D02*
X0078166Y0120013D01*
X0077469Y0121012D02*
X0073632Y0121012D01*
X0073753Y0118016D02*
X0077606Y0118016D01*
X0077192Y0117018D02*
X0073140Y0117018D01*
X0072542Y0116019D02*
X0077154Y0116019D01*
X0077358Y0115021D02*
X0073505Y0115021D01*
X0073918Y0114022D02*
X0077880Y0114022D01*
X0077644Y0108031D02*
X0053934Y0108031D01*
X0053934Y0107033D02*
X0078571Y0107033D01*
X0079605Y0105400D02*
X0078300Y0104860D01*
X0077301Y0103861D01*
X0076760Y0102556D01*
X0076760Y0101143D01*
X0077301Y0099838D01*
X0078300Y0098839D01*
X0079605Y0098298D01*
X0081018Y0098298D01*
X0082323Y0098839D01*
X0083322Y0099838D01*
X0083863Y0101143D01*
X0083863Y0102556D01*
X0083322Y0103861D01*
X0082323Y0104860D01*
X0081018Y0105400D01*
X0079605Y0105400D01*
X0078725Y0105036D02*
X0072450Y0105036D01*
X0072874Y0104860D02*
X0071569Y0105400D01*
X0070156Y0105400D01*
X0068851Y0104860D01*
X0067852Y0103861D01*
X0067312Y0102556D01*
X0067312Y0101143D01*
X0067852Y0099838D01*
X0068851Y0098839D01*
X0070156Y0098298D01*
X0071569Y0098298D01*
X0072874Y0098839D01*
X0073873Y0099838D01*
X0074414Y0101143D01*
X0074414Y0102556D01*
X0073873Y0103861D01*
X0072874Y0104860D01*
X0073697Y0104037D02*
X0077478Y0104037D01*
X0076961Y0103039D02*
X0074214Y0103039D01*
X0074414Y0102040D02*
X0076760Y0102040D01*
X0076802Y0101042D02*
X0074372Y0101042D01*
X0073959Y0100043D02*
X0077216Y0100043D01*
X0078094Y0099045D02*
X0073080Y0099045D01*
X0068645Y0099045D02*
X0053934Y0099045D01*
X0053934Y0100043D02*
X0067767Y0100043D01*
X0067354Y0101042D02*
X0053934Y0101042D01*
X0053934Y0102040D02*
X0067312Y0102040D01*
X0067512Y0103039D02*
X0053934Y0103039D01*
X0053934Y0104037D02*
X0068029Y0104037D01*
X0069276Y0105036D02*
X0053934Y0105036D01*
X0053934Y0106034D02*
X0137121Y0106034D01*
X0138079Y0105036D02*
X0081899Y0105036D01*
X0083146Y0104037D02*
X0138079Y0104037D01*
X0138079Y0103039D02*
X0083663Y0103039D01*
X0083863Y0102040D02*
X0136701Y0102040D01*
X0136701Y0101042D02*
X0083821Y0101042D01*
X0083407Y0100043D02*
X0136701Y0100043D01*
X0136701Y0099045D02*
X0082529Y0099045D01*
X0082541Y0081295D02*
X0084229Y0081295D01*
X0086189Y0079335D01*
X0088133Y0081279D01*
X0092097Y0081279D01*
X0094899Y0078477D01*
X0094899Y0074513D01*
X0092097Y0071711D01*
X0088133Y0071711D01*
X0086189Y0073655D01*
X0084229Y0071695D01*
X0082541Y0071695D01*
X0082541Y0076195D01*
X0081941Y0076195D01*
X0081941Y0071695D01*
X0080253Y0071695D01*
X0077441Y0074507D01*
X0077441Y0076195D01*
X0081941Y0076195D01*
X0081941Y0076795D01*
X0081941Y0081295D01*
X0080253Y0081295D01*
X0077441Y0078483D01*
X0077441Y0076795D01*
X0081941Y0076795D01*
X0082541Y0076795D01*
X0082541Y0081295D01*
X0082541Y0081071D02*
X0081941Y0081071D01*
X0081941Y0080073D02*
X0082541Y0080073D01*
X0082541Y0079074D02*
X0081941Y0079074D01*
X0081941Y0078076D02*
X0082541Y0078076D01*
X0082541Y0077077D02*
X0081941Y0077077D01*
X0081941Y0076079D02*
X0082541Y0076079D01*
X0082541Y0075080D02*
X0081941Y0075080D01*
X0081941Y0074082D02*
X0082541Y0074082D01*
X0082541Y0073083D02*
X0081941Y0073083D01*
X0081941Y0072085D02*
X0082541Y0072085D01*
X0084619Y0072085D02*
X0087759Y0072085D01*
X0086760Y0073083D02*
X0085617Y0073083D01*
X0079863Y0072085D02*
X0072150Y0072085D01*
X0072150Y0071638D02*
X0071175Y0069284D01*
X0069373Y0067482D01*
X0067019Y0066507D01*
X0064471Y0066507D01*
X0062116Y0067482D01*
X0060314Y0069284D01*
X0059339Y0071638D01*
X0059339Y0074186D01*
X0060314Y0076541D01*
X0062116Y0078343D01*
X0064471Y0079318D01*
X0067019Y0079318D01*
X0069373Y0078343D01*
X0071175Y0076541D01*
X0072150Y0074186D01*
X0072150Y0071638D01*
X0071922Y0071086D02*
X0136701Y0071086D01*
X0136701Y0070088D02*
X0071508Y0070088D01*
X0070981Y0069089D02*
X0136701Y0069089D01*
X0136701Y0068091D02*
X0069982Y0068091D01*
X0068433Y0067092D02*
X0136985Y0067092D01*
X0136701Y0072085D02*
X0092471Y0072085D01*
X0093469Y0073083D02*
X0136701Y0073083D01*
X0136701Y0074082D02*
X0094468Y0074082D01*
X0094899Y0075080D02*
X0137271Y0075080D01*
X0138079Y0076079D02*
X0094899Y0076079D01*
X0094899Y0077077D02*
X0138079Y0077077D01*
X0138079Y0078076D02*
X0094899Y0078076D01*
X0094301Y0079074D02*
X0138079Y0079074D01*
X0138079Y0080073D02*
X0093303Y0080073D01*
X0092304Y0081071D02*
X0136786Y0081071D01*
X0136701Y0082070D02*
X0053934Y0082070D01*
X0053934Y0083068D02*
X0136701Y0083068D01*
X0136701Y0084067D02*
X0053934Y0084067D01*
X0053934Y0085066D02*
X0136701Y0085066D01*
X0136701Y0086064D02*
X0053934Y0086064D01*
X0053934Y0087063D02*
X0136701Y0087063D01*
X0136701Y0088061D02*
X0053934Y0088061D01*
X0053934Y0089060D02*
X0137470Y0089060D01*
X0138079Y0090058D02*
X0053934Y0090058D01*
X0053934Y0091057D02*
X0138079Y0091057D01*
X0138079Y0092055D02*
X0053934Y0092055D01*
X0053934Y0093054D02*
X0138079Y0093054D01*
X0138079Y0094052D02*
X0053934Y0094052D01*
X0053934Y0095051D02*
X0136701Y0095051D01*
X0136701Y0096049D02*
X0053934Y0096049D01*
X0053934Y0097048D02*
X0136701Y0097048D01*
X0136701Y0098046D02*
X0053934Y0098046D01*
X0053934Y0081071D02*
X0080029Y0081071D01*
X0079031Y0080073D02*
X0053934Y0080073D01*
X0053934Y0079074D02*
X0063883Y0079074D01*
X0061850Y0078076D02*
X0053934Y0078076D01*
X0053934Y0077077D02*
X0060851Y0077077D01*
X0060123Y0076079D02*
X0053934Y0076079D01*
X0053934Y0075080D02*
X0059710Y0075080D01*
X0059339Y0074082D02*
X0053934Y0074082D01*
X0053934Y0073083D02*
X0059339Y0073083D01*
X0059339Y0072085D02*
X0053934Y0072085D01*
X0053934Y0071086D02*
X0059568Y0071086D01*
X0059981Y0070088D02*
X0053934Y0070088D01*
X0053934Y0069089D02*
X0060509Y0069089D01*
X0061507Y0068091D02*
X0053934Y0068091D01*
X0053934Y0067092D02*
X0063057Y0067092D01*
X0072150Y0073083D02*
X0078864Y0073083D01*
X0077866Y0074082D02*
X0072150Y0074082D01*
X0071780Y0075080D02*
X0077441Y0075080D01*
X0077441Y0076079D02*
X0071366Y0076079D01*
X0070638Y0077077D02*
X0077441Y0077077D01*
X0077441Y0078076D02*
X0069640Y0078076D01*
X0067606Y0079074D02*
X0078032Y0079074D01*
X0084452Y0081071D02*
X0087925Y0081071D01*
X0086927Y0080073D02*
X0085451Y0080073D01*
X0121213Y0107033D02*
X0136123Y0107033D01*
X0135124Y0108031D02*
X0122212Y0108031D01*
X0123210Y0109030D02*
X0134126Y0109030D01*
X0133127Y0110028D02*
X0123494Y0110028D01*
X0123494Y0112025D02*
X0131130Y0112025D01*
X0130297Y0113024D02*
X0123494Y0113024D01*
X0122597Y0114022D02*
X0130009Y0114022D01*
X0132129Y0111027D02*
X0119194Y0111027D01*
X0119194Y0112025D02*
X0118594Y0112025D01*
X0118594Y0113024D02*
X0119194Y0113024D01*
X0119194Y0114022D02*
X0118594Y0114022D01*
X0118594Y0115021D02*
X0119194Y0115021D01*
X0135673Y0115021D02*
X0163786Y0115021D01*
X0163670Y0114022D02*
X0136672Y0114022D01*
X0137670Y0113024D02*
X0163975Y0113024D01*
X0165061Y0112025D02*
X0138669Y0112025D01*
X0139667Y0111027D02*
X0171938Y0111027D01*
X0171938Y0112025D02*
X0167216Y0112025D01*
X0168302Y0113024D02*
X0171938Y0113024D01*
X0171938Y0114022D02*
X0168607Y0114022D01*
X0168491Y0115021D02*
X0171938Y0115021D01*
X0171938Y0116019D02*
X0168213Y0116019D01*
X0168213Y0117018D02*
X0171938Y0117018D01*
X0171938Y0118016D02*
X0168213Y0118016D01*
X0168213Y0119015D02*
X0171938Y0119015D01*
X0171938Y0120013D02*
X0168213Y0120013D01*
X0168213Y0121012D02*
X0171938Y0121012D01*
X0171938Y0122010D02*
X0168213Y0122010D01*
X0168213Y0123009D02*
X0171938Y0123009D01*
X0171938Y0124007D02*
X0168213Y0124007D01*
X0168213Y0125006D02*
X0171778Y0125006D01*
X0171544Y0126004D02*
X0168213Y0126004D01*
X0168213Y0127003D02*
X0171730Y0127003D01*
X0184074Y0117018D02*
X0193198Y0117018D01*
X0193198Y0116019D02*
X0183961Y0116019D01*
X0183961Y0115021D02*
X0193198Y0115021D01*
X0193198Y0114022D02*
X0183961Y0114022D01*
X0183961Y0113024D02*
X0193198Y0113024D01*
X0193198Y0112025D02*
X0183961Y0112025D01*
X0183961Y0111027D02*
X0193198Y0111027D01*
X0193467Y0110028D02*
X0183961Y0110028D01*
X0183961Y0109030D02*
X0193182Y0109030D01*
X0193182Y0108031D02*
X0183961Y0108031D01*
X0183961Y0107033D02*
X0197134Y0107033D01*
X0197135Y0106034D02*
X0198134Y0106034D01*
X0198134Y0105036D02*
X0197135Y0105036D01*
X0197135Y0104037D02*
X0198134Y0104037D01*
X0198134Y0103039D02*
X0197135Y0103039D01*
X0201733Y0103039D02*
X0203723Y0103039D01*
X0203657Y0104037D02*
X0202087Y0104037D01*
X0202087Y0105036D02*
X0203657Y0105036D01*
X0203657Y0106034D02*
X0202087Y0106034D01*
X0202087Y0108031D02*
X0203672Y0108031D01*
X0203672Y0109030D02*
X0202087Y0109030D01*
X0201802Y0110028D02*
X0203672Y0110028D01*
X0203672Y0111027D02*
X0202072Y0111027D01*
X0202072Y0112025D02*
X0204001Y0112025D01*
X0203986Y0107033D02*
X0198135Y0107033D01*
X0193182Y0106034D02*
X0183961Y0106034D01*
X0183961Y0105036D02*
X0193182Y0105036D01*
X0193182Y0104037D02*
X0183961Y0104037D01*
X0183961Y0103039D02*
X0193536Y0103039D01*
X0199795Y0099045D02*
X0183961Y0099045D01*
X0183961Y0100043D02*
X0216623Y0100043D01*
X0221953Y0100043D02*
X0240426Y0100043D01*
X0240426Y0100168D02*
X0240426Y0097912D01*
X0240528Y0097530D01*
X0240726Y0097188D01*
X0241005Y0096909D01*
X0241347Y0096711D01*
X0241728Y0096609D01*
X0244379Y0096609D01*
X0244379Y0100168D01*
X0245379Y0100168D01*
X0245379Y0101168D01*
X0249331Y0101168D01*
X0249331Y0103425D01*
X0249229Y0103806D01*
X0249032Y0104148D01*
X0248760Y0104419D01*
X0249316Y0104975D01*
X0249316Y0111322D01*
X0248446Y0112192D01*
X0241311Y0112192D01*
X0240976Y0111857D01*
X0238681Y0111857D01*
X0238256Y0112282D01*
X0238681Y0112708D01*
X0240364Y0112708D01*
X0241579Y0113923D01*
X0249658Y0122002D01*
X0249658Y0122002D01*
X0250874Y0123217D01*
X0250874Y0155892D01*
X0253364Y0155892D01*
X0254233Y0156762D01*
X0254233Y0162291D01*
X0253364Y0163161D01*
X0244234Y0163161D01*
X0243365Y0162291D01*
X0243365Y0156762D01*
X0244234Y0155892D01*
X0246724Y0155892D01*
X0246724Y0124936D01*
X0238663Y0116875D01*
X0238256Y0117282D01*
X0238841Y0117868D01*
X0238841Y0121697D01*
X0237971Y0122567D01*
X0230490Y0122567D01*
X0230221Y0122835D01*
X0230221Y0125168D01*
X0231320Y0125168D01*
X0232190Y0126038D01*
X0232190Y0137897D01*
X0231320Y0138767D01*
X0230221Y0138767D01*
X0230221Y0160211D01*
X0229815Y0161191D01*
X0229066Y0161940D01*
X0229004Y0162002D01*
X0228024Y0162408D01*
X0226964Y0162408D01*
X0225984Y0162002D01*
X0225234Y0161252D01*
X0224828Y0160273D01*
X0224828Y0159213D01*
X0224890Y0159063D01*
X0224890Y0152582D01*
X0224815Y0152399D01*
X0224815Y0151338D01*
X0224890Y0151156D01*
X0224890Y0138767D01*
X0223791Y0138767D01*
X0222922Y0137897D01*
X0222922Y0126038D01*
X0223791Y0125168D01*
X0224890Y0125168D01*
X0224890Y0121201D01*
X0225296Y0120221D01*
X0227995Y0117523D01*
X0228374Y0117366D01*
X0228458Y0117282D01*
X0227872Y0116697D01*
X0227872Y0112868D01*
X0228458Y0112282D01*
X0227872Y0111697D01*
X0227872Y0107868D01*
X0228449Y0107291D01*
X0228436Y0107283D01*
X0228156Y0107003D01*
X0227959Y0106661D01*
X0227857Y0106280D01*
X0227857Y0104932D01*
X0233206Y0104932D01*
X0233206Y0104632D01*
X0227857Y0104632D01*
X0227857Y0103285D01*
X0227959Y0102903D01*
X0228156Y0102561D01*
X0228436Y0102282D01*
X0228778Y0102085D01*
X0229159Y0101982D01*
X0233207Y0101982D01*
X0233207Y0104632D01*
X0233507Y0104632D01*
X0233507Y0104932D01*
X0238857Y0104932D01*
X0238857Y0106280D01*
X0238754Y0106661D01*
X0238557Y0107003D01*
X0238278Y0107283D01*
X0238264Y0107291D01*
X0238681Y0107708D01*
X0240442Y0107708D01*
X0240442Y0104975D01*
X0240997Y0104419D01*
X0240726Y0104148D01*
X0240528Y0103806D01*
X0240426Y0103425D01*
X0240426Y0101168D01*
X0244379Y0101168D01*
X0244379Y0100168D01*
X0240426Y0100168D01*
X0240426Y0099045D02*
X0221953Y0099045D01*
X0221953Y0098046D02*
X0240426Y0098046D01*
X0240866Y0097048D02*
X0221953Y0097048D01*
X0221953Y0096049D02*
X0305902Y0096049D01*
X0305902Y0095051D02*
X0221558Y0095051D01*
X0220798Y0094275D02*
X0220798Y0094275D01*
X0220575Y0094052D02*
X0305902Y0094052D01*
X0305902Y0093054D02*
X0280101Y0093054D01*
X0281507Y0092055D02*
X0305902Y0092055D01*
X0305902Y0091057D02*
X0282333Y0091057D01*
X0282747Y0090058D02*
X0305902Y0090058D01*
X0305902Y0089060D02*
X0282977Y0089060D01*
X0282977Y0088061D02*
X0305902Y0088061D01*
X0305902Y0087063D02*
X0282795Y0087063D01*
X0282381Y0086064D02*
X0305902Y0086064D01*
X0305902Y0085066D02*
X0281622Y0085066D01*
X0280378Y0084067D02*
X0305902Y0084067D01*
X0305902Y0097048D02*
X0290763Y0097048D01*
X0290894Y0097143D02*
X0291357Y0097605D01*
X0291741Y0098135D01*
X0292039Y0098718D01*
X0292241Y0099340D01*
X0292334Y0099928D01*
X0288572Y0099928D01*
X0288572Y0100700D01*
X0292334Y0100700D01*
X0292241Y0101287D01*
X0292039Y0101910D01*
X0291741Y0102493D01*
X0291357Y0103022D01*
X0290894Y0103485D01*
X0290365Y0103870D01*
X0289782Y0104167D01*
X0289159Y0104369D01*
X0288572Y0104462D01*
X0288572Y0100700D01*
X0287800Y0100700D01*
X0287800Y0104462D01*
X0287212Y0104369D01*
X0286590Y0104167D01*
X0286007Y0103870D01*
X0285477Y0103485D01*
X0285015Y0103022D01*
X0284630Y0102493D01*
X0284333Y0101910D01*
X0284131Y0101287D01*
X0284037Y0100700D01*
X0287800Y0100700D01*
X0287800Y0099928D01*
X0288572Y0099928D01*
X0288572Y0096166D01*
X0289159Y0096259D01*
X0289782Y0096461D01*
X0290365Y0096758D01*
X0290894Y0097143D01*
X0291677Y0098046D02*
X0305902Y0098046D01*
X0305902Y0099045D02*
X0292145Y0099045D01*
X0292280Y0101042D02*
X0305902Y0101042D01*
X0305902Y0102040D02*
X0291972Y0102040D01*
X0291340Y0103039D02*
X0305902Y0103039D01*
X0305902Y0104037D02*
X0290036Y0104037D01*
X0288572Y0104037D02*
X0287800Y0104037D01*
X0287800Y0103039D02*
X0288572Y0103039D01*
X0288572Y0102040D02*
X0287800Y0102040D01*
X0287800Y0101042D02*
X0288572Y0101042D01*
X0288572Y0100043D02*
X0305902Y0100043D01*
X0305902Y0105036D02*
X0249316Y0105036D01*
X0249316Y0106034D02*
X0287314Y0106034D01*
X0287362Y0106015D02*
X0289010Y0106015D01*
X0290532Y0106645D01*
X0291697Y0107810D01*
X0292327Y0109333D01*
X0292327Y0110980D01*
X0291697Y0112502D01*
X0290532Y0113668D01*
X0289504Y0114093D01*
X0290532Y0114519D01*
X0291697Y0115684D01*
X0292327Y0117207D01*
X0292327Y0118854D01*
X0291697Y0120376D01*
X0290532Y0121542D01*
X0289010Y0122172D01*
X0287362Y0122172D01*
X0285840Y0121542D01*
X0284674Y0120376D01*
X0284044Y0118854D01*
X0284044Y0117207D01*
X0284674Y0115684D01*
X0285840Y0114519D01*
X0286868Y0114093D01*
X0285840Y0113668D01*
X0284674Y0112502D01*
X0284044Y0110980D01*
X0284044Y0109333D01*
X0284674Y0107810D01*
X0285840Y0106645D01*
X0287362Y0106015D01*
X0289057Y0106034D02*
X0305902Y0106034D01*
X0305902Y0107033D02*
X0290919Y0107033D01*
X0291788Y0108031D02*
X0305902Y0108031D01*
X0305902Y0109030D02*
X0292202Y0109030D01*
X0292327Y0110028D02*
X0305902Y0110028D01*
X0305902Y0111027D02*
X0292308Y0111027D01*
X0291895Y0112025D02*
X0305902Y0112025D01*
X0305902Y0113024D02*
X0291176Y0113024D01*
X0289675Y0114022D02*
X0305902Y0114022D01*
X0305902Y0115021D02*
X0291033Y0115021D01*
X0291836Y0116019D02*
X0305902Y0116019D01*
X0305902Y0117018D02*
X0292249Y0117018D01*
X0292327Y0118016D02*
X0305902Y0118016D01*
X0305902Y0119015D02*
X0292261Y0119015D01*
X0291847Y0120013D02*
X0305902Y0120013D01*
X0305902Y0121012D02*
X0291061Y0121012D01*
X0289400Y0122010D02*
X0305902Y0122010D01*
X0305902Y0123009D02*
X0285949Y0123009D01*
X0286874Y0123933D02*
X0287362Y0123731D01*
X0289010Y0123731D01*
X0290532Y0124362D01*
X0291697Y0125527D01*
X0292327Y0127049D01*
X0292327Y0128697D01*
X0291697Y0130219D01*
X0290532Y0131384D01*
X0289010Y0132015D01*
X0287362Y0132015D01*
X0285840Y0131384D01*
X0284674Y0130219D01*
X0284044Y0128697D01*
X0284044Y0128642D01*
X0277068Y0121666D01*
X0276662Y0120687D01*
X0276662Y0119626D01*
X0277068Y0118647D01*
X0277818Y0117897D01*
X0278797Y0117491D01*
X0279858Y0117491D01*
X0280837Y0117897D01*
X0286874Y0123933D01*
X0286972Y0122010D02*
X0284951Y0122010D01*
X0285310Y0121012D02*
X0283952Y0121012D01*
X0284524Y0120013D02*
X0282954Y0120013D01*
X0281955Y0119015D02*
X0284111Y0119015D01*
X0284044Y0118016D02*
X0280957Y0118016D01*
X0277698Y0118016D02*
X0245673Y0118016D01*
X0244674Y0117018D02*
X0284122Y0117018D01*
X0284536Y0116019D02*
X0243676Y0116019D01*
X0242677Y0115021D02*
X0285338Y0115021D01*
X0286696Y0114022D02*
X0241679Y0114022D01*
X0241579Y0113923D02*
X0241579Y0113923D01*
X0240680Y0113024D02*
X0285196Y0113024D01*
X0284477Y0112025D02*
X0282113Y0112025D01*
X0282241Y0111897D02*
X0281895Y0112243D01*
X0281488Y0112515D01*
X0281036Y0112703D01*
X0280556Y0112798D01*
X0280312Y0112798D01*
X0280312Y0110314D01*
X0282796Y0110314D01*
X0282796Y0110559D01*
X0282700Y0111038D01*
X0282513Y0111491D01*
X0282241Y0111897D01*
X0282703Y0111027D02*
X0284063Y0111027D01*
X0284044Y0110028D02*
X0282788Y0110028D01*
X0282796Y0110069D02*
X0282796Y0110314D01*
X0280312Y0110314D01*
X0280312Y0110314D01*
X0280312Y0110314D01*
X0280312Y0107830D01*
X0280556Y0107830D01*
X0281036Y0107925D01*
X0281488Y0108112D01*
X0281895Y0108384D01*
X0282241Y0108730D01*
X0282513Y0109137D01*
X0282700Y0109589D01*
X0282796Y0110069D01*
X0282441Y0109030D02*
X0284169Y0109030D01*
X0284583Y0108031D02*
X0281293Y0108031D01*
X0280312Y0108031D02*
X0280312Y0108031D01*
X0280312Y0107830D02*
X0280312Y0110314D01*
X0280312Y0110314D01*
X0280312Y0112798D01*
X0280067Y0112798D01*
X0279587Y0112703D01*
X0279135Y0112515D01*
X0278728Y0112243D01*
X0278382Y0111897D01*
X0278110Y0111491D01*
X0277923Y0111038D01*
X0277827Y0110559D01*
X0277827Y0110314D01*
X0280312Y0110314D01*
X0280312Y0110314D01*
X0277827Y0110314D01*
X0277827Y0110069D01*
X0277923Y0109589D01*
X0278110Y0109137D01*
X0278382Y0108730D01*
X0278728Y0108384D01*
X0279135Y0108112D01*
X0279587Y0107925D01*
X0280067Y0107830D01*
X0280312Y0107830D01*
X0279331Y0108031D02*
X0249316Y0108031D01*
X0249316Y0107033D02*
X0285452Y0107033D01*
X0280312Y0109030D02*
X0280312Y0109030D01*
X0280312Y0110028D02*
X0280312Y0110028D01*
X0280312Y0111027D02*
X0280312Y0111027D01*
X0280312Y0112025D02*
X0280312Y0112025D01*
X0278510Y0112025D02*
X0248613Y0112025D01*
X0249316Y0111027D02*
X0277921Y0111027D01*
X0277836Y0110028D02*
X0249316Y0110028D01*
X0249316Y0109030D02*
X0278182Y0109030D01*
X0285031Y0103039D02*
X0249331Y0103039D01*
X0249331Y0102040D02*
X0284399Y0102040D01*
X0284092Y0101042D02*
X0245379Y0101042D01*
X0245379Y0100168D02*
X0249331Y0100168D01*
X0249331Y0097912D01*
X0249229Y0097530D01*
X0249032Y0097188D01*
X0248752Y0096909D01*
X0248410Y0096711D01*
X0248029Y0096609D01*
X0245379Y0096609D01*
X0245379Y0100168D01*
X0245379Y0100043D02*
X0244379Y0100043D01*
X0244379Y0099045D02*
X0245379Y0099045D01*
X0245379Y0098046D02*
X0244379Y0098046D01*
X0244379Y0097048D02*
X0245379Y0097048D01*
X0248891Y0097048D02*
X0285608Y0097048D01*
X0285477Y0097143D02*
X0286007Y0096758D01*
X0286590Y0096461D01*
X0287212Y0096259D01*
X0287800Y0096166D01*
X0287800Y0099928D01*
X0284037Y0099928D01*
X0284131Y0099340D01*
X0284333Y0098718D01*
X0284630Y0098135D01*
X0285015Y0097605D01*
X0285477Y0097143D01*
X0284694Y0098046D02*
X0249331Y0098046D01*
X0249331Y0099045D02*
X0284227Y0099045D01*
X0287800Y0099045D02*
X0288572Y0099045D01*
X0288572Y0098046D02*
X0287800Y0098046D01*
X0287800Y0097048D02*
X0288572Y0097048D01*
X0287800Y0100043D02*
X0249331Y0100043D01*
X0249096Y0104037D02*
X0286336Y0104037D01*
X0275798Y0093054D02*
X0219591Y0093054D01*
X0219591Y0092055D02*
X0274392Y0092055D01*
X0273566Y0091057D02*
X0219591Y0091057D01*
X0219591Y0090058D02*
X0273152Y0090058D01*
X0272922Y0089060D02*
X0219591Y0089060D01*
X0219591Y0088061D02*
X0272922Y0088061D01*
X0273104Y0087063D02*
X0219591Y0087063D01*
X0218988Y0086064D02*
X0273518Y0086064D01*
X0244379Y0101042D02*
X0221953Y0101042D01*
X0221953Y0102040D02*
X0228943Y0102040D01*
X0227923Y0103039D02*
X0221953Y0103039D01*
X0221953Y0104037D02*
X0227857Y0104037D01*
X0227857Y0105036D02*
X0221953Y0105036D01*
X0221953Y0106034D02*
X0227857Y0106034D01*
X0228186Y0107033D02*
X0221953Y0107033D01*
X0221953Y0108031D02*
X0227872Y0108031D01*
X0227872Y0109030D02*
X0221953Y0109030D01*
X0221953Y0110028D02*
X0227872Y0110028D01*
X0227872Y0111027D02*
X0221953Y0111027D01*
X0221953Y0112025D02*
X0228201Y0112025D01*
X0227872Y0113024D02*
X0221953Y0113024D01*
X0221953Y0114022D02*
X0227872Y0114022D01*
X0227872Y0115021D02*
X0221953Y0115021D01*
X0221953Y0116019D02*
X0227872Y0116019D01*
X0228193Y0117018D02*
X0221953Y0117018D01*
X0221953Y0118016D02*
X0227501Y0118016D01*
X0226503Y0119015D02*
X0221953Y0119015D01*
X0221953Y0120013D02*
X0225504Y0120013D01*
X0224969Y0121012D02*
X0221953Y0121012D01*
X0221953Y0122010D02*
X0224890Y0122010D01*
X0224890Y0123009D02*
X0221953Y0123009D01*
X0221953Y0124007D02*
X0224890Y0124007D01*
X0224890Y0125006D02*
X0221953Y0125006D01*
X0221953Y0126004D02*
X0222955Y0126004D01*
X0222922Y0127003D02*
X0221953Y0127003D01*
X0221953Y0128002D02*
X0222922Y0128002D01*
X0222922Y0129000D02*
X0221953Y0129000D01*
X0221953Y0129999D02*
X0222922Y0129999D01*
X0222922Y0130997D02*
X0221953Y0130997D01*
X0221953Y0131996D02*
X0222922Y0131996D01*
X0222922Y0132994D02*
X0221953Y0132994D01*
X0221953Y0133993D02*
X0222922Y0133993D01*
X0222922Y0134991D02*
X0221953Y0134991D01*
X0221953Y0135990D02*
X0222922Y0135990D01*
X0222922Y0136988D02*
X0221953Y0136988D01*
X0221953Y0137987D02*
X0223011Y0137987D01*
X0221953Y0138985D02*
X0224890Y0138985D01*
X0224890Y0139984D02*
X0221953Y0139984D01*
X0221953Y0140982D02*
X0224890Y0140982D01*
X0224890Y0141981D02*
X0221953Y0141981D01*
X0221953Y0142979D02*
X0224890Y0142979D01*
X0224890Y0143978D02*
X0221953Y0143978D01*
X0221953Y0144976D02*
X0224890Y0144976D01*
X0224890Y0145975D02*
X0221953Y0145975D01*
X0221953Y0146973D02*
X0224890Y0146973D01*
X0224890Y0147972D02*
X0221953Y0147972D01*
X0221953Y0148970D02*
X0224890Y0148970D01*
X0224890Y0149969D02*
X0221647Y0149969D01*
X0220790Y0150967D02*
X0224890Y0150967D01*
X0224815Y0151966D02*
X0219791Y0151966D01*
X0218793Y0152964D02*
X0224890Y0152964D01*
X0224890Y0153963D02*
X0217794Y0153963D01*
X0216796Y0154961D02*
X0224890Y0154961D01*
X0224890Y0155960D02*
X0218031Y0155960D01*
X0218833Y0156958D02*
X0224890Y0156958D01*
X0224890Y0157957D02*
X0218833Y0157957D01*
X0218833Y0158955D02*
X0224890Y0158955D01*
X0224828Y0159954D02*
X0218833Y0159954D01*
X0218833Y0160952D02*
X0225110Y0160952D01*
X0225933Y0161951D02*
X0218833Y0161951D01*
X0218175Y0162949D02*
X0244023Y0162949D01*
X0243365Y0161951D02*
X0229055Y0161951D01*
X0229914Y0160952D02*
X0243365Y0160952D01*
X0243365Y0159954D02*
X0230221Y0159954D01*
X0230221Y0158955D02*
X0243365Y0158955D01*
X0243365Y0157957D02*
X0230221Y0157957D01*
X0230221Y0156958D02*
X0243365Y0156958D01*
X0244167Y0155960D02*
X0230221Y0155960D01*
X0230221Y0154961D02*
X0246724Y0154961D01*
X0246724Y0153963D02*
X0230221Y0153963D01*
X0230221Y0152964D02*
X0246724Y0152964D01*
X0246724Y0151966D02*
X0230221Y0151966D01*
X0230221Y0150967D02*
X0246724Y0150967D01*
X0246724Y0149969D02*
X0230221Y0149969D01*
X0230221Y0148970D02*
X0246724Y0148970D01*
X0246724Y0147972D02*
X0230221Y0147972D01*
X0230221Y0146973D02*
X0246724Y0146973D01*
X0246724Y0145975D02*
X0230221Y0145975D01*
X0230221Y0144976D02*
X0246724Y0144976D01*
X0246724Y0143978D02*
X0230221Y0143978D01*
X0230221Y0142979D02*
X0246724Y0142979D01*
X0246724Y0141981D02*
X0230221Y0141981D01*
X0230221Y0140982D02*
X0246724Y0140982D01*
X0246724Y0139984D02*
X0230221Y0139984D01*
X0230221Y0138985D02*
X0246724Y0138985D01*
X0246724Y0137987D02*
X0243054Y0137987D01*
X0243127Y0137861D02*
X0242929Y0138203D01*
X0242650Y0138483D01*
X0242308Y0138680D01*
X0241926Y0138782D01*
X0239079Y0138782D01*
X0239079Y0132467D01*
X0238079Y0132467D01*
X0238079Y0131467D01*
X0233930Y0131467D01*
X0233930Y0126455D01*
X0234032Y0126073D01*
X0234229Y0125731D01*
X0234509Y0125452D01*
X0234851Y0125255D01*
X0235232Y0125152D01*
X0238079Y0125152D01*
X0238079Y0131467D01*
X0239079Y0131467D01*
X0239079Y0125152D01*
X0241926Y0125152D01*
X0242308Y0125255D01*
X0242650Y0125452D01*
X0242929Y0125731D01*
X0243127Y0126073D01*
X0243229Y0126455D01*
X0243229Y0131467D01*
X0239079Y0131467D01*
X0239079Y0132467D01*
X0243229Y0132467D01*
X0243229Y0137480D01*
X0243127Y0137861D01*
X0243229Y0136988D02*
X0246724Y0136988D01*
X0246724Y0135990D02*
X0243229Y0135990D01*
X0243229Y0134991D02*
X0246724Y0134991D01*
X0246724Y0133993D02*
X0243229Y0133993D01*
X0243229Y0132994D02*
X0246724Y0132994D01*
X0246724Y0131996D02*
X0239079Y0131996D01*
X0239079Y0132994D02*
X0238079Y0132994D01*
X0238079Y0132467D02*
X0238079Y0138782D01*
X0235232Y0138782D01*
X0234851Y0138680D01*
X0234509Y0138483D01*
X0234229Y0138203D01*
X0234032Y0137861D01*
X0233930Y0137480D01*
X0233930Y0132467D01*
X0238079Y0132467D01*
X0238079Y0131996D02*
X0232190Y0131996D01*
X0232190Y0132994D02*
X0233930Y0132994D01*
X0233930Y0133993D02*
X0232190Y0133993D01*
X0232190Y0134991D02*
X0233930Y0134991D01*
X0233930Y0135990D02*
X0232190Y0135990D01*
X0232190Y0136988D02*
X0233930Y0136988D01*
X0234104Y0137987D02*
X0232100Y0137987D01*
X0238079Y0137987D02*
X0239079Y0137987D01*
X0239079Y0136988D02*
X0238079Y0136988D01*
X0238079Y0135990D02*
X0239079Y0135990D01*
X0239079Y0134991D02*
X0238079Y0134991D01*
X0238079Y0133993D02*
X0239079Y0133993D01*
X0239079Y0130997D02*
X0238079Y0130997D01*
X0238079Y0129999D02*
X0239079Y0129999D01*
X0239079Y0129000D02*
X0238079Y0129000D01*
X0238079Y0128002D02*
X0239079Y0128002D01*
X0239079Y0127003D02*
X0238079Y0127003D01*
X0238079Y0126004D02*
X0239079Y0126004D01*
X0234072Y0126004D02*
X0232156Y0126004D01*
X0232190Y0127003D02*
X0233930Y0127003D01*
X0233930Y0128002D02*
X0232190Y0128002D01*
X0232190Y0129000D02*
X0233930Y0129000D01*
X0233930Y0129999D02*
X0232190Y0129999D01*
X0232190Y0130997D02*
X0233930Y0130997D01*
X0230221Y0125006D02*
X0246724Y0125006D01*
X0246724Y0126004D02*
X0243087Y0126004D01*
X0243229Y0127003D02*
X0246724Y0127003D01*
X0246724Y0128002D02*
X0243229Y0128002D01*
X0243229Y0129000D02*
X0246724Y0129000D01*
X0246724Y0129999D02*
X0243229Y0129999D01*
X0243229Y0130997D02*
X0246724Y0130997D01*
X0250874Y0130997D02*
X0285453Y0130997D01*
X0284583Y0129999D02*
X0250874Y0129999D01*
X0250874Y0129000D02*
X0284170Y0129000D01*
X0283403Y0128002D02*
X0250874Y0128002D01*
X0250874Y0127003D02*
X0282405Y0127003D01*
X0281406Y0126004D02*
X0250874Y0126004D01*
X0250874Y0125006D02*
X0280408Y0125006D01*
X0279409Y0124007D02*
X0250874Y0124007D01*
X0250665Y0123009D02*
X0278411Y0123009D01*
X0277412Y0122010D02*
X0249667Y0122010D01*
X0248668Y0121012D02*
X0276797Y0121012D01*
X0276662Y0120013D02*
X0247670Y0120013D01*
X0246671Y0119015D02*
X0276915Y0119015D01*
X0289677Y0124007D02*
X0305902Y0124007D01*
X0305902Y0125006D02*
X0291176Y0125006D01*
X0291895Y0126004D02*
X0305902Y0126004D01*
X0305902Y0127003D02*
X0292308Y0127003D01*
X0292327Y0128002D02*
X0305902Y0128002D01*
X0305902Y0129000D02*
X0292202Y0129000D01*
X0291788Y0129999D02*
X0305902Y0129999D01*
X0305902Y0130997D02*
X0290919Y0130997D01*
X0289056Y0131996D02*
X0305902Y0131996D01*
X0305902Y0132994D02*
X0250874Y0132994D01*
X0250874Y0131996D02*
X0287316Y0131996D01*
X0281818Y0136836D02*
X0282583Y0138684D01*
X0282583Y0140684D01*
X0281818Y0142532D01*
X0280404Y0143946D01*
X0278556Y0144711D01*
X0276556Y0144711D01*
X0274708Y0143946D01*
X0273294Y0142532D01*
X0272528Y0140684D01*
X0272528Y0138684D01*
X0273294Y0136836D01*
X0274708Y0135422D01*
X0276556Y0134656D01*
X0278556Y0134656D01*
X0280404Y0135422D01*
X0281818Y0136836D01*
X0281881Y0136988D02*
X0305902Y0136988D01*
X0305902Y0135990D02*
X0280971Y0135990D01*
X0279364Y0134991D02*
X0305902Y0134991D01*
X0305902Y0133993D02*
X0250874Y0133993D01*
X0250874Y0134991D02*
X0275748Y0134991D01*
X0274140Y0135990D02*
X0250874Y0135990D01*
X0250874Y0136988D02*
X0273231Y0136988D01*
X0272817Y0137987D02*
X0250874Y0137987D01*
X0250874Y0138985D02*
X0272528Y0138985D01*
X0272528Y0139984D02*
X0250874Y0139984D01*
X0250874Y0140982D02*
X0272652Y0140982D01*
X0273065Y0141981D02*
X0250874Y0141981D01*
X0250874Y0142979D02*
X0273741Y0142979D01*
X0274784Y0143978D02*
X0250874Y0143978D01*
X0250874Y0144976D02*
X0305902Y0144976D01*
X0305902Y0143978D02*
X0280327Y0143978D01*
X0281371Y0142979D02*
X0305902Y0142979D01*
X0305902Y0141981D02*
X0282046Y0141981D01*
X0282460Y0140982D02*
X0305902Y0140982D01*
X0305902Y0139984D02*
X0282583Y0139984D01*
X0282583Y0138985D02*
X0305902Y0138985D01*
X0305902Y0137987D02*
X0282295Y0137987D01*
X0290463Y0154096D02*
X0292817Y0153121D01*
X0295365Y0153121D01*
X0297720Y0154096D01*
X0299522Y0155898D01*
X0300497Y0158252D01*
X0300497Y0160801D01*
X0299522Y0163155D01*
X0297720Y0164957D01*
X0295365Y0165932D01*
X0292817Y0165932D01*
X0290463Y0164957D01*
X0288661Y0163155D01*
X0287686Y0160801D01*
X0287686Y0158252D01*
X0288661Y0155898D01*
X0290463Y0154096D01*
X0290785Y0153963D02*
X0250874Y0153963D01*
X0250874Y0154961D02*
X0289598Y0154961D01*
X0288635Y0155960D02*
X0253431Y0155960D01*
X0254233Y0156958D02*
X0288222Y0156958D01*
X0287808Y0157957D02*
X0254233Y0157957D01*
X0254233Y0158955D02*
X0287686Y0158955D01*
X0287686Y0159954D02*
X0254233Y0159954D01*
X0254233Y0160952D02*
X0287749Y0160952D01*
X0288162Y0161951D02*
X0254233Y0161951D01*
X0253575Y0162949D02*
X0288576Y0162949D01*
X0289454Y0163948D02*
X0192197Y0163948D01*
X0192191Y0162949D02*
X0208623Y0162949D01*
X0207965Y0161951D02*
X0191738Y0161951D01*
X0189761Y0161951D02*
X0189760Y0161951D01*
X0189760Y0162949D02*
X0189761Y0162949D01*
X0189760Y0163948D02*
X0189761Y0163948D01*
X0189760Y0164946D02*
X0189761Y0164946D01*
X0191757Y0164946D02*
X0290452Y0164946D01*
X0297730Y0164946D02*
X0305902Y0164946D01*
X0305902Y0163948D02*
X0298728Y0163948D01*
X0299607Y0162949D02*
X0305902Y0162949D01*
X0305902Y0161951D02*
X0300020Y0161951D01*
X0300434Y0160952D02*
X0305902Y0160952D01*
X0305902Y0159954D02*
X0300497Y0159954D01*
X0300497Y0158955D02*
X0305902Y0158955D01*
X0305902Y0157957D02*
X0300374Y0157957D01*
X0299961Y0156958D02*
X0305902Y0156958D01*
X0305902Y0155960D02*
X0299547Y0155960D01*
X0298585Y0154961D02*
X0305902Y0154961D01*
X0305902Y0153963D02*
X0297398Y0153963D01*
X0305902Y0152964D02*
X0250874Y0152964D01*
X0250874Y0151966D02*
X0305902Y0151966D01*
X0305902Y0150967D02*
X0250874Y0150967D01*
X0250874Y0149969D02*
X0305902Y0149969D01*
X0305902Y0148970D02*
X0250874Y0148970D01*
X0250874Y0147972D02*
X0305902Y0147972D01*
X0305902Y0146973D02*
X0250874Y0146973D01*
X0250874Y0145975D02*
X0305902Y0145975D01*
X0245795Y0124007D02*
X0230221Y0124007D01*
X0230221Y0123009D02*
X0244797Y0123009D01*
X0243798Y0122010D02*
X0238527Y0122010D01*
X0238841Y0121012D02*
X0242800Y0121012D01*
X0241801Y0120013D02*
X0238841Y0120013D01*
X0238841Y0119015D02*
X0240803Y0119015D01*
X0239804Y0118016D02*
X0238841Y0118016D01*
X0238806Y0117018D02*
X0238520Y0117018D01*
X0238513Y0112025D02*
X0241145Y0112025D01*
X0240442Y0107033D02*
X0238527Y0107033D01*
X0238857Y0106034D02*
X0240442Y0106034D01*
X0240442Y0105036D02*
X0238857Y0105036D01*
X0238857Y0104632D02*
X0233507Y0104632D01*
X0233507Y0101982D01*
X0237554Y0101982D01*
X0237936Y0102085D01*
X0238278Y0102282D01*
X0238557Y0102561D01*
X0238754Y0102903D01*
X0238857Y0103285D01*
X0238857Y0104632D01*
X0238857Y0104037D02*
X0240661Y0104037D01*
X0240426Y0103039D02*
X0238791Y0103039D01*
X0237770Y0102040D02*
X0240426Y0102040D01*
X0233507Y0102040D02*
X0233207Y0102040D01*
X0233207Y0103039D02*
X0233507Y0103039D01*
X0233507Y0104037D02*
X0233207Y0104037D01*
X0210323Y0092055D02*
X0208583Y0092055D01*
X0208583Y0092097D02*
X0204434Y0092097D01*
X0204434Y0085782D01*
X0207281Y0085782D01*
X0207662Y0085885D01*
X0208004Y0086082D01*
X0208284Y0086361D01*
X0208481Y0086703D01*
X0208583Y0087085D01*
X0208583Y0092097D01*
X0208583Y0091057D02*
X0210323Y0091057D01*
X0210323Y0090058D02*
X0208583Y0090058D01*
X0208583Y0089060D02*
X0210323Y0089060D01*
X0210323Y0088061D02*
X0208583Y0088061D01*
X0208577Y0087063D02*
X0210323Y0087063D01*
X0210927Y0086064D02*
X0207973Y0086064D01*
X0204434Y0086064D02*
X0203434Y0086064D01*
X0203434Y0087063D02*
X0204434Y0087063D01*
X0204434Y0088061D02*
X0203434Y0088061D01*
X0203434Y0089060D02*
X0204434Y0089060D01*
X0204434Y0090058D02*
X0203434Y0090058D01*
X0203434Y0091057D02*
X0204434Y0091057D01*
X0204434Y0092055D02*
X0203434Y0092055D01*
X0203434Y0095051D02*
X0204434Y0095051D01*
X0204434Y0096049D02*
X0203434Y0096049D01*
X0203434Y0097048D02*
X0204434Y0097048D01*
X0204434Y0098046D02*
X0203434Y0098046D01*
X0203434Y0099045D02*
X0204434Y0099045D01*
X0199284Y0098046D02*
X0183961Y0098046D01*
X0183961Y0097048D02*
X0199284Y0097048D01*
X0199284Y0096049D02*
X0183961Y0096049D01*
X0183961Y0095051D02*
X0199284Y0095051D01*
X0221256Y0084067D02*
X0221257Y0084067D01*
X0221256Y0083068D02*
X0221257Y0083068D01*
X0221256Y0082070D02*
X0221257Y0082070D01*
X0221256Y0081071D02*
X0221257Y0081071D01*
X0177183Y0075080D02*
X0176896Y0075080D01*
X0168591Y0095051D02*
X0163686Y0095051D01*
X0163686Y0096049D02*
X0168591Y0096049D01*
X0168591Y0097048D02*
X0163686Y0097048D01*
X0163686Y0098046D02*
X0168591Y0098046D01*
X0168591Y0099045D02*
X0163686Y0099045D01*
X0163686Y0100043D02*
X0168591Y0100043D01*
X0168591Y0101042D02*
X0163686Y0101042D01*
X0163686Y0102040D02*
X0168591Y0102040D01*
X0171938Y0103039D02*
X0143410Y0103039D01*
X0143410Y0104037D02*
X0171938Y0104037D01*
X0171938Y0105036D02*
X0143410Y0105036D01*
X0143410Y0106034D02*
X0161289Y0106034D01*
X0161477Y0105957D02*
X0161957Y0105861D01*
X0162201Y0105861D01*
X0162201Y0108345D01*
X0159717Y0108345D01*
X0159717Y0108101D01*
X0159813Y0107621D01*
X0160000Y0107169D01*
X0160272Y0106762D01*
X0160618Y0106416D01*
X0161025Y0106144D01*
X0161477Y0105957D01*
X0162201Y0106034D02*
X0162201Y0106034D01*
X0162201Y0105861D02*
X0162446Y0105861D01*
X0162926Y0105957D01*
X0163378Y0106144D01*
X0163785Y0106416D01*
X0164131Y0106762D01*
X0164403Y0107169D01*
X0164590Y0107621D01*
X0164686Y0108101D01*
X0164686Y0108345D01*
X0162202Y0108345D01*
X0162202Y0108345D01*
X0162201Y0108345D02*
X0162201Y0105861D01*
X0163114Y0106034D02*
X0171938Y0106034D01*
X0171938Y0107033D02*
X0164312Y0107033D01*
X0164672Y0108031D02*
X0171938Y0108031D01*
X0171938Y0109030D02*
X0164598Y0109030D01*
X0164590Y0109070D02*
X0164403Y0109522D01*
X0164131Y0109929D01*
X0163785Y0110275D01*
X0163378Y0110547D01*
X0162926Y0110734D01*
X0162446Y0110830D01*
X0162201Y0110830D01*
X0161957Y0110830D01*
X0161477Y0110734D01*
X0161025Y0110547D01*
X0160618Y0110275D01*
X0160272Y0109929D01*
X0160000Y0109522D01*
X0159813Y0109070D01*
X0159717Y0108590D01*
X0159717Y0108345D01*
X0162201Y0108345D01*
X0162201Y0108345D01*
X0162201Y0108345D01*
X0162201Y0110830D01*
X0162201Y0108345D01*
X0162201Y0108345D01*
X0162202Y0108345D02*
X0164686Y0108345D01*
X0164686Y0108590D01*
X0164590Y0109070D01*
X0164032Y0110028D02*
X0171938Y0110028D01*
X0162201Y0110028D02*
X0162201Y0110028D01*
X0162201Y0109030D02*
X0162201Y0109030D01*
X0162201Y0108031D02*
X0162201Y0108031D01*
X0162201Y0107033D02*
X0162201Y0107033D01*
X0160091Y0107033D02*
X0143276Y0107033D01*
X0142663Y0108031D02*
X0159731Y0108031D01*
X0159805Y0109030D02*
X0141664Y0109030D01*
X0140666Y0110028D02*
X0160371Y0110028D01*
X0154812Y0102040D02*
X0152268Y0102040D01*
X0152268Y0101042D02*
X0154812Y0101042D01*
X0154812Y0096049D02*
X0152268Y0096049D01*
X0152268Y0095051D02*
X0154812Y0095051D01*
X0173028Y0098503D02*
X0173589Y0098503D01*
X0138473Y0121012D02*
X0138258Y0121012D01*
X0139106Y0149969D02*
X0139706Y0149969D01*
X0139706Y0151966D02*
X0139106Y0151966D01*
X0139106Y0152964D02*
X0139706Y0152964D01*
X0139706Y0153963D02*
X0139106Y0153963D01*
X0141627Y0153963D02*
X0157208Y0153963D01*
X0156209Y0152964D02*
X0142625Y0152964D01*
X0205386Y0133993D02*
X0205609Y0133993D01*
X0208749Y0133993D02*
X0209749Y0133993D01*
X0209749Y0132994D02*
X0208749Y0132994D01*
X0208749Y0131996D02*
X0209749Y0131996D01*
X0209749Y0130997D02*
X0208749Y0130997D01*
X0213308Y0129000D02*
X0216623Y0129000D01*
X0216623Y0128002D02*
X0213308Y0128002D01*
X0213308Y0127003D02*
X0216623Y0127003D01*
X0216623Y0126004D02*
X0212887Y0126004D01*
D27*
X0227162Y0132361D02*
X0227556Y0131967D01*
X0227556Y0151793D01*
X0227556Y0159681D01*
X0227494Y0159743D01*
X0227480Y0151869D02*
X0227556Y0151793D01*
X0219288Y0148700D02*
X0213383Y0154605D01*
X0213383Y0159526D01*
X0219288Y0148700D02*
X0219288Y0114331D01*
X0219288Y0096534D01*
X0215351Y0092597D01*
X0214957Y0092597D01*
X0215118Y0092597D01*
X0216788Y0094267D01*
X0219288Y0114331D02*
X0218837Y0114782D01*
X0209157Y0114782D01*
X0198363Y0114782D01*
X0197635Y0114054D01*
X0197635Y0119172D01*
X0194319Y0122487D01*
X0176965Y0139841D01*
X0146453Y0139841D01*
X0132674Y0126062D01*
X0132674Y0122125D01*
X0132674Y0114251D01*
X0140745Y0106180D01*
X0140745Y0098503D01*
X0140745Y0084723D01*
X0140745Y0070944D01*
X0082461Y0111676D02*
X0080705Y0109920D01*
X0082461Y0111676D02*
X0082587Y0111676D01*
X0089367Y0118456D01*
X0089367Y0154605D01*
X0227556Y0131967D02*
X0227556Y0121731D01*
X0229505Y0119782D01*
X0233357Y0119782D01*
X0279327Y0120156D02*
X0287044Y0127873D01*
X0288186Y0127873D01*
D28*
X0227494Y0159743D03*
M02*
