G75*
%MOIN*%
%OFA0B0*%
%FSLAX25Y25*%
%IPPOS*%
%LPD*%
%AMOC8*
5,1,8,0,0,1.08239X$1,22.5*
%
%ADD10C,0.00000*%
%ADD11C,0.00189*%
%ADD12C,0.00205*%
%ADD13C,0.00177*%
%ADD14C,0.00208*%
%ADD15C,0.00215*%
D10*
X0001500Y0059133D02*
X0001500Y0175274D01*
X0253469Y0175274D01*
X0253469Y0059133D01*
X0001500Y0059133D01*
X0220988Y0088503D02*
X0220990Y0088637D01*
X0220996Y0088771D01*
X0221006Y0088905D01*
X0221020Y0089039D01*
X0221038Y0089172D01*
X0221059Y0089304D01*
X0221085Y0089436D01*
X0221115Y0089567D01*
X0221148Y0089697D01*
X0221185Y0089825D01*
X0221227Y0089953D01*
X0221271Y0090080D01*
X0221320Y0090205D01*
X0221372Y0090328D01*
X0221428Y0090450D01*
X0221488Y0090571D01*
X0221551Y0090689D01*
X0221617Y0090806D01*
X0221687Y0090920D01*
X0221760Y0091033D01*
X0221837Y0091143D01*
X0221917Y0091251D01*
X0222000Y0091356D01*
X0222086Y0091459D01*
X0222175Y0091559D01*
X0222267Y0091657D01*
X0222362Y0091752D01*
X0222460Y0091844D01*
X0222560Y0091933D01*
X0222663Y0092019D01*
X0222768Y0092102D01*
X0222876Y0092182D01*
X0222986Y0092259D01*
X0223099Y0092332D01*
X0223213Y0092402D01*
X0223330Y0092468D01*
X0223448Y0092531D01*
X0223569Y0092591D01*
X0223691Y0092647D01*
X0223814Y0092699D01*
X0223939Y0092748D01*
X0224066Y0092792D01*
X0224194Y0092834D01*
X0224322Y0092871D01*
X0224452Y0092904D01*
X0224583Y0092934D01*
X0224715Y0092960D01*
X0224847Y0092981D01*
X0224980Y0092999D01*
X0225114Y0093013D01*
X0225248Y0093023D01*
X0225382Y0093029D01*
X0225516Y0093031D01*
X0225650Y0093029D01*
X0225784Y0093023D01*
X0225918Y0093013D01*
X0226052Y0092999D01*
X0226185Y0092981D01*
X0226317Y0092960D01*
X0226449Y0092934D01*
X0226580Y0092904D01*
X0226710Y0092871D01*
X0226838Y0092834D01*
X0226966Y0092792D01*
X0227093Y0092748D01*
X0227218Y0092699D01*
X0227341Y0092647D01*
X0227463Y0092591D01*
X0227584Y0092531D01*
X0227702Y0092468D01*
X0227819Y0092402D01*
X0227933Y0092332D01*
X0228046Y0092259D01*
X0228156Y0092182D01*
X0228264Y0092102D01*
X0228369Y0092019D01*
X0228472Y0091933D01*
X0228572Y0091844D01*
X0228670Y0091752D01*
X0228765Y0091657D01*
X0228857Y0091559D01*
X0228946Y0091459D01*
X0229032Y0091356D01*
X0229115Y0091251D01*
X0229195Y0091143D01*
X0229272Y0091033D01*
X0229345Y0090920D01*
X0229415Y0090806D01*
X0229481Y0090689D01*
X0229544Y0090571D01*
X0229604Y0090450D01*
X0229660Y0090328D01*
X0229712Y0090205D01*
X0229761Y0090080D01*
X0229805Y0089953D01*
X0229847Y0089825D01*
X0229884Y0089697D01*
X0229917Y0089567D01*
X0229947Y0089436D01*
X0229973Y0089304D01*
X0229994Y0089172D01*
X0230012Y0089039D01*
X0230026Y0088905D01*
X0230036Y0088771D01*
X0230042Y0088637D01*
X0230044Y0088503D01*
X0230042Y0088369D01*
X0230036Y0088235D01*
X0230026Y0088101D01*
X0230012Y0087967D01*
X0229994Y0087834D01*
X0229973Y0087702D01*
X0229947Y0087570D01*
X0229917Y0087439D01*
X0229884Y0087309D01*
X0229847Y0087181D01*
X0229805Y0087053D01*
X0229761Y0086926D01*
X0229712Y0086801D01*
X0229660Y0086678D01*
X0229604Y0086556D01*
X0229544Y0086435D01*
X0229481Y0086317D01*
X0229415Y0086200D01*
X0229345Y0086086D01*
X0229272Y0085973D01*
X0229195Y0085863D01*
X0229115Y0085755D01*
X0229032Y0085650D01*
X0228946Y0085547D01*
X0228857Y0085447D01*
X0228765Y0085349D01*
X0228670Y0085254D01*
X0228572Y0085162D01*
X0228472Y0085073D01*
X0228369Y0084987D01*
X0228264Y0084904D01*
X0228156Y0084824D01*
X0228046Y0084747D01*
X0227933Y0084674D01*
X0227819Y0084604D01*
X0227702Y0084538D01*
X0227584Y0084475D01*
X0227463Y0084415D01*
X0227341Y0084359D01*
X0227218Y0084307D01*
X0227093Y0084258D01*
X0226966Y0084214D01*
X0226838Y0084172D01*
X0226710Y0084135D01*
X0226580Y0084102D01*
X0226449Y0084072D01*
X0226317Y0084046D01*
X0226185Y0084025D01*
X0226052Y0084007D01*
X0225918Y0083993D01*
X0225784Y0083983D01*
X0225650Y0083977D01*
X0225516Y0083975D01*
X0225382Y0083977D01*
X0225248Y0083983D01*
X0225114Y0083993D01*
X0224980Y0084007D01*
X0224847Y0084025D01*
X0224715Y0084046D01*
X0224583Y0084072D01*
X0224452Y0084102D01*
X0224322Y0084135D01*
X0224194Y0084172D01*
X0224066Y0084214D01*
X0223939Y0084258D01*
X0223814Y0084307D01*
X0223691Y0084359D01*
X0223569Y0084415D01*
X0223448Y0084475D01*
X0223330Y0084538D01*
X0223213Y0084604D01*
X0223099Y0084674D01*
X0222986Y0084747D01*
X0222876Y0084824D01*
X0222768Y0084904D01*
X0222663Y0084987D01*
X0222560Y0085073D01*
X0222460Y0085162D01*
X0222362Y0085254D01*
X0222267Y0085349D01*
X0222175Y0085447D01*
X0222086Y0085547D01*
X0222000Y0085650D01*
X0221917Y0085755D01*
X0221837Y0085863D01*
X0221760Y0085973D01*
X0221687Y0086086D01*
X0221617Y0086200D01*
X0221551Y0086317D01*
X0221488Y0086435D01*
X0221428Y0086556D01*
X0221372Y0086678D01*
X0221320Y0086801D01*
X0221271Y0086926D01*
X0221227Y0087053D01*
X0221185Y0087181D01*
X0221148Y0087309D01*
X0221115Y0087439D01*
X0221085Y0087570D01*
X0221059Y0087702D01*
X0221038Y0087834D01*
X0221020Y0087967D01*
X0221006Y0088101D01*
X0220996Y0088235D01*
X0220990Y0088369D01*
X0220988Y0088503D01*
X0220594Y0139684D02*
X0220596Y0139818D01*
X0220602Y0139952D01*
X0220612Y0140086D01*
X0220626Y0140220D01*
X0220644Y0140353D01*
X0220665Y0140485D01*
X0220691Y0140617D01*
X0220721Y0140748D01*
X0220754Y0140878D01*
X0220791Y0141006D01*
X0220833Y0141134D01*
X0220877Y0141261D01*
X0220926Y0141386D01*
X0220978Y0141509D01*
X0221034Y0141631D01*
X0221094Y0141752D01*
X0221157Y0141870D01*
X0221223Y0141987D01*
X0221293Y0142101D01*
X0221366Y0142214D01*
X0221443Y0142324D01*
X0221523Y0142432D01*
X0221606Y0142537D01*
X0221692Y0142640D01*
X0221781Y0142740D01*
X0221873Y0142838D01*
X0221968Y0142933D01*
X0222066Y0143025D01*
X0222166Y0143114D01*
X0222269Y0143200D01*
X0222374Y0143283D01*
X0222482Y0143363D01*
X0222592Y0143440D01*
X0222705Y0143513D01*
X0222819Y0143583D01*
X0222936Y0143649D01*
X0223054Y0143712D01*
X0223175Y0143772D01*
X0223297Y0143828D01*
X0223420Y0143880D01*
X0223545Y0143929D01*
X0223672Y0143973D01*
X0223800Y0144015D01*
X0223928Y0144052D01*
X0224058Y0144085D01*
X0224189Y0144115D01*
X0224321Y0144141D01*
X0224453Y0144162D01*
X0224586Y0144180D01*
X0224720Y0144194D01*
X0224854Y0144204D01*
X0224988Y0144210D01*
X0225122Y0144212D01*
X0225256Y0144210D01*
X0225390Y0144204D01*
X0225524Y0144194D01*
X0225658Y0144180D01*
X0225791Y0144162D01*
X0225923Y0144141D01*
X0226055Y0144115D01*
X0226186Y0144085D01*
X0226316Y0144052D01*
X0226444Y0144015D01*
X0226572Y0143973D01*
X0226699Y0143929D01*
X0226824Y0143880D01*
X0226947Y0143828D01*
X0227069Y0143772D01*
X0227190Y0143712D01*
X0227308Y0143649D01*
X0227425Y0143583D01*
X0227539Y0143513D01*
X0227652Y0143440D01*
X0227762Y0143363D01*
X0227870Y0143283D01*
X0227975Y0143200D01*
X0228078Y0143114D01*
X0228178Y0143025D01*
X0228276Y0142933D01*
X0228371Y0142838D01*
X0228463Y0142740D01*
X0228552Y0142640D01*
X0228638Y0142537D01*
X0228721Y0142432D01*
X0228801Y0142324D01*
X0228878Y0142214D01*
X0228951Y0142101D01*
X0229021Y0141987D01*
X0229087Y0141870D01*
X0229150Y0141752D01*
X0229210Y0141631D01*
X0229266Y0141509D01*
X0229318Y0141386D01*
X0229367Y0141261D01*
X0229411Y0141134D01*
X0229453Y0141006D01*
X0229490Y0140878D01*
X0229523Y0140748D01*
X0229553Y0140617D01*
X0229579Y0140485D01*
X0229600Y0140353D01*
X0229618Y0140220D01*
X0229632Y0140086D01*
X0229642Y0139952D01*
X0229648Y0139818D01*
X0229650Y0139684D01*
X0229648Y0139550D01*
X0229642Y0139416D01*
X0229632Y0139282D01*
X0229618Y0139148D01*
X0229600Y0139015D01*
X0229579Y0138883D01*
X0229553Y0138751D01*
X0229523Y0138620D01*
X0229490Y0138490D01*
X0229453Y0138362D01*
X0229411Y0138234D01*
X0229367Y0138107D01*
X0229318Y0137982D01*
X0229266Y0137859D01*
X0229210Y0137737D01*
X0229150Y0137616D01*
X0229087Y0137498D01*
X0229021Y0137381D01*
X0228951Y0137267D01*
X0228878Y0137154D01*
X0228801Y0137044D01*
X0228721Y0136936D01*
X0228638Y0136831D01*
X0228552Y0136728D01*
X0228463Y0136628D01*
X0228371Y0136530D01*
X0228276Y0136435D01*
X0228178Y0136343D01*
X0228078Y0136254D01*
X0227975Y0136168D01*
X0227870Y0136085D01*
X0227762Y0136005D01*
X0227652Y0135928D01*
X0227539Y0135855D01*
X0227425Y0135785D01*
X0227308Y0135719D01*
X0227190Y0135656D01*
X0227069Y0135596D01*
X0226947Y0135540D01*
X0226824Y0135488D01*
X0226699Y0135439D01*
X0226572Y0135395D01*
X0226444Y0135353D01*
X0226316Y0135316D01*
X0226186Y0135283D01*
X0226055Y0135253D01*
X0225923Y0135227D01*
X0225791Y0135206D01*
X0225658Y0135188D01*
X0225524Y0135174D01*
X0225390Y0135164D01*
X0225256Y0135158D01*
X0225122Y0135156D01*
X0224988Y0135158D01*
X0224854Y0135164D01*
X0224720Y0135174D01*
X0224586Y0135188D01*
X0224453Y0135206D01*
X0224321Y0135227D01*
X0224189Y0135253D01*
X0224058Y0135283D01*
X0223928Y0135316D01*
X0223800Y0135353D01*
X0223672Y0135395D01*
X0223545Y0135439D01*
X0223420Y0135488D01*
X0223297Y0135540D01*
X0223175Y0135596D01*
X0223054Y0135656D01*
X0222936Y0135719D01*
X0222819Y0135785D01*
X0222705Y0135855D01*
X0222592Y0135928D01*
X0222482Y0136005D01*
X0222374Y0136085D01*
X0222269Y0136168D01*
X0222166Y0136254D01*
X0222066Y0136343D01*
X0221968Y0136435D01*
X0221873Y0136530D01*
X0221781Y0136628D01*
X0221692Y0136728D01*
X0221606Y0136831D01*
X0221523Y0136936D01*
X0221443Y0137044D01*
X0221366Y0137154D01*
X0221293Y0137267D01*
X0221223Y0137381D01*
X0221157Y0137498D01*
X0221094Y0137616D01*
X0221034Y0137737D01*
X0220978Y0137859D01*
X0220926Y0137982D01*
X0220877Y0138107D01*
X0220833Y0138234D01*
X0220791Y0138362D01*
X0220754Y0138490D01*
X0220721Y0138620D01*
X0220691Y0138751D01*
X0220665Y0138883D01*
X0220644Y0139015D01*
X0220626Y0139148D01*
X0220612Y0139282D01*
X0220602Y0139416D01*
X0220596Y0139550D01*
X0220594Y0139684D01*
D11*
X0189201Y0137188D02*
X0183091Y0137188D01*
X0189201Y0137188D02*
X0189201Y0126746D01*
X0183091Y0126746D01*
X0183091Y0137188D01*
X0183091Y0126934D02*
X0189201Y0126934D01*
X0189201Y0127122D02*
X0183091Y0127122D01*
X0183091Y0127310D02*
X0189201Y0127310D01*
X0189201Y0127498D02*
X0183091Y0127498D01*
X0183091Y0127686D02*
X0189201Y0127686D01*
X0189201Y0127874D02*
X0183091Y0127874D01*
X0183091Y0128062D02*
X0189201Y0128062D01*
X0189201Y0128250D02*
X0183091Y0128250D01*
X0183091Y0128438D02*
X0189201Y0128438D01*
X0189201Y0128626D02*
X0183091Y0128626D01*
X0183091Y0128814D02*
X0189201Y0128814D01*
X0189201Y0129002D02*
X0183091Y0129002D01*
X0183091Y0129190D02*
X0189201Y0129190D01*
X0189201Y0129378D02*
X0183091Y0129378D01*
X0183091Y0129566D02*
X0189201Y0129566D01*
X0189201Y0129754D02*
X0183091Y0129754D01*
X0183091Y0129942D02*
X0189201Y0129942D01*
X0189201Y0130130D02*
X0183091Y0130130D01*
X0183091Y0130318D02*
X0189201Y0130318D01*
X0189201Y0130506D02*
X0183091Y0130506D01*
X0183091Y0130694D02*
X0189201Y0130694D01*
X0189201Y0130882D02*
X0183091Y0130882D01*
X0183091Y0131070D02*
X0189201Y0131070D01*
X0189201Y0131258D02*
X0183091Y0131258D01*
X0183091Y0131446D02*
X0189201Y0131446D01*
X0189201Y0131634D02*
X0183091Y0131634D01*
X0183091Y0131822D02*
X0189201Y0131822D01*
X0189201Y0132010D02*
X0183091Y0132010D01*
X0183091Y0132198D02*
X0189201Y0132198D01*
X0189201Y0132386D02*
X0183091Y0132386D01*
X0183091Y0132574D02*
X0189201Y0132574D01*
X0189201Y0132762D02*
X0183091Y0132762D01*
X0183091Y0132950D02*
X0189201Y0132950D01*
X0189201Y0133138D02*
X0183091Y0133138D01*
X0183091Y0133326D02*
X0189201Y0133326D01*
X0189201Y0133514D02*
X0183091Y0133514D01*
X0183091Y0133702D02*
X0189201Y0133702D01*
X0189201Y0133890D02*
X0183091Y0133890D01*
X0183091Y0134078D02*
X0189201Y0134078D01*
X0189201Y0134266D02*
X0183091Y0134266D01*
X0183091Y0134454D02*
X0189201Y0134454D01*
X0189201Y0134642D02*
X0183091Y0134642D01*
X0183091Y0134830D02*
X0189201Y0134830D01*
X0189201Y0135018D02*
X0183091Y0135018D01*
X0183091Y0135206D02*
X0189201Y0135206D01*
X0189201Y0135394D02*
X0183091Y0135394D01*
X0183091Y0135582D02*
X0189201Y0135582D01*
X0189201Y0135770D02*
X0183091Y0135770D01*
X0183091Y0135958D02*
X0189201Y0135958D01*
X0189201Y0136146D02*
X0183091Y0136146D01*
X0183091Y0136334D02*
X0189201Y0136334D01*
X0189201Y0136522D02*
X0183091Y0136522D01*
X0183091Y0136710D02*
X0189201Y0136710D01*
X0189201Y0136898D02*
X0183091Y0136898D01*
X0183091Y0137086D02*
X0189201Y0137086D01*
X0178177Y0137188D02*
X0172067Y0137188D01*
X0178177Y0137188D02*
X0178177Y0126746D01*
X0172067Y0126746D01*
X0172067Y0137188D01*
X0172067Y0126934D02*
X0178177Y0126934D01*
X0178177Y0127122D02*
X0172067Y0127122D01*
X0172067Y0127310D02*
X0178177Y0127310D01*
X0178177Y0127498D02*
X0172067Y0127498D01*
X0172067Y0127686D02*
X0178177Y0127686D01*
X0178177Y0127874D02*
X0172067Y0127874D01*
X0172067Y0128062D02*
X0178177Y0128062D01*
X0178177Y0128250D02*
X0172067Y0128250D01*
X0172067Y0128438D02*
X0178177Y0128438D01*
X0178177Y0128626D02*
X0172067Y0128626D01*
X0172067Y0128814D02*
X0178177Y0128814D01*
X0178177Y0129002D02*
X0172067Y0129002D01*
X0172067Y0129190D02*
X0178177Y0129190D01*
X0178177Y0129378D02*
X0172067Y0129378D01*
X0172067Y0129566D02*
X0178177Y0129566D01*
X0178177Y0129754D02*
X0172067Y0129754D01*
X0172067Y0129942D02*
X0178177Y0129942D01*
X0178177Y0130130D02*
X0172067Y0130130D01*
X0172067Y0130318D02*
X0178177Y0130318D01*
X0178177Y0130506D02*
X0172067Y0130506D01*
X0172067Y0130694D02*
X0178177Y0130694D01*
X0178177Y0130882D02*
X0172067Y0130882D01*
X0172067Y0131070D02*
X0178177Y0131070D01*
X0178177Y0131258D02*
X0172067Y0131258D01*
X0172067Y0131446D02*
X0178177Y0131446D01*
X0178177Y0131634D02*
X0172067Y0131634D01*
X0172067Y0131822D02*
X0178177Y0131822D01*
X0178177Y0132010D02*
X0172067Y0132010D01*
X0172067Y0132198D02*
X0178177Y0132198D01*
X0178177Y0132386D02*
X0172067Y0132386D01*
X0172067Y0132574D02*
X0178177Y0132574D01*
X0178177Y0132762D02*
X0172067Y0132762D01*
X0172067Y0132950D02*
X0178177Y0132950D01*
X0178177Y0133138D02*
X0172067Y0133138D01*
X0172067Y0133326D02*
X0178177Y0133326D01*
X0178177Y0133514D02*
X0172067Y0133514D01*
X0172067Y0133702D02*
X0178177Y0133702D01*
X0178177Y0133890D02*
X0172067Y0133890D01*
X0172067Y0134078D02*
X0178177Y0134078D01*
X0178177Y0134266D02*
X0172067Y0134266D01*
X0172067Y0134454D02*
X0178177Y0134454D01*
X0178177Y0134642D02*
X0172067Y0134642D01*
X0172067Y0134830D02*
X0178177Y0134830D01*
X0178177Y0135018D02*
X0172067Y0135018D01*
X0172067Y0135206D02*
X0178177Y0135206D01*
X0178177Y0135394D02*
X0172067Y0135394D01*
X0172067Y0135582D02*
X0178177Y0135582D01*
X0178177Y0135770D02*
X0172067Y0135770D01*
X0172067Y0135958D02*
X0178177Y0135958D01*
X0178177Y0136146D02*
X0172067Y0136146D01*
X0172067Y0136334D02*
X0178177Y0136334D01*
X0178177Y0136522D02*
X0172067Y0136522D01*
X0172067Y0136710D02*
X0178177Y0136710D01*
X0178177Y0136898D02*
X0172067Y0136898D01*
X0172067Y0137086D02*
X0178177Y0137086D01*
X0165579Y0087376D02*
X0159469Y0087376D01*
X0159469Y0097818D01*
X0165579Y0097818D01*
X0165579Y0087376D01*
X0165579Y0087564D02*
X0159469Y0087564D01*
X0159469Y0087752D02*
X0165579Y0087752D01*
X0165579Y0087940D02*
X0159469Y0087940D01*
X0159469Y0088128D02*
X0165579Y0088128D01*
X0165579Y0088316D02*
X0159469Y0088316D01*
X0159469Y0088504D02*
X0165579Y0088504D01*
X0165579Y0088692D02*
X0159469Y0088692D01*
X0159469Y0088880D02*
X0165579Y0088880D01*
X0165579Y0089068D02*
X0159469Y0089068D01*
X0159469Y0089256D02*
X0165579Y0089256D01*
X0165579Y0089444D02*
X0159469Y0089444D01*
X0159469Y0089632D02*
X0165579Y0089632D01*
X0165579Y0089820D02*
X0159469Y0089820D01*
X0159469Y0090008D02*
X0165579Y0090008D01*
X0165579Y0090196D02*
X0159469Y0090196D01*
X0159469Y0090384D02*
X0165579Y0090384D01*
X0165579Y0090572D02*
X0159469Y0090572D01*
X0159469Y0090760D02*
X0165579Y0090760D01*
X0165579Y0090948D02*
X0159469Y0090948D01*
X0159469Y0091136D02*
X0165579Y0091136D01*
X0165579Y0091324D02*
X0159469Y0091324D01*
X0159469Y0091512D02*
X0165579Y0091512D01*
X0165579Y0091700D02*
X0159469Y0091700D01*
X0159469Y0091888D02*
X0165579Y0091888D01*
X0165579Y0092076D02*
X0159469Y0092076D01*
X0159469Y0092264D02*
X0165579Y0092264D01*
X0165579Y0092452D02*
X0159469Y0092452D01*
X0159469Y0092640D02*
X0165579Y0092640D01*
X0165579Y0092828D02*
X0159469Y0092828D01*
X0159469Y0093016D02*
X0165579Y0093016D01*
X0165579Y0093204D02*
X0159469Y0093204D01*
X0159469Y0093392D02*
X0165579Y0093392D01*
X0165579Y0093580D02*
X0159469Y0093580D01*
X0159469Y0093768D02*
X0165579Y0093768D01*
X0165579Y0093956D02*
X0159469Y0093956D01*
X0159469Y0094144D02*
X0165579Y0094144D01*
X0165579Y0094332D02*
X0159469Y0094332D01*
X0159469Y0094520D02*
X0165579Y0094520D01*
X0165579Y0094708D02*
X0159469Y0094708D01*
X0159469Y0094896D02*
X0165579Y0094896D01*
X0165579Y0095084D02*
X0159469Y0095084D01*
X0159469Y0095272D02*
X0165579Y0095272D01*
X0165579Y0095460D02*
X0159469Y0095460D01*
X0159469Y0095648D02*
X0165579Y0095648D01*
X0165579Y0095836D02*
X0159469Y0095836D01*
X0159469Y0096024D02*
X0165579Y0096024D01*
X0165579Y0096212D02*
X0159469Y0096212D01*
X0159469Y0096400D02*
X0165579Y0096400D01*
X0165579Y0096588D02*
X0159469Y0096588D01*
X0159469Y0096776D02*
X0165579Y0096776D01*
X0165579Y0096964D02*
X0159469Y0096964D01*
X0159469Y0097152D02*
X0165579Y0097152D01*
X0165579Y0097340D02*
X0159469Y0097340D01*
X0159469Y0097528D02*
X0165579Y0097528D01*
X0165579Y0097716D02*
X0159469Y0097716D01*
X0154555Y0087376D02*
X0148445Y0087376D01*
X0148445Y0097818D01*
X0154555Y0097818D01*
X0154555Y0087376D01*
X0154555Y0087564D02*
X0148445Y0087564D01*
X0148445Y0087752D02*
X0154555Y0087752D01*
X0154555Y0087940D02*
X0148445Y0087940D01*
X0148445Y0088128D02*
X0154555Y0088128D01*
X0154555Y0088316D02*
X0148445Y0088316D01*
X0148445Y0088504D02*
X0154555Y0088504D01*
X0154555Y0088692D02*
X0148445Y0088692D01*
X0148445Y0088880D02*
X0154555Y0088880D01*
X0154555Y0089068D02*
X0148445Y0089068D01*
X0148445Y0089256D02*
X0154555Y0089256D01*
X0154555Y0089444D02*
X0148445Y0089444D01*
X0148445Y0089632D02*
X0154555Y0089632D01*
X0154555Y0089820D02*
X0148445Y0089820D01*
X0148445Y0090008D02*
X0154555Y0090008D01*
X0154555Y0090196D02*
X0148445Y0090196D01*
X0148445Y0090384D02*
X0154555Y0090384D01*
X0154555Y0090572D02*
X0148445Y0090572D01*
X0148445Y0090760D02*
X0154555Y0090760D01*
X0154555Y0090948D02*
X0148445Y0090948D01*
X0148445Y0091136D02*
X0154555Y0091136D01*
X0154555Y0091324D02*
X0148445Y0091324D01*
X0148445Y0091512D02*
X0154555Y0091512D01*
X0154555Y0091700D02*
X0148445Y0091700D01*
X0148445Y0091888D02*
X0154555Y0091888D01*
X0154555Y0092076D02*
X0148445Y0092076D01*
X0148445Y0092264D02*
X0154555Y0092264D01*
X0154555Y0092452D02*
X0148445Y0092452D01*
X0148445Y0092640D02*
X0154555Y0092640D01*
X0154555Y0092828D02*
X0148445Y0092828D01*
X0148445Y0093016D02*
X0154555Y0093016D01*
X0154555Y0093204D02*
X0148445Y0093204D01*
X0148445Y0093392D02*
X0154555Y0093392D01*
X0154555Y0093580D02*
X0148445Y0093580D01*
X0148445Y0093768D02*
X0154555Y0093768D01*
X0154555Y0093956D02*
X0148445Y0093956D01*
X0148445Y0094144D02*
X0154555Y0094144D01*
X0154555Y0094332D02*
X0148445Y0094332D01*
X0148445Y0094520D02*
X0154555Y0094520D01*
X0154555Y0094708D02*
X0148445Y0094708D01*
X0148445Y0094896D02*
X0154555Y0094896D01*
X0154555Y0095084D02*
X0148445Y0095084D01*
X0148445Y0095272D02*
X0154555Y0095272D01*
X0154555Y0095460D02*
X0148445Y0095460D01*
X0148445Y0095648D02*
X0154555Y0095648D01*
X0154555Y0095836D02*
X0148445Y0095836D01*
X0148445Y0096024D02*
X0154555Y0096024D01*
X0154555Y0096212D02*
X0148445Y0096212D01*
X0148445Y0096400D02*
X0154555Y0096400D01*
X0154555Y0096588D02*
X0148445Y0096588D01*
X0148445Y0096776D02*
X0154555Y0096776D01*
X0154555Y0096964D02*
X0148445Y0096964D01*
X0148445Y0097152D02*
X0154555Y0097152D01*
X0154555Y0097340D02*
X0148445Y0097340D01*
X0148445Y0097528D02*
X0154555Y0097528D01*
X0154555Y0097716D02*
X0148445Y0097716D01*
D12*
X0148052Y0104117D02*
X0148052Y0109031D01*
X0148052Y0104117D02*
X0142350Y0104117D01*
X0142350Y0109031D01*
X0148052Y0109031D01*
X0148052Y0104321D02*
X0142350Y0104321D01*
X0142350Y0104525D02*
X0148052Y0104525D01*
X0148052Y0104729D02*
X0142350Y0104729D01*
X0142350Y0104933D02*
X0148052Y0104933D01*
X0148052Y0105137D02*
X0142350Y0105137D01*
X0142350Y0105341D02*
X0148052Y0105341D01*
X0148052Y0105545D02*
X0142350Y0105545D01*
X0142350Y0105749D02*
X0148052Y0105749D01*
X0148052Y0105953D02*
X0142350Y0105953D01*
X0142350Y0106157D02*
X0148052Y0106157D01*
X0148052Y0106361D02*
X0142350Y0106361D01*
X0142350Y0106565D02*
X0148052Y0106565D01*
X0148052Y0106769D02*
X0142350Y0106769D01*
X0142350Y0106973D02*
X0148052Y0106973D01*
X0148052Y0107177D02*
X0142350Y0107177D01*
X0142350Y0107381D02*
X0148052Y0107381D01*
X0148052Y0107585D02*
X0142350Y0107585D01*
X0142350Y0107789D02*
X0148052Y0107789D01*
X0148052Y0107993D02*
X0142350Y0107993D01*
X0142350Y0108197D02*
X0148052Y0108197D01*
X0148052Y0108401D02*
X0142350Y0108401D01*
X0142350Y0108605D02*
X0148052Y0108605D01*
X0148052Y0108809D02*
X0142350Y0108809D01*
X0142350Y0109013D02*
X0148052Y0109013D01*
X0148052Y0111597D02*
X0148052Y0116511D01*
X0148052Y0111597D02*
X0142350Y0111597D01*
X0142350Y0116511D01*
X0148052Y0116511D01*
X0148052Y0111801D02*
X0142350Y0111801D01*
X0142350Y0112005D02*
X0148052Y0112005D01*
X0148052Y0112209D02*
X0142350Y0112209D01*
X0142350Y0112413D02*
X0148052Y0112413D01*
X0148052Y0112617D02*
X0142350Y0112617D01*
X0142350Y0112821D02*
X0148052Y0112821D01*
X0148052Y0113025D02*
X0142350Y0113025D01*
X0142350Y0113229D02*
X0148052Y0113229D01*
X0148052Y0113433D02*
X0142350Y0113433D01*
X0142350Y0113637D02*
X0148052Y0113637D01*
X0148052Y0113841D02*
X0142350Y0113841D01*
X0142350Y0114045D02*
X0148052Y0114045D01*
X0148052Y0114249D02*
X0142350Y0114249D01*
X0142350Y0114453D02*
X0148052Y0114453D01*
X0148052Y0114657D02*
X0142350Y0114657D01*
X0142350Y0114861D02*
X0148052Y0114861D01*
X0148052Y0115065D02*
X0142350Y0115065D01*
X0142350Y0115269D02*
X0148052Y0115269D01*
X0148052Y0115473D02*
X0142350Y0115473D01*
X0142350Y0115677D02*
X0148052Y0115677D01*
X0148052Y0115881D02*
X0142350Y0115881D01*
X0142350Y0116085D02*
X0148052Y0116085D01*
X0148052Y0116289D02*
X0142350Y0116289D01*
X0142350Y0116493D02*
X0148052Y0116493D01*
X0146878Y0127148D02*
X0151792Y0127148D01*
X0146878Y0127148D02*
X0146878Y0132850D01*
X0151792Y0132850D01*
X0151792Y0127148D01*
X0151792Y0127352D02*
X0146878Y0127352D01*
X0146878Y0127556D02*
X0151792Y0127556D01*
X0151792Y0127760D02*
X0146878Y0127760D01*
X0146878Y0127964D02*
X0151792Y0127964D01*
X0151792Y0128168D02*
X0146878Y0128168D01*
X0146878Y0128372D02*
X0151792Y0128372D01*
X0151792Y0128576D02*
X0146878Y0128576D01*
X0146878Y0128780D02*
X0151792Y0128780D01*
X0151792Y0128984D02*
X0146878Y0128984D01*
X0146878Y0129188D02*
X0151792Y0129188D01*
X0151792Y0129392D02*
X0146878Y0129392D01*
X0146878Y0129596D02*
X0151792Y0129596D01*
X0151792Y0129800D02*
X0146878Y0129800D01*
X0146878Y0130004D02*
X0151792Y0130004D01*
X0151792Y0130208D02*
X0146878Y0130208D01*
X0146878Y0130412D02*
X0151792Y0130412D01*
X0151792Y0130616D02*
X0146878Y0130616D01*
X0146878Y0130820D02*
X0151792Y0130820D01*
X0151792Y0131024D02*
X0146878Y0131024D01*
X0146878Y0131228D02*
X0151792Y0131228D01*
X0151792Y0131432D02*
X0146878Y0131432D01*
X0146878Y0131636D02*
X0151792Y0131636D01*
X0151792Y0131840D02*
X0146878Y0131840D01*
X0146878Y0132044D02*
X0151792Y0132044D01*
X0151792Y0132248D02*
X0146878Y0132248D01*
X0146878Y0132452D02*
X0151792Y0132452D01*
X0151792Y0132656D02*
X0146878Y0132656D01*
X0154358Y0127148D02*
X0159272Y0127148D01*
X0154358Y0127148D02*
X0154358Y0132850D01*
X0159272Y0132850D01*
X0159272Y0127148D01*
X0159272Y0127352D02*
X0154358Y0127352D01*
X0154358Y0127556D02*
X0159272Y0127556D01*
X0159272Y0127760D02*
X0154358Y0127760D01*
X0154358Y0127964D02*
X0159272Y0127964D01*
X0159272Y0128168D02*
X0154358Y0128168D01*
X0154358Y0128372D02*
X0159272Y0128372D01*
X0159272Y0128576D02*
X0154358Y0128576D01*
X0154358Y0128780D02*
X0159272Y0128780D01*
X0159272Y0128984D02*
X0154358Y0128984D01*
X0154358Y0129188D02*
X0159272Y0129188D01*
X0159272Y0129392D02*
X0154358Y0129392D01*
X0154358Y0129596D02*
X0159272Y0129596D01*
X0159272Y0129800D02*
X0154358Y0129800D01*
X0154358Y0130004D02*
X0159272Y0130004D01*
X0159272Y0130208D02*
X0154358Y0130208D01*
X0154358Y0130412D02*
X0159272Y0130412D01*
X0159272Y0130616D02*
X0154358Y0130616D01*
X0154358Y0130820D02*
X0159272Y0130820D01*
X0159272Y0131024D02*
X0154358Y0131024D01*
X0154358Y0131228D02*
X0159272Y0131228D01*
X0159272Y0131432D02*
X0154358Y0131432D01*
X0154358Y0131636D02*
X0159272Y0131636D01*
X0159272Y0131840D02*
X0154358Y0131840D01*
X0154358Y0132044D02*
X0159272Y0132044D01*
X0159272Y0132248D02*
X0154358Y0132248D01*
X0154358Y0132452D02*
X0159272Y0132452D01*
X0159272Y0132656D02*
X0154358Y0132656D01*
X0195296Y0110605D02*
X0195296Y0105691D01*
X0189594Y0105691D01*
X0189594Y0110605D01*
X0195296Y0110605D01*
X0195296Y0105895D02*
X0189594Y0105895D01*
X0189594Y0106099D02*
X0195296Y0106099D01*
X0195296Y0106303D02*
X0189594Y0106303D01*
X0189594Y0106507D02*
X0195296Y0106507D01*
X0195296Y0106711D02*
X0189594Y0106711D01*
X0189594Y0106915D02*
X0195296Y0106915D01*
X0195296Y0107119D02*
X0189594Y0107119D01*
X0189594Y0107323D02*
X0195296Y0107323D01*
X0195296Y0107527D02*
X0189594Y0107527D01*
X0189594Y0107731D02*
X0195296Y0107731D01*
X0195296Y0107935D02*
X0189594Y0107935D01*
X0189594Y0108139D02*
X0195296Y0108139D01*
X0195296Y0108343D02*
X0189594Y0108343D01*
X0189594Y0108547D02*
X0195296Y0108547D01*
X0195296Y0108751D02*
X0189594Y0108751D01*
X0189594Y0108955D02*
X0195296Y0108955D01*
X0195296Y0109159D02*
X0189594Y0109159D01*
X0189594Y0109363D02*
X0195296Y0109363D01*
X0195296Y0109567D02*
X0189594Y0109567D01*
X0189594Y0109771D02*
X0195296Y0109771D01*
X0195296Y0109975D02*
X0189594Y0109975D01*
X0189594Y0110179D02*
X0195296Y0110179D01*
X0195296Y0110383D02*
X0189594Y0110383D01*
X0189594Y0110587D02*
X0195296Y0110587D01*
X0195296Y0103125D02*
X0195296Y0098211D01*
X0189594Y0098211D01*
X0189594Y0103125D01*
X0195296Y0103125D01*
X0195296Y0098415D02*
X0189594Y0098415D01*
X0189594Y0098619D02*
X0195296Y0098619D01*
X0195296Y0098823D02*
X0189594Y0098823D01*
X0189594Y0099027D02*
X0195296Y0099027D01*
X0195296Y0099231D02*
X0189594Y0099231D01*
X0189594Y0099435D02*
X0195296Y0099435D01*
X0195296Y0099639D02*
X0189594Y0099639D01*
X0189594Y0099843D02*
X0195296Y0099843D01*
X0195296Y0100047D02*
X0189594Y0100047D01*
X0189594Y0100251D02*
X0195296Y0100251D01*
X0195296Y0100455D02*
X0189594Y0100455D01*
X0189594Y0100659D02*
X0195296Y0100659D01*
X0195296Y0100863D02*
X0189594Y0100863D01*
X0189594Y0101067D02*
X0195296Y0101067D01*
X0195296Y0101271D02*
X0189594Y0101271D01*
X0189594Y0101475D02*
X0195296Y0101475D01*
X0195296Y0101679D02*
X0189594Y0101679D01*
X0189594Y0101883D02*
X0195296Y0101883D01*
X0195296Y0102087D02*
X0189594Y0102087D01*
X0189594Y0102291D02*
X0195296Y0102291D01*
X0195296Y0102495D02*
X0189594Y0102495D01*
X0189594Y0102699D02*
X0195296Y0102699D01*
X0195296Y0102903D02*
X0189594Y0102903D01*
X0189594Y0103107D02*
X0195296Y0103107D01*
X0098248Y0095652D02*
X0093334Y0095652D01*
X0093334Y0101354D01*
X0098248Y0101354D01*
X0098248Y0095652D01*
X0098248Y0095856D02*
X0093334Y0095856D01*
X0093334Y0096060D02*
X0098248Y0096060D01*
X0098248Y0096264D02*
X0093334Y0096264D01*
X0093334Y0096468D02*
X0098248Y0096468D01*
X0098248Y0096672D02*
X0093334Y0096672D01*
X0093334Y0096876D02*
X0098248Y0096876D01*
X0098248Y0097080D02*
X0093334Y0097080D01*
X0093334Y0097284D02*
X0098248Y0097284D01*
X0098248Y0097488D02*
X0093334Y0097488D01*
X0093334Y0097692D02*
X0098248Y0097692D01*
X0098248Y0097896D02*
X0093334Y0097896D01*
X0093334Y0098100D02*
X0098248Y0098100D01*
X0098248Y0098304D02*
X0093334Y0098304D01*
X0093334Y0098508D02*
X0098248Y0098508D01*
X0098248Y0098712D02*
X0093334Y0098712D01*
X0093334Y0098916D02*
X0098248Y0098916D01*
X0098248Y0099120D02*
X0093334Y0099120D01*
X0093334Y0099324D02*
X0098248Y0099324D01*
X0098248Y0099528D02*
X0093334Y0099528D01*
X0093334Y0099732D02*
X0098248Y0099732D01*
X0098248Y0099936D02*
X0093334Y0099936D01*
X0093334Y0100140D02*
X0098248Y0100140D01*
X0098248Y0100344D02*
X0093334Y0100344D01*
X0093334Y0100548D02*
X0098248Y0100548D01*
X0098248Y0100752D02*
X0093334Y0100752D01*
X0093334Y0100956D02*
X0098248Y0100956D01*
X0098248Y0101160D02*
X0093334Y0101160D01*
X0090768Y0095652D02*
X0085854Y0095652D01*
X0085854Y0101354D01*
X0090768Y0101354D01*
X0090768Y0095652D01*
X0090768Y0095856D02*
X0085854Y0095856D01*
X0085854Y0096060D02*
X0090768Y0096060D01*
X0090768Y0096264D02*
X0085854Y0096264D01*
X0085854Y0096468D02*
X0090768Y0096468D01*
X0090768Y0096672D02*
X0085854Y0096672D01*
X0085854Y0096876D02*
X0090768Y0096876D01*
X0090768Y0097080D02*
X0085854Y0097080D01*
X0085854Y0097284D02*
X0090768Y0097284D01*
X0090768Y0097488D02*
X0085854Y0097488D01*
X0085854Y0097692D02*
X0090768Y0097692D01*
X0090768Y0097896D02*
X0085854Y0097896D01*
X0085854Y0098100D02*
X0090768Y0098100D01*
X0090768Y0098304D02*
X0085854Y0098304D01*
X0085854Y0098508D02*
X0090768Y0098508D01*
X0090768Y0098712D02*
X0085854Y0098712D01*
X0085854Y0098916D02*
X0090768Y0098916D01*
X0090768Y0099120D02*
X0085854Y0099120D01*
X0085854Y0099324D02*
X0090768Y0099324D01*
X0090768Y0099528D02*
X0085854Y0099528D01*
X0085854Y0099732D02*
X0090768Y0099732D01*
X0090768Y0099936D02*
X0085854Y0099936D01*
X0085854Y0100140D02*
X0090768Y0100140D01*
X0090768Y0100344D02*
X0085854Y0100344D01*
X0085854Y0100548D02*
X0090768Y0100548D01*
X0090768Y0100752D02*
X0085854Y0100752D01*
X0085854Y0100956D02*
X0090768Y0100956D01*
X0090768Y0101160D02*
X0085854Y0101160D01*
X0085854Y0081872D02*
X0090768Y0081872D01*
X0085854Y0081872D02*
X0085854Y0087574D01*
X0090768Y0087574D01*
X0090768Y0081872D01*
X0090768Y0082076D02*
X0085854Y0082076D01*
X0085854Y0082280D02*
X0090768Y0082280D01*
X0090768Y0082484D02*
X0085854Y0082484D01*
X0085854Y0082688D02*
X0090768Y0082688D01*
X0090768Y0082892D02*
X0085854Y0082892D01*
X0085854Y0083096D02*
X0090768Y0083096D01*
X0090768Y0083300D02*
X0085854Y0083300D01*
X0085854Y0083504D02*
X0090768Y0083504D01*
X0090768Y0083708D02*
X0085854Y0083708D01*
X0085854Y0083912D02*
X0090768Y0083912D01*
X0090768Y0084116D02*
X0085854Y0084116D01*
X0085854Y0084320D02*
X0090768Y0084320D01*
X0090768Y0084524D02*
X0085854Y0084524D01*
X0085854Y0084728D02*
X0090768Y0084728D01*
X0090768Y0084932D02*
X0085854Y0084932D01*
X0085854Y0085136D02*
X0090768Y0085136D01*
X0090768Y0085340D02*
X0085854Y0085340D01*
X0085854Y0085544D02*
X0090768Y0085544D01*
X0090768Y0085748D02*
X0085854Y0085748D01*
X0085854Y0085952D02*
X0090768Y0085952D01*
X0090768Y0086156D02*
X0085854Y0086156D01*
X0085854Y0086360D02*
X0090768Y0086360D01*
X0090768Y0086564D02*
X0085854Y0086564D01*
X0085854Y0086768D02*
X0090768Y0086768D01*
X0090768Y0086972D02*
X0085854Y0086972D01*
X0085854Y0087176D02*
X0090768Y0087176D01*
X0090768Y0087380D02*
X0085854Y0087380D01*
X0093334Y0081872D02*
X0098248Y0081872D01*
X0093334Y0081872D02*
X0093334Y0087574D01*
X0098248Y0087574D01*
X0098248Y0081872D01*
X0098248Y0082076D02*
X0093334Y0082076D01*
X0093334Y0082280D02*
X0098248Y0082280D01*
X0098248Y0082484D02*
X0093334Y0082484D01*
X0093334Y0082688D02*
X0098248Y0082688D01*
X0098248Y0082892D02*
X0093334Y0082892D01*
X0093334Y0083096D02*
X0098248Y0083096D01*
X0098248Y0083300D02*
X0093334Y0083300D01*
X0093334Y0083504D02*
X0098248Y0083504D01*
X0098248Y0083708D02*
X0093334Y0083708D01*
X0093334Y0083912D02*
X0098248Y0083912D01*
X0098248Y0084116D02*
X0093334Y0084116D01*
X0093334Y0084320D02*
X0098248Y0084320D01*
X0098248Y0084524D02*
X0093334Y0084524D01*
X0093334Y0084728D02*
X0098248Y0084728D01*
X0098248Y0084932D02*
X0093334Y0084932D01*
X0093334Y0085136D02*
X0098248Y0085136D01*
X0098248Y0085340D02*
X0093334Y0085340D01*
X0093334Y0085544D02*
X0098248Y0085544D01*
X0098248Y0085748D02*
X0093334Y0085748D01*
X0093334Y0085952D02*
X0098248Y0085952D01*
X0098248Y0086156D02*
X0093334Y0086156D01*
X0093334Y0086360D02*
X0098248Y0086360D01*
X0098248Y0086564D02*
X0093334Y0086564D01*
X0093334Y0086768D02*
X0098248Y0086768D01*
X0098248Y0086972D02*
X0093334Y0086972D01*
X0093334Y0087176D02*
X0098248Y0087176D01*
X0098248Y0087380D02*
X0093334Y0087380D01*
X0093334Y0068093D02*
X0098248Y0068093D01*
X0093334Y0068093D02*
X0093334Y0073795D01*
X0098248Y0073795D01*
X0098248Y0068093D01*
X0098248Y0068297D02*
X0093334Y0068297D01*
X0093334Y0068501D02*
X0098248Y0068501D01*
X0098248Y0068705D02*
X0093334Y0068705D01*
X0093334Y0068909D02*
X0098248Y0068909D01*
X0098248Y0069113D02*
X0093334Y0069113D01*
X0093334Y0069317D02*
X0098248Y0069317D01*
X0098248Y0069521D02*
X0093334Y0069521D01*
X0093334Y0069725D02*
X0098248Y0069725D01*
X0098248Y0069929D02*
X0093334Y0069929D01*
X0093334Y0070133D02*
X0098248Y0070133D01*
X0098248Y0070337D02*
X0093334Y0070337D01*
X0093334Y0070541D02*
X0098248Y0070541D01*
X0098248Y0070745D02*
X0093334Y0070745D01*
X0093334Y0070949D02*
X0098248Y0070949D01*
X0098248Y0071153D02*
X0093334Y0071153D01*
X0093334Y0071357D02*
X0098248Y0071357D01*
X0098248Y0071561D02*
X0093334Y0071561D01*
X0093334Y0071765D02*
X0098248Y0071765D01*
X0098248Y0071969D02*
X0093334Y0071969D01*
X0093334Y0072173D02*
X0098248Y0072173D01*
X0098248Y0072377D02*
X0093334Y0072377D01*
X0093334Y0072581D02*
X0098248Y0072581D01*
X0098248Y0072785D02*
X0093334Y0072785D01*
X0093334Y0072989D02*
X0098248Y0072989D01*
X0098248Y0073193D02*
X0093334Y0073193D01*
X0093334Y0073397D02*
X0098248Y0073397D01*
X0098248Y0073601D02*
X0093334Y0073601D01*
X0090768Y0068093D02*
X0085854Y0068093D01*
X0085854Y0073795D01*
X0090768Y0073795D01*
X0090768Y0068093D01*
X0090768Y0068297D02*
X0085854Y0068297D01*
X0085854Y0068501D02*
X0090768Y0068501D01*
X0090768Y0068705D02*
X0085854Y0068705D01*
X0085854Y0068909D02*
X0090768Y0068909D01*
X0090768Y0069113D02*
X0085854Y0069113D01*
X0085854Y0069317D02*
X0090768Y0069317D01*
X0090768Y0069521D02*
X0085854Y0069521D01*
X0085854Y0069725D02*
X0090768Y0069725D01*
X0090768Y0069929D02*
X0085854Y0069929D01*
X0085854Y0070133D02*
X0090768Y0070133D01*
X0090768Y0070337D02*
X0085854Y0070337D01*
X0085854Y0070541D02*
X0090768Y0070541D01*
X0090768Y0070745D02*
X0085854Y0070745D01*
X0085854Y0070949D02*
X0090768Y0070949D01*
X0090768Y0071153D02*
X0085854Y0071153D01*
X0085854Y0071357D02*
X0090768Y0071357D01*
X0090768Y0071561D02*
X0085854Y0071561D01*
X0085854Y0071765D02*
X0090768Y0071765D01*
X0090768Y0071969D02*
X0085854Y0071969D01*
X0085854Y0072173D02*
X0090768Y0072173D01*
X0090768Y0072377D02*
X0085854Y0072377D01*
X0085854Y0072581D02*
X0090768Y0072581D01*
X0090768Y0072785D02*
X0085854Y0072785D01*
X0085854Y0072989D02*
X0090768Y0072989D01*
X0090768Y0073193D02*
X0085854Y0073193D01*
X0085854Y0073397D02*
X0090768Y0073397D01*
X0090768Y0073601D02*
X0085854Y0073601D01*
D13*
X0103950Y0073809D02*
X0109680Y0073809D01*
X0109680Y0068079D01*
X0103950Y0068079D01*
X0103950Y0073809D01*
X0103950Y0068255D02*
X0109680Y0068255D01*
X0109680Y0068431D02*
X0103950Y0068431D01*
X0103950Y0068607D02*
X0109680Y0068607D01*
X0109680Y0068783D02*
X0103950Y0068783D01*
X0103950Y0068959D02*
X0109680Y0068959D01*
X0109680Y0069135D02*
X0103950Y0069135D01*
X0103950Y0069311D02*
X0109680Y0069311D01*
X0109680Y0069487D02*
X0103950Y0069487D01*
X0103950Y0069663D02*
X0109680Y0069663D01*
X0109680Y0069839D02*
X0103950Y0069839D01*
X0103950Y0070015D02*
X0109680Y0070015D01*
X0109680Y0070191D02*
X0103950Y0070191D01*
X0103950Y0070367D02*
X0109680Y0070367D01*
X0109680Y0070543D02*
X0103950Y0070543D01*
X0103950Y0070719D02*
X0109680Y0070719D01*
X0109680Y0070895D02*
X0103950Y0070895D01*
X0103950Y0071071D02*
X0109680Y0071071D01*
X0109680Y0071247D02*
X0103950Y0071247D01*
X0103950Y0071423D02*
X0109680Y0071423D01*
X0109680Y0071599D02*
X0103950Y0071599D01*
X0103950Y0071775D02*
X0109680Y0071775D01*
X0109680Y0071951D02*
X0103950Y0071951D01*
X0103950Y0072127D02*
X0109680Y0072127D01*
X0109680Y0072303D02*
X0103950Y0072303D01*
X0103950Y0072479D02*
X0109680Y0072479D01*
X0109680Y0072655D02*
X0103950Y0072655D01*
X0103950Y0072831D02*
X0109680Y0072831D01*
X0109680Y0073007D02*
X0103950Y0073007D01*
X0103950Y0073183D02*
X0109680Y0073183D01*
X0109680Y0073359D02*
X0103950Y0073359D01*
X0103950Y0073535D02*
X0109680Y0073535D01*
X0109680Y0073711D02*
X0103950Y0073711D01*
X0103950Y0087588D02*
X0109680Y0087588D01*
X0109680Y0081858D01*
X0103950Y0081858D01*
X0103950Y0087588D01*
X0103950Y0082034D02*
X0109680Y0082034D01*
X0109680Y0082210D02*
X0103950Y0082210D01*
X0103950Y0082386D02*
X0109680Y0082386D01*
X0109680Y0082562D02*
X0103950Y0082562D01*
X0103950Y0082738D02*
X0109680Y0082738D01*
X0109680Y0082914D02*
X0103950Y0082914D01*
X0103950Y0083090D02*
X0109680Y0083090D01*
X0109680Y0083266D02*
X0103950Y0083266D01*
X0103950Y0083442D02*
X0109680Y0083442D01*
X0109680Y0083618D02*
X0103950Y0083618D01*
X0103950Y0083794D02*
X0109680Y0083794D01*
X0109680Y0083970D02*
X0103950Y0083970D01*
X0103950Y0084146D02*
X0109680Y0084146D01*
X0109680Y0084322D02*
X0103950Y0084322D01*
X0103950Y0084498D02*
X0109680Y0084498D01*
X0109680Y0084674D02*
X0103950Y0084674D01*
X0103950Y0084850D02*
X0109680Y0084850D01*
X0109680Y0085026D02*
X0103950Y0085026D01*
X0103950Y0085202D02*
X0109680Y0085202D01*
X0109680Y0085378D02*
X0103950Y0085378D01*
X0103950Y0085554D02*
X0109680Y0085554D01*
X0109680Y0085730D02*
X0103950Y0085730D01*
X0103950Y0085906D02*
X0109680Y0085906D01*
X0109680Y0086082D02*
X0103950Y0086082D01*
X0103950Y0086258D02*
X0109680Y0086258D01*
X0109680Y0086434D02*
X0103950Y0086434D01*
X0103950Y0086610D02*
X0109680Y0086610D01*
X0109680Y0086786D02*
X0103950Y0086786D01*
X0103950Y0086962D02*
X0109680Y0086962D01*
X0109680Y0087138D02*
X0103950Y0087138D01*
X0103950Y0087314D02*
X0109680Y0087314D01*
X0109680Y0087490D02*
X0103950Y0087490D01*
X0103950Y0101368D02*
X0109680Y0101368D01*
X0109680Y0095638D01*
X0103950Y0095638D01*
X0103950Y0101368D01*
X0103950Y0095814D02*
X0109680Y0095814D01*
X0109680Y0095990D02*
X0103950Y0095990D01*
X0103950Y0096166D02*
X0109680Y0096166D01*
X0109680Y0096342D02*
X0103950Y0096342D01*
X0103950Y0096518D02*
X0109680Y0096518D01*
X0109680Y0096694D02*
X0103950Y0096694D01*
X0103950Y0096870D02*
X0109680Y0096870D01*
X0109680Y0097046D02*
X0103950Y0097046D01*
X0103950Y0097222D02*
X0109680Y0097222D01*
X0109680Y0097398D02*
X0103950Y0097398D01*
X0103950Y0097574D02*
X0109680Y0097574D01*
X0109680Y0097750D02*
X0103950Y0097750D01*
X0103950Y0097926D02*
X0109680Y0097926D01*
X0109680Y0098102D02*
X0103950Y0098102D01*
X0103950Y0098278D02*
X0109680Y0098278D01*
X0109680Y0098454D02*
X0103950Y0098454D01*
X0103950Y0098630D02*
X0109680Y0098630D01*
X0109680Y0098806D02*
X0103950Y0098806D01*
X0103950Y0098982D02*
X0109680Y0098982D01*
X0109680Y0099158D02*
X0103950Y0099158D01*
X0103950Y0099334D02*
X0109680Y0099334D01*
X0109680Y0099510D02*
X0103950Y0099510D01*
X0103950Y0099686D02*
X0109680Y0099686D01*
X0109680Y0099862D02*
X0103950Y0099862D01*
X0103950Y0100038D02*
X0109680Y0100038D01*
X0109680Y0100214D02*
X0103950Y0100214D01*
X0103950Y0100390D02*
X0109680Y0100390D01*
X0109680Y0100566D02*
X0103950Y0100566D01*
X0103950Y0100742D02*
X0109680Y0100742D01*
X0109680Y0100918D02*
X0103950Y0100918D01*
X0103950Y0101094D02*
X0109680Y0101094D01*
X0109680Y0101270D02*
X0103950Y0101270D01*
X0117729Y0101368D02*
X0123459Y0101368D01*
X0123459Y0095638D01*
X0117729Y0095638D01*
X0117729Y0101368D01*
X0117729Y0095814D02*
X0123459Y0095814D01*
X0123459Y0095990D02*
X0117729Y0095990D01*
X0117729Y0096166D02*
X0123459Y0096166D01*
X0123459Y0096342D02*
X0117729Y0096342D01*
X0117729Y0096518D02*
X0123459Y0096518D01*
X0123459Y0096694D02*
X0117729Y0096694D01*
X0117729Y0096870D02*
X0123459Y0096870D01*
X0123459Y0097046D02*
X0117729Y0097046D01*
X0117729Y0097222D02*
X0123459Y0097222D01*
X0123459Y0097398D02*
X0117729Y0097398D01*
X0117729Y0097574D02*
X0123459Y0097574D01*
X0123459Y0097750D02*
X0117729Y0097750D01*
X0117729Y0097926D02*
X0123459Y0097926D01*
X0123459Y0098102D02*
X0117729Y0098102D01*
X0117729Y0098278D02*
X0123459Y0098278D01*
X0123459Y0098454D02*
X0117729Y0098454D01*
X0117729Y0098630D02*
X0123459Y0098630D01*
X0123459Y0098806D02*
X0117729Y0098806D01*
X0117729Y0098982D02*
X0123459Y0098982D01*
X0123459Y0099158D02*
X0117729Y0099158D01*
X0117729Y0099334D02*
X0123459Y0099334D01*
X0123459Y0099510D02*
X0117729Y0099510D01*
X0117729Y0099686D02*
X0123459Y0099686D01*
X0123459Y0099862D02*
X0117729Y0099862D01*
X0117729Y0100038D02*
X0123459Y0100038D01*
X0123459Y0100214D02*
X0117729Y0100214D01*
X0117729Y0100390D02*
X0123459Y0100390D01*
X0123459Y0100566D02*
X0117729Y0100566D01*
X0117729Y0100742D02*
X0123459Y0100742D01*
X0123459Y0100918D02*
X0117729Y0100918D01*
X0117729Y0101094D02*
X0123459Y0101094D01*
X0123459Y0101270D02*
X0117729Y0101270D01*
X0117729Y0087588D02*
X0123459Y0087588D01*
X0123459Y0081858D01*
X0117729Y0081858D01*
X0117729Y0087588D01*
X0117729Y0082034D02*
X0123459Y0082034D01*
X0123459Y0082210D02*
X0117729Y0082210D01*
X0117729Y0082386D02*
X0123459Y0082386D01*
X0123459Y0082562D02*
X0117729Y0082562D01*
X0117729Y0082738D02*
X0123459Y0082738D01*
X0123459Y0082914D02*
X0117729Y0082914D01*
X0117729Y0083090D02*
X0123459Y0083090D01*
X0123459Y0083266D02*
X0117729Y0083266D01*
X0117729Y0083442D02*
X0123459Y0083442D01*
X0123459Y0083618D02*
X0117729Y0083618D01*
X0117729Y0083794D02*
X0123459Y0083794D01*
X0123459Y0083970D02*
X0117729Y0083970D01*
X0117729Y0084146D02*
X0123459Y0084146D01*
X0123459Y0084322D02*
X0117729Y0084322D01*
X0117729Y0084498D02*
X0123459Y0084498D01*
X0123459Y0084674D02*
X0117729Y0084674D01*
X0117729Y0084850D02*
X0123459Y0084850D01*
X0123459Y0085026D02*
X0117729Y0085026D01*
X0117729Y0085202D02*
X0123459Y0085202D01*
X0123459Y0085378D02*
X0117729Y0085378D01*
X0117729Y0085554D02*
X0123459Y0085554D01*
X0123459Y0085730D02*
X0117729Y0085730D01*
X0117729Y0085906D02*
X0123459Y0085906D01*
X0123459Y0086082D02*
X0117729Y0086082D01*
X0117729Y0086258D02*
X0123459Y0086258D01*
X0123459Y0086434D02*
X0117729Y0086434D01*
X0117729Y0086610D02*
X0123459Y0086610D01*
X0123459Y0086786D02*
X0117729Y0086786D01*
X0117729Y0086962D02*
X0123459Y0086962D01*
X0123459Y0087138D02*
X0117729Y0087138D01*
X0117729Y0087314D02*
X0123459Y0087314D01*
X0123459Y0087490D02*
X0117729Y0087490D01*
X0117729Y0073809D02*
X0123459Y0073809D01*
X0123459Y0068079D01*
X0117729Y0068079D01*
X0117729Y0073809D01*
X0117729Y0068255D02*
X0123459Y0068255D01*
X0123459Y0068431D02*
X0117729Y0068431D01*
X0117729Y0068607D02*
X0123459Y0068607D01*
X0123459Y0068783D02*
X0117729Y0068783D01*
X0117729Y0068959D02*
X0123459Y0068959D01*
X0123459Y0069135D02*
X0117729Y0069135D01*
X0117729Y0069311D02*
X0123459Y0069311D01*
X0123459Y0069487D02*
X0117729Y0069487D01*
X0117729Y0069663D02*
X0123459Y0069663D01*
X0123459Y0069839D02*
X0117729Y0069839D01*
X0117729Y0070015D02*
X0123459Y0070015D01*
X0123459Y0070191D02*
X0117729Y0070191D01*
X0117729Y0070367D02*
X0123459Y0070367D01*
X0123459Y0070543D02*
X0117729Y0070543D01*
X0117729Y0070719D02*
X0123459Y0070719D01*
X0123459Y0070895D02*
X0117729Y0070895D01*
X0117729Y0071071D02*
X0123459Y0071071D01*
X0123459Y0071247D02*
X0117729Y0071247D01*
X0117729Y0071423D02*
X0123459Y0071423D01*
X0123459Y0071599D02*
X0117729Y0071599D01*
X0117729Y0071775D02*
X0123459Y0071775D01*
X0123459Y0071951D02*
X0117729Y0071951D01*
X0117729Y0072127D02*
X0123459Y0072127D01*
X0123459Y0072303D02*
X0117729Y0072303D01*
X0117729Y0072479D02*
X0123459Y0072479D01*
X0123459Y0072655D02*
X0117729Y0072655D01*
X0117729Y0072831D02*
X0123459Y0072831D01*
X0123459Y0073007D02*
X0117729Y0073007D01*
X0117729Y0073183D02*
X0123459Y0073183D01*
X0123459Y0073359D02*
X0117729Y0073359D01*
X0117729Y0073535D02*
X0123459Y0073535D01*
X0123459Y0073711D02*
X0117729Y0073711D01*
D14*
X0160619Y0103586D02*
X0160619Y0105978D01*
X0160619Y0103586D02*
X0152827Y0103586D01*
X0152827Y0105978D01*
X0160619Y0105978D01*
X0160619Y0103793D02*
X0152827Y0103793D01*
X0152827Y0104000D02*
X0160619Y0104000D01*
X0160619Y0104207D02*
X0152827Y0104207D01*
X0152827Y0104414D02*
X0160619Y0104414D01*
X0160619Y0104621D02*
X0152827Y0104621D01*
X0152827Y0104828D02*
X0160619Y0104828D01*
X0160619Y0105035D02*
X0152827Y0105035D01*
X0152827Y0105242D02*
X0160619Y0105242D01*
X0160619Y0105449D02*
X0152827Y0105449D01*
X0152827Y0105656D02*
X0160619Y0105656D01*
X0160619Y0105863D02*
X0152827Y0105863D01*
X0160619Y0108586D02*
X0160619Y0110978D01*
X0160619Y0108586D02*
X0152827Y0108586D01*
X0152827Y0110978D01*
X0160619Y0110978D01*
X0160619Y0108793D02*
X0152827Y0108793D01*
X0152827Y0109000D02*
X0160619Y0109000D01*
X0160619Y0109207D02*
X0152827Y0109207D01*
X0152827Y0109414D02*
X0160619Y0109414D01*
X0160619Y0109621D02*
X0152827Y0109621D01*
X0152827Y0109828D02*
X0160619Y0109828D01*
X0160619Y0110035D02*
X0152827Y0110035D01*
X0152827Y0110242D02*
X0160619Y0110242D01*
X0160619Y0110449D02*
X0152827Y0110449D01*
X0152827Y0110656D02*
X0160619Y0110656D01*
X0160619Y0110863D02*
X0152827Y0110863D01*
X0160619Y0113586D02*
X0160619Y0115978D01*
X0160619Y0113586D02*
X0152827Y0113586D01*
X0152827Y0115978D01*
X0160619Y0115978D01*
X0160619Y0113793D02*
X0152827Y0113793D01*
X0152827Y0114000D02*
X0160619Y0114000D01*
X0160619Y0114207D02*
X0152827Y0114207D01*
X0152827Y0114414D02*
X0160619Y0114414D01*
X0160619Y0114621D02*
X0152827Y0114621D01*
X0152827Y0114828D02*
X0160619Y0114828D01*
X0160619Y0115035D02*
X0152827Y0115035D01*
X0152827Y0115242D02*
X0160619Y0115242D01*
X0160619Y0115449D02*
X0152827Y0115449D01*
X0152827Y0115656D02*
X0160619Y0115656D01*
X0160619Y0115863D02*
X0152827Y0115863D01*
X0160619Y0118586D02*
X0160619Y0120978D01*
X0160619Y0118586D02*
X0152827Y0118586D01*
X0152827Y0120978D01*
X0160619Y0120978D01*
X0160619Y0118793D02*
X0152827Y0118793D01*
X0152827Y0119000D02*
X0160619Y0119000D01*
X0160619Y0119207D02*
X0152827Y0119207D01*
X0152827Y0119414D02*
X0160619Y0119414D01*
X0160619Y0119621D02*
X0152827Y0119621D01*
X0152827Y0119828D02*
X0160619Y0119828D01*
X0160619Y0120035D02*
X0152827Y0120035D01*
X0152827Y0120242D02*
X0160619Y0120242D01*
X0160619Y0120449D02*
X0152827Y0120449D01*
X0152827Y0120656D02*
X0160619Y0120656D01*
X0160619Y0120863D02*
X0152827Y0120863D01*
X0184819Y0120978D02*
X0184819Y0118586D01*
X0177027Y0118586D01*
X0177027Y0120978D01*
X0184819Y0120978D01*
X0184819Y0118793D02*
X0177027Y0118793D01*
X0177027Y0119000D02*
X0184819Y0119000D01*
X0184819Y0119207D02*
X0177027Y0119207D01*
X0177027Y0119414D02*
X0184819Y0119414D01*
X0184819Y0119621D02*
X0177027Y0119621D01*
X0177027Y0119828D02*
X0184819Y0119828D01*
X0184819Y0120035D02*
X0177027Y0120035D01*
X0177027Y0120242D02*
X0184819Y0120242D01*
X0184819Y0120449D02*
X0177027Y0120449D01*
X0177027Y0120656D02*
X0184819Y0120656D01*
X0184819Y0120863D02*
X0177027Y0120863D01*
X0184819Y0115978D02*
X0184819Y0113586D01*
X0177027Y0113586D01*
X0177027Y0115978D01*
X0184819Y0115978D01*
X0184819Y0113793D02*
X0177027Y0113793D01*
X0177027Y0114000D02*
X0184819Y0114000D01*
X0184819Y0114207D02*
X0177027Y0114207D01*
X0177027Y0114414D02*
X0184819Y0114414D01*
X0184819Y0114621D02*
X0177027Y0114621D01*
X0177027Y0114828D02*
X0184819Y0114828D01*
X0184819Y0115035D02*
X0177027Y0115035D01*
X0177027Y0115242D02*
X0184819Y0115242D01*
X0184819Y0115449D02*
X0177027Y0115449D01*
X0177027Y0115656D02*
X0184819Y0115656D01*
X0184819Y0115863D02*
X0177027Y0115863D01*
X0184819Y0110978D02*
X0184819Y0108586D01*
X0177027Y0108586D01*
X0177027Y0110978D01*
X0184819Y0110978D01*
X0184819Y0108793D02*
X0177027Y0108793D01*
X0177027Y0109000D02*
X0184819Y0109000D01*
X0184819Y0109207D02*
X0177027Y0109207D01*
X0177027Y0109414D02*
X0184819Y0109414D01*
X0184819Y0109621D02*
X0177027Y0109621D01*
X0177027Y0109828D02*
X0184819Y0109828D01*
X0184819Y0110035D02*
X0177027Y0110035D01*
X0177027Y0110242D02*
X0184819Y0110242D01*
X0184819Y0110449D02*
X0177027Y0110449D01*
X0177027Y0110656D02*
X0184819Y0110656D01*
X0184819Y0110863D02*
X0177027Y0110863D01*
X0184819Y0105978D02*
X0184819Y0103586D01*
X0177027Y0103586D01*
X0177027Y0105978D01*
X0184819Y0105978D01*
X0184819Y0103793D02*
X0177027Y0103793D01*
X0177027Y0104000D02*
X0184819Y0104000D01*
X0184819Y0104207D02*
X0177027Y0104207D01*
X0177027Y0104414D02*
X0184819Y0104414D01*
X0184819Y0104621D02*
X0177027Y0104621D01*
X0177027Y0104828D02*
X0184819Y0104828D01*
X0184819Y0105035D02*
X0177027Y0105035D01*
X0177027Y0105242D02*
X0184819Y0105242D01*
X0184819Y0105449D02*
X0177027Y0105449D01*
X0177027Y0105656D02*
X0184819Y0105656D01*
X0184819Y0105863D02*
X0177027Y0105863D01*
D15*
X0157122Y0157483D02*
X0157122Y0161569D01*
X0164808Y0161569D01*
X0164808Y0157483D01*
X0157122Y0157483D01*
X0157122Y0157697D02*
X0164808Y0157697D01*
X0164808Y0157911D02*
X0157122Y0157911D01*
X0157122Y0158125D02*
X0164808Y0158125D01*
X0164808Y0158339D02*
X0157122Y0158339D01*
X0157122Y0158553D02*
X0164808Y0158553D01*
X0164808Y0158767D02*
X0157122Y0158767D01*
X0157122Y0158981D02*
X0164808Y0158981D01*
X0164808Y0159195D02*
X0157122Y0159195D01*
X0157122Y0159409D02*
X0164808Y0159409D01*
X0164808Y0159623D02*
X0157122Y0159623D01*
X0157122Y0159837D02*
X0164808Y0159837D01*
X0164808Y0160051D02*
X0157122Y0160051D01*
X0157122Y0160265D02*
X0164808Y0160265D01*
X0164808Y0160479D02*
X0157122Y0160479D01*
X0157122Y0160693D02*
X0164808Y0160693D01*
X0164808Y0160907D02*
X0157122Y0160907D01*
X0157122Y0161121D02*
X0164808Y0161121D01*
X0164808Y0161335D02*
X0157122Y0161335D01*
X0157122Y0161549D02*
X0164808Y0161549D01*
X0192522Y0161569D02*
X0192522Y0157483D01*
X0192522Y0161569D02*
X0200208Y0161569D01*
X0200208Y0157483D01*
X0192522Y0157483D01*
X0192522Y0157697D02*
X0200208Y0157697D01*
X0200208Y0157911D02*
X0192522Y0157911D01*
X0192522Y0158125D02*
X0200208Y0158125D01*
X0200208Y0158339D02*
X0192522Y0158339D01*
X0192522Y0158553D02*
X0200208Y0158553D01*
X0200208Y0158767D02*
X0192522Y0158767D01*
X0192522Y0158981D02*
X0200208Y0158981D01*
X0200208Y0159195D02*
X0192522Y0159195D01*
X0192522Y0159409D02*
X0200208Y0159409D01*
X0200208Y0159623D02*
X0192522Y0159623D01*
X0192522Y0159837D02*
X0200208Y0159837D01*
X0200208Y0160051D02*
X0192522Y0160051D01*
X0192522Y0160265D02*
X0200208Y0160265D01*
X0200208Y0160479D02*
X0192522Y0160479D01*
X0192522Y0160693D02*
X0200208Y0160693D01*
X0200208Y0160907D02*
X0192522Y0160907D01*
X0192522Y0161121D02*
X0200208Y0161121D01*
X0200208Y0161335D02*
X0192522Y0161335D01*
X0192522Y0161549D02*
X0200208Y0161549D01*
M02*
