G75*
%MOIN*%
%OFA0B0*%
%FSLAX25Y25*%
%IPPOS*%
%LPD*%
%AMOC8*
5,1,8,0,0,1.08239X$1,22.5*
%
%ADD10C,0.00000*%
%ADD11C,0.00237*%
%ADD12C,0.08400*%
%ADD13C,0.00268*%
%ADD14OC8,0.07400*%
%ADD15OC8,0.06000*%
%ADD16C,0.05556*%
%ADD17C,0.00340*%
%ADD18C,0.00232*%
%ADD19C,0.06343*%
%ADD20C,0.09855*%
%ADD21OC8,0.07000*%
%ADD22C,0.07000*%
%ADD23C,0.00236*%
%ADD24C,0.03384*%
D10*
X0001500Y0057164D02*
X0001500Y0175274D01*
X0257406Y0175274D01*
X0257406Y0057164D01*
X0001500Y0057164D01*
X0222956Y0088503D02*
X0222958Y0088637D01*
X0222964Y0088771D01*
X0222974Y0088905D01*
X0222988Y0089039D01*
X0223006Y0089172D01*
X0223027Y0089304D01*
X0223053Y0089436D01*
X0223083Y0089567D01*
X0223116Y0089697D01*
X0223153Y0089825D01*
X0223195Y0089953D01*
X0223239Y0090080D01*
X0223288Y0090205D01*
X0223340Y0090328D01*
X0223396Y0090450D01*
X0223456Y0090571D01*
X0223519Y0090689D01*
X0223585Y0090806D01*
X0223655Y0090920D01*
X0223728Y0091033D01*
X0223805Y0091143D01*
X0223885Y0091251D01*
X0223968Y0091356D01*
X0224054Y0091459D01*
X0224143Y0091559D01*
X0224235Y0091657D01*
X0224330Y0091752D01*
X0224428Y0091844D01*
X0224528Y0091933D01*
X0224631Y0092019D01*
X0224736Y0092102D01*
X0224844Y0092182D01*
X0224954Y0092259D01*
X0225067Y0092332D01*
X0225181Y0092402D01*
X0225298Y0092468D01*
X0225416Y0092531D01*
X0225537Y0092591D01*
X0225659Y0092647D01*
X0225782Y0092699D01*
X0225907Y0092748D01*
X0226034Y0092792D01*
X0226162Y0092834D01*
X0226290Y0092871D01*
X0226420Y0092904D01*
X0226551Y0092934D01*
X0226683Y0092960D01*
X0226815Y0092981D01*
X0226948Y0092999D01*
X0227082Y0093013D01*
X0227216Y0093023D01*
X0227350Y0093029D01*
X0227484Y0093031D01*
X0227618Y0093029D01*
X0227752Y0093023D01*
X0227886Y0093013D01*
X0228020Y0092999D01*
X0228153Y0092981D01*
X0228285Y0092960D01*
X0228417Y0092934D01*
X0228548Y0092904D01*
X0228678Y0092871D01*
X0228806Y0092834D01*
X0228934Y0092792D01*
X0229061Y0092748D01*
X0229186Y0092699D01*
X0229309Y0092647D01*
X0229431Y0092591D01*
X0229552Y0092531D01*
X0229670Y0092468D01*
X0229787Y0092402D01*
X0229901Y0092332D01*
X0230014Y0092259D01*
X0230124Y0092182D01*
X0230232Y0092102D01*
X0230337Y0092019D01*
X0230440Y0091933D01*
X0230540Y0091844D01*
X0230638Y0091752D01*
X0230733Y0091657D01*
X0230825Y0091559D01*
X0230914Y0091459D01*
X0231000Y0091356D01*
X0231083Y0091251D01*
X0231163Y0091143D01*
X0231240Y0091033D01*
X0231313Y0090920D01*
X0231383Y0090806D01*
X0231449Y0090689D01*
X0231512Y0090571D01*
X0231572Y0090450D01*
X0231628Y0090328D01*
X0231680Y0090205D01*
X0231729Y0090080D01*
X0231773Y0089953D01*
X0231815Y0089825D01*
X0231852Y0089697D01*
X0231885Y0089567D01*
X0231915Y0089436D01*
X0231941Y0089304D01*
X0231962Y0089172D01*
X0231980Y0089039D01*
X0231994Y0088905D01*
X0232004Y0088771D01*
X0232010Y0088637D01*
X0232012Y0088503D01*
X0232010Y0088369D01*
X0232004Y0088235D01*
X0231994Y0088101D01*
X0231980Y0087967D01*
X0231962Y0087834D01*
X0231941Y0087702D01*
X0231915Y0087570D01*
X0231885Y0087439D01*
X0231852Y0087309D01*
X0231815Y0087181D01*
X0231773Y0087053D01*
X0231729Y0086926D01*
X0231680Y0086801D01*
X0231628Y0086678D01*
X0231572Y0086556D01*
X0231512Y0086435D01*
X0231449Y0086317D01*
X0231383Y0086200D01*
X0231313Y0086086D01*
X0231240Y0085973D01*
X0231163Y0085863D01*
X0231083Y0085755D01*
X0231000Y0085650D01*
X0230914Y0085547D01*
X0230825Y0085447D01*
X0230733Y0085349D01*
X0230638Y0085254D01*
X0230540Y0085162D01*
X0230440Y0085073D01*
X0230337Y0084987D01*
X0230232Y0084904D01*
X0230124Y0084824D01*
X0230014Y0084747D01*
X0229901Y0084674D01*
X0229787Y0084604D01*
X0229670Y0084538D01*
X0229552Y0084475D01*
X0229431Y0084415D01*
X0229309Y0084359D01*
X0229186Y0084307D01*
X0229061Y0084258D01*
X0228934Y0084214D01*
X0228806Y0084172D01*
X0228678Y0084135D01*
X0228548Y0084102D01*
X0228417Y0084072D01*
X0228285Y0084046D01*
X0228153Y0084025D01*
X0228020Y0084007D01*
X0227886Y0083993D01*
X0227752Y0083983D01*
X0227618Y0083977D01*
X0227484Y0083975D01*
X0227350Y0083977D01*
X0227216Y0083983D01*
X0227082Y0083993D01*
X0226948Y0084007D01*
X0226815Y0084025D01*
X0226683Y0084046D01*
X0226551Y0084072D01*
X0226420Y0084102D01*
X0226290Y0084135D01*
X0226162Y0084172D01*
X0226034Y0084214D01*
X0225907Y0084258D01*
X0225782Y0084307D01*
X0225659Y0084359D01*
X0225537Y0084415D01*
X0225416Y0084475D01*
X0225298Y0084538D01*
X0225181Y0084604D01*
X0225067Y0084674D01*
X0224954Y0084747D01*
X0224844Y0084824D01*
X0224736Y0084904D01*
X0224631Y0084987D01*
X0224528Y0085073D01*
X0224428Y0085162D01*
X0224330Y0085254D01*
X0224235Y0085349D01*
X0224143Y0085447D01*
X0224054Y0085547D01*
X0223968Y0085650D01*
X0223885Y0085755D01*
X0223805Y0085863D01*
X0223728Y0085973D01*
X0223655Y0086086D01*
X0223585Y0086200D01*
X0223519Y0086317D01*
X0223456Y0086435D01*
X0223396Y0086556D01*
X0223340Y0086678D01*
X0223288Y0086801D01*
X0223239Y0086926D01*
X0223195Y0087053D01*
X0223153Y0087181D01*
X0223116Y0087309D01*
X0223083Y0087439D01*
X0223053Y0087570D01*
X0223027Y0087702D01*
X0223006Y0087834D01*
X0222988Y0087967D01*
X0222974Y0088101D01*
X0222964Y0088235D01*
X0222958Y0088369D01*
X0222956Y0088503D01*
X0222563Y0139684D02*
X0222565Y0139818D01*
X0222571Y0139952D01*
X0222581Y0140086D01*
X0222595Y0140220D01*
X0222613Y0140353D01*
X0222634Y0140485D01*
X0222660Y0140617D01*
X0222690Y0140748D01*
X0222723Y0140878D01*
X0222760Y0141006D01*
X0222802Y0141134D01*
X0222846Y0141261D01*
X0222895Y0141386D01*
X0222947Y0141509D01*
X0223003Y0141631D01*
X0223063Y0141752D01*
X0223126Y0141870D01*
X0223192Y0141987D01*
X0223262Y0142101D01*
X0223335Y0142214D01*
X0223412Y0142324D01*
X0223492Y0142432D01*
X0223575Y0142537D01*
X0223661Y0142640D01*
X0223750Y0142740D01*
X0223842Y0142838D01*
X0223937Y0142933D01*
X0224035Y0143025D01*
X0224135Y0143114D01*
X0224238Y0143200D01*
X0224343Y0143283D01*
X0224451Y0143363D01*
X0224561Y0143440D01*
X0224674Y0143513D01*
X0224788Y0143583D01*
X0224905Y0143649D01*
X0225023Y0143712D01*
X0225144Y0143772D01*
X0225266Y0143828D01*
X0225389Y0143880D01*
X0225514Y0143929D01*
X0225641Y0143973D01*
X0225769Y0144015D01*
X0225897Y0144052D01*
X0226027Y0144085D01*
X0226158Y0144115D01*
X0226290Y0144141D01*
X0226422Y0144162D01*
X0226555Y0144180D01*
X0226689Y0144194D01*
X0226823Y0144204D01*
X0226957Y0144210D01*
X0227091Y0144212D01*
X0227225Y0144210D01*
X0227359Y0144204D01*
X0227493Y0144194D01*
X0227627Y0144180D01*
X0227760Y0144162D01*
X0227892Y0144141D01*
X0228024Y0144115D01*
X0228155Y0144085D01*
X0228285Y0144052D01*
X0228413Y0144015D01*
X0228541Y0143973D01*
X0228668Y0143929D01*
X0228793Y0143880D01*
X0228916Y0143828D01*
X0229038Y0143772D01*
X0229159Y0143712D01*
X0229277Y0143649D01*
X0229394Y0143583D01*
X0229508Y0143513D01*
X0229621Y0143440D01*
X0229731Y0143363D01*
X0229839Y0143283D01*
X0229944Y0143200D01*
X0230047Y0143114D01*
X0230147Y0143025D01*
X0230245Y0142933D01*
X0230340Y0142838D01*
X0230432Y0142740D01*
X0230521Y0142640D01*
X0230607Y0142537D01*
X0230690Y0142432D01*
X0230770Y0142324D01*
X0230847Y0142214D01*
X0230920Y0142101D01*
X0230990Y0141987D01*
X0231056Y0141870D01*
X0231119Y0141752D01*
X0231179Y0141631D01*
X0231235Y0141509D01*
X0231287Y0141386D01*
X0231336Y0141261D01*
X0231380Y0141134D01*
X0231422Y0141006D01*
X0231459Y0140878D01*
X0231492Y0140748D01*
X0231522Y0140617D01*
X0231548Y0140485D01*
X0231569Y0140353D01*
X0231587Y0140220D01*
X0231601Y0140086D01*
X0231611Y0139952D01*
X0231617Y0139818D01*
X0231619Y0139684D01*
X0231617Y0139550D01*
X0231611Y0139416D01*
X0231601Y0139282D01*
X0231587Y0139148D01*
X0231569Y0139015D01*
X0231548Y0138883D01*
X0231522Y0138751D01*
X0231492Y0138620D01*
X0231459Y0138490D01*
X0231422Y0138362D01*
X0231380Y0138234D01*
X0231336Y0138107D01*
X0231287Y0137982D01*
X0231235Y0137859D01*
X0231179Y0137737D01*
X0231119Y0137616D01*
X0231056Y0137498D01*
X0230990Y0137381D01*
X0230920Y0137267D01*
X0230847Y0137154D01*
X0230770Y0137044D01*
X0230690Y0136936D01*
X0230607Y0136831D01*
X0230521Y0136728D01*
X0230432Y0136628D01*
X0230340Y0136530D01*
X0230245Y0136435D01*
X0230147Y0136343D01*
X0230047Y0136254D01*
X0229944Y0136168D01*
X0229839Y0136085D01*
X0229731Y0136005D01*
X0229621Y0135928D01*
X0229508Y0135855D01*
X0229394Y0135785D01*
X0229277Y0135719D01*
X0229159Y0135656D01*
X0229038Y0135596D01*
X0228916Y0135540D01*
X0228793Y0135488D01*
X0228668Y0135439D01*
X0228541Y0135395D01*
X0228413Y0135353D01*
X0228285Y0135316D01*
X0228155Y0135283D01*
X0228024Y0135253D01*
X0227892Y0135227D01*
X0227760Y0135206D01*
X0227627Y0135188D01*
X0227493Y0135174D01*
X0227359Y0135164D01*
X0227225Y0135158D01*
X0227091Y0135156D01*
X0226957Y0135158D01*
X0226823Y0135164D01*
X0226689Y0135174D01*
X0226555Y0135188D01*
X0226422Y0135206D01*
X0226290Y0135227D01*
X0226158Y0135253D01*
X0226027Y0135283D01*
X0225897Y0135316D01*
X0225769Y0135353D01*
X0225641Y0135395D01*
X0225514Y0135439D01*
X0225389Y0135488D01*
X0225266Y0135540D01*
X0225144Y0135596D01*
X0225023Y0135656D01*
X0224905Y0135719D01*
X0224788Y0135785D01*
X0224674Y0135855D01*
X0224561Y0135928D01*
X0224451Y0136005D01*
X0224343Y0136085D01*
X0224238Y0136168D01*
X0224135Y0136254D01*
X0224035Y0136343D01*
X0223937Y0136435D01*
X0223842Y0136530D01*
X0223750Y0136628D01*
X0223661Y0136728D01*
X0223575Y0136831D01*
X0223492Y0136936D01*
X0223412Y0137044D01*
X0223335Y0137154D01*
X0223262Y0137267D01*
X0223192Y0137381D01*
X0223126Y0137498D01*
X0223063Y0137616D01*
X0223003Y0137737D01*
X0222947Y0137859D01*
X0222895Y0137982D01*
X0222846Y0138107D01*
X0222802Y0138234D01*
X0222760Y0138362D01*
X0222723Y0138490D01*
X0222690Y0138620D01*
X0222660Y0138751D01*
X0222634Y0138883D01*
X0222613Y0139015D01*
X0222595Y0139148D01*
X0222581Y0139282D01*
X0222571Y0139416D01*
X0222565Y0139550D01*
X0222563Y0139684D01*
D11*
X0212871Y0137276D02*
X0212871Y0142958D01*
X0219341Y0142958D01*
X0219341Y0137276D01*
X0212871Y0137276D01*
X0212871Y0137512D02*
X0219341Y0137512D01*
X0219341Y0137748D02*
X0212871Y0137748D01*
X0212871Y0137984D02*
X0219341Y0137984D01*
X0219341Y0138220D02*
X0212871Y0138220D01*
X0212871Y0138456D02*
X0219341Y0138456D01*
X0219341Y0138692D02*
X0212871Y0138692D01*
X0212871Y0138928D02*
X0219341Y0138928D01*
X0219341Y0139164D02*
X0212871Y0139164D01*
X0212871Y0139400D02*
X0219341Y0139400D01*
X0219341Y0139636D02*
X0212871Y0139636D01*
X0212871Y0139872D02*
X0219341Y0139872D01*
X0219341Y0140108D02*
X0212871Y0140108D01*
X0212871Y0140344D02*
X0219341Y0140344D01*
X0219341Y0140580D02*
X0212871Y0140580D01*
X0212871Y0140816D02*
X0219341Y0140816D01*
X0219341Y0141052D02*
X0212871Y0141052D01*
X0212871Y0141288D02*
X0219341Y0141288D01*
X0219341Y0141524D02*
X0212871Y0141524D01*
X0212871Y0141760D02*
X0219341Y0141760D01*
X0219341Y0141996D02*
X0212871Y0141996D01*
X0212871Y0142232D02*
X0219341Y0142232D01*
X0219341Y0142468D02*
X0212871Y0142468D01*
X0212871Y0142704D02*
X0219341Y0142704D01*
X0219341Y0142940D02*
X0212871Y0142940D01*
X0212871Y0144756D02*
X0212871Y0150438D01*
X0219341Y0150438D01*
X0219341Y0144756D01*
X0212871Y0144756D01*
X0212871Y0144992D02*
X0219341Y0144992D01*
X0219341Y0145228D02*
X0212871Y0145228D01*
X0212871Y0145464D02*
X0219341Y0145464D01*
X0219341Y0145700D02*
X0212871Y0145700D01*
X0212871Y0145936D02*
X0219341Y0145936D01*
X0219341Y0146172D02*
X0212871Y0146172D01*
X0212871Y0146408D02*
X0219341Y0146408D01*
X0219341Y0146644D02*
X0212871Y0146644D01*
X0212871Y0146880D02*
X0219341Y0146880D01*
X0219341Y0147116D02*
X0212871Y0147116D01*
X0212871Y0147352D02*
X0219341Y0147352D01*
X0219341Y0147588D02*
X0212871Y0147588D01*
X0212871Y0147824D02*
X0219341Y0147824D01*
X0219341Y0148060D02*
X0212871Y0148060D01*
X0212871Y0148296D02*
X0219341Y0148296D01*
X0219341Y0148532D02*
X0212871Y0148532D01*
X0212871Y0148768D02*
X0219341Y0148768D01*
X0219341Y0149004D02*
X0212871Y0149004D01*
X0212871Y0149240D02*
X0219341Y0149240D01*
X0219341Y0149476D02*
X0212871Y0149476D01*
X0212871Y0149712D02*
X0219341Y0149712D01*
X0219341Y0149948D02*
X0212871Y0149948D01*
X0212871Y0150184D02*
X0219341Y0150184D01*
X0219341Y0150420D02*
X0212871Y0150420D01*
X0212871Y0130753D02*
X0212871Y0125071D01*
X0212871Y0130753D02*
X0219341Y0130753D01*
X0219341Y0125071D01*
X0212871Y0125071D01*
X0212871Y0125307D02*
X0219341Y0125307D01*
X0219341Y0125543D02*
X0212871Y0125543D01*
X0212871Y0125779D02*
X0219341Y0125779D01*
X0219341Y0126015D02*
X0212871Y0126015D01*
X0212871Y0126251D02*
X0219341Y0126251D01*
X0219341Y0126487D02*
X0212871Y0126487D01*
X0212871Y0126723D02*
X0219341Y0126723D01*
X0219341Y0126959D02*
X0212871Y0126959D01*
X0212871Y0127195D02*
X0219341Y0127195D01*
X0219341Y0127431D02*
X0212871Y0127431D01*
X0212871Y0127667D02*
X0219341Y0127667D01*
X0219341Y0127903D02*
X0212871Y0127903D01*
X0212871Y0128139D02*
X0219341Y0128139D01*
X0219341Y0128375D02*
X0212871Y0128375D01*
X0212871Y0128611D02*
X0219341Y0128611D01*
X0219341Y0128847D02*
X0212871Y0128847D01*
X0212871Y0129083D02*
X0219341Y0129083D01*
X0219341Y0129319D02*
X0212871Y0129319D01*
X0212871Y0129555D02*
X0219341Y0129555D01*
X0219341Y0129791D02*
X0212871Y0129791D01*
X0212871Y0130027D02*
X0219341Y0130027D01*
X0219341Y0130263D02*
X0212871Y0130263D01*
X0212871Y0130499D02*
X0219341Y0130499D01*
X0219341Y0130735D02*
X0212871Y0130735D01*
X0212871Y0123273D02*
X0212871Y0117591D01*
X0212871Y0123273D02*
X0219341Y0123273D01*
X0219341Y0117591D01*
X0212871Y0117591D01*
X0212871Y0117827D02*
X0219341Y0117827D01*
X0219341Y0118063D02*
X0212871Y0118063D01*
X0212871Y0118299D02*
X0219341Y0118299D01*
X0219341Y0118535D02*
X0212871Y0118535D01*
X0212871Y0118771D02*
X0219341Y0118771D01*
X0219341Y0119007D02*
X0212871Y0119007D01*
X0212871Y0119243D02*
X0219341Y0119243D01*
X0219341Y0119479D02*
X0212871Y0119479D01*
X0212871Y0119715D02*
X0219341Y0119715D01*
X0219341Y0119951D02*
X0212871Y0119951D01*
X0212871Y0120187D02*
X0219341Y0120187D01*
X0219341Y0120423D02*
X0212871Y0120423D01*
X0212871Y0120659D02*
X0219341Y0120659D01*
X0219341Y0120895D02*
X0212871Y0120895D01*
X0212871Y0121131D02*
X0219341Y0121131D01*
X0219341Y0121367D02*
X0212871Y0121367D01*
X0212871Y0121603D02*
X0219341Y0121603D01*
X0219341Y0121839D02*
X0212871Y0121839D01*
X0212871Y0122075D02*
X0219341Y0122075D01*
X0219341Y0122311D02*
X0212871Y0122311D01*
X0212871Y0122547D02*
X0219341Y0122547D01*
X0219341Y0122783D02*
X0212871Y0122783D01*
X0212871Y0123019D02*
X0219341Y0123019D01*
X0219341Y0123255D02*
X0212871Y0123255D01*
X0219341Y0111068D02*
X0219341Y0105386D01*
X0212871Y0105386D01*
X0212871Y0111068D01*
X0219341Y0111068D01*
X0219341Y0105622D02*
X0212871Y0105622D01*
X0212871Y0105858D02*
X0219341Y0105858D01*
X0219341Y0106094D02*
X0212871Y0106094D01*
X0212871Y0106330D02*
X0219341Y0106330D01*
X0219341Y0106566D02*
X0212871Y0106566D01*
X0212871Y0106802D02*
X0219341Y0106802D01*
X0219341Y0107038D02*
X0212871Y0107038D01*
X0212871Y0107274D02*
X0219341Y0107274D01*
X0219341Y0107510D02*
X0212871Y0107510D01*
X0212871Y0107746D02*
X0219341Y0107746D01*
X0219341Y0107982D02*
X0212871Y0107982D01*
X0212871Y0108218D02*
X0219341Y0108218D01*
X0219341Y0108454D02*
X0212871Y0108454D01*
X0212871Y0108690D02*
X0219341Y0108690D01*
X0219341Y0108926D02*
X0212871Y0108926D01*
X0212871Y0109162D02*
X0219341Y0109162D01*
X0219341Y0109398D02*
X0212871Y0109398D01*
X0212871Y0109634D02*
X0219341Y0109634D01*
X0219341Y0109870D02*
X0212871Y0109870D01*
X0212871Y0110106D02*
X0219341Y0110106D01*
X0219341Y0110342D02*
X0212871Y0110342D01*
X0212871Y0110578D02*
X0219341Y0110578D01*
X0219341Y0110814D02*
X0212871Y0110814D01*
X0212871Y0111050D02*
X0219341Y0111050D01*
X0219341Y0103588D02*
X0219341Y0097906D01*
X0212871Y0097906D01*
X0212871Y0103588D01*
X0219341Y0103588D01*
X0219341Y0098142D02*
X0212871Y0098142D01*
X0212871Y0098378D02*
X0219341Y0098378D01*
X0219341Y0098614D02*
X0212871Y0098614D01*
X0212871Y0098850D02*
X0219341Y0098850D01*
X0219341Y0099086D02*
X0212871Y0099086D01*
X0212871Y0099322D02*
X0219341Y0099322D01*
X0219341Y0099558D02*
X0212871Y0099558D01*
X0212871Y0099794D02*
X0219341Y0099794D01*
X0219341Y0100030D02*
X0212871Y0100030D01*
X0212871Y0100266D02*
X0219341Y0100266D01*
X0219341Y0100502D02*
X0212871Y0100502D01*
X0212871Y0100738D02*
X0219341Y0100738D01*
X0219341Y0100974D02*
X0212871Y0100974D01*
X0212871Y0101210D02*
X0219341Y0101210D01*
X0219341Y0101446D02*
X0212871Y0101446D01*
X0212871Y0101682D02*
X0219341Y0101682D01*
X0219341Y0101918D02*
X0212871Y0101918D01*
X0212871Y0102154D02*
X0219341Y0102154D01*
X0219341Y0102390D02*
X0212871Y0102390D01*
X0212871Y0102626D02*
X0219341Y0102626D01*
X0219341Y0102862D02*
X0212871Y0102862D01*
X0212871Y0103098D02*
X0219341Y0103098D01*
X0219341Y0103334D02*
X0212871Y0103334D01*
X0212871Y0103570D02*
X0219341Y0103570D01*
X0219341Y0091383D02*
X0219341Y0085701D01*
X0212871Y0085701D01*
X0212871Y0091383D01*
X0219341Y0091383D01*
X0219341Y0085937D02*
X0212871Y0085937D01*
X0212871Y0086173D02*
X0219341Y0086173D01*
X0219341Y0086409D02*
X0212871Y0086409D01*
X0212871Y0086645D02*
X0219341Y0086645D01*
X0219341Y0086881D02*
X0212871Y0086881D01*
X0212871Y0087117D02*
X0219341Y0087117D01*
X0219341Y0087353D02*
X0212871Y0087353D01*
X0212871Y0087589D02*
X0219341Y0087589D01*
X0219341Y0087825D02*
X0212871Y0087825D01*
X0212871Y0088061D02*
X0219341Y0088061D01*
X0219341Y0088297D02*
X0212871Y0088297D01*
X0212871Y0088533D02*
X0219341Y0088533D01*
X0219341Y0088769D02*
X0212871Y0088769D01*
X0212871Y0089005D02*
X0219341Y0089005D01*
X0219341Y0089241D02*
X0212871Y0089241D01*
X0212871Y0089477D02*
X0219341Y0089477D01*
X0219341Y0089713D02*
X0212871Y0089713D01*
X0212871Y0089949D02*
X0219341Y0089949D01*
X0219341Y0090185D02*
X0212871Y0090185D01*
X0212871Y0090421D02*
X0219341Y0090421D01*
X0219341Y0090657D02*
X0212871Y0090657D01*
X0212871Y0090893D02*
X0219341Y0090893D01*
X0219341Y0091129D02*
X0212871Y0091129D01*
X0212871Y0091365D02*
X0219341Y0091365D01*
X0219341Y0083903D02*
X0219341Y0078221D01*
X0212871Y0078221D01*
X0212871Y0083903D01*
X0219341Y0083903D01*
X0219341Y0078457D02*
X0212871Y0078457D01*
X0212871Y0078693D02*
X0219341Y0078693D01*
X0219341Y0078929D02*
X0212871Y0078929D01*
X0212871Y0079165D02*
X0219341Y0079165D01*
X0219341Y0079401D02*
X0212871Y0079401D01*
X0212871Y0079637D02*
X0219341Y0079637D01*
X0219341Y0079873D02*
X0212871Y0079873D01*
X0212871Y0080109D02*
X0219341Y0080109D01*
X0219341Y0080345D02*
X0212871Y0080345D01*
X0212871Y0080581D02*
X0219341Y0080581D01*
X0219341Y0080817D02*
X0212871Y0080817D01*
X0212871Y0081053D02*
X0219341Y0081053D01*
X0219341Y0081289D02*
X0212871Y0081289D01*
X0212871Y0081525D02*
X0219341Y0081525D01*
X0219341Y0081761D02*
X0212871Y0081761D01*
X0212871Y0081997D02*
X0219341Y0081997D01*
X0219341Y0082233D02*
X0212871Y0082233D01*
X0212871Y0082469D02*
X0219341Y0082469D01*
X0219341Y0082705D02*
X0212871Y0082705D01*
X0212871Y0082941D02*
X0219341Y0082941D01*
X0219341Y0083177D02*
X0212871Y0083177D01*
X0212871Y0083413D02*
X0219341Y0083413D01*
X0219341Y0083649D02*
X0212871Y0083649D01*
X0212871Y0083885D02*
X0219341Y0083885D01*
X0138002Y0138575D02*
X0132320Y0138575D01*
X0132320Y0145045D01*
X0138002Y0145045D01*
X0138002Y0138575D01*
X0138002Y0138811D02*
X0132320Y0138811D01*
X0132320Y0139047D02*
X0138002Y0139047D01*
X0138002Y0139283D02*
X0132320Y0139283D01*
X0132320Y0139519D02*
X0138002Y0139519D01*
X0138002Y0139755D02*
X0132320Y0139755D01*
X0132320Y0139991D02*
X0138002Y0139991D01*
X0138002Y0140227D02*
X0132320Y0140227D01*
X0132320Y0140463D02*
X0138002Y0140463D01*
X0138002Y0140699D02*
X0132320Y0140699D01*
X0132320Y0140935D02*
X0138002Y0140935D01*
X0138002Y0141171D02*
X0132320Y0141171D01*
X0132320Y0141407D02*
X0138002Y0141407D01*
X0138002Y0141643D02*
X0132320Y0141643D01*
X0132320Y0141879D02*
X0138002Y0141879D01*
X0138002Y0142115D02*
X0132320Y0142115D01*
X0132320Y0142351D02*
X0138002Y0142351D01*
X0138002Y0142587D02*
X0132320Y0142587D01*
X0132320Y0142823D02*
X0138002Y0142823D01*
X0138002Y0143059D02*
X0132320Y0143059D01*
X0132320Y0143295D02*
X0138002Y0143295D01*
X0138002Y0143531D02*
X0132320Y0143531D01*
X0132320Y0143767D02*
X0138002Y0143767D01*
X0138002Y0144003D02*
X0132320Y0144003D01*
X0132320Y0144239D02*
X0138002Y0144239D01*
X0138002Y0144475D02*
X0132320Y0144475D01*
X0132320Y0144711D02*
X0138002Y0144711D01*
X0138002Y0144947D02*
X0132320Y0144947D01*
X0130522Y0138575D02*
X0124840Y0138575D01*
X0124840Y0145045D01*
X0130522Y0145045D01*
X0130522Y0138575D01*
X0130522Y0138811D02*
X0124840Y0138811D01*
X0124840Y0139047D02*
X0130522Y0139047D01*
X0130522Y0139283D02*
X0124840Y0139283D01*
X0124840Y0139519D02*
X0130522Y0139519D01*
X0130522Y0139755D02*
X0124840Y0139755D01*
X0124840Y0139991D02*
X0130522Y0139991D01*
X0130522Y0140227D02*
X0124840Y0140227D01*
X0124840Y0140463D02*
X0130522Y0140463D01*
X0130522Y0140699D02*
X0124840Y0140699D01*
X0124840Y0140935D02*
X0130522Y0140935D01*
X0130522Y0141171D02*
X0124840Y0141171D01*
X0124840Y0141407D02*
X0130522Y0141407D01*
X0130522Y0141643D02*
X0124840Y0141643D01*
X0124840Y0141879D02*
X0130522Y0141879D01*
X0130522Y0142115D02*
X0124840Y0142115D01*
X0124840Y0142351D02*
X0130522Y0142351D01*
X0130522Y0142587D02*
X0124840Y0142587D01*
X0124840Y0142823D02*
X0130522Y0142823D01*
X0130522Y0143059D02*
X0124840Y0143059D01*
X0124840Y0143295D02*
X0130522Y0143295D01*
X0130522Y0143531D02*
X0124840Y0143531D01*
X0124840Y0143767D02*
X0130522Y0143767D01*
X0130522Y0144003D02*
X0124840Y0144003D01*
X0124840Y0144239D02*
X0130522Y0144239D01*
X0130522Y0144475D02*
X0124840Y0144475D01*
X0124840Y0144711D02*
X0130522Y0144711D01*
X0130522Y0144947D02*
X0124840Y0144947D01*
X0122254Y0138575D02*
X0116572Y0138575D01*
X0116572Y0145045D01*
X0122254Y0145045D01*
X0122254Y0138575D01*
X0122254Y0138811D02*
X0116572Y0138811D01*
X0116572Y0139047D02*
X0122254Y0139047D01*
X0122254Y0139283D02*
X0116572Y0139283D01*
X0116572Y0139519D02*
X0122254Y0139519D01*
X0122254Y0139755D02*
X0116572Y0139755D01*
X0116572Y0139991D02*
X0122254Y0139991D01*
X0122254Y0140227D02*
X0116572Y0140227D01*
X0116572Y0140463D02*
X0122254Y0140463D01*
X0122254Y0140699D02*
X0116572Y0140699D01*
X0116572Y0140935D02*
X0122254Y0140935D01*
X0122254Y0141171D02*
X0116572Y0141171D01*
X0116572Y0141407D02*
X0122254Y0141407D01*
X0122254Y0141643D02*
X0116572Y0141643D01*
X0116572Y0141879D02*
X0122254Y0141879D01*
X0122254Y0142115D02*
X0116572Y0142115D01*
X0116572Y0142351D02*
X0122254Y0142351D01*
X0122254Y0142587D02*
X0116572Y0142587D01*
X0116572Y0142823D02*
X0122254Y0142823D01*
X0122254Y0143059D02*
X0116572Y0143059D01*
X0116572Y0143295D02*
X0122254Y0143295D01*
X0122254Y0143531D02*
X0116572Y0143531D01*
X0116572Y0143767D02*
X0122254Y0143767D01*
X0122254Y0144003D02*
X0116572Y0144003D01*
X0116572Y0144239D02*
X0122254Y0144239D01*
X0122254Y0144475D02*
X0116572Y0144475D01*
X0116572Y0144711D02*
X0122254Y0144711D01*
X0122254Y0144947D02*
X0116572Y0144947D01*
X0114774Y0138575D02*
X0109092Y0138575D01*
X0109092Y0145045D01*
X0114774Y0145045D01*
X0114774Y0138575D01*
X0114774Y0138811D02*
X0109092Y0138811D01*
X0109092Y0139047D02*
X0114774Y0139047D01*
X0114774Y0139283D02*
X0109092Y0139283D01*
X0109092Y0139519D02*
X0114774Y0139519D01*
X0114774Y0139755D02*
X0109092Y0139755D01*
X0109092Y0139991D02*
X0114774Y0139991D01*
X0114774Y0140227D02*
X0109092Y0140227D01*
X0109092Y0140463D02*
X0114774Y0140463D01*
X0114774Y0140699D02*
X0109092Y0140699D01*
X0109092Y0140935D02*
X0114774Y0140935D01*
X0114774Y0141171D02*
X0109092Y0141171D01*
X0109092Y0141407D02*
X0114774Y0141407D01*
X0114774Y0141643D02*
X0109092Y0141643D01*
X0109092Y0141879D02*
X0114774Y0141879D01*
X0114774Y0142115D02*
X0109092Y0142115D01*
X0109092Y0142351D02*
X0114774Y0142351D01*
X0114774Y0142587D02*
X0109092Y0142587D01*
X0109092Y0142823D02*
X0114774Y0142823D01*
X0114774Y0143059D02*
X0109092Y0143059D01*
X0109092Y0143295D02*
X0114774Y0143295D01*
X0114774Y0143531D02*
X0109092Y0143531D01*
X0109092Y0143767D02*
X0114774Y0143767D01*
X0114774Y0144003D02*
X0109092Y0144003D01*
X0109092Y0144239D02*
X0114774Y0144239D01*
X0114774Y0144475D02*
X0109092Y0144475D01*
X0109092Y0144711D02*
X0114774Y0144711D01*
X0114774Y0144947D02*
X0109092Y0144947D01*
X0108869Y0158260D02*
X0103187Y0158260D01*
X0103187Y0164730D01*
X0108869Y0164730D01*
X0108869Y0158260D01*
X0108869Y0158496D02*
X0103187Y0158496D01*
X0103187Y0158732D02*
X0108869Y0158732D01*
X0108869Y0158968D02*
X0103187Y0158968D01*
X0103187Y0159204D02*
X0108869Y0159204D01*
X0108869Y0159440D02*
X0103187Y0159440D01*
X0103187Y0159676D02*
X0108869Y0159676D01*
X0108869Y0159912D02*
X0103187Y0159912D01*
X0103187Y0160148D02*
X0108869Y0160148D01*
X0108869Y0160384D02*
X0103187Y0160384D01*
X0103187Y0160620D02*
X0108869Y0160620D01*
X0108869Y0160856D02*
X0103187Y0160856D01*
X0103187Y0161092D02*
X0108869Y0161092D01*
X0108869Y0161328D02*
X0103187Y0161328D01*
X0103187Y0161564D02*
X0108869Y0161564D01*
X0108869Y0161800D02*
X0103187Y0161800D01*
X0103187Y0162036D02*
X0108869Y0162036D01*
X0108869Y0162272D02*
X0103187Y0162272D01*
X0103187Y0162508D02*
X0108869Y0162508D01*
X0108869Y0162744D02*
X0103187Y0162744D01*
X0103187Y0162980D02*
X0108869Y0162980D01*
X0108869Y0163216D02*
X0103187Y0163216D01*
X0103187Y0163452D02*
X0108869Y0163452D01*
X0108869Y0163688D02*
X0103187Y0163688D01*
X0103187Y0163924D02*
X0108869Y0163924D01*
X0108869Y0164160D02*
X0103187Y0164160D01*
X0103187Y0164396D02*
X0108869Y0164396D01*
X0108869Y0164632D02*
X0103187Y0164632D01*
X0096664Y0158260D02*
X0090982Y0158260D01*
X0090982Y0164730D01*
X0096664Y0164730D01*
X0096664Y0158260D01*
X0096664Y0158496D02*
X0090982Y0158496D01*
X0090982Y0158732D02*
X0096664Y0158732D01*
X0096664Y0158968D02*
X0090982Y0158968D01*
X0090982Y0159204D02*
X0096664Y0159204D01*
X0096664Y0159440D02*
X0090982Y0159440D01*
X0090982Y0159676D02*
X0096664Y0159676D01*
X0096664Y0159912D02*
X0090982Y0159912D01*
X0090982Y0160148D02*
X0096664Y0160148D01*
X0096664Y0160384D02*
X0090982Y0160384D01*
X0090982Y0160620D02*
X0096664Y0160620D01*
X0096664Y0160856D02*
X0090982Y0160856D01*
X0090982Y0161092D02*
X0096664Y0161092D01*
X0096664Y0161328D02*
X0090982Y0161328D01*
X0090982Y0161564D02*
X0096664Y0161564D01*
X0096664Y0161800D02*
X0090982Y0161800D01*
X0090982Y0162036D02*
X0096664Y0162036D01*
X0096664Y0162272D02*
X0090982Y0162272D01*
X0090982Y0162508D02*
X0096664Y0162508D01*
X0096664Y0162744D02*
X0090982Y0162744D01*
X0090982Y0162980D02*
X0096664Y0162980D01*
X0096664Y0163216D02*
X0090982Y0163216D01*
X0090982Y0163452D02*
X0096664Y0163452D01*
X0096664Y0163688D02*
X0090982Y0163688D01*
X0090982Y0163924D02*
X0096664Y0163924D01*
X0096664Y0164160D02*
X0090982Y0164160D01*
X0090982Y0164396D02*
X0096664Y0164396D01*
X0096664Y0164632D02*
X0090982Y0164632D01*
X0089184Y0158260D02*
X0083502Y0158260D01*
X0083502Y0164730D01*
X0089184Y0164730D01*
X0089184Y0158260D01*
X0089184Y0158496D02*
X0083502Y0158496D01*
X0083502Y0158732D02*
X0089184Y0158732D01*
X0089184Y0158968D02*
X0083502Y0158968D01*
X0083502Y0159204D02*
X0089184Y0159204D01*
X0089184Y0159440D02*
X0083502Y0159440D01*
X0083502Y0159676D02*
X0089184Y0159676D01*
X0089184Y0159912D02*
X0083502Y0159912D01*
X0083502Y0160148D02*
X0089184Y0160148D01*
X0089184Y0160384D02*
X0083502Y0160384D01*
X0083502Y0160620D02*
X0089184Y0160620D01*
X0089184Y0160856D02*
X0083502Y0160856D01*
X0083502Y0161092D02*
X0089184Y0161092D01*
X0089184Y0161328D02*
X0083502Y0161328D01*
X0083502Y0161564D02*
X0089184Y0161564D01*
X0089184Y0161800D02*
X0083502Y0161800D01*
X0083502Y0162036D02*
X0089184Y0162036D01*
X0089184Y0162272D02*
X0083502Y0162272D01*
X0083502Y0162508D02*
X0089184Y0162508D01*
X0089184Y0162744D02*
X0083502Y0162744D01*
X0083502Y0162980D02*
X0089184Y0162980D01*
X0089184Y0163216D02*
X0083502Y0163216D01*
X0083502Y0163452D02*
X0089184Y0163452D01*
X0089184Y0163688D02*
X0083502Y0163688D01*
X0083502Y0163924D02*
X0089184Y0163924D01*
X0089184Y0164160D02*
X0083502Y0164160D01*
X0083502Y0164396D02*
X0089184Y0164396D01*
X0089184Y0164632D02*
X0083502Y0164632D01*
X0061822Y0162171D02*
X0061822Y0156489D01*
X0055352Y0156489D01*
X0055352Y0162171D01*
X0061822Y0162171D01*
X0061822Y0156725D02*
X0055352Y0156725D01*
X0055352Y0156961D02*
X0061822Y0156961D01*
X0061822Y0157197D02*
X0055352Y0157197D01*
X0055352Y0157433D02*
X0061822Y0157433D01*
X0061822Y0157669D02*
X0055352Y0157669D01*
X0055352Y0157905D02*
X0061822Y0157905D01*
X0061822Y0158141D02*
X0055352Y0158141D01*
X0055352Y0158377D02*
X0061822Y0158377D01*
X0061822Y0158613D02*
X0055352Y0158613D01*
X0055352Y0158849D02*
X0061822Y0158849D01*
X0061822Y0159085D02*
X0055352Y0159085D01*
X0055352Y0159321D02*
X0061822Y0159321D01*
X0061822Y0159557D02*
X0055352Y0159557D01*
X0055352Y0159793D02*
X0061822Y0159793D01*
X0061822Y0160029D02*
X0055352Y0160029D01*
X0055352Y0160265D02*
X0061822Y0160265D01*
X0061822Y0160501D02*
X0055352Y0160501D01*
X0055352Y0160737D02*
X0061822Y0160737D01*
X0061822Y0160973D02*
X0055352Y0160973D01*
X0055352Y0161209D02*
X0061822Y0161209D01*
X0061822Y0161445D02*
X0055352Y0161445D01*
X0055352Y0161681D02*
X0061822Y0161681D01*
X0061822Y0161917D02*
X0055352Y0161917D01*
X0055352Y0162153D02*
X0061822Y0162153D01*
X0061822Y0154690D02*
X0061822Y0149008D01*
X0055352Y0149008D01*
X0055352Y0154690D01*
X0061822Y0154690D01*
X0061822Y0149244D02*
X0055352Y0149244D01*
X0055352Y0149480D02*
X0061822Y0149480D01*
X0061822Y0149716D02*
X0055352Y0149716D01*
X0055352Y0149952D02*
X0061822Y0149952D01*
X0061822Y0150188D02*
X0055352Y0150188D01*
X0055352Y0150424D02*
X0061822Y0150424D01*
X0061822Y0150660D02*
X0055352Y0150660D01*
X0055352Y0150896D02*
X0061822Y0150896D01*
X0061822Y0151132D02*
X0055352Y0151132D01*
X0055352Y0151368D02*
X0061822Y0151368D01*
X0061822Y0151604D02*
X0055352Y0151604D01*
X0055352Y0151840D02*
X0061822Y0151840D01*
X0061822Y0152076D02*
X0055352Y0152076D01*
X0055352Y0152312D02*
X0061822Y0152312D01*
X0061822Y0152548D02*
X0055352Y0152548D01*
X0055352Y0152784D02*
X0061822Y0152784D01*
X0061822Y0153020D02*
X0055352Y0153020D01*
X0055352Y0153256D02*
X0061822Y0153256D01*
X0061822Y0153492D02*
X0055352Y0153492D01*
X0055352Y0153728D02*
X0061822Y0153728D01*
X0061822Y0153964D02*
X0055352Y0153964D01*
X0055352Y0154200D02*
X0061822Y0154200D01*
X0061822Y0154436D02*
X0055352Y0154436D01*
X0055352Y0154672D02*
X0061822Y0154672D01*
X0085444Y0140517D02*
X0085444Y0134835D01*
X0078974Y0134835D01*
X0078974Y0140517D01*
X0085444Y0140517D01*
X0085444Y0135071D02*
X0078974Y0135071D01*
X0078974Y0135307D02*
X0085444Y0135307D01*
X0085444Y0135543D02*
X0078974Y0135543D01*
X0078974Y0135779D02*
X0085444Y0135779D01*
X0085444Y0136015D02*
X0078974Y0136015D01*
X0078974Y0136251D02*
X0085444Y0136251D01*
X0085444Y0136487D02*
X0078974Y0136487D01*
X0078974Y0136723D02*
X0085444Y0136723D01*
X0085444Y0136959D02*
X0078974Y0136959D01*
X0078974Y0137195D02*
X0085444Y0137195D01*
X0085444Y0137431D02*
X0078974Y0137431D01*
X0078974Y0137667D02*
X0085444Y0137667D01*
X0085444Y0137903D02*
X0078974Y0137903D01*
X0078974Y0138139D02*
X0085444Y0138139D01*
X0085444Y0138375D02*
X0078974Y0138375D01*
X0078974Y0138611D02*
X0085444Y0138611D01*
X0085444Y0138847D02*
X0078974Y0138847D01*
X0078974Y0139083D02*
X0085444Y0139083D01*
X0085444Y0139319D02*
X0078974Y0139319D01*
X0078974Y0139555D02*
X0085444Y0139555D01*
X0085444Y0139791D02*
X0078974Y0139791D01*
X0078974Y0140027D02*
X0085444Y0140027D01*
X0085444Y0140263D02*
X0078974Y0140263D01*
X0078974Y0140499D02*
X0085444Y0140499D01*
X0085444Y0133037D02*
X0085444Y0127355D01*
X0078974Y0127355D01*
X0078974Y0133037D01*
X0085444Y0133037D01*
X0085444Y0127591D02*
X0078974Y0127591D01*
X0078974Y0127827D02*
X0085444Y0127827D01*
X0085444Y0128063D02*
X0078974Y0128063D01*
X0078974Y0128299D02*
X0085444Y0128299D01*
X0085444Y0128535D02*
X0078974Y0128535D01*
X0078974Y0128771D02*
X0085444Y0128771D01*
X0085444Y0129007D02*
X0078974Y0129007D01*
X0078974Y0129243D02*
X0085444Y0129243D01*
X0085444Y0129479D02*
X0078974Y0129479D01*
X0078974Y0129715D02*
X0085444Y0129715D01*
X0085444Y0129951D02*
X0078974Y0129951D01*
X0078974Y0130187D02*
X0085444Y0130187D01*
X0085444Y0130423D02*
X0078974Y0130423D01*
X0078974Y0130659D02*
X0085444Y0130659D01*
X0085444Y0130895D02*
X0078974Y0130895D01*
X0078974Y0131131D02*
X0085444Y0131131D01*
X0085444Y0131367D02*
X0078974Y0131367D01*
X0078974Y0131603D02*
X0085444Y0131603D01*
X0085444Y0131839D02*
X0078974Y0131839D01*
X0078974Y0132075D02*
X0085444Y0132075D01*
X0085444Y0132311D02*
X0078974Y0132311D01*
X0078974Y0132547D02*
X0085444Y0132547D01*
X0085444Y0132783D02*
X0078974Y0132783D01*
X0078974Y0133019D02*
X0085444Y0133019D01*
X0110667Y0158260D02*
X0116349Y0158260D01*
X0110667Y0158260D02*
X0110667Y0164730D01*
X0116349Y0164730D01*
X0116349Y0158260D01*
X0116349Y0158496D02*
X0110667Y0158496D01*
X0110667Y0158732D02*
X0116349Y0158732D01*
X0116349Y0158968D02*
X0110667Y0158968D01*
X0110667Y0159204D02*
X0116349Y0159204D01*
X0116349Y0159440D02*
X0110667Y0159440D01*
X0110667Y0159676D02*
X0116349Y0159676D01*
X0116349Y0159912D02*
X0110667Y0159912D01*
X0110667Y0160148D02*
X0116349Y0160148D01*
X0116349Y0160384D02*
X0110667Y0160384D01*
X0110667Y0160620D02*
X0116349Y0160620D01*
X0116349Y0160856D02*
X0110667Y0160856D01*
X0110667Y0161092D02*
X0116349Y0161092D01*
X0116349Y0161328D02*
X0110667Y0161328D01*
X0110667Y0161564D02*
X0116349Y0161564D01*
X0116349Y0161800D02*
X0110667Y0161800D01*
X0110667Y0162036D02*
X0116349Y0162036D01*
X0116349Y0162272D02*
X0110667Y0162272D01*
X0110667Y0162508D02*
X0116349Y0162508D01*
X0116349Y0162744D02*
X0110667Y0162744D01*
X0110667Y0162980D02*
X0116349Y0162980D01*
X0116349Y0163216D02*
X0110667Y0163216D01*
X0110667Y0163452D02*
X0116349Y0163452D01*
X0116349Y0163688D02*
X0110667Y0163688D01*
X0110667Y0163924D02*
X0116349Y0163924D01*
X0116349Y0164160D02*
X0110667Y0164160D01*
X0110667Y0164396D02*
X0116349Y0164396D01*
X0116349Y0164632D02*
X0110667Y0164632D01*
X0104564Y0099178D02*
X0104564Y0093496D01*
X0104564Y0099178D02*
X0111034Y0099178D01*
X0111034Y0093496D01*
X0104564Y0093496D01*
X0104564Y0093732D02*
X0111034Y0093732D01*
X0111034Y0093968D02*
X0104564Y0093968D01*
X0104564Y0094204D02*
X0111034Y0094204D01*
X0111034Y0094440D02*
X0104564Y0094440D01*
X0104564Y0094676D02*
X0111034Y0094676D01*
X0111034Y0094912D02*
X0104564Y0094912D01*
X0104564Y0095148D02*
X0111034Y0095148D01*
X0111034Y0095384D02*
X0104564Y0095384D01*
X0104564Y0095620D02*
X0111034Y0095620D01*
X0111034Y0095856D02*
X0104564Y0095856D01*
X0104564Y0096092D02*
X0111034Y0096092D01*
X0111034Y0096328D02*
X0104564Y0096328D01*
X0104564Y0096564D02*
X0111034Y0096564D01*
X0111034Y0096800D02*
X0104564Y0096800D01*
X0104564Y0097036D02*
X0111034Y0097036D01*
X0111034Y0097272D02*
X0104564Y0097272D01*
X0104564Y0097508D02*
X0111034Y0097508D01*
X0111034Y0097744D02*
X0104564Y0097744D01*
X0104564Y0097980D02*
X0111034Y0097980D01*
X0111034Y0098216D02*
X0104564Y0098216D01*
X0104564Y0098452D02*
X0111034Y0098452D01*
X0111034Y0098688D02*
X0104564Y0098688D01*
X0104564Y0098924D02*
X0111034Y0098924D01*
X0111034Y0099160D02*
X0104564Y0099160D01*
X0094722Y0099178D02*
X0094722Y0093496D01*
X0094722Y0099178D02*
X0101192Y0099178D01*
X0101192Y0093496D01*
X0094722Y0093496D01*
X0094722Y0093732D02*
X0101192Y0093732D01*
X0101192Y0093968D02*
X0094722Y0093968D01*
X0094722Y0094204D02*
X0101192Y0094204D01*
X0101192Y0094440D02*
X0094722Y0094440D01*
X0094722Y0094676D02*
X0101192Y0094676D01*
X0101192Y0094912D02*
X0094722Y0094912D01*
X0094722Y0095148D02*
X0101192Y0095148D01*
X0101192Y0095384D02*
X0094722Y0095384D01*
X0094722Y0095620D02*
X0101192Y0095620D01*
X0101192Y0095856D02*
X0094722Y0095856D01*
X0094722Y0096092D02*
X0101192Y0096092D01*
X0101192Y0096328D02*
X0094722Y0096328D01*
X0094722Y0096564D02*
X0101192Y0096564D01*
X0101192Y0096800D02*
X0094722Y0096800D01*
X0094722Y0097036D02*
X0101192Y0097036D01*
X0101192Y0097272D02*
X0094722Y0097272D01*
X0094722Y0097508D02*
X0101192Y0097508D01*
X0101192Y0097744D02*
X0094722Y0097744D01*
X0094722Y0097980D02*
X0101192Y0097980D01*
X0101192Y0098216D02*
X0094722Y0098216D01*
X0094722Y0098452D02*
X0101192Y0098452D01*
X0101192Y0098688D02*
X0094722Y0098688D01*
X0094722Y0098924D02*
X0101192Y0098924D01*
X0101192Y0099160D02*
X0094722Y0099160D01*
X0094722Y0091698D02*
X0094722Y0086016D01*
X0094722Y0091698D02*
X0101192Y0091698D01*
X0101192Y0086016D01*
X0094722Y0086016D01*
X0094722Y0086252D02*
X0101192Y0086252D01*
X0101192Y0086488D02*
X0094722Y0086488D01*
X0094722Y0086724D02*
X0101192Y0086724D01*
X0101192Y0086960D02*
X0094722Y0086960D01*
X0094722Y0087196D02*
X0101192Y0087196D01*
X0101192Y0087432D02*
X0094722Y0087432D01*
X0094722Y0087668D02*
X0101192Y0087668D01*
X0101192Y0087904D02*
X0094722Y0087904D01*
X0094722Y0088140D02*
X0101192Y0088140D01*
X0101192Y0088376D02*
X0094722Y0088376D01*
X0094722Y0088612D02*
X0101192Y0088612D01*
X0101192Y0088848D02*
X0094722Y0088848D01*
X0094722Y0089084D02*
X0101192Y0089084D01*
X0101192Y0089320D02*
X0094722Y0089320D01*
X0094722Y0089556D02*
X0101192Y0089556D01*
X0101192Y0089792D02*
X0094722Y0089792D01*
X0094722Y0090028D02*
X0101192Y0090028D01*
X0101192Y0090264D02*
X0094722Y0090264D01*
X0094722Y0090500D02*
X0101192Y0090500D01*
X0101192Y0090736D02*
X0094722Y0090736D01*
X0094722Y0090972D02*
X0101192Y0090972D01*
X0101192Y0091208D02*
X0094722Y0091208D01*
X0094722Y0091444D02*
X0101192Y0091444D01*
X0101192Y0091680D02*
X0094722Y0091680D01*
X0104564Y0091698D02*
X0104564Y0086016D01*
X0104564Y0091698D02*
X0111034Y0091698D01*
X0111034Y0086016D01*
X0104564Y0086016D01*
X0104564Y0086252D02*
X0111034Y0086252D01*
X0111034Y0086488D02*
X0104564Y0086488D01*
X0104564Y0086724D02*
X0111034Y0086724D01*
X0111034Y0086960D02*
X0104564Y0086960D01*
X0104564Y0087196D02*
X0111034Y0087196D01*
X0111034Y0087432D02*
X0104564Y0087432D01*
X0104564Y0087668D02*
X0111034Y0087668D01*
X0111034Y0087904D02*
X0104564Y0087904D01*
X0104564Y0088140D02*
X0111034Y0088140D01*
X0111034Y0088376D02*
X0104564Y0088376D01*
X0104564Y0088612D02*
X0111034Y0088612D01*
X0111034Y0088848D02*
X0104564Y0088848D01*
X0104564Y0089084D02*
X0111034Y0089084D01*
X0111034Y0089320D02*
X0104564Y0089320D01*
X0104564Y0089556D02*
X0111034Y0089556D01*
X0111034Y0089792D02*
X0104564Y0089792D01*
X0104564Y0090028D02*
X0111034Y0090028D01*
X0111034Y0090264D02*
X0104564Y0090264D01*
X0104564Y0090500D02*
X0111034Y0090500D01*
X0111034Y0090736D02*
X0104564Y0090736D01*
X0104564Y0090972D02*
X0111034Y0090972D01*
X0111034Y0091208D02*
X0104564Y0091208D01*
X0104564Y0091444D02*
X0111034Y0091444D01*
X0111034Y0091680D02*
X0104564Y0091680D01*
X0055352Y0083430D02*
X0055352Y0077748D01*
X0055352Y0083430D02*
X0061822Y0083430D01*
X0061822Y0077748D01*
X0055352Y0077748D01*
X0055352Y0077984D02*
X0061822Y0077984D01*
X0061822Y0078220D02*
X0055352Y0078220D01*
X0055352Y0078456D02*
X0061822Y0078456D01*
X0061822Y0078692D02*
X0055352Y0078692D01*
X0055352Y0078928D02*
X0061822Y0078928D01*
X0061822Y0079164D02*
X0055352Y0079164D01*
X0055352Y0079400D02*
X0061822Y0079400D01*
X0061822Y0079636D02*
X0055352Y0079636D01*
X0055352Y0079872D02*
X0061822Y0079872D01*
X0061822Y0080108D02*
X0055352Y0080108D01*
X0055352Y0080344D02*
X0061822Y0080344D01*
X0061822Y0080580D02*
X0055352Y0080580D01*
X0055352Y0080816D02*
X0061822Y0080816D01*
X0061822Y0081052D02*
X0055352Y0081052D01*
X0055352Y0081288D02*
X0061822Y0081288D01*
X0061822Y0081524D02*
X0055352Y0081524D01*
X0055352Y0081760D02*
X0061822Y0081760D01*
X0061822Y0081996D02*
X0055352Y0081996D01*
X0055352Y0082232D02*
X0061822Y0082232D01*
X0061822Y0082468D02*
X0055352Y0082468D01*
X0055352Y0082704D02*
X0061822Y0082704D01*
X0061822Y0082940D02*
X0055352Y0082940D01*
X0055352Y0083176D02*
X0061822Y0083176D01*
X0061822Y0083412D02*
X0055352Y0083412D01*
X0055352Y0075950D02*
X0055352Y0070268D01*
X0055352Y0075950D02*
X0061822Y0075950D01*
X0061822Y0070268D01*
X0055352Y0070268D01*
X0055352Y0070504D02*
X0061822Y0070504D01*
X0061822Y0070740D02*
X0055352Y0070740D01*
X0055352Y0070976D02*
X0061822Y0070976D01*
X0061822Y0071212D02*
X0055352Y0071212D01*
X0055352Y0071448D02*
X0061822Y0071448D01*
X0061822Y0071684D02*
X0055352Y0071684D01*
X0055352Y0071920D02*
X0061822Y0071920D01*
X0061822Y0072156D02*
X0055352Y0072156D01*
X0055352Y0072392D02*
X0061822Y0072392D01*
X0061822Y0072628D02*
X0055352Y0072628D01*
X0055352Y0072864D02*
X0061822Y0072864D01*
X0061822Y0073100D02*
X0055352Y0073100D01*
X0055352Y0073336D02*
X0061822Y0073336D01*
X0061822Y0073572D02*
X0055352Y0073572D01*
X0055352Y0073808D02*
X0061822Y0073808D01*
X0061822Y0074044D02*
X0055352Y0074044D01*
X0055352Y0074280D02*
X0061822Y0074280D01*
X0061822Y0074516D02*
X0055352Y0074516D01*
X0055352Y0074752D02*
X0061822Y0074752D01*
X0061822Y0074988D02*
X0055352Y0074988D01*
X0055352Y0075224D02*
X0061822Y0075224D01*
X0061822Y0075460D02*
X0055352Y0075460D01*
X0055352Y0075696D02*
X0061822Y0075696D01*
X0061822Y0075932D02*
X0055352Y0075932D01*
X0019919Y0149008D02*
X0019919Y0154690D01*
X0026389Y0154690D01*
X0026389Y0149008D01*
X0019919Y0149008D01*
X0019919Y0149244D02*
X0026389Y0149244D01*
X0026389Y0149480D02*
X0019919Y0149480D01*
X0019919Y0149716D02*
X0026389Y0149716D01*
X0026389Y0149952D02*
X0019919Y0149952D01*
X0019919Y0150188D02*
X0026389Y0150188D01*
X0026389Y0150424D02*
X0019919Y0150424D01*
X0019919Y0150660D02*
X0026389Y0150660D01*
X0026389Y0150896D02*
X0019919Y0150896D01*
X0019919Y0151132D02*
X0026389Y0151132D01*
X0026389Y0151368D02*
X0019919Y0151368D01*
X0019919Y0151604D02*
X0026389Y0151604D01*
X0026389Y0151840D02*
X0019919Y0151840D01*
X0019919Y0152076D02*
X0026389Y0152076D01*
X0026389Y0152312D02*
X0019919Y0152312D01*
X0019919Y0152548D02*
X0026389Y0152548D01*
X0026389Y0152784D02*
X0019919Y0152784D01*
X0019919Y0153020D02*
X0026389Y0153020D01*
X0026389Y0153256D02*
X0019919Y0153256D01*
X0019919Y0153492D02*
X0026389Y0153492D01*
X0026389Y0153728D02*
X0019919Y0153728D01*
X0019919Y0153964D02*
X0026389Y0153964D01*
X0026389Y0154200D02*
X0019919Y0154200D01*
X0019919Y0154436D02*
X0026389Y0154436D01*
X0026389Y0154672D02*
X0019919Y0154672D01*
X0019919Y0156489D02*
X0019919Y0162171D01*
X0026389Y0162171D01*
X0026389Y0156489D01*
X0019919Y0156489D01*
X0019919Y0156725D02*
X0026389Y0156725D01*
X0026389Y0156961D02*
X0019919Y0156961D01*
X0019919Y0157197D02*
X0026389Y0157197D01*
X0026389Y0157433D02*
X0019919Y0157433D01*
X0019919Y0157669D02*
X0026389Y0157669D01*
X0026389Y0157905D02*
X0019919Y0157905D01*
X0019919Y0158141D02*
X0026389Y0158141D01*
X0026389Y0158377D02*
X0019919Y0158377D01*
X0019919Y0158613D02*
X0026389Y0158613D01*
X0026389Y0158849D02*
X0019919Y0158849D01*
X0019919Y0159085D02*
X0026389Y0159085D01*
X0026389Y0159321D02*
X0019919Y0159321D01*
X0019919Y0159557D02*
X0026389Y0159557D01*
X0026389Y0159793D02*
X0019919Y0159793D01*
X0019919Y0160029D02*
X0026389Y0160029D01*
X0026389Y0160265D02*
X0019919Y0160265D01*
X0019919Y0160501D02*
X0026389Y0160501D01*
X0026389Y0160737D02*
X0019919Y0160737D01*
X0019919Y0160973D02*
X0026389Y0160973D01*
X0026389Y0161209D02*
X0019919Y0161209D01*
X0019919Y0161445D02*
X0026389Y0161445D01*
X0026389Y0161681D02*
X0019919Y0161681D01*
X0019919Y0161917D02*
X0026389Y0161917D01*
X0026389Y0162153D02*
X0019919Y0162153D01*
D12*
X0204256Y0132282D03*
X0204256Y0092282D03*
D13*
X0060230Y0101131D02*
X0037258Y0101131D01*
X0060230Y0101131D02*
X0060230Y0088001D01*
X0037258Y0088001D01*
X0037258Y0101131D01*
X0037258Y0088268D02*
X0060230Y0088268D01*
X0060230Y0088535D02*
X0037258Y0088535D01*
X0037258Y0088802D02*
X0060230Y0088802D01*
X0060230Y0089069D02*
X0037258Y0089069D01*
X0037258Y0089336D02*
X0060230Y0089336D01*
X0060230Y0089603D02*
X0037258Y0089603D01*
X0037258Y0089870D02*
X0060230Y0089870D01*
X0060230Y0090137D02*
X0037258Y0090137D01*
X0037258Y0090404D02*
X0060230Y0090404D01*
X0060230Y0090671D02*
X0037258Y0090671D01*
X0037258Y0090938D02*
X0060230Y0090938D01*
X0060230Y0091205D02*
X0037258Y0091205D01*
X0037258Y0091472D02*
X0060230Y0091472D01*
X0060230Y0091739D02*
X0037258Y0091739D01*
X0037258Y0092006D02*
X0060230Y0092006D01*
X0060230Y0092273D02*
X0037258Y0092273D01*
X0037258Y0092540D02*
X0060230Y0092540D01*
X0060230Y0092807D02*
X0037258Y0092807D01*
X0037258Y0093074D02*
X0060230Y0093074D01*
X0060230Y0093341D02*
X0037258Y0093341D01*
X0037258Y0093608D02*
X0060230Y0093608D01*
X0060230Y0093875D02*
X0037258Y0093875D01*
X0037258Y0094142D02*
X0060230Y0094142D01*
X0060230Y0094409D02*
X0037258Y0094409D01*
X0037258Y0094676D02*
X0060230Y0094676D01*
X0060230Y0094943D02*
X0037258Y0094943D01*
X0037258Y0095210D02*
X0060230Y0095210D01*
X0060230Y0095477D02*
X0037258Y0095477D01*
X0037258Y0095744D02*
X0060230Y0095744D01*
X0060230Y0096011D02*
X0037258Y0096011D01*
X0037258Y0096278D02*
X0060230Y0096278D01*
X0060230Y0096545D02*
X0037258Y0096545D01*
X0037258Y0096812D02*
X0060230Y0096812D01*
X0060230Y0097079D02*
X0037258Y0097079D01*
X0037258Y0097346D02*
X0060230Y0097346D01*
X0060230Y0097613D02*
X0037258Y0097613D01*
X0037258Y0097880D02*
X0060230Y0097880D01*
X0060230Y0098147D02*
X0037258Y0098147D01*
X0037258Y0098414D02*
X0060230Y0098414D01*
X0060230Y0098681D02*
X0037258Y0098681D01*
X0037258Y0098948D02*
X0060230Y0098948D01*
X0060230Y0099215D02*
X0037258Y0099215D01*
X0037258Y0099482D02*
X0060230Y0099482D01*
X0060230Y0099749D02*
X0037258Y0099749D01*
X0037258Y0100016D02*
X0060230Y0100016D01*
X0060230Y0100283D02*
X0037258Y0100283D01*
X0037258Y0100550D02*
X0060230Y0100550D01*
X0060230Y0100817D02*
X0037258Y0100817D01*
X0037258Y0101084D02*
X0060230Y0101084D01*
X0060230Y0144438D02*
X0037258Y0144438D01*
X0060230Y0144438D02*
X0060230Y0131308D01*
X0037258Y0131308D01*
X0037258Y0144438D01*
X0037258Y0131575D02*
X0060230Y0131575D01*
X0060230Y0131842D02*
X0037258Y0131842D01*
X0037258Y0132109D02*
X0060230Y0132109D01*
X0060230Y0132376D02*
X0037258Y0132376D01*
X0037258Y0132643D02*
X0060230Y0132643D01*
X0060230Y0132910D02*
X0037258Y0132910D01*
X0037258Y0133177D02*
X0060230Y0133177D01*
X0060230Y0133444D02*
X0037258Y0133444D01*
X0037258Y0133711D02*
X0060230Y0133711D01*
X0060230Y0133978D02*
X0037258Y0133978D01*
X0037258Y0134245D02*
X0060230Y0134245D01*
X0060230Y0134512D02*
X0037258Y0134512D01*
X0037258Y0134779D02*
X0060230Y0134779D01*
X0060230Y0135046D02*
X0037258Y0135046D01*
X0037258Y0135313D02*
X0060230Y0135313D01*
X0060230Y0135580D02*
X0037258Y0135580D01*
X0037258Y0135847D02*
X0060230Y0135847D01*
X0060230Y0136114D02*
X0037258Y0136114D01*
X0037258Y0136381D02*
X0060230Y0136381D01*
X0060230Y0136648D02*
X0037258Y0136648D01*
X0037258Y0136915D02*
X0060230Y0136915D01*
X0060230Y0137182D02*
X0037258Y0137182D01*
X0037258Y0137449D02*
X0060230Y0137449D01*
X0060230Y0137716D02*
X0037258Y0137716D01*
X0037258Y0137983D02*
X0060230Y0137983D01*
X0060230Y0138250D02*
X0037258Y0138250D01*
X0037258Y0138517D02*
X0060230Y0138517D01*
X0060230Y0138784D02*
X0037258Y0138784D01*
X0037258Y0139051D02*
X0060230Y0139051D01*
X0060230Y0139318D02*
X0037258Y0139318D01*
X0037258Y0139585D02*
X0060230Y0139585D01*
X0060230Y0139852D02*
X0037258Y0139852D01*
X0037258Y0140119D02*
X0060230Y0140119D01*
X0060230Y0140386D02*
X0037258Y0140386D01*
X0037258Y0140653D02*
X0060230Y0140653D01*
X0060230Y0140920D02*
X0037258Y0140920D01*
X0037258Y0141187D02*
X0060230Y0141187D01*
X0060230Y0141454D02*
X0037258Y0141454D01*
X0037258Y0141721D02*
X0060230Y0141721D01*
X0060230Y0141988D02*
X0037258Y0141988D01*
X0037258Y0142255D02*
X0060230Y0142255D01*
X0060230Y0142522D02*
X0037258Y0142522D01*
X0037258Y0142789D02*
X0060230Y0142789D01*
X0060230Y0143056D02*
X0037258Y0143056D01*
X0037258Y0143323D02*
X0060230Y0143323D01*
X0060230Y0143590D02*
X0037258Y0143590D01*
X0037258Y0143857D02*
X0060230Y0143857D01*
X0060230Y0144124D02*
X0037258Y0144124D01*
X0037258Y0144391D02*
X0060230Y0144391D01*
D14*
X0044807Y0155589D03*
X0036933Y0155589D03*
X0037681Y0077479D03*
X0045555Y0077479D03*
D15*
X0089217Y0150708D03*
X0109217Y0150708D03*
D16*
X0029846Y0130589D03*
X0030240Y0122519D03*
X0030240Y0116219D03*
X0030240Y0109920D03*
X0029846Y0101849D03*
X0020398Y0101849D03*
X0020004Y0113070D03*
X0020004Y0119369D03*
X0020398Y0130589D03*
D17*
X0096324Y0122918D02*
X0096324Y0121258D01*
X0092664Y0121258D01*
X0092664Y0122918D01*
X0096324Y0122918D01*
X0096324Y0121597D02*
X0092664Y0121597D01*
X0092664Y0121936D02*
X0096324Y0121936D01*
X0096324Y0122275D02*
X0092664Y0122275D01*
X0092664Y0122614D02*
X0096324Y0122614D01*
X0096324Y0121018D02*
X0096324Y0119358D01*
X0092664Y0119358D01*
X0092664Y0121018D01*
X0096324Y0121018D01*
X0096324Y0119697D02*
X0092664Y0119697D01*
X0092664Y0120036D02*
X0096324Y0120036D01*
X0096324Y0120375D02*
X0092664Y0120375D01*
X0092664Y0120714D02*
X0096324Y0120714D01*
X0096324Y0119018D02*
X0096324Y0117358D01*
X0092664Y0117358D01*
X0092664Y0119018D01*
X0096324Y0119018D01*
X0096324Y0117697D02*
X0092664Y0117697D01*
X0092664Y0118036D02*
X0096324Y0118036D01*
X0096324Y0118375D02*
X0092664Y0118375D01*
X0092664Y0118714D02*
X0096324Y0118714D01*
X0096324Y0117018D02*
X0096324Y0115358D01*
X0092664Y0115358D01*
X0092664Y0117018D01*
X0096324Y0117018D01*
X0096324Y0115697D02*
X0092664Y0115697D01*
X0092664Y0116036D02*
X0096324Y0116036D01*
X0096324Y0116375D02*
X0092664Y0116375D01*
X0092664Y0116714D02*
X0096324Y0116714D01*
X0096324Y0115118D02*
X0096324Y0113458D01*
X0092664Y0113458D01*
X0092664Y0115118D01*
X0096324Y0115118D01*
X0096324Y0113797D02*
X0092664Y0113797D01*
X0092664Y0114136D02*
X0096324Y0114136D01*
X0096324Y0114475D02*
X0092664Y0114475D01*
X0092664Y0114814D02*
X0096324Y0114814D01*
X0097164Y0108958D02*
X0098824Y0108958D01*
X0097164Y0108958D02*
X0097164Y0112618D01*
X0098824Y0112618D01*
X0098824Y0108958D01*
X0098824Y0109297D02*
X0097164Y0109297D01*
X0097164Y0109636D02*
X0098824Y0109636D01*
X0098824Y0109975D02*
X0097164Y0109975D01*
X0097164Y0110314D02*
X0098824Y0110314D01*
X0098824Y0110653D02*
X0097164Y0110653D01*
X0097164Y0110992D02*
X0098824Y0110992D01*
X0098824Y0111331D02*
X0097164Y0111331D01*
X0097164Y0111670D02*
X0098824Y0111670D01*
X0098824Y0112009D02*
X0097164Y0112009D01*
X0097164Y0112348D02*
X0098824Y0112348D01*
X0099064Y0108958D02*
X0100724Y0108958D01*
X0099064Y0108958D02*
X0099064Y0112618D01*
X0100724Y0112618D01*
X0100724Y0108958D01*
X0100724Y0109297D02*
X0099064Y0109297D01*
X0099064Y0109636D02*
X0100724Y0109636D01*
X0100724Y0109975D02*
X0099064Y0109975D01*
X0099064Y0110314D02*
X0100724Y0110314D01*
X0100724Y0110653D02*
X0099064Y0110653D01*
X0099064Y0110992D02*
X0100724Y0110992D01*
X0100724Y0111331D02*
X0099064Y0111331D01*
X0099064Y0111670D02*
X0100724Y0111670D01*
X0100724Y0112009D02*
X0099064Y0112009D01*
X0099064Y0112348D02*
X0100724Y0112348D01*
X0101064Y0108958D02*
X0102724Y0108958D01*
X0101064Y0108958D02*
X0101064Y0112618D01*
X0102724Y0112618D01*
X0102724Y0108958D01*
X0102724Y0109297D02*
X0101064Y0109297D01*
X0101064Y0109636D02*
X0102724Y0109636D01*
X0102724Y0109975D02*
X0101064Y0109975D01*
X0101064Y0110314D02*
X0102724Y0110314D01*
X0102724Y0110653D02*
X0101064Y0110653D01*
X0101064Y0110992D02*
X0102724Y0110992D01*
X0102724Y0111331D02*
X0101064Y0111331D01*
X0101064Y0111670D02*
X0102724Y0111670D01*
X0102724Y0112009D02*
X0101064Y0112009D01*
X0101064Y0112348D02*
X0102724Y0112348D01*
X0103064Y0108958D02*
X0104724Y0108958D01*
X0103064Y0108958D02*
X0103064Y0112618D01*
X0104724Y0112618D01*
X0104724Y0108958D01*
X0104724Y0109297D02*
X0103064Y0109297D01*
X0103064Y0109636D02*
X0104724Y0109636D01*
X0104724Y0109975D02*
X0103064Y0109975D01*
X0103064Y0110314D02*
X0104724Y0110314D01*
X0104724Y0110653D02*
X0103064Y0110653D01*
X0103064Y0110992D02*
X0104724Y0110992D01*
X0104724Y0111331D02*
X0103064Y0111331D01*
X0103064Y0111670D02*
X0104724Y0111670D01*
X0104724Y0112009D02*
X0103064Y0112009D01*
X0103064Y0112348D02*
X0104724Y0112348D01*
X0104964Y0108958D02*
X0106624Y0108958D01*
X0104964Y0108958D02*
X0104964Y0112618D01*
X0106624Y0112618D01*
X0106624Y0108958D01*
X0106624Y0109297D02*
X0104964Y0109297D01*
X0104964Y0109636D02*
X0106624Y0109636D01*
X0106624Y0109975D02*
X0104964Y0109975D01*
X0104964Y0110314D02*
X0106624Y0110314D01*
X0106624Y0110653D02*
X0104964Y0110653D01*
X0104964Y0110992D02*
X0106624Y0110992D01*
X0106624Y0111331D02*
X0104964Y0111331D01*
X0104964Y0111670D02*
X0106624Y0111670D01*
X0106624Y0112009D02*
X0104964Y0112009D01*
X0104964Y0112348D02*
X0106624Y0112348D01*
X0111124Y0113458D02*
X0111124Y0115118D01*
X0111124Y0113458D02*
X0107464Y0113458D01*
X0107464Y0115118D01*
X0111124Y0115118D01*
X0111124Y0113797D02*
X0107464Y0113797D01*
X0107464Y0114136D02*
X0111124Y0114136D01*
X0111124Y0114475D02*
X0107464Y0114475D01*
X0107464Y0114814D02*
X0111124Y0114814D01*
X0111124Y0115358D02*
X0111124Y0117018D01*
X0111124Y0115358D02*
X0107464Y0115358D01*
X0107464Y0117018D01*
X0111124Y0117018D01*
X0111124Y0115697D02*
X0107464Y0115697D01*
X0107464Y0116036D02*
X0111124Y0116036D01*
X0111124Y0116375D02*
X0107464Y0116375D01*
X0107464Y0116714D02*
X0111124Y0116714D01*
X0111124Y0117358D02*
X0111124Y0119018D01*
X0111124Y0117358D02*
X0107464Y0117358D01*
X0107464Y0119018D01*
X0111124Y0119018D01*
X0111124Y0117697D02*
X0107464Y0117697D01*
X0107464Y0118036D02*
X0111124Y0118036D01*
X0111124Y0118375D02*
X0107464Y0118375D01*
X0107464Y0118714D02*
X0111124Y0118714D01*
X0111124Y0119358D02*
X0111124Y0121018D01*
X0111124Y0119358D02*
X0107464Y0119358D01*
X0107464Y0121018D01*
X0111124Y0121018D01*
X0111124Y0119697D02*
X0107464Y0119697D01*
X0107464Y0120036D02*
X0111124Y0120036D01*
X0111124Y0120375D02*
X0107464Y0120375D01*
X0107464Y0120714D02*
X0111124Y0120714D01*
X0111124Y0121258D02*
X0111124Y0122918D01*
X0111124Y0121258D02*
X0107464Y0121258D01*
X0107464Y0122918D01*
X0111124Y0122918D01*
X0111124Y0121597D02*
X0107464Y0121597D01*
X0107464Y0121936D02*
X0111124Y0121936D01*
X0111124Y0122275D02*
X0107464Y0122275D01*
X0107464Y0122614D02*
X0111124Y0122614D01*
X0106624Y0123758D02*
X0104964Y0123758D01*
X0104964Y0127418D01*
X0106624Y0127418D01*
X0106624Y0123758D01*
X0106624Y0124097D02*
X0104964Y0124097D01*
X0104964Y0124436D02*
X0106624Y0124436D01*
X0106624Y0124775D02*
X0104964Y0124775D01*
X0104964Y0125114D02*
X0106624Y0125114D01*
X0106624Y0125453D02*
X0104964Y0125453D01*
X0104964Y0125792D02*
X0106624Y0125792D01*
X0106624Y0126131D02*
X0104964Y0126131D01*
X0104964Y0126470D02*
X0106624Y0126470D01*
X0106624Y0126809D02*
X0104964Y0126809D01*
X0104964Y0127148D02*
X0106624Y0127148D01*
X0104724Y0123758D02*
X0103064Y0123758D01*
X0103064Y0127418D01*
X0104724Y0127418D01*
X0104724Y0123758D01*
X0104724Y0124097D02*
X0103064Y0124097D01*
X0103064Y0124436D02*
X0104724Y0124436D01*
X0104724Y0124775D02*
X0103064Y0124775D01*
X0103064Y0125114D02*
X0104724Y0125114D01*
X0104724Y0125453D02*
X0103064Y0125453D01*
X0103064Y0125792D02*
X0104724Y0125792D01*
X0104724Y0126131D02*
X0103064Y0126131D01*
X0103064Y0126470D02*
X0104724Y0126470D01*
X0104724Y0126809D02*
X0103064Y0126809D01*
X0103064Y0127148D02*
X0104724Y0127148D01*
X0102724Y0123758D02*
X0101064Y0123758D01*
X0101064Y0127418D01*
X0102724Y0127418D01*
X0102724Y0123758D01*
X0102724Y0124097D02*
X0101064Y0124097D01*
X0101064Y0124436D02*
X0102724Y0124436D01*
X0102724Y0124775D02*
X0101064Y0124775D01*
X0101064Y0125114D02*
X0102724Y0125114D01*
X0102724Y0125453D02*
X0101064Y0125453D01*
X0101064Y0125792D02*
X0102724Y0125792D01*
X0102724Y0126131D02*
X0101064Y0126131D01*
X0101064Y0126470D02*
X0102724Y0126470D01*
X0102724Y0126809D02*
X0101064Y0126809D01*
X0101064Y0127148D02*
X0102724Y0127148D01*
X0100724Y0123758D02*
X0099064Y0123758D01*
X0099064Y0127418D01*
X0100724Y0127418D01*
X0100724Y0123758D01*
X0100724Y0124097D02*
X0099064Y0124097D01*
X0099064Y0124436D02*
X0100724Y0124436D01*
X0100724Y0124775D02*
X0099064Y0124775D01*
X0099064Y0125114D02*
X0100724Y0125114D01*
X0100724Y0125453D02*
X0099064Y0125453D01*
X0099064Y0125792D02*
X0100724Y0125792D01*
X0100724Y0126131D02*
X0099064Y0126131D01*
X0099064Y0126470D02*
X0100724Y0126470D01*
X0100724Y0126809D02*
X0099064Y0126809D01*
X0099064Y0127148D02*
X0100724Y0127148D01*
X0098824Y0123758D02*
X0097164Y0123758D01*
X0097164Y0127418D01*
X0098824Y0127418D01*
X0098824Y0123758D01*
X0098824Y0124097D02*
X0097164Y0124097D01*
X0097164Y0124436D02*
X0098824Y0124436D01*
X0098824Y0124775D02*
X0097164Y0124775D01*
X0097164Y0125114D02*
X0098824Y0125114D01*
X0098824Y0125453D02*
X0097164Y0125453D01*
X0097164Y0125792D02*
X0098824Y0125792D01*
X0098824Y0126131D02*
X0097164Y0126131D01*
X0097164Y0126470D02*
X0098824Y0126470D01*
X0098824Y0126809D02*
X0097164Y0126809D01*
X0097164Y0127148D02*
X0098824Y0127148D01*
D18*
X0096210Y0123872D02*
X0096210Y0112504D01*
X0096210Y0123872D02*
X0107578Y0123872D01*
X0107578Y0112504D01*
X0096210Y0112504D01*
X0096210Y0112735D02*
X0107578Y0112735D01*
X0107578Y0112966D02*
X0096210Y0112966D01*
X0096210Y0113197D02*
X0107578Y0113197D01*
X0107578Y0113428D02*
X0096210Y0113428D01*
X0096210Y0113659D02*
X0107578Y0113659D01*
X0107578Y0113890D02*
X0096210Y0113890D01*
X0096210Y0114121D02*
X0107578Y0114121D01*
X0107578Y0114352D02*
X0096210Y0114352D01*
X0096210Y0114583D02*
X0107578Y0114583D01*
X0107578Y0114814D02*
X0096210Y0114814D01*
X0096210Y0115045D02*
X0107578Y0115045D01*
X0107578Y0115276D02*
X0096210Y0115276D01*
X0096210Y0115507D02*
X0107578Y0115507D01*
X0107578Y0115738D02*
X0096210Y0115738D01*
X0096210Y0115969D02*
X0107578Y0115969D01*
X0107578Y0116200D02*
X0096210Y0116200D01*
X0096210Y0116431D02*
X0107578Y0116431D01*
X0107578Y0116662D02*
X0096210Y0116662D01*
X0096210Y0116893D02*
X0107578Y0116893D01*
X0107578Y0117124D02*
X0096210Y0117124D01*
X0096210Y0117355D02*
X0107578Y0117355D01*
X0107578Y0117586D02*
X0096210Y0117586D01*
X0096210Y0117817D02*
X0107578Y0117817D01*
X0107578Y0118048D02*
X0096210Y0118048D01*
X0096210Y0118279D02*
X0107578Y0118279D01*
X0107578Y0118510D02*
X0096210Y0118510D01*
X0096210Y0118741D02*
X0107578Y0118741D01*
X0107578Y0118972D02*
X0096210Y0118972D01*
X0096210Y0119203D02*
X0107578Y0119203D01*
X0107578Y0119434D02*
X0096210Y0119434D01*
X0096210Y0119665D02*
X0107578Y0119665D01*
X0107578Y0119896D02*
X0096210Y0119896D01*
X0096210Y0120127D02*
X0107578Y0120127D01*
X0107578Y0120358D02*
X0096210Y0120358D01*
X0096210Y0120589D02*
X0107578Y0120589D01*
X0107578Y0120820D02*
X0096210Y0120820D01*
X0096210Y0121051D02*
X0107578Y0121051D01*
X0107578Y0121282D02*
X0096210Y0121282D01*
X0096210Y0121513D02*
X0107578Y0121513D01*
X0107578Y0121744D02*
X0096210Y0121744D01*
X0096210Y0121975D02*
X0107578Y0121975D01*
X0107578Y0122206D02*
X0096210Y0122206D01*
X0096210Y0122437D02*
X0107578Y0122437D01*
X0107578Y0122668D02*
X0096210Y0122668D01*
X0096210Y0122899D02*
X0107578Y0122899D01*
X0107578Y0123130D02*
X0096210Y0123130D01*
X0096210Y0123361D02*
X0107578Y0123361D01*
X0107578Y0123592D02*
X0096210Y0123592D01*
X0096210Y0123823D02*
X0107578Y0123823D01*
D19*
X0237720Y0127873D03*
X0237720Y0118030D03*
X0237720Y0110156D03*
X0237720Y0100314D03*
D20*
X0227484Y0088503D03*
X0227091Y0139684D03*
D21*
X0068429Y0111219D03*
D22*
X0068429Y0121219D03*
D23*
X0157294Y0123194D02*
X0157294Y0101370D01*
X0145706Y0101370D01*
X0145706Y0123194D01*
X0157294Y0123194D01*
X0157294Y0101605D02*
X0145706Y0101605D01*
X0145706Y0101840D02*
X0157294Y0101840D01*
X0157294Y0102075D02*
X0145706Y0102075D01*
X0145706Y0102310D02*
X0157294Y0102310D01*
X0157294Y0102545D02*
X0145706Y0102545D01*
X0145706Y0102780D02*
X0157294Y0102780D01*
X0157294Y0103015D02*
X0145706Y0103015D01*
X0145706Y0103250D02*
X0157294Y0103250D01*
X0157294Y0103485D02*
X0145706Y0103485D01*
X0145706Y0103720D02*
X0157294Y0103720D01*
X0157294Y0103955D02*
X0145706Y0103955D01*
X0145706Y0104190D02*
X0157294Y0104190D01*
X0157294Y0104425D02*
X0145706Y0104425D01*
X0145706Y0104660D02*
X0157294Y0104660D01*
X0157294Y0104895D02*
X0145706Y0104895D01*
X0145706Y0105130D02*
X0157294Y0105130D01*
X0157294Y0105365D02*
X0145706Y0105365D01*
X0145706Y0105600D02*
X0157294Y0105600D01*
X0157294Y0105835D02*
X0145706Y0105835D01*
X0145706Y0106070D02*
X0157294Y0106070D01*
X0157294Y0106305D02*
X0145706Y0106305D01*
X0145706Y0106540D02*
X0157294Y0106540D01*
X0157294Y0106775D02*
X0145706Y0106775D01*
X0145706Y0107010D02*
X0157294Y0107010D01*
X0157294Y0107245D02*
X0145706Y0107245D01*
X0145706Y0107480D02*
X0157294Y0107480D01*
X0157294Y0107715D02*
X0145706Y0107715D01*
X0145706Y0107950D02*
X0157294Y0107950D01*
X0157294Y0108185D02*
X0145706Y0108185D01*
X0145706Y0108420D02*
X0157294Y0108420D01*
X0157294Y0108655D02*
X0145706Y0108655D01*
X0145706Y0108890D02*
X0157294Y0108890D01*
X0157294Y0109125D02*
X0145706Y0109125D01*
X0145706Y0109360D02*
X0157294Y0109360D01*
X0157294Y0109595D02*
X0145706Y0109595D01*
X0145706Y0109830D02*
X0157294Y0109830D01*
X0157294Y0110065D02*
X0145706Y0110065D01*
X0145706Y0110300D02*
X0157294Y0110300D01*
X0157294Y0110535D02*
X0145706Y0110535D01*
X0145706Y0110770D02*
X0157294Y0110770D01*
X0157294Y0111005D02*
X0145706Y0111005D01*
X0145706Y0111240D02*
X0157294Y0111240D01*
X0157294Y0111475D02*
X0145706Y0111475D01*
X0145706Y0111710D02*
X0157294Y0111710D01*
X0157294Y0111945D02*
X0145706Y0111945D01*
X0145706Y0112180D02*
X0157294Y0112180D01*
X0157294Y0112415D02*
X0145706Y0112415D01*
X0145706Y0112650D02*
X0157294Y0112650D01*
X0157294Y0112885D02*
X0145706Y0112885D01*
X0145706Y0113120D02*
X0157294Y0113120D01*
X0157294Y0113355D02*
X0145706Y0113355D01*
X0145706Y0113590D02*
X0157294Y0113590D01*
X0157294Y0113825D02*
X0145706Y0113825D01*
X0145706Y0114060D02*
X0157294Y0114060D01*
X0157294Y0114295D02*
X0145706Y0114295D01*
X0145706Y0114530D02*
X0157294Y0114530D01*
X0157294Y0114765D02*
X0145706Y0114765D01*
X0145706Y0115000D02*
X0157294Y0115000D01*
X0157294Y0115235D02*
X0145706Y0115235D01*
X0145706Y0115470D02*
X0157294Y0115470D01*
X0157294Y0115705D02*
X0145706Y0115705D01*
X0145706Y0115940D02*
X0157294Y0115940D01*
X0157294Y0116175D02*
X0145706Y0116175D01*
X0145706Y0116410D02*
X0157294Y0116410D01*
X0157294Y0116645D02*
X0145706Y0116645D01*
X0145706Y0116880D02*
X0157294Y0116880D01*
X0157294Y0117115D02*
X0145706Y0117115D01*
X0145706Y0117350D02*
X0157294Y0117350D01*
X0157294Y0117585D02*
X0145706Y0117585D01*
X0145706Y0117820D02*
X0157294Y0117820D01*
X0157294Y0118055D02*
X0145706Y0118055D01*
X0145706Y0118290D02*
X0157294Y0118290D01*
X0157294Y0118525D02*
X0145706Y0118525D01*
X0145706Y0118760D02*
X0157294Y0118760D01*
X0157294Y0118995D02*
X0145706Y0118995D01*
X0145706Y0119230D02*
X0157294Y0119230D01*
X0157294Y0119465D02*
X0145706Y0119465D01*
X0145706Y0119700D02*
X0157294Y0119700D01*
X0157294Y0119935D02*
X0145706Y0119935D01*
X0145706Y0120170D02*
X0157294Y0120170D01*
X0157294Y0120405D02*
X0145706Y0120405D01*
X0145706Y0120640D02*
X0157294Y0120640D01*
X0157294Y0120875D02*
X0145706Y0120875D01*
X0145706Y0121110D02*
X0157294Y0121110D01*
X0157294Y0121345D02*
X0145706Y0121345D01*
X0145706Y0121580D02*
X0157294Y0121580D01*
X0157294Y0121815D02*
X0145706Y0121815D01*
X0145706Y0122050D02*
X0157294Y0122050D01*
X0157294Y0122285D02*
X0145706Y0122285D01*
X0145706Y0122520D02*
X0157294Y0122520D01*
X0157294Y0122755D02*
X0145706Y0122755D01*
X0145706Y0122990D02*
X0157294Y0122990D01*
X0195877Y0123194D02*
X0195877Y0101370D01*
X0184289Y0101370D01*
X0184289Y0123194D01*
X0195877Y0123194D01*
X0195877Y0101605D02*
X0184289Y0101605D01*
X0184289Y0101840D02*
X0195877Y0101840D01*
X0195877Y0102075D02*
X0184289Y0102075D01*
X0184289Y0102310D02*
X0195877Y0102310D01*
X0195877Y0102545D02*
X0184289Y0102545D01*
X0184289Y0102780D02*
X0195877Y0102780D01*
X0195877Y0103015D02*
X0184289Y0103015D01*
X0184289Y0103250D02*
X0195877Y0103250D01*
X0195877Y0103485D02*
X0184289Y0103485D01*
X0184289Y0103720D02*
X0195877Y0103720D01*
X0195877Y0103955D02*
X0184289Y0103955D01*
X0184289Y0104190D02*
X0195877Y0104190D01*
X0195877Y0104425D02*
X0184289Y0104425D01*
X0184289Y0104660D02*
X0195877Y0104660D01*
X0195877Y0104895D02*
X0184289Y0104895D01*
X0184289Y0105130D02*
X0195877Y0105130D01*
X0195877Y0105365D02*
X0184289Y0105365D01*
X0184289Y0105600D02*
X0195877Y0105600D01*
X0195877Y0105835D02*
X0184289Y0105835D01*
X0184289Y0106070D02*
X0195877Y0106070D01*
X0195877Y0106305D02*
X0184289Y0106305D01*
X0184289Y0106540D02*
X0195877Y0106540D01*
X0195877Y0106775D02*
X0184289Y0106775D01*
X0184289Y0107010D02*
X0195877Y0107010D01*
X0195877Y0107245D02*
X0184289Y0107245D01*
X0184289Y0107480D02*
X0195877Y0107480D01*
X0195877Y0107715D02*
X0184289Y0107715D01*
X0184289Y0107950D02*
X0195877Y0107950D01*
X0195877Y0108185D02*
X0184289Y0108185D01*
X0184289Y0108420D02*
X0195877Y0108420D01*
X0195877Y0108655D02*
X0184289Y0108655D01*
X0184289Y0108890D02*
X0195877Y0108890D01*
X0195877Y0109125D02*
X0184289Y0109125D01*
X0184289Y0109360D02*
X0195877Y0109360D01*
X0195877Y0109595D02*
X0184289Y0109595D01*
X0184289Y0109830D02*
X0195877Y0109830D01*
X0195877Y0110065D02*
X0184289Y0110065D01*
X0184289Y0110300D02*
X0195877Y0110300D01*
X0195877Y0110535D02*
X0184289Y0110535D01*
X0184289Y0110770D02*
X0195877Y0110770D01*
X0195877Y0111005D02*
X0184289Y0111005D01*
X0184289Y0111240D02*
X0195877Y0111240D01*
X0195877Y0111475D02*
X0184289Y0111475D01*
X0184289Y0111710D02*
X0195877Y0111710D01*
X0195877Y0111945D02*
X0184289Y0111945D01*
X0184289Y0112180D02*
X0195877Y0112180D01*
X0195877Y0112415D02*
X0184289Y0112415D01*
X0184289Y0112650D02*
X0195877Y0112650D01*
X0195877Y0112885D02*
X0184289Y0112885D01*
X0184289Y0113120D02*
X0195877Y0113120D01*
X0195877Y0113355D02*
X0184289Y0113355D01*
X0184289Y0113590D02*
X0195877Y0113590D01*
X0195877Y0113825D02*
X0184289Y0113825D01*
X0184289Y0114060D02*
X0195877Y0114060D01*
X0195877Y0114295D02*
X0184289Y0114295D01*
X0184289Y0114530D02*
X0195877Y0114530D01*
X0195877Y0114765D02*
X0184289Y0114765D01*
X0184289Y0115000D02*
X0195877Y0115000D01*
X0195877Y0115235D02*
X0184289Y0115235D01*
X0184289Y0115470D02*
X0195877Y0115470D01*
X0195877Y0115705D02*
X0184289Y0115705D01*
X0184289Y0115940D02*
X0195877Y0115940D01*
X0195877Y0116175D02*
X0184289Y0116175D01*
X0184289Y0116410D02*
X0195877Y0116410D01*
X0195877Y0116645D02*
X0184289Y0116645D01*
X0184289Y0116880D02*
X0195877Y0116880D01*
X0195877Y0117115D02*
X0184289Y0117115D01*
X0184289Y0117350D02*
X0195877Y0117350D01*
X0195877Y0117585D02*
X0184289Y0117585D01*
X0184289Y0117820D02*
X0195877Y0117820D01*
X0195877Y0118055D02*
X0184289Y0118055D01*
X0184289Y0118290D02*
X0195877Y0118290D01*
X0195877Y0118525D02*
X0184289Y0118525D01*
X0184289Y0118760D02*
X0195877Y0118760D01*
X0195877Y0118995D02*
X0184289Y0118995D01*
X0184289Y0119230D02*
X0195877Y0119230D01*
X0195877Y0119465D02*
X0184289Y0119465D01*
X0184289Y0119700D02*
X0195877Y0119700D01*
X0195877Y0119935D02*
X0184289Y0119935D01*
X0184289Y0120170D02*
X0195877Y0120170D01*
X0195877Y0120405D02*
X0184289Y0120405D01*
X0184289Y0120640D02*
X0195877Y0120640D01*
X0195877Y0120875D02*
X0184289Y0120875D01*
X0184289Y0121110D02*
X0195877Y0121110D01*
X0195877Y0121345D02*
X0184289Y0121345D01*
X0184289Y0121580D02*
X0195877Y0121580D01*
X0195877Y0121815D02*
X0184289Y0121815D01*
X0184289Y0122050D02*
X0195877Y0122050D01*
X0195877Y0122285D02*
X0184289Y0122285D01*
X0184289Y0122520D02*
X0195877Y0122520D01*
X0195877Y0122755D02*
X0184289Y0122755D01*
X0184289Y0122990D02*
X0195877Y0122990D01*
D24*
X0223941Y0114251D03*
X0170791Y0082755D03*
X0170791Y0068975D03*
X0139295Y0068975D03*
X0111736Y0108345D03*
X0115673Y0114251D03*
X0127484Y0122125D03*
X0123547Y0126062D03*
X0131421Y0118188D03*
X0102799Y0130353D03*
X0090083Y0118188D03*
X0082209Y0122125D03*
X0139295Y0163463D03*
M02*
