G75*
%MOIN*%
%OFA0B0*%
%FSLAX25Y25*%
%IPPOS*%
%LPD*%
%AMOC8*
5,1,8,0,0,1.08239X$1,22.5*
%
%ADD10C,0.00000*%
%ADD11C,0.00189*%
%ADD12C,0.00205*%
%ADD13C,0.00177*%
%ADD14C,0.00208*%
%ADD15C,0.00215*%
D10*
X0001500Y0057164D02*
X0001500Y0175274D01*
X0257406Y0175274D01*
X0257406Y0057164D01*
X0001500Y0057164D01*
X0222956Y0088503D02*
X0222958Y0088637D01*
X0222964Y0088771D01*
X0222974Y0088905D01*
X0222988Y0089039D01*
X0223006Y0089172D01*
X0223027Y0089304D01*
X0223053Y0089436D01*
X0223083Y0089567D01*
X0223116Y0089697D01*
X0223153Y0089825D01*
X0223195Y0089953D01*
X0223239Y0090080D01*
X0223288Y0090205D01*
X0223340Y0090328D01*
X0223396Y0090450D01*
X0223456Y0090571D01*
X0223519Y0090689D01*
X0223585Y0090806D01*
X0223655Y0090920D01*
X0223728Y0091033D01*
X0223805Y0091143D01*
X0223885Y0091251D01*
X0223968Y0091356D01*
X0224054Y0091459D01*
X0224143Y0091559D01*
X0224235Y0091657D01*
X0224330Y0091752D01*
X0224428Y0091844D01*
X0224528Y0091933D01*
X0224631Y0092019D01*
X0224736Y0092102D01*
X0224844Y0092182D01*
X0224954Y0092259D01*
X0225067Y0092332D01*
X0225181Y0092402D01*
X0225298Y0092468D01*
X0225416Y0092531D01*
X0225537Y0092591D01*
X0225659Y0092647D01*
X0225782Y0092699D01*
X0225907Y0092748D01*
X0226034Y0092792D01*
X0226162Y0092834D01*
X0226290Y0092871D01*
X0226420Y0092904D01*
X0226551Y0092934D01*
X0226683Y0092960D01*
X0226815Y0092981D01*
X0226948Y0092999D01*
X0227082Y0093013D01*
X0227216Y0093023D01*
X0227350Y0093029D01*
X0227484Y0093031D01*
X0227618Y0093029D01*
X0227752Y0093023D01*
X0227886Y0093013D01*
X0228020Y0092999D01*
X0228153Y0092981D01*
X0228285Y0092960D01*
X0228417Y0092934D01*
X0228548Y0092904D01*
X0228678Y0092871D01*
X0228806Y0092834D01*
X0228934Y0092792D01*
X0229061Y0092748D01*
X0229186Y0092699D01*
X0229309Y0092647D01*
X0229431Y0092591D01*
X0229552Y0092531D01*
X0229670Y0092468D01*
X0229787Y0092402D01*
X0229901Y0092332D01*
X0230014Y0092259D01*
X0230124Y0092182D01*
X0230232Y0092102D01*
X0230337Y0092019D01*
X0230440Y0091933D01*
X0230540Y0091844D01*
X0230638Y0091752D01*
X0230733Y0091657D01*
X0230825Y0091559D01*
X0230914Y0091459D01*
X0231000Y0091356D01*
X0231083Y0091251D01*
X0231163Y0091143D01*
X0231240Y0091033D01*
X0231313Y0090920D01*
X0231383Y0090806D01*
X0231449Y0090689D01*
X0231512Y0090571D01*
X0231572Y0090450D01*
X0231628Y0090328D01*
X0231680Y0090205D01*
X0231729Y0090080D01*
X0231773Y0089953D01*
X0231815Y0089825D01*
X0231852Y0089697D01*
X0231885Y0089567D01*
X0231915Y0089436D01*
X0231941Y0089304D01*
X0231962Y0089172D01*
X0231980Y0089039D01*
X0231994Y0088905D01*
X0232004Y0088771D01*
X0232010Y0088637D01*
X0232012Y0088503D01*
X0232010Y0088369D01*
X0232004Y0088235D01*
X0231994Y0088101D01*
X0231980Y0087967D01*
X0231962Y0087834D01*
X0231941Y0087702D01*
X0231915Y0087570D01*
X0231885Y0087439D01*
X0231852Y0087309D01*
X0231815Y0087181D01*
X0231773Y0087053D01*
X0231729Y0086926D01*
X0231680Y0086801D01*
X0231628Y0086678D01*
X0231572Y0086556D01*
X0231512Y0086435D01*
X0231449Y0086317D01*
X0231383Y0086200D01*
X0231313Y0086086D01*
X0231240Y0085973D01*
X0231163Y0085863D01*
X0231083Y0085755D01*
X0231000Y0085650D01*
X0230914Y0085547D01*
X0230825Y0085447D01*
X0230733Y0085349D01*
X0230638Y0085254D01*
X0230540Y0085162D01*
X0230440Y0085073D01*
X0230337Y0084987D01*
X0230232Y0084904D01*
X0230124Y0084824D01*
X0230014Y0084747D01*
X0229901Y0084674D01*
X0229787Y0084604D01*
X0229670Y0084538D01*
X0229552Y0084475D01*
X0229431Y0084415D01*
X0229309Y0084359D01*
X0229186Y0084307D01*
X0229061Y0084258D01*
X0228934Y0084214D01*
X0228806Y0084172D01*
X0228678Y0084135D01*
X0228548Y0084102D01*
X0228417Y0084072D01*
X0228285Y0084046D01*
X0228153Y0084025D01*
X0228020Y0084007D01*
X0227886Y0083993D01*
X0227752Y0083983D01*
X0227618Y0083977D01*
X0227484Y0083975D01*
X0227350Y0083977D01*
X0227216Y0083983D01*
X0227082Y0083993D01*
X0226948Y0084007D01*
X0226815Y0084025D01*
X0226683Y0084046D01*
X0226551Y0084072D01*
X0226420Y0084102D01*
X0226290Y0084135D01*
X0226162Y0084172D01*
X0226034Y0084214D01*
X0225907Y0084258D01*
X0225782Y0084307D01*
X0225659Y0084359D01*
X0225537Y0084415D01*
X0225416Y0084475D01*
X0225298Y0084538D01*
X0225181Y0084604D01*
X0225067Y0084674D01*
X0224954Y0084747D01*
X0224844Y0084824D01*
X0224736Y0084904D01*
X0224631Y0084987D01*
X0224528Y0085073D01*
X0224428Y0085162D01*
X0224330Y0085254D01*
X0224235Y0085349D01*
X0224143Y0085447D01*
X0224054Y0085547D01*
X0223968Y0085650D01*
X0223885Y0085755D01*
X0223805Y0085863D01*
X0223728Y0085973D01*
X0223655Y0086086D01*
X0223585Y0086200D01*
X0223519Y0086317D01*
X0223456Y0086435D01*
X0223396Y0086556D01*
X0223340Y0086678D01*
X0223288Y0086801D01*
X0223239Y0086926D01*
X0223195Y0087053D01*
X0223153Y0087181D01*
X0223116Y0087309D01*
X0223083Y0087439D01*
X0223053Y0087570D01*
X0223027Y0087702D01*
X0223006Y0087834D01*
X0222988Y0087967D01*
X0222974Y0088101D01*
X0222964Y0088235D01*
X0222958Y0088369D01*
X0222956Y0088503D01*
X0222563Y0139684D02*
X0222565Y0139818D01*
X0222571Y0139952D01*
X0222581Y0140086D01*
X0222595Y0140220D01*
X0222613Y0140353D01*
X0222634Y0140485D01*
X0222660Y0140617D01*
X0222690Y0140748D01*
X0222723Y0140878D01*
X0222760Y0141006D01*
X0222802Y0141134D01*
X0222846Y0141261D01*
X0222895Y0141386D01*
X0222947Y0141509D01*
X0223003Y0141631D01*
X0223063Y0141752D01*
X0223126Y0141870D01*
X0223192Y0141987D01*
X0223262Y0142101D01*
X0223335Y0142214D01*
X0223412Y0142324D01*
X0223492Y0142432D01*
X0223575Y0142537D01*
X0223661Y0142640D01*
X0223750Y0142740D01*
X0223842Y0142838D01*
X0223937Y0142933D01*
X0224035Y0143025D01*
X0224135Y0143114D01*
X0224238Y0143200D01*
X0224343Y0143283D01*
X0224451Y0143363D01*
X0224561Y0143440D01*
X0224674Y0143513D01*
X0224788Y0143583D01*
X0224905Y0143649D01*
X0225023Y0143712D01*
X0225144Y0143772D01*
X0225266Y0143828D01*
X0225389Y0143880D01*
X0225514Y0143929D01*
X0225641Y0143973D01*
X0225769Y0144015D01*
X0225897Y0144052D01*
X0226027Y0144085D01*
X0226158Y0144115D01*
X0226290Y0144141D01*
X0226422Y0144162D01*
X0226555Y0144180D01*
X0226689Y0144194D01*
X0226823Y0144204D01*
X0226957Y0144210D01*
X0227091Y0144212D01*
X0227225Y0144210D01*
X0227359Y0144204D01*
X0227493Y0144194D01*
X0227627Y0144180D01*
X0227760Y0144162D01*
X0227892Y0144141D01*
X0228024Y0144115D01*
X0228155Y0144085D01*
X0228285Y0144052D01*
X0228413Y0144015D01*
X0228541Y0143973D01*
X0228668Y0143929D01*
X0228793Y0143880D01*
X0228916Y0143828D01*
X0229038Y0143772D01*
X0229159Y0143712D01*
X0229277Y0143649D01*
X0229394Y0143583D01*
X0229508Y0143513D01*
X0229621Y0143440D01*
X0229731Y0143363D01*
X0229839Y0143283D01*
X0229944Y0143200D01*
X0230047Y0143114D01*
X0230147Y0143025D01*
X0230245Y0142933D01*
X0230340Y0142838D01*
X0230432Y0142740D01*
X0230521Y0142640D01*
X0230607Y0142537D01*
X0230690Y0142432D01*
X0230770Y0142324D01*
X0230847Y0142214D01*
X0230920Y0142101D01*
X0230990Y0141987D01*
X0231056Y0141870D01*
X0231119Y0141752D01*
X0231179Y0141631D01*
X0231235Y0141509D01*
X0231287Y0141386D01*
X0231336Y0141261D01*
X0231380Y0141134D01*
X0231422Y0141006D01*
X0231459Y0140878D01*
X0231492Y0140748D01*
X0231522Y0140617D01*
X0231548Y0140485D01*
X0231569Y0140353D01*
X0231587Y0140220D01*
X0231601Y0140086D01*
X0231611Y0139952D01*
X0231617Y0139818D01*
X0231619Y0139684D01*
X0231617Y0139550D01*
X0231611Y0139416D01*
X0231601Y0139282D01*
X0231587Y0139148D01*
X0231569Y0139015D01*
X0231548Y0138883D01*
X0231522Y0138751D01*
X0231492Y0138620D01*
X0231459Y0138490D01*
X0231422Y0138362D01*
X0231380Y0138234D01*
X0231336Y0138107D01*
X0231287Y0137982D01*
X0231235Y0137859D01*
X0231179Y0137737D01*
X0231119Y0137616D01*
X0231056Y0137498D01*
X0230990Y0137381D01*
X0230920Y0137267D01*
X0230847Y0137154D01*
X0230770Y0137044D01*
X0230690Y0136936D01*
X0230607Y0136831D01*
X0230521Y0136728D01*
X0230432Y0136628D01*
X0230340Y0136530D01*
X0230245Y0136435D01*
X0230147Y0136343D01*
X0230047Y0136254D01*
X0229944Y0136168D01*
X0229839Y0136085D01*
X0229731Y0136005D01*
X0229621Y0135928D01*
X0229508Y0135855D01*
X0229394Y0135785D01*
X0229277Y0135719D01*
X0229159Y0135656D01*
X0229038Y0135596D01*
X0228916Y0135540D01*
X0228793Y0135488D01*
X0228668Y0135439D01*
X0228541Y0135395D01*
X0228413Y0135353D01*
X0228285Y0135316D01*
X0228155Y0135283D01*
X0228024Y0135253D01*
X0227892Y0135227D01*
X0227760Y0135206D01*
X0227627Y0135188D01*
X0227493Y0135174D01*
X0227359Y0135164D01*
X0227225Y0135158D01*
X0227091Y0135156D01*
X0226957Y0135158D01*
X0226823Y0135164D01*
X0226689Y0135174D01*
X0226555Y0135188D01*
X0226422Y0135206D01*
X0226290Y0135227D01*
X0226158Y0135253D01*
X0226027Y0135283D01*
X0225897Y0135316D01*
X0225769Y0135353D01*
X0225641Y0135395D01*
X0225514Y0135439D01*
X0225389Y0135488D01*
X0225266Y0135540D01*
X0225144Y0135596D01*
X0225023Y0135656D01*
X0224905Y0135719D01*
X0224788Y0135785D01*
X0224674Y0135855D01*
X0224561Y0135928D01*
X0224451Y0136005D01*
X0224343Y0136085D01*
X0224238Y0136168D01*
X0224135Y0136254D01*
X0224035Y0136343D01*
X0223937Y0136435D01*
X0223842Y0136530D01*
X0223750Y0136628D01*
X0223661Y0136728D01*
X0223575Y0136831D01*
X0223492Y0136936D01*
X0223412Y0137044D01*
X0223335Y0137154D01*
X0223262Y0137267D01*
X0223192Y0137381D01*
X0223126Y0137498D01*
X0223063Y0137616D01*
X0223003Y0137737D01*
X0222947Y0137859D01*
X0222895Y0137982D01*
X0222846Y0138107D01*
X0222802Y0138234D01*
X0222760Y0138362D01*
X0222723Y0138490D01*
X0222690Y0138620D01*
X0222660Y0138751D01*
X0222634Y0138883D01*
X0222613Y0139015D01*
X0222595Y0139148D01*
X0222581Y0139282D01*
X0222571Y0139416D01*
X0222565Y0139550D01*
X0222563Y0139684D01*
D11*
X0191169Y0137188D02*
X0185059Y0137188D01*
X0191169Y0137188D02*
X0191169Y0126746D01*
X0185059Y0126746D01*
X0185059Y0137188D01*
X0185059Y0126934D02*
X0191169Y0126934D01*
X0191169Y0127122D02*
X0185059Y0127122D01*
X0185059Y0127310D02*
X0191169Y0127310D01*
X0191169Y0127498D02*
X0185059Y0127498D01*
X0185059Y0127686D02*
X0191169Y0127686D01*
X0191169Y0127874D02*
X0185059Y0127874D01*
X0185059Y0128062D02*
X0191169Y0128062D01*
X0191169Y0128250D02*
X0185059Y0128250D01*
X0185059Y0128438D02*
X0191169Y0128438D01*
X0191169Y0128626D02*
X0185059Y0128626D01*
X0185059Y0128814D02*
X0191169Y0128814D01*
X0191169Y0129002D02*
X0185059Y0129002D01*
X0185059Y0129190D02*
X0191169Y0129190D01*
X0191169Y0129378D02*
X0185059Y0129378D01*
X0185059Y0129566D02*
X0191169Y0129566D01*
X0191169Y0129754D02*
X0185059Y0129754D01*
X0185059Y0129942D02*
X0191169Y0129942D01*
X0191169Y0130130D02*
X0185059Y0130130D01*
X0185059Y0130318D02*
X0191169Y0130318D01*
X0191169Y0130506D02*
X0185059Y0130506D01*
X0185059Y0130694D02*
X0191169Y0130694D01*
X0191169Y0130882D02*
X0185059Y0130882D01*
X0185059Y0131070D02*
X0191169Y0131070D01*
X0191169Y0131258D02*
X0185059Y0131258D01*
X0185059Y0131446D02*
X0191169Y0131446D01*
X0191169Y0131634D02*
X0185059Y0131634D01*
X0185059Y0131822D02*
X0191169Y0131822D01*
X0191169Y0132010D02*
X0185059Y0132010D01*
X0185059Y0132198D02*
X0191169Y0132198D01*
X0191169Y0132386D02*
X0185059Y0132386D01*
X0185059Y0132574D02*
X0191169Y0132574D01*
X0191169Y0132762D02*
X0185059Y0132762D01*
X0185059Y0132950D02*
X0191169Y0132950D01*
X0191169Y0133138D02*
X0185059Y0133138D01*
X0185059Y0133326D02*
X0191169Y0133326D01*
X0191169Y0133514D02*
X0185059Y0133514D01*
X0185059Y0133702D02*
X0191169Y0133702D01*
X0191169Y0133890D02*
X0185059Y0133890D01*
X0185059Y0134078D02*
X0191169Y0134078D01*
X0191169Y0134266D02*
X0185059Y0134266D01*
X0185059Y0134454D02*
X0191169Y0134454D01*
X0191169Y0134642D02*
X0185059Y0134642D01*
X0185059Y0134830D02*
X0191169Y0134830D01*
X0191169Y0135018D02*
X0185059Y0135018D01*
X0185059Y0135206D02*
X0191169Y0135206D01*
X0191169Y0135394D02*
X0185059Y0135394D01*
X0185059Y0135582D02*
X0191169Y0135582D01*
X0191169Y0135770D02*
X0185059Y0135770D01*
X0185059Y0135958D02*
X0191169Y0135958D01*
X0191169Y0136146D02*
X0185059Y0136146D01*
X0185059Y0136334D02*
X0191169Y0136334D01*
X0191169Y0136522D02*
X0185059Y0136522D01*
X0185059Y0136710D02*
X0191169Y0136710D01*
X0191169Y0136898D02*
X0185059Y0136898D01*
X0185059Y0137086D02*
X0191169Y0137086D01*
X0180146Y0137188D02*
X0174036Y0137188D01*
X0180146Y0137188D02*
X0180146Y0126746D01*
X0174036Y0126746D01*
X0174036Y0137188D01*
X0174036Y0126934D02*
X0180146Y0126934D01*
X0180146Y0127122D02*
X0174036Y0127122D01*
X0174036Y0127310D02*
X0180146Y0127310D01*
X0180146Y0127498D02*
X0174036Y0127498D01*
X0174036Y0127686D02*
X0180146Y0127686D01*
X0180146Y0127874D02*
X0174036Y0127874D01*
X0174036Y0128062D02*
X0180146Y0128062D01*
X0180146Y0128250D02*
X0174036Y0128250D01*
X0174036Y0128438D02*
X0180146Y0128438D01*
X0180146Y0128626D02*
X0174036Y0128626D01*
X0174036Y0128814D02*
X0180146Y0128814D01*
X0180146Y0129002D02*
X0174036Y0129002D01*
X0174036Y0129190D02*
X0180146Y0129190D01*
X0180146Y0129378D02*
X0174036Y0129378D01*
X0174036Y0129566D02*
X0180146Y0129566D01*
X0180146Y0129754D02*
X0174036Y0129754D01*
X0174036Y0129942D02*
X0180146Y0129942D01*
X0180146Y0130130D02*
X0174036Y0130130D01*
X0174036Y0130318D02*
X0180146Y0130318D01*
X0180146Y0130506D02*
X0174036Y0130506D01*
X0174036Y0130694D02*
X0180146Y0130694D01*
X0180146Y0130882D02*
X0174036Y0130882D01*
X0174036Y0131070D02*
X0180146Y0131070D01*
X0180146Y0131258D02*
X0174036Y0131258D01*
X0174036Y0131446D02*
X0180146Y0131446D01*
X0180146Y0131634D02*
X0174036Y0131634D01*
X0174036Y0131822D02*
X0180146Y0131822D01*
X0180146Y0132010D02*
X0174036Y0132010D01*
X0174036Y0132198D02*
X0180146Y0132198D01*
X0180146Y0132386D02*
X0174036Y0132386D01*
X0174036Y0132574D02*
X0180146Y0132574D01*
X0180146Y0132762D02*
X0174036Y0132762D01*
X0174036Y0132950D02*
X0180146Y0132950D01*
X0180146Y0133138D02*
X0174036Y0133138D01*
X0174036Y0133326D02*
X0180146Y0133326D01*
X0180146Y0133514D02*
X0174036Y0133514D01*
X0174036Y0133702D02*
X0180146Y0133702D01*
X0180146Y0133890D02*
X0174036Y0133890D01*
X0174036Y0134078D02*
X0180146Y0134078D01*
X0180146Y0134266D02*
X0174036Y0134266D01*
X0174036Y0134454D02*
X0180146Y0134454D01*
X0180146Y0134642D02*
X0174036Y0134642D01*
X0174036Y0134830D02*
X0180146Y0134830D01*
X0180146Y0135018D02*
X0174036Y0135018D01*
X0174036Y0135206D02*
X0180146Y0135206D01*
X0180146Y0135394D02*
X0174036Y0135394D01*
X0174036Y0135582D02*
X0180146Y0135582D01*
X0180146Y0135770D02*
X0174036Y0135770D01*
X0174036Y0135958D02*
X0180146Y0135958D01*
X0180146Y0136146D02*
X0174036Y0136146D01*
X0174036Y0136334D02*
X0180146Y0136334D01*
X0180146Y0136522D02*
X0174036Y0136522D01*
X0174036Y0136710D02*
X0180146Y0136710D01*
X0180146Y0136898D02*
X0174036Y0136898D01*
X0174036Y0137086D02*
X0180146Y0137086D01*
X0167547Y0087376D02*
X0161437Y0087376D01*
X0161437Y0097818D01*
X0167547Y0097818D01*
X0167547Y0087376D01*
X0167547Y0087564D02*
X0161437Y0087564D01*
X0161437Y0087752D02*
X0167547Y0087752D01*
X0167547Y0087940D02*
X0161437Y0087940D01*
X0161437Y0088128D02*
X0167547Y0088128D01*
X0167547Y0088316D02*
X0161437Y0088316D01*
X0161437Y0088504D02*
X0167547Y0088504D01*
X0167547Y0088692D02*
X0161437Y0088692D01*
X0161437Y0088880D02*
X0167547Y0088880D01*
X0167547Y0089068D02*
X0161437Y0089068D01*
X0161437Y0089256D02*
X0167547Y0089256D01*
X0167547Y0089444D02*
X0161437Y0089444D01*
X0161437Y0089632D02*
X0167547Y0089632D01*
X0167547Y0089820D02*
X0161437Y0089820D01*
X0161437Y0090008D02*
X0167547Y0090008D01*
X0167547Y0090196D02*
X0161437Y0090196D01*
X0161437Y0090384D02*
X0167547Y0090384D01*
X0167547Y0090572D02*
X0161437Y0090572D01*
X0161437Y0090760D02*
X0167547Y0090760D01*
X0167547Y0090948D02*
X0161437Y0090948D01*
X0161437Y0091136D02*
X0167547Y0091136D01*
X0167547Y0091324D02*
X0161437Y0091324D01*
X0161437Y0091512D02*
X0167547Y0091512D01*
X0167547Y0091700D02*
X0161437Y0091700D01*
X0161437Y0091888D02*
X0167547Y0091888D01*
X0167547Y0092076D02*
X0161437Y0092076D01*
X0161437Y0092264D02*
X0167547Y0092264D01*
X0167547Y0092452D02*
X0161437Y0092452D01*
X0161437Y0092640D02*
X0167547Y0092640D01*
X0167547Y0092828D02*
X0161437Y0092828D01*
X0161437Y0093016D02*
X0167547Y0093016D01*
X0167547Y0093204D02*
X0161437Y0093204D01*
X0161437Y0093392D02*
X0167547Y0093392D01*
X0167547Y0093580D02*
X0161437Y0093580D01*
X0161437Y0093768D02*
X0167547Y0093768D01*
X0167547Y0093956D02*
X0161437Y0093956D01*
X0161437Y0094144D02*
X0167547Y0094144D01*
X0167547Y0094332D02*
X0161437Y0094332D01*
X0161437Y0094520D02*
X0167547Y0094520D01*
X0167547Y0094708D02*
X0161437Y0094708D01*
X0161437Y0094896D02*
X0167547Y0094896D01*
X0167547Y0095084D02*
X0161437Y0095084D01*
X0161437Y0095272D02*
X0167547Y0095272D01*
X0167547Y0095460D02*
X0161437Y0095460D01*
X0161437Y0095648D02*
X0167547Y0095648D01*
X0167547Y0095836D02*
X0161437Y0095836D01*
X0161437Y0096024D02*
X0167547Y0096024D01*
X0167547Y0096212D02*
X0161437Y0096212D01*
X0161437Y0096400D02*
X0167547Y0096400D01*
X0167547Y0096588D02*
X0161437Y0096588D01*
X0161437Y0096776D02*
X0167547Y0096776D01*
X0167547Y0096964D02*
X0161437Y0096964D01*
X0161437Y0097152D02*
X0167547Y0097152D01*
X0167547Y0097340D02*
X0161437Y0097340D01*
X0161437Y0097528D02*
X0167547Y0097528D01*
X0167547Y0097716D02*
X0161437Y0097716D01*
X0156524Y0087376D02*
X0150414Y0087376D01*
X0150414Y0097818D01*
X0156524Y0097818D01*
X0156524Y0087376D01*
X0156524Y0087564D02*
X0150414Y0087564D01*
X0150414Y0087752D02*
X0156524Y0087752D01*
X0156524Y0087940D02*
X0150414Y0087940D01*
X0150414Y0088128D02*
X0156524Y0088128D01*
X0156524Y0088316D02*
X0150414Y0088316D01*
X0150414Y0088504D02*
X0156524Y0088504D01*
X0156524Y0088692D02*
X0150414Y0088692D01*
X0150414Y0088880D02*
X0156524Y0088880D01*
X0156524Y0089068D02*
X0150414Y0089068D01*
X0150414Y0089256D02*
X0156524Y0089256D01*
X0156524Y0089444D02*
X0150414Y0089444D01*
X0150414Y0089632D02*
X0156524Y0089632D01*
X0156524Y0089820D02*
X0150414Y0089820D01*
X0150414Y0090008D02*
X0156524Y0090008D01*
X0156524Y0090196D02*
X0150414Y0090196D01*
X0150414Y0090384D02*
X0156524Y0090384D01*
X0156524Y0090572D02*
X0150414Y0090572D01*
X0150414Y0090760D02*
X0156524Y0090760D01*
X0156524Y0090948D02*
X0150414Y0090948D01*
X0150414Y0091136D02*
X0156524Y0091136D01*
X0156524Y0091324D02*
X0150414Y0091324D01*
X0150414Y0091512D02*
X0156524Y0091512D01*
X0156524Y0091700D02*
X0150414Y0091700D01*
X0150414Y0091888D02*
X0156524Y0091888D01*
X0156524Y0092076D02*
X0150414Y0092076D01*
X0150414Y0092264D02*
X0156524Y0092264D01*
X0156524Y0092452D02*
X0150414Y0092452D01*
X0150414Y0092640D02*
X0156524Y0092640D01*
X0156524Y0092828D02*
X0150414Y0092828D01*
X0150414Y0093016D02*
X0156524Y0093016D01*
X0156524Y0093204D02*
X0150414Y0093204D01*
X0150414Y0093392D02*
X0156524Y0093392D01*
X0156524Y0093580D02*
X0150414Y0093580D01*
X0150414Y0093768D02*
X0156524Y0093768D01*
X0156524Y0093956D02*
X0150414Y0093956D01*
X0150414Y0094144D02*
X0156524Y0094144D01*
X0156524Y0094332D02*
X0150414Y0094332D01*
X0150414Y0094520D02*
X0156524Y0094520D01*
X0156524Y0094708D02*
X0150414Y0094708D01*
X0150414Y0094896D02*
X0156524Y0094896D01*
X0156524Y0095084D02*
X0150414Y0095084D01*
X0150414Y0095272D02*
X0156524Y0095272D01*
X0156524Y0095460D02*
X0150414Y0095460D01*
X0150414Y0095648D02*
X0156524Y0095648D01*
X0156524Y0095836D02*
X0150414Y0095836D01*
X0150414Y0096024D02*
X0156524Y0096024D01*
X0156524Y0096212D02*
X0150414Y0096212D01*
X0150414Y0096400D02*
X0156524Y0096400D01*
X0156524Y0096588D02*
X0150414Y0096588D01*
X0150414Y0096776D02*
X0156524Y0096776D01*
X0156524Y0096964D02*
X0150414Y0096964D01*
X0150414Y0097152D02*
X0156524Y0097152D01*
X0156524Y0097340D02*
X0150414Y0097340D01*
X0150414Y0097528D02*
X0156524Y0097528D01*
X0156524Y0097716D02*
X0150414Y0097716D01*
D12*
X0150020Y0104117D02*
X0150020Y0109031D01*
X0150020Y0104117D02*
X0144318Y0104117D01*
X0144318Y0109031D01*
X0150020Y0109031D01*
X0150020Y0104321D02*
X0144318Y0104321D01*
X0144318Y0104525D02*
X0150020Y0104525D01*
X0150020Y0104729D02*
X0144318Y0104729D01*
X0144318Y0104933D02*
X0150020Y0104933D01*
X0150020Y0105137D02*
X0144318Y0105137D01*
X0144318Y0105341D02*
X0150020Y0105341D01*
X0150020Y0105545D02*
X0144318Y0105545D01*
X0144318Y0105749D02*
X0150020Y0105749D01*
X0150020Y0105953D02*
X0144318Y0105953D01*
X0144318Y0106157D02*
X0150020Y0106157D01*
X0150020Y0106361D02*
X0144318Y0106361D01*
X0144318Y0106565D02*
X0150020Y0106565D01*
X0150020Y0106769D02*
X0144318Y0106769D01*
X0144318Y0106973D02*
X0150020Y0106973D01*
X0150020Y0107177D02*
X0144318Y0107177D01*
X0144318Y0107381D02*
X0150020Y0107381D01*
X0150020Y0107585D02*
X0144318Y0107585D01*
X0144318Y0107789D02*
X0150020Y0107789D01*
X0150020Y0107993D02*
X0144318Y0107993D01*
X0144318Y0108197D02*
X0150020Y0108197D01*
X0150020Y0108401D02*
X0144318Y0108401D01*
X0144318Y0108605D02*
X0150020Y0108605D01*
X0150020Y0108809D02*
X0144318Y0108809D01*
X0144318Y0109013D02*
X0150020Y0109013D01*
X0150020Y0111597D02*
X0150020Y0116511D01*
X0150020Y0111597D02*
X0144318Y0111597D01*
X0144318Y0116511D01*
X0150020Y0116511D01*
X0150020Y0111801D02*
X0144318Y0111801D01*
X0144318Y0112005D02*
X0150020Y0112005D01*
X0150020Y0112209D02*
X0144318Y0112209D01*
X0144318Y0112413D02*
X0150020Y0112413D01*
X0150020Y0112617D02*
X0144318Y0112617D01*
X0144318Y0112821D02*
X0150020Y0112821D01*
X0150020Y0113025D02*
X0144318Y0113025D01*
X0144318Y0113229D02*
X0150020Y0113229D01*
X0150020Y0113433D02*
X0144318Y0113433D01*
X0144318Y0113637D02*
X0150020Y0113637D01*
X0150020Y0113841D02*
X0144318Y0113841D01*
X0144318Y0114045D02*
X0150020Y0114045D01*
X0150020Y0114249D02*
X0144318Y0114249D01*
X0144318Y0114453D02*
X0150020Y0114453D01*
X0150020Y0114657D02*
X0144318Y0114657D01*
X0144318Y0114861D02*
X0150020Y0114861D01*
X0150020Y0115065D02*
X0144318Y0115065D01*
X0144318Y0115269D02*
X0150020Y0115269D01*
X0150020Y0115473D02*
X0144318Y0115473D01*
X0144318Y0115677D02*
X0150020Y0115677D01*
X0150020Y0115881D02*
X0144318Y0115881D01*
X0144318Y0116085D02*
X0150020Y0116085D01*
X0150020Y0116289D02*
X0144318Y0116289D01*
X0144318Y0116493D02*
X0150020Y0116493D01*
X0148846Y0127148D02*
X0153760Y0127148D01*
X0148846Y0127148D02*
X0148846Y0132850D01*
X0153760Y0132850D01*
X0153760Y0127148D01*
X0153760Y0127352D02*
X0148846Y0127352D01*
X0148846Y0127556D02*
X0153760Y0127556D01*
X0153760Y0127760D02*
X0148846Y0127760D01*
X0148846Y0127964D02*
X0153760Y0127964D01*
X0153760Y0128168D02*
X0148846Y0128168D01*
X0148846Y0128372D02*
X0153760Y0128372D01*
X0153760Y0128576D02*
X0148846Y0128576D01*
X0148846Y0128780D02*
X0153760Y0128780D01*
X0153760Y0128984D02*
X0148846Y0128984D01*
X0148846Y0129188D02*
X0153760Y0129188D01*
X0153760Y0129392D02*
X0148846Y0129392D01*
X0148846Y0129596D02*
X0153760Y0129596D01*
X0153760Y0129800D02*
X0148846Y0129800D01*
X0148846Y0130004D02*
X0153760Y0130004D01*
X0153760Y0130208D02*
X0148846Y0130208D01*
X0148846Y0130412D02*
X0153760Y0130412D01*
X0153760Y0130616D02*
X0148846Y0130616D01*
X0148846Y0130820D02*
X0153760Y0130820D01*
X0153760Y0131024D02*
X0148846Y0131024D01*
X0148846Y0131228D02*
X0153760Y0131228D01*
X0153760Y0131432D02*
X0148846Y0131432D01*
X0148846Y0131636D02*
X0153760Y0131636D01*
X0153760Y0131840D02*
X0148846Y0131840D01*
X0148846Y0132044D02*
X0153760Y0132044D01*
X0153760Y0132248D02*
X0148846Y0132248D01*
X0148846Y0132452D02*
X0153760Y0132452D01*
X0153760Y0132656D02*
X0148846Y0132656D01*
X0156326Y0127148D02*
X0161240Y0127148D01*
X0156326Y0127148D02*
X0156326Y0132850D01*
X0161240Y0132850D01*
X0161240Y0127148D01*
X0161240Y0127352D02*
X0156326Y0127352D01*
X0156326Y0127556D02*
X0161240Y0127556D01*
X0161240Y0127760D02*
X0156326Y0127760D01*
X0156326Y0127964D02*
X0161240Y0127964D01*
X0161240Y0128168D02*
X0156326Y0128168D01*
X0156326Y0128372D02*
X0161240Y0128372D01*
X0161240Y0128576D02*
X0156326Y0128576D01*
X0156326Y0128780D02*
X0161240Y0128780D01*
X0161240Y0128984D02*
X0156326Y0128984D01*
X0156326Y0129188D02*
X0161240Y0129188D01*
X0161240Y0129392D02*
X0156326Y0129392D01*
X0156326Y0129596D02*
X0161240Y0129596D01*
X0161240Y0129800D02*
X0156326Y0129800D01*
X0156326Y0130004D02*
X0161240Y0130004D01*
X0161240Y0130208D02*
X0156326Y0130208D01*
X0156326Y0130412D02*
X0161240Y0130412D01*
X0161240Y0130616D02*
X0156326Y0130616D01*
X0156326Y0130820D02*
X0161240Y0130820D01*
X0161240Y0131024D02*
X0156326Y0131024D01*
X0156326Y0131228D02*
X0161240Y0131228D01*
X0161240Y0131432D02*
X0156326Y0131432D01*
X0156326Y0131636D02*
X0161240Y0131636D01*
X0161240Y0131840D02*
X0156326Y0131840D01*
X0156326Y0132044D02*
X0161240Y0132044D01*
X0161240Y0132248D02*
X0156326Y0132248D01*
X0156326Y0132452D02*
X0161240Y0132452D01*
X0161240Y0132656D02*
X0156326Y0132656D01*
X0197264Y0110605D02*
X0197264Y0105691D01*
X0191562Y0105691D01*
X0191562Y0110605D01*
X0197264Y0110605D01*
X0197264Y0105895D02*
X0191562Y0105895D01*
X0191562Y0106099D02*
X0197264Y0106099D01*
X0197264Y0106303D02*
X0191562Y0106303D01*
X0191562Y0106507D02*
X0197264Y0106507D01*
X0197264Y0106711D02*
X0191562Y0106711D01*
X0191562Y0106915D02*
X0197264Y0106915D01*
X0197264Y0107119D02*
X0191562Y0107119D01*
X0191562Y0107323D02*
X0197264Y0107323D01*
X0197264Y0107527D02*
X0191562Y0107527D01*
X0191562Y0107731D02*
X0197264Y0107731D01*
X0197264Y0107935D02*
X0191562Y0107935D01*
X0191562Y0108139D02*
X0197264Y0108139D01*
X0197264Y0108343D02*
X0191562Y0108343D01*
X0191562Y0108547D02*
X0197264Y0108547D01*
X0197264Y0108751D02*
X0191562Y0108751D01*
X0191562Y0108955D02*
X0197264Y0108955D01*
X0197264Y0109159D02*
X0191562Y0109159D01*
X0191562Y0109363D02*
X0197264Y0109363D01*
X0197264Y0109567D02*
X0191562Y0109567D01*
X0191562Y0109771D02*
X0197264Y0109771D01*
X0197264Y0109975D02*
X0191562Y0109975D01*
X0191562Y0110179D02*
X0197264Y0110179D01*
X0197264Y0110383D02*
X0191562Y0110383D01*
X0191562Y0110587D02*
X0197264Y0110587D01*
X0197264Y0103125D02*
X0197264Y0098211D01*
X0191562Y0098211D01*
X0191562Y0103125D01*
X0197264Y0103125D01*
X0197264Y0098415D02*
X0191562Y0098415D01*
X0191562Y0098619D02*
X0197264Y0098619D01*
X0197264Y0098823D02*
X0191562Y0098823D01*
X0191562Y0099027D02*
X0197264Y0099027D01*
X0197264Y0099231D02*
X0191562Y0099231D01*
X0191562Y0099435D02*
X0197264Y0099435D01*
X0197264Y0099639D02*
X0191562Y0099639D01*
X0191562Y0099843D02*
X0197264Y0099843D01*
X0197264Y0100047D02*
X0191562Y0100047D01*
X0191562Y0100251D02*
X0197264Y0100251D01*
X0197264Y0100455D02*
X0191562Y0100455D01*
X0191562Y0100659D02*
X0197264Y0100659D01*
X0197264Y0100863D02*
X0191562Y0100863D01*
X0191562Y0101067D02*
X0197264Y0101067D01*
X0197264Y0101271D02*
X0191562Y0101271D01*
X0191562Y0101475D02*
X0197264Y0101475D01*
X0197264Y0101679D02*
X0191562Y0101679D01*
X0191562Y0101883D02*
X0197264Y0101883D01*
X0197264Y0102087D02*
X0191562Y0102087D01*
X0191562Y0102291D02*
X0197264Y0102291D01*
X0197264Y0102495D02*
X0191562Y0102495D01*
X0191562Y0102699D02*
X0197264Y0102699D01*
X0197264Y0102903D02*
X0191562Y0102903D01*
X0191562Y0103107D02*
X0197264Y0103107D01*
X0100217Y0095652D02*
X0095303Y0095652D01*
X0095303Y0101354D01*
X0100217Y0101354D01*
X0100217Y0095652D01*
X0100217Y0095856D02*
X0095303Y0095856D01*
X0095303Y0096060D02*
X0100217Y0096060D01*
X0100217Y0096264D02*
X0095303Y0096264D01*
X0095303Y0096468D02*
X0100217Y0096468D01*
X0100217Y0096672D02*
X0095303Y0096672D01*
X0095303Y0096876D02*
X0100217Y0096876D01*
X0100217Y0097080D02*
X0095303Y0097080D01*
X0095303Y0097284D02*
X0100217Y0097284D01*
X0100217Y0097488D02*
X0095303Y0097488D01*
X0095303Y0097692D02*
X0100217Y0097692D01*
X0100217Y0097896D02*
X0095303Y0097896D01*
X0095303Y0098100D02*
X0100217Y0098100D01*
X0100217Y0098304D02*
X0095303Y0098304D01*
X0095303Y0098508D02*
X0100217Y0098508D01*
X0100217Y0098712D02*
X0095303Y0098712D01*
X0095303Y0098916D02*
X0100217Y0098916D01*
X0100217Y0099120D02*
X0095303Y0099120D01*
X0095303Y0099324D02*
X0100217Y0099324D01*
X0100217Y0099528D02*
X0095303Y0099528D01*
X0095303Y0099732D02*
X0100217Y0099732D01*
X0100217Y0099936D02*
X0095303Y0099936D01*
X0095303Y0100140D02*
X0100217Y0100140D01*
X0100217Y0100344D02*
X0095303Y0100344D01*
X0095303Y0100548D02*
X0100217Y0100548D01*
X0100217Y0100752D02*
X0095303Y0100752D01*
X0095303Y0100956D02*
X0100217Y0100956D01*
X0100217Y0101160D02*
X0095303Y0101160D01*
X0092737Y0095652D02*
X0087823Y0095652D01*
X0087823Y0101354D01*
X0092737Y0101354D01*
X0092737Y0095652D01*
X0092737Y0095856D02*
X0087823Y0095856D01*
X0087823Y0096060D02*
X0092737Y0096060D01*
X0092737Y0096264D02*
X0087823Y0096264D01*
X0087823Y0096468D02*
X0092737Y0096468D01*
X0092737Y0096672D02*
X0087823Y0096672D01*
X0087823Y0096876D02*
X0092737Y0096876D01*
X0092737Y0097080D02*
X0087823Y0097080D01*
X0087823Y0097284D02*
X0092737Y0097284D01*
X0092737Y0097488D02*
X0087823Y0097488D01*
X0087823Y0097692D02*
X0092737Y0097692D01*
X0092737Y0097896D02*
X0087823Y0097896D01*
X0087823Y0098100D02*
X0092737Y0098100D01*
X0092737Y0098304D02*
X0087823Y0098304D01*
X0087823Y0098508D02*
X0092737Y0098508D01*
X0092737Y0098712D02*
X0087823Y0098712D01*
X0087823Y0098916D02*
X0092737Y0098916D01*
X0092737Y0099120D02*
X0087823Y0099120D01*
X0087823Y0099324D02*
X0092737Y0099324D01*
X0092737Y0099528D02*
X0087823Y0099528D01*
X0087823Y0099732D02*
X0092737Y0099732D01*
X0092737Y0099936D02*
X0087823Y0099936D01*
X0087823Y0100140D02*
X0092737Y0100140D01*
X0092737Y0100344D02*
X0087823Y0100344D01*
X0087823Y0100548D02*
X0092737Y0100548D01*
X0092737Y0100752D02*
X0087823Y0100752D01*
X0087823Y0100956D02*
X0092737Y0100956D01*
X0092737Y0101160D02*
X0087823Y0101160D01*
X0087823Y0081872D02*
X0092737Y0081872D01*
X0087823Y0081872D02*
X0087823Y0087574D01*
X0092737Y0087574D01*
X0092737Y0081872D01*
X0092737Y0082076D02*
X0087823Y0082076D01*
X0087823Y0082280D02*
X0092737Y0082280D01*
X0092737Y0082484D02*
X0087823Y0082484D01*
X0087823Y0082688D02*
X0092737Y0082688D01*
X0092737Y0082892D02*
X0087823Y0082892D01*
X0087823Y0083096D02*
X0092737Y0083096D01*
X0092737Y0083300D02*
X0087823Y0083300D01*
X0087823Y0083504D02*
X0092737Y0083504D01*
X0092737Y0083708D02*
X0087823Y0083708D01*
X0087823Y0083912D02*
X0092737Y0083912D01*
X0092737Y0084116D02*
X0087823Y0084116D01*
X0087823Y0084320D02*
X0092737Y0084320D01*
X0092737Y0084524D02*
X0087823Y0084524D01*
X0087823Y0084728D02*
X0092737Y0084728D01*
X0092737Y0084932D02*
X0087823Y0084932D01*
X0087823Y0085136D02*
X0092737Y0085136D01*
X0092737Y0085340D02*
X0087823Y0085340D01*
X0087823Y0085544D02*
X0092737Y0085544D01*
X0092737Y0085748D02*
X0087823Y0085748D01*
X0087823Y0085952D02*
X0092737Y0085952D01*
X0092737Y0086156D02*
X0087823Y0086156D01*
X0087823Y0086360D02*
X0092737Y0086360D01*
X0092737Y0086564D02*
X0087823Y0086564D01*
X0087823Y0086768D02*
X0092737Y0086768D01*
X0092737Y0086972D02*
X0087823Y0086972D01*
X0087823Y0087176D02*
X0092737Y0087176D01*
X0092737Y0087380D02*
X0087823Y0087380D01*
X0095303Y0081872D02*
X0100217Y0081872D01*
X0095303Y0081872D02*
X0095303Y0087574D01*
X0100217Y0087574D01*
X0100217Y0081872D01*
X0100217Y0082076D02*
X0095303Y0082076D01*
X0095303Y0082280D02*
X0100217Y0082280D01*
X0100217Y0082484D02*
X0095303Y0082484D01*
X0095303Y0082688D02*
X0100217Y0082688D01*
X0100217Y0082892D02*
X0095303Y0082892D01*
X0095303Y0083096D02*
X0100217Y0083096D01*
X0100217Y0083300D02*
X0095303Y0083300D01*
X0095303Y0083504D02*
X0100217Y0083504D01*
X0100217Y0083708D02*
X0095303Y0083708D01*
X0095303Y0083912D02*
X0100217Y0083912D01*
X0100217Y0084116D02*
X0095303Y0084116D01*
X0095303Y0084320D02*
X0100217Y0084320D01*
X0100217Y0084524D02*
X0095303Y0084524D01*
X0095303Y0084728D02*
X0100217Y0084728D01*
X0100217Y0084932D02*
X0095303Y0084932D01*
X0095303Y0085136D02*
X0100217Y0085136D01*
X0100217Y0085340D02*
X0095303Y0085340D01*
X0095303Y0085544D02*
X0100217Y0085544D01*
X0100217Y0085748D02*
X0095303Y0085748D01*
X0095303Y0085952D02*
X0100217Y0085952D01*
X0100217Y0086156D02*
X0095303Y0086156D01*
X0095303Y0086360D02*
X0100217Y0086360D01*
X0100217Y0086564D02*
X0095303Y0086564D01*
X0095303Y0086768D02*
X0100217Y0086768D01*
X0100217Y0086972D02*
X0095303Y0086972D01*
X0095303Y0087176D02*
X0100217Y0087176D01*
X0100217Y0087380D02*
X0095303Y0087380D01*
X0095303Y0068093D02*
X0100217Y0068093D01*
X0095303Y0068093D02*
X0095303Y0073795D01*
X0100217Y0073795D01*
X0100217Y0068093D01*
X0100217Y0068297D02*
X0095303Y0068297D01*
X0095303Y0068501D02*
X0100217Y0068501D01*
X0100217Y0068705D02*
X0095303Y0068705D01*
X0095303Y0068909D02*
X0100217Y0068909D01*
X0100217Y0069113D02*
X0095303Y0069113D01*
X0095303Y0069317D02*
X0100217Y0069317D01*
X0100217Y0069521D02*
X0095303Y0069521D01*
X0095303Y0069725D02*
X0100217Y0069725D01*
X0100217Y0069929D02*
X0095303Y0069929D01*
X0095303Y0070133D02*
X0100217Y0070133D01*
X0100217Y0070337D02*
X0095303Y0070337D01*
X0095303Y0070541D02*
X0100217Y0070541D01*
X0100217Y0070745D02*
X0095303Y0070745D01*
X0095303Y0070949D02*
X0100217Y0070949D01*
X0100217Y0071153D02*
X0095303Y0071153D01*
X0095303Y0071357D02*
X0100217Y0071357D01*
X0100217Y0071561D02*
X0095303Y0071561D01*
X0095303Y0071765D02*
X0100217Y0071765D01*
X0100217Y0071969D02*
X0095303Y0071969D01*
X0095303Y0072173D02*
X0100217Y0072173D01*
X0100217Y0072377D02*
X0095303Y0072377D01*
X0095303Y0072581D02*
X0100217Y0072581D01*
X0100217Y0072785D02*
X0095303Y0072785D01*
X0095303Y0072989D02*
X0100217Y0072989D01*
X0100217Y0073193D02*
X0095303Y0073193D01*
X0095303Y0073397D02*
X0100217Y0073397D01*
X0100217Y0073601D02*
X0095303Y0073601D01*
X0092737Y0068093D02*
X0087823Y0068093D01*
X0087823Y0073795D01*
X0092737Y0073795D01*
X0092737Y0068093D01*
X0092737Y0068297D02*
X0087823Y0068297D01*
X0087823Y0068501D02*
X0092737Y0068501D01*
X0092737Y0068705D02*
X0087823Y0068705D01*
X0087823Y0068909D02*
X0092737Y0068909D01*
X0092737Y0069113D02*
X0087823Y0069113D01*
X0087823Y0069317D02*
X0092737Y0069317D01*
X0092737Y0069521D02*
X0087823Y0069521D01*
X0087823Y0069725D02*
X0092737Y0069725D01*
X0092737Y0069929D02*
X0087823Y0069929D01*
X0087823Y0070133D02*
X0092737Y0070133D01*
X0092737Y0070337D02*
X0087823Y0070337D01*
X0087823Y0070541D02*
X0092737Y0070541D01*
X0092737Y0070745D02*
X0087823Y0070745D01*
X0087823Y0070949D02*
X0092737Y0070949D01*
X0092737Y0071153D02*
X0087823Y0071153D01*
X0087823Y0071357D02*
X0092737Y0071357D01*
X0092737Y0071561D02*
X0087823Y0071561D01*
X0087823Y0071765D02*
X0092737Y0071765D01*
X0092737Y0071969D02*
X0087823Y0071969D01*
X0087823Y0072173D02*
X0092737Y0072173D01*
X0092737Y0072377D02*
X0087823Y0072377D01*
X0087823Y0072581D02*
X0092737Y0072581D01*
X0092737Y0072785D02*
X0087823Y0072785D01*
X0087823Y0072989D02*
X0092737Y0072989D01*
X0092737Y0073193D02*
X0087823Y0073193D01*
X0087823Y0073397D02*
X0092737Y0073397D01*
X0092737Y0073601D02*
X0087823Y0073601D01*
D13*
X0105918Y0073809D02*
X0111648Y0073809D01*
X0111648Y0068079D01*
X0105918Y0068079D01*
X0105918Y0073809D01*
X0105918Y0068255D02*
X0111648Y0068255D01*
X0111648Y0068431D02*
X0105918Y0068431D01*
X0105918Y0068607D02*
X0111648Y0068607D01*
X0111648Y0068783D02*
X0105918Y0068783D01*
X0105918Y0068959D02*
X0111648Y0068959D01*
X0111648Y0069135D02*
X0105918Y0069135D01*
X0105918Y0069311D02*
X0111648Y0069311D01*
X0111648Y0069487D02*
X0105918Y0069487D01*
X0105918Y0069663D02*
X0111648Y0069663D01*
X0111648Y0069839D02*
X0105918Y0069839D01*
X0105918Y0070015D02*
X0111648Y0070015D01*
X0111648Y0070191D02*
X0105918Y0070191D01*
X0105918Y0070367D02*
X0111648Y0070367D01*
X0111648Y0070543D02*
X0105918Y0070543D01*
X0105918Y0070719D02*
X0111648Y0070719D01*
X0111648Y0070895D02*
X0105918Y0070895D01*
X0105918Y0071071D02*
X0111648Y0071071D01*
X0111648Y0071247D02*
X0105918Y0071247D01*
X0105918Y0071423D02*
X0111648Y0071423D01*
X0111648Y0071599D02*
X0105918Y0071599D01*
X0105918Y0071775D02*
X0111648Y0071775D01*
X0111648Y0071951D02*
X0105918Y0071951D01*
X0105918Y0072127D02*
X0111648Y0072127D01*
X0111648Y0072303D02*
X0105918Y0072303D01*
X0105918Y0072479D02*
X0111648Y0072479D01*
X0111648Y0072655D02*
X0105918Y0072655D01*
X0105918Y0072831D02*
X0111648Y0072831D01*
X0111648Y0073007D02*
X0105918Y0073007D01*
X0105918Y0073183D02*
X0111648Y0073183D01*
X0111648Y0073359D02*
X0105918Y0073359D01*
X0105918Y0073535D02*
X0111648Y0073535D01*
X0111648Y0073711D02*
X0105918Y0073711D01*
X0105918Y0087588D02*
X0111648Y0087588D01*
X0111648Y0081858D01*
X0105918Y0081858D01*
X0105918Y0087588D01*
X0105918Y0082034D02*
X0111648Y0082034D01*
X0111648Y0082210D02*
X0105918Y0082210D01*
X0105918Y0082386D02*
X0111648Y0082386D01*
X0111648Y0082562D02*
X0105918Y0082562D01*
X0105918Y0082738D02*
X0111648Y0082738D01*
X0111648Y0082914D02*
X0105918Y0082914D01*
X0105918Y0083090D02*
X0111648Y0083090D01*
X0111648Y0083266D02*
X0105918Y0083266D01*
X0105918Y0083442D02*
X0111648Y0083442D01*
X0111648Y0083618D02*
X0105918Y0083618D01*
X0105918Y0083794D02*
X0111648Y0083794D01*
X0111648Y0083970D02*
X0105918Y0083970D01*
X0105918Y0084146D02*
X0111648Y0084146D01*
X0111648Y0084322D02*
X0105918Y0084322D01*
X0105918Y0084498D02*
X0111648Y0084498D01*
X0111648Y0084674D02*
X0105918Y0084674D01*
X0105918Y0084850D02*
X0111648Y0084850D01*
X0111648Y0085026D02*
X0105918Y0085026D01*
X0105918Y0085202D02*
X0111648Y0085202D01*
X0111648Y0085378D02*
X0105918Y0085378D01*
X0105918Y0085554D02*
X0111648Y0085554D01*
X0111648Y0085730D02*
X0105918Y0085730D01*
X0105918Y0085906D02*
X0111648Y0085906D01*
X0111648Y0086082D02*
X0105918Y0086082D01*
X0105918Y0086258D02*
X0111648Y0086258D01*
X0111648Y0086434D02*
X0105918Y0086434D01*
X0105918Y0086610D02*
X0111648Y0086610D01*
X0111648Y0086786D02*
X0105918Y0086786D01*
X0105918Y0086962D02*
X0111648Y0086962D01*
X0111648Y0087138D02*
X0105918Y0087138D01*
X0105918Y0087314D02*
X0111648Y0087314D01*
X0111648Y0087490D02*
X0105918Y0087490D01*
X0105918Y0101368D02*
X0111648Y0101368D01*
X0111648Y0095638D01*
X0105918Y0095638D01*
X0105918Y0101368D01*
X0105918Y0095814D02*
X0111648Y0095814D01*
X0111648Y0095990D02*
X0105918Y0095990D01*
X0105918Y0096166D02*
X0111648Y0096166D01*
X0111648Y0096342D02*
X0105918Y0096342D01*
X0105918Y0096518D02*
X0111648Y0096518D01*
X0111648Y0096694D02*
X0105918Y0096694D01*
X0105918Y0096870D02*
X0111648Y0096870D01*
X0111648Y0097046D02*
X0105918Y0097046D01*
X0105918Y0097222D02*
X0111648Y0097222D01*
X0111648Y0097398D02*
X0105918Y0097398D01*
X0105918Y0097574D02*
X0111648Y0097574D01*
X0111648Y0097750D02*
X0105918Y0097750D01*
X0105918Y0097926D02*
X0111648Y0097926D01*
X0111648Y0098102D02*
X0105918Y0098102D01*
X0105918Y0098278D02*
X0111648Y0098278D01*
X0111648Y0098454D02*
X0105918Y0098454D01*
X0105918Y0098630D02*
X0111648Y0098630D01*
X0111648Y0098806D02*
X0105918Y0098806D01*
X0105918Y0098982D02*
X0111648Y0098982D01*
X0111648Y0099158D02*
X0105918Y0099158D01*
X0105918Y0099334D02*
X0111648Y0099334D01*
X0111648Y0099510D02*
X0105918Y0099510D01*
X0105918Y0099686D02*
X0111648Y0099686D01*
X0111648Y0099862D02*
X0105918Y0099862D01*
X0105918Y0100038D02*
X0111648Y0100038D01*
X0111648Y0100214D02*
X0105918Y0100214D01*
X0105918Y0100390D02*
X0111648Y0100390D01*
X0111648Y0100566D02*
X0105918Y0100566D01*
X0105918Y0100742D02*
X0111648Y0100742D01*
X0111648Y0100918D02*
X0105918Y0100918D01*
X0105918Y0101094D02*
X0111648Y0101094D01*
X0111648Y0101270D02*
X0105918Y0101270D01*
X0119698Y0101368D02*
X0125428Y0101368D01*
X0125428Y0095638D01*
X0119698Y0095638D01*
X0119698Y0101368D01*
X0119698Y0095814D02*
X0125428Y0095814D01*
X0125428Y0095990D02*
X0119698Y0095990D01*
X0119698Y0096166D02*
X0125428Y0096166D01*
X0125428Y0096342D02*
X0119698Y0096342D01*
X0119698Y0096518D02*
X0125428Y0096518D01*
X0125428Y0096694D02*
X0119698Y0096694D01*
X0119698Y0096870D02*
X0125428Y0096870D01*
X0125428Y0097046D02*
X0119698Y0097046D01*
X0119698Y0097222D02*
X0125428Y0097222D01*
X0125428Y0097398D02*
X0119698Y0097398D01*
X0119698Y0097574D02*
X0125428Y0097574D01*
X0125428Y0097750D02*
X0119698Y0097750D01*
X0119698Y0097926D02*
X0125428Y0097926D01*
X0125428Y0098102D02*
X0119698Y0098102D01*
X0119698Y0098278D02*
X0125428Y0098278D01*
X0125428Y0098454D02*
X0119698Y0098454D01*
X0119698Y0098630D02*
X0125428Y0098630D01*
X0125428Y0098806D02*
X0119698Y0098806D01*
X0119698Y0098982D02*
X0125428Y0098982D01*
X0125428Y0099158D02*
X0119698Y0099158D01*
X0119698Y0099334D02*
X0125428Y0099334D01*
X0125428Y0099510D02*
X0119698Y0099510D01*
X0119698Y0099686D02*
X0125428Y0099686D01*
X0125428Y0099862D02*
X0119698Y0099862D01*
X0119698Y0100038D02*
X0125428Y0100038D01*
X0125428Y0100214D02*
X0119698Y0100214D01*
X0119698Y0100390D02*
X0125428Y0100390D01*
X0125428Y0100566D02*
X0119698Y0100566D01*
X0119698Y0100742D02*
X0125428Y0100742D01*
X0125428Y0100918D02*
X0119698Y0100918D01*
X0119698Y0101094D02*
X0125428Y0101094D01*
X0125428Y0101270D02*
X0119698Y0101270D01*
X0119698Y0087588D02*
X0125428Y0087588D01*
X0125428Y0081858D01*
X0119698Y0081858D01*
X0119698Y0087588D01*
X0119698Y0082034D02*
X0125428Y0082034D01*
X0125428Y0082210D02*
X0119698Y0082210D01*
X0119698Y0082386D02*
X0125428Y0082386D01*
X0125428Y0082562D02*
X0119698Y0082562D01*
X0119698Y0082738D02*
X0125428Y0082738D01*
X0125428Y0082914D02*
X0119698Y0082914D01*
X0119698Y0083090D02*
X0125428Y0083090D01*
X0125428Y0083266D02*
X0119698Y0083266D01*
X0119698Y0083442D02*
X0125428Y0083442D01*
X0125428Y0083618D02*
X0119698Y0083618D01*
X0119698Y0083794D02*
X0125428Y0083794D01*
X0125428Y0083970D02*
X0119698Y0083970D01*
X0119698Y0084146D02*
X0125428Y0084146D01*
X0125428Y0084322D02*
X0119698Y0084322D01*
X0119698Y0084498D02*
X0125428Y0084498D01*
X0125428Y0084674D02*
X0119698Y0084674D01*
X0119698Y0084850D02*
X0125428Y0084850D01*
X0125428Y0085026D02*
X0119698Y0085026D01*
X0119698Y0085202D02*
X0125428Y0085202D01*
X0125428Y0085378D02*
X0119698Y0085378D01*
X0119698Y0085554D02*
X0125428Y0085554D01*
X0125428Y0085730D02*
X0119698Y0085730D01*
X0119698Y0085906D02*
X0125428Y0085906D01*
X0125428Y0086082D02*
X0119698Y0086082D01*
X0119698Y0086258D02*
X0125428Y0086258D01*
X0125428Y0086434D02*
X0119698Y0086434D01*
X0119698Y0086610D02*
X0125428Y0086610D01*
X0125428Y0086786D02*
X0119698Y0086786D01*
X0119698Y0086962D02*
X0125428Y0086962D01*
X0125428Y0087138D02*
X0119698Y0087138D01*
X0119698Y0087314D02*
X0125428Y0087314D01*
X0125428Y0087490D02*
X0119698Y0087490D01*
X0119698Y0073809D02*
X0125428Y0073809D01*
X0125428Y0068079D01*
X0119698Y0068079D01*
X0119698Y0073809D01*
X0119698Y0068255D02*
X0125428Y0068255D01*
X0125428Y0068431D02*
X0119698Y0068431D01*
X0119698Y0068607D02*
X0125428Y0068607D01*
X0125428Y0068783D02*
X0119698Y0068783D01*
X0119698Y0068959D02*
X0125428Y0068959D01*
X0125428Y0069135D02*
X0119698Y0069135D01*
X0119698Y0069311D02*
X0125428Y0069311D01*
X0125428Y0069487D02*
X0119698Y0069487D01*
X0119698Y0069663D02*
X0125428Y0069663D01*
X0125428Y0069839D02*
X0119698Y0069839D01*
X0119698Y0070015D02*
X0125428Y0070015D01*
X0125428Y0070191D02*
X0119698Y0070191D01*
X0119698Y0070367D02*
X0125428Y0070367D01*
X0125428Y0070543D02*
X0119698Y0070543D01*
X0119698Y0070719D02*
X0125428Y0070719D01*
X0125428Y0070895D02*
X0119698Y0070895D01*
X0119698Y0071071D02*
X0125428Y0071071D01*
X0125428Y0071247D02*
X0119698Y0071247D01*
X0119698Y0071423D02*
X0125428Y0071423D01*
X0125428Y0071599D02*
X0119698Y0071599D01*
X0119698Y0071775D02*
X0125428Y0071775D01*
X0125428Y0071951D02*
X0119698Y0071951D01*
X0119698Y0072127D02*
X0125428Y0072127D01*
X0125428Y0072303D02*
X0119698Y0072303D01*
X0119698Y0072479D02*
X0125428Y0072479D01*
X0125428Y0072655D02*
X0119698Y0072655D01*
X0119698Y0072831D02*
X0125428Y0072831D01*
X0125428Y0073007D02*
X0119698Y0073007D01*
X0119698Y0073183D02*
X0125428Y0073183D01*
X0125428Y0073359D02*
X0119698Y0073359D01*
X0119698Y0073535D02*
X0125428Y0073535D01*
X0125428Y0073711D02*
X0119698Y0073711D01*
D14*
X0162587Y0103586D02*
X0162587Y0105978D01*
X0162587Y0103586D02*
X0154795Y0103586D01*
X0154795Y0105978D01*
X0162587Y0105978D01*
X0162587Y0103793D02*
X0154795Y0103793D01*
X0154795Y0104000D02*
X0162587Y0104000D01*
X0162587Y0104207D02*
X0154795Y0104207D01*
X0154795Y0104414D02*
X0162587Y0104414D01*
X0162587Y0104621D02*
X0154795Y0104621D01*
X0154795Y0104828D02*
X0162587Y0104828D01*
X0162587Y0105035D02*
X0154795Y0105035D01*
X0154795Y0105242D02*
X0162587Y0105242D01*
X0162587Y0105449D02*
X0154795Y0105449D01*
X0154795Y0105656D02*
X0162587Y0105656D01*
X0162587Y0105863D02*
X0154795Y0105863D01*
X0162587Y0108586D02*
X0162587Y0110978D01*
X0162587Y0108586D02*
X0154795Y0108586D01*
X0154795Y0110978D01*
X0162587Y0110978D01*
X0162587Y0108793D02*
X0154795Y0108793D01*
X0154795Y0109000D02*
X0162587Y0109000D01*
X0162587Y0109207D02*
X0154795Y0109207D01*
X0154795Y0109414D02*
X0162587Y0109414D01*
X0162587Y0109621D02*
X0154795Y0109621D01*
X0154795Y0109828D02*
X0162587Y0109828D01*
X0162587Y0110035D02*
X0154795Y0110035D01*
X0154795Y0110242D02*
X0162587Y0110242D01*
X0162587Y0110449D02*
X0154795Y0110449D01*
X0154795Y0110656D02*
X0162587Y0110656D01*
X0162587Y0110863D02*
X0154795Y0110863D01*
X0162587Y0113586D02*
X0162587Y0115978D01*
X0162587Y0113586D02*
X0154795Y0113586D01*
X0154795Y0115978D01*
X0162587Y0115978D01*
X0162587Y0113793D02*
X0154795Y0113793D01*
X0154795Y0114000D02*
X0162587Y0114000D01*
X0162587Y0114207D02*
X0154795Y0114207D01*
X0154795Y0114414D02*
X0162587Y0114414D01*
X0162587Y0114621D02*
X0154795Y0114621D01*
X0154795Y0114828D02*
X0162587Y0114828D01*
X0162587Y0115035D02*
X0154795Y0115035D01*
X0154795Y0115242D02*
X0162587Y0115242D01*
X0162587Y0115449D02*
X0154795Y0115449D01*
X0154795Y0115656D02*
X0162587Y0115656D01*
X0162587Y0115863D02*
X0154795Y0115863D01*
X0162587Y0118586D02*
X0162587Y0120978D01*
X0162587Y0118586D02*
X0154795Y0118586D01*
X0154795Y0120978D01*
X0162587Y0120978D01*
X0162587Y0118793D02*
X0154795Y0118793D01*
X0154795Y0119000D02*
X0162587Y0119000D01*
X0162587Y0119207D02*
X0154795Y0119207D01*
X0154795Y0119414D02*
X0162587Y0119414D01*
X0162587Y0119621D02*
X0154795Y0119621D01*
X0154795Y0119828D02*
X0162587Y0119828D01*
X0162587Y0120035D02*
X0154795Y0120035D01*
X0154795Y0120242D02*
X0162587Y0120242D01*
X0162587Y0120449D02*
X0154795Y0120449D01*
X0154795Y0120656D02*
X0162587Y0120656D01*
X0162587Y0120863D02*
X0154795Y0120863D01*
X0186787Y0120978D02*
X0186787Y0118586D01*
X0178995Y0118586D01*
X0178995Y0120978D01*
X0186787Y0120978D01*
X0186787Y0118793D02*
X0178995Y0118793D01*
X0178995Y0119000D02*
X0186787Y0119000D01*
X0186787Y0119207D02*
X0178995Y0119207D01*
X0178995Y0119414D02*
X0186787Y0119414D01*
X0186787Y0119621D02*
X0178995Y0119621D01*
X0178995Y0119828D02*
X0186787Y0119828D01*
X0186787Y0120035D02*
X0178995Y0120035D01*
X0178995Y0120242D02*
X0186787Y0120242D01*
X0186787Y0120449D02*
X0178995Y0120449D01*
X0178995Y0120656D02*
X0186787Y0120656D01*
X0186787Y0120863D02*
X0178995Y0120863D01*
X0186787Y0115978D02*
X0186787Y0113586D01*
X0178995Y0113586D01*
X0178995Y0115978D01*
X0186787Y0115978D01*
X0186787Y0113793D02*
X0178995Y0113793D01*
X0178995Y0114000D02*
X0186787Y0114000D01*
X0186787Y0114207D02*
X0178995Y0114207D01*
X0178995Y0114414D02*
X0186787Y0114414D01*
X0186787Y0114621D02*
X0178995Y0114621D01*
X0178995Y0114828D02*
X0186787Y0114828D01*
X0186787Y0115035D02*
X0178995Y0115035D01*
X0178995Y0115242D02*
X0186787Y0115242D01*
X0186787Y0115449D02*
X0178995Y0115449D01*
X0178995Y0115656D02*
X0186787Y0115656D01*
X0186787Y0115863D02*
X0178995Y0115863D01*
X0186787Y0110978D02*
X0186787Y0108586D01*
X0178995Y0108586D01*
X0178995Y0110978D01*
X0186787Y0110978D01*
X0186787Y0108793D02*
X0178995Y0108793D01*
X0178995Y0109000D02*
X0186787Y0109000D01*
X0186787Y0109207D02*
X0178995Y0109207D01*
X0178995Y0109414D02*
X0186787Y0109414D01*
X0186787Y0109621D02*
X0178995Y0109621D01*
X0178995Y0109828D02*
X0186787Y0109828D01*
X0186787Y0110035D02*
X0178995Y0110035D01*
X0178995Y0110242D02*
X0186787Y0110242D01*
X0186787Y0110449D02*
X0178995Y0110449D01*
X0178995Y0110656D02*
X0186787Y0110656D01*
X0186787Y0110863D02*
X0178995Y0110863D01*
X0186787Y0105978D02*
X0186787Y0103586D01*
X0178995Y0103586D01*
X0178995Y0105978D01*
X0186787Y0105978D01*
X0186787Y0103793D02*
X0178995Y0103793D01*
X0178995Y0104000D02*
X0186787Y0104000D01*
X0186787Y0104207D02*
X0178995Y0104207D01*
X0178995Y0104414D02*
X0186787Y0104414D01*
X0186787Y0104621D02*
X0178995Y0104621D01*
X0178995Y0104828D02*
X0186787Y0104828D01*
X0186787Y0105035D02*
X0178995Y0105035D01*
X0178995Y0105242D02*
X0186787Y0105242D01*
X0186787Y0105449D02*
X0178995Y0105449D01*
X0178995Y0105656D02*
X0186787Y0105656D01*
X0186787Y0105863D02*
X0178995Y0105863D01*
D15*
X0184648Y0157483D02*
X0184648Y0161569D01*
X0192334Y0161569D01*
X0192334Y0157483D01*
X0184648Y0157483D01*
X0184648Y0157697D02*
X0192334Y0157697D01*
X0192334Y0157911D02*
X0184648Y0157911D01*
X0184648Y0158125D02*
X0192334Y0158125D01*
X0192334Y0158339D02*
X0184648Y0158339D01*
X0184648Y0158553D02*
X0192334Y0158553D01*
X0192334Y0158767D02*
X0184648Y0158767D01*
X0184648Y0158981D02*
X0192334Y0158981D01*
X0192334Y0159195D02*
X0184648Y0159195D01*
X0184648Y0159409D02*
X0192334Y0159409D01*
X0192334Y0159623D02*
X0184648Y0159623D01*
X0184648Y0159837D02*
X0192334Y0159837D01*
X0192334Y0160051D02*
X0184648Y0160051D01*
X0184648Y0160265D02*
X0192334Y0160265D01*
X0192334Y0160479D02*
X0184648Y0160479D01*
X0184648Y0160693D02*
X0192334Y0160693D01*
X0192334Y0160907D02*
X0184648Y0160907D01*
X0184648Y0161121D02*
X0192334Y0161121D01*
X0192334Y0161335D02*
X0184648Y0161335D01*
X0184648Y0161549D02*
X0192334Y0161549D01*
X0149248Y0161569D02*
X0149248Y0157483D01*
X0149248Y0161569D02*
X0156934Y0161569D01*
X0156934Y0157483D01*
X0149248Y0157483D01*
X0149248Y0157697D02*
X0156934Y0157697D01*
X0156934Y0157911D02*
X0149248Y0157911D01*
X0149248Y0158125D02*
X0156934Y0158125D01*
X0156934Y0158339D02*
X0149248Y0158339D01*
X0149248Y0158553D02*
X0156934Y0158553D01*
X0156934Y0158767D02*
X0149248Y0158767D01*
X0149248Y0158981D02*
X0156934Y0158981D01*
X0156934Y0159195D02*
X0149248Y0159195D01*
X0149248Y0159409D02*
X0156934Y0159409D01*
X0156934Y0159623D02*
X0149248Y0159623D01*
X0149248Y0159837D02*
X0156934Y0159837D01*
X0156934Y0160051D02*
X0149248Y0160051D01*
X0149248Y0160265D02*
X0156934Y0160265D01*
X0156934Y0160479D02*
X0149248Y0160479D01*
X0149248Y0160693D02*
X0156934Y0160693D01*
X0156934Y0160907D02*
X0149248Y0160907D01*
X0149248Y0161121D02*
X0156934Y0161121D01*
X0156934Y0161335D02*
X0149248Y0161335D01*
X0149248Y0161549D02*
X0156934Y0161549D01*
M02*
