G75*
%MOIN*%
%OFA0B0*%
%FSLAX25Y25*%
%IPPOS*%
%LPD*%
%AMOC8*
5,1,8,0,0,1.08239X$1,22.5*
%
%ADD10C,0.00000*%
%ADD11C,0.00394*%
D10*
X0001500Y0057164D02*
X0001500Y0175274D01*
X0257406Y0175274D01*
X0257406Y0057164D01*
X0001500Y0057164D01*
X0222956Y0088503D02*
X0222958Y0088637D01*
X0222964Y0088771D01*
X0222974Y0088905D01*
X0222988Y0089039D01*
X0223006Y0089172D01*
X0223027Y0089304D01*
X0223053Y0089436D01*
X0223083Y0089567D01*
X0223116Y0089697D01*
X0223153Y0089825D01*
X0223195Y0089953D01*
X0223239Y0090080D01*
X0223288Y0090205D01*
X0223340Y0090328D01*
X0223396Y0090450D01*
X0223456Y0090571D01*
X0223519Y0090689D01*
X0223585Y0090806D01*
X0223655Y0090920D01*
X0223728Y0091033D01*
X0223805Y0091143D01*
X0223885Y0091251D01*
X0223968Y0091356D01*
X0224054Y0091459D01*
X0224143Y0091559D01*
X0224235Y0091657D01*
X0224330Y0091752D01*
X0224428Y0091844D01*
X0224528Y0091933D01*
X0224631Y0092019D01*
X0224736Y0092102D01*
X0224844Y0092182D01*
X0224954Y0092259D01*
X0225067Y0092332D01*
X0225181Y0092402D01*
X0225298Y0092468D01*
X0225416Y0092531D01*
X0225537Y0092591D01*
X0225659Y0092647D01*
X0225782Y0092699D01*
X0225907Y0092748D01*
X0226034Y0092792D01*
X0226162Y0092834D01*
X0226290Y0092871D01*
X0226420Y0092904D01*
X0226551Y0092934D01*
X0226683Y0092960D01*
X0226815Y0092981D01*
X0226948Y0092999D01*
X0227082Y0093013D01*
X0227216Y0093023D01*
X0227350Y0093029D01*
X0227484Y0093031D01*
X0227618Y0093029D01*
X0227752Y0093023D01*
X0227886Y0093013D01*
X0228020Y0092999D01*
X0228153Y0092981D01*
X0228285Y0092960D01*
X0228417Y0092934D01*
X0228548Y0092904D01*
X0228678Y0092871D01*
X0228806Y0092834D01*
X0228934Y0092792D01*
X0229061Y0092748D01*
X0229186Y0092699D01*
X0229309Y0092647D01*
X0229431Y0092591D01*
X0229552Y0092531D01*
X0229670Y0092468D01*
X0229787Y0092402D01*
X0229901Y0092332D01*
X0230014Y0092259D01*
X0230124Y0092182D01*
X0230232Y0092102D01*
X0230337Y0092019D01*
X0230440Y0091933D01*
X0230540Y0091844D01*
X0230638Y0091752D01*
X0230733Y0091657D01*
X0230825Y0091559D01*
X0230914Y0091459D01*
X0231000Y0091356D01*
X0231083Y0091251D01*
X0231163Y0091143D01*
X0231240Y0091033D01*
X0231313Y0090920D01*
X0231383Y0090806D01*
X0231449Y0090689D01*
X0231512Y0090571D01*
X0231572Y0090450D01*
X0231628Y0090328D01*
X0231680Y0090205D01*
X0231729Y0090080D01*
X0231773Y0089953D01*
X0231815Y0089825D01*
X0231852Y0089697D01*
X0231885Y0089567D01*
X0231915Y0089436D01*
X0231941Y0089304D01*
X0231962Y0089172D01*
X0231980Y0089039D01*
X0231994Y0088905D01*
X0232004Y0088771D01*
X0232010Y0088637D01*
X0232012Y0088503D01*
X0232010Y0088369D01*
X0232004Y0088235D01*
X0231994Y0088101D01*
X0231980Y0087967D01*
X0231962Y0087834D01*
X0231941Y0087702D01*
X0231915Y0087570D01*
X0231885Y0087439D01*
X0231852Y0087309D01*
X0231815Y0087181D01*
X0231773Y0087053D01*
X0231729Y0086926D01*
X0231680Y0086801D01*
X0231628Y0086678D01*
X0231572Y0086556D01*
X0231512Y0086435D01*
X0231449Y0086317D01*
X0231383Y0086200D01*
X0231313Y0086086D01*
X0231240Y0085973D01*
X0231163Y0085863D01*
X0231083Y0085755D01*
X0231000Y0085650D01*
X0230914Y0085547D01*
X0230825Y0085447D01*
X0230733Y0085349D01*
X0230638Y0085254D01*
X0230540Y0085162D01*
X0230440Y0085073D01*
X0230337Y0084987D01*
X0230232Y0084904D01*
X0230124Y0084824D01*
X0230014Y0084747D01*
X0229901Y0084674D01*
X0229787Y0084604D01*
X0229670Y0084538D01*
X0229552Y0084475D01*
X0229431Y0084415D01*
X0229309Y0084359D01*
X0229186Y0084307D01*
X0229061Y0084258D01*
X0228934Y0084214D01*
X0228806Y0084172D01*
X0228678Y0084135D01*
X0228548Y0084102D01*
X0228417Y0084072D01*
X0228285Y0084046D01*
X0228153Y0084025D01*
X0228020Y0084007D01*
X0227886Y0083993D01*
X0227752Y0083983D01*
X0227618Y0083977D01*
X0227484Y0083975D01*
X0227350Y0083977D01*
X0227216Y0083983D01*
X0227082Y0083993D01*
X0226948Y0084007D01*
X0226815Y0084025D01*
X0226683Y0084046D01*
X0226551Y0084072D01*
X0226420Y0084102D01*
X0226290Y0084135D01*
X0226162Y0084172D01*
X0226034Y0084214D01*
X0225907Y0084258D01*
X0225782Y0084307D01*
X0225659Y0084359D01*
X0225537Y0084415D01*
X0225416Y0084475D01*
X0225298Y0084538D01*
X0225181Y0084604D01*
X0225067Y0084674D01*
X0224954Y0084747D01*
X0224844Y0084824D01*
X0224736Y0084904D01*
X0224631Y0084987D01*
X0224528Y0085073D01*
X0224428Y0085162D01*
X0224330Y0085254D01*
X0224235Y0085349D01*
X0224143Y0085447D01*
X0224054Y0085547D01*
X0223968Y0085650D01*
X0223885Y0085755D01*
X0223805Y0085863D01*
X0223728Y0085973D01*
X0223655Y0086086D01*
X0223585Y0086200D01*
X0223519Y0086317D01*
X0223456Y0086435D01*
X0223396Y0086556D01*
X0223340Y0086678D01*
X0223288Y0086801D01*
X0223239Y0086926D01*
X0223195Y0087053D01*
X0223153Y0087181D01*
X0223116Y0087309D01*
X0223083Y0087439D01*
X0223053Y0087570D01*
X0223027Y0087702D01*
X0223006Y0087834D01*
X0222988Y0087967D01*
X0222974Y0088101D01*
X0222964Y0088235D01*
X0222958Y0088369D01*
X0222956Y0088503D01*
X0222563Y0139684D02*
X0222565Y0139818D01*
X0222571Y0139952D01*
X0222581Y0140086D01*
X0222595Y0140220D01*
X0222613Y0140353D01*
X0222634Y0140485D01*
X0222660Y0140617D01*
X0222690Y0140748D01*
X0222723Y0140878D01*
X0222760Y0141006D01*
X0222802Y0141134D01*
X0222846Y0141261D01*
X0222895Y0141386D01*
X0222947Y0141509D01*
X0223003Y0141631D01*
X0223063Y0141752D01*
X0223126Y0141870D01*
X0223192Y0141987D01*
X0223262Y0142101D01*
X0223335Y0142214D01*
X0223412Y0142324D01*
X0223492Y0142432D01*
X0223575Y0142537D01*
X0223661Y0142640D01*
X0223750Y0142740D01*
X0223842Y0142838D01*
X0223937Y0142933D01*
X0224035Y0143025D01*
X0224135Y0143114D01*
X0224238Y0143200D01*
X0224343Y0143283D01*
X0224451Y0143363D01*
X0224561Y0143440D01*
X0224674Y0143513D01*
X0224788Y0143583D01*
X0224905Y0143649D01*
X0225023Y0143712D01*
X0225144Y0143772D01*
X0225266Y0143828D01*
X0225389Y0143880D01*
X0225514Y0143929D01*
X0225641Y0143973D01*
X0225769Y0144015D01*
X0225897Y0144052D01*
X0226027Y0144085D01*
X0226158Y0144115D01*
X0226290Y0144141D01*
X0226422Y0144162D01*
X0226555Y0144180D01*
X0226689Y0144194D01*
X0226823Y0144204D01*
X0226957Y0144210D01*
X0227091Y0144212D01*
X0227225Y0144210D01*
X0227359Y0144204D01*
X0227493Y0144194D01*
X0227627Y0144180D01*
X0227760Y0144162D01*
X0227892Y0144141D01*
X0228024Y0144115D01*
X0228155Y0144085D01*
X0228285Y0144052D01*
X0228413Y0144015D01*
X0228541Y0143973D01*
X0228668Y0143929D01*
X0228793Y0143880D01*
X0228916Y0143828D01*
X0229038Y0143772D01*
X0229159Y0143712D01*
X0229277Y0143649D01*
X0229394Y0143583D01*
X0229508Y0143513D01*
X0229621Y0143440D01*
X0229731Y0143363D01*
X0229839Y0143283D01*
X0229944Y0143200D01*
X0230047Y0143114D01*
X0230147Y0143025D01*
X0230245Y0142933D01*
X0230340Y0142838D01*
X0230432Y0142740D01*
X0230521Y0142640D01*
X0230607Y0142537D01*
X0230690Y0142432D01*
X0230770Y0142324D01*
X0230847Y0142214D01*
X0230920Y0142101D01*
X0230990Y0141987D01*
X0231056Y0141870D01*
X0231119Y0141752D01*
X0231179Y0141631D01*
X0231235Y0141509D01*
X0231287Y0141386D01*
X0231336Y0141261D01*
X0231380Y0141134D01*
X0231422Y0141006D01*
X0231459Y0140878D01*
X0231492Y0140748D01*
X0231522Y0140617D01*
X0231548Y0140485D01*
X0231569Y0140353D01*
X0231587Y0140220D01*
X0231601Y0140086D01*
X0231611Y0139952D01*
X0231617Y0139818D01*
X0231619Y0139684D01*
X0231617Y0139550D01*
X0231611Y0139416D01*
X0231601Y0139282D01*
X0231587Y0139148D01*
X0231569Y0139015D01*
X0231548Y0138883D01*
X0231522Y0138751D01*
X0231492Y0138620D01*
X0231459Y0138490D01*
X0231422Y0138362D01*
X0231380Y0138234D01*
X0231336Y0138107D01*
X0231287Y0137982D01*
X0231235Y0137859D01*
X0231179Y0137737D01*
X0231119Y0137616D01*
X0231056Y0137498D01*
X0230990Y0137381D01*
X0230920Y0137267D01*
X0230847Y0137154D01*
X0230770Y0137044D01*
X0230690Y0136936D01*
X0230607Y0136831D01*
X0230521Y0136728D01*
X0230432Y0136628D01*
X0230340Y0136530D01*
X0230245Y0136435D01*
X0230147Y0136343D01*
X0230047Y0136254D01*
X0229944Y0136168D01*
X0229839Y0136085D01*
X0229731Y0136005D01*
X0229621Y0135928D01*
X0229508Y0135855D01*
X0229394Y0135785D01*
X0229277Y0135719D01*
X0229159Y0135656D01*
X0229038Y0135596D01*
X0228916Y0135540D01*
X0228793Y0135488D01*
X0228668Y0135439D01*
X0228541Y0135395D01*
X0228413Y0135353D01*
X0228285Y0135316D01*
X0228155Y0135283D01*
X0228024Y0135253D01*
X0227892Y0135227D01*
X0227760Y0135206D01*
X0227627Y0135188D01*
X0227493Y0135174D01*
X0227359Y0135164D01*
X0227225Y0135158D01*
X0227091Y0135156D01*
X0226957Y0135158D01*
X0226823Y0135164D01*
X0226689Y0135174D01*
X0226555Y0135188D01*
X0226422Y0135206D01*
X0226290Y0135227D01*
X0226158Y0135253D01*
X0226027Y0135283D01*
X0225897Y0135316D01*
X0225769Y0135353D01*
X0225641Y0135395D01*
X0225514Y0135439D01*
X0225389Y0135488D01*
X0225266Y0135540D01*
X0225144Y0135596D01*
X0225023Y0135656D01*
X0224905Y0135719D01*
X0224788Y0135785D01*
X0224674Y0135855D01*
X0224561Y0135928D01*
X0224451Y0136005D01*
X0224343Y0136085D01*
X0224238Y0136168D01*
X0224135Y0136254D01*
X0224035Y0136343D01*
X0223937Y0136435D01*
X0223842Y0136530D01*
X0223750Y0136628D01*
X0223661Y0136728D01*
X0223575Y0136831D01*
X0223492Y0136936D01*
X0223412Y0137044D01*
X0223335Y0137154D01*
X0223262Y0137267D01*
X0223192Y0137381D01*
X0223126Y0137498D01*
X0223063Y0137616D01*
X0223003Y0137737D01*
X0222947Y0137859D01*
X0222895Y0137982D01*
X0222846Y0138107D01*
X0222802Y0138234D01*
X0222760Y0138362D01*
X0222723Y0138490D01*
X0222690Y0138620D01*
X0222660Y0138751D01*
X0222634Y0138883D01*
X0222613Y0139015D01*
X0222595Y0139148D01*
X0222581Y0139282D01*
X0222571Y0139416D01*
X0222565Y0139550D01*
X0222563Y0139684D01*
D11*
X0030792Y0130550D02*
X0030801Y0130607D01*
X0030807Y0130664D01*
X0030808Y0130722D01*
X0030806Y0130780D01*
X0030799Y0130838D01*
X0030789Y0130895D01*
X0030775Y0130951D01*
X0030758Y0131006D01*
X0030736Y0131060D01*
X0030711Y0131112D01*
X0030683Y0131162D01*
X0030651Y0131211D01*
X0030617Y0131257D01*
X0030579Y0131301D01*
X0030538Y0131342D01*
X0030495Y0131381D01*
X0030449Y0131416D01*
X0030401Y0131448D01*
X0030351Y0131477D01*
X0030299Y0131503D01*
X0030245Y0131525D01*
X0030191Y0131543D01*
X0030135Y0131558D01*
X0030078Y0131569D01*
X0030020Y0131576D01*
X0029962Y0131579D01*
X0029905Y0131578D01*
X0029847Y0131574D01*
X0029846Y0131574D02*
X0020398Y0131574D01*
X0019374Y0130629D02*
X0019376Y0130567D01*
X0019381Y0130506D01*
X0019391Y0130444D01*
X0019404Y0130384D01*
X0019420Y0130324D01*
X0019441Y0130266D01*
X0019464Y0130209D01*
X0019491Y0130153D01*
X0019522Y0130099D01*
X0019555Y0130047D01*
X0019592Y0129997D01*
X0019632Y0129950D01*
X0019674Y0129905D01*
X0019719Y0129863D01*
X0019766Y0129823D01*
X0019816Y0129786D01*
X0019868Y0129753D01*
X0019922Y0129722D01*
X0019978Y0129695D01*
X0020035Y0129672D01*
X0020093Y0129651D01*
X0020153Y0129635D01*
X0020213Y0129622D01*
X0020275Y0129612D01*
X0020336Y0129607D01*
X0020398Y0129605D01*
X0029925Y0129605D01*
X0029925Y0129606D02*
X0029984Y0129610D01*
X0030043Y0129619D01*
X0030101Y0129631D01*
X0030158Y0129647D01*
X0030214Y0129667D01*
X0030269Y0129690D01*
X0030322Y0129717D01*
X0030373Y0129747D01*
X0030422Y0129780D01*
X0030468Y0129817D01*
X0030512Y0129856D01*
X0030554Y0129899D01*
X0030592Y0129944D01*
X0030628Y0129991D01*
X0030660Y0130041D01*
X0030690Y0130093D01*
X0030715Y0130146D01*
X0030737Y0130201D01*
X0030756Y0130257D01*
X0030770Y0130315D01*
X0030781Y0130373D01*
X0030789Y0130432D01*
X0030792Y0130491D01*
X0030791Y0130550D01*
X0020397Y0131573D02*
X0020335Y0131574D01*
X0020274Y0131570D01*
X0020212Y0131563D01*
X0020151Y0131552D01*
X0020091Y0131537D01*
X0020032Y0131519D01*
X0019975Y0131496D01*
X0019918Y0131470D01*
X0019864Y0131441D01*
X0019811Y0131408D01*
X0019761Y0131372D01*
X0019713Y0131333D01*
X0019667Y0131291D01*
X0019625Y0131247D01*
X0019585Y0131199D01*
X0019548Y0131150D01*
X0019514Y0131098D01*
X0019484Y0131044D01*
X0019457Y0130988D01*
X0019434Y0130931D01*
X0019414Y0130872D01*
X0019399Y0130812D01*
X0019386Y0130751D01*
X0019378Y0130690D01*
X0019374Y0130628D01*
X0020398Y0102834D02*
X0029846Y0102834D01*
X0030870Y0101889D02*
X0030868Y0101827D01*
X0030863Y0101766D01*
X0030853Y0101704D01*
X0030840Y0101644D01*
X0030824Y0101584D01*
X0030803Y0101526D01*
X0030780Y0101469D01*
X0030753Y0101413D01*
X0030722Y0101359D01*
X0030689Y0101307D01*
X0030652Y0101257D01*
X0030612Y0101210D01*
X0030570Y0101165D01*
X0030525Y0101123D01*
X0030478Y0101083D01*
X0030428Y0101046D01*
X0030376Y0101013D01*
X0030322Y0100982D01*
X0030266Y0100955D01*
X0030209Y0100932D01*
X0030151Y0100911D01*
X0030091Y0100895D01*
X0030031Y0100882D01*
X0029969Y0100872D01*
X0029908Y0100867D01*
X0029846Y0100865D01*
X0020398Y0100865D01*
X0019374Y0101888D02*
X0019378Y0101950D01*
X0019386Y0102011D01*
X0019399Y0102072D01*
X0019414Y0102132D01*
X0019434Y0102191D01*
X0019457Y0102248D01*
X0019484Y0102304D01*
X0019514Y0102358D01*
X0019548Y0102410D01*
X0019585Y0102459D01*
X0019625Y0102507D01*
X0019667Y0102551D01*
X0019713Y0102593D01*
X0019761Y0102632D01*
X0019811Y0102668D01*
X0019864Y0102701D01*
X0019918Y0102730D01*
X0019975Y0102756D01*
X0020032Y0102779D01*
X0020091Y0102797D01*
X0020151Y0102812D01*
X0020212Y0102823D01*
X0020274Y0102830D01*
X0020335Y0102834D01*
X0020397Y0102833D01*
X0019374Y0101889D02*
X0019376Y0101827D01*
X0019381Y0101766D01*
X0019391Y0101704D01*
X0019404Y0101644D01*
X0019420Y0101584D01*
X0019441Y0101526D01*
X0019464Y0101469D01*
X0019491Y0101413D01*
X0019522Y0101359D01*
X0019555Y0101307D01*
X0019592Y0101257D01*
X0019632Y0101210D01*
X0019674Y0101165D01*
X0019719Y0101123D01*
X0019766Y0101083D01*
X0019816Y0101046D01*
X0019868Y0101013D01*
X0019922Y0100982D01*
X0019978Y0100955D01*
X0020035Y0100932D01*
X0020093Y0100911D01*
X0020153Y0100895D01*
X0020213Y0100882D01*
X0020275Y0100872D01*
X0020336Y0100867D01*
X0020398Y0100865D01*
X0029847Y0102833D02*
X0029909Y0102834D01*
X0029970Y0102830D01*
X0030032Y0102823D01*
X0030093Y0102812D01*
X0030153Y0102797D01*
X0030212Y0102779D01*
X0030269Y0102756D01*
X0030326Y0102730D01*
X0030380Y0102701D01*
X0030433Y0102668D01*
X0030483Y0102632D01*
X0030531Y0102593D01*
X0030577Y0102551D01*
X0030619Y0102507D01*
X0030659Y0102459D01*
X0030696Y0102410D01*
X0030730Y0102358D01*
X0030760Y0102304D01*
X0030787Y0102248D01*
X0030810Y0102191D01*
X0030830Y0102132D01*
X0030845Y0102072D01*
X0030858Y0102011D01*
X0030866Y0101950D01*
X0030870Y0101888D01*
M02*
