G75*
%MOIN*%
%OFA0B0*%
%FSLAX25Y25*%
%IPPOS*%
%LPD*%
%AMOC8*
5,1,8,0,0,1.08239X$1,22.5*
%
%ADD10C,0.00000*%
%ADD11C,0.00189*%
%ADD12C,0.00205*%
%ADD13C,0.07600*%
%ADD14C,0.00177*%
%ADD15OC8,0.06600*%
%ADD16OC8,0.05200*%
%ADD17C,0.04756*%
%ADD18C,0.00208*%
%ADD19C,0.00215*%
%ADD20C,0.05543*%
%ADD21OC8,0.06200*%
%ADD22C,0.06200*%
%ADD23C,0.00984*%
%ADD24C,0.02584*%
%ADD25C,0.01000*%
%ADD26C,0.01181*%
D10*
X0001500Y0057164D02*
X0001500Y0175274D01*
X0257406Y0175274D01*
X0257406Y0057164D01*
X0001500Y0057164D01*
X0222956Y0088503D02*
X0222958Y0088637D01*
X0222964Y0088771D01*
X0222974Y0088905D01*
X0222988Y0089039D01*
X0223006Y0089172D01*
X0223027Y0089304D01*
X0223053Y0089436D01*
X0223083Y0089567D01*
X0223116Y0089697D01*
X0223153Y0089825D01*
X0223195Y0089953D01*
X0223239Y0090080D01*
X0223288Y0090205D01*
X0223340Y0090328D01*
X0223396Y0090450D01*
X0223456Y0090571D01*
X0223519Y0090689D01*
X0223585Y0090806D01*
X0223655Y0090920D01*
X0223728Y0091033D01*
X0223805Y0091143D01*
X0223885Y0091251D01*
X0223968Y0091356D01*
X0224054Y0091459D01*
X0224143Y0091559D01*
X0224235Y0091657D01*
X0224330Y0091752D01*
X0224428Y0091844D01*
X0224528Y0091933D01*
X0224631Y0092019D01*
X0224736Y0092102D01*
X0224844Y0092182D01*
X0224954Y0092259D01*
X0225067Y0092332D01*
X0225181Y0092402D01*
X0225298Y0092468D01*
X0225416Y0092531D01*
X0225537Y0092591D01*
X0225659Y0092647D01*
X0225782Y0092699D01*
X0225907Y0092748D01*
X0226034Y0092792D01*
X0226162Y0092834D01*
X0226290Y0092871D01*
X0226420Y0092904D01*
X0226551Y0092934D01*
X0226683Y0092960D01*
X0226815Y0092981D01*
X0226948Y0092999D01*
X0227082Y0093013D01*
X0227216Y0093023D01*
X0227350Y0093029D01*
X0227484Y0093031D01*
X0227618Y0093029D01*
X0227752Y0093023D01*
X0227886Y0093013D01*
X0228020Y0092999D01*
X0228153Y0092981D01*
X0228285Y0092960D01*
X0228417Y0092934D01*
X0228548Y0092904D01*
X0228678Y0092871D01*
X0228806Y0092834D01*
X0228934Y0092792D01*
X0229061Y0092748D01*
X0229186Y0092699D01*
X0229309Y0092647D01*
X0229431Y0092591D01*
X0229552Y0092531D01*
X0229670Y0092468D01*
X0229787Y0092402D01*
X0229901Y0092332D01*
X0230014Y0092259D01*
X0230124Y0092182D01*
X0230232Y0092102D01*
X0230337Y0092019D01*
X0230440Y0091933D01*
X0230540Y0091844D01*
X0230638Y0091752D01*
X0230733Y0091657D01*
X0230825Y0091559D01*
X0230914Y0091459D01*
X0231000Y0091356D01*
X0231083Y0091251D01*
X0231163Y0091143D01*
X0231240Y0091033D01*
X0231313Y0090920D01*
X0231383Y0090806D01*
X0231449Y0090689D01*
X0231512Y0090571D01*
X0231572Y0090450D01*
X0231628Y0090328D01*
X0231680Y0090205D01*
X0231729Y0090080D01*
X0231773Y0089953D01*
X0231815Y0089825D01*
X0231852Y0089697D01*
X0231885Y0089567D01*
X0231915Y0089436D01*
X0231941Y0089304D01*
X0231962Y0089172D01*
X0231980Y0089039D01*
X0231994Y0088905D01*
X0232004Y0088771D01*
X0232010Y0088637D01*
X0232012Y0088503D01*
X0232010Y0088369D01*
X0232004Y0088235D01*
X0231994Y0088101D01*
X0231980Y0087967D01*
X0231962Y0087834D01*
X0231941Y0087702D01*
X0231915Y0087570D01*
X0231885Y0087439D01*
X0231852Y0087309D01*
X0231815Y0087181D01*
X0231773Y0087053D01*
X0231729Y0086926D01*
X0231680Y0086801D01*
X0231628Y0086678D01*
X0231572Y0086556D01*
X0231512Y0086435D01*
X0231449Y0086317D01*
X0231383Y0086200D01*
X0231313Y0086086D01*
X0231240Y0085973D01*
X0231163Y0085863D01*
X0231083Y0085755D01*
X0231000Y0085650D01*
X0230914Y0085547D01*
X0230825Y0085447D01*
X0230733Y0085349D01*
X0230638Y0085254D01*
X0230540Y0085162D01*
X0230440Y0085073D01*
X0230337Y0084987D01*
X0230232Y0084904D01*
X0230124Y0084824D01*
X0230014Y0084747D01*
X0229901Y0084674D01*
X0229787Y0084604D01*
X0229670Y0084538D01*
X0229552Y0084475D01*
X0229431Y0084415D01*
X0229309Y0084359D01*
X0229186Y0084307D01*
X0229061Y0084258D01*
X0228934Y0084214D01*
X0228806Y0084172D01*
X0228678Y0084135D01*
X0228548Y0084102D01*
X0228417Y0084072D01*
X0228285Y0084046D01*
X0228153Y0084025D01*
X0228020Y0084007D01*
X0227886Y0083993D01*
X0227752Y0083983D01*
X0227618Y0083977D01*
X0227484Y0083975D01*
X0227350Y0083977D01*
X0227216Y0083983D01*
X0227082Y0083993D01*
X0226948Y0084007D01*
X0226815Y0084025D01*
X0226683Y0084046D01*
X0226551Y0084072D01*
X0226420Y0084102D01*
X0226290Y0084135D01*
X0226162Y0084172D01*
X0226034Y0084214D01*
X0225907Y0084258D01*
X0225782Y0084307D01*
X0225659Y0084359D01*
X0225537Y0084415D01*
X0225416Y0084475D01*
X0225298Y0084538D01*
X0225181Y0084604D01*
X0225067Y0084674D01*
X0224954Y0084747D01*
X0224844Y0084824D01*
X0224736Y0084904D01*
X0224631Y0084987D01*
X0224528Y0085073D01*
X0224428Y0085162D01*
X0224330Y0085254D01*
X0224235Y0085349D01*
X0224143Y0085447D01*
X0224054Y0085547D01*
X0223968Y0085650D01*
X0223885Y0085755D01*
X0223805Y0085863D01*
X0223728Y0085973D01*
X0223655Y0086086D01*
X0223585Y0086200D01*
X0223519Y0086317D01*
X0223456Y0086435D01*
X0223396Y0086556D01*
X0223340Y0086678D01*
X0223288Y0086801D01*
X0223239Y0086926D01*
X0223195Y0087053D01*
X0223153Y0087181D01*
X0223116Y0087309D01*
X0223083Y0087439D01*
X0223053Y0087570D01*
X0223027Y0087702D01*
X0223006Y0087834D01*
X0222988Y0087967D01*
X0222974Y0088101D01*
X0222964Y0088235D01*
X0222958Y0088369D01*
X0222956Y0088503D01*
X0222563Y0139684D02*
X0222565Y0139818D01*
X0222571Y0139952D01*
X0222581Y0140086D01*
X0222595Y0140220D01*
X0222613Y0140353D01*
X0222634Y0140485D01*
X0222660Y0140617D01*
X0222690Y0140748D01*
X0222723Y0140878D01*
X0222760Y0141006D01*
X0222802Y0141134D01*
X0222846Y0141261D01*
X0222895Y0141386D01*
X0222947Y0141509D01*
X0223003Y0141631D01*
X0223063Y0141752D01*
X0223126Y0141870D01*
X0223192Y0141987D01*
X0223262Y0142101D01*
X0223335Y0142214D01*
X0223412Y0142324D01*
X0223492Y0142432D01*
X0223575Y0142537D01*
X0223661Y0142640D01*
X0223750Y0142740D01*
X0223842Y0142838D01*
X0223937Y0142933D01*
X0224035Y0143025D01*
X0224135Y0143114D01*
X0224238Y0143200D01*
X0224343Y0143283D01*
X0224451Y0143363D01*
X0224561Y0143440D01*
X0224674Y0143513D01*
X0224788Y0143583D01*
X0224905Y0143649D01*
X0225023Y0143712D01*
X0225144Y0143772D01*
X0225266Y0143828D01*
X0225389Y0143880D01*
X0225514Y0143929D01*
X0225641Y0143973D01*
X0225769Y0144015D01*
X0225897Y0144052D01*
X0226027Y0144085D01*
X0226158Y0144115D01*
X0226290Y0144141D01*
X0226422Y0144162D01*
X0226555Y0144180D01*
X0226689Y0144194D01*
X0226823Y0144204D01*
X0226957Y0144210D01*
X0227091Y0144212D01*
X0227225Y0144210D01*
X0227359Y0144204D01*
X0227493Y0144194D01*
X0227627Y0144180D01*
X0227760Y0144162D01*
X0227892Y0144141D01*
X0228024Y0144115D01*
X0228155Y0144085D01*
X0228285Y0144052D01*
X0228413Y0144015D01*
X0228541Y0143973D01*
X0228668Y0143929D01*
X0228793Y0143880D01*
X0228916Y0143828D01*
X0229038Y0143772D01*
X0229159Y0143712D01*
X0229277Y0143649D01*
X0229394Y0143583D01*
X0229508Y0143513D01*
X0229621Y0143440D01*
X0229731Y0143363D01*
X0229839Y0143283D01*
X0229944Y0143200D01*
X0230047Y0143114D01*
X0230147Y0143025D01*
X0230245Y0142933D01*
X0230340Y0142838D01*
X0230432Y0142740D01*
X0230521Y0142640D01*
X0230607Y0142537D01*
X0230690Y0142432D01*
X0230770Y0142324D01*
X0230847Y0142214D01*
X0230920Y0142101D01*
X0230990Y0141987D01*
X0231056Y0141870D01*
X0231119Y0141752D01*
X0231179Y0141631D01*
X0231235Y0141509D01*
X0231287Y0141386D01*
X0231336Y0141261D01*
X0231380Y0141134D01*
X0231422Y0141006D01*
X0231459Y0140878D01*
X0231492Y0140748D01*
X0231522Y0140617D01*
X0231548Y0140485D01*
X0231569Y0140353D01*
X0231587Y0140220D01*
X0231601Y0140086D01*
X0231611Y0139952D01*
X0231617Y0139818D01*
X0231619Y0139684D01*
X0231617Y0139550D01*
X0231611Y0139416D01*
X0231601Y0139282D01*
X0231587Y0139148D01*
X0231569Y0139015D01*
X0231548Y0138883D01*
X0231522Y0138751D01*
X0231492Y0138620D01*
X0231459Y0138490D01*
X0231422Y0138362D01*
X0231380Y0138234D01*
X0231336Y0138107D01*
X0231287Y0137982D01*
X0231235Y0137859D01*
X0231179Y0137737D01*
X0231119Y0137616D01*
X0231056Y0137498D01*
X0230990Y0137381D01*
X0230920Y0137267D01*
X0230847Y0137154D01*
X0230770Y0137044D01*
X0230690Y0136936D01*
X0230607Y0136831D01*
X0230521Y0136728D01*
X0230432Y0136628D01*
X0230340Y0136530D01*
X0230245Y0136435D01*
X0230147Y0136343D01*
X0230047Y0136254D01*
X0229944Y0136168D01*
X0229839Y0136085D01*
X0229731Y0136005D01*
X0229621Y0135928D01*
X0229508Y0135855D01*
X0229394Y0135785D01*
X0229277Y0135719D01*
X0229159Y0135656D01*
X0229038Y0135596D01*
X0228916Y0135540D01*
X0228793Y0135488D01*
X0228668Y0135439D01*
X0228541Y0135395D01*
X0228413Y0135353D01*
X0228285Y0135316D01*
X0228155Y0135283D01*
X0228024Y0135253D01*
X0227892Y0135227D01*
X0227760Y0135206D01*
X0227627Y0135188D01*
X0227493Y0135174D01*
X0227359Y0135164D01*
X0227225Y0135158D01*
X0227091Y0135156D01*
X0226957Y0135158D01*
X0226823Y0135164D01*
X0226689Y0135174D01*
X0226555Y0135188D01*
X0226422Y0135206D01*
X0226290Y0135227D01*
X0226158Y0135253D01*
X0226027Y0135283D01*
X0225897Y0135316D01*
X0225769Y0135353D01*
X0225641Y0135395D01*
X0225514Y0135439D01*
X0225389Y0135488D01*
X0225266Y0135540D01*
X0225144Y0135596D01*
X0225023Y0135656D01*
X0224905Y0135719D01*
X0224788Y0135785D01*
X0224674Y0135855D01*
X0224561Y0135928D01*
X0224451Y0136005D01*
X0224343Y0136085D01*
X0224238Y0136168D01*
X0224135Y0136254D01*
X0224035Y0136343D01*
X0223937Y0136435D01*
X0223842Y0136530D01*
X0223750Y0136628D01*
X0223661Y0136728D01*
X0223575Y0136831D01*
X0223492Y0136936D01*
X0223412Y0137044D01*
X0223335Y0137154D01*
X0223262Y0137267D01*
X0223192Y0137381D01*
X0223126Y0137498D01*
X0223063Y0137616D01*
X0223003Y0137737D01*
X0222947Y0137859D01*
X0222895Y0137982D01*
X0222846Y0138107D01*
X0222802Y0138234D01*
X0222760Y0138362D01*
X0222723Y0138490D01*
X0222690Y0138620D01*
X0222660Y0138751D01*
X0222634Y0138883D01*
X0222613Y0139015D01*
X0222595Y0139148D01*
X0222581Y0139282D01*
X0222571Y0139416D01*
X0222565Y0139550D01*
X0222563Y0139684D01*
D11*
X0191169Y0137188D02*
X0185059Y0137188D01*
X0191169Y0137188D02*
X0191169Y0126746D01*
X0185059Y0126746D01*
X0185059Y0137188D01*
X0185059Y0126934D02*
X0191169Y0126934D01*
X0191169Y0127122D02*
X0185059Y0127122D01*
X0185059Y0127310D02*
X0191169Y0127310D01*
X0191169Y0127498D02*
X0185059Y0127498D01*
X0185059Y0127686D02*
X0191169Y0127686D01*
X0191169Y0127874D02*
X0185059Y0127874D01*
X0185059Y0128062D02*
X0191169Y0128062D01*
X0191169Y0128250D02*
X0185059Y0128250D01*
X0185059Y0128438D02*
X0191169Y0128438D01*
X0191169Y0128626D02*
X0185059Y0128626D01*
X0185059Y0128814D02*
X0191169Y0128814D01*
X0191169Y0129002D02*
X0185059Y0129002D01*
X0185059Y0129190D02*
X0191169Y0129190D01*
X0191169Y0129378D02*
X0185059Y0129378D01*
X0185059Y0129566D02*
X0191169Y0129566D01*
X0191169Y0129754D02*
X0185059Y0129754D01*
X0185059Y0129942D02*
X0191169Y0129942D01*
X0191169Y0130130D02*
X0185059Y0130130D01*
X0185059Y0130318D02*
X0191169Y0130318D01*
X0191169Y0130506D02*
X0185059Y0130506D01*
X0185059Y0130694D02*
X0191169Y0130694D01*
X0191169Y0130882D02*
X0185059Y0130882D01*
X0185059Y0131070D02*
X0191169Y0131070D01*
X0191169Y0131258D02*
X0185059Y0131258D01*
X0185059Y0131446D02*
X0191169Y0131446D01*
X0191169Y0131634D02*
X0185059Y0131634D01*
X0185059Y0131822D02*
X0191169Y0131822D01*
X0191169Y0132010D02*
X0185059Y0132010D01*
X0185059Y0132198D02*
X0191169Y0132198D01*
X0191169Y0132386D02*
X0185059Y0132386D01*
X0185059Y0132574D02*
X0191169Y0132574D01*
X0191169Y0132762D02*
X0185059Y0132762D01*
X0185059Y0132950D02*
X0191169Y0132950D01*
X0191169Y0133138D02*
X0185059Y0133138D01*
X0185059Y0133326D02*
X0191169Y0133326D01*
X0191169Y0133514D02*
X0185059Y0133514D01*
X0185059Y0133702D02*
X0191169Y0133702D01*
X0191169Y0133890D02*
X0185059Y0133890D01*
X0185059Y0134078D02*
X0191169Y0134078D01*
X0191169Y0134266D02*
X0185059Y0134266D01*
X0185059Y0134454D02*
X0191169Y0134454D01*
X0191169Y0134642D02*
X0185059Y0134642D01*
X0185059Y0134830D02*
X0191169Y0134830D01*
X0191169Y0135018D02*
X0185059Y0135018D01*
X0185059Y0135206D02*
X0191169Y0135206D01*
X0191169Y0135394D02*
X0185059Y0135394D01*
X0185059Y0135582D02*
X0191169Y0135582D01*
X0191169Y0135770D02*
X0185059Y0135770D01*
X0185059Y0135958D02*
X0191169Y0135958D01*
X0191169Y0136146D02*
X0185059Y0136146D01*
X0185059Y0136334D02*
X0191169Y0136334D01*
X0191169Y0136522D02*
X0185059Y0136522D01*
X0185059Y0136710D02*
X0191169Y0136710D01*
X0191169Y0136898D02*
X0185059Y0136898D01*
X0185059Y0137086D02*
X0191169Y0137086D01*
X0180146Y0137188D02*
X0174036Y0137188D01*
X0180146Y0137188D02*
X0180146Y0126746D01*
X0174036Y0126746D01*
X0174036Y0137188D01*
X0174036Y0126934D02*
X0180146Y0126934D01*
X0180146Y0127122D02*
X0174036Y0127122D01*
X0174036Y0127310D02*
X0180146Y0127310D01*
X0180146Y0127498D02*
X0174036Y0127498D01*
X0174036Y0127686D02*
X0180146Y0127686D01*
X0180146Y0127874D02*
X0174036Y0127874D01*
X0174036Y0128062D02*
X0180146Y0128062D01*
X0180146Y0128250D02*
X0174036Y0128250D01*
X0174036Y0128438D02*
X0180146Y0128438D01*
X0180146Y0128626D02*
X0174036Y0128626D01*
X0174036Y0128814D02*
X0180146Y0128814D01*
X0180146Y0129002D02*
X0174036Y0129002D01*
X0174036Y0129190D02*
X0180146Y0129190D01*
X0180146Y0129378D02*
X0174036Y0129378D01*
X0174036Y0129566D02*
X0180146Y0129566D01*
X0180146Y0129754D02*
X0174036Y0129754D01*
X0174036Y0129942D02*
X0180146Y0129942D01*
X0180146Y0130130D02*
X0174036Y0130130D01*
X0174036Y0130318D02*
X0180146Y0130318D01*
X0180146Y0130506D02*
X0174036Y0130506D01*
X0174036Y0130694D02*
X0180146Y0130694D01*
X0180146Y0130882D02*
X0174036Y0130882D01*
X0174036Y0131070D02*
X0180146Y0131070D01*
X0180146Y0131258D02*
X0174036Y0131258D01*
X0174036Y0131446D02*
X0180146Y0131446D01*
X0180146Y0131634D02*
X0174036Y0131634D01*
X0174036Y0131822D02*
X0180146Y0131822D01*
X0180146Y0132010D02*
X0174036Y0132010D01*
X0174036Y0132198D02*
X0180146Y0132198D01*
X0180146Y0132386D02*
X0174036Y0132386D01*
X0174036Y0132574D02*
X0180146Y0132574D01*
X0180146Y0132762D02*
X0174036Y0132762D01*
X0174036Y0132950D02*
X0180146Y0132950D01*
X0180146Y0133138D02*
X0174036Y0133138D01*
X0174036Y0133326D02*
X0180146Y0133326D01*
X0180146Y0133514D02*
X0174036Y0133514D01*
X0174036Y0133702D02*
X0180146Y0133702D01*
X0180146Y0133890D02*
X0174036Y0133890D01*
X0174036Y0134078D02*
X0180146Y0134078D01*
X0180146Y0134266D02*
X0174036Y0134266D01*
X0174036Y0134454D02*
X0180146Y0134454D01*
X0180146Y0134642D02*
X0174036Y0134642D01*
X0174036Y0134830D02*
X0180146Y0134830D01*
X0180146Y0135018D02*
X0174036Y0135018D01*
X0174036Y0135206D02*
X0180146Y0135206D01*
X0180146Y0135394D02*
X0174036Y0135394D01*
X0174036Y0135582D02*
X0180146Y0135582D01*
X0180146Y0135770D02*
X0174036Y0135770D01*
X0174036Y0135958D02*
X0180146Y0135958D01*
X0180146Y0136146D02*
X0174036Y0136146D01*
X0174036Y0136334D02*
X0180146Y0136334D01*
X0180146Y0136522D02*
X0174036Y0136522D01*
X0174036Y0136710D02*
X0180146Y0136710D01*
X0180146Y0136898D02*
X0174036Y0136898D01*
X0174036Y0137086D02*
X0180146Y0137086D01*
X0167547Y0087376D02*
X0161437Y0087376D01*
X0161437Y0097818D01*
X0167547Y0097818D01*
X0167547Y0087376D01*
X0167547Y0087564D02*
X0161437Y0087564D01*
X0161437Y0087752D02*
X0167547Y0087752D01*
X0167547Y0087940D02*
X0161437Y0087940D01*
X0161437Y0088128D02*
X0167547Y0088128D01*
X0167547Y0088316D02*
X0161437Y0088316D01*
X0161437Y0088504D02*
X0167547Y0088504D01*
X0167547Y0088692D02*
X0161437Y0088692D01*
X0161437Y0088880D02*
X0167547Y0088880D01*
X0167547Y0089068D02*
X0161437Y0089068D01*
X0161437Y0089256D02*
X0167547Y0089256D01*
X0167547Y0089444D02*
X0161437Y0089444D01*
X0161437Y0089632D02*
X0167547Y0089632D01*
X0167547Y0089820D02*
X0161437Y0089820D01*
X0161437Y0090008D02*
X0167547Y0090008D01*
X0167547Y0090196D02*
X0161437Y0090196D01*
X0161437Y0090384D02*
X0167547Y0090384D01*
X0167547Y0090572D02*
X0161437Y0090572D01*
X0161437Y0090760D02*
X0167547Y0090760D01*
X0167547Y0090948D02*
X0161437Y0090948D01*
X0161437Y0091136D02*
X0167547Y0091136D01*
X0167547Y0091324D02*
X0161437Y0091324D01*
X0161437Y0091512D02*
X0167547Y0091512D01*
X0167547Y0091700D02*
X0161437Y0091700D01*
X0161437Y0091888D02*
X0167547Y0091888D01*
X0167547Y0092076D02*
X0161437Y0092076D01*
X0161437Y0092264D02*
X0167547Y0092264D01*
X0167547Y0092452D02*
X0161437Y0092452D01*
X0161437Y0092640D02*
X0167547Y0092640D01*
X0167547Y0092828D02*
X0161437Y0092828D01*
X0161437Y0093016D02*
X0167547Y0093016D01*
X0167547Y0093204D02*
X0161437Y0093204D01*
X0161437Y0093392D02*
X0167547Y0093392D01*
X0167547Y0093580D02*
X0161437Y0093580D01*
X0161437Y0093768D02*
X0167547Y0093768D01*
X0167547Y0093956D02*
X0161437Y0093956D01*
X0161437Y0094144D02*
X0167547Y0094144D01*
X0167547Y0094332D02*
X0161437Y0094332D01*
X0161437Y0094520D02*
X0167547Y0094520D01*
X0167547Y0094708D02*
X0161437Y0094708D01*
X0161437Y0094896D02*
X0167547Y0094896D01*
X0167547Y0095084D02*
X0161437Y0095084D01*
X0161437Y0095272D02*
X0167547Y0095272D01*
X0167547Y0095460D02*
X0161437Y0095460D01*
X0161437Y0095648D02*
X0167547Y0095648D01*
X0167547Y0095836D02*
X0161437Y0095836D01*
X0161437Y0096024D02*
X0167547Y0096024D01*
X0167547Y0096212D02*
X0161437Y0096212D01*
X0161437Y0096400D02*
X0167547Y0096400D01*
X0167547Y0096588D02*
X0161437Y0096588D01*
X0161437Y0096776D02*
X0167547Y0096776D01*
X0167547Y0096964D02*
X0161437Y0096964D01*
X0161437Y0097152D02*
X0167547Y0097152D01*
X0167547Y0097340D02*
X0161437Y0097340D01*
X0161437Y0097528D02*
X0167547Y0097528D01*
X0167547Y0097716D02*
X0161437Y0097716D01*
X0156524Y0087376D02*
X0150414Y0087376D01*
X0150414Y0097818D01*
X0156524Y0097818D01*
X0156524Y0087376D01*
X0156524Y0087564D02*
X0150414Y0087564D01*
X0150414Y0087752D02*
X0156524Y0087752D01*
X0156524Y0087940D02*
X0150414Y0087940D01*
X0150414Y0088128D02*
X0156524Y0088128D01*
X0156524Y0088316D02*
X0150414Y0088316D01*
X0150414Y0088504D02*
X0156524Y0088504D01*
X0156524Y0088692D02*
X0150414Y0088692D01*
X0150414Y0088880D02*
X0156524Y0088880D01*
X0156524Y0089068D02*
X0150414Y0089068D01*
X0150414Y0089256D02*
X0156524Y0089256D01*
X0156524Y0089444D02*
X0150414Y0089444D01*
X0150414Y0089632D02*
X0156524Y0089632D01*
X0156524Y0089820D02*
X0150414Y0089820D01*
X0150414Y0090008D02*
X0156524Y0090008D01*
X0156524Y0090196D02*
X0150414Y0090196D01*
X0150414Y0090384D02*
X0156524Y0090384D01*
X0156524Y0090572D02*
X0150414Y0090572D01*
X0150414Y0090760D02*
X0156524Y0090760D01*
X0156524Y0090948D02*
X0150414Y0090948D01*
X0150414Y0091136D02*
X0156524Y0091136D01*
X0156524Y0091324D02*
X0150414Y0091324D01*
X0150414Y0091512D02*
X0156524Y0091512D01*
X0156524Y0091700D02*
X0150414Y0091700D01*
X0150414Y0091888D02*
X0156524Y0091888D01*
X0156524Y0092076D02*
X0150414Y0092076D01*
X0150414Y0092264D02*
X0156524Y0092264D01*
X0156524Y0092452D02*
X0150414Y0092452D01*
X0150414Y0092640D02*
X0156524Y0092640D01*
X0156524Y0092828D02*
X0150414Y0092828D01*
X0150414Y0093016D02*
X0156524Y0093016D01*
X0156524Y0093204D02*
X0150414Y0093204D01*
X0150414Y0093392D02*
X0156524Y0093392D01*
X0156524Y0093580D02*
X0150414Y0093580D01*
X0150414Y0093768D02*
X0156524Y0093768D01*
X0156524Y0093956D02*
X0150414Y0093956D01*
X0150414Y0094144D02*
X0156524Y0094144D01*
X0156524Y0094332D02*
X0150414Y0094332D01*
X0150414Y0094520D02*
X0156524Y0094520D01*
X0156524Y0094708D02*
X0150414Y0094708D01*
X0150414Y0094896D02*
X0156524Y0094896D01*
X0156524Y0095084D02*
X0150414Y0095084D01*
X0150414Y0095272D02*
X0156524Y0095272D01*
X0156524Y0095460D02*
X0150414Y0095460D01*
X0150414Y0095648D02*
X0156524Y0095648D01*
X0156524Y0095836D02*
X0150414Y0095836D01*
X0150414Y0096024D02*
X0156524Y0096024D01*
X0156524Y0096212D02*
X0150414Y0096212D01*
X0150414Y0096400D02*
X0156524Y0096400D01*
X0156524Y0096588D02*
X0150414Y0096588D01*
X0150414Y0096776D02*
X0156524Y0096776D01*
X0156524Y0096964D02*
X0150414Y0096964D01*
X0150414Y0097152D02*
X0156524Y0097152D01*
X0156524Y0097340D02*
X0150414Y0097340D01*
X0150414Y0097528D02*
X0156524Y0097528D01*
X0156524Y0097716D02*
X0150414Y0097716D01*
D12*
X0150020Y0104117D02*
X0150020Y0109031D01*
X0150020Y0104117D02*
X0144318Y0104117D01*
X0144318Y0109031D01*
X0150020Y0109031D01*
X0150020Y0104321D02*
X0144318Y0104321D01*
X0144318Y0104525D02*
X0150020Y0104525D01*
X0150020Y0104729D02*
X0144318Y0104729D01*
X0144318Y0104933D02*
X0150020Y0104933D01*
X0150020Y0105137D02*
X0144318Y0105137D01*
X0144318Y0105341D02*
X0150020Y0105341D01*
X0150020Y0105545D02*
X0144318Y0105545D01*
X0144318Y0105749D02*
X0150020Y0105749D01*
X0150020Y0105953D02*
X0144318Y0105953D01*
X0144318Y0106157D02*
X0150020Y0106157D01*
X0150020Y0106361D02*
X0144318Y0106361D01*
X0144318Y0106565D02*
X0150020Y0106565D01*
X0150020Y0106769D02*
X0144318Y0106769D01*
X0144318Y0106973D02*
X0150020Y0106973D01*
X0150020Y0107177D02*
X0144318Y0107177D01*
X0144318Y0107381D02*
X0150020Y0107381D01*
X0150020Y0107585D02*
X0144318Y0107585D01*
X0144318Y0107789D02*
X0150020Y0107789D01*
X0150020Y0107993D02*
X0144318Y0107993D01*
X0144318Y0108197D02*
X0150020Y0108197D01*
X0150020Y0108401D02*
X0144318Y0108401D01*
X0144318Y0108605D02*
X0150020Y0108605D01*
X0150020Y0108809D02*
X0144318Y0108809D01*
X0144318Y0109013D02*
X0150020Y0109013D01*
X0150020Y0111597D02*
X0150020Y0116511D01*
X0150020Y0111597D02*
X0144318Y0111597D01*
X0144318Y0116511D01*
X0150020Y0116511D01*
X0150020Y0111801D02*
X0144318Y0111801D01*
X0144318Y0112005D02*
X0150020Y0112005D01*
X0150020Y0112209D02*
X0144318Y0112209D01*
X0144318Y0112413D02*
X0150020Y0112413D01*
X0150020Y0112617D02*
X0144318Y0112617D01*
X0144318Y0112821D02*
X0150020Y0112821D01*
X0150020Y0113025D02*
X0144318Y0113025D01*
X0144318Y0113229D02*
X0150020Y0113229D01*
X0150020Y0113433D02*
X0144318Y0113433D01*
X0144318Y0113637D02*
X0150020Y0113637D01*
X0150020Y0113841D02*
X0144318Y0113841D01*
X0144318Y0114045D02*
X0150020Y0114045D01*
X0150020Y0114249D02*
X0144318Y0114249D01*
X0144318Y0114453D02*
X0150020Y0114453D01*
X0150020Y0114657D02*
X0144318Y0114657D01*
X0144318Y0114861D02*
X0150020Y0114861D01*
X0150020Y0115065D02*
X0144318Y0115065D01*
X0144318Y0115269D02*
X0150020Y0115269D01*
X0150020Y0115473D02*
X0144318Y0115473D01*
X0144318Y0115677D02*
X0150020Y0115677D01*
X0150020Y0115881D02*
X0144318Y0115881D01*
X0144318Y0116085D02*
X0150020Y0116085D01*
X0150020Y0116289D02*
X0144318Y0116289D01*
X0144318Y0116493D02*
X0150020Y0116493D01*
X0148846Y0127148D02*
X0153760Y0127148D01*
X0148846Y0127148D02*
X0148846Y0132850D01*
X0153760Y0132850D01*
X0153760Y0127148D01*
X0153760Y0127352D02*
X0148846Y0127352D01*
X0148846Y0127556D02*
X0153760Y0127556D01*
X0153760Y0127760D02*
X0148846Y0127760D01*
X0148846Y0127964D02*
X0153760Y0127964D01*
X0153760Y0128168D02*
X0148846Y0128168D01*
X0148846Y0128372D02*
X0153760Y0128372D01*
X0153760Y0128576D02*
X0148846Y0128576D01*
X0148846Y0128780D02*
X0153760Y0128780D01*
X0153760Y0128984D02*
X0148846Y0128984D01*
X0148846Y0129188D02*
X0153760Y0129188D01*
X0153760Y0129392D02*
X0148846Y0129392D01*
X0148846Y0129596D02*
X0153760Y0129596D01*
X0153760Y0129800D02*
X0148846Y0129800D01*
X0148846Y0130004D02*
X0153760Y0130004D01*
X0153760Y0130208D02*
X0148846Y0130208D01*
X0148846Y0130412D02*
X0153760Y0130412D01*
X0153760Y0130616D02*
X0148846Y0130616D01*
X0148846Y0130820D02*
X0153760Y0130820D01*
X0153760Y0131024D02*
X0148846Y0131024D01*
X0148846Y0131228D02*
X0153760Y0131228D01*
X0153760Y0131432D02*
X0148846Y0131432D01*
X0148846Y0131636D02*
X0153760Y0131636D01*
X0153760Y0131840D02*
X0148846Y0131840D01*
X0148846Y0132044D02*
X0153760Y0132044D01*
X0153760Y0132248D02*
X0148846Y0132248D01*
X0148846Y0132452D02*
X0153760Y0132452D01*
X0153760Y0132656D02*
X0148846Y0132656D01*
X0156326Y0127148D02*
X0161240Y0127148D01*
X0156326Y0127148D02*
X0156326Y0132850D01*
X0161240Y0132850D01*
X0161240Y0127148D01*
X0161240Y0127352D02*
X0156326Y0127352D01*
X0156326Y0127556D02*
X0161240Y0127556D01*
X0161240Y0127760D02*
X0156326Y0127760D01*
X0156326Y0127964D02*
X0161240Y0127964D01*
X0161240Y0128168D02*
X0156326Y0128168D01*
X0156326Y0128372D02*
X0161240Y0128372D01*
X0161240Y0128576D02*
X0156326Y0128576D01*
X0156326Y0128780D02*
X0161240Y0128780D01*
X0161240Y0128984D02*
X0156326Y0128984D01*
X0156326Y0129188D02*
X0161240Y0129188D01*
X0161240Y0129392D02*
X0156326Y0129392D01*
X0156326Y0129596D02*
X0161240Y0129596D01*
X0161240Y0129800D02*
X0156326Y0129800D01*
X0156326Y0130004D02*
X0161240Y0130004D01*
X0161240Y0130208D02*
X0156326Y0130208D01*
X0156326Y0130412D02*
X0161240Y0130412D01*
X0161240Y0130616D02*
X0156326Y0130616D01*
X0156326Y0130820D02*
X0161240Y0130820D01*
X0161240Y0131024D02*
X0156326Y0131024D01*
X0156326Y0131228D02*
X0161240Y0131228D01*
X0161240Y0131432D02*
X0156326Y0131432D01*
X0156326Y0131636D02*
X0161240Y0131636D01*
X0161240Y0131840D02*
X0156326Y0131840D01*
X0156326Y0132044D02*
X0161240Y0132044D01*
X0161240Y0132248D02*
X0156326Y0132248D01*
X0156326Y0132452D02*
X0161240Y0132452D01*
X0161240Y0132656D02*
X0156326Y0132656D01*
X0197264Y0110605D02*
X0197264Y0105691D01*
X0191562Y0105691D01*
X0191562Y0110605D01*
X0197264Y0110605D01*
X0197264Y0105895D02*
X0191562Y0105895D01*
X0191562Y0106099D02*
X0197264Y0106099D01*
X0197264Y0106303D02*
X0191562Y0106303D01*
X0191562Y0106507D02*
X0197264Y0106507D01*
X0197264Y0106711D02*
X0191562Y0106711D01*
X0191562Y0106915D02*
X0197264Y0106915D01*
X0197264Y0107119D02*
X0191562Y0107119D01*
X0191562Y0107323D02*
X0197264Y0107323D01*
X0197264Y0107527D02*
X0191562Y0107527D01*
X0191562Y0107731D02*
X0197264Y0107731D01*
X0197264Y0107935D02*
X0191562Y0107935D01*
X0191562Y0108139D02*
X0197264Y0108139D01*
X0197264Y0108343D02*
X0191562Y0108343D01*
X0191562Y0108547D02*
X0197264Y0108547D01*
X0197264Y0108751D02*
X0191562Y0108751D01*
X0191562Y0108955D02*
X0197264Y0108955D01*
X0197264Y0109159D02*
X0191562Y0109159D01*
X0191562Y0109363D02*
X0197264Y0109363D01*
X0197264Y0109567D02*
X0191562Y0109567D01*
X0191562Y0109771D02*
X0197264Y0109771D01*
X0197264Y0109975D02*
X0191562Y0109975D01*
X0191562Y0110179D02*
X0197264Y0110179D01*
X0197264Y0110383D02*
X0191562Y0110383D01*
X0191562Y0110587D02*
X0197264Y0110587D01*
X0197264Y0103125D02*
X0197264Y0098211D01*
X0191562Y0098211D01*
X0191562Y0103125D01*
X0197264Y0103125D01*
X0197264Y0098415D02*
X0191562Y0098415D01*
X0191562Y0098619D02*
X0197264Y0098619D01*
X0197264Y0098823D02*
X0191562Y0098823D01*
X0191562Y0099027D02*
X0197264Y0099027D01*
X0197264Y0099231D02*
X0191562Y0099231D01*
X0191562Y0099435D02*
X0197264Y0099435D01*
X0197264Y0099639D02*
X0191562Y0099639D01*
X0191562Y0099843D02*
X0197264Y0099843D01*
X0197264Y0100047D02*
X0191562Y0100047D01*
X0191562Y0100251D02*
X0197264Y0100251D01*
X0197264Y0100455D02*
X0191562Y0100455D01*
X0191562Y0100659D02*
X0197264Y0100659D01*
X0197264Y0100863D02*
X0191562Y0100863D01*
X0191562Y0101067D02*
X0197264Y0101067D01*
X0197264Y0101271D02*
X0191562Y0101271D01*
X0191562Y0101475D02*
X0197264Y0101475D01*
X0197264Y0101679D02*
X0191562Y0101679D01*
X0191562Y0101883D02*
X0197264Y0101883D01*
X0197264Y0102087D02*
X0191562Y0102087D01*
X0191562Y0102291D02*
X0197264Y0102291D01*
X0197264Y0102495D02*
X0191562Y0102495D01*
X0191562Y0102699D02*
X0197264Y0102699D01*
X0197264Y0102903D02*
X0191562Y0102903D01*
X0191562Y0103107D02*
X0197264Y0103107D01*
X0100217Y0095652D02*
X0095303Y0095652D01*
X0095303Y0101354D01*
X0100217Y0101354D01*
X0100217Y0095652D01*
X0100217Y0095856D02*
X0095303Y0095856D01*
X0095303Y0096060D02*
X0100217Y0096060D01*
X0100217Y0096264D02*
X0095303Y0096264D01*
X0095303Y0096468D02*
X0100217Y0096468D01*
X0100217Y0096672D02*
X0095303Y0096672D01*
X0095303Y0096876D02*
X0100217Y0096876D01*
X0100217Y0097080D02*
X0095303Y0097080D01*
X0095303Y0097284D02*
X0100217Y0097284D01*
X0100217Y0097488D02*
X0095303Y0097488D01*
X0095303Y0097692D02*
X0100217Y0097692D01*
X0100217Y0097896D02*
X0095303Y0097896D01*
X0095303Y0098100D02*
X0100217Y0098100D01*
X0100217Y0098304D02*
X0095303Y0098304D01*
X0095303Y0098508D02*
X0100217Y0098508D01*
X0100217Y0098712D02*
X0095303Y0098712D01*
X0095303Y0098916D02*
X0100217Y0098916D01*
X0100217Y0099120D02*
X0095303Y0099120D01*
X0095303Y0099324D02*
X0100217Y0099324D01*
X0100217Y0099528D02*
X0095303Y0099528D01*
X0095303Y0099732D02*
X0100217Y0099732D01*
X0100217Y0099936D02*
X0095303Y0099936D01*
X0095303Y0100140D02*
X0100217Y0100140D01*
X0100217Y0100344D02*
X0095303Y0100344D01*
X0095303Y0100548D02*
X0100217Y0100548D01*
X0100217Y0100752D02*
X0095303Y0100752D01*
X0095303Y0100956D02*
X0100217Y0100956D01*
X0100217Y0101160D02*
X0095303Y0101160D01*
X0092737Y0095652D02*
X0087823Y0095652D01*
X0087823Y0101354D01*
X0092737Y0101354D01*
X0092737Y0095652D01*
X0092737Y0095856D02*
X0087823Y0095856D01*
X0087823Y0096060D02*
X0092737Y0096060D01*
X0092737Y0096264D02*
X0087823Y0096264D01*
X0087823Y0096468D02*
X0092737Y0096468D01*
X0092737Y0096672D02*
X0087823Y0096672D01*
X0087823Y0096876D02*
X0092737Y0096876D01*
X0092737Y0097080D02*
X0087823Y0097080D01*
X0087823Y0097284D02*
X0092737Y0097284D01*
X0092737Y0097488D02*
X0087823Y0097488D01*
X0087823Y0097692D02*
X0092737Y0097692D01*
X0092737Y0097896D02*
X0087823Y0097896D01*
X0087823Y0098100D02*
X0092737Y0098100D01*
X0092737Y0098304D02*
X0087823Y0098304D01*
X0087823Y0098508D02*
X0092737Y0098508D01*
X0092737Y0098712D02*
X0087823Y0098712D01*
X0087823Y0098916D02*
X0092737Y0098916D01*
X0092737Y0099120D02*
X0087823Y0099120D01*
X0087823Y0099324D02*
X0092737Y0099324D01*
X0092737Y0099528D02*
X0087823Y0099528D01*
X0087823Y0099732D02*
X0092737Y0099732D01*
X0092737Y0099936D02*
X0087823Y0099936D01*
X0087823Y0100140D02*
X0092737Y0100140D01*
X0092737Y0100344D02*
X0087823Y0100344D01*
X0087823Y0100548D02*
X0092737Y0100548D01*
X0092737Y0100752D02*
X0087823Y0100752D01*
X0087823Y0100956D02*
X0092737Y0100956D01*
X0092737Y0101160D02*
X0087823Y0101160D01*
X0087823Y0081872D02*
X0092737Y0081872D01*
X0087823Y0081872D02*
X0087823Y0087574D01*
X0092737Y0087574D01*
X0092737Y0081872D01*
X0092737Y0082076D02*
X0087823Y0082076D01*
X0087823Y0082280D02*
X0092737Y0082280D01*
X0092737Y0082484D02*
X0087823Y0082484D01*
X0087823Y0082688D02*
X0092737Y0082688D01*
X0092737Y0082892D02*
X0087823Y0082892D01*
X0087823Y0083096D02*
X0092737Y0083096D01*
X0092737Y0083300D02*
X0087823Y0083300D01*
X0087823Y0083504D02*
X0092737Y0083504D01*
X0092737Y0083708D02*
X0087823Y0083708D01*
X0087823Y0083912D02*
X0092737Y0083912D01*
X0092737Y0084116D02*
X0087823Y0084116D01*
X0087823Y0084320D02*
X0092737Y0084320D01*
X0092737Y0084524D02*
X0087823Y0084524D01*
X0087823Y0084728D02*
X0092737Y0084728D01*
X0092737Y0084932D02*
X0087823Y0084932D01*
X0087823Y0085136D02*
X0092737Y0085136D01*
X0092737Y0085340D02*
X0087823Y0085340D01*
X0087823Y0085544D02*
X0092737Y0085544D01*
X0092737Y0085748D02*
X0087823Y0085748D01*
X0087823Y0085952D02*
X0092737Y0085952D01*
X0092737Y0086156D02*
X0087823Y0086156D01*
X0087823Y0086360D02*
X0092737Y0086360D01*
X0092737Y0086564D02*
X0087823Y0086564D01*
X0087823Y0086768D02*
X0092737Y0086768D01*
X0092737Y0086972D02*
X0087823Y0086972D01*
X0087823Y0087176D02*
X0092737Y0087176D01*
X0092737Y0087380D02*
X0087823Y0087380D01*
X0095303Y0081872D02*
X0100217Y0081872D01*
X0095303Y0081872D02*
X0095303Y0087574D01*
X0100217Y0087574D01*
X0100217Y0081872D01*
X0100217Y0082076D02*
X0095303Y0082076D01*
X0095303Y0082280D02*
X0100217Y0082280D01*
X0100217Y0082484D02*
X0095303Y0082484D01*
X0095303Y0082688D02*
X0100217Y0082688D01*
X0100217Y0082892D02*
X0095303Y0082892D01*
X0095303Y0083096D02*
X0100217Y0083096D01*
X0100217Y0083300D02*
X0095303Y0083300D01*
X0095303Y0083504D02*
X0100217Y0083504D01*
X0100217Y0083708D02*
X0095303Y0083708D01*
X0095303Y0083912D02*
X0100217Y0083912D01*
X0100217Y0084116D02*
X0095303Y0084116D01*
X0095303Y0084320D02*
X0100217Y0084320D01*
X0100217Y0084524D02*
X0095303Y0084524D01*
X0095303Y0084728D02*
X0100217Y0084728D01*
X0100217Y0084932D02*
X0095303Y0084932D01*
X0095303Y0085136D02*
X0100217Y0085136D01*
X0100217Y0085340D02*
X0095303Y0085340D01*
X0095303Y0085544D02*
X0100217Y0085544D01*
X0100217Y0085748D02*
X0095303Y0085748D01*
X0095303Y0085952D02*
X0100217Y0085952D01*
X0100217Y0086156D02*
X0095303Y0086156D01*
X0095303Y0086360D02*
X0100217Y0086360D01*
X0100217Y0086564D02*
X0095303Y0086564D01*
X0095303Y0086768D02*
X0100217Y0086768D01*
X0100217Y0086972D02*
X0095303Y0086972D01*
X0095303Y0087176D02*
X0100217Y0087176D01*
X0100217Y0087380D02*
X0095303Y0087380D01*
X0095303Y0068093D02*
X0100217Y0068093D01*
X0095303Y0068093D02*
X0095303Y0073795D01*
X0100217Y0073795D01*
X0100217Y0068093D01*
X0100217Y0068297D02*
X0095303Y0068297D01*
X0095303Y0068501D02*
X0100217Y0068501D01*
X0100217Y0068705D02*
X0095303Y0068705D01*
X0095303Y0068909D02*
X0100217Y0068909D01*
X0100217Y0069113D02*
X0095303Y0069113D01*
X0095303Y0069317D02*
X0100217Y0069317D01*
X0100217Y0069521D02*
X0095303Y0069521D01*
X0095303Y0069725D02*
X0100217Y0069725D01*
X0100217Y0069929D02*
X0095303Y0069929D01*
X0095303Y0070133D02*
X0100217Y0070133D01*
X0100217Y0070337D02*
X0095303Y0070337D01*
X0095303Y0070541D02*
X0100217Y0070541D01*
X0100217Y0070745D02*
X0095303Y0070745D01*
X0095303Y0070949D02*
X0100217Y0070949D01*
X0100217Y0071153D02*
X0095303Y0071153D01*
X0095303Y0071357D02*
X0100217Y0071357D01*
X0100217Y0071561D02*
X0095303Y0071561D01*
X0095303Y0071765D02*
X0100217Y0071765D01*
X0100217Y0071969D02*
X0095303Y0071969D01*
X0095303Y0072173D02*
X0100217Y0072173D01*
X0100217Y0072377D02*
X0095303Y0072377D01*
X0095303Y0072581D02*
X0100217Y0072581D01*
X0100217Y0072785D02*
X0095303Y0072785D01*
X0095303Y0072989D02*
X0100217Y0072989D01*
X0100217Y0073193D02*
X0095303Y0073193D01*
X0095303Y0073397D02*
X0100217Y0073397D01*
X0100217Y0073601D02*
X0095303Y0073601D01*
X0092737Y0068093D02*
X0087823Y0068093D01*
X0087823Y0073795D01*
X0092737Y0073795D01*
X0092737Y0068093D01*
X0092737Y0068297D02*
X0087823Y0068297D01*
X0087823Y0068501D02*
X0092737Y0068501D01*
X0092737Y0068705D02*
X0087823Y0068705D01*
X0087823Y0068909D02*
X0092737Y0068909D01*
X0092737Y0069113D02*
X0087823Y0069113D01*
X0087823Y0069317D02*
X0092737Y0069317D01*
X0092737Y0069521D02*
X0087823Y0069521D01*
X0087823Y0069725D02*
X0092737Y0069725D01*
X0092737Y0069929D02*
X0087823Y0069929D01*
X0087823Y0070133D02*
X0092737Y0070133D01*
X0092737Y0070337D02*
X0087823Y0070337D01*
X0087823Y0070541D02*
X0092737Y0070541D01*
X0092737Y0070745D02*
X0087823Y0070745D01*
X0087823Y0070949D02*
X0092737Y0070949D01*
X0092737Y0071153D02*
X0087823Y0071153D01*
X0087823Y0071357D02*
X0092737Y0071357D01*
X0092737Y0071561D02*
X0087823Y0071561D01*
X0087823Y0071765D02*
X0092737Y0071765D01*
X0092737Y0071969D02*
X0087823Y0071969D01*
X0087823Y0072173D02*
X0092737Y0072173D01*
X0092737Y0072377D02*
X0087823Y0072377D01*
X0087823Y0072581D02*
X0092737Y0072581D01*
X0092737Y0072785D02*
X0087823Y0072785D01*
X0087823Y0072989D02*
X0092737Y0072989D01*
X0092737Y0073193D02*
X0087823Y0073193D01*
X0087823Y0073397D02*
X0092737Y0073397D01*
X0092737Y0073601D02*
X0087823Y0073601D01*
D13*
X0204256Y0092282D03*
X0204256Y0132282D03*
D14*
X0125428Y0101368D02*
X0119698Y0101368D01*
X0125428Y0101368D02*
X0125428Y0095638D01*
X0119698Y0095638D01*
X0119698Y0101368D01*
X0119698Y0095814D02*
X0125428Y0095814D01*
X0125428Y0095990D02*
X0119698Y0095990D01*
X0119698Y0096166D02*
X0125428Y0096166D01*
X0125428Y0096342D02*
X0119698Y0096342D01*
X0119698Y0096518D02*
X0125428Y0096518D01*
X0125428Y0096694D02*
X0119698Y0096694D01*
X0119698Y0096870D02*
X0125428Y0096870D01*
X0125428Y0097046D02*
X0119698Y0097046D01*
X0119698Y0097222D02*
X0125428Y0097222D01*
X0125428Y0097398D02*
X0119698Y0097398D01*
X0119698Y0097574D02*
X0125428Y0097574D01*
X0125428Y0097750D02*
X0119698Y0097750D01*
X0119698Y0097926D02*
X0125428Y0097926D01*
X0125428Y0098102D02*
X0119698Y0098102D01*
X0119698Y0098278D02*
X0125428Y0098278D01*
X0125428Y0098454D02*
X0119698Y0098454D01*
X0119698Y0098630D02*
X0125428Y0098630D01*
X0125428Y0098806D02*
X0119698Y0098806D01*
X0119698Y0098982D02*
X0125428Y0098982D01*
X0125428Y0099158D02*
X0119698Y0099158D01*
X0119698Y0099334D02*
X0125428Y0099334D01*
X0125428Y0099510D02*
X0119698Y0099510D01*
X0119698Y0099686D02*
X0125428Y0099686D01*
X0125428Y0099862D02*
X0119698Y0099862D01*
X0119698Y0100038D02*
X0125428Y0100038D01*
X0125428Y0100214D02*
X0119698Y0100214D01*
X0119698Y0100390D02*
X0125428Y0100390D01*
X0125428Y0100566D02*
X0119698Y0100566D01*
X0119698Y0100742D02*
X0125428Y0100742D01*
X0125428Y0100918D02*
X0119698Y0100918D01*
X0119698Y0101094D02*
X0125428Y0101094D01*
X0125428Y0101270D02*
X0119698Y0101270D01*
X0111648Y0101368D02*
X0105918Y0101368D01*
X0111648Y0101368D02*
X0111648Y0095638D01*
X0105918Y0095638D01*
X0105918Y0101368D01*
X0105918Y0095814D02*
X0111648Y0095814D01*
X0111648Y0095990D02*
X0105918Y0095990D01*
X0105918Y0096166D02*
X0111648Y0096166D01*
X0111648Y0096342D02*
X0105918Y0096342D01*
X0105918Y0096518D02*
X0111648Y0096518D01*
X0111648Y0096694D02*
X0105918Y0096694D01*
X0105918Y0096870D02*
X0111648Y0096870D01*
X0111648Y0097046D02*
X0105918Y0097046D01*
X0105918Y0097222D02*
X0111648Y0097222D01*
X0111648Y0097398D02*
X0105918Y0097398D01*
X0105918Y0097574D02*
X0111648Y0097574D01*
X0111648Y0097750D02*
X0105918Y0097750D01*
X0105918Y0097926D02*
X0111648Y0097926D01*
X0111648Y0098102D02*
X0105918Y0098102D01*
X0105918Y0098278D02*
X0111648Y0098278D01*
X0111648Y0098454D02*
X0105918Y0098454D01*
X0105918Y0098630D02*
X0111648Y0098630D01*
X0111648Y0098806D02*
X0105918Y0098806D01*
X0105918Y0098982D02*
X0111648Y0098982D01*
X0111648Y0099158D02*
X0105918Y0099158D01*
X0105918Y0099334D02*
X0111648Y0099334D01*
X0111648Y0099510D02*
X0105918Y0099510D01*
X0105918Y0099686D02*
X0111648Y0099686D01*
X0111648Y0099862D02*
X0105918Y0099862D01*
X0105918Y0100038D02*
X0111648Y0100038D01*
X0111648Y0100214D02*
X0105918Y0100214D01*
X0105918Y0100390D02*
X0111648Y0100390D01*
X0111648Y0100566D02*
X0105918Y0100566D01*
X0105918Y0100742D02*
X0111648Y0100742D01*
X0111648Y0100918D02*
X0105918Y0100918D01*
X0105918Y0101094D02*
X0111648Y0101094D01*
X0111648Y0101270D02*
X0105918Y0101270D01*
X0105918Y0087588D02*
X0111648Y0087588D01*
X0111648Y0081858D01*
X0105918Y0081858D01*
X0105918Y0087588D01*
X0105918Y0082034D02*
X0111648Y0082034D01*
X0111648Y0082210D02*
X0105918Y0082210D01*
X0105918Y0082386D02*
X0111648Y0082386D01*
X0111648Y0082562D02*
X0105918Y0082562D01*
X0105918Y0082738D02*
X0111648Y0082738D01*
X0111648Y0082914D02*
X0105918Y0082914D01*
X0105918Y0083090D02*
X0111648Y0083090D01*
X0111648Y0083266D02*
X0105918Y0083266D01*
X0105918Y0083442D02*
X0111648Y0083442D01*
X0111648Y0083618D02*
X0105918Y0083618D01*
X0105918Y0083794D02*
X0111648Y0083794D01*
X0111648Y0083970D02*
X0105918Y0083970D01*
X0105918Y0084146D02*
X0111648Y0084146D01*
X0111648Y0084322D02*
X0105918Y0084322D01*
X0105918Y0084498D02*
X0111648Y0084498D01*
X0111648Y0084674D02*
X0105918Y0084674D01*
X0105918Y0084850D02*
X0111648Y0084850D01*
X0111648Y0085026D02*
X0105918Y0085026D01*
X0105918Y0085202D02*
X0111648Y0085202D01*
X0111648Y0085378D02*
X0105918Y0085378D01*
X0105918Y0085554D02*
X0111648Y0085554D01*
X0111648Y0085730D02*
X0105918Y0085730D01*
X0105918Y0085906D02*
X0111648Y0085906D01*
X0111648Y0086082D02*
X0105918Y0086082D01*
X0105918Y0086258D02*
X0111648Y0086258D01*
X0111648Y0086434D02*
X0105918Y0086434D01*
X0105918Y0086610D02*
X0111648Y0086610D01*
X0111648Y0086786D02*
X0105918Y0086786D01*
X0105918Y0086962D02*
X0111648Y0086962D01*
X0111648Y0087138D02*
X0105918Y0087138D01*
X0105918Y0087314D02*
X0111648Y0087314D01*
X0111648Y0087490D02*
X0105918Y0087490D01*
X0119698Y0087588D02*
X0125428Y0087588D01*
X0125428Y0081858D01*
X0119698Y0081858D01*
X0119698Y0087588D01*
X0119698Y0082034D02*
X0125428Y0082034D01*
X0125428Y0082210D02*
X0119698Y0082210D01*
X0119698Y0082386D02*
X0125428Y0082386D01*
X0125428Y0082562D02*
X0119698Y0082562D01*
X0119698Y0082738D02*
X0125428Y0082738D01*
X0125428Y0082914D02*
X0119698Y0082914D01*
X0119698Y0083090D02*
X0125428Y0083090D01*
X0125428Y0083266D02*
X0119698Y0083266D01*
X0119698Y0083442D02*
X0125428Y0083442D01*
X0125428Y0083618D02*
X0119698Y0083618D01*
X0119698Y0083794D02*
X0125428Y0083794D01*
X0125428Y0083970D02*
X0119698Y0083970D01*
X0119698Y0084146D02*
X0125428Y0084146D01*
X0125428Y0084322D02*
X0119698Y0084322D01*
X0119698Y0084498D02*
X0125428Y0084498D01*
X0125428Y0084674D02*
X0119698Y0084674D01*
X0119698Y0084850D02*
X0125428Y0084850D01*
X0125428Y0085026D02*
X0119698Y0085026D01*
X0119698Y0085202D02*
X0125428Y0085202D01*
X0125428Y0085378D02*
X0119698Y0085378D01*
X0119698Y0085554D02*
X0125428Y0085554D01*
X0125428Y0085730D02*
X0119698Y0085730D01*
X0119698Y0085906D02*
X0125428Y0085906D01*
X0125428Y0086082D02*
X0119698Y0086082D01*
X0119698Y0086258D02*
X0125428Y0086258D01*
X0125428Y0086434D02*
X0119698Y0086434D01*
X0119698Y0086610D02*
X0125428Y0086610D01*
X0125428Y0086786D02*
X0119698Y0086786D01*
X0119698Y0086962D02*
X0125428Y0086962D01*
X0125428Y0087138D02*
X0119698Y0087138D01*
X0119698Y0087314D02*
X0125428Y0087314D01*
X0125428Y0087490D02*
X0119698Y0087490D01*
X0119698Y0073809D02*
X0125428Y0073809D01*
X0125428Y0068079D01*
X0119698Y0068079D01*
X0119698Y0073809D01*
X0119698Y0068255D02*
X0125428Y0068255D01*
X0125428Y0068431D02*
X0119698Y0068431D01*
X0119698Y0068607D02*
X0125428Y0068607D01*
X0125428Y0068783D02*
X0119698Y0068783D01*
X0119698Y0068959D02*
X0125428Y0068959D01*
X0125428Y0069135D02*
X0119698Y0069135D01*
X0119698Y0069311D02*
X0125428Y0069311D01*
X0125428Y0069487D02*
X0119698Y0069487D01*
X0119698Y0069663D02*
X0125428Y0069663D01*
X0125428Y0069839D02*
X0119698Y0069839D01*
X0119698Y0070015D02*
X0125428Y0070015D01*
X0125428Y0070191D02*
X0119698Y0070191D01*
X0119698Y0070367D02*
X0125428Y0070367D01*
X0125428Y0070543D02*
X0119698Y0070543D01*
X0119698Y0070719D02*
X0125428Y0070719D01*
X0125428Y0070895D02*
X0119698Y0070895D01*
X0119698Y0071071D02*
X0125428Y0071071D01*
X0125428Y0071247D02*
X0119698Y0071247D01*
X0119698Y0071423D02*
X0125428Y0071423D01*
X0125428Y0071599D02*
X0119698Y0071599D01*
X0119698Y0071775D02*
X0125428Y0071775D01*
X0125428Y0071951D02*
X0119698Y0071951D01*
X0119698Y0072127D02*
X0125428Y0072127D01*
X0125428Y0072303D02*
X0119698Y0072303D01*
X0119698Y0072479D02*
X0125428Y0072479D01*
X0125428Y0072655D02*
X0119698Y0072655D01*
X0119698Y0072831D02*
X0125428Y0072831D01*
X0125428Y0073007D02*
X0119698Y0073007D01*
X0119698Y0073183D02*
X0125428Y0073183D01*
X0125428Y0073359D02*
X0119698Y0073359D01*
X0119698Y0073535D02*
X0125428Y0073535D01*
X0125428Y0073711D02*
X0119698Y0073711D01*
X0111648Y0073809D02*
X0105918Y0073809D01*
X0111648Y0073809D02*
X0111648Y0068079D01*
X0105918Y0068079D01*
X0105918Y0073809D01*
X0105918Y0068255D02*
X0111648Y0068255D01*
X0111648Y0068431D02*
X0105918Y0068431D01*
X0105918Y0068607D02*
X0111648Y0068607D01*
X0111648Y0068783D02*
X0105918Y0068783D01*
X0105918Y0068959D02*
X0111648Y0068959D01*
X0111648Y0069135D02*
X0105918Y0069135D01*
X0105918Y0069311D02*
X0111648Y0069311D01*
X0111648Y0069487D02*
X0105918Y0069487D01*
X0105918Y0069663D02*
X0111648Y0069663D01*
X0111648Y0069839D02*
X0105918Y0069839D01*
X0105918Y0070015D02*
X0111648Y0070015D01*
X0111648Y0070191D02*
X0105918Y0070191D01*
X0105918Y0070367D02*
X0111648Y0070367D01*
X0111648Y0070543D02*
X0105918Y0070543D01*
X0105918Y0070719D02*
X0111648Y0070719D01*
X0111648Y0070895D02*
X0105918Y0070895D01*
X0105918Y0071071D02*
X0111648Y0071071D01*
X0111648Y0071247D02*
X0105918Y0071247D01*
X0105918Y0071423D02*
X0111648Y0071423D01*
X0111648Y0071599D02*
X0105918Y0071599D01*
X0105918Y0071775D02*
X0111648Y0071775D01*
X0111648Y0071951D02*
X0105918Y0071951D01*
X0105918Y0072127D02*
X0111648Y0072127D01*
X0111648Y0072303D02*
X0105918Y0072303D01*
X0105918Y0072479D02*
X0111648Y0072479D01*
X0111648Y0072655D02*
X0105918Y0072655D01*
X0105918Y0072831D02*
X0111648Y0072831D01*
X0111648Y0073007D02*
X0105918Y0073007D01*
X0105918Y0073183D02*
X0111648Y0073183D01*
X0111648Y0073359D02*
X0105918Y0073359D01*
X0105918Y0073535D02*
X0111648Y0073535D01*
X0111648Y0073711D02*
X0105918Y0073711D01*
D15*
X0045555Y0077479D03*
X0037681Y0077479D03*
X0036933Y0155589D03*
X0044807Y0155589D03*
D16*
X0089217Y0150708D03*
X0109217Y0150708D03*
D17*
X0029846Y0130589D03*
X0030240Y0122519D03*
X0030240Y0116219D03*
X0030240Y0109920D03*
X0029846Y0101849D03*
X0020398Y0101849D03*
X0020004Y0113070D03*
X0020004Y0119369D03*
X0020398Y0130589D03*
D18*
X0162587Y0120978D02*
X0162587Y0118586D01*
X0154795Y0118586D01*
X0154795Y0120978D01*
X0162587Y0120978D01*
X0162587Y0118793D02*
X0154795Y0118793D01*
X0154795Y0119000D02*
X0162587Y0119000D01*
X0162587Y0119207D02*
X0154795Y0119207D01*
X0154795Y0119414D02*
X0162587Y0119414D01*
X0162587Y0119621D02*
X0154795Y0119621D01*
X0154795Y0119828D02*
X0162587Y0119828D01*
X0162587Y0120035D02*
X0154795Y0120035D01*
X0154795Y0120242D02*
X0162587Y0120242D01*
X0162587Y0120449D02*
X0154795Y0120449D01*
X0154795Y0120656D02*
X0162587Y0120656D01*
X0162587Y0120863D02*
X0154795Y0120863D01*
X0162587Y0115978D02*
X0162587Y0113586D01*
X0154795Y0113586D01*
X0154795Y0115978D01*
X0162587Y0115978D01*
X0162587Y0113793D02*
X0154795Y0113793D01*
X0154795Y0114000D02*
X0162587Y0114000D01*
X0162587Y0114207D02*
X0154795Y0114207D01*
X0154795Y0114414D02*
X0162587Y0114414D01*
X0162587Y0114621D02*
X0154795Y0114621D01*
X0154795Y0114828D02*
X0162587Y0114828D01*
X0162587Y0115035D02*
X0154795Y0115035D01*
X0154795Y0115242D02*
X0162587Y0115242D01*
X0162587Y0115449D02*
X0154795Y0115449D01*
X0154795Y0115656D02*
X0162587Y0115656D01*
X0162587Y0115863D02*
X0154795Y0115863D01*
X0162587Y0110978D02*
X0162587Y0108586D01*
X0154795Y0108586D01*
X0154795Y0110978D01*
X0162587Y0110978D01*
X0162587Y0108793D02*
X0154795Y0108793D01*
X0154795Y0109000D02*
X0162587Y0109000D01*
X0162587Y0109207D02*
X0154795Y0109207D01*
X0154795Y0109414D02*
X0162587Y0109414D01*
X0162587Y0109621D02*
X0154795Y0109621D01*
X0154795Y0109828D02*
X0162587Y0109828D01*
X0162587Y0110035D02*
X0154795Y0110035D01*
X0154795Y0110242D02*
X0162587Y0110242D01*
X0162587Y0110449D02*
X0154795Y0110449D01*
X0154795Y0110656D02*
X0162587Y0110656D01*
X0162587Y0110863D02*
X0154795Y0110863D01*
X0162587Y0105978D02*
X0162587Y0103586D01*
X0154795Y0103586D01*
X0154795Y0105978D01*
X0162587Y0105978D01*
X0162587Y0103793D02*
X0154795Y0103793D01*
X0154795Y0104000D02*
X0162587Y0104000D01*
X0162587Y0104207D02*
X0154795Y0104207D01*
X0154795Y0104414D02*
X0162587Y0104414D01*
X0162587Y0104621D02*
X0154795Y0104621D01*
X0154795Y0104828D02*
X0162587Y0104828D01*
X0162587Y0105035D02*
X0154795Y0105035D01*
X0154795Y0105242D02*
X0162587Y0105242D01*
X0162587Y0105449D02*
X0154795Y0105449D01*
X0154795Y0105656D02*
X0162587Y0105656D01*
X0162587Y0105863D02*
X0154795Y0105863D01*
X0186787Y0105978D02*
X0186787Y0103586D01*
X0178995Y0103586D01*
X0178995Y0105978D01*
X0186787Y0105978D01*
X0186787Y0103793D02*
X0178995Y0103793D01*
X0178995Y0104000D02*
X0186787Y0104000D01*
X0186787Y0104207D02*
X0178995Y0104207D01*
X0178995Y0104414D02*
X0186787Y0104414D01*
X0186787Y0104621D02*
X0178995Y0104621D01*
X0178995Y0104828D02*
X0186787Y0104828D01*
X0186787Y0105035D02*
X0178995Y0105035D01*
X0178995Y0105242D02*
X0186787Y0105242D01*
X0186787Y0105449D02*
X0178995Y0105449D01*
X0178995Y0105656D02*
X0186787Y0105656D01*
X0186787Y0105863D02*
X0178995Y0105863D01*
X0186787Y0108586D02*
X0186787Y0110978D01*
X0186787Y0108586D02*
X0178995Y0108586D01*
X0178995Y0110978D01*
X0186787Y0110978D01*
X0186787Y0108793D02*
X0178995Y0108793D01*
X0178995Y0109000D02*
X0186787Y0109000D01*
X0186787Y0109207D02*
X0178995Y0109207D01*
X0178995Y0109414D02*
X0186787Y0109414D01*
X0186787Y0109621D02*
X0178995Y0109621D01*
X0178995Y0109828D02*
X0186787Y0109828D01*
X0186787Y0110035D02*
X0178995Y0110035D01*
X0178995Y0110242D02*
X0186787Y0110242D01*
X0186787Y0110449D02*
X0178995Y0110449D01*
X0178995Y0110656D02*
X0186787Y0110656D01*
X0186787Y0110863D02*
X0178995Y0110863D01*
X0186787Y0113586D02*
X0186787Y0115978D01*
X0186787Y0113586D02*
X0178995Y0113586D01*
X0178995Y0115978D01*
X0186787Y0115978D01*
X0186787Y0113793D02*
X0178995Y0113793D01*
X0178995Y0114000D02*
X0186787Y0114000D01*
X0186787Y0114207D02*
X0178995Y0114207D01*
X0178995Y0114414D02*
X0186787Y0114414D01*
X0186787Y0114621D02*
X0178995Y0114621D01*
X0178995Y0114828D02*
X0186787Y0114828D01*
X0186787Y0115035D02*
X0178995Y0115035D01*
X0178995Y0115242D02*
X0186787Y0115242D01*
X0186787Y0115449D02*
X0178995Y0115449D01*
X0178995Y0115656D02*
X0186787Y0115656D01*
X0186787Y0115863D02*
X0178995Y0115863D01*
X0186787Y0118586D02*
X0186787Y0120978D01*
X0186787Y0118586D02*
X0178995Y0118586D01*
X0178995Y0120978D01*
X0186787Y0120978D01*
X0186787Y0118793D02*
X0178995Y0118793D01*
X0178995Y0119000D02*
X0186787Y0119000D01*
X0186787Y0119207D02*
X0178995Y0119207D01*
X0178995Y0119414D02*
X0186787Y0119414D01*
X0186787Y0119621D02*
X0178995Y0119621D01*
X0178995Y0119828D02*
X0186787Y0119828D01*
X0186787Y0120035D02*
X0178995Y0120035D01*
X0178995Y0120242D02*
X0186787Y0120242D01*
X0186787Y0120449D02*
X0178995Y0120449D01*
X0178995Y0120656D02*
X0186787Y0120656D01*
X0186787Y0120863D02*
X0178995Y0120863D01*
D19*
X0184648Y0157483D02*
X0184648Y0161569D01*
X0192334Y0161569D01*
X0192334Y0157483D01*
X0184648Y0157483D01*
X0184648Y0157697D02*
X0192334Y0157697D01*
X0192334Y0157911D02*
X0184648Y0157911D01*
X0184648Y0158125D02*
X0192334Y0158125D01*
X0192334Y0158339D02*
X0184648Y0158339D01*
X0184648Y0158553D02*
X0192334Y0158553D01*
X0192334Y0158767D02*
X0184648Y0158767D01*
X0184648Y0158981D02*
X0192334Y0158981D01*
X0192334Y0159195D02*
X0184648Y0159195D01*
X0184648Y0159409D02*
X0192334Y0159409D01*
X0192334Y0159623D02*
X0184648Y0159623D01*
X0184648Y0159837D02*
X0192334Y0159837D01*
X0192334Y0160051D02*
X0184648Y0160051D01*
X0184648Y0160265D02*
X0192334Y0160265D01*
X0192334Y0160479D02*
X0184648Y0160479D01*
X0184648Y0160693D02*
X0192334Y0160693D01*
X0192334Y0160907D02*
X0184648Y0160907D01*
X0184648Y0161121D02*
X0192334Y0161121D01*
X0192334Y0161335D02*
X0184648Y0161335D01*
X0184648Y0161549D02*
X0192334Y0161549D01*
X0149248Y0161569D02*
X0149248Y0157483D01*
X0149248Y0161569D02*
X0156934Y0161569D01*
X0156934Y0157483D01*
X0149248Y0157483D01*
X0149248Y0157697D02*
X0156934Y0157697D01*
X0156934Y0157911D02*
X0149248Y0157911D01*
X0149248Y0158125D02*
X0156934Y0158125D01*
X0156934Y0158339D02*
X0149248Y0158339D01*
X0149248Y0158553D02*
X0156934Y0158553D01*
X0156934Y0158767D02*
X0149248Y0158767D01*
X0149248Y0158981D02*
X0156934Y0158981D01*
X0156934Y0159195D02*
X0149248Y0159195D01*
X0149248Y0159409D02*
X0156934Y0159409D01*
X0156934Y0159623D02*
X0149248Y0159623D01*
X0149248Y0159837D02*
X0156934Y0159837D01*
X0156934Y0160051D02*
X0149248Y0160051D01*
X0149248Y0160265D02*
X0156934Y0160265D01*
X0156934Y0160479D02*
X0149248Y0160479D01*
X0149248Y0160693D02*
X0156934Y0160693D01*
X0156934Y0160907D02*
X0149248Y0160907D01*
X0149248Y0161121D02*
X0156934Y0161121D01*
X0156934Y0161335D02*
X0149248Y0161335D01*
X0149248Y0161549D02*
X0156934Y0161549D01*
D20*
X0237720Y0127873D03*
X0237720Y0118030D03*
X0237720Y0110156D03*
X0237720Y0100314D03*
D21*
X0068429Y0111219D03*
D22*
X0068429Y0121219D03*
D23*
X0097760Y0098503D02*
X0108783Y0098503D01*
X0108783Y0084723D02*
X0097760Y0084723D01*
X0097760Y0070944D02*
X0108783Y0070944D01*
X0188921Y0114664D02*
X0194413Y0120156D01*
X0194413Y0155589D01*
X0190476Y0159526D01*
X0188491Y0159526D01*
D24*
X0139295Y0163463D03*
X0102799Y0130353D03*
X0090083Y0118188D03*
X0082209Y0122125D03*
X0111736Y0108345D03*
X0115673Y0114251D03*
X0127484Y0122125D03*
X0123547Y0126062D03*
X0131421Y0118188D03*
X0170791Y0082755D03*
X0170791Y0068975D03*
X0139295Y0068975D03*
X0223941Y0114251D03*
D25*
X0257406Y0057164D02*
X0001500Y0057164D01*
X0257406Y0057164D01*
X0257406Y0175274D01*
X0001500Y0175274D01*
X0001500Y0057164D01*
X0001500Y0058163D02*
X0257406Y0058163D01*
X0257406Y0059161D02*
X0001500Y0059161D01*
X0001500Y0060160D02*
X0257406Y0060160D01*
X0257406Y0061158D02*
X0001500Y0061158D01*
X0001500Y0062157D02*
X0257406Y0062157D01*
X0257406Y0063155D02*
X0001500Y0063155D01*
X0001500Y0064154D02*
X0257406Y0064154D01*
X0257406Y0065152D02*
X0001500Y0065152D01*
X0001500Y0066151D02*
X0257406Y0066151D01*
X0257406Y0067149D02*
X0172914Y0067149D01*
X0172960Y0067195D02*
X0173266Y0067653D01*
X0173476Y0068161D01*
X0173583Y0068700D01*
X0173583Y0068975D01*
X0170791Y0068975D01*
X0167999Y0068975D01*
X0167999Y0068700D01*
X0168107Y0068161D01*
X0168317Y0067653D01*
X0168623Y0067195D01*
X0169011Y0066806D01*
X0169469Y0066501D01*
X0169977Y0066290D01*
X0170516Y0066183D01*
X0170791Y0066183D01*
X0170791Y0068975D01*
X0170791Y0068975D01*
X0170791Y0068975D01*
X0167999Y0068975D01*
X0167999Y0069250D01*
X0168107Y0069790D01*
X0168317Y0070298D01*
X0168623Y0070755D01*
X0169011Y0071144D01*
X0169469Y0071450D01*
X0169977Y0071660D01*
X0170516Y0071767D01*
X0170791Y0071767D01*
X0170791Y0068975D01*
X0170791Y0066183D01*
X0171066Y0066183D01*
X0171606Y0066290D01*
X0172114Y0066501D01*
X0172571Y0066806D01*
X0172960Y0067195D01*
X0173471Y0068148D02*
X0257406Y0068148D01*
X0257406Y0069146D02*
X0173583Y0069146D01*
X0173583Y0069250D02*
X0173476Y0069790D01*
X0173266Y0070298D01*
X0172960Y0070755D01*
X0172571Y0071144D01*
X0172114Y0071450D01*
X0171606Y0071660D01*
X0171066Y0071767D01*
X0170791Y0071767D01*
X0170791Y0068975D01*
X0170791Y0068975D01*
X0170791Y0068975D01*
X0173583Y0068975D01*
X0173583Y0069250D01*
X0173329Y0070145D02*
X0257406Y0070145D01*
X0257406Y0071143D02*
X0172572Y0071143D01*
X0170791Y0071143D02*
X0170791Y0071143D01*
X0170791Y0070145D02*
X0170791Y0070145D01*
X0170791Y0069146D02*
X0170791Y0069146D01*
X0170791Y0068148D02*
X0170791Y0068148D01*
X0170791Y0067149D02*
X0170791Y0067149D01*
X0168669Y0067149D02*
X0141418Y0067149D01*
X0141464Y0067195D02*
X0141770Y0067653D01*
X0141980Y0068161D01*
X0142087Y0068700D01*
X0142087Y0068975D01*
X0139295Y0068975D01*
X0139295Y0068975D01*
X0139295Y0066183D01*
X0139020Y0066183D01*
X0138481Y0066290D01*
X0137973Y0066501D01*
X0137515Y0066806D01*
X0137126Y0067195D01*
X0136821Y0067653D01*
X0136610Y0068161D01*
X0136503Y0068700D01*
X0136503Y0068975D01*
X0139295Y0068975D01*
X0139295Y0068975D01*
X0139295Y0066183D01*
X0139570Y0066183D01*
X0140110Y0066290D01*
X0140618Y0066501D01*
X0141075Y0066806D01*
X0141464Y0067195D01*
X0141975Y0068148D02*
X0168112Y0068148D01*
X0167999Y0069146D02*
X0142087Y0069146D01*
X0142087Y0069250D02*
X0141980Y0069790D01*
X0141770Y0070298D01*
X0141464Y0070755D01*
X0141075Y0071144D01*
X0140618Y0071450D01*
X0140110Y0071660D01*
X0139570Y0071767D01*
X0139295Y0071767D01*
X0139020Y0071767D01*
X0138481Y0071660D01*
X0137973Y0071450D01*
X0137515Y0071144D01*
X0137126Y0070755D01*
X0136821Y0070298D01*
X0136610Y0069790D01*
X0136503Y0069250D01*
X0136503Y0068975D01*
X0139295Y0068975D01*
X0139295Y0071767D01*
X0139295Y0068975D01*
X0139295Y0068975D01*
X0139295Y0068975D01*
X0142087Y0068975D01*
X0142087Y0069250D01*
X0141833Y0070145D02*
X0168254Y0070145D01*
X0169011Y0071143D02*
X0141076Y0071143D01*
X0139295Y0071143D02*
X0139295Y0071143D01*
X0139295Y0070145D02*
X0139295Y0070145D01*
X0139295Y0069146D02*
X0139295Y0069146D01*
X0139295Y0068148D02*
X0139295Y0068148D01*
X0139295Y0067149D02*
X0139295Y0067149D01*
X0137173Y0067149D02*
X0126721Y0067149D01*
X0127000Y0067428D02*
X0126079Y0066507D01*
X0119047Y0066507D01*
X0118126Y0067428D01*
X0118126Y0074459D01*
X0119047Y0075381D01*
X0126079Y0075381D01*
X0126613Y0074847D01*
X0129437Y0077671D01*
X0129437Y0083870D01*
X0128306Y0082739D01*
X0127000Y0082739D01*
X0127000Y0081208D01*
X0126079Y0080286D01*
X0119047Y0080286D01*
X0118126Y0081208D01*
X0118126Y0088239D01*
X0119047Y0089160D01*
X0125500Y0089160D01*
X0125500Y0094066D01*
X0119047Y0094066D01*
X0118126Y0094987D01*
X0118126Y0102018D01*
X0119047Y0102940D01*
X0121563Y0102940D01*
X0121563Y0124120D01*
X0121194Y0124489D01*
X0120771Y0125510D01*
X0120771Y0126614D01*
X0121194Y0127635D01*
X0121975Y0128416D01*
X0122995Y0128838D01*
X0124099Y0128838D01*
X0125120Y0128416D01*
X0125901Y0127635D01*
X0126324Y0126614D01*
X0126324Y0125510D01*
X0125901Y0124489D01*
X0125531Y0124120D01*
X0125531Y0124098D01*
X0125912Y0124479D01*
X0126932Y0124901D01*
X0128037Y0124901D01*
X0129057Y0124479D01*
X0129838Y0123698D01*
X0130261Y0122677D01*
X0130261Y0121573D01*
X0129838Y0120552D01*
X0129468Y0120183D01*
X0129468Y0120161D01*
X0129849Y0120542D01*
X0130869Y0120964D01*
X0131974Y0120964D01*
X0132994Y0120542D01*
X0133775Y0119761D01*
X0134198Y0118740D01*
X0134198Y0117636D01*
X0133775Y0116615D01*
X0133405Y0116246D01*
X0133405Y0076027D01*
X0127000Y0069622D01*
X0127000Y0067428D01*
X0127000Y0068148D02*
X0136616Y0068148D01*
X0136503Y0069146D02*
X0127000Y0069146D01*
X0127523Y0070145D02*
X0136758Y0070145D01*
X0137515Y0071143D02*
X0128522Y0071143D01*
X0129520Y0072142D02*
X0257406Y0072142D01*
X0257406Y0073140D02*
X0130519Y0073140D01*
X0131517Y0074139D02*
X0257406Y0074139D01*
X0257406Y0075137D02*
X0132516Y0075137D01*
X0133405Y0076136D02*
X0257406Y0076136D01*
X0257406Y0077134D02*
X0133405Y0077134D01*
X0133405Y0078133D02*
X0257406Y0078133D01*
X0257406Y0079131D02*
X0133405Y0079131D01*
X0133405Y0080130D02*
X0169832Y0080130D01*
X0169977Y0080070D02*
X0170516Y0079963D01*
X0170791Y0079963D01*
X0170791Y0082755D01*
X0170791Y0082755D01*
X0167999Y0082755D01*
X0167999Y0083030D01*
X0168107Y0083569D01*
X0168317Y0084077D01*
X0168623Y0084535D01*
X0169011Y0084924D01*
X0169469Y0085229D01*
X0169977Y0085440D01*
X0170516Y0085547D01*
X0170791Y0085547D01*
X0170791Y0082755D01*
X0170791Y0082755D01*
X0167999Y0082755D01*
X0167999Y0082480D01*
X0168107Y0081940D01*
X0168317Y0081432D01*
X0168623Y0080975D01*
X0169011Y0080586D01*
X0169469Y0080280D01*
X0169977Y0080070D01*
X0170791Y0080130D02*
X0170791Y0080130D01*
X0170791Y0079963D02*
X0171066Y0079963D01*
X0171606Y0080070D01*
X0172114Y0080280D01*
X0172571Y0080586D01*
X0172960Y0080975D01*
X0173266Y0081432D01*
X0173476Y0081940D01*
X0173583Y0082480D01*
X0173583Y0082755D01*
X0173583Y0083030D01*
X0173476Y0083569D01*
X0173266Y0084077D01*
X0172960Y0084535D01*
X0172571Y0084924D01*
X0172114Y0085229D01*
X0171606Y0085440D01*
X0171066Y0085547D01*
X0170791Y0085547D01*
X0170791Y0082755D01*
X0170791Y0082755D01*
X0173583Y0082755D01*
X0170791Y0082755D01*
X0170791Y0082755D01*
X0170791Y0079963D01*
X0171751Y0080130D02*
X0257406Y0080130D01*
X0257406Y0081129D02*
X0173063Y0081129D01*
X0173513Y0082127D02*
X0257406Y0082127D01*
X0257406Y0083126D02*
X0173564Y0083126D01*
X0173234Y0084124D02*
X0224918Y0084124D01*
X0224636Y0084241D02*
X0226484Y0083475D01*
X0228484Y0083475D01*
X0230332Y0084241D01*
X0231746Y0085655D01*
X0232512Y0087503D01*
X0232512Y0089503D01*
X0231746Y0091351D01*
X0230332Y0092765D01*
X0228484Y0093530D01*
X0226484Y0093530D01*
X0224636Y0092765D01*
X0223222Y0091351D01*
X0222457Y0089503D01*
X0222457Y0087503D01*
X0223222Y0085655D01*
X0224636Y0084241D01*
X0223754Y0085123D02*
X0172273Y0085123D01*
X0170791Y0085123D02*
X0170791Y0085123D01*
X0170791Y0084124D02*
X0170791Y0084124D01*
X0170791Y0083126D02*
X0170791Y0083126D01*
X0170791Y0082127D02*
X0170791Y0082127D01*
X0170791Y0081129D02*
X0170791Y0081129D01*
X0168520Y0081129D02*
X0133405Y0081129D01*
X0133405Y0082127D02*
X0168069Y0082127D01*
X0168018Y0083126D02*
X0133405Y0083126D01*
X0133405Y0084124D02*
X0168348Y0084124D01*
X0169309Y0085123D02*
X0133405Y0085123D01*
X0133405Y0086121D02*
X0149414Y0086121D01*
X0149434Y0086101D02*
X0149798Y0085891D01*
X0150203Y0085782D01*
X0152969Y0085782D01*
X0152969Y0092097D01*
X0153968Y0092097D01*
X0153968Y0085782D01*
X0156734Y0085782D01*
X0157139Y0085891D01*
X0157503Y0086101D01*
X0157800Y0086398D01*
X0158009Y0086761D01*
X0158118Y0087167D01*
X0158118Y0092097D01*
X0153969Y0092097D01*
X0153969Y0093097D01*
X0158118Y0093097D01*
X0158118Y0098028D01*
X0158009Y0098433D01*
X0157800Y0098797D01*
X0157503Y0099094D01*
X0157139Y0099304D01*
X0156734Y0099412D01*
X0153968Y0099412D01*
X0153968Y0093097D01*
X0152969Y0093097D01*
X0152969Y0099412D01*
X0150203Y0099412D01*
X0149798Y0099304D01*
X0149434Y0099094D01*
X0149137Y0098797D01*
X0148928Y0098433D01*
X0148819Y0098028D01*
X0148819Y0093097D01*
X0152968Y0093097D01*
X0152968Y0092097D01*
X0148819Y0092097D01*
X0148819Y0087167D01*
X0148928Y0086761D01*
X0149137Y0086398D01*
X0149434Y0086101D01*
X0148832Y0087120D02*
X0133405Y0087120D01*
X0133405Y0088118D02*
X0148819Y0088118D01*
X0148819Y0089117D02*
X0133405Y0089117D01*
X0133405Y0090115D02*
X0148819Y0090115D01*
X0148819Y0091114D02*
X0133405Y0091114D01*
X0133405Y0092112D02*
X0152968Y0092112D01*
X0152969Y0091114D02*
X0153968Y0091114D01*
X0153969Y0092112D02*
X0159858Y0092112D01*
X0159858Y0091114D02*
X0158118Y0091114D01*
X0158118Y0090115D02*
X0159858Y0090115D01*
X0159858Y0089117D02*
X0158118Y0089117D01*
X0158118Y0088118D02*
X0159858Y0088118D01*
X0159858Y0087120D02*
X0158105Y0087120D01*
X0157523Y0086121D02*
X0160460Y0086121D01*
X0160783Y0085798D02*
X0159858Y0086723D01*
X0159858Y0098472D01*
X0160783Y0099397D01*
X0164780Y0099397D01*
X0164780Y0112708D01*
X0163955Y0112708D01*
X0163529Y0112282D01*
X0164176Y0111636D01*
X0164176Y0107928D01*
X0163532Y0107285D01*
X0163572Y0107262D01*
X0163871Y0106963D01*
X0164082Y0106597D01*
X0164191Y0106190D01*
X0164191Y0104932D01*
X0158841Y0104932D01*
X0158841Y0104632D01*
X0158841Y0101982D01*
X0162799Y0101982D01*
X0163206Y0102092D01*
X0163572Y0102303D01*
X0163871Y0102601D01*
X0164082Y0102967D01*
X0164191Y0103375D01*
X0164191Y0104632D01*
X0158841Y0104632D01*
X0158541Y0104632D01*
X0158541Y0101982D01*
X0154584Y0101982D01*
X0154176Y0102092D01*
X0153810Y0102303D01*
X0153512Y0102601D01*
X0153301Y0102967D01*
X0153191Y0103375D01*
X0153191Y0104632D01*
X0158541Y0104632D01*
X0158541Y0104932D01*
X0153191Y0104932D01*
X0153191Y0106190D01*
X0153301Y0106597D01*
X0153512Y0106963D01*
X0153810Y0107262D01*
X0153851Y0107285D01*
X0153207Y0107928D01*
X0153207Y0111636D01*
X0153853Y0112282D01*
X0153428Y0112708D01*
X0151606Y0112708D01*
X0151606Y0110940D01*
X0150988Y0110322D01*
X0151004Y0110313D01*
X0151302Y0110014D01*
X0151513Y0109649D01*
X0151622Y0109241D01*
X0151622Y0107074D01*
X0147669Y0107074D01*
X0147669Y0106074D01*
X0151622Y0106074D01*
X0151622Y0103906D01*
X0151513Y0103498D01*
X0151302Y0103133D01*
X0151004Y0102835D01*
X0150638Y0102624D01*
X0150231Y0102515D01*
X0147669Y0102515D01*
X0147669Y0106074D01*
X0146669Y0106074D01*
X0142717Y0106074D01*
X0142717Y0103906D01*
X0142826Y0103498D01*
X0143037Y0103133D01*
X0143335Y0102835D01*
X0143700Y0102624D01*
X0144108Y0102515D01*
X0146669Y0102515D01*
X0146669Y0106074D01*
X0146669Y0107074D01*
X0142717Y0107074D01*
X0142717Y0109241D01*
X0142826Y0109649D01*
X0143037Y0110014D01*
X0143335Y0110313D01*
X0143351Y0110322D01*
X0142732Y0110940D01*
X0142732Y0117168D01*
X0143662Y0118097D01*
X0145094Y0118097D01*
X0145094Y0119297D01*
X0132530Y0131861D01*
X0105180Y0131861D01*
X0105576Y0130905D01*
X0105576Y0129801D01*
X0105153Y0128781D01*
X0104874Y0128502D01*
X0104874Y0122171D01*
X0103659Y0120956D01*
X0100891Y0118188D01*
X0102753Y0116326D01*
X0113822Y0116326D01*
X0114101Y0116605D01*
X0115121Y0117027D01*
X0116225Y0117027D01*
X0117246Y0116605D01*
X0118027Y0115824D01*
X0118450Y0114803D01*
X0118450Y0113699D01*
X0118027Y0112678D01*
X0117246Y0111897D01*
X0116225Y0111474D01*
X0115121Y0111474D01*
X0114101Y0111897D01*
X0113822Y0112176D01*
X0101034Y0112176D01*
X0097097Y0116113D01*
X0091934Y0116113D01*
X0091655Y0115834D01*
X0090635Y0115411D01*
X0089530Y0115411D01*
X0088510Y0115834D01*
X0087729Y0116615D01*
X0087306Y0117636D01*
X0087306Y0118740D01*
X0087729Y0119761D01*
X0088510Y0120542D01*
X0089530Y0120964D01*
X0090635Y0120964D01*
X0091655Y0120542D01*
X0091934Y0120263D01*
X0097097Y0120263D01*
X0100724Y0123890D01*
X0100724Y0128502D01*
X0100446Y0128781D01*
X0100023Y0129801D01*
X0100023Y0130905D01*
X0100419Y0131861D01*
X0090942Y0131861D01*
X0084283Y0125202D01*
X0084283Y0123976D01*
X0084562Y0123698D01*
X0084985Y0122677D01*
X0084985Y0121573D01*
X0084562Y0120552D01*
X0084283Y0120273D01*
X0084283Y0113339D01*
X0091139Y0106483D01*
X0091139Y0106483D01*
X0092354Y0105268D01*
X0092354Y0102940D01*
X0093393Y0102940D01*
X0094020Y0102314D01*
X0094646Y0102940D01*
X0100874Y0102940D01*
X0101803Y0102010D01*
X0101803Y0100479D01*
X0104346Y0100479D01*
X0104346Y0102018D01*
X0105268Y0102940D01*
X0112299Y0102940D01*
X0113220Y0102018D01*
X0113220Y0094987D01*
X0112299Y0094066D01*
X0105268Y0094066D01*
X0104346Y0094987D01*
X0104346Y0096526D01*
X0101803Y0096526D01*
X0101803Y0094995D01*
X0100874Y0094066D01*
X0094646Y0094066D01*
X0094020Y0094692D01*
X0093393Y0094066D01*
X0092157Y0094066D01*
X0092157Y0089160D01*
X0093393Y0089160D01*
X0094020Y0088534D01*
X0094646Y0089160D01*
X0100874Y0089160D01*
X0101803Y0088231D01*
X0101803Y0086700D01*
X0104346Y0086700D01*
X0104346Y0088239D01*
X0105268Y0089160D01*
X0112299Y0089160D01*
X0113220Y0088239D01*
X0113220Y0081208D01*
X0112299Y0080286D01*
X0105268Y0080286D01*
X0104346Y0081208D01*
X0104346Y0082747D01*
X0101803Y0082747D01*
X0101803Y0081216D01*
X0100874Y0080286D01*
X0094646Y0080286D01*
X0094020Y0080913D01*
X0093393Y0080286D01*
X0092354Y0080286D01*
X0092354Y0075381D01*
X0093393Y0075381D01*
X0094020Y0074754D01*
X0094646Y0075381D01*
X0100874Y0075381D01*
X0101803Y0074451D01*
X0101803Y0072920D01*
X0104346Y0072920D01*
X0104346Y0074459D01*
X0105268Y0075381D01*
X0112299Y0075381D01*
X0113220Y0074459D01*
X0113220Y0067428D01*
X0112299Y0066507D01*
X0105268Y0066507D01*
X0104346Y0067428D01*
X0104346Y0068967D01*
X0101803Y0068967D01*
X0101803Y0067436D01*
X0100874Y0066507D01*
X0094646Y0066507D01*
X0094020Y0067133D01*
X0093393Y0066507D01*
X0087166Y0066507D01*
X0086236Y0067436D01*
X0086236Y0074451D01*
X0087166Y0075381D01*
X0088205Y0075381D01*
X0088205Y0080286D01*
X0087166Y0080286D01*
X0086236Y0081216D01*
X0086236Y0088231D01*
X0087166Y0089160D01*
X0088008Y0089160D01*
X0088008Y0094066D01*
X0087166Y0094066D01*
X0086236Y0094995D01*
X0086236Y0102010D01*
X0087166Y0102940D01*
X0088205Y0102940D01*
X0088205Y0103549D01*
X0080134Y0111620D01*
X0080134Y0120273D01*
X0079855Y0120552D01*
X0079432Y0121573D01*
X0079432Y0122677D01*
X0079855Y0123698D01*
X0080134Y0123976D01*
X0080134Y0126921D01*
X0088008Y0134795D01*
X0089223Y0136011D01*
X0134249Y0136011D01*
X0135465Y0134795D01*
X0148029Y0122231D01*
X0149244Y0121016D01*
X0149244Y0118097D01*
X0150677Y0118097D01*
X0151606Y0117168D01*
X0151606Y0116857D01*
X0153428Y0116857D01*
X0153853Y0117282D01*
X0153428Y0117708D01*
X0152589Y0117708D01*
X0150247Y0120050D01*
X0149031Y0121265D01*
X0149031Y0125562D01*
X0148189Y0125562D01*
X0147260Y0126491D01*
X0147260Y0133506D01*
X0148189Y0134436D01*
X0154417Y0134436D01*
X0155035Y0133817D01*
X0155045Y0133833D01*
X0155343Y0134131D01*
X0155708Y0134342D01*
X0156116Y0134452D01*
X0158283Y0134452D01*
X0158283Y0130499D01*
X0159283Y0130499D01*
X0159283Y0134452D01*
X0161451Y0134452D01*
X0161859Y0134342D01*
X0162224Y0134131D01*
X0162522Y0133833D01*
X0162733Y0133468D01*
X0162843Y0133060D01*
X0162843Y0130499D01*
X0159284Y0130499D01*
X0159284Y0129499D01*
X0162843Y0129499D01*
X0162843Y0126938D01*
X0162733Y0126530D01*
X0162522Y0126165D01*
X0162224Y0125866D01*
X0161859Y0125655D01*
X0161451Y0125546D01*
X0159283Y0125546D01*
X0159283Y0129499D01*
X0158283Y0129499D01*
X0158283Y0125546D01*
X0156116Y0125546D01*
X0155708Y0125655D01*
X0155343Y0125866D01*
X0155045Y0126165D01*
X0155035Y0126180D01*
X0154417Y0125562D01*
X0153181Y0125562D01*
X0153181Y0122984D01*
X0153868Y0122297D01*
X0154137Y0122567D01*
X0163245Y0122567D01*
X0164176Y0121636D01*
X0164176Y0117928D01*
X0163529Y0117282D01*
X0163955Y0116857D01*
X0164780Y0116857D01*
X0164780Y0154730D01*
X0162058Y0157452D01*
X0158526Y0157452D01*
X0158526Y0156825D01*
X0157593Y0155892D01*
X0148590Y0155892D01*
X0147657Y0156825D01*
X0147657Y0162228D01*
X0148590Y0163161D01*
X0157593Y0163161D01*
X0158526Y0162228D01*
X0158526Y0161601D01*
X0163777Y0161601D01*
X0164992Y0160386D01*
X0168929Y0156449D01*
X0168929Y0098669D01*
X0169126Y0098472D01*
X0169126Y0086723D01*
X0168201Y0085798D01*
X0160783Y0085798D01*
X0153968Y0086121D02*
X0152969Y0086121D01*
X0152969Y0087120D02*
X0153968Y0087120D01*
X0153968Y0088118D02*
X0152969Y0088118D01*
X0152969Y0089117D02*
X0153968Y0089117D01*
X0153968Y0090115D02*
X0152969Y0090115D01*
X0152969Y0093111D02*
X0153968Y0093111D01*
X0153968Y0094109D02*
X0152969Y0094109D01*
X0152969Y0095108D02*
X0153968Y0095108D01*
X0153968Y0096106D02*
X0152969Y0096106D01*
X0152969Y0097105D02*
X0153968Y0097105D01*
X0153968Y0098103D02*
X0152969Y0098103D01*
X0152969Y0099102D02*
X0153968Y0099102D01*
X0154167Y0102097D02*
X0133405Y0102097D01*
X0133405Y0101099D02*
X0164780Y0101099D01*
X0164780Y0102097D02*
X0163216Y0102097D01*
X0164116Y0103096D02*
X0164780Y0103096D01*
X0164780Y0104094D02*
X0164191Y0104094D01*
X0164191Y0105093D02*
X0164780Y0105093D01*
X0164780Y0106091D02*
X0164191Y0106091D01*
X0163744Y0107090D02*
X0164780Y0107090D01*
X0164780Y0108088D02*
X0164176Y0108088D01*
X0164176Y0109087D02*
X0164780Y0109087D01*
X0164780Y0110085D02*
X0164176Y0110085D01*
X0164176Y0111084D02*
X0164780Y0111084D01*
X0164780Y0112082D02*
X0163729Y0112082D01*
X0163737Y0117075D02*
X0164780Y0117075D01*
X0164780Y0118073D02*
X0164176Y0118073D01*
X0164176Y0119072D02*
X0164780Y0119072D01*
X0164780Y0120070D02*
X0164176Y0120070D01*
X0164176Y0121069D02*
X0164780Y0121069D01*
X0164780Y0122067D02*
X0163744Y0122067D01*
X0164780Y0123066D02*
X0153181Y0123066D01*
X0153181Y0124064D02*
X0164780Y0124064D01*
X0164780Y0125063D02*
X0153181Y0125063D01*
X0154917Y0126062D02*
X0155148Y0126062D01*
X0158283Y0126062D02*
X0159283Y0126062D01*
X0159283Y0127060D02*
X0158283Y0127060D01*
X0158283Y0128059D02*
X0159283Y0128059D01*
X0159283Y0129057D02*
X0158283Y0129057D01*
X0159284Y0130056D02*
X0164780Y0130056D01*
X0164780Y0131054D02*
X0162843Y0131054D01*
X0162843Y0132053D02*
X0164780Y0132053D01*
X0164780Y0133051D02*
X0162843Y0133051D01*
X0162306Y0134050D02*
X0164780Y0134050D01*
X0164780Y0135048D02*
X0135212Y0135048D01*
X0136210Y0134050D02*
X0147803Y0134050D01*
X0147260Y0133051D02*
X0137209Y0133051D01*
X0138207Y0132053D02*
X0147260Y0132053D01*
X0147260Y0131054D02*
X0139206Y0131054D01*
X0140204Y0130056D02*
X0147260Y0130056D01*
X0147260Y0129057D02*
X0141203Y0129057D01*
X0142201Y0128059D02*
X0147260Y0128059D01*
X0147260Y0127060D02*
X0143200Y0127060D01*
X0144198Y0126062D02*
X0147690Y0126062D01*
X0149031Y0125063D02*
X0145197Y0125063D01*
X0146195Y0124064D02*
X0149031Y0124064D01*
X0149031Y0123066D02*
X0147194Y0123066D01*
X0148192Y0122067D02*
X0149031Y0122067D01*
X0149191Y0121069D02*
X0149228Y0121069D01*
X0149244Y0120070D02*
X0150226Y0120070D01*
X0149244Y0119072D02*
X0151225Y0119072D01*
X0150701Y0118073D02*
X0152224Y0118073D01*
X0151606Y0117075D02*
X0153646Y0117075D01*
X0153653Y0112082D02*
X0151606Y0112082D01*
X0151606Y0111084D02*
X0153207Y0111084D01*
X0153207Y0110085D02*
X0151231Y0110085D01*
X0151622Y0109087D02*
X0153207Y0109087D01*
X0153207Y0108088D02*
X0151622Y0108088D01*
X0151622Y0107090D02*
X0153638Y0107090D01*
X0153191Y0106091D02*
X0147669Y0106091D01*
X0147669Y0105093D02*
X0146669Y0105093D01*
X0146669Y0106091D02*
X0133405Y0106091D01*
X0133405Y0105093D02*
X0142717Y0105093D01*
X0142717Y0104094D02*
X0133405Y0104094D01*
X0133405Y0103096D02*
X0143074Y0103096D01*
X0146669Y0103096D02*
X0147669Y0103096D01*
X0147669Y0104094D02*
X0146669Y0104094D01*
X0151265Y0103096D02*
X0153266Y0103096D01*
X0153191Y0104094D02*
X0151622Y0104094D01*
X0151622Y0105093D02*
X0153191Y0105093D01*
X0158541Y0104094D02*
X0158841Y0104094D01*
X0158841Y0103096D02*
X0158541Y0103096D01*
X0158541Y0102097D02*
X0158841Y0102097D01*
X0157489Y0099102D02*
X0160488Y0099102D01*
X0159858Y0098103D02*
X0158098Y0098103D01*
X0158118Y0097105D02*
X0159858Y0097105D01*
X0159858Y0096106D02*
X0158118Y0096106D01*
X0158118Y0095108D02*
X0159858Y0095108D01*
X0159858Y0094109D02*
X0158118Y0094109D01*
X0158118Y0093111D02*
X0159858Y0093111D01*
X0164780Y0100100D02*
X0133405Y0100100D01*
X0133405Y0099102D02*
X0149448Y0099102D01*
X0148839Y0098103D02*
X0133405Y0098103D01*
X0133405Y0097105D02*
X0148819Y0097105D01*
X0148819Y0096106D02*
X0133405Y0096106D01*
X0133405Y0095108D02*
X0148819Y0095108D01*
X0148819Y0094109D02*
X0133405Y0094109D01*
X0133405Y0093111D02*
X0148819Y0093111D01*
X0142717Y0107090D02*
X0133405Y0107090D01*
X0133405Y0108088D02*
X0142717Y0108088D01*
X0142717Y0109087D02*
X0133405Y0109087D01*
X0133405Y0110085D02*
X0143108Y0110085D01*
X0142732Y0111084D02*
X0133405Y0111084D01*
X0133405Y0112082D02*
X0142732Y0112082D01*
X0142732Y0113081D02*
X0133405Y0113081D01*
X0133405Y0114079D02*
X0142732Y0114079D01*
X0142732Y0115078D02*
X0133405Y0115078D01*
X0133405Y0116076D02*
X0142732Y0116076D01*
X0142732Y0117075D02*
X0133965Y0117075D01*
X0134198Y0118073D02*
X0143638Y0118073D01*
X0145094Y0119072D02*
X0134060Y0119072D01*
X0133465Y0120070D02*
X0144321Y0120070D01*
X0143322Y0121069D02*
X0130052Y0121069D01*
X0130261Y0122067D02*
X0142324Y0122067D01*
X0141325Y0123066D02*
X0130100Y0123066D01*
X0129471Y0124064D02*
X0140327Y0124064D01*
X0139328Y0125063D02*
X0126139Y0125063D01*
X0126324Y0126062D02*
X0138330Y0126062D01*
X0137331Y0127060D02*
X0126139Y0127060D01*
X0125477Y0128059D02*
X0136333Y0128059D01*
X0135334Y0129057D02*
X0105267Y0129057D01*
X0105576Y0130056D02*
X0134336Y0130056D01*
X0133337Y0131054D02*
X0105514Y0131054D01*
X0104874Y0128059D02*
X0121618Y0128059D01*
X0120956Y0127060D02*
X0104874Y0127060D01*
X0104874Y0126062D02*
X0120771Y0126062D01*
X0120956Y0125063D02*
X0104874Y0125063D01*
X0104874Y0124064D02*
X0121563Y0124064D01*
X0121563Y0123066D02*
X0104874Y0123066D01*
X0104771Y0122067D02*
X0121563Y0122067D01*
X0121563Y0121069D02*
X0103772Y0121069D01*
X0102773Y0120070D02*
X0121563Y0120070D01*
X0121563Y0119072D02*
X0101775Y0119072D01*
X0101005Y0118073D02*
X0121563Y0118073D01*
X0121563Y0117075D02*
X0102004Y0117075D01*
X0099131Y0114079D02*
X0084283Y0114079D01*
X0084283Y0115078D02*
X0098132Y0115078D01*
X0097134Y0116076D02*
X0091898Y0116076D01*
X0088268Y0116076D02*
X0084283Y0116076D01*
X0084283Y0117075D02*
X0087539Y0117075D01*
X0087306Y0118073D02*
X0084283Y0118073D01*
X0084283Y0119072D02*
X0087444Y0119072D01*
X0088039Y0120070D02*
X0084283Y0120070D01*
X0084776Y0121069D02*
X0097904Y0121069D01*
X0098902Y0122067D02*
X0084985Y0122067D01*
X0084824Y0123066D02*
X0099901Y0123066D01*
X0100724Y0124064D02*
X0084283Y0124064D01*
X0084283Y0125063D02*
X0100724Y0125063D01*
X0100724Y0126062D02*
X0085143Y0126062D01*
X0086141Y0127060D02*
X0100724Y0127060D01*
X0100724Y0128059D02*
X0087140Y0128059D01*
X0088138Y0129057D02*
X0100331Y0129057D01*
X0100023Y0130056D02*
X0089137Y0130056D01*
X0090135Y0131054D02*
X0100084Y0131054D01*
X0088261Y0135048D02*
X0001500Y0135048D01*
X0001500Y0134050D02*
X0018659Y0134050D01*
X0018210Y0133864D02*
X0017123Y0132777D01*
X0016535Y0131358D01*
X0016535Y0129821D01*
X0017123Y0128402D01*
X0018210Y0127315D01*
X0019629Y0126727D01*
X0021166Y0126727D01*
X0022585Y0127315D01*
X0023672Y0128402D01*
X0024260Y0129821D01*
X0024260Y0131358D01*
X0023672Y0132777D01*
X0022585Y0133864D01*
X0021166Y0134452D01*
X0019629Y0134452D01*
X0018210Y0133864D01*
X0017397Y0133051D02*
X0001500Y0133051D01*
X0001500Y0132053D02*
X0016823Y0132053D01*
X0016535Y0131054D02*
X0001500Y0131054D01*
X0001500Y0130056D02*
X0016535Y0130056D01*
X0016852Y0129057D02*
X0001500Y0129057D01*
X0001500Y0128059D02*
X0017467Y0128059D01*
X0018826Y0127060D02*
X0001500Y0127060D01*
X0001500Y0126062D02*
X0028660Y0126062D01*
X0028403Y0125955D02*
X0029109Y0126247D01*
X0029858Y0126397D01*
X0030051Y0126397D01*
X0030051Y0122708D01*
X0030429Y0122708D01*
X0030429Y0126396D01*
X0030622Y0126397D01*
X0031371Y0126247D01*
X0032077Y0125955D01*
X0032712Y0125531D01*
X0033252Y0124991D01*
X0033677Y0124355D01*
X0033969Y0123650D01*
X0034118Y0122901D01*
X0034118Y0122708D01*
X0030429Y0122708D01*
X0030429Y0122330D01*
X0034118Y0122330D01*
X0034118Y0122137D01*
X0033969Y0121387D01*
X0033677Y0120682D01*
X0033252Y0120047D01*
X0032712Y0119506D01*
X0032534Y0119387D01*
X0033514Y0118407D01*
X0034102Y0116988D01*
X0034102Y0115451D01*
X0033514Y0114032D01*
X0032553Y0113070D01*
X0033514Y0112108D01*
X0034102Y0110688D01*
X0034102Y0109152D01*
X0033514Y0107732D01*
X0032428Y0106646D01*
X0031008Y0106058D01*
X0029472Y0106058D01*
X0028052Y0106646D01*
X0026966Y0107732D01*
X0026378Y0109152D01*
X0026378Y0110688D01*
X0026966Y0112108D01*
X0027928Y0113070D01*
X0026966Y0114032D01*
X0026378Y0115451D01*
X0026378Y0116988D01*
X0026966Y0118407D01*
X0027946Y0119387D01*
X0027768Y0119506D01*
X0027228Y0120047D01*
X0026804Y0120682D01*
X0026511Y0121387D01*
X0026362Y0122137D01*
X0026362Y0122330D01*
X0030051Y0122330D01*
X0030051Y0122708D01*
X0026362Y0122708D01*
X0026362Y0122901D01*
X0026511Y0123650D01*
X0026804Y0124355D01*
X0027228Y0124991D01*
X0027768Y0125531D01*
X0028403Y0125955D01*
X0029078Y0126727D02*
X0027659Y0127315D01*
X0026572Y0128402D01*
X0025984Y0129821D01*
X0025984Y0131358D01*
X0026572Y0132777D01*
X0027659Y0133864D01*
X0029078Y0134452D01*
X0030615Y0134452D01*
X0032034Y0133864D01*
X0033121Y0132777D01*
X0033709Y0131358D01*
X0033709Y0129821D01*
X0033121Y0128402D01*
X0032034Y0127315D01*
X0030615Y0126727D01*
X0029078Y0126727D01*
X0028275Y0127060D02*
X0021969Y0127060D01*
X0023329Y0128059D02*
X0026915Y0128059D01*
X0026301Y0129057D02*
X0023943Y0129057D01*
X0024260Y0130056D02*
X0025984Y0130056D01*
X0025984Y0131054D02*
X0024260Y0131054D01*
X0023972Y0132053D02*
X0026272Y0132053D01*
X0026846Y0133051D02*
X0023398Y0133051D01*
X0022136Y0134050D02*
X0028108Y0134050D01*
X0031585Y0134050D02*
X0087262Y0134050D01*
X0086264Y0133051D02*
X0032847Y0133051D01*
X0033421Y0132053D02*
X0085265Y0132053D01*
X0084267Y0131054D02*
X0033709Y0131054D01*
X0033709Y0130056D02*
X0083268Y0130056D01*
X0082270Y0129057D02*
X0033392Y0129057D01*
X0032778Y0128059D02*
X0081271Y0128059D01*
X0080273Y0127060D02*
X0031418Y0127060D01*
X0031820Y0126062D02*
X0080134Y0126062D01*
X0080134Y0125063D02*
X0071069Y0125063D01*
X0071026Y0125106D02*
X0069341Y0125804D01*
X0067517Y0125804D01*
X0065832Y0125106D01*
X0064543Y0123816D01*
X0063845Y0122131D01*
X0063845Y0120307D01*
X0064543Y0118623D01*
X0065832Y0117333D01*
X0067517Y0116635D01*
X0069341Y0116635D01*
X0071026Y0117333D01*
X0072315Y0118623D01*
X0073013Y0120307D01*
X0073013Y0122131D01*
X0072315Y0123816D01*
X0071026Y0125106D01*
X0072067Y0124064D02*
X0080134Y0124064D01*
X0079593Y0123066D02*
X0072626Y0123066D01*
X0073013Y0122067D02*
X0079432Y0122067D01*
X0079641Y0121069D02*
X0073013Y0121069D01*
X0072915Y0120070D02*
X0080134Y0120070D01*
X0080134Y0119072D02*
X0072502Y0119072D01*
X0071766Y0118073D02*
X0080134Y0118073D01*
X0080134Y0117075D02*
X0070403Y0117075D01*
X0070335Y0115819D02*
X0068729Y0115819D01*
X0068729Y0111519D01*
X0073029Y0111519D01*
X0073029Y0113125D01*
X0070335Y0115819D01*
X0071076Y0115078D02*
X0080134Y0115078D01*
X0080134Y0116076D02*
X0034102Y0116076D01*
X0034066Y0117075D02*
X0066455Y0117075D01*
X0066524Y0115819D02*
X0063829Y0113125D01*
X0063829Y0111519D01*
X0068129Y0111519D01*
X0068129Y0110919D01*
X0068729Y0110919D01*
X0068729Y0106619D01*
X0070335Y0106619D01*
X0073029Y0109314D01*
X0073029Y0110919D01*
X0068729Y0110919D01*
X0068729Y0111519D01*
X0068129Y0111519D01*
X0068129Y0115819D01*
X0066524Y0115819D01*
X0065782Y0115078D02*
X0033948Y0115078D01*
X0033534Y0114079D02*
X0064784Y0114079D01*
X0063829Y0113081D02*
X0032564Y0113081D01*
X0033525Y0112082D02*
X0063829Y0112082D01*
X0063829Y0110919D02*
X0063829Y0109314D01*
X0066524Y0106619D01*
X0068129Y0106619D01*
X0068129Y0110919D01*
X0063829Y0110919D01*
X0063829Y0110085D02*
X0034102Y0110085D01*
X0034075Y0109087D02*
X0064056Y0109087D01*
X0065055Y0108088D02*
X0033662Y0108088D01*
X0032872Y0107090D02*
X0066053Y0107090D01*
X0068129Y0107090D02*
X0068729Y0107090D01*
X0068729Y0108088D02*
X0068129Y0108088D01*
X0068129Y0109087D02*
X0068729Y0109087D01*
X0068729Y0110085D02*
X0068129Y0110085D01*
X0068129Y0111084D02*
X0033939Y0111084D01*
X0031089Y0106091D02*
X0085662Y0106091D01*
X0084664Y0107090D02*
X0070805Y0107090D01*
X0071803Y0108088D02*
X0083665Y0108088D01*
X0082667Y0109087D02*
X0072802Y0109087D01*
X0073029Y0110085D02*
X0081668Y0110085D01*
X0080670Y0111084D02*
X0068729Y0111084D01*
X0068729Y0112082D02*
X0068129Y0112082D01*
X0068129Y0113081D02*
X0068729Y0113081D01*
X0068729Y0114079D02*
X0068129Y0114079D01*
X0068129Y0115078D02*
X0068729Y0115078D01*
X0072074Y0114079D02*
X0080134Y0114079D01*
X0080134Y0113081D02*
X0073029Y0113081D01*
X0073029Y0112082D02*
X0080134Y0112082D01*
X0084541Y0113081D02*
X0100129Y0113081D01*
X0109051Y0109160D02*
X0108944Y0108620D01*
X0108944Y0108345D01*
X0108944Y0108070D01*
X0109051Y0107531D01*
X0109262Y0107023D01*
X0109567Y0106565D01*
X0109956Y0106177D01*
X0110414Y0105871D01*
X0110922Y0105661D01*
X0111461Y0105553D01*
X0111736Y0105553D01*
X0111736Y0108345D01*
X0111736Y0108345D01*
X0108944Y0108345D01*
X0111736Y0108345D01*
X0111736Y0108345D01*
X0111736Y0105553D01*
X0112011Y0105553D01*
X0112551Y0105661D01*
X0113059Y0105871D01*
X0113516Y0106177D01*
X0113905Y0106565D01*
X0114211Y0107023D01*
X0114421Y0107531D01*
X0114528Y0108070D01*
X0114528Y0108345D01*
X0111736Y0108345D01*
X0111736Y0108345D01*
X0111736Y0111137D01*
X0111461Y0111137D01*
X0110922Y0111030D01*
X0110414Y0110820D01*
X0109956Y0110514D01*
X0109567Y0110125D01*
X0109262Y0109668D01*
X0109051Y0109160D01*
X0109037Y0109087D02*
X0088535Y0109087D01*
X0087537Y0110085D02*
X0109541Y0110085D01*
X0111192Y0111084D02*
X0086538Y0111084D01*
X0085540Y0112082D02*
X0113915Y0112082D01*
X0113059Y0110820D02*
X0112551Y0111030D01*
X0112011Y0111137D01*
X0111736Y0111137D01*
X0111736Y0108345D01*
X0111736Y0108345D01*
X0114528Y0108345D01*
X0114528Y0108620D01*
X0114421Y0109160D01*
X0114211Y0109668D01*
X0113905Y0110125D01*
X0113516Y0110514D01*
X0113059Y0110820D01*
X0112281Y0111084D02*
X0121563Y0111084D01*
X0121563Y0112082D02*
X0117431Y0112082D01*
X0118194Y0113081D02*
X0121563Y0113081D01*
X0121563Y0114079D02*
X0118450Y0114079D01*
X0118336Y0115078D02*
X0121563Y0115078D01*
X0121563Y0116076D02*
X0117774Y0116076D01*
X0111736Y0111084D02*
X0111736Y0111084D01*
X0111736Y0110085D02*
X0111736Y0110085D01*
X0111736Y0109087D02*
X0111736Y0109087D01*
X0111736Y0108088D02*
X0111736Y0108088D01*
X0111736Y0107090D02*
X0111736Y0107090D01*
X0111736Y0106091D02*
X0111736Y0106091D01*
X0110084Y0106091D02*
X0091531Y0106091D01*
X0092354Y0105093D02*
X0121563Y0105093D01*
X0121563Y0106091D02*
X0113388Y0106091D01*
X0114238Y0107090D02*
X0121563Y0107090D01*
X0121563Y0108088D02*
X0114528Y0108088D01*
X0114436Y0109087D02*
X0121563Y0109087D01*
X0121563Y0110085D02*
X0113932Y0110085D01*
X0108944Y0108088D02*
X0089534Y0108088D01*
X0090532Y0107090D02*
X0109234Y0107090D01*
X0113142Y0102097D02*
X0118205Y0102097D01*
X0118126Y0101099D02*
X0113220Y0101099D01*
X0113220Y0100100D02*
X0118126Y0100100D01*
X0118126Y0099102D02*
X0113220Y0099102D01*
X0113220Y0098103D02*
X0118126Y0098103D01*
X0118126Y0097105D02*
X0113220Y0097105D01*
X0113220Y0096106D02*
X0118126Y0096106D01*
X0118126Y0095108D02*
X0113220Y0095108D01*
X0112342Y0094109D02*
X0119004Y0094109D01*
X0122563Y0098503D02*
X0123547Y0098503D01*
X0123547Y0126062D01*
X0127484Y0122125D02*
X0127484Y0084723D01*
X0122563Y0084723D01*
X0118126Y0085123D02*
X0113220Y0085123D01*
X0113220Y0086121D02*
X0118126Y0086121D01*
X0118126Y0087120D02*
X0113220Y0087120D01*
X0113220Y0088118D02*
X0118126Y0088118D01*
X0119004Y0089117D02*
X0112343Y0089117D01*
X0113220Y0084124D02*
X0118126Y0084124D01*
X0118126Y0083126D02*
X0113220Y0083126D01*
X0113220Y0082127D02*
X0118126Y0082127D01*
X0118205Y0081129D02*
X0113141Y0081129D01*
X0112542Y0075137D02*
X0118804Y0075137D01*
X0118126Y0074139D02*
X0113220Y0074139D01*
X0113220Y0073140D02*
X0118126Y0073140D01*
X0118126Y0072142D02*
X0113220Y0072142D01*
X0113220Y0071143D02*
X0118126Y0071143D01*
X0118126Y0070145D02*
X0113220Y0070145D01*
X0113220Y0069146D02*
X0118126Y0069146D01*
X0118126Y0068148D02*
X0113220Y0068148D01*
X0112942Y0067149D02*
X0118405Y0067149D01*
X0122563Y0070944D02*
X0125516Y0070944D01*
X0131421Y0076849D01*
X0131421Y0118188D01*
X0121563Y0104094D02*
X0092354Y0104094D01*
X0092354Y0103096D02*
X0121563Y0103096D01*
X0125500Y0093111D02*
X0092157Y0093111D01*
X0092157Y0092112D02*
X0125500Y0092112D01*
X0125500Y0091114D02*
X0092157Y0091114D01*
X0092157Y0090115D02*
X0125500Y0090115D01*
X0128693Y0083126D02*
X0129437Y0083126D01*
X0129437Y0082127D02*
X0127000Y0082127D01*
X0126921Y0081129D02*
X0129437Y0081129D01*
X0129437Y0080130D02*
X0092354Y0080130D01*
X0092354Y0079131D02*
X0129437Y0079131D01*
X0129437Y0078133D02*
X0092354Y0078133D01*
X0092354Y0077134D02*
X0128900Y0077134D01*
X0127902Y0076136D02*
X0092354Y0076136D01*
X0093637Y0075137D02*
X0094403Y0075137D01*
X0088205Y0076136D02*
X0050339Y0076136D01*
X0050339Y0075497D02*
X0050339Y0079461D01*
X0047537Y0082263D01*
X0043573Y0082263D01*
X0041629Y0080319D01*
X0039669Y0082279D01*
X0037981Y0082279D01*
X0037981Y0077779D01*
X0037381Y0077779D01*
X0037381Y0077179D01*
X0037981Y0077179D01*
X0037981Y0072679D01*
X0039669Y0072679D01*
X0041629Y0074639D01*
X0043573Y0072695D01*
X0047537Y0072695D01*
X0050339Y0075497D01*
X0049979Y0075137D02*
X0086922Y0075137D01*
X0086236Y0074139D02*
X0048981Y0074139D01*
X0047982Y0073140D02*
X0086236Y0073140D01*
X0086236Y0072142D02*
X0001500Y0072142D01*
X0001500Y0073140D02*
X0035232Y0073140D01*
X0035693Y0072679D02*
X0037381Y0072679D01*
X0037381Y0077179D01*
X0032881Y0077179D01*
X0032881Y0075491D01*
X0035693Y0072679D01*
X0037381Y0073140D02*
X0037981Y0073140D01*
X0037981Y0074139D02*
X0037381Y0074139D01*
X0037381Y0075137D02*
X0037981Y0075137D01*
X0037981Y0076136D02*
X0037381Y0076136D01*
X0037381Y0077134D02*
X0037981Y0077134D01*
X0037381Y0077779D02*
X0032881Y0077779D01*
X0032881Y0079467D01*
X0035693Y0082279D01*
X0037381Y0082279D01*
X0037381Y0077779D01*
X0037381Y0078133D02*
X0037981Y0078133D01*
X0037981Y0079131D02*
X0037381Y0079131D01*
X0037381Y0080130D02*
X0037981Y0080130D01*
X0037981Y0081129D02*
X0037381Y0081129D01*
X0037381Y0082127D02*
X0037981Y0082127D01*
X0039821Y0082127D02*
X0043437Y0082127D01*
X0042438Y0081129D02*
X0040820Y0081129D01*
X0035541Y0082127D02*
X0001500Y0082127D01*
X0001500Y0081129D02*
X0034542Y0081129D01*
X0033544Y0080130D02*
X0001500Y0080130D01*
X0001500Y0079131D02*
X0032881Y0079131D01*
X0032881Y0078133D02*
X0001500Y0078133D01*
X0001500Y0077134D02*
X0032881Y0077134D01*
X0032881Y0076136D02*
X0001500Y0076136D01*
X0001500Y0075137D02*
X0033235Y0075137D01*
X0034233Y0074139D02*
X0001500Y0074139D01*
X0001500Y0071143D02*
X0086236Y0071143D01*
X0086236Y0070145D02*
X0001500Y0070145D01*
X0001500Y0069146D02*
X0086236Y0069146D01*
X0086236Y0068148D02*
X0001500Y0068148D01*
X0001500Y0067149D02*
X0086523Y0067149D01*
X0088205Y0077134D02*
X0050339Y0077134D01*
X0050339Y0078133D02*
X0088205Y0078133D01*
X0088205Y0079131D02*
X0050339Y0079131D01*
X0049670Y0080130D02*
X0088205Y0080130D01*
X0086323Y0081129D02*
X0048672Y0081129D01*
X0047673Y0082127D02*
X0086236Y0082127D01*
X0086236Y0083126D02*
X0001500Y0083126D01*
X0001500Y0084124D02*
X0086236Y0084124D01*
X0086236Y0085123D02*
X0001500Y0085123D01*
X0001500Y0086121D02*
X0086236Y0086121D01*
X0086236Y0087120D02*
X0001500Y0087120D01*
X0001500Y0088118D02*
X0086236Y0088118D01*
X0087122Y0089117D02*
X0001500Y0089117D01*
X0001500Y0090115D02*
X0088008Y0090115D01*
X0088008Y0091114D02*
X0001500Y0091114D01*
X0001500Y0092112D02*
X0088008Y0092112D01*
X0088008Y0093111D02*
X0001500Y0093111D01*
X0001500Y0094109D02*
X0087122Y0094109D01*
X0086236Y0095108D02*
X0001500Y0095108D01*
X0001500Y0096106D02*
X0086236Y0096106D01*
X0086236Y0097105D02*
X0001500Y0097105D01*
X0001500Y0098103D02*
X0019349Y0098103D01*
X0019629Y0097987D02*
X0021166Y0097987D01*
X0022585Y0098575D01*
X0023672Y0099662D01*
X0024260Y0101081D01*
X0024260Y0102618D01*
X0023672Y0104037D01*
X0022585Y0105123D01*
X0021166Y0105711D01*
X0019629Y0105711D01*
X0018210Y0105123D01*
X0017123Y0104037D01*
X0016535Y0102618D01*
X0016535Y0101081D01*
X0017123Y0099662D01*
X0018210Y0098575D01*
X0019629Y0097987D01*
X0021446Y0098103D02*
X0028798Y0098103D01*
X0029078Y0097987D02*
X0030615Y0097987D01*
X0032034Y0098575D01*
X0033121Y0099662D01*
X0033709Y0101081D01*
X0033709Y0102618D01*
X0033121Y0104037D01*
X0032034Y0105123D01*
X0030615Y0105711D01*
X0029078Y0105711D01*
X0027659Y0105123D01*
X0026572Y0104037D01*
X0025984Y0102618D01*
X0025984Y0101081D01*
X0026572Y0099662D01*
X0027659Y0098575D01*
X0029078Y0097987D01*
X0030895Y0098103D02*
X0086236Y0098103D01*
X0086236Y0099102D02*
X0032561Y0099102D01*
X0033302Y0100100D02*
X0086236Y0100100D01*
X0086236Y0101099D02*
X0033709Y0101099D01*
X0033709Y0102097D02*
X0086323Y0102097D01*
X0088205Y0103096D02*
X0033511Y0103096D01*
X0033063Y0104094D02*
X0087659Y0104094D01*
X0086661Y0105093D02*
X0032065Y0105093D01*
X0029391Y0106091D02*
X0001500Y0106091D01*
X0001500Y0105093D02*
X0018179Y0105093D01*
X0017181Y0104094D02*
X0001500Y0104094D01*
X0001500Y0103096D02*
X0016734Y0103096D01*
X0016535Y0102097D02*
X0001500Y0102097D01*
X0001500Y0101099D02*
X0016535Y0101099D01*
X0016942Y0100100D02*
X0001500Y0100100D01*
X0001500Y0099102D02*
X0017683Y0099102D01*
X0023112Y0099102D02*
X0027132Y0099102D01*
X0026391Y0100100D02*
X0023854Y0100100D01*
X0024260Y0101099D02*
X0025984Y0101099D01*
X0025984Y0102097D02*
X0024260Y0102097D01*
X0024062Y0103096D02*
X0026182Y0103096D01*
X0026629Y0104094D02*
X0023615Y0104094D01*
X0022616Y0105093D02*
X0027628Y0105093D01*
X0027609Y0107090D02*
X0001500Y0107090D01*
X0001500Y0108088D02*
X0026818Y0108088D01*
X0026405Y0109087D02*
X0001500Y0109087D01*
X0001500Y0110085D02*
X0017526Y0110085D01*
X0017816Y0109796D02*
X0019236Y0109208D01*
X0020772Y0109208D01*
X0022192Y0109796D01*
X0023278Y0110882D01*
X0023866Y0112302D01*
X0023866Y0113838D01*
X0023278Y0115258D01*
X0022316Y0116219D01*
X0023278Y0117181D01*
X0023866Y0118601D01*
X0023866Y0120137D01*
X0023278Y0121557D01*
X0022192Y0122643D01*
X0020772Y0123231D01*
X0019236Y0123231D01*
X0017816Y0122643D01*
X0016730Y0121557D01*
X0016142Y0120137D01*
X0016142Y0118601D01*
X0016730Y0117181D01*
X0017692Y0116219D01*
X0016730Y0115258D01*
X0016142Y0113838D01*
X0016142Y0112302D01*
X0016730Y0110882D01*
X0017816Y0109796D01*
X0016646Y0111084D02*
X0001500Y0111084D01*
X0001500Y0112082D02*
X0016232Y0112082D01*
X0016142Y0113081D02*
X0001500Y0113081D01*
X0001500Y0114079D02*
X0016242Y0114079D01*
X0016655Y0115078D02*
X0001500Y0115078D01*
X0001500Y0116076D02*
X0017549Y0116076D01*
X0016836Y0117075D02*
X0001500Y0117075D01*
X0001500Y0118073D02*
X0016360Y0118073D01*
X0016142Y0119072D02*
X0001500Y0119072D01*
X0001500Y0120070D02*
X0016142Y0120070D01*
X0016528Y0121069D02*
X0001500Y0121069D01*
X0001500Y0122067D02*
X0017240Y0122067D01*
X0018837Y0123066D02*
X0001500Y0123066D01*
X0001500Y0124064D02*
X0026683Y0124064D01*
X0026395Y0123066D02*
X0021171Y0123066D01*
X0022767Y0122067D02*
X0026376Y0122067D01*
X0026643Y0121069D02*
X0023480Y0121069D01*
X0023866Y0120070D02*
X0027212Y0120070D01*
X0027631Y0119072D02*
X0023866Y0119072D01*
X0023648Y0118073D02*
X0026828Y0118073D01*
X0026414Y0117075D02*
X0023172Y0117075D01*
X0022459Y0116076D02*
X0026378Y0116076D01*
X0026533Y0115078D02*
X0023353Y0115078D01*
X0023766Y0114079D02*
X0026946Y0114079D01*
X0027917Y0113081D02*
X0023866Y0113081D01*
X0023775Y0112082D02*
X0026955Y0112082D01*
X0026542Y0111084D02*
X0023362Y0111084D01*
X0022482Y0110085D02*
X0026378Y0110085D01*
X0033653Y0118073D02*
X0065092Y0118073D01*
X0064357Y0119072D02*
X0032850Y0119072D01*
X0033268Y0120070D02*
X0063943Y0120070D01*
X0063845Y0121069D02*
X0033837Y0121069D01*
X0034104Y0122067D02*
X0063845Y0122067D01*
X0064232Y0123066D02*
X0034085Y0123066D01*
X0033797Y0124064D02*
X0064791Y0124064D01*
X0065790Y0125063D02*
X0033180Y0125063D01*
X0030429Y0125063D02*
X0030051Y0125063D01*
X0030051Y0124064D02*
X0030429Y0124064D01*
X0030429Y0123066D02*
X0030051Y0123066D01*
X0027300Y0125063D02*
X0001500Y0125063D01*
X0001500Y0136047D02*
X0164780Y0136047D01*
X0164780Y0137045D02*
X0001500Y0137045D01*
X0001500Y0138044D02*
X0164780Y0138044D01*
X0164780Y0139042D02*
X0001500Y0139042D01*
X0001500Y0140041D02*
X0164780Y0140041D01*
X0164780Y0141039D02*
X0001500Y0141039D01*
X0001500Y0142038D02*
X0164780Y0142038D01*
X0164780Y0143036D02*
X0001500Y0143036D01*
X0001500Y0144035D02*
X0164780Y0144035D01*
X0164780Y0145033D02*
X0001500Y0145033D01*
X0001500Y0146032D02*
X0164780Y0146032D01*
X0164780Y0147030D02*
X0111315Y0147030D01*
X0110908Y0146623D02*
X0113301Y0149016D01*
X0113301Y0152399D01*
X0110908Y0154792D01*
X0107525Y0154792D01*
X0105132Y0152399D01*
X0105132Y0149016D01*
X0107525Y0146623D01*
X0110908Y0146623D01*
X0112314Y0148029D02*
X0164780Y0148029D01*
X0164780Y0149027D02*
X0113301Y0149027D01*
X0113301Y0150026D02*
X0164780Y0150026D01*
X0164780Y0151024D02*
X0113301Y0151024D01*
X0113301Y0152023D02*
X0164780Y0152023D01*
X0164780Y0153021D02*
X0112679Y0153021D01*
X0111680Y0154020D02*
X0164780Y0154020D01*
X0164491Y0155018D02*
X0049607Y0155018D01*
X0049607Y0155289D02*
X0045107Y0155289D01*
X0045107Y0150789D01*
X0046795Y0150789D01*
X0049607Y0153601D01*
X0049607Y0155289D01*
X0049607Y0155889D02*
X0049607Y0157578D01*
X0046795Y0160389D01*
X0045107Y0160389D01*
X0045107Y0155890D01*
X0044507Y0155890D01*
X0044507Y0160389D01*
X0042819Y0160389D01*
X0040859Y0158429D01*
X0038915Y0160374D01*
X0034951Y0160374D01*
X0032149Y0157571D01*
X0032149Y0153608D01*
X0034951Y0150805D01*
X0038915Y0150805D01*
X0040859Y0152749D01*
X0042819Y0150789D01*
X0044507Y0150789D01*
X0044507Y0155289D01*
X0045107Y0155289D01*
X0045107Y0155889D01*
X0049607Y0155889D01*
X0049607Y0156017D02*
X0148465Y0156017D01*
X0147657Y0157015D02*
X0049607Y0157015D01*
X0049171Y0158014D02*
X0147657Y0158014D01*
X0147657Y0159012D02*
X0048172Y0159012D01*
X0047174Y0160011D02*
X0147657Y0160011D01*
X0147657Y0161009D02*
X0140648Y0161009D01*
X0140618Y0160989D02*
X0141075Y0161295D01*
X0141464Y0161684D01*
X0141770Y0162141D01*
X0141980Y0162649D01*
X0142087Y0163188D01*
X0142087Y0163463D01*
X0139295Y0163463D01*
X0139295Y0163463D01*
X0139295Y0160671D01*
X0139020Y0160671D01*
X0138481Y0160779D01*
X0137973Y0160989D01*
X0137515Y0161295D01*
X0137126Y0161684D01*
X0136821Y0162141D01*
X0136610Y0162649D01*
X0136503Y0163188D01*
X0136503Y0163463D01*
X0139295Y0163463D01*
X0139295Y0163463D01*
X0139295Y0160671D01*
X0139570Y0160671D01*
X0140110Y0160779D01*
X0140618Y0160989D01*
X0139295Y0161009D02*
X0139295Y0161009D01*
X0139295Y0162008D02*
X0139295Y0162008D01*
X0139295Y0163006D02*
X0139295Y0163006D01*
X0139295Y0163463D02*
X0139295Y0163463D01*
X0136503Y0163463D01*
X0136503Y0163738D01*
X0136610Y0164278D01*
X0136821Y0164786D01*
X0137126Y0165243D01*
X0137515Y0165632D01*
X0137973Y0165938D01*
X0138481Y0166148D01*
X0139020Y0166256D01*
X0139295Y0166256D01*
X0139295Y0163464D01*
X0139295Y0163464D01*
X0139295Y0166256D01*
X0139570Y0166256D01*
X0140110Y0166148D01*
X0140618Y0165938D01*
X0141075Y0165632D01*
X0141464Y0165243D01*
X0141770Y0164786D01*
X0141980Y0164278D01*
X0142087Y0163738D01*
X0142087Y0163463D01*
X0139295Y0163463D01*
X0139295Y0164005D02*
X0139295Y0164005D01*
X0139295Y0165003D02*
X0139295Y0165003D01*
X0139295Y0166002D02*
X0139295Y0166002D01*
X0138128Y0166002D02*
X0001500Y0166002D01*
X0001500Y0167000D02*
X0257406Y0167000D01*
X0257406Y0166002D02*
X0140463Y0166002D01*
X0141624Y0165003D02*
X0257406Y0165003D01*
X0257406Y0164005D02*
X0142034Y0164005D01*
X0142051Y0163006D02*
X0148435Y0163006D01*
X0147657Y0162008D02*
X0141681Y0162008D01*
X0137942Y0161009D02*
X0001500Y0161009D01*
X0001500Y0160011D02*
X0034589Y0160011D01*
X0033590Y0159012D02*
X0001500Y0159012D01*
X0001500Y0158014D02*
X0032592Y0158014D01*
X0032149Y0157015D02*
X0001500Y0157015D01*
X0001500Y0156017D02*
X0032149Y0156017D01*
X0032149Y0155018D02*
X0001500Y0155018D01*
X0001500Y0154020D02*
X0032149Y0154020D01*
X0032735Y0153021D02*
X0001500Y0153021D01*
X0001500Y0152023D02*
X0033734Y0152023D01*
X0034732Y0151024D02*
X0001500Y0151024D01*
X0001500Y0150026D02*
X0085117Y0150026D01*
X0085117Y0150408D02*
X0085117Y0149009D01*
X0087518Y0146608D01*
X0088917Y0146608D01*
X0088917Y0150407D01*
X0089517Y0150407D01*
X0089517Y0150408D02*
X0089517Y0151008D01*
X0093317Y0151008D01*
X0093317Y0152406D01*
X0090915Y0154808D01*
X0089517Y0154808D01*
X0089517Y0151008D01*
X0088917Y0151008D01*
X0088917Y0154808D01*
X0087518Y0154808D01*
X0085117Y0152406D01*
X0085117Y0151008D01*
X0088916Y0151008D01*
X0088916Y0150408D01*
X0085117Y0150408D01*
X0085117Y0151024D02*
X0047030Y0151024D01*
X0048029Y0152023D02*
X0085117Y0152023D01*
X0085732Y0153021D02*
X0049027Y0153021D01*
X0049607Y0154020D02*
X0086731Y0154020D01*
X0088917Y0154020D02*
X0089517Y0154020D01*
X0089517Y0153021D02*
X0088917Y0153021D01*
X0088917Y0152023D02*
X0089517Y0152023D01*
X0089517Y0151024D02*
X0088917Y0151024D01*
X0089517Y0150408D02*
X0093317Y0150408D01*
X0093317Y0149009D01*
X0090915Y0146608D01*
X0089517Y0146608D01*
X0089517Y0150407D01*
X0089517Y0150026D02*
X0088917Y0150026D01*
X0088917Y0149027D02*
X0089517Y0149027D01*
X0089517Y0148029D02*
X0088917Y0148029D01*
X0088917Y0147030D02*
X0089517Y0147030D01*
X0091338Y0147030D02*
X0107118Y0147030D01*
X0106119Y0148029D02*
X0092336Y0148029D01*
X0093317Y0149027D02*
X0105132Y0149027D01*
X0105132Y0150026D02*
X0093317Y0150026D01*
X0093317Y0151024D02*
X0105132Y0151024D01*
X0105132Y0152023D02*
X0093317Y0152023D01*
X0092701Y0153021D02*
X0105754Y0153021D01*
X0106753Y0154020D02*
X0091702Y0154020D01*
X0086097Y0148029D02*
X0001500Y0148029D01*
X0001500Y0149027D02*
X0085117Y0149027D01*
X0087096Y0147030D02*
X0001500Y0147030D01*
X0001500Y0162008D02*
X0136910Y0162008D01*
X0136539Y0163006D02*
X0001500Y0163006D01*
X0001500Y0164005D02*
X0136556Y0164005D01*
X0136966Y0165003D02*
X0001500Y0165003D01*
X0001500Y0167999D02*
X0257406Y0167999D01*
X0257406Y0168998D02*
X0001500Y0168998D01*
X0001500Y0169996D02*
X0257406Y0169996D01*
X0257406Y0170995D02*
X0001500Y0170995D01*
X0001500Y0171993D02*
X0257406Y0171993D01*
X0257406Y0172992D02*
X0001500Y0172992D01*
X0001500Y0173990D02*
X0257406Y0173990D01*
X0257406Y0174989D02*
X0001500Y0174989D01*
X0039278Y0160011D02*
X0042440Y0160011D01*
X0041442Y0159012D02*
X0040276Y0159012D01*
X0044507Y0159012D02*
X0045107Y0159012D01*
X0045107Y0158014D02*
X0044507Y0158014D01*
X0044507Y0157015D02*
X0045107Y0157015D01*
X0045107Y0156017D02*
X0044507Y0156017D01*
X0044507Y0155018D02*
X0045107Y0155018D01*
X0045107Y0154020D02*
X0044507Y0154020D01*
X0044507Y0153021D02*
X0045107Y0153021D01*
X0045107Y0152023D02*
X0044507Y0152023D01*
X0044507Y0151024D02*
X0045107Y0151024D01*
X0042584Y0151024D02*
X0039134Y0151024D01*
X0040132Y0152023D02*
X0041585Y0152023D01*
X0044507Y0160011D02*
X0045107Y0160011D01*
X0030429Y0126062D02*
X0030051Y0126062D01*
X0041129Y0074139D02*
X0042129Y0074139D01*
X0043128Y0073140D02*
X0040131Y0073140D01*
X0093437Y0089117D02*
X0094602Y0089117D01*
X0100917Y0089117D02*
X0105224Y0089117D01*
X0104346Y0088118D02*
X0101803Y0088118D01*
X0101803Y0087120D02*
X0104346Y0087120D01*
X0104346Y0082127D02*
X0101803Y0082127D01*
X0101716Y0081129D02*
X0104426Y0081129D01*
X0105024Y0075137D02*
X0101117Y0075137D01*
X0101803Y0074139D02*
X0104346Y0074139D01*
X0104346Y0073140D02*
X0101803Y0073140D01*
X0101803Y0068148D02*
X0104346Y0068148D01*
X0104625Y0067149D02*
X0101516Y0067149D01*
X0126322Y0075137D02*
X0126903Y0075137D01*
X0105224Y0094109D02*
X0100917Y0094109D01*
X0101803Y0095108D02*
X0104346Y0095108D01*
X0104346Y0096106D02*
X0101803Y0096106D01*
X0101803Y0101099D02*
X0104346Y0101099D01*
X0104425Y0102097D02*
X0101716Y0102097D01*
X0094603Y0094109D02*
X0093437Y0094109D01*
X0154803Y0134050D02*
X0155261Y0134050D01*
X0158283Y0134050D02*
X0159283Y0134050D01*
X0159283Y0133051D02*
X0158283Y0133051D01*
X0158283Y0132053D02*
X0159283Y0132053D01*
X0159283Y0131054D02*
X0158283Y0131054D01*
X0162843Y0129057D02*
X0164780Y0129057D01*
X0164780Y0128059D02*
X0162843Y0128059D01*
X0162843Y0127060D02*
X0164780Y0127060D01*
X0164780Y0126062D02*
X0162419Y0126062D01*
X0168929Y0126062D02*
X0172488Y0126062D01*
X0172457Y0126093D02*
X0173381Y0125168D01*
X0175016Y0125168D01*
X0175016Y0120872D01*
X0176591Y0119297D01*
X0177407Y0118480D01*
X0177407Y0117928D01*
X0178053Y0117282D01*
X0177407Y0116636D01*
X0177407Y0112928D01*
X0178053Y0112282D01*
X0177407Y0111636D01*
X0177407Y0107928D01*
X0178051Y0107285D01*
X0178010Y0107262D01*
X0177712Y0106963D01*
X0177501Y0106597D01*
X0177391Y0106190D01*
X0177391Y0104932D01*
X0182741Y0104932D01*
X0182741Y0104632D01*
X0183041Y0104632D01*
X0183041Y0101982D01*
X0186999Y0101982D01*
X0187406Y0102092D01*
X0187772Y0102303D01*
X0188071Y0102601D01*
X0188282Y0102967D01*
X0188391Y0103375D01*
X0188391Y0104632D01*
X0183041Y0104632D01*
X0183041Y0104932D01*
X0188391Y0104932D01*
X0188391Y0106190D01*
X0188282Y0106597D01*
X0188071Y0106963D01*
X0187772Y0107262D01*
X0187732Y0107285D01*
X0188155Y0107708D01*
X0189976Y0107708D01*
X0189976Y0105035D01*
X0190595Y0104416D01*
X0190579Y0104407D01*
X0190281Y0104109D01*
X0190070Y0103743D01*
X0189961Y0103336D01*
X0189961Y0101168D01*
X0193913Y0101168D01*
X0193913Y0100168D01*
X0189961Y0100168D01*
X0189961Y0098001D01*
X0190070Y0097593D01*
X0190281Y0097228D01*
X0190579Y0096929D01*
X0190945Y0096718D01*
X0191352Y0096609D01*
X0193913Y0096609D01*
X0193913Y0100168D01*
X0194913Y0100168D01*
X0194913Y0096609D01*
X0197475Y0096609D01*
X0197882Y0096718D01*
X0198248Y0096929D01*
X0198546Y0097228D01*
X0198757Y0097593D01*
X0198866Y0098001D01*
X0198866Y0100168D01*
X0194913Y0100168D01*
X0194913Y0101168D01*
X0198866Y0101168D01*
X0198866Y0103336D01*
X0198757Y0103743D01*
X0198546Y0104109D01*
X0198248Y0104407D01*
X0198232Y0104416D01*
X0198850Y0105035D01*
X0198850Y0111262D01*
X0197921Y0112192D01*
X0190906Y0112192D01*
X0190571Y0111857D01*
X0188155Y0111857D01*
X0187729Y0112282D01*
X0188135Y0112688D01*
X0188500Y0112688D01*
X0189704Y0112664D01*
X0189729Y0112688D01*
X0189740Y0112688D01*
X0190021Y0112969D01*
X0190889Y0113804D01*
X0190890Y0113838D01*
X0196390Y0119338D01*
X0196390Y0156408D01*
X0193926Y0158872D01*
X0193926Y0162228D01*
X0192993Y0163161D01*
X0183990Y0163161D01*
X0183057Y0162228D01*
X0183057Y0156825D01*
X0183990Y0155892D01*
X0191316Y0155892D01*
X0192437Y0154771D01*
X0192437Y0138175D01*
X0192148Y0138464D01*
X0191785Y0138674D01*
X0191379Y0138782D01*
X0188614Y0138782D01*
X0188614Y0132467D01*
X0187614Y0132467D01*
X0187614Y0131467D01*
X0188614Y0131467D01*
X0188614Y0125152D01*
X0191379Y0125152D01*
X0191785Y0125261D01*
X0192148Y0125471D01*
X0192437Y0125760D01*
X0192437Y0120975D01*
X0188237Y0116775D01*
X0187729Y0117282D01*
X0188376Y0117928D01*
X0188376Y0121636D01*
X0187445Y0122567D01*
X0179189Y0122567D01*
X0179165Y0122591D01*
X0179165Y0125168D01*
X0180800Y0125168D01*
X0181724Y0126093D01*
X0181724Y0137842D01*
X0180800Y0138767D01*
X0173381Y0138767D01*
X0172457Y0137842D01*
X0172457Y0126093D01*
X0172457Y0127060D02*
X0168929Y0127060D01*
X0168929Y0128059D02*
X0172457Y0128059D01*
X0172457Y0129057D02*
X0168929Y0129057D01*
X0168929Y0130056D02*
X0172457Y0130056D01*
X0172457Y0131054D02*
X0168929Y0131054D01*
X0168929Y0132053D02*
X0172457Y0132053D01*
X0172457Y0133051D02*
X0168929Y0133051D01*
X0168929Y0134050D02*
X0172457Y0134050D01*
X0172457Y0135048D02*
X0168929Y0135048D01*
X0168929Y0136047D02*
X0172457Y0136047D01*
X0172457Y0137045D02*
X0168929Y0137045D01*
X0168929Y0138044D02*
X0172659Y0138044D01*
X0168929Y0139042D02*
X0192437Y0139042D01*
X0192437Y0140041D02*
X0168929Y0140041D01*
X0168929Y0141039D02*
X0192437Y0141039D01*
X0192437Y0142038D02*
X0168929Y0142038D01*
X0168929Y0143036D02*
X0192437Y0143036D01*
X0192437Y0144035D02*
X0168929Y0144035D01*
X0168929Y0145033D02*
X0192437Y0145033D01*
X0192437Y0146032D02*
X0168929Y0146032D01*
X0168929Y0147030D02*
X0192437Y0147030D01*
X0192437Y0148029D02*
X0168929Y0148029D01*
X0168929Y0149027D02*
X0192437Y0149027D01*
X0192437Y0150026D02*
X0168929Y0150026D01*
X0168929Y0151024D02*
X0192437Y0151024D01*
X0192437Y0152023D02*
X0168929Y0152023D01*
X0168929Y0153021D02*
X0192437Y0153021D01*
X0192437Y0154020D02*
X0168929Y0154020D01*
X0168929Y0155018D02*
X0192189Y0155018D01*
X0194784Y0158014D02*
X0257406Y0158014D01*
X0257406Y0159012D02*
X0193926Y0159012D01*
X0193926Y0160011D02*
X0257406Y0160011D01*
X0257406Y0161009D02*
X0193926Y0161009D01*
X0193926Y0162008D02*
X0257406Y0162008D01*
X0257406Y0163006D02*
X0193147Y0163006D01*
X0195782Y0157015D02*
X0257406Y0157015D01*
X0257406Y0156017D02*
X0196390Y0156017D01*
X0196390Y0155018D02*
X0257406Y0155018D01*
X0257406Y0154020D02*
X0196390Y0154020D01*
X0196390Y0153021D02*
X0257406Y0153021D01*
X0257406Y0152023D02*
X0196390Y0152023D01*
X0196390Y0151024D02*
X0257406Y0151024D01*
X0257406Y0150026D02*
X0196390Y0150026D01*
X0196390Y0149027D02*
X0257406Y0149027D01*
X0257406Y0148029D02*
X0196390Y0148029D01*
X0196390Y0147030D02*
X0257406Y0147030D01*
X0257406Y0146032D02*
X0196390Y0146032D01*
X0196390Y0145033D02*
X0257406Y0145033D01*
X0257406Y0144035D02*
X0229724Y0144035D01*
X0229938Y0143946D02*
X0228091Y0144711D01*
X0226091Y0144711D01*
X0224243Y0143946D01*
X0222828Y0142532D01*
X0222063Y0140684D01*
X0222063Y0138684D01*
X0222828Y0136836D01*
X0224243Y0135422D01*
X0226091Y0134656D01*
X0228091Y0134656D01*
X0229938Y0135422D01*
X0231353Y0136836D01*
X0232118Y0138684D01*
X0232118Y0140684D01*
X0231353Y0142532D01*
X0229938Y0143946D01*
X0230848Y0143036D02*
X0257406Y0143036D01*
X0257406Y0142038D02*
X0231557Y0142038D01*
X0231971Y0141039D02*
X0257406Y0141039D01*
X0257406Y0140041D02*
X0232118Y0140041D01*
X0232118Y0139042D02*
X0257406Y0139042D01*
X0257406Y0138044D02*
X0231853Y0138044D01*
X0231439Y0137045D02*
X0257406Y0137045D01*
X0257406Y0136047D02*
X0230563Y0136047D01*
X0229036Y0135048D02*
X0257406Y0135048D01*
X0257406Y0134050D02*
X0209244Y0134050D01*
X0209540Y0133333D02*
X0208736Y0135276D01*
X0207249Y0136762D01*
X0205307Y0137567D01*
X0203205Y0137567D01*
X0201263Y0136762D01*
X0199776Y0135276D01*
X0198972Y0133333D01*
X0198972Y0131231D01*
X0199776Y0129289D01*
X0201263Y0127803D01*
X0203205Y0126998D01*
X0205307Y0126998D01*
X0207249Y0127803D01*
X0208736Y0129289D01*
X0209540Y0131231D01*
X0209540Y0133333D01*
X0209540Y0133051D02*
X0257406Y0133051D01*
X0257406Y0132053D02*
X0238751Y0132053D01*
X0238567Y0132129D02*
X0236874Y0132129D01*
X0235310Y0131481D01*
X0234112Y0130284D01*
X0233465Y0128719D01*
X0233465Y0127026D01*
X0233558Y0126802D01*
X0223783Y0117027D01*
X0223389Y0117027D01*
X0222368Y0116605D01*
X0221587Y0115824D01*
X0221165Y0114803D01*
X0221165Y0113699D01*
X0221587Y0112678D01*
X0222368Y0111897D01*
X0223389Y0111474D01*
X0224493Y0111474D01*
X0225514Y0111897D01*
X0226295Y0112678D01*
X0226717Y0113699D01*
X0226717Y0114093D01*
X0236427Y0123802D01*
X0236874Y0123617D01*
X0238567Y0123617D01*
X0240131Y0124265D01*
X0241328Y0125462D01*
X0241976Y0127026D01*
X0241976Y0128719D01*
X0241328Y0130284D01*
X0240131Y0131481D01*
X0238567Y0132129D01*
X0236690Y0132053D02*
X0209540Y0132053D01*
X0209467Y0131054D02*
X0234883Y0131054D01*
X0234018Y0130056D02*
X0209053Y0130056D01*
X0208504Y0129057D02*
X0233604Y0129057D01*
X0233465Y0128059D02*
X0207505Y0128059D01*
X0205457Y0127060D02*
X0233465Y0127060D01*
X0232817Y0126062D02*
X0196390Y0126062D01*
X0196390Y0127060D02*
X0203055Y0127060D01*
X0201007Y0128059D02*
X0196390Y0128059D01*
X0196390Y0129057D02*
X0200008Y0129057D01*
X0199459Y0130056D02*
X0196390Y0130056D01*
X0196390Y0131054D02*
X0199045Y0131054D01*
X0198972Y0132053D02*
X0196390Y0132053D01*
X0196390Y0133051D02*
X0198972Y0133051D01*
X0199268Y0134050D02*
X0196390Y0134050D01*
X0196390Y0135048D02*
X0199682Y0135048D01*
X0200547Y0136047D02*
X0196390Y0136047D01*
X0196390Y0137045D02*
X0201946Y0137045D01*
X0206566Y0137045D02*
X0222742Y0137045D01*
X0222328Y0138044D02*
X0196390Y0138044D01*
X0196390Y0139042D02*
X0222063Y0139042D01*
X0222063Y0140041D02*
X0196390Y0140041D01*
X0196390Y0141039D02*
X0222210Y0141039D01*
X0222624Y0142038D02*
X0196390Y0142038D01*
X0196390Y0143036D02*
X0223333Y0143036D01*
X0224457Y0144035D02*
X0196390Y0144035D01*
X0188614Y0138044D02*
X0187614Y0138044D01*
X0187614Y0138782D02*
X0184849Y0138782D01*
X0184444Y0138674D01*
X0184080Y0138464D01*
X0183783Y0138167D01*
X0183573Y0137803D01*
X0183465Y0137398D01*
X0183465Y0132467D01*
X0187614Y0132467D01*
X0187614Y0138782D01*
X0187614Y0137045D02*
X0188614Y0137045D01*
X0188614Y0136047D02*
X0187614Y0136047D01*
X0187614Y0135048D02*
X0188614Y0135048D01*
X0188614Y0134050D02*
X0187614Y0134050D01*
X0187614Y0133051D02*
X0188614Y0133051D01*
X0187614Y0132053D02*
X0181724Y0132053D01*
X0181724Y0133051D02*
X0183465Y0133051D01*
X0183465Y0134050D02*
X0181724Y0134050D01*
X0181724Y0135048D02*
X0183465Y0135048D01*
X0183465Y0136047D02*
X0181724Y0136047D01*
X0181724Y0137045D02*
X0183465Y0137045D01*
X0183712Y0138044D02*
X0181523Y0138044D01*
X0183465Y0131467D02*
X0183465Y0126537D01*
X0183573Y0126131D01*
X0183783Y0125768D01*
X0184080Y0125471D01*
X0184444Y0125261D01*
X0184849Y0125152D01*
X0187614Y0125152D01*
X0187614Y0131467D01*
X0183465Y0131467D01*
X0183465Y0131054D02*
X0181724Y0131054D01*
X0181724Y0130056D02*
X0183465Y0130056D01*
X0183465Y0129057D02*
X0181724Y0129057D01*
X0181724Y0128059D02*
X0183465Y0128059D01*
X0183465Y0127060D02*
X0181724Y0127060D01*
X0181693Y0126062D02*
X0183614Y0126062D01*
X0179165Y0125063D02*
X0192437Y0125063D01*
X0192437Y0124064D02*
X0179165Y0124064D01*
X0179165Y0123066D02*
X0192437Y0123066D01*
X0192437Y0122067D02*
X0187944Y0122067D01*
X0188376Y0121069D02*
X0192437Y0121069D01*
X0191532Y0120070D02*
X0188376Y0120070D01*
X0188376Y0119072D02*
X0190534Y0119072D01*
X0189535Y0118073D02*
X0188376Y0118073D01*
X0188537Y0117075D02*
X0187937Y0117075D01*
X0188921Y0114664D02*
X0182891Y0114782D01*
X0177407Y0115078D02*
X0168929Y0115078D01*
X0168929Y0116076D02*
X0177407Y0116076D01*
X0177846Y0117075D02*
X0168929Y0117075D01*
X0168929Y0118073D02*
X0177407Y0118073D01*
X0176816Y0119072D02*
X0168929Y0119072D01*
X0168929Y0120070D02*
X0175817Y0120070D01*
X0175016Y0121069D02*
X0168929Y0121069D01*
X0168929Y0122067D02*
X0175016Y0122067D01*
X0175016Y0123066D02*
X0168929Y0123066D01*
X0168929Y0124064D02*
X0175016Y0124064D01*
X0175016Y0125063D02*
X0168929Y0125063D01*
X0168929Y0114079D02*
X0177407Y0114079D01*
X0177407Y0113081D02*
X0168929Y0113081D01*
X0168929Y0112082D02*
X0177853Y0112082D01*
X0177407Y0111084D02*
X0168929Y0111084D01*
X0168929Y0110085D02*
X0177407Y0110085D01*
X0177407Y0109087D02*
X0168929Y0109087D01*
X0168929Y0108088D02*
X0177407Y0108088D01*
X0177838Y0107090D02*
X0168929Y0107090D01*
X0168929Y0106091D02*
X0177391Y0106091D01*
X0177391Y0105093D02*
X0168929Y0105093D01*
X0168929Y0104094D02*
X0177391Y0104094D01*
X0177391Y0104632D02*
X0177391Y0103375D01*
X0177501Y0102967D01*
X0177712Y0102601D01*
X0178010Y0102303D01*
X0178376Y0102092D01*
X0178784Y0101982D01*
X0182741Y0101982D01*
X0182741Y0104632D01*
X0177391Y0104632D01*
X0177466Y0103096D02*
X0168929Y0103096D01*
X0168929Y0102097D02*
X0178367Y0102097D01*
X0182741Y0102097D02*
X0183041Y0102097D01*
X0183041Y0103096D02*
X0182741Y0103096D01*
X0182741Y0104094D02*
X0183041Y0104094D01*
X0187416Y0102097D02*
X0189961Y0102097D01*
X0189961Y0103096D02*
X0188316Y0103096D01*
X0188391Y0104094D02*
X0190272Y0104094D01*
X0189976Y0105093D02*
X0188391Y0105093D01*
X0188391Y0106091D02*
X0189976Y0106091D01*
X0189976Y0107090D02*
X0187944Y0107090D01*
X0187929Y0112082D02*
X0190796Y0112082D01*
X0190137Y0113081D02*
X0221420Y0113081D01*
X0221165Y0114079D02*
X0191131Y0114079D01*
X0192130Y0115078D02*
X0221278Y0115078D01*
X0221840Y0116076D02*
X0193128Y0116076D01*
X0194127Y0117075D02*
X0223831Y0117075D01*
X0224829Y0118073D02*
X0195125Y0118073D01*
X0196124Y0119072D02*
X0225828Y0119072D01*
X0226826Y0120070D02*
X0196390Y0120070D01*
X0196390Y0121069D02*
X0227825Y0121069D01*
X0228823Y0122067D02*
X0196390Y0122067D01*
X0196390Y0123066D02*
X0229822Y0123066D01*
X0230820Y0124064D02*
X0196390Y0124064D01*
X0196390Y0125063D02*
X0231819Y0125063D01*
X0234692Y0122067D02*
X0236346Y0122067D01*
X0236874Y0122286D02*
X0235310Y0121638D01*
X0234112Y0120441D01*
X0233465Y0118877D01*
X0233465Y0117184D01*
X0234112Y0115620D01*
X0235310Y0114422D01*
X0236104Y0114093D01*
X0235310Y0113764D01*
X0234112Y0112567D01*
X0233465Y0111003D01*
X0233465Y0109310D01*
X0234112Y0107746D01*
X0235310Y0106548D01*
X0236874Y0105900D01*
X0238567Y0105900D01*
X0240131Y0106548D01*
X0241328Y0107746D01*
X0241976Y0109310D01*
X0241976Y0111003D01*
X0241328Y0112567D01*
X0240131Y0113764D01*
X0239337Y0114093D01*
X0240131Y0114422D01*
X0241328Y0115620D01*
X0241976Y0117184D01*
X0241976Y0118877D01*
X0241328Y0120441D01*
X0240131Y0121638D01*
X0238567Y0122286D01*
X0236874Y0122286D01*
X0235690Y0123066D02*
X0257406Y0123066D01*
X0257406Y0124064D02*
X0239647Y0124064D01*
X0240929Y0125063D02*
X0257406Y0125063D01*
X0257406Y0126062D02*
X0241577Y0126062D01*
X0241976Y0127060D02*
X0257406Y0127060D01*
X0257406Y0128059D02*
X0241976Y0128059D01*
X0241837Y0129057D02*
X0257406Y0129057D01*
X0257406Y0130056D02*
X0241423Y0130056D01*
X0240558Y0131054D02*
X0257406Y0131054D01*
X0257406Y0122067D02*
X0239095Y0122067D01*
X0240701Y0121069D02*
X0257406Y0121069D01*
X0257406Y0120070D02*
X0241482Y0120070D01*
X0241896Y0119072D02*
X0257406Y0119072D01*
X0257406Y0118073D02*
X0241976Y0118073D01*
X0241931Y0117075D02*
X0257406Y0117075D01*
X0257406Y0116076D02*
X0241518Y0116076D01*
X0240787Y0115078D02*
X0257406Y0115078D01*
X0257406Y0114079D02*
X0239371Y0114079D01*
X0240815Y0113081D02*
X0257406Y0113081D01*
X0257406Y0112082D02*
X0241529Y0112082D01*
X0241943Y0111084D02*
X0257406Y0111084D01*
X0257406Y0110085D02*
X0241976Y0110085D01*
X0241884Y0109087D02*
X0257406Y0109087D01*
X0257406Y0108088D02*
X0241470Y0108088D01*
X0240673Y0107090D02*
X0257406Y0107090D01*
X0257406Y0106091D02*
X0239028Y0106091D01*
X0238721Y0104480D02*
X0238106Y0104578D01*
X0238106Y0100700D01*
X0237335Y0100700D01*
X0237335Y0104578D01*
X0236720Y0104480D01*
X0236081Y0104273D01*
X0235482Y0103967D01*
X0234938Y0103572D01*
X0234462Y0103097D01*
X0234067Y0102553D01*
X0233762Y0101954D01*
X0233554Y0101314D01*
X0233457Y0100700D01*
X0237335Y0100700D01*
X0237335Y0099928D01*
X0238106Y0099928D01*
X0238106Y0096050D01*
X0238721Y0096147D01*
X0239360Y0096355D01*
X0239959Y0096660D01*
X0240503Y0097056D01*
X0240979Y0097531D01*
X0241374Y0098075D01*
X0241679Y0098674D01*
X0241887Y0099314D01*
X0241984Y0099928D01*
X0238106Y0099928D01*
X0238106Y0100700D01*
X0241984Y0100700D01*
X0241887Y0101314D01*
X0241679Y0101954D01*
X0241374Y0102553D01*
X0240979Y0103097D01*
X0240503Y0103572D01*
X0239959Y0103967D01*
X0239360Y0104273D01*
X0238721Y0104480D01*
X0238106Y0104094D02*
X0237335Y0104094D01*
X0237335Y0103096D02*
X0238106Y0103096D01*
X0238106Y0102097D02*
X0237335Y0102097D01*
X0237335Y0101099D02*
X0238106Y0101099D01*
X0238106Y0100100D02*
X0257406Y0100100D01*
X0257406Y0099102D02*
X0241818Y0099102D01*
X0241388Y0098103D02*
X0257406Y0098103D01*
X0257406Y0097105D02*
X0240552Y0097105D01*
X0238461Y0096106D02*
X0257406Y0096106D01*
X0257406Y0095108D02*
X0208805Y0095108D01*
X0208736Y0095276D02*
X0207249Y0096762D01*
X0205307Y0097567D01*
X0203205Y0097567D01*
X0201263Y0096762D01*
X0199776Y0095276D01*
X0198972Y0093333D01*
X0198972Y0091231D01*
X0199776Y0089289D01*
X0201263Y0087803D01*
X0203205Y0086998D01*
X0205307Y0086998D01*
X0207249Y0087803D01*
X0208736Y0089289D01*
X0209540Y0091231D01*
X0209540Y0093333D01*
X0208736Y0095276D01*
X0207905Y0096106D02*
X0236980Y0096106D01*
X0236720Y0096147D02*
X0236081Y0096355D01*
X0235482Y0096660D01*
X0234938Y0097056D01*
X0234462Y0097531D01*
X0234067Y0098075D01*
X0233762Y0098674D01*
X0233554Y0099314D01*
X0233457Y0099928D01*
X0237335Y0099928D01*
X0237335Y0096050D01*
X0236720Y0096147D01*
X0237335Y0096106D02*
X0238106Y0096106D01*
X0238106Y0097105D02*
X0237335Y0097105D01*
X0237335Y0098103D02*
X0238106Y0098103D01*
X0238106Y0099102D02*
X0237335Y0099102D01*
X0237335Y0100100D02*
X0198866Y0100100D01*
X0198866Y0099102D02*
X0233623Y0099102D01*
X0234053Y0098103D02*
X0198866Y0098103D01*
X0198423Y0097105D02*
X0202090Y0097105D01*
X0200607Y0096106D02*
X0169126Y0096106D01*
X0169126Y0095108D02*
X0199707Y0095108D01*
X0199293Y0094109D02*
X0169126Y0094109D01*
X0169126Y0093111D02*
X0198972Y0093111D01*
X0198972Y0092112D02*
X0169126Y0092112D01*
X0169126Y0091114D02*
X0199020Y0091114D01*
X0199434Y0090115D02*
X0169126Y0090115D01*
X0169126Y0089117D02*
X0199949Y0089117D01*
X0200947Y0088118D02*
X0169126Y0088118D01*
X0169126Y0087120D02*
X0202912Y0087120D01*
X0205600Y0087120D02*
X0222615Y0087120D01*
X0222457Y0088118D02*
X0207565Y0088118D01*
X0208563Y0089117D02*
X0222457Y0089117D01*
X0222710Y0090115D02*
X0209078Y0090115D01*
X0209491Y0091114D02*
X0223124Y0091114D01*
X0223984Y0092112D02*
X0209540Y0092112D01*
X0209540Y0093111D02*
X0225471Y0093111D01*
X0229498Y0093111D02*
X0257406Y0093111D01*
X0257406Y0094109D02*
X0209219Y0094109D01*
X0206422Y0097105D02*
X0234889Y0097105D01*
X0233520Y0101099D02*
X0194913Y0101099D01*
X0194913Y0100100D02*
X0193913Y0100100D01*
X0193913Y0099102D02*
X0194913Y0099102D01*
X0194913Y0098103D02*
X0193913Y0098103D01*
X0193913Y0097105D02*
X0194913Y0097105D01*
X0193913Y0101099D02*
X0168929Y0101099D01*
X0168929Y0100100D02*
X0189961Y0100100D01*
X0189961Y0099102D02*
X0168929Y0099102D01*
X0169126Y0098103D02*
X0189961Y0098103D01*
X0190404Y0097105D02*
X0169126Y0097105D01*
X0168524Y0086121D02*
X0223029Y0086121D01*
X0230051Y0084124D02*
X0257406Y0084124D01*
X0257406Y0085123D02*
X0231214Y0085123D01*
X0231939Y0086121D02*
X0257406Y0086121D01*
X0257406Y0087120D02*
X0232353Y0087120D01*
X0232512Y0088118D02*
X0257406Y0088118D01*
X0257406Y0089117D02*
X0232512Y0089117D01*
X0232258Y0090115D02*
X0257406Y0090115D01*
X0257406Y0091114D02*
X0231845Y0091114D01*
X0230985Y0092112D02*
X0257406Y0092112D01*
X0257406Y0101099D02*
X0241921Y0101099D01*
X0241606Y0102097D02*
X0257406Y0102097D01*
X0257406Y0103096D02*
X0240979Y0103096D01*
X0239710Y0104094D02*
X0257406Y0104094D01*
X0257406Y0105093D02*
X0198850Y0105093D01*
X0198850Y0106091D02*
X0236413Y0106091D01*
X0234768Y0107090D02*
X0198850Y0107090D01*
X0198850Y0108088D02*
X0233971Y0108088D01*
X0233557Y0109087D02*
X0198850Y0109087D01*
X0198850Y0110085D02*
X0233465Y0110085D01*
X0233498Y0111084D02*
X0198850Y0111084D01*
X0198030Y0112082D02*
X0222183Y0112082D01*
X0225699Y0112082D02*
X0233912Y0112082D01*
X0234626Y0113081D02*
X0226461Y0113081D01*
X0226717Y0114079D02*
X0236070Y0114079D01*
X0234654Y0115078D02*
X0227702Y0115078D01*
X0228701Y0116076D02*
X0233923Y0116076D01*
X0233510Y0117075D02*
X0229699Y0117075D01*
X0230698Y0118073D02*
X0233465Y0118073D01*
X0233545Y0119072D02*
X0231696Y0119072D01*
X0232695Y0120070D02*
X0233959Y0120070D01*
X0233693Y0121069D02*
X0234740Y0121069D01*
X0225145Y0135048D02*
X0208830Y0135048D01*
X0207965Y0136047D02*
X0223618Y0136047D01*
X0188614Y0131054D02*
X0187614Y0131054D01*
X0187614Y0130056D02*
X0188614Y0130056D01*
X0188614Y0129057D02*
X0187614Y0129057D01*
X0187614Y0128059D02*
X0188614Y0128059D01*
X0188614Y0127060D02*
X0187614Y0127060D01*
X0187614Y0126062D02*
X0188614Y0126062D01*
X0198554Y0104094D02*
X0235731Y0104094D01*
X0234462Y0103096D02*
X0198866Y0103096D01*
X0198866Y0102097D02*
X0233835Y0102097D01*
X0183865Y0156017D02*
X0168929Y0156017D01*
X0168363Y0157015D02*
X0183057Y0157015D01*
X0183057Y0158014D02*
X0167364Y0158014D01*
X0166366Y0159012D02*
X0183057Y0159012D01*
X0183057Y0160011D02*
X0165367Y0160011D01*
X0164369Y0161009D02*
X0183057Y0161009D01*
X0183057Y0162008D02*
X0158526Y0162008D01*
X0157747Y0163006D02*
X0183835Y0163006D01*
X0163493Y0156017D02*
X0157718Y0156017D01*
X0158526Y0157015D02*
X0162494Y0157015D01*
D26*
X0162917Y0159526D02*
X0153091Y0159526D01*
X0153075Y0159526D01*
X0162917Y0159526D02*
X0166854Y0155589D01*
X0166854Y0114251D01*
X0166323Y0114782D01*
X0158691Y0114782D01*
X0147898Y0114782D01*
X0147169Y0114054D01*
X0147169Y0120156D01*
X0133390Y0133936D01*
X0090083Y0133936D01*
X0082209Y0126062D01*
X0082209Y0122125D01*
X0082209Y0112479D01*
X0090280Y0104408D01*
X0090280Y0098503D01*
X0090083Y0098503D01*
X0090083Y0084920D01*
X0090280Y0084723D01*
X0090280Y0070944D01*
X0101894Y0114251D02*
X0097957Y0118188D01*
X0090083Y0118188D01*
X0097957Y0118188D02*
X0102799Y0123030D01*
X0102799Y0130353D01*
X0101894Y0114251D02*
X0115673Y0114251D01*
X0151106Y0122125D02*
X0151106Y0129802D01*
X0151303Y0129999D01*
X0151106Y0122125D02*
X0153449Y0119782D01*
X0158691Y0119782D01*
X0166854Y0114251D02*
X0166854Y0094960D01*
X0164492Y0092597D01*
X0182891Y0109782D02*
X0192780Y0109782D01*
X0194413Y0108148D01*
X0182891Y0119782D02*
X0182517Y0120156D01*
X0178665Y0120156D01*
X0177091Y0121731D01*
X0177091Y0131967D01*
X0223941Y0114251D02*
X0237720Y0128030D01*
M02*
