%
M48
M72
T01C0.01181
T02C0.01378
T03C0.02756
T04C0.03200
T05C0.03543
T06C0.09055
T07C0.11811
%
T01
X279327Y120156
X280312Y110314
X221257Y82755
X189760Y68975
X162201Y108345
X166138Y114251
X154327Y116219
X150390Y116219
X150390Y120156
X154327Y120156
X140548Y118188
X136808Y123030
X132674Y122125
X153343Y132558
X174012Y126062
X177949Y122125
X181886Y118188
X194319Y122487
X189760Y163463
T02
X227494Y159743
T03
X80312Y101849
X80705Y109920
X80705Y116219
X80705Y122519
X80312Y130589
X70863Y130589
X70469Y119369
X70469Y113070
X70863Y101849
T04
X82241Y76495
X90115Y76495
X118894Y111219
X118894Y121219
X81493Y154605
X89367Y154605
X139406Y150668
X159406Y150668
T05
X288186Y100314
X288186Y110156
X288186Y118030
X288186Y127873
T06
X277949Y88503
X277556Y139684
T07
X294091Y72912
X294091Y159526
X65745Y72912
X65745Y159526
M30
