%
M48
M72
T01C0.00984
T02C0.02756
T03C0.03200
T04C0.03543
T05C0.04400
T06C0.09055
%
T01
X80240Y122125
X88114Y118188
X100831Y130353
X113705Y114251
X109768Y108345
X125516Y122125
X129453Y118188
X121579Y126062
X137327Y163463
X174728Y141810
X221972Y114251
X168823Y82755
X137327Y68975
T02
X18429Y101849
X27878Y101849
X28272Y109920
X28272Y116219
X28272Y122519
X27878Y130589
X18429Y130589
X18035Y119369
X18035Y113070
T03
X35713Y77479
X43587Y77479
X34965Y155589
X42839Y155589
X66461Y121219
X66461Y111219
X87248Y150708
X107248Y150708
T04
X235752Y127873
X235752Y118030
X235752Y110156
X235752Y100314
T05
X202287Y132282
X202287Y92282
T06
X225122Y139684
X225516Y88503
M30
