G75*
%MOIN*%
%OFA0B0*%
%FSLAX25Y25*%
%IPPOS*%
%LPD*%
%AMOC8*
5,1,8,0,0,1.08239X$1,22.5*
%
%ADD10C,0.00000*%
%ADD11R,0.05906X0.05118*%
%ADD12R,0.05118X0.05906*%
%ADD13R,0.22441X0.06299*%
%ADD14OC8,0.06600*%
%ADD15OC8,0.04800*%
%ADD16C,0.04134*%
%ADD17R,0.01181X0.03150*%
%ADD18R,0.03150X0.01181*%
%ADD19R,0.09843X0.09843*%
%ADD20C,0.02400*%
%ADD21C,0.05315*%
%ADD22OC8,0.06200*%
%ADD23C,0.06200*%
%ADD24R,0.11024X0.21260*%
%ADD25R,0.03150X0.02362*%
%ADD26R,0.09449X0.09449*%
%ADD27C,0.01969*%
%ADD28C,0.01000*%
%ADD29C,0.01181*%
%ADD30C,0.02362*%
%ADD31C,0.02165*%
%ADD32C,0.00984*%
D10*
X0065745Y0061101D02*
X0294091Y0061101D01*
X0294376Y0061104D01*
X0294662Y0061115D01*
X0294947Y0061132D01*
X0295231Y0061156D01*
X0295515Y0061187D01*
X0295798Y0061225D01*
X0296079Y0061270D01*
X0296360Y0061321D01*
X0296640Y0061379D01*
X0296918Y0061444D01*
X0297194Y0061516D01*
X0297468Y0061594D01*
X0297741Y0061679D01*
X0298011Y0061771D01*
X0298279Y0061869D01*
X0298545Y0061973D01*
X0298808Y0062084D01*
X0299068Y0062201D01*
X0299326Y0062324D01*
X0299580Y0062454D01*
X0299831Y0062590D01*
X0300079Y0062731D01*
X0300323Y0062879D01*
X0300564Y0063032D01*
X0300800Y0063192D01*
X0301033Y0063357D01*
X0301262Y0063527D01*
X0301487Y0063703D01*
X0301707Y0063885D01*
X0301923Y0064071D01*
X0302134Y0064263D01*
X0302341Y0064460D01*
X0302543Y0064662D01*
X0302740Y0064869D01*
X0302932Y0065080D01*
X0303118Y0065296D01*
X0303300Y0065516D01*
X0303476Y0065741D01*
X0303646Y0065970D01*
X0303811Y0066203D01*
X0303971Y0066439D01*
X0304124Y0066680D01*
X0304272Y0066924D01*
X0304413Y0067172D01*
X0304549Y0067423D01*
X0304679Y0067677D01*
X0304802Y0067935D01*
X0304919Y0068195D01*
X0305030Y0068458D01*
X0305134Y0068724D01*
X0305232Y0068992D01*
X0305324Y0069262D01*
X0305409Y0069535D01*
X0305487Y0069809D01*
X0305559Y0070085D01*
X0305624Y0070363D01*
X0305682Y0070643D01*
X0305733Y0070924D01*
X0305778Y0071205D01*
X0305816Y0071488D01*
X0305847Y0071772D01*
X0305871Y0072056D01*
X0305888Y0072341D01*
X0305899Y0072627D01*
X0305902Y0072912D01*
X0305902Y0159526D01*
X0305902Y0155589D02*
X0305902Y0076849D01*
X0288185Y0072912D02*
X0288187Y0073065D01*
X0288193Y0073219D01*
X0288203Y0073372D01*
X0288217Y0073524D01*
X0288235Y0073677D01*
X0288257Y0073828D01*
X0288282Y0073979D01*
X0288312Y0074130D01*
X0288346Y0074280D01*
X0288383Y0074428D01*
X0288424Y0074576D01*
X0288469Y0074722D01*
X0288518Y0074868D01*
X0288571Y0075012D01*
X0288627Y0075154D01*
X0288687Y0075295D01*
X0288751Y0075435D01*
X0288818Y0075573D01*
X0288889Y0075709D01*
X0288964Y0075843D01*
X0289041Y0075975D01*
X0289123Y0076105D01*
X0289207Y0076233D01*
X0289295Y0076359D01*
X0289386Y0076482D01*
X0289480Y0076603D01*
X0289578Y0076721D01*
X0289678Y0076837D01*
X0289782Y0076950D01*
X0289888Y0077061D01*
X0289997Y0077169D01*
X0290109Y0077274D01*
X0290223Y0077375D01*
X0290341Y0077474D01*
X0290460Y0077570D01*
X0290582Y0077663D01*
X0290707Y0077752D01*
X0290834Y0077839D01*
X0290963Y0077921D01*
X0291094Y0078001D01*
X0291227Y0078077D01*
X0291362Y0078150D01*
X0291499Y0078219D01*
X0291638Y0078284D01*
X0291778Y0078346D01*
X0291920Y0078404D01*
X0292063Y0078459D01*
X0292208Y0078510D01*
X0292354Y0078557D01*
X0292501Y0078600D01*
X0292649Y0078639D01*
X0292798Y0078675D01*
X0292948Y0078706D01*
X0293099Y0078734D01*
X0293250Y0078758D01*
X0293403Y0078778D01*
X0293555Y0078794D01*
X0293708Y0078806D01*
X0293861Y0078814D01*
X0294014Y0078818D01*
X0294168Y0078818D01*
X0294321Y0078814D01*
X0294474Y0078806D01*
X0294627Y0078794D01*
X0294779Y0078778D01*
X0294932Y0078758D01*
X0295083Y0078734D01*
X0295234Y0078706D01*
X0295384Y0078675D01*
X0295533Y0078639D01*
X0295681Y0078600D01*
X0295828Y0078557D01*
X0295974Y0078510D01*
X0296119Y0078459D01*
X0296262Y0078404D01*
X0296404Y0078346D01*
X0296544Y0078284D01*
X0296683Y0078219D01*
X0296820Y0078150D01*
X0296955Y0078077D01*
X0297088Y0078001D01*
X0297219Y0077921D01*
X0297348Y0077839D01*
X0297475Y0077752D01*
X0297600Y0077663D01*
X0297722Y0077570D01*
X0297841Y0077474D01*
X0297959Y0077375D01*
X0298073Y0077274D01*
X0298185Y0077169D01*
X0298294Y0077061D01*
X0298400Y0076950D01*
X0298504Y0076837D01*
X0298604Y0076721D01*
X0298702Y0076603D01*
X0298796Y0076482D01*
X0298887Y0076359D01*
X0298975Y0076233D01*
X0299059Y0076105D01*
X0299141Y0075975D01*
X0299218Y0075843D01*
X0299293Y0075709D01*
X0299364Y0075573D01*
X0299431Y0075435D01*
X0299495Y0075295D01*
X0299555Y0075154D01*
X0299611Y0075012D01*
X0299664Y0074868D01*
X0299713Y0074722D01*
X0299758Y0074576D01*
X0299799Y0074428D01*
X0299836Y0074280D01*
X0299870Y0074130D01*
X0299900Y0073979D01*
X0299925Y0073828D01*
X0299947Y0073677D01*
X0299965Y0073524D01*
X0299979Y0073372D01*
X0299989Y0073219D01*
X0299995Y0073065D01*
X0299997Y0072912D01*
X0299995Y0072759D01*
X0299989Y0072605D01*
X0299979Y0072452D01*
X0299965Y0072300D01*
X0299947Y0072147D01*
X0299925Y0071996D01*
X0299900Y0071845D01*
X0299870Y0071694D01*
X0299836Y0071544D01*
X0299799Y0071396D01*
X0299758Y0071248D01*
X0299713Y0071102D01*
X0299664Y0070956D01*
X0299611Y0070812D01*
X0299555Y0070670D01*
X0299495Y0070529D01*
X0299431Y0070389D01*
X0299364Y0070251D01*
X0299293Y0070115D01*
X0299218Y0069981D01*
X0299141Y0069849D01*
X0299059Y0069719D01*
X0298975Y0069591D01*
X0298887Y0069465D01*
X0298796Y0069342D01*
X0298702Y0069221D01*
X0298604Y0069103D01*
X0298504Y0068987D01*
X0298400Y0068874D01*
X0298294Y0068763D01*
X0298185Y0068655D01*
X0298073Y0068550D01*
X0297959Y0068449D01*
X0297841Y0068350D01*
X0297722Y0068254D01*
X0297600Y0068161D01*
X0297475Y0068072D01*
X0297348Y0067985D01*
X0297219Y0067903D01*
X0297088Y0067823D01*
X0296955Y0067747D01*
X0296820Y0067674D01*
X0296683Y0067605D01*
X0296544Y0067540D01*
X0296404Y0067478D01*
X0296262Y0067420D01*
X0296119Y0067365D01*
X0295974Y0067314D01*
X0295828Y0067267D01*
X0295681Y0067224D01*
X0295533Y0067185D01*
X0295384Y0067149D01*
X0295234Y0067118D01*
X0295083Y0067090D01*
X0294932Y0067066D01*
X0294779Y0067046D01*
X0294627Y0067030D01*
X0294474Y0067018D01*
X0294321Y0067010D01*
X0294168Y0067006D01*
X0294014Y0067006D01*
X0293861Y0067010D01*
X0293708Y0067018D01*
X0293555Y0067030D01*
X0293403Y0067046D01*
X0293250Y0067066D01*
X0293099Y0067090D01*
X0292948Y0067118D01*
X0292798Y0067149D01*
X0292649Y0067185D01*
X0292501Y0067224D01*
X0292354Y0067267D01*
X0292208Y0067314D01*
X0292063Y0067365D01*
X0291920Y0067420D01*
X0291778Y0067478D01*
X0291638Y0067540D01*
X0291499Y0067605D01*
X0291362Y0067674D01*
X0291227Y0067747D01*
X0291094Y0067823D01*
X0290963Y0067903D01*
X0290834Y0067985D01*
X0290707Y0068072D01*
X0290582Y0068161D01*
X0290460Y0068254D01*
X0290341Y0068350D01*
X0290223Y0068449D01*
X0290109Y0068550D01*
X0289997Y0068655D01*
X0289888Y0068763D01*
X0289782Y0068874D01*
X0289678Y0068987D01*
X0289578Y0069103D01*
X0289480Y0069221D01*
X0289386Y0069342D01*
X0289295Y0069465D01*
X0289207Y0069591D01*
X0289123Y0069719D01*
X0289041Y0069849D01*
X0288964Y0069981D01*
X0288889Y0070115D01*
X0288818Y0070251D01*
X0288751Y0070389D01*
X0288687Y0070529D01*
X0288627Y0070670D01*
X0288571Y0070812D01*
X0288518Y0070956D01*
X0288469Y0071102D01*
X0288424Y0071248D01*
X0288383Y0071396D01*
X0288346Y0071544D01*
X0288312Y0071694D01*
X0288282Y0071845D01*
X0288257Y0071996D01*
X0288235Y0072147D01*
X0288217Y0072300D01*
X0288203Y0072452D01*
X0288193Y0072605D01*
X0288187Y0072759D01*
X0288185Y0072912D01*
X0273421Y0088503D02*
X0273423Y0088637D01*
X0273429Y0088771D01*
X0273439Y0088905D01*
X0273453Y0089039D01*
X0273471Y0089172D01*
X0273492Y0089304D01*
X0273518Y0089436D01*
X0273548Y0089567D01*
X0273581Y0089697D01*
X0273618Y0089825D01*
X0273660Y0089953D01*
X0273704Y0090080D01*
X0273753Y0090205D01*
X0273805Y0090328D01*
X0273861Y0090450D01*
X0273921Y0090571D01*
X0273984Y0090689D01*
X0274050Y0090806D01*
X0274120Y0090920D01*
X0274193Y0091033D01*
X0274270Y0091143D01*
X0274350Y0091251D01*
X0274433Y0091356D01*
X0274519Y0091459D01*
X0274608Y0091559D01*
X0274700Y0091657D01*
X0274795Y0091752D01*
X0274893Y0091844D01*
X0274993Y0091933D01*
X0275096Y0092019D01*
X0275201Y0092102D01*
X0275309Y0092182D01*
X0275419Y0092259D01*
X0275532Y0092332D01*
X0275646Y0092402D01*
X0275763Y0092468D01*
X0275881Y0092531D01*
X0276002Y0092591D01*
X0276124Y0092647D01*
X0276247Y0092699D01*
X0276372Y0092748D01*
X0276499Y0092792D01*
X0276627Y0092834D01*
X0276755Y0092871D01*
X0276885Y0092904D01*
X0277016Y0092934D01*
X0277148Y0092960D01*
X0277280Y0092981D01*
X0277413Y0092999D01*
X0277547Y0093013D01*
X0277681Y0093023D01*
X0277815Y0093029D01*
X0277949Y0093031D01*
X0278083Y0093029D01*
X0278217Y0093023D01*
X0278351Y0093013D01*
X0278485Y0092999D01*
X0278618Y0092981D01*
X0278750Y0092960D01*
X0278882Y0092934D01*
X0279013Y0092904D01*
X0279143Y0092871D01*
X0279271Y0092834D01*
X0279399Y0092792D01*
X0279526Y0092748D01*
X0279651Y0092699D01*
X0279774Y0092647D01*
X0279896Y0092591D01*
X0280017Y0092531D01*
X0280135Y0092468D01*
X0280252Y0092402D01*
X0280366Y0092332D01*
X0280479Y0092259D01*
X0280589Y0092182D01*
X0280697Y0092102D01*
X0280802Y0092019D01*
X0280905Y0091933D01*
X0281005Y0091844D01*
X0281103Y0091752D01*
X0281198Y0091657D01*
X0281290Y0091559D01*
X0281379Y0091459D01*
X0281465Y0091356D01*
X0281548Y0091251D01*
X0281628Y0091143D01*
X0281705Y0091033D01*
X0281778Y0090920D01*
X0281848Y0090806D01*
X0281914Y0090689D01*
X0281977Y0090571D01*
X0282037Y0090450D01*
X0282093Y0090328D01*
X0282145Y0090205D01*
X0282194Y0090080D01*
X0282238Y0089953D01*
X0282280Y0089825D01*
X0282317Y0089697D01*
X0282350Y0089567D01*
X0282380Y0089436D01*
X0282406Y0089304D01*
X0282427Y0089172D01*
X0282445Y0089039D01*
X0282459Y0088905D01*
X0282469Y0088771D01*
X0282475Y0088637D01*
X0282477Y0088503D01*
X0282475Y0088369D01*
X0282469Y0088235D01*
X0282459Y0088101D01*
X0282445Y0087967D01*
X0282427Y0087834D01*
X0282406Y0087702D01*
X0282380Y0087570D01*
X0282350Y0087439D01*
X0282317Y0087309D01*
X0282280Y0087181D01*
X0282238Y0087053D01*
X0282194Y0086926D01*
X0282145Y0086801D01*
X0282093Y0086678D01*
X0282037Y0086556D01*
X0281977Y0086435D01*
X0281914Y0086317D01*
X0281848Y0086200D01*
X0281778Y0086086D01*
X0281705Y0085973D01*
X0281628Y0085863D01*
X0281548Y0085755D01*
X0281465Y0085650D01*
X0281379Y0085547D01*
X0281290Y0085447D01*
X0281198Y0085349D01*
X0281103Y0085254D01*
X0281005Y0085162D01*
X0280905Y0085073D01*
X0280802Y0084987D01*
X0280697Y0084904D01*
X0280589Y0084824D01*
X0280479Y0084747D01*
X0280366Y0084674D01*
X0280252Y0084604D01*
X0280135Y0084538D01*
X0280017Y0084475D01*
X0279896Y0084415D01*
X0279774Y0084359D01*
X0279651Y0084307D01*
X0279526Y0084258D01*
X0279399Y0084214D01*
X0279271Y0084172D01*
X0279143Y0084135D01*
X0279013Y0084102D01*
X0278882Y0084072D01*
X0278750Y0084046D01*
X0278618Y0084025D01*
X0278485Y0084007D01*
X0278351Y0083993D01*
X0278217Y0083983D01*
X0278083Y0083977D01*
X0277949Y0083975D01*
X0277815Y0083977D01*
X0277681Y0083983D01*
X0277547Y0083993D01*
X0277413Y0084007D01*
X0277280Y0084025D01*
X0277148Y0084046D01*
X0277016Y0084072D01*
X0276885Y0084102D01*
X0276755Y0084135D01*
X0276627Y0084172D01*
X0276499Y0084214D01*
X0276372Y0084258D01*
X0276247Y0084307D01*
X0276124Y0084359D01*
X0276002Y0084415D01*
X0275881Y0084475D01*
X0275763Y0084538D01*
X0275646Y0084604D01*
X0275532Y0084674D01*
X0275419Y0084747D01*
X0275309Y0084824D01*
X0275201Y0084904D01*
X0275096Y0084987D01*
X0274993Y0085073D01*
X0274893Y0085162D01*
X0274795Y0085254D01*
X0274700Y0085349D01*
X0274608Y0085447D01*
X0274519Y0085547D01*
X0274433Y0085650D01*
X0274350Y0085755D01*
X0274270Y0085863D01*
X0274193Y0085973D01*
X0274120Y0086086D01*
X0274050Y0086200D01*
X0273984Y0086317D01*
X0273921Y0086435D01*
X0273861Y0086556D01*
X0273805Y0086678D01*
X0273753Y0086801D01*
X0273704Y0086926D01*
X0273660Y0087053D01*
X0273618Y0087181D01*
X0273581Y0087309D01*
X0273548Y0087439D01*
X0273518Y0087570D01*
X0273492Y0087702D01*
X0273471Y0087834D01*
X0273453Y0087967D01*
X0273439Y0088101D01*
X0273429Y0088235D01*
X0273423Y0088369D01*
X0273421Y0088503D01*
X0273028Y0139684D02*
X0273030Y0139818D01*
X0273036Y0139952D01*
X0273046Y0140086D01*
X0273060Y0140220D01*
X0273078Y0140353D01*
X0273099Y0140485D01*
X0273125Y0140617D01*
X0273155Y0140748D01*
X0273188Y0140878D01*
X0273225Y0141006D01*
X0273267Y0141134D01*
X0273311Y0141261D01*
X0273360Y0141386D01*
X0273412Y0141509D01*
X0273468Y0141631D01*
X0273528Y0141752D01*
X0273591Y0141870D01*
X0273657Y0141987D01*
X0273727Y0142101D01*
X0273800Y0142214D01*
X0273877Y0142324D01*
X0273957Y0142432D01*
X0274040Y0142537D01*
X0274126Y0142640D01*
X0274215Y0142740D01*
X0274307Y0142838D01*
X0274402Y0142933D01*
X0274500Y0143025D01*
X0274600Y0143114D01*
X0274703Y0143200D01*
X0274808Y0143283D01*
X0274916Y0143363D01*
X0275026Y0143440D01*
X0275139Y0143513D01*
X0275253Y0143583D01*
X0275370Y0143649D01*
X0275488Y0143712D01*
X0275609Y0143772D01*
X0275731Y0143828D01*
X0275854Y0143880D01*
X0275979Y0143929D01*
X0276106Y0143973D01*
X0276234Y0144015D01*
X0276362Y0144052D01*
X0276492Y0144085D01*
X0276623Y0144115D01*
X0276755Y0144141D01*
X0276887Y0144162D01*
X0277020Y0144180D01*
X0277154Y0144194D01*
X0277288Y0144204D01*
X0277422Y0144210D01*
X0277556Y0144212D01*
X0277690Y0144210D01*
X0277824Y0144204D01*
X0277958Y0144194D01*
X0278092Y0144180D01*
X0278225Y0144162D01*
X0278357Y0144141D01*
X0278489Y0144115D01*
X0278620Y0144085D01*
X0278750Y0144052D01*
X0278878Y0144015D01*
X0279006Y0143973D01*
X0279133Y0143929D01*
X0279258Y0143880D01*
X0279381Y0143828D01*
X0279503Y0143772D01*
X0279624Y0143712D01*
X0279742Y0143649D01*
X0279859Y0143583D01*
X0279973Y0143513D01*
X0280086Y0143440D01*
X0280196Y0143363D01*
X0280304Y0143283D01*
X0280409Y0143200D01*
X0280512Y0143114D01*
X0280612Y0143025D01*
X0280710Y0142933D01*
X0280805Y0142838D01*
X0280897Y0142740D01*
X0280986Y0142640D01*
X0281072Y0142537D01*
X0281155Y0142432D01*
X0281235Y0142324D01*
X0281312Y0142214D01*
X0281385Y0142101D01*
X0281455Y0141987D01*
X0281521Y0141870D01*
X0281584Y0141752D01*
X0281644Y0141631D01*
X0281700Y0141509D01*
X0281752Y0141386D01*
X0281801Y0141261D01*
X0281845Y0141134D01*
X0281887Y0141006D01*
X0281924Y0140878D01*
X0281957Y0140748D01*
X0281987Y0140617D01*
X0282013Y0140485D01*
X0282034Y0140353D01*
X0282052Y0140220D01*
X0282066Y0140086D01*
X0282076Y0139952D01*
X0282082Y0139818D01*
X0282084Y0139684D01*
X0282082Y0139550D01*
X0282076Y0139416D01*
X0282066Y0139282D01*
X0282052Y0139148D01*
X0282034Y0139015D01*
X0282013Y0138883D01*
X0281987Y0138751D01*
X0281957Y0138620D01*
X0281924Y0138490D01*
X0281887Y0138362D01*
X0281845Y0138234D01*
X0281801Y0138107D01*
X0281752Y0137982D01*
X0281700Y0137859D01*
X0281644Y0137737D01*
X0281584Y0137616D01*
X0281521Y0137498D01*
X0281455Y0137381D01*
X0281385Y0137267D01*
X0281312Y0137154D01*
X0281235Y0137044D01*
X0281155Y0136936D01*
X0281072Y0136831D01*
X0280986Y0136728D01*
X0280897Y0136628D01*
X0280805Y0136530D01*
X0280710Y0136435D01*
X0280612Y0136343D01*
X0280512Y0136254D01*
X0280409Y0136168D01*
X0280304Y0136085D01*
X0280196Y0136005D01*
X0280086Y0135928D01*
X0279973Y0135855D01*
X0279859Y0135785D01*
X0279742Y0135719D01*
X0279624Y0135656D01*
X0279503Y0135596D01*
X0279381Y0135540D01*
X0279258Y0135488D01*
X0279133Y0135439D01*
X0279006Y0135395D01*
X0278878Y0135353D01*
X0278750Y0135316D01*
X0278620Y0135283D01*
X0278489Y0135253D01*
X0278357Y0135227D01*
X0278225Y0135206D01*
X0278092Y0135188D01*
X0277958Y0135174D01*
X0277824Y0135164D01*
X0277690Y0135158D01*
X0277556Y0135156D01*
X0277422Y0135158D01*
X0277288Y0135164D01*
X0277154Y0135174D01*
X0277020Y0135188D01*
X0276887Y0135206D01*
X0276755Y0135227D01*
X0276623Y0135253D01*
X0276492Y0135283D01*
X0276362Y0135316D01*
X0276234Y0135353D01*
X0276106Y0135395D01*
X0275979Y0135439D01*
X0275854Y0135488D01*
X0275731Y0135540D01*
X0275609Y0135596D01*
X0275488Y0135656D01*
X0275370Y0135719D01*
X0275253Y0135785D01*
X0275139Y0135855D01*
X0275026Y0135928D01*
X0274916Y0136005D01*
X0274808Y0136085D01*
X0274703Y0136168D01*
X0274600Y0136254D01*
X0274500Y0136343D01*
X0274402Y0136435D01*
X0274307Y0136530D01*
X0274215Y0136628D01*
X0274126Y0136728D01*
X0274040Y0136831D01*
X0273957Y0136936D01*
X0273877Y0137044D01*
X0273800Y0137154D01*
X0273727Y0137267D01*
X0273657Y0137381D01*
X0273591Y0137498D01*
X0273528Y0137616D01*
X0273468Y0137737D01*
X0273412Y0137859D01*
X0273360Y0137982D01*
X0273311Y0138107D01*
X0273267Y0138234D01*
X0273225Y0138362D01*
X0273188Y0138490D01*
X0273155Y0138620D01*
X0273125Y0138751D01*
X0273099Y0138883D01*
X0273078Y0139015D01*
X0273060Y0139148D01*
X0273046Y0139282D01*
X0273036Y0139416D01*
X0273030Y0139550D01*
X0273028Y0139684D01*
X0294091Y0171337D02*
X0294376Y0171334D01*
X0294662Y0171323D01*
X0294947Y0171306D01*
X0295231Y0171282D01*
X0295515Y0171251D01*
X0295798Y0171213D01*
X0296079Y0171168D01*
X0296360Y0171117D01*
X0296640Y0171059D01*
X0296918Y0170994D01*
X0297194Y0170922D01*
X0297468Y0170844D01*
X0297741Y0170759D01*
X0298011Y0170667D01*
X0298279Y0170569D01*
X0298545Y0170465D01*
X0298808Y0170354D01*
X0299068Y0170237D01*
X0299326Y0170114D01*
X0299580Y0169984D01*
X0299831Y0169848D01*
X0300079Y0169707D01*
X0300323Y0169559D01*
X0300564Y0169406D01*
X0300800Y0169246D01*
X0301033Y0169081D01*
X0301262Y0168911D01*
X0301487Y0168735D01*
X0301707Y0168553D01*
X0301923Y0168367D01*
X0302134Y0168175D01*
X0302341Y0167978D01*
X0302543Y0167776D01*
X0302740Y0167569D01*
X0302932Y0167358D01*
X0303118Y0167142D01*
X0303300Y0166922D01*
X0303476Y0166697D01*
X0303646Y0166468D01*
X0303811Y0166235D01*
X0303971Y0165999D01*
X0304124Y0165758D01*
X0304272Y0165514D01*
X0304413Y0165266D01*
X0304549Y0165015D01*
X0304679Y0164761D01*
X0304802Y0164503D01*
X0304919Y0164243D01*
X0305030Y0163980D01*
X0305134Y0163714D01*
X0305232Y0163446D01*
X0305324Y0163176D01*
X0305409Y0162903D01*
X0305487Y0162629D01*
X0305559Y0162353D01*
X0305624Y0162075D01*
X0305682Y0161795D01*
X0305733Y0161514D01*
X0305778Y0161233D01*
X0305816Y0160950D01*
X0305847Y0160666D01*
X0305871Y0160382D01*
X0305888Y0160097D01*
X0305899Y0159811D01*
X0305902Y0159526D01*
X0288185Y0159526D02*
X0288187Y0159679D01*
X0288193Y0159833D01*
X0288203Y0159986D01*
X0288217Y0160138D01*
X0288235Y0160291D01*
X0288257Y0160442D01*
X0288282Y0160593D01*
X0288312Y0160744D01*
X0288346Y0160894D01*
X0288383Y0161042D01*
X0288424Y0161190D01*
X0288469Y0161336D01*
X0288518Y0161482D01*
X0288571Y0161626D01*
X0288627Y0161768D01*
X0288687Y0161909D01*
X0288751Y0162049D01*
X0288818Y0162187D01*
X0288889Y0162323D01*
X0288964Y0162457D01*
X0289041Y0162589D01*
X0289123Y0162719D01*
X0289207Y0162847D01*
X0289295Y0162973D01*
X0289386Y0163096D01*
X0289480Y0163217D01*
X0289578Y0163335D01*
X0289678Y0163451D01*
X0289782Y0163564D01*
X0289888Y0163675D01*
X0289997Y0163783D01*
X0290109Y0163888D01*
X0290223Y0163989D01*
X0290341Y0164088D01*
X0290460Y0164184D01*
X0290582Y0164277D01*
X0290707Y0164366D01*
X0290834Y0164453D01*
X0290963Y0164535D01*
X0291094Y0164615D01*
X0291227Y0164691D01*
X0291362Y0164764D01*
X0291499Y0164833D01*
X0291638Y0164898D01*
X0291778Y0164960D01*
X0291920Y0165018D01*
X0292063Y0165073D01*
X0292208Y0165124D01*
X0292354Y0165171D01*
X0292501Y0165214D01*
X0292649Y0165253D01*
X0292798Y0165289D01*
X0292948Y0165320D01*
X0293099Y0165348D01*
X0293250Y0165372D01*
X0293403Y0165392D01*
X0293555Y0165408D01*
X0293708Y0165420D01*
X0293861Y0165428D01*
X0294014Y0165432D01*
X0294168Y0165432D01*
X0294321Y0165428D01*
X0294474Y0165420D01*
X0294627Y0165408D01*
X0294779Y0165392D01*
X0294932Y0165372D01*
X0295083Y0165348D01*
X0295234Y0165320D01*
X0295384Y0165289D01*
X0295533Y0165253D01*
X0295681Y0165214D01*
X0295828Y0165171D01*
X0295974Y0165124D01*
X0296119Y0165073D01*
X0296262Y0165018D01*
X0296404Y0164960D01*
X0296544Y0164898D01*
X0296683Y0164833D01*
X0296820Y0164764D01*
X0296955Y0164691D01*
X0297088Y0164615D01*
X0297219Y0164535D01*
X0297348Y0164453D01*
X0297475Y0164366D01*
X0297600Y0164277D01*
X0297722Y0164184D01*
X0297841Y0164088D01*
X0297959Y0163989D01*
X0298073Y0163888D01*
X0298185Y0163783D01*
X0298294Y0163675D01*
X0298400Y0163564D01*
X0298504Y0163451D01*
X0298604Y0163335D01*
X0298702Y0163217D01*
X0298796Y0163096D01*
X0298887Y0162973D01*
X0298975Y0162847D01*
X0299059Y0162719D01*
X0299141Y0162589D01*
X0299218Y0162457D01*
X0299293Y0162323D01*
X0299364Y0162187D01*
X0299431Y0162049D01*
X0299495Y0161909D01*
X0299555Y0161768D01*
X0299611Y0161626D01*
X0299664Y0161482D01*
X0299713Y0161336D01*
X0299758Y0161190D01*
X0299799Y0161042D01*
X0299836Y0160894D01*
X0299870Y0160744D01*
X0299900Y0160593D01*
X0299925Y0160442D01*
X0299947Y0160291D01*
X0299965Y0160138D01*
X0299979Y0159986D01*
X0299989Y0159833D01*
X0299995Y0159679D01*
X0299997Y0159526D01*
X0299995Y0159373D01*
X0299989Y0159219D01*
X0299979Y0159066D01*
X0299965Y0158914D01*
X0299947Y0158761D01*
X0299925Y0158610D01*
X0299900Y0158459D01*
X0299870Y0158308D01*
X0299836Y0158158D01*
X0299799Y0158010D01*
X0299758Y0157862D01*
X0299713Y0157716D01*
X0299664Y0157570D01*
X0299611Y0157426D01*
X0299555Y0157284D01*
X0299495Y0157143D01*
X0299431Y0157003D01*
X0299364Y0156865D01*
X0299293Y0156729D01*
X0299218Y0156595D01*
X0299141Y0156463D01*
X0299059Y0156333D01*
X0298975Y0156205D01*
X0298887Y0156079D01*
X0298796Y0155956D01*
X0298702Y0155835D01*
X0298604Y0155717D01*
X0298504Y0155601D01*
X0298400Y0155488D01*
X0298294Y0155377D01*
X0298185Y0155269D01*
X0298073Y0155164D01*
X0297959Y0155063D01*
X0297841Y0154964D01*
X0297722Y0154868D01*
X0297600Y0154775D01*
X0297475Y0154686D01*
X0297348Y0154599D01*
X0297219Y0154517D01*
X0297088Y0154437D01*
X0296955Y0154361D01*
X0296820Y0154288D01*
X0296683Y0154219D01*
X0296544Y0154154D01*
X0296404Y0154092D01*
X0296262Y0154034D01*
X0296119Y0153979D01*
X0295974Y0153928D01*
X0295828Y0153881D01*
X0295681Y0153838D01*
X0295533Y0153799D01*
X0295384Y0153763D01*
X0295234Y0153732D01*
X0295083Y0153704D01*
X0294932Y0153680D01*
X0294779Y0153660D01*
X0294627Y0153644D01*
X0294474Y0153632D01*
X0294321Y0153624D01*
X0294168Y0153620D01*
X0294014Y0153620D01*
X0293861Y0153624D01*
X0293708Y0153632D01*
X0293555Y0153644D01*
X0293403Y0153660D01*
X0293250Y0153680D01*
X0293099Y0153704D01*
X0292948Y0153732D01*
X0292798Y0153763D01*
X0292649Y0153799D01*
X0292501Y0153838D01*
X0292354Y0153881D01*
X0292208Y0153928D01*
X0292063Y0153979D01*
X0291920Y0154034D01*
X0291778Y0154092D01*
X0291638Y0154154D01*
X0291499Y0154219D01*
X0291362Y0154288D01*
X0291227Y0154361D01*
X0291094Y0154437D01*
X0290963Y0154517D01*
X0290834Y0154599D01*
X0290707Y0154686D01*
X0290582Y0154775D01*
X0290460Y0154868D01*
X0290341Y0154964D01*
X0290223Y0155063D01*
X0290109Y0155164D01*
X0289997Y0155269D01*
X0289888Y0155377D01*
X0289782Y0155488D01*
X0289678Y0155601D01*
X0289578Y0155717D01*
X0289480Y0155835D01*
X0289386Y0155956D01*
X0289295Y0156079D01*
X0289207Y0156205D01*
X0289123Y0156333D01*
X0289041Y0156463D01*
X0288964Y0156595D01*
X0288889Y0156729D01*
X0288818Y0156865D01*
X0288751Y0157003D01*
X0288687Y0157143D01*
X0288627Y0157284D01*
X0288571Y0157426D01*
X0288518Y0157570D01*
X0288469Y0157716D01*
X0288424Y0157862D01*
X0288383Y0158010D01*
X0288346Y0158158D01*
X0288312Y0158308D01*
X0288282Y0158459D01*
X0288257Y0158610D01*
X0288235Y0158761D01*
X0288217Y0158914D01*
X0288203Y0159066D01*
X0288193Y0159219D01*
X0288187Y0159373D01*
X0288185Y0159526D01*
X0294091Y0171337D02*
X0065745Y0171337D01*
X0065460Y0171334D01*
X0065174Y0171323D01*
X0064889Y0171306D01*
X0064605Y0171282D01*
X0064321Y0171251D01*
X0064038Y0171213D01*
X0063757Y0171168D01*
X0063476Y0171117D01*
X0063196Y0171059D01*
X0062918Y0170994D01*
X0062642Y0170922D01*
X0062368Y0170844D01*
X0062095Y0170759D01*
X0061825Y0170667D01*
X0061557Y0170569D01*
X0061291Y0170465D01*
X0061028Y0170354D01*
X0060768Y0170237D01*
X0060510Y0170114D01*
X0060256Y0169984D01*
X0060005Y0169848D01*
X0059757Y0169707D01*
X0059513Y0169559D01*
X0059272Y0169406D01*
X0059036Y0169246D01*
X0058803Y0169081D01*
X0058574Y0168911D01*
X0058349Y0168735D01*
X0058129Y0168553D01*
X0057913Y0168367D01*
X0057702Y0168175D01*
X0057495Y0167978D01*
X0057293Y0167776D01*
X0057096Y0167569D01*
X0056904Y0167358D01*
X0056718Y0167142D01*
X0056536Y0166922D01*
X0056360Y0166697D01*
X0056190Y0166468D01*
X0056025Y0166235D01*
X0055865Y0165999D01*
X0055712Y0165758D01*
X0055564Y0165514D01*
X0055423Y0165266D01*
X0055287Y0165015D01*
X0055157Y0164761D01*
X0055034Y0164503D01*
X0054917Y0164243D01*
X0054806Y0163980D01*
X0054702Y0163714D01*
X0054604Y0163446D01*
X0054512Y0163176D01*
X0054427Y0162903D01*
X0054349Y0162629D01*
X0054277Y0162353D01*
X0054212Y0162075D01*
X0054154Y0161795D01*
X0054103Y0161514D01*
X0054058Y0161233D01*
X0054020Y0160950D01*
X0053989Y0160666D01*
X0053965Y0160382D01*
X0053948Y0160097D01*
X0053937Y0159811D01*
X0053934Y0159526D01*
X0053934Y0072912D01*
X0053937Y0072627D01*
X0053948Y0072341D01*
X0053965Y0072056D01*
X0053989Y0071772D01*
X0054020Y0071488D01*
X0054058Y0071205D01*
X0054103Y0070924D01*
X0054154Y0070643D01*
X0054212Y0070363D01*
X0054277Y0070085D01*
X0054349Y0069809D01*
X0054427Y0069535D01*
X0054512Y0069262D01*
X0054604Y0068992D01*
X0054702Y0068724D01*
X0054806Y0068458D01*
X0054917Y0068195D01*
X0055034Y0067935D01*
X0055157Y0067677D01*
X0055287Y0067423D01*
X0055423Y0067172D01*
X0055564Y0066924D01*
X0055712Y0066680D01*
X0055865Y0066439D01*
X0056025Y0066203D01*
X0056190Y0065970D01*
X0056360Y0065741D01*
X0056536Y0065516D01*
X0056718Y0065296D01*
X0056904Y0065080D01*
X0057096Y0064869D01*
X0057293Y0064662D01*
X0057495Y0064460D01*
X0057702Y0064263D01*
X0057913Y0064071D01*
X0058129Y0063885D01*
X0058349Y0063703D01*
X0058574Y0063527D01*
X0058803Y0063357D01*
X0059036Y0063192D01*
X0059272Y0063032D01*
X0059513Y0062879D01*
X0059757Y0062731D01*
X0060005Y0062590D01*
X0060256Y0062454D01*
X0060510Y0062324D01*
X0060768Y0062201D01*
X0061028Y0062084D01*
X0061291Y0061973D01*
X0061557Y0061869D01*
X0061825Y0061771D01*
X0062095Y0061679D01*
X0062368Y0061594D01*
X0062642Y0061516D01*
X0062918Y0061444D01*
X0063196Y0061379D01*
X0063476Y0061321D01*
X0063757Y0061270D01*
X0064038Y0061225D01*
X0064321Y0061187D01*
X0064605Y0061156D01*
X0064889Y0061132D01*
X0065174Y0061115D01*
X0065460Y0061104D01*
X0065745Y0061101D01*
X0059839Y0072912D02*
X0059841Y0073065D01*
X0059847Y0073219D01*
X0059857Y0073372D01*
X0059871Y0073524D01*
X0059889Y0073677D01*
X0059911Y0073828D01*
X0059936Y0073979D01*
X0059966Y0074130D01*
X0060000Y0074280D01*
X0060037Y0074428D01*
X0060078Y0074576D01*
X0060123Y0074722D01*
X0060172Y0074868D01*
X0060225Y0075012D01*
X0060281Y0075154D01*
X0060341Y0075295D01*
X0060405Y0075435D01*
X0060472Y0075573D01*
X0060543Y0075709D01*
X0060618Y0075843D01*
X0060695Y0075975D01*
X0060777Y0076105D01*
X0060861Y0076233D01*
X0060949Y0076359D01*
X0061040Y0076482D01*
X0061134Y0076603D01*
X0061232Y0076721D01*
X0061332Y0076837D01*
X0061436Y0076950D01*
X0061542Y0077061D01*
X0061651Y0077169D01*
X0061763Y0077274D01*
X0061877Y0077375D01*
X0061995Y0077474D01*
X0062114Y0077570D01*
X0062236Y0077663D01*
X0062361Y0077752D01*
X0062488Y0077839D01*
X0062617Y0077921D01*
X0062748Y0078001D01*
X0062881Y0078077D01*
X0063016Y0078150D01*
X0063153Y0078219D01*
X0063292Y0078284D01*
X0063432Y0078346D01*
X0063574Y0078404D01*
X0063717Y0078459D01*
X0063862Y0078510D01*
X0064008Y0078557D01*
X0064155Y0078600D01*
X0064303Y0078639D01*
X0064452Y0078675D01*
X0064602Y0078706D01*
X0064753Y0078734D01*
X0064904Y0078758D01*
X0065057Y0078778D01*
X0065209Y0078794D01*
X0065362Y0078806D01*
X0065515Y0078814D01*
X0065668Y0078818D01*
X0065822Y0078818D01*
X0065975Y0078814D01*
X0066128Y0078806D01*
X0066281Y0078794D01*
X0066433Y0078778D01*
X0066586Y0078758D01*
X0066737Y0078734D01*
X0066888Y0078706D01*
X0067038Y0078675D01*
X0067187Y0078639D01*
X0067335Y0078600D01*
X0067482Y0078557D01*
X0067628Y0078510D01*
X0067773Y0078459D01*
X0067916Y0078404D01*
X0068058Y0078346D01*
X0068198Y0078284D01*
X0068337Y0078219D01*
X0068474Y0078150D01*
X0068609Y0078077D01*
X0068742Y0078001D01*
X0068873Y0077921D01*
X0069002Y0077839D01*
X0069129Y0077752D01*
X0069254Y0077663D01*
X0069376Y0077570D01*
X0069495Y0077474D01*
X0069613Y0077375D01*
X0069727Y0077274D01*
X0069839Y0077169D01*
X0069948Y0077061D01*
X0070054Y0076950D01*
X0070158Y0076837D01*
X0070258Y0076721D01*
X0070356Y0076603D01*
X0070450Y0076482D01*
X0070541Y0076359D01*
X0070629Y0076233D01*
X0070713Y0076105D01*
X0070795Y0075975D01*
X0070872Y0075843D01*
X0070947Y0075709D01*
X0071018Y0075573D01*
X0071085Y0075435D01*
X0071149Y0075295D01*
X0071209Y0075154D01*
X0071265Y0075012D01*
X0071318Y0074868D01*
X0071367Y0074722D01*
X0071412Y0074576D01*
X0071453Y0074428D01*
X0071490Y0074280D01*
X0071524Y0074130D01*
X0071554Y0073979D01*
X0071579Y0073828D01*
X0071601Y0073677D01*
X0071619Y0073524D01*
X0071633Y0073372D01*
X0071643Y0073219D01*
X0071649Y0073065D01*
X0071651Y0072912D01*
X0071649Y0072759D01*
X0071643Y0072605D01*
X0071633Y0072452D01*
X0071619Y0072300D01*
X0071601Y0072147D01*
X0071579Y0071996D01*
X0071554Y0071845D01*
X0071524Y0071694D01*
X0071490Y0071544D01*
X0071453Y0071396D01*
X0071412Y0071248D01*
X0071367Y0071102D01*
X0071318Y0070956D01*
X0071265Y0070812D01*
X0071209Y0070670D01*
X0071149Y0070529D01*
X0071085Y0070389D01*
X0071018Y0070251D01*
X0070947Y0070115D01*
X0070872Y0069981D01*
X0070795Y0069849D01*
X0070713Y0069719D01*
X0070629Y0069591D01*
X0070541Y0069465D01*
X0070450Y0069342D01*
X0070356Y0069221D01*
X0070258Y0069103D01*
X0070158Y0068987D01*
X0070054Y0068874D01*
X0069948Y0068763D01*
X0069839Y0068655D01*
X0069727Y0068550D01*
X0069613Y0068449D01*
X0069495Y0068350D01*
X0069376Y0068254D01*
X0069254Y0068161D01*
X0069129Y0068072D01*
X0069002Y0067985D01*
X0068873Y0067903D01*
X0068742Y0067823D01*
X0068609Y0067747D01*
X0068474Y0067674D01*
X0068337Y0067605D01*
X0068198Y0067540D01*
X0068058Y0067478D01*
X0067916Y0067420D01*
X0067773Y0067365D01*
X0067628Y0067314D01*
X0067482Y0067267D01*
X0067335Y0067224D01*
X0067187Y0067185D01*
X0067038Y0067149D01*
X0066888Y0067118D01*
X0066737Y0067090D01*
X0066586Y0067066D01*
X0066433Y0067046D01*
X0066281Y0067030D01*
X0066128Y0067018D01*
X0065975Y0067010D01*
X0065822Y0067006D01*
X0065668Y0067006D01*
X0065515Y0067010D01*
X0065362Y0067018D01*
X0065209Y0067030D01*
X0065057Y0067046D01*
X0064904Y0067066D01*
X0064753Y0067090D01*
X0064602Y0067118D01*
X0064452Y0067149D01*
X0064303Y0067185D01*
X0064155Y0067224D01*
X0064008Y0067267D01*
X0063862Y0067314D01*
X0063717Y0067365D01*
X0063574Y0067420D01*
X0063432Y0067478D01*
X0063292Y0067540D01*
X0063153Y0067605D01*
X0063016Y0067674D01*
X0062881Y0067747D01*
X0062748Y0067823D01*
X0062617Y0067903D01*
X0062488Y0067985D01*
X0062361Y0068072D01*
X0062236Y0068161D01*
X0062114Y0068254D01*
X0061995Y0068350D01*
X0061877Y0068449D01*
X0061763Y0068550D01*
X0061651Y0068655D01*
X0061542Y0068763D01*
X0061436Y0068874D01*
X0061332Y0068987D01*
X0061232Y0069103D01*
X0061134Y0069221D01*
X0061040Y0069342D01*
X0060949Y0069465D01*
X0060861Y0069591D01*
X0060777Y0069719D01*
X0060695Y0069849D01*
X0060618Y0069981D01*
X0060543Y0070115D01*
X0060472Y0070251D01*
X0060405Y0070389D01*
X0060341Y0070529D01*
X0060281Y0070670D01*
X0060225Y0070812D01*
X0060172Y0070956D01*
X0060123Y0071102D01*
X0060078Y0071248D01*
X0060037Y0071396D01*
X0060000Y0071544D01*
X0059966Y0071694D01*
X0059936Y0071845D01*
X0059911Y0071996D01*
X0059889Y0072147D01*
X0059871Y0072300D01*
X0059857Y0072452D01*
X0059847Y0072605D01*
X0059841Y0072759D01*
X0059839Y0072912D01*
X0059839Y0159526D02*
X0059841Y0159679D01*
X0059847Y0159833D01*
X0059857Y0159986D01*
X0059871Y0160138D01*
X0059889Y0160291D01*
X0059911Y0160442D01*
X0059936Y0160593D01*
X0059966Y0160744D01*
X0060000Y0160894D01*
X0060037Y0161042D01*
X0060078Y0161190D01*
X0060123Y0161336D01*
X0060172Y0161482D01*
X0060225Y0161626D01*
X0060281Y0161768D01*
X0060341Y0161909D01*
X0060405Y0162049D01*
X0060472Y0162187D01*
X0060543Y0162323D01*
X0060618Y0162457D01*
X0060695Y0162589D01*
X0060777Y0162719D01*
X0060861Y0162847D01*
X0060949Y0162973D01*
X0061040Y0163096D01*
X0061134Y0163217D01*
X0061232Y0163335D01*
X0061332Y0163451D01*
X0061436Y0163564D01*
X0061542Y0163675D01*
X0061651Y0163783D01*
X0061763Y0163888D01*
X0061877Y0163989D01*
X0061995Y0164088D01*
X0062114Y0164184D01*
X0062236Y0164277D01*
X0062361Y0164366D01*
X0062488Y0164453D01*
X0062617Y0164535D01*
X0062748Y0164615D01*
X0062881Y0164691D01*
X0063016Y0164764D01*
X0063153Y0164833D01*
X0063292Y0164898D01*
X0063432Y0164960D01*
X0063574Y0165018D01*
X0063717Y0165073D01*
X0063862Y0165124D01*
X0064008Y0165171D01*
X0064155Y0165214D01*
X0064303Y0165253D01*
X0064452Y0165289D01*
X0064602Y0165320D01*
X0064753Y0165348D01*
X0064904Y0165372D01*
X0065057Y0165392D01*
X0065209Y0165408D01*
X0065362Y0165420D01*
X0065515Y0165428D01*
X0065668Y0165432D01*
X0065822Y0165432D01*
X0065975Y0165428D01*
X0066128Y0165420D01*
X0066281Y0165408D01*
X0066433Y0165392D01*
X0066586Y0165372D01*
X0066737Y0165348D01*
X0066888Y0165320D01*
X0067038Y0165289D01*
X0067187Y0165253D01*
X0067335Y0165214D01*
X0067482Y0165171D01*
X0067628Y0165124D01*
X0067773Y0165073D01*
X0067916Y0165018D01*
X0068058Y0164960D01*
X0068198Y0164898D01*
X0068337Y0164833D01*
X0068474Y0164764D01*
X0068609Y0164691D01*
X0068742Y0164615D01*
X0068873Y0164535D01*
X0069002Y0164453D01*
X0069129Y0164366D01*
X0069254Y0164277D01*
X0069376Y0164184D01*
X0069495Y0164088D01*
X0069613Y0163989D01*
X0069727Y0163888D01*
X0069839Y0163783D01*
X0069948Y0163675D01*
X0070054Y0163564D01*
X0070158Y0163451D01*
X0070258Y0163335D01*
X0070356Y0163217D01*
X0070450Y0163096D01*
X0070541Y0162973D01*
X0070629Y0162847D01*
X0070713Y0162719D01*
X0070795Y0162589D01*
X0070872Y0162457D01*
X0070947Y0162323D01*
X0071018Y0162187D01*
X0071085Y0162049D01*
X0071149Y0161909D01*
X0071209Y0161768D01*
X0071265Y0161626D01*
X0071318Y0161482D01*
X0071367Y0161336D01*
X0071412Y0161190D01*
X0071453Y0161042D01*
X0071490Y0160894D01*
X0071524Y0160744D01*
X0071554Y0160593D01*
X0071579Y0160442D01*
X0071601Y0160291D01*
X0071619Y0160138D01*
X0071633Y0159986D01*
X0071643Y0159833D01*
X0071649Y0159679D01*
X0071651Y0159526D01*
X0071649Y0159373D01*
X0071643Y0159219D01*
X0071633Y0159066D01*
X0071619Y0158914D01*
X0071601Y0158761D01*
X0071579Y0158610D01*
X0071554Y0158459D01*
X0071524Y0158308D01*
X0071490Y0158158D01*
X0071453Y0158010D01*
X0071412Y0157862D01*
X0071367Y0157716D01*
X0071318Y0157570D01*
X0071265Y0157426D01*
X0071209Y0157284D01*
X0071149Y0157143D01*
X0071085Y0157003D01*
X0071018Y0156865D01*
X0070947Y0156729D01*
X0070872Y0156595D01*
X0070795Y0156463D01*
X0070713Y0156333D01*
X0070629Y0156205D01*
X0070541Y0156079D01*
X0070450Y0155956D01*
X0070356Y0155835D01*
X0070258Y0155717D01*
X0070158Y0155601D01*
X0070054Y0155488D01*
X0069948Y0155377D01*
X0069839Y0155269D01*
X0069727Y0155164D01*
X0069613Y0155063D01*
X0069495Y0154964D01*
X0069376Y0154868D01*
X0069254Y0154775D01*
X0069129Y0154686D01*
X0069002Y0154599D01*
X0068873Y0154517D01*
X0068742Y0154437D01*
X0068609Y0154361D01*
X0068474Y0154288D01*
X0068337Y0154219D01*
X0068198Y0154154D01*
X0068058Y0154092D01*
X0067916Y0154034D01*
X0067773Y0153979D01*
X0067628Y0153928D01*
X0067482Y0153881D01*
X0067335Y0153838D01*
X0067187Y0153799D01*
X0067038Y0153763D01*
X0066888Y0153732D01*
X0066737Y0153704D01*
X0066586Y0153680D01*
X0066433Y0153660D01*
X0066281Y0153644D01*
X0066128Y0153632D01*
X0065975Y0153624D01*
X0065822Y0153620D01*
X0065668Y0153620D01*
X0065515Y0153624D01*
X0065362Y0153632D01*
X0065209Y0153644D01*
X0065057Y0153660D01*
X0064904Y0153680D01*
X0064753Y0153704D01*
X0064602Y0153732D01*
X0064452Y0153763D01*
X0064303Y0153799D01*
X0064155Y0153838D01*
X0064008Y0153881D01*
X0063862Y0153928D01*
X0063717Y0153979D01*
X0063574Y0154034D01*
X0063432Y0154092D01*
X0063292Y0154154D01*
X0063153Y0154219D01*
X0063016Y0154288D01*
X0062881Y0154361D01*
X0062748Y0154437D01*
X0062617Y0154517D01*
X0062488Y0154599D01*
X0062361Y0154686D01*
X0062236Y0154775D01*
X0062114Y0154868D01*
X0061995Y0154964D01*
X0061877Y0155063D01*
X0061763Y0155164D01*
X0061651Y0155269D01*
X0061542Y0155377D01*
X0061436Y0155488D01*
X0061332Y0155601D01*
X0061232Y0155717D01*
X0061134Y0155835D01*
X0061040Y0155956D01*
X0060949Y0156079D01*
X0060861Y0156205D01*
X0060777Y0156333D01*
X0060695Y0156463D01*
X0060618Y0156595D01*
X0060543Y0156729D01*
X0060472Y0156865D01*
X0060405Y0157003D01*
X0060341Y0157143D01*
X0060281Y0157284D01*
X0060225Y0157426D01*
X0060172Y0157570D01*
X0060123Y0157716D01*
X0060078Y0157862D01*
X0060037Y0158010D01*
X0060000Y0158158D01*
X0059966Y0158308D01*
X0059936Y0158459D01*
X0059911Y0158610D01*
X0059889Y0158761D01*
X0059871Y0158914D01*
X0059857Y0159066D01*
X0059847Y0159219D01*
X0059841Y0159373D01*
X0059839Y0159526D01*
D11*
X0132674Y0137676D03*
X0132674Y0130196D03*
X0148422Y0096337D03*
X0158264Y0096337D03*
X0158264Y0088857D03*
X0148422Y0088857D03*
X0109052Y0080589D03*
X0109052Y0073109D03*
X0266532Y0080983D03*
X0266532Y0088463D03*
X0266532Y0100668D03*
X0266532Y0108148D03*
X0266532Y0120353D03*
X0266532Y0127834D03*
X0266532Y0140038D03*
X0266532Y0147519D03*
D12*
X0185627Y0141810D03*
X0178146Y0141810D03*
X0169879Y0141810D03*
X0162398Y0141810D03*
X0163973Y0161495D03*
X0156493Y0161495D03*
X0144288Y0161495D03*
X0136808Y0161495D03*
X0099012Y0138857D03*
X0091532Y0138857D03*
D13*
X0099209Y0125471D03*
X0099209Y0106967D03*
D14*
X0090115Y0076495D03*
X0082241Y0076495D03*
X0081493Y0154605D03*
X0089367Y0154605D03*
D15*
X0139406Y0150668D03*
X0159406Y0150668D03*
D16*
X0080312Y0130589D03*
X0070863Y0130589D03*
X0080705Y0122519D03*
X0080705Y0116219D03*
X0080705Y0109920D03*
X0080312Y0101849D03*
X0070863Y0101849D03*
X0070469Y0113070D03*
X0070469Y0119369D03*
D17*
X0148459Y0125588D03*
X0150359Y0125588D03*
X0152359Y0125588D03*
X0154359Y0125588D03*
X0156259Y0125588D03*
X0156259Y0110788D03*
X0154359Y0110788D03*
X0152359Y0110788D03*
X0150359Y0110788D03*
X0148459Y0110788D03*
D18*
X0144959Y0114288D03*
X0144959Y0116188D03*
X0144959Y0118188D03*
X0144959Y0120188D03*
X0144959Y0122088D03*
X0159759Y0122088D03*
X0159759Y0120188D03*
X0159759Y0118188D03*
X0159759Y0116188D03*
X0159759Y0114288D03*
D19*
X0152359Y0118188D03*
D20*
X0154327Y0120156D03*
X0150390Y0120156D03*
X0150390Y0116219D03*
X0154327Y0116219D03*
D21*
X0288186Y0118030D03*
X0288186Y0110156D03*
X0288186Y0100314D03*
X0288186Y0127873D03*
D22*
X0118894Y0111219D03*
D23*
X0118894Y0121219D03*
D24*
X0201965Y0112282D03*
X0240548Y0112282D03*
D25*
X0117910Y0132952D03*
X0108068Y0132952D03*
D26*
X0212595Y0145747D03*
X0229918Y0145747D03*
D27*
X0194319Y0122487D03*
X0181886Y0118188D03*
X0177949Y0122125D03*
X0174012Y0126062D03*
X0166138Y0114251D03*
X0162201Y0108345D03*
X0140548Y0118188D03*
X0136808Y0123030D03*
X0132674Y0122125D03*
X0153343Y0132558D03*
X0189760Y0163463D03*
X0279327Y0120156D03*
X0280312Y0110314D03*
X0221257Y0082755D03*
X0189760Y0068975D03*
D28*
X0305902Y0061101D02*
X0053934Y0061101D01*
X0305902Y0061101D01*
X0305902Y0171337D01*
X0053934Y0171337D01*
X0053934Y0061101D01*
X0053934Y0062100D02*
X0305902Y0062100D01*
X0305902Y0063098D02*
X0053934Y0063098D01*
X0053934Y0064097D02*
X0305902Y0064097D01*
X0305902Y0065095D02*
X0053934Y0065095D01*
X0053934Y0066094D02*
X0305902Y0066094D01*
X0305902Y0067092D02*
X0296779Y0067092D01*
X0297720Y0067482D02*
X0299522Y0069284D01*
X0300497Y0071638D01*
X0300497Y0074186D01*
X0299522Y0076541D01*
X0297720Y0078343D01*
X0295365Y0079318D01*
X0292817Y0079318D01*
X0290463Y0078343D01*
X0288661Y0076541D01*
X0287686Y0074186D01*
X0287686Y0071638D01*
X0288661Y0069284D01*
X0290463Y0067482D01*
X0292817Y0066507D01*
X0295365Y0066507D01*
X0297720Y0067482D01*
X0298329Y0068091D02*
X0305902Y0068091D01*
X0305902Y0069089D02*
X0299327Y0069089D01*
X0299855Y0070088D02*
X0305902Y0070088D01*
X0305902Y0071086D02*
X0300268Y0071086D01*
X0300497Y0072085D02*
X0305902Y0072085D01*
X0305902Y0073083D02*
X0300497Y0073083D01*
X0300497Y0074082D02*
X0305902Y0074082D01*
X0305902Y0075080D02*
X0300126Y0075080D01*
X0299713Y0076079D02*
X0305902Y0076079D01*
X0305902Y0077077D02*
X0298985Y0077077D01*
X0297986Y0078076D02*
X0305902Y0078076D01*
X0305902Y0079074D02*
X0295953Y0079074D01*
X0292230Y0079074D02*
X0270985Y0079074D01*
X0270985Y0078227D02*
X0270985Y0080483D01*
X0267032Y0080483D01*
X0267032Y0076924D01*
X0269682Y0076924D01*
X0270064Y0077026D01*
X0270406Y0077224D01*
X0270685Y0077503D01*
X0270883Y0077845D01*
X0270985Y0078227D01*
X0270945Y0078076D02*
X0290196Y0078076D01*
X0289198Y0077077D02*
X0270152Y0077077D01*
X0267032Y0077077D02*
X0266032Y0077077D01*
X0266032Y0076924D02*
X0266032Y0080483D01*
X0267032Y0080483D01*
X0267032Y0081483D01*
X0270985Y0081483D01*
X0270985Y0083740D01*
X0270883Y0084121D01*
X0270685Y0084463D01*
X0270414Y0084734D01*
X0270969Y0085290D01*
X0270969Y0091637D01*
X0270100Y0092507D01*
X0268509Y0092507D01*
X0268509Y0096625D01*
X0270100Y0096625D01*
X0270969Y0097494D01*
X0270969Y0098692D01*
X0279516Y0098692D01*
X0286992Y0106168D01*
X0287362Y0106015D01*
X0289010Y0106015D01*
X0290532Y0106645D01*
X0291697Y0107810D01*
X0292327Y0109333D01*
X0292327Y0110980D01*
X0291697Y0112502D01*
X0290532Y0113668D01*
X0289504Y0114093D01*
X0290532Y0114519D01*
X0291697Y0115684D01*
X0292327Y0117207D01*
X0292327Y0118854D01*
X0291697Y0120376D01*
X0290532Y0121542D01*
X0289010Y0122172D01*
X0287362Y0122172D01*
X0286992Y0122019D01*
X0280359Y0128652D01*
X0280359Y0128652D01*
X0279201Y0129810D01*
X0270969Y0129810D01*
X0270969Y0131007D01*
X0270100Y0131877D01*
X0268509Y0131877D01*
X0268509Y0135995D01*
X0270100Y0135995D01*
X0270969Y0136864D01*
X0270969Y0143212D01*
X0270414Y0143767D01*
X0270685Y0144038D01*
X0270883Y0144381D01*
X0270985Y0144762D01*
X0270985Y0147019D01*
X0267032Y0147019D01*
X0267032Y0148019D01*
X0266032Y0148019D01*
X0266032Y0151578D01*
X0263382Y0151578D01*
X0263000Y0151475D01*
X0262658Y0151278D01*
X0262379Y0150999D01*
X0262182Y0150657D01*
X0262079Y0150275D01*
X0262079Y0148019D01*
X0266032Y0148019D01*
X0266032Y0147019D01*
X0262079Y0147019D01*
X0262079Y0144762D01*
X0262182Y0144381D01*
X0262379Y0144038D01*
X0262650Y0143767D01*
X0262095Y0143212D01*
X0262095Y0136864D01*
X0262965Y0135995D01*
X0264556Y0135995D01*
X0264556Y0131877D01*
X0262965Y0131877D01*
X0262095Y0131007D01*
X0262095Y0124660D01*
X0262661Y0124093D01*
X0262095Y0123527D01*
X0262095Y0117179D01*
X0262901Y0116373D01*
X0262274Y0116373D01*
X0257386Y0121260D01*
X0257386Y0148246D01*
X0256981Y0149225D01*
X0244204Y0162002D01*
X0243224Y0162408D01*
X0192012Y0162408D01*
X0192149Y0162739D01*
X0192245Y0163219D01*
X0192245Y0163463D01*
X0189761Y0163463D01*
X0189761Y0163463D01*
X0192245Y0163463D01*
X0192245Y0163708D01*
X0192149Y0164188D01*
X0191962Y0164640D01*
X0191690Y0165047D01*
X0191344Y0165393D01*
X0190937Y0165665D01*
X0190485Y0165852D01*
X0190005Y0165948D01*
X0189761Y0165948D01*
X0189761Y0163464D01*
X0189760Y0163464D01*
X0189760Y0165948D01*
X0189516Y0165948D01*
X0189036Y0165852D01*
X0188584Y0165665D01*
X0188177Y0165393D01*
X0187831Y0165047D01*
X0187559Y0164640D01*
X0187372Y0164188D01*
X0187276Y0163708D01*
X0187276Y0163463D01*
X0187276Y0163219D01*
X0187372Y0162739D01*
X0187509Y0162408D01*
X0185175Y0162408D01*
X0183829Y0163755D01*
X0182849Y0164160D01*
X0168016Y0164160D01*
X0168016Y0165062D01*
X0167147Y0165932D01*
X0160799Y0165932D01*
X0160233Y0165366D01*
X0159667Y0165932D01*
X0153319Y0165932D01*
X0152449Y0165062D01*
X0152449Y0163570D01*
X0148331Y0163570D01*
X0148331Y0165062D01*
X0147462Y0165932D01*
X0141114Y0165932D01*
X0140559Y0165377D01*
X0140288Y0165648D01*
X0139946Y0165845D01*
X0139564Y0165948D01*
X0137308Y0165948D01*
X0137308Y0161995D01*
X0136308Y0161995D01*
X0136308Y0165948D01*
X0134051Y0165948D01*
X0133670Y0165845D01*
X0133328Y0165648D01*
X0133048Y0165369D01*
X0132851Y0165027D01*
X0132749Y0164645D01*
X0132749Y0161995D01*
X0136308Y0161995D01*
X0136308Y0160995D01*
X0137308Y0160995D01*
X0137308Y0157042D01*
X0139564Y0157042D01*
X0139946Y0157144D01*
X0140288Y0157342D01*
X0140559Y0157613D01*
X0141114Y0157058D01*
X0147462Y0157058D01*
X0148284Y0157880D01*
X0148284Y0128647D01*
X0147254Y0128647D01*
X0146466Y0127860D01*
X0141871Y0132455D01*
X0140891Y0132861D01*
X0137111Y0132861D01*
X0137111Y0133370D01*
X0136556Y0133925D01*
X0136827Y0134196D01*
X0137024Y0134538D01*
X0137127Y0134920D01*
X0137127Y0137176D01*
X0133174Y0137176D01*
X0133174Y0138176D01*
X0137127Y0138176D01*
X0137127Y0140433D01*
X0137024Y0140814D01*
X0136827Y0141156D01*
X0136548Y0141435D01*
X0136206Y0141633D01*
X0135824Y0141735D01*
X0133174Y0141735D01*
X0133174Y0138176D01*
X0132174Y0138176D01*
X0132174Y0141735D01*
X0129524Y0141735D01*
X0129142Y0141633D01*
X0128800Y0141435D01*
X0128521Y0141156D01*
X0128323Y0140814D01*
X0128221Y0140433D01*
X0128221Y0138176D01*
X0132174Y0138176D01*
X0132174Y0137176D01*
X0128221Y0137176D01*
X0128221Y0134920D01*
X0128323Y0134538D01*
X0128521Y0134196D01*
X0128792Y0133925D01*
X0128237Y0133370D01*
X0128237Y0127022D01*
X0129106Y0126152D01*
X0130599Y0126152D01*
X0130599Y0123541D01*
X0130581Y0123523D01*
X0130456Y0123222D01*
X0130200Y0123479D01*
X0129220Y0123885D01*
X0122712Y0123885D01*
X0121491Y0125106D01*
X0120575Y0125485D01*
X0120575Y0130762D01*
X0120969Y0131156D01*
X0120969Y0134748D01*
X0120100Y0135617D01*
X0103056Y0135617D01*
X0103056Y0142425D01*
X0102186Y0143294D01*
X0095839Y0143294D01*
X0095283Y0142739D01*
X0095012Y0143010D01*
X0094670Y0143208D01*
X0094289Y0143310D01*
X0092032Y0143310D01*
X0092032Y0139357D01*
X0091032Y0139357D01*
X0091032Y0138357D01*
X0092032Y0138357D01*
X0092032Y0134404D01*
X0094289Y0134404D01*
X0094670Y0134507D01*
X0095012Y0134704D01*
X0095283Y0134975D01*
X0095839Y0134420D01*
X0096347Y0134420D01*
X0096347Y0130105D01*
X0087374Y0130105D01*
X0086505Y0129236D01*
X0086505Y0121707D01*
X0087374Y0120837D01*
X0111045Y0120837D01*
X0111914Y0121707D01*
X0111914Y0129236D01*
X0111045Y0130105D01*
X0101678Y0130105D01*
X0101678Y0130286D01*
X0115245Y0130286D01*
X0115245Y0124053D01*
X0115008Y0123816D01*
X0114310Y0122131D01*
X0114310Y0120307D01*
X0115008Y0118623D01*
X0116298Y0117333D01*
X0117982Y0116635D01*
X0119806Y0116635D01*
X0121491Y0117333D01*
X0122712Y0118554D01*
X0127586Y0118554D01*
X0128982Y0117158D01*
X0129732Y0116408D01*
X0130712Y0116002D01*
X0138473Y0116002D01*
X0138473Y0115360D01*
X0138505Y0115328D01*
X0139720Y0114113D01*
X0141900Y0114113D01*
X0141900Y0113083D01*
X0142692Y0112290D01*
X0113656Y0083255D01*
X0113489Y0083255D01*
X0113489Y0083763D01*
X0112619Y0084633D01*
X0105484Y0084633D01*
X0104615Y0083763D01*
X0104615Y0083255D01*
X0093679Y0083255D01*
X0092700Y0082849D01*
X0091130Y0081279D01*
X0088133Y0081279D01*
X0086189Y0079335D01*
X0084229Y0081295D01*
X0082541Y0081295D01*
X0082541Y0076795D01*
X0081941Y0076795D01*
X0081941Y0081295D01*
X0080253Y0081295D01*
X0077441Y0078483D01*
X0077441Y0076795D01*
X0081941Y0076795D01*
X0081941Y0076195D01*
X0082541Y0076195D01*
X0082541Y0071695D01*
X0084229Y0071695D01*
X0086189Y0073655D01*
X0088133Y0071711D01*
X0092097Y0071711D01*
X0094899Y0074513D01*
X0094899Y0077510D01*
X0095313Y0077924D01*
X0104615Y0077924D01*
X0104615Y0077416D01*
X0105170Y0076860D01*
X0104899Y0076589D01*
X0104701Y0076247D01*
X0104599Y0075866D01*
X0104599Y0073609D01*
X0108552Y0073609D01*
X0108552Y0072609D01*
X0109552Y0072609D01*
X0109552Y0073609D01*
X0113505Y0073609D01*
X0113505Y0075866D01*
X0113402Y0076247D01*
X0113205Y0076589D01*
X0112934Y0076860D01*
X0113489Y0077416D01*
X0113489Y0077924D01*
X0115291Y0077924D01*
X0116270Y0078330D01*
X0146347Y0108407D01*
X0146347Y0106502D01*
X0147562Y0105286D01*
X0150284Y0105286D01*
X0150284Y0105268D01*
X0147562Y0102546D01*
X0146347Y0101331D01*
X0146347Y0100381D01*
X0144854Y0100381D01*
X0143985Y0099511D01*
X0143985Y0093164D01*
X0144540Y0092608D01*
X0144269Y0092337D01*
X0144071Y0091995D01*
X0143969Y0091614D01*
X0143969Y0089357D01*
X0147922Y0089357D01*
X0147922Y0088357D01*
X0148922Y0088357D01*
X0148922Y0084798D01*
X0151572Y0084798D01*
X0151954Y0084900D01*
X0152296Y0085098D01*
X0152575Y0085377D01*
X0152772Y0085719D01*
X0152875Y0086101D01*
X0152875Y0088357D01*
X0148922Y0088357D01*
X0148922Y0089357D01*
X0152875Y0089357D01*
X0152875Y0091614D01*
X0152772Y0091995D01*
X0152575Y0092337D01*
X0152304Y0092608D01*
X0152859Y0093164D01*
X0152859Y0099511D01*
X0151989Y0100381D01*
X0151266Y0100381D01*
X0153343Y0102458D01*
X0155421Y0100381D01*
X0154697Y0100381D01*
X0153827Y0099511D01*
X0153827Y0093164D01*
X0154383Y0092608D01*
X0154111Y0092337D01*
X0153914Y0091995D01*
X0153812Y0091614D01*
X0153812Y0089357D01*
X0157764Y0089357D01*
X0157764Y0088357D01*
X0153812Y0088357D01*
X0153812Y0086101D01*
X0153914Y0085719D01*
X0154111Y0085377D01*
X0154391Y0085098D01*
X0154733Y0084900D01*
X0155114Y0084798D01*
X0157764Y0084798D01*
X0157764Y0088357D01*
X0158764Y0088357D01*
X0158764Y0084798D01*
X0161415Y0084798D01*
X0161796Y0084900D01*
X0162138Y0085098D01*
X0162417Y0085377D01*
X0162615Y0085719D01*
X0162717Y0086101D01*
X0162717Y0088357D01*
X0158764Y0088357D01*
X0158764Y0089357D01*
X0162717Y0089357D01*
X0162717Y0091614D01*
X0162615Y0091995D01*
X0162417Y0092337D01*
X0162146Y0092608D01*
X0162701Y0093164D01*
X0162701Y0099511D01*
X0161832Y0100381D01*
X0160339Y0100381D01*
X0160339Y0101331D01*
X0159124Y0102546D01*
X0156434Y0105236D01*
X0156434Y0107713D01*
X0157047Y0107713D01*
X0157428Y0107815D01*
X0157770Y0108013D01*
X0158050Y0108292D01*
X0158247Y0108634D01*
X0158349Y0109016D01*
X0158349Y0110788D01*
X0158349Y0112197D01*
X0159759Y0112197D01*
X0161531Y0112197D01*
X0161913Y0112300D01*
X0162255Y0112497D01*
X0162534Y0112776D01*
X0162731Y0113118D01*
X0162834Y0113500D01*
X0162834Y0114113D01*
X0163342Y0114113D01*
X0163670Y0113785D01*
X0163670Y0113760D01*
X0164046Y0112853D01*
X0164740Y0112158D01*
X0165647Y0111782D01*
X0166629Y0111782D01*
X0167537Y0112158D01*
X0168231Y0112853D01*
X0168607Y0113760D01*
X0168607Y0114742D01*
X0168231Y0115649D01*
X0167767Y0116113D01*
X0180470Y0116113D01*
X0180488Y0116095D01*
X0181395Y0115719D01*
X0182377Y0115719D01*
X0183285Y0116095D01*
X0183979Y0116790D01*
X0184355Y0117697D01*
X0184355Y0118679D01*
X0183979Y0119586D01*
X0183285Y0120281D01*
X0182377Y0120656D01*
X0181395Y0120656D01*
X0180488Y0120281D01*
X0180470Y0120263D01*
X0179578Y0120263D01*
X0180042Y0120727D01*
X0180418Y0121634D01*
X0180418Y0122616D01*
X0180042Y0123523D01*
X0179348Y0124218D01*
X0178440Y0124593D01*
X0177458Y0124593D01*
X0176551Y0124218D01*
X0175857Y0123523D01*
X0175481Y0122616D01*
X0175481Y0122591D01*
X0175153Y0122263D01*
X0173147Y0122263D01*
X0174478Y0123593D01*
X0174503Y0123593D01*
X0175411Y0123969D01*
X0176105Y0124664D01*
X0176481Y0125571D01*
X0176481Y0126553D01*
X0176105Y0127460D01*
X0175411Y0128155D01*
X0174503Y0128530D01*
X0173521Y0128530D01*
X0172614Y0128155D01*
X0171920Y0127460D01*
X0171544Y0126553D01*
X0171544Y0126528D01*
X0169179Y0124163D01*
X0158348Y0124163D01*
X0158334Y0124177D01*
X0158334Y0138945D01*
X0158355Y0138966D01*
X0158355Y0138242D01*
X0159224Y0137373D01*
X0165572Y0137373D01*
X0166138Y0137939D01*
X0166705Y0137373D01*
X0173052Y0137373D01*
X0173922Y0138242D01*
X0173922Y0139735D01*
X0174103Y0139735D01*
X0174103Y0138242D01*
X0174972Y0137373D01*
X0181320Y0137373D01*
X0181875Y0137928D01*
X0182147Y0137657D01*
X0182489Y0137459D01*
X0182870Y0137357D01*
X0185127Y0137357D01*
X0185127Y0141310D01*
X0186127Y0141310D01*
X0186127Y0142310D01*
X0189686Y0142310D01*
X0189686Y0144960D01*
X0189583Y0145342D01*
X0189386Y0145684D01*
X0189107Y0145963D01*
X0188765Y0146160D01*
X0188383Y0146263D01*
X0186127Y0146263D01*
X0186127Y0142310D01*
X0185127Y0142310D01*
X0185127Y0146263D01*
X0182870Y0146263D01*
X0182489Y0146160D01*
X0182147Y0145963D01*
X0181875Y0145692D01*
X0181320Y0146247D01*
X0174972Y0146247D01*
X0174103Y0145377D01*
X0174103Y0143885D01*
X0173922Y0143885D01*
X0173922Y0145377D01*
X0173052Y0146247D01*
X0171855Y0146247D01*
X0171855Y0148731D01*
X0167941Y0152645D01*
X0162923Y0152645D01*
X0161015Y0154552D01*
X0157797Y0154552D01*
X0155522Y0152277D01*
X0155522Y0149059D01*
X0157797Y0146784D01*
X0161015Y0146784D01*
X0162923Y0148692D01*
X0166304Y0148692D01*
X0167902Y0147094D01*
X0167902Y0146247D01*
X0166705Y0146247D01*
X0166138Y0145681D01*
X0165572Y0146247D01*
X0159224Y0146247D01*
X0158355Y0145377D01*
X0158355Y0143885D01*
X0157405Y0143885D01*
X0156190Y0142669D01*
X0154184Y0140664D01*
X0154184Y0134881D01*
X0153834Y0135026D01*
X0152852Y0135026D01*
X0152434Y0134853D01*
X0152434Y0159420D01*
X0152449Y0159420D01*
X0152449Y0157927D01*
X0153319Y0157058D01*
X0159667Y0157058D01*
X0160233Y0157624D01*
X0160799Y0157058D01*
X0167147Y0157058D01*
X0168016Y0157927D01*
X0168016Y0158830D01*
X0181215Y0158830D01*
X0181812Y0158233D01*
X0182561Y0157483D01*
X0183541Y0157077D01*
X0209930Y0157077D01*
X0209930Y0152724D01*
X0209795Y0152399D01*
X0209795Y0151956D01*
X0207256Y0151956D01*
X0206386Y0151086D01*
X0206386Y0140408D01*
X0207256Y0139538D01*
X0217934Y0139538D01*
X0218804Y0140408D01*
X0218804Y0151086D01*
X0217934Y0151956D01*
X0215260Y0151956D01*
X0215260Y0157077D01*
X0241590Y0157077D01*
X0252056Y0146611D01*
X0252056Y0119626D01*
X0252462Y0118647D01*
X0253211Y0117897D01*
X0253211Y0117897D01*
X0259660Y0111448D01*
X0260639Y0111043D01*
X0262095Y0111043D01*
X0262095Y0104975D01*
X0262661Y0104408D01*
X0262095Y0103842D01*
X0262095Y0097494D01*
X0262965Y0096625D01*
X0264556Y0096625D01*
X0264556Y0092507D01*
X0262965Y0092507D01*
X0262095Y0091637D01*
X0262095Y0085290D01*
X0262650Y0084734D01*
X0262379Y0084463D01*
X0262182Y0084121D01*
X0262079Y0083740D01*
X0262079Y0081483D01*
X0266032Y0081483D01*
X0266032Y0080483D01*
X0262079Y0080483D01*
X0262079Y0078227D01*
X0262182Y0077845D01*
X0262379Y0077503D01*
X0262658Y0077224D01*
X0263000Y0077026D01*
X0263382Y0076924D01*
X0266032Y0076924D01*
X0266032Y0078076D02*
X0267032Y0078076D01*
X0267032Y0079074D02*
X0266032Y0079074D01*
X0266032Y0080073D02*
X0267032Y0080073D01*
X0267032Y0081071D02*
X0305902Y0081071D01*
X0305902Y0080073D02*
X0270985Y0080073D01*
X0270985Y0082070D02*
X0305902Y0082070D01*
X0305902Y0083068D02*
X0270985Y0083068D01*
X0270897Y0084067D02*
X0275521Y0084067D01*
X0275102Y0084241D02*
X0276949Y0083475D01*
X0278950Y0083475D01*
X0280797Y0084241D01*
X0282212Y0085655D01*
X0282977Y0087503D01*
X0282977Y0089503D01*
X0282212Y0091351D01*
X0280797Y0092765D01*
X0278950Y0093530D01*
X0276949Y0093530D01*
X0275102Y0092765D01*
X0273687Y0091351D01*
X0272922Y0089503D01*
X0272922Y0087503D01*
X0273687Y0085655D01*
X0275102Y0084241D01*
X0274277Y0085066D02*
X0270745Y0085066D01*
X0270969Y0086064D02*
X0273518Y0086064D01*
X0273104Y0087063D02*
X0270969Y0087063D01*
X0270969Y0088061D02*
X0272922Y0088061D01*
X0272922Y0089060D02*
X0270969Y0089060D01*
X0270969Y0090058D02*
X0273152Y0090058D01*
X0273566Y0091057D02*
X0270969Y0091057D01*
X0270551Y0092055D02*
X0274392Y0092055D01*
X0275798Y0093054D02*
X0268509Y0093054D01*
X0268509Y0094052D02*
X0305902Y0094052D01*
X0305902Y0093054D02*
X0280101Y0093054D01*
X0281507Y0092055D02*
X0305902Y0092055D01*
X0305902Y0091057D02*
X0282333Y0091057D01*
X0282747Y0090058D02*
X0305902Y0090058D01*
X0305902Y0089060D02*
X0282977Y0089060D01*
X0282977Y0088061D02*
X0305902Y0088061D01*
X0305902Y0087063D02*
X0282795Y0087063D01*
X0282381Y0086064D02*
X0305902Y0086064D01*
X0305902Y0085066D02*
X0281622Y0085066D01*
X0280378Y0084067D02*
X0305902Y0084067D01*
X0305902Y0095051D02*
X0268509Y0095051D01*
X0268509Y0096049D02*
X0305902Y0096049D01*
X0305902Y0097048D02*
X0290763Y0097048D01*
X0290894Y0097143D02*
X0291357Y0097605D01*
X0291741Y0098135D01*
X0292039Y0098718D01*
X0292241Y0099340D01*
X0292334Y0099928D01*
X0288572Y0099928D01*
X0288572Y0100700D01*
X0292334Y0100700D01*
X0292241Y0101287D01*
X0292039Y0101910D01*
X0291741Y0102493D01*
X0291357Y0103022D01*
X0290894Y0103485D01*
X0290365Y0103870D01*
X0289782Y0104167D01*
X0289159Y0104369D01*
X0288572Y0104462D01*
X0288572Y0100700D01*
X0287800Y0100700D01*
X0287800Y0104462D01*
X0287212Y0104369D01*
X0286590Y0104167D01*
X0286007Y0103870D01*
X0285477Y0103485D01*
X0285015Y0103022D01*
X0284630Y0102493D01*
X0284333Y0101910D01*
X0284131Y0101287D01*
X0284037Y0100700D01*
X0287800Y0100700D01*
X0287800Y0099928D01*
X0288572Y0099928D01*
X0288572Y0096166D01*
X0289159Y0096259D01*
X0289782Y0096461D01*
X0290365Y0096758D01*
X0290894Y0097143D01*
X0291677Y0098046D02*
X0305902Y0098046D01*
X0305902Y0099045D02*
X0292145Y0099045D01*
X0292280Y0101042D02*
X0305902Y0101042D01*
X0305902Y0102040D02*
X0291972Y0102040D01*
X0291340Y0103039D02*
X0305902Y0103039D01*
X0305902Y0104037D02*
X0290036Y0104037D01*
X0288572Y0104037D02*
X0287800Y0104037D01*
X0287800Y0103039D02*
X0288572Y0103039D01*
X0288572Y0102040D02*
X0287800Y0102040D01*
X0287800Y0101042D02*
X0288572Y0101042D01*
X0288572Y0100043D02*
X0305902Y0100043D01*
X0305902Y0105036D02*
X0285860Y0105036D01*
X0286336Y0104037D02*
X0284862Y0104037D01*
X0285031Y0103039D02*
X0283863Y0103039D01*
X0284399Y0102040D02*
X0282865Y0102040D01*
X0281866Y0101042D02*
X0284092Y0101042D01*
X0284037Y0099928D02*
X0284131Y0099340D01*
X0284333Y0098718D01*
X0284630Y0098135D01*
X0285015Y0097605D01*
X0285477Y0097143D01*
X0286007Y0096758D01*
X0286590Y0096461D01*
X0287212Y0096259D01*
X0287800Y0096166D01*
X0287800Y0099928D01*
X0284037Y0099928D01*
X0284227Y0099045D02*
X0279869Y0099045D01*
X0280868Y0100043D02*
X0287800Y0100043D01*
X0287800Y0099045D02*
X0288572Y0099045D01*
X0288572Y0098046D02*
X0287800Y0098046D01*
X0287800Y0097048D02*
X0288572Y0097048D01*
X0285608Y0097048D02*
X0270522Y0097048D01*
X0270969Y0098046D02*
X0284694Y0098046D01*
X0279272Y0104037D02*
X0270774Y0104037D01*
X0270969Y0103842D02*
X0270403Y0104408D01*
X0270969Y0104975D01*
X0270969Y0111043D01*
X0273409Y0111043D01*
X0274389Y0111448D01*
X0281587Y0118647D01*
X0281993Y0119626D01*
X0281993Y0120687D01*
X0281587Y0121666D01*
X0280837Y0122416D01*
X0279858Y0122822D01*
X0278797Y0122822D01*
X0277818Y0122416D01*
X0271775Y0116373D01*
X0270163Y0116373D01*
X0270969Y0117179D01*
X0270969Y0123527D01*
X0270403Y0124093D01*
X0270969Y0124660D01*
X0270969Y0125857D01*
X0277564Y0125857D01*
X0284197Y0119224D01*
X0284044Y0118854D01*
X0284044Y0117207D01*
X0284674Y0115684D01*
X0285840Y0114519D01*
X0286868Y0114093D01*
X0285840Y0113668D01*
X0284674Y0112502D01*
X0284044Y0110980D01*
X0284044Y0109333D01*
X0284197Y0108963D01*
X0277879Y0102645D01*
X0270969Y0102645D01*
X0270969Y0103842D01*
X0270969Y0103039D02*
X0278273Y0103039D01*
X0280270Y0105036D02*
X0270969Y0105036D01*
X0270969Y0106034D02*
X0281269Y0106034D01*
X0282267Y0107033D02*
X0270969Y0107033D01*
X0270969Y0108031D02*
X0279331Y0108031D01*
X0279135Y0108112D02*
X0279587Y0107925D01*
X0280067Y0107830D01*
X0280312Y0107830D01*
X0280556Y0107830D01*
X0281036Y0107925D01*
X0281488Y0108112D01*
X0281895Y0108384D01*
X0282241Y0108730D01*
X0282513Y0109137D01*
X0282700Y0109589D01*
X0282796Y0110069D01*
X0282796Y0110314D01*
X0282796Y0110559D01*
X0282700Y0111038D01*
X0282513Y0111491D01*
X0282241Y0111897D01*
X0281895Y0112243D01*
X0281488Y0112515D01*
X0281036Y0112703D01*
X0280556Y0112798D01*
X0280312Y0112798D01*
X0280312Y0110314D01*
X0282796Y0110314D01*
X0280312Y0110314D01*
X0280312Y0110314D01*
X0280312Y0110314D01*
X0280312Y0107830D01*
X0280312Y0110314D01*
X0280312Y0110314D01*
X0280312Y0112798D01*
X0280067Y0112798D01*
X0279587Y0112703D01*
X0279135Y0112515D01*
X0278728Y0112243D01*
X0278382Y0111897D01*
X0278110Y0111491D01*
X0277923Y0111038D01*
X0277827Y0110559D01*
X0277827Y0110314D01*
X0280312Y0110314D01*
X0280312Y0110314D01*
X0277827Y0110314D01*
X0277827Y0110069D01*
X0277923Y0109589D01*
X0278110Y0109137D01*
X0278382Y0108730D01*
X0278728Y0108384D01*
X0279135Y0108112D01*
X0280312Y0108031D02*
X0280312Y0108031D01*
X0281293Y0108031D02*
X0283266Y0108031D01*
X0282441Y0109030D02*
X0284169Y0109030D01*
X0284044Y0110028D02*
X0282788Y0110028D01*
X0282703Y0111027D02*
X0284063Y0111027D01*
X0284477Y0112025D02*
X0282113Y0112025D01*
X0280312Y0112025D02*
X0280312Y0112025D01*
X0280312Y0111027D02*
X0280312Y0111027D01*
X0280312Y0110028D02*
X0280312Y0110028D01*
X0280312Y0109030D02*
X0280312Y0109030D01*
X0278182Y0109030D02*
X0270969Y0109030D01*
X0270969Y0110028D02*
X0277836Y0110028D01*
X0277921Y0111027D02*
X0270969Y0111027D01*
X0274966Y0112025D02*
X0278510Y0112025D01*
X0276963Y0114022D02*
X0286696Y0114022D01*
X0285338Y0115021D02*
X0277961Y0115021D01*
X0278960Y0116019D02*
X0284536Y0116019D01*
X0284122Y0117018D02*
X0279958Y0117018D01*
X0280957Y0118016D02*
X0284044Y0118016D01*
X0284111Y0119015D02*
X0281740Y0119015D01*
X0281993Y0120013D02*
X0283408Y0120013D01*
X0282409Y0121012D02*
X0281858Y0121012D01*
X0281411Y0122010D02*
X0281243Y0122010D01*
X0280412Y0123009D02*
X0270969Y0123009D01*
X0270969Y0122010D02*
X0277412Y0122010D01*
X0276414Y0121012D02*
X0270969Y0121012D01*
X0270969Y0120013D02*
X0275415Y0120013D01*
X0274417Y0119015D02*
X0270969Y0119015D01*
X0270969Y0118016D02*
X0273418Y0118016D01*
X0272420Y0117018D02*
X0270808Y0117018D01*
X0275964Y0113024D02*
X0285196Y0113024D01*
X0289675Y0114022D02*
X0305902Y0114022D01*
X0305902Y0113024D02*
X0291176Y0113024D01*
X0291895Y0112025D02*
X0305902Y0112025D01*
X0305902Y0111027D02*
X0292308Y0111027D01*
X0292327Y0110028D02*
X0305902Y0110028D01*
X0305902Y0109030D02*
X0292202Y0109030D01*
X0291788Y0108031D02*
X0305902Y0108031D01*
X0305902Y0107033D02*
X0290919Y0107033D01*
X0289057Y0106034D02*
X0305902Y0106034D01*
X0305902Y0115021D02*
X0291033Y0115021D01*
X0291836Y0116019D02*
X0305902Y0116019D01*
X0305902Y0117018D02*
X0292249Y0117018D01*
X0292327Y0118016D02*
X0305902Y0118016D01*
X0305902Y0119015D02*
X0292261Y0119015D01*
X0291847Y0120013D02*
X0305902Y0120013D01*
X0305902Y0121012D02*
X0291061Y0121012D01*
X0289400Y0122010D02*
X0305902Y0122010D01*
X0305902Y0123009D02*
X0286002Y0123009D01*
X0286695Y0124007D02*
X0285004Y0124007D01*
X0285840Y0124362D02*
X0287362Y0123731D01*
X0289010Y0123731D01*
X0290532Y0124362D01*
X0291697Y0125527D01*
X0292327Y0127049D01*
X0292327Y0128697D01*
X0291697Y0130219D01*
X0290532Y0131384D01*
X0289010Y0132015D01*
X0287362Y0132015D01*
X0285840Y0131384D01*
X0284674Y0130219D01*
X0284044Y0128697D01*
X0284044Y0127049D01*
X0284674Y0125527D01*
X0285840Y0124362D01*
X0285195Y0125006D02*
X0284005Y0125006D01*
X0284477Y0126004D02*
X0283007Y0126004D01*
X0282008Y0127003D02*
X0284063Y0127003D01*
X0284044Y0128002D02*
X0281010Y0128002D01*
X0280011Y0129000D02*
X0284170Y0129000D01*
X0284583Y0129999D02*
X0270969Y0129999D01*
X0270969Y0130997D02*
X0285453Y0130997D01*
X0287316Y0131996D02*
X0268509Y0131996D01*
X0268509Y0132994D02*
X0305902Y0132994D01*
X0305902Y0131996D02*
X0289056Y0131996D01*
X0290919Y0130997D02*
X0305902Y0130997D01*
X0305902Y0129999D02*
X0291788Y0129999D01*
X0292202Y0129000D02*
X0305902Y0129000D01*
X0305902Y0128002D02*
X0292327Y0128002D01*
X0292308Y0127003D02*
X0305902Y0127003D01*
X0305902Y0126004D02*
X0291895Y0126004D01*
X0291176Y0125006D02*
X0305902Y0125006D01*
X0305902Y0124007D02*
X0289677Y0124007D01*
X0279414Y0124007D02*
X0270489Y0124007D01*
X0270969Y0125006D02*
X0278415Y0125006D01*
X0264556Y0131996D02*
X0257386Y0131996D01*
X0257386Y0132994D02*
X0264556Y0132994D01*
X0264556Y0133993D02*
X0257386Y0133993D01*
X0257386Y0134991D02*
X0264556Y0134991D01*
X0264556Y0135990D02*
X0257386Y0135990D01*
X0257386Y0136988D02*
X0262095Y0136988D01*
X0262095Y0137987D02*
X0257386Y0137987D01*
X0257386Y0138985D02*
X0262095Y0138985D01*
X0262095Y0139984D02*
X0257386Y0139984D01*
X0257386Y0140982D02*
X0262095Y0140982D01*
X0262095Y0141981D02*
X0257386Y0141981D01*
X0257386Y0142979D02*
X0262095Y0142979D01*
X0262440Y0143978D02*
X0257386Y0143978D01*
X0257386Y0144976D02*
X0262079Y0144976D01*
X0262079Y0145975D02*
X0257386Y0145975D01*
X0257386Y0146973D02*
X0262079Y0146973D01*
X0262079Y0148970D02*
X0257086Y0148970D01*
X0257386Y0147972D02*
X0266032Y0147972D01*
X0266032Y0148970D02*
X0267032Y0148970D01*
X0267032Y0148019D02*
X0267032Y0151578D01*
X0269682Y0151578D01*
X0270064Y0151475D01*
X0270406Y0151278D01*
X0270685Y0150999D01*
X0270883Y0150657D01*
X0270985Y0150275D01*
X0270985Y0148019D01*
X0267032Y0148019D01*
X0267032Y0147972D02*
X0305902Y0147972D01*
X0305902Y0148970D02*
X0270985Y0148970D01*
X0270985Y0149969D02*
X0305902Y0149969D01*
X0305902Y0150967D02*
X0270703Y0150967D01*
X0267032Y0150967D02*
X0266032Y0150967D01*
X0266032Y0149969D02*
X0267032Y0149969D01*
X0262361Y0150967D02*
X0255239Y0150967D01*
X0256237Y0149969D02*
X0262079Y0149969D01*
X0254240Y0151966D02*
X0305902Y0151966D01*
X0305902Y0152964D02*
X0253242Y0152964D01*
X0252243Y0153963D02*
X0290785Y0153963D01*
X0290463Y0154096D02*
X0292817Y0153121D01*
X0295365Y0153121D01*
X0297720Y0154096D01*
X0299522Y0155898D01*
X0300497Y0158252D01*
X0300497Y0160801D01*
X0299522Y0163155D01*
X0297720Y0164957D01*
X0295365Y0165932D01*
X0292817Y0165932D01*
X0290463Y0164957D01*
X0288661Y0163155D01*
X0287686Y0160801D01*
X0287686Y0158252D01*
X0288661Y0155898D01*
X0290463Y0154096D01*
X0289598Y0154961D02*
X0251245Y0154961D01*
X0250246Y0155960D02*
X0288635Y0155960D01*
X0288222Y0156958D02*
X0249248Y0156958D01*
X0248249Y0157957D02*
X0287808Y0157957D01*
X0287686Y0158955D02*
X0247251Y0158955D01*
X0246252Y0159954D02*
X0287686Y0159954D01*
X0287749Y0160952D02*
X0245254Y0160952D01*
X0244255Y0161951D02*
X0288162Y0161951D01*
X0288576Y0162949D02*
X0192191Y0162949D01*
X0192197Y0163948D02*
X0289454Y0163948D01*
X0290452Y0164946D02*
X0191757Y0164946D01*
X0189761Y0164946D02*
X0189760Y0164946D01*
X0189760Y0163948D02*
X0189761Y0163948D01*
X0189760Y0163463D02*
X0189760Y0163463D01*
X0187276Y0163463D01*
X0189760Y0163463D01*
X0189760Y0165945D02*
X0189761Y0165945D01*
X0190019Y0165945D02*
X0305902Y0165945D01*
X0305902Y0166943D02*
X0053934Y0166943D01*
X0053934Y0165945D02*
X0134041Y0165945D01*
X0132829Y0164946D02*
X0069384Y0164946D01*
X0069373Y0164957D02*
X0067019Y0165932D01*
X0064471Y0165932D01*
X0062116Y0164957D01*
X0060314Y0163155D01*
X0059339Y0160801D01*
X0059339Y0158252D01*
X0060314Y0155898D01*
X0062116Y0154096D01*
X0064471Y0153121D01*
X0067019Y0153121D01*
X0069373Y0154096D01*
X0071175Y0155898D01*
X0072150Y0158252D01*
X0072150Y0160801D01*
X0071175Y0163155D01*
X0069373Y0164957D01*
X0070382Y0163948D02*
X0132749Y0163948D01*
X0132749Y0162949D02*
X0071260Y0162949D01*
X0071674Y0161951D02*
X0136308Y0161951D01*
X0136308Y0160995D02*
X0132749Y0160995D01*
X0132749Y0158345D01*
X0132851Y0157963D01*
X0133048Y0157621D01*
X0133328Y0157342D01*
X0133670Y0157144D01*
X0134051Y0157042D01*
X0136308Y0157042D01*
X0136308Y0160995D01*
X0136308Y0160952D02*
X0137308Y0160952D01*
X0137308Y0159954D02*
X0136308Y0159954D01*
X0136308Y0158955D02*
X0137308Y0158955D01*
X0137308Y0157957D02*
X0136308Y0157957D01*
X0132855Y0157957D02*
X0092781Y0157957D01*
X0091783Y0158955D02*
X0132749Y0158955D01*
X0132749Y0159954D02*
X0072150Y0159954D01*
X0072150Y0158955D02*
X0079055Y0158955D01*
X0079505Y0159405D02*
X0076693Y0156593D01*
X0076693Y0154905D01*
X0081193Y0154905D01*
X0081193Y0159405D01*
X0079505Y0159405D01*
X0081193Y0158955D02*
X0081793Y0158955D01*
X0081793Y0159405D02*
X0081793Y0154905D01*
X0081193Y0154905D01*
X0081193Y0154305D01*
X0081793Y0154305D01*
X0081793Y0149805D01*
X0083481Y0149805D01*
X0085441Y0151765D01*
X0087385Y0149821D01*
X0091348Y0149821D01*
X0094151Y0152623D01*
X0094151Y0156587D01*
X0091348Y0159389D01*
X0087385Y0159389D01*
X0085441Y0157445D01*
X0083481Y0159405D01*
X0081793Y0159405D01*
X0081793Y0157957D02*
X0081193Y0157957D01*
X0081193Y0156958D02*
X0081793Y0156958D01*
X0081793Y0155960D02*
X0081193Y0155960D01*
X0081193Y0154961D02*
X0081793Y0154961D01*
X0081193Y0154305D02*
X0081193Y0149805D01*
X0079505Y0149805D01*
X0076693Y0152617D01*
X0076693Y0154305D01*
X0081193Y0154305D01*
X0081193Y0153963D02*
X0081793Y0153963D01*
X0081793Y0152964D02*
X0081193Y0152964D01*
X0081193Y0151966D02*
X0081793Y0151966D01*
X0081793Y0150967D02*
X0081193Y0150967D01*
X0081193Y0149969D02*
X0081793Y0149969D01*
X0083645Y0149969D02*
X0087237Y0149969D01*
X0086239Y0150967D02*
X0084643Y0150967D01*
X0079341Y0149969D02*
X0053934Y0149969D01*
X0053934Y0150967D02*
X0078342Y0150967D01*
X0077344Y0151966D02*
X0053934Y0151966D01*
X0053934Y0152964D02*
X0076693Y0152964D01*
X0076693Y0153963D02*
X0069051Y0153963D01*
X0070238Y0154961D02*
X0076693Y0154961D01*
X0076693Y0155960D02*
X0071201Y0155960D01*
X0071614Y0156958D02*
X0077058Y0156958D01*
X0078056Y0157957D02*
X0072028Y0157957D01*
X0072087Y0160952D02*
X0132749Y0160952D01*
X0136308Y0162949D02*
X0137308Y0162949D01*
X0137308Y0163948D02*
X0136308Y0163948D01*
X0136308Y0164946D02*
X0137308Y0164946D01*
X0137308Y0165945D02*
X0136308Y0165945D01*
X0139575Y0165945D02*
X0189502Y0165945D01*
X0187764Y0164946D02*
X0168016Y0164946D01*
X0168016Y0157957D02*
X0182088Y0157957D01*
X0181812Y0158233D02*
X0181812Y0158233D01*
X0184634Y0162949D02*
X0187330Y0162949D01*
X0187324Y0163948D02*
X0183362Y0163948D01*
X0169619Y0150967D02*
X0206386Y0150967D01*
X0206386Y0149969D02*
X0170617Y0149969D01*
X0171616Y0148970D02*
X0206386Y0148970D01*
X0206386Y0147972D02*
X0171855Y0147972D01*
X0171855Y0146973D02*
X0206386Y0146973D01*
X0206386Y0145975D02*
X0189086Y0145975D01*
X0189681Y0144976D02*
X0206386Y0144976D01*
X0206386Y0143978D02*
X0189686Y0143978D01*
X0189686Y0142979D02*
X0206386Y0142979D01*
X0206386Y0141981D02*
X0186127Y0141981D01*
X0186127Y0141310D02*
X0189686Y0141310D01*
X0189686Y0138660D01*
X0189583Y0138278D01*
X0189386Y0137936D01*
X0189107Y0137657D01*
X0188765Y0137459D01*
X0188383Y0137357D01*
X0186127Y0137357D01*
X0186127Y0141310D01*
X0186127Y0140982D02*
X0185127Y0140982D01*
X0185127Y0139984D02*
X0186127Y0139984D01*
X0186127Y0138985D02*
X0185127Y0138985D01*
X0185127Y0137987D02*
X0186127Y0137987D01*
X0189415Y0137987D02*
X0236308Y0137987D01*
X0236308Y0138985D02*
X0189686Y0138985D01*
X0189686Y0139984D02*
X0206811Y0139984D01*
X0206386Y0140982D02*
X0189686Y0140982D01*
X0186127Y0142979D02*
X0185127Y0142979D01*
X0185127Y0143978D02*
X0186127Y0143978D01*
X0186127Y0144976D02*
X0185127Y0144976D01*
X0185127Y0145975D02*
X0186127Y0145975D01*
X0182167Y0145975D02*
X0181592Y0145975D01*
X0174700Y0145975D02*
X0173325Y0145975D01*
X0173922Y0144976D02*
X0174103Y0144976D01*
X0174103Y0143978D02*
X0173922Y0143978D01*
X0173922Y0138985D02*
X0174103Y0138985D01*
X0174359Y0137987D02*
X0173666Y0137987D01*
X0172461Y0128002D02*
X0158334Y0128002D01*
X0158334Y0129000D02*
X0236308Y0129000D01*
X0236308Y0128002D02*
X0175564Y0128002D01*
X0176295Y0127003D02*
X0236308Y0127003D01*
X0236308Y0126004D02*
X0176481Y0126004D01*
X0176247Y0125006D02*
X0193435Y0125006D01*
X0193789Y0125153D02*
X0192810Y0124747D01*
X0192060Y0123997D01*
X0191654Y0123017D01*
X0191654Y0121957D01*
X0192060Y0120977D01*
X0194969Y0118068D01*
X0194969Y0101038D01*
X0195839Y0100168D01*
X0208092Y0100168D01*
X0208961Y0101038D01*
X0208961Y0123527D01*
X0208092Y0124397D01*
X0196179Y0124397D01*
X0195829Y0124747D01*
X0194850Y0125153D01*
X0193789Y0125153D01*
X0195204Y0125006D02*
X0236308Y0125006D01*
X0236308Y0124397D02*
X0234421Y0124397D01*
X0233552Y0123527D01*
X0233552Y0101038D01*
X0234421Y0100168D01*
X0246674Y0100168D01*
X0247544Y0101038D01*
X0247544Y0123527D01*
X0246674Y0124397D01*
X0241638Y0124397D01*
X0241638Y0144309D01*
X0241233Y0145288D01*
X0240483Y0146038D01*
X0238514Y0148006D01*
X0237535Y0148412D01*
X0236127Y0148412D01*
X0236127Y0151086D01*
X0235257Y0151956D01*
X0224579Y0151956D01*
X0223709Y0151086D01*
X0223709Y0140408D01*
X0224579Y0139538D01*
X0235257Y0139538D01*
X0236127Y0140408D01*
X0236127Y0142855D01*
X0236308Y0142674D01*
X0236308Y0124397D01*
X0234032Y0124007D02*
X0208481Y0124007D01*
X0208961Y0123009D02*
X0233552Y0123009D01*
X0233552Y0122010D02*
X0208961Y0122010D01*
X0208961Y0121012D02*
X0233552Y0121012D01*
X0233552Y0120013D02*
X0208961Y0120013D01*
X0208961Y0119015D02*
X0233552Y0119015D01*
X0233552Y0118016D02*
X0208961Y0118016D01*
X0208961Y0117018D02*
X0233552Y0117018D01*
X0233552Y0116019D02*
X0208961Y0116019D01*
X0208961Y0115021D02*
X0233552Y0115021D01*
X0233552Y0114022D02*
X0208961Y0114022D01*
X0208961Y0113024D02*
X0233552Y0113024D01*
X0233552Y0112025D02*
X0208961Y0112025D01*
X0208961Y0111027D02*
X0233552Y0111027D01*
X0233552Y0110028D02*
X0208961Y0110028D01*
X0208961Y0109030D02*
X0233552Y0109030D01*
X0233552Y0108031D02*
X0208961Y0108031D01*
X0208961Y0107033D02*
X0233552Y0107033D01*
X0233552Y0106034D02*
X0208961Y0106034D01*
X0208961Y0105036D02*
X0233552Y0105036D01*
X0233552Y0104037D02*
X0208961Y0104037D01*
X0208961Y0103039D02*
X0233552Y0103039D01*
X0233552Y0102040D02*
X0208961Y0102040D01*
X0208961Y0101042D02*
X0233552Y0101042D01*
X0247544Y0101042D02*
X0262095Y0101042D01*
X0262095Y0102040D02*
X0247544Y0102040D01*
X0247544Y0103039D02*
X0262095Y0103039D01*
X0262290Y0104037D02*
X0247544Y0104037D01*
X0247544Y0105036D02*
X0262095Y0105036D01*
X0262095Y0106034D02*
X0247544Y0106034D01*
X0247544Y0107033D02*
X0262095Y0107033D01*
X0262095Y0108031D02*
X0247544Y0108031D01*
X0247544Y0109030D02*
X0262095Y0109030D01*
X0262095Y0110028D02*
X0247544Y0110028D01*
X0247544Y0111027D02*
X0262095Y0111027D01*
X0259083Y0112025D02*
X0247544Y0112025D01*
X0247544Y0113024D02*
X0258084Y0113024D01*
X0257086Y0114022D02*
X0247544Y0114022D01*
X0247544Y0115021D02*
X0256087Y0115021D01*
X0255089Y0116019D02*
X0247544Y0116019D01*
X0247544Y0117018D02*
X0254090Y0117018D01*
X0253092Y0118016D02*
X0247544Y0118016D01*
X0247544Y0119015D02*
X0252309Y0119015D01*
X0252056Y0120013D02*
X0247544Y0120013D01*
X0247544Y0121012D02*
X0252056Y0121012D01*
X0252056Y0122010D02*
X0247544Y0122010D01*
X0247544Y0123009D02*
X0252056Y0123009D01*
X0252056Y0124007D02*
X0247064Y0124007D01*
X0252056Y0125006D02*
X0241638Y0125006D01*
X0241638Y0126004D02*
X0252056Y0126004D01*
X0252056Y0127003D02*
X0241638Y0127003D01*
X0241638Y0128002D02*
X0252056Y0128002D01*
X0252056Y0129000D02*
X0241638Y0129000D01*
X0241638Y0129999D02*
X0252056Y0129999D01*
X0252056Y0130997D02*
X0241638Y0130997D01*
X0241638Y0131996D02*
X0252056Y0131996D01*
X0252056Y0132994D02*
X0241638Y0132994D01*
X0241638Y0133993D02*
X0252056Y0133993D01*
X0252056Y0134991D02*
X0241638Y0134991D01*
X0241638Y0135990D02*
X0252056Y0135990D01*
X0252056Y0136988D02*
X0241638Y0136988D01*
X0241638Y0137987D02*
X0252056Y0137987D01*
X0252056Y0138985D02*
X0241638Y0138985D01*
X0241638Y0139984D02*
X0252056Y0139984D01*
X0252056Y0140982D02*
X0241638Y0140982D01*
X0241638Y0141981D02*
X0252056Y0141981D01*
X0252056Y0142979D02*
X0241638Y0142979D01*
X0241638Y0143978D02*
X0252056Y0143978D01*
X0252056Y0144976D02*
X0241362Y0144976D01*
X0240546Y0145975D02*
X0252056Y0145975D01*
X0251694Y0146973D02*
X0239548Y0146973D01*
X0238549Y0147972D02*
X0250695Y0147972D01*
X0249697Y0148970D02*
X0236127Y0148970D01*
X0236127Y0149969D02*
X0248698Y0149969D01*
X0247700Y0150967D02*
X0236127Y0150967D01*
X0242707Y0155960D02*
X0215260Y0155960D01*
X0215260Y0156958D02*
X0241709Y0156958D01*
X0243706Y0154961D02*
X0215260Y0154961D01*
X0215260Y0153963D02*
X0244704Y0153963D01*
X0245703Y0152964D02*
X0215260Y0152964D01*
X0215260Y0151966D02*
X0246701Y0151966D01*
X0236308Y0141981D02*
X0236127Y0141981D01*
X0236127Y0140982D02*
X0236308Y0140982D01*
X0236308Y0139984D02*
X0235703Y0139984D01*
X0236308Y0136988D02*
X0158334Y0136988D01*
X0158334Y0135990D02*
X0236308Y0135990D01*
X0236308Y0134991D02*
X0158334Y0134991D01*
X0158334Y0133993D02*
X0236308Y0133993D01*
X0236308Y0132994D02*
X0158334Y0132994D01*
X0158334Y0131996D02*
X0236308Y0131996D01*
X0236308Y0130997D02*
X0158334Y0130997D01*
X0158334Y0129999D02*
X0236308Y0129999D01*
X0224133Y0139984D02*
X0218380Y0139984D01*
X0218804Y0140982D02*
X0223709Y0140982D01*
X0223709Y0141981D02*
X0218804Y0141981D01*
X0218804Y0142979D02*
X0223709Y0142979D01*
X0223709Y0143978D02*
X0218804Y0143978D01*
X0218804Y0144976D02*
X0223709Y0144976D01*
X0223709Y0145975D02*
X0218804Y0145975D01*
X0218804Y0146973D02*
X0223709Y0146973D01*
X0223709Y0147972D02*
X0218804Y0147972D01*
X0218804Y0148970D02*
X0223709Y0148970D01*
X0223709Y0149969D02*
X0218804Y0149969D01*
X0218804Y0150967D02*
X0223709Y0150967D01*
X0209930Y0152964D02*
X0162603Y0152964D01*
X0161605Y0153963D02*
X0209930Y0153963D01*
X0209930Y0154961D02*
X0152434Y0154961D01*
X0152434Y0153963D02*
X0157208Y0153963D01*
X0156209Y0152964D02*
X0152434Y0152964D01*
X0152434Y0151966D02*
X0155522Y0151966D01*
X0155522Y0150967D02*
X0152434Y0150967D01*
X0152434Y0149969D02*
X0155522Y0149969D01*
X0155611Y0148970D02*
X0152434Y0148970D01*
X0152434Y0147972D02*
X0156609Y0147972D01*
X0157608Y0146973D02*
X0152434Y0146973D01*
X0152434Y0145975D02*
X0158952Y0145975D01*
X0158355Y0144976D02*
X0152434Y0144976D01*
X0152434Y0143978D02*
X0158355Y0143978D01*
X0156499Y0142979D02*
X0152434Y0142979D01*
X0152434Y0141981D02*
X0155501Y0141981D01*
X0154502Y0140982D02*
X0152434Y0140982D01*
X0152434Y0139984D02*
X0154184Y0139984D01*
X0154184Y0138985D02*
X0152434Y0138985D01*
X0152434Y0137987D02*
X0154184Y0137987D01*
X0154184Y0136988D02*
X0152434Y0136988D01*
X0152434Y0135990D02*
X0154184Y0135990D01*
X0154184Y0134991D02*
X0153920Y0134991D01*
X0152767Y0134991D02*
X0152434Y0134991D01*
X0148284Y0134991D02*
X0137127Y0134991D01*
X0137127Y0135990D02*
X0148284Y0135990D01*
X0148284Y0136988D02*
X0137127Y0136988D01*
X0137127Y0138985D02*
X0148284Y0138985D01*
X0148284Y0137987D02*
X0133174Y0137987D01*
X0133174Y0138985D02*
X0132174Y0138985D01*
X0132174Y0137987D02*
X0103056Y0137987D01*
X0103056Y0138985D02*
X0128221Y0138985D01*
X0128221Y0139984D02*
X0103056Y0139984D01*
X0103056Y0140982D02*
X0128420Y0140982D01*
X0132174Y0140982D02*
X0133174Y0140982D01*
X0133174Y0139984D02*
X0132174Y0139984D01*
X0128221Y0136988D02*
X0103056Y0136988D01*
X0103056Y0135990D02*
X0128221Y0135990D01*
X0128221Y0134991D02*
X0120726Y0134991D01*
X0120969Y0133993D02*
X0128724Y0133993D01*
X0128237Y0132994D02*
X0120969Y0132994D01*
X0120969Y0131996D02*
X0128237Y0131996D01*
X0128237Y0130997D02*
X0120810Y0130997D01*
X0120575Y0129999D02*
X0128237Y0129999D01*
X0128237Y0129000D02*
X0120575Y0129000D01*
X0120575Y0128002D02*
X0128237Y0128002D01*
X0128256Y0127003D02*
X0120575Y0127003D01*
X0120575Y0126004D02*
X0130599Y0126004D01*
X0130599Y0125006D02*
X0121591Y0125006D01*
X0122589Y0124007D02*
X0130599Y0124007D01*
X0134749Y0124420D02*
X0134749Y0126152D01*
X0136241Y0126152D01*
X0137111Y0127022D01*
X0137111Y0127530D01*
X0139257Y0127530D01*
X0142697Y0124090D01*
X0141900Y0123293D01*
X0141900Y0122263D01*
X0139720Y0122263D01*
X0138790Y0121333D01*
X0138623Y0121333D01*
X0138737Y0121447D01*
X0139009Y0121854D01*
X0139197Y0122306D01*
X0139292Y0122786D01*
X0139292Y0123030D01*
X0136808Y0123030D01*
X0136808Y0123030D01*
X0139292Y0123030D01*
X0139292Y0123275D01*
X0139197Y0123755D01*
X0139009Y0124207D01*
X0138737Y0124614D01*
X0138391Y0124960D01*
X0137984Y0125232D01*
X0137532Y0125419D01*
X0137052Y0125515D01*
X0136808Y0125515D01*
X0136808Y0123030D01*
X0136808Y0123030D01*
X0136808Y0125515D01*
X0136563Y0125515D01*
X0136083Y0125419D01*
X0135631Y0125232D01*
X0135224Y0124960D01*
X0134878Y0124614D01*
X0134749Y0124420D01*
X0134749Y0125006D02*
X0135293Y0125006D01*
X0134749Y0126004D02*
X0140783Y0126004D01*
X0141781Y0125006D02*
X0138323Y0125006D01*
X0139092Y0124007D02*
X0142614Y0124007D01*
X0141900Y0123009D02*
X0139292Y0123009D01*
X0139468Y0122010D02*
X0139074Y0122010D01*
X0136808Y0124007D02*
X0136808Y0124007D01*
X0136808Y0125006D02*
X0136808Y0125006D01*
X0137092Y0127003D02*
X0139784Y0127003D01*
X0143329Y0130997D02*
X0148284Y0130997D01*
X0148284Y0129999D02*
X0144328Y0129999D01*
X0145326Y0129000D02*
X0148284Y0129000D01*
X0146608Y0128002D02*
X0146325Y0128002D01*
X0148284Y0131996D02*
X0142331Y0131996D01*
X0137111Y0132994D02*
X0148284Y0132994D01*
X0148284Y0133993D02*
X0136624Y0133993D01*
X0137127Y0139984D02*
X0148284Y0139984D01*
X0148284Y0140982D02*
X0136927Y0140982D01*
X0137791Y0146768D02*
X0139106Y0146768D01*
X0139106Y0150368D01*
X0139706Y0150368D01*
X0139706Y0146768D01*
X0141022Y0146768D01*
X0143306Y0149053D01*
X0143306Y0150368D01*
X0139706Y0150368D01*
X0139706Y0150968D01*
X0143306Y0150968D01*
X0143306Y0152284D01*
X0141022Y0154568D01*
X0139706Y0154568D01*
X0139706Y0150968D01*
X0139106Y0150968D01*
X0139106Y0150368D01*
X0135506Y0150368D01*
X0135506Y0149053D01*
X0137791Y0146768D01*
X0137586Y0146973D02*
X0053934Y0146973D01*
X0053934Y0145975D02*
X0148284Y0145975D01*
X0148284Y0146973D02*
X0141227Y0146973D01*
X0142225Y0147972D02*
X0148284Y0147972D01*
X0148284Y0148970D02*
X0143224Y0148970D01*
X0143306Y0149969D02*
X0148284Y0149969D01*
X0148284Y0150967D02*
X0139706Y0150967D01*
X0139106Y0150968D02*
X0139106Y0154568D01*
X0137791Y0154568D01*
X0135506Y0152284D01*
X0135506Y0150968D01*
X0139106Y0150968D01*
X0139106Y0150967D02*
X0092495Y0150967D01*
X0091496Y0149969D02*
X0135506Y0149969D01*
X0135589Y0148970D02*
X0053934Y0148970D01*
X0053934Y0147972D02*
X0136587Y0147972D01*
X0139106Y0147972D02*
X0139706Y0147972D01*
X0139706Y0148970D02*
X0139106Y0148970D01*
X0139106Y0149969D02*
X0139706Y0149969D01*
X0139706Y0151966D02*
X0139106Y0151966D01*
X0139106Y0152964D02*
X0139706Y0152964D01*
X0139706Y0153963D02*
X0139106Y0153963D01*
X0137185Y0153963D02*
X0094151Y0153963D01*
X0094151Y0154961D02*
X0148284Y0154961D01*
X0148284Y0153963D02*
X0141627Y0153963D01*
X0142625Y0152964D02*
X0148284Y0152964D01*
X0148284Y0151966D02*
X0143306Y0151966D01*
X0139706Y0146973D02*
X0139106Y0146973D01*
X0135506Y0151966D02*
X0093493Y0151966D01*
X0094151Y0152964D02*
X0136187Y0152964D01*
X0148284Y0155960D02*
X0094151Y0155960D01*
X0093780Y0156958D02*
X0148284Y0156958D01*
X0152434Y0156958D02*
X0209930Y0156958D01*
X0209930Y0155960D02*
X0152434Y0155960D01*
X0152434Y0157957D02*
X0152449Y0157957D01*
X0152434Y0158955D02*
X0152449Y0158955D01*
X0152449Y0163948D02*
X0148331Y0163948D01*
X0148331Y0164946D02*
X0152449Y0164946D01*
X0168620Y0151966D02*
X0209795Y0151966D01*
X0192070Y0124007D02*
X0179558Y0124007D01*
X0180255Y0123009D02*
X0191654Y0123009D01*
X0191654Y0122010D02*
X0180418Y0122010D01*
X0180160Y0121012D02*
X0192045Y0121012D01*
X0193024Y0120013D02*
X0183552Y0120013D01*
X0184216Y0119015D02*
X0194022Y0119015D01*
X0194969Y0118016D02*
X0184355Y0118016D01*
X0184074Y0117018D02*
X0194969Y0117018D01*
X0194969Y0116019D02*
X0183102Y0116019D01*
X0180671Y0116019D02*
X0167861Y0116019D01*
X0168491Y0115021D02*
X0194969Y0115021D01*
X0194969Y0114022D02*
X0168607Y0114022D01*
X0168302Y0113024D02*
X0194969Y0113024D01*
X0194969Y0112025D02*
X0167216Y0112025D01*
X0165061Y0112025D02*
X0158349Y0112025D01*
X0158349Y0111027D02*
X0194969Y0111027D01*
X0194969Y0110028D02*
X0164032Y0110028D01*
X0164131Y0109929D02*
X0163785Y0110275D01*
X0163378Y0110547D01*
X0162926Y0110734D01*
X0162446Y0110830D01*
X0162201Y0110830D01*
X0161957Y0110830D01*
X0161477Y0110734D01*
X0161025Y0110547D01*
X0160618Y0110275D01*
X0160272Y0109929D01*
X0160000Y0109522D01*
X0159813Y0109070D01*
X0159717Y0108590D01*
X0159717Y0108345D01*
X0159717Y0108101D01*
X0159813Y0107621D01*
X0160000Y0107169D01*
X0160272Y0106762D01*
X0160618Y0106416D01*
X0161025Y0106144D01*
X0161477Y0105957D01*
X0161957Y0105861D01*
X0162201Y0105861D01*
X0162201Y0108345D01*
X0159717Y0108345D01*
X0162201Y0108345D01*
X0162201Y0108345D01*
X0162201Y0108345D01*
X0162201Y0105861D01*
X0162446Y0105861D01*
X0162926Y0105957D01*
X0163378Y0106144D01*
X0163785Y0106416D01*
X0164131Y0106762D01*
X0164403Y0107169D01*
X0164590Y0107621D01*
X0164686Y0108101D01*
X0164686Y0108345D01*
X0162202Y0108345D01*
X0162202Y0108345D01*
X0164686Y0108345D01*
X0164686Y0108590D01*
X0164590Y0109070D01*
X0164403Y0109522D01*
X0164131Y0109929D01*
X0164598Y0109030D02*
X0194969Y0109030D01*
X0194969Y0108031D02*
X0164672Y0108031D01*
X0164312Y0107033D02*
X0194969Y0107033D01*
X0194969Y0106034D02*
X0163114Y0106034D01*
X0162201Y0106034D02*
X0162201Y0106034D01*
X0161289Y0106034D02*
X0156434Y0106034D01*
X0156434Y0107033D02*
X0160091Y0107033D01*
X0159731Y0108031D02*
X0157789Y0108031D01*
X0158349Y0109030D02*
X0159805Y0109030D01*
X0160371Y0110028D02*
X0158349Y0110028D01*
X0158349Y0110788D02*
X0156434Y0110788D01*
X0158349Y0110788D01*
X0156434Y0110788D02*
X0156434Y0110788D01*
X0159759Y0112197D02*
X0159759Y0114113D01*
X0159759Y0112197D01*
X0159759Y0113024D02*
X0159759Y0113024D01*
X0159759Y0114022D02*
X0159759Y0114022D01*
X0159759Y0114113D02*
X0159759Y0114113D01*
X0162834Y0114022D02*
X0163433Y0114022D01*
X0163975Y0113024D02*
X0162677Y0113024D01*
X0162201Y0110830D02*
X0162201Y0108345D01*
X0162201Y0110830D01*
X0162201Y0110028D02*
X0162201Y0110028D01*
X0162201Y0109030D02*
X0162201Y0109030D01*
X0162201Y0108345D02*
X0162201Y0108345D01*
X0162201Y0108031D02*
X0162201Y0108031D01*
X0162201Y0107033D02*
X0162201Y0107033D01*
X0158631Y0103039D02*
X0194969Y0103039D01*
X0194969Y0104037D02*
X0157633Y0104037D01*
X0156634Y0105036D02*
X0194969Y0105036D01*
X0194969Y0102040D02*
X0159630Y0102040D01*
X0160339Y0101042D02*
X0194969Y0101042D01*
X0219327Y0084338D02*
X0219055Y0083932D01*
X0218868Y0083479D01*
X0218772Y0082999D01*
X0218772Y0082755D01*
X0221256Y0082755D01*
X0221256Y0082755D01*
X0221256Y0085239D01*
X0221012Y0085239D01*
X0220532Y0085144D01*
X0220080Y0084956D01*
X0219673Y0084684D01*
X0219327Y0084338D01*
X0219146Y0084067D02*
X0122007Y0084067D01*
X0121009Y0083068D02*
X0218786Y0083068D01*
X0218772Y0082755D02*
X0218772Y0082510D01*
X0218868Y0082030D01*
X0219055Y0081578D01*
X0219327Y0081171D01*
X0219673Y0080825D01*
X0220080Y0080553D01*
X0220532Y0080366D01*
X0221012Y0080271D01*
X0221256Y0080271D01*
X0221256Y0082755D01*
X0221257Y0082755D01*
X0223741Y0082755D01*
X0223741Y0082999D01*
X0223645Y0083479D01*
X0223458Y0083932D01*
X0223186Y0084338D01*
X0222840Y0084684D01*
X0222433Y0084956D01*
X0221981Y0085144D01*
X0221501Y0085239D01*
X0221257Y0085239D01*
X0221257Y0082755D01*
X0221257Y0082755D01*
X0223741Y0082755D01*
X0223741Y0082510D01*
X0223645Y0082030D01*
X0223458Y0081578D01*
X0223186Y0081171D01*
X0222840Y0080825D01*
X0222433Y0080553D01*
X0221981Y0080366D01*
X0221501Y0080271D01*
X0221257Y0080271D01*
X0221257Y0082755D01*
X0221256Y0082755D01*
X0218772Y0082755D01*
X0218860Y0082070D02*
X0120010Y0082070D01*
X0119012Y0081071D02*
X0219427Y0081071D01*
X0221256Y0081071D02*
X0221257Y0081071D01*
X0221256Y0082070D02*
X0221257Y0082070D01*
X0221256Y0083068D02*
X0221257Y0083068D01*
X0221256Y0084067D02*
X0221257Y0084067D01*
X0221256Y0085066D02*
X0221257Y0085066D01*
X0222170Y0085066D02*
X0262319Y0085066D01*
X0262167Y0084067D02*
X0223368Y0084067D01*
X0223727Y0083068D02*
X0262079Y0083068D01*
X0262079Y0082070D02*
X0223653Y0082070D01*
X0223087Y0081071D02*
X0266032Y0081071D01*
X0262079Y0080073D02*
X0118013Y0080073D01*
X0117015Y0079074D02*
X0262079Y0079074D01*
X0262120Y0078076D02*
X0115657Y0078076D01*
X0113151Y0077077D02*
X0262912Y0077077D01*
X0262095Y0086064D02*
X0162707Y0086064D01*
X0162717Y0087063D02*
X0262095Y0087063D01*
X0262095Y0088061D02*
X0162717Y0088061D01*
X0162717Y0090058D02*
X0262095Y0090058D01*
X0262095Y0089060D02*
X0158764Y0089060D01*
X0158764Y0088061D02*
X0157764Y0088061D01*
X0157764Y0087063D02*
X0158764Y0087063D01*
X0158764Y0086064D02*
X0157764Y0086064D01*
X0157764Y0085066D02*
X0158764Y0085066D01*
X0162082Y0085066D02*
X0220344Y0085066D01*
X0191962Y0070152D02*
X0191690Y0070559D01*
X0191344Y0070905D01*
X0190937Y0071177D01*
X0190485Y0071364D01*
X0190005Y0071459D01*
X0189761Y0071459D01*
X0189761Y0068975D01*
X0189761Y0068975D01*
X0192245Y0068975D01*
X0192245Y0068731D01*
X0192149Y0068251D01*
X0191962Y0067799D01*
X0191690Y0067392D01*
X0191344Y0067046D01*
X0190937Y0066774D01*
X0190485Y0066586D01*
X0190005Y0066491D01*
X0189761Y0066491D01*
X0189761Y0068975D01*
X0189760Y0068975D01*
X0187276Y0068975D01*
X0187276Y0068731D01*
X0187372Y0068251D01*
X0187559Y0067799D01*
X0187831Y0067392D01*
X0188177Y0067046D01*
X0188584Y0066774D01*
X0189036Y0066586D01*
X0189516Y0066491D01*
X0189760Y0066491D01*
X0189760Y0068975D01*
X0189760Y0068975D01*
X0187276Y0068975D01*
X0187276Y0069220D01*
X0187372Y0069700D01*
X0187559Y0070152D01*
X0187831Y0070559D01*
X0188177Y0070905D01*
X0188584Y0071177D01*
X0189036Y0071364D01*
X0189516Y0071459D01*
X0189760Y0071459D01*
X0189760Y0068975D01*
X0189761Y0068975D01*
X0192245Y0068975D01*
X0192245Y0069220D01*
X0192149Y0069700D01*
X0191962Y0070152D01*
X0191989Y0070088D02*
X0288328Y0070088D01*
X0287914Y0071086D02*
X0191073Y0071086D01*
X0189761Y0071086D02*
X0189760Y0071086D01*
X0189760Y0070088D02*
X0189761Y0070088D01*
X0189760Y0069089D02*
X0189761Y0069089D01*
X0189760Y0068091D02*
X0189761Y0068091D01*
X0189760Y0067092D02*
X0189761Y0067092D01*
X0191391Y0067092D02*
X0291403Y0067092D01*
X0289854Y0068091D02*
X0192083Y0068091D01*
X0192245Y0069089D02*
X0288855Y0069089D01*
X0287686Y0072085D02*
X0113505Y0072085D01*
X0113505Y0072609D02*
X0109552Y0072609D01*
X0109552Y0069050D01*
X0112202Y0069050D01*
X0112584Y0069152D01*
X0112926Y0069350D01*
X0113205Y0069629D01*
X0113402Y0069971D01*
X0113505Y0070353D01*
X0113505Y0072609D01*
X0113505Y0074082D02*
X0287686Y0074082D01*
X0287686Y0073083D02*
X0109552Y0073083D01*
X0109552Y0072085D02*
X0108552Y0072085D01*
X0108552Y0072609D02*
X0108552Y0069050D01*
X0105902Y0069050D01*
X0105520Y0069152D01*
X0105178Y0069350D01*
X0104899Y0069629D01*
X0104701Y0069971D01*
X0104599Y0070353D01*
X0104599Y0072609D01*
X0108552Y0072609D01*
X0108552Y0073083D02*
X0093469Y0073083D01*
X0092471Y0072085D02*
X0104599Y0072085D01*
X0104599Y0071086D02*
X0071922Y0071086D01*
X0072150Y0071638D02*
X0071175Y0069284D01*
X0069373Y0067482D01*
X0067019Y0066507D01*
X0064471Y0066507D01*
X0062116Y0067482D01*
X0060314Y0069284D01*
X0059339Y0071638D01*
X0059339Y0074186D01*
X0060314Y0076541D01*
X0062116Y0078343D01*
X0064471Y0079318D01*
X0067019Y0079318D01*
X0069373Y0078343D01*
X0071175Y0076541D01*
X0072150Y0074186D01*
X0072150Y0071638D01*
X0072150Y0072085D02*
X0079863Y0072085D01*
X0080253Y0071695D02*
X0077441Y0074507D01*
X0077441Y0076195D01*
X0081941Y0076195D01*
X0081941Y0071695D01*
X0080253Y0071695D01*
X0081941Y0072085D02*
X0082541Y0072085D01*
X0082541Y0073083D02*
X0081941Y0073083D01*
X0081941Y0074082D02*
X0082541Y0074082D01*
X0082541Y0075080D02*
X0081941Y0075080D01*
X0081941Y0076079D02*
X0082541Y0076079D01*
X0082541Y0077077D02*
X0081941Y0077077D01*
X0081941Y0078076D02*
X0082541Y0078076D01*
X0082541Y0079074D02*
X0081941Y0079074D01*
X0081941Y0080073D02*
X0082541Y0080073D01*
X0082541Y0081071D02*
X0081941Y0081071D01*
X0080029Y0081071D02*
X0053934Y0081071D01*
X0053934Y0080073D02*
X0079031Y0080073D01*
X0078032Y0079074D02*
X0067606Y0079074D01*
X0069640Y0078076D02*
X0077441Y0078076D01*
X0077441Y0077077D02*
X0070638Y0077077D01*
X0071366Y0076079D02*
X0077441Y0076079D01*
X0077441Y0075080D02*
X0071780Y0075080D01*
X0072150Y0074082D02*
X0077866Y0074082D01*
X0078864Y0073083D02*
X0072150Y0073083D01*
X0071508Y0070088D02*
X0104670Y0070088D01*
X0105755Y0069089D02*
X0070981Y0069089D01*
X0069982Y0068091D02*
X0187438Y0068091D01*
X0187276Y0069089D02*
X0112349Y0069089D01*
X0113434Y0070088D02*
X0187532Y0070088D01*
X0188448Y0071086D02*
X0113505Y0071086D01*
X0109552Y0071086D02*
X0108552Y0071086D01*
X0108552Y0070088D02*
X0109552Y0070088D01*
X0109552Y0069089D02*
X0108552Y0069089D01*
X0104599Y0074082D02*
X0094468Y0074082D01*
X0094899Y0075080D02*
X0104599Y0075080D01*
X0104656Y0076079D02*
X0094899Y0076079D01*
X0094899Y0077077D02*
X0104953Y0077077D01*
X0113447Y0076079D02*
X0288470Y0076079D01*
X0288056Y0075080D02*
X0113505Y0075080D01*
X0113185Y0084067D02*
X0114469Y0084067D01*
X0115467Y0085066D02*
X0053934Y0085066D01*
X0053934Y0086064D02*
X0116466Y0086064D01*
X0117464Y0087063D02*
X0053934Y0087063D01*
X0053934Y0088061D02*
X0118463Y0088061D01*
X0119461Y0089060D02*
X0053934Y0089060D01*
X0053934Y0090058D02*
X0120460Y0090058D01*
X0121458Y0091057D02*
X0053934Y0091057D01*
X0053934Y0092055D02*
X0122457Y0092055D01*
X0123455Y0093054D02*
X0053934Y0093054D01*
X0053934Y0094052D02*
X0124454Y0094052D01*
X0125452Y0095051D02*
X0053934Y0095051D01*
X0053934Y0096049D02*
X0126451Y0096049D01*
X0127449Y0097048D02*
X0053934Y0097048D01*
X0053934Y0098046D02*
X0128448Y0098046D01*
X0129446Y0099045D02*
X0082529Y0099045D01*
X0082323Y0098839D02*
X0083322Y0099838D01*
X0083863Y0101143D01*
X0083863Y0102556D01*
X0083322Y0103861D01*
X0082706Y0104477D01*
X0083128Y0104302D01*
X0086505Y0104302D01*
X0086505Y0103203D01*
X0087374Y0102334D01*
X0111045Y0102334D01*
X0111914Y0103203D01*
X0111914Y0110732D01*
X0111045Y0111601D01*
X0087374Y0111601D01*
X0086505Y0110732D01*
X0086505Y0109633D01*
X0084762Y0109633D01*
X0084257Y0110138D01*
X0084257Y0110627D01*
X0083716Y0111932D01*
X0082717Y0112931D01*
X0082381Y0113070D01*
X0082717Y0113209D01*
X0083716Y0114208D01*
X0084257Y0115513D01*
X0084257Y0116926D01*
X0083716Y0118231D01*
X0082717Y0119230D01*
X0082400Y0119361D01*
X0082979Y0119748D01*
X0083476Y0120245D01*
X0083866Y0120829D01*
X0084135Y0121478D01*
X0084272Y0122167D01*
X0084272Y0122330D01*
X0080894Y0122330D01*
X0080894Y0122708D01*
X0080516Y0122708D01*
X0080516Y0126085D01*
X0080354Y0126085D01*
X0079665Y0125948D01*
X0079016Y0125680D01*
X0078432Y0125289D01*
X0077935Y0124792D01*
X0077544Y0124208D01*
X0077276Y0123559D01*
X0077138Y0122870D01*
X0077138Y0122708D01*
X0080516Y0122708D01*
X0080516Y0122330D01*
X0077138Y0122330D01*
X0077138Y0122167D01*
X0077276Y0121478D01*
X0077544Y0120829D01*
X0077935Y0120245D01*
X0078432Y0119748D01*
X0079011Y0119361D01*
X0078694Y0119230D01*
X0077695Y0118231D01*
X0077154Y0116926D01*
X0077154Y0115513D01*
X0077695Y0114208D01*
X0078694Y0113209D01*
X0079030Y0113070D01*
X0078694Y0112931D01*
X0077695Y0111932D01*
X0077154Y0110627D01*
X0077154Y0109214D01*
X0077695Y0107909D01*
X0078694Y0106910D01*
X0079999Y0106369D01*
X0080487Y0106369D01*
X0081765Y0105091D01*
X0081018Y0105400D01*
X0079605Y0105400D01*
X0078300Y0104860D01*
X0077301Y0103861D01*
X0076760Y0102556D01*
X0076760Y0101143D01*
X0077301Y0099838D01*
X0078300Y0098839D01*
X0079605Y0098298D01*
X0081018Y0098298D01*
X0082323Y0098839D01*
X0083407Y0100043D02*
X0130445Y0100043D01*
X0131443Y0101042D02*
X0083821Y0101042D01*
X0083863Y0102040D02*
X0132442Y0102040D01*
X0133440Y0103039D02*
X0111750Y0103039D01*
X0111914Y0104037D02*
X0134439Y0104037D01*
X0135437Y0105036D02*
X0111914Y0105036D01*
X0111914Y0106034D02*
X0136436Y0106034D01*
X0137434Y0107033D02*
X0121213Y0107033D01*
X0120800Y0106619D02*
X0119194Y0106619D01*
X0119194Y0110919D01*
X0118594Y0110919D01*
X0114294Y0110919D01*
X0114294Y0109314D01*
X0116989Y0106619D01*
X0118594Y0106619D01*
X0118594Y0110919D01*
X0118594Y0111519D01*
X0114294Y0111519D01*
X0114294Y0113125D01*
X0116989Y0115819D01*
X0118594Y0115819D01*
X0118594Y0111519D01*
X0119194Y0111519D01*
X0119194Y0115819D01*
X0120800Y0115819D01*
X0123494Y0113125D01*
X0123494Y0111519D01*
X0119194Y0111519D01*
X0119194Y0110919D01*
X0123494Y0110919D01*
X0123494Y0109314D01*
X0120800Y0106619D01*
X0119194Y0107033D02*
X0118594Y0107033D01*
X0118594Y0108031D02*
X0119194Y0108031D01*
X0119194Y0109030D02*
X0118594Y0109030D01*
X0118594Y0110028D02*
X0119194Y0110028D01*
X0119194Y0111027D02*
X0141429Y0111027D01*
X0142427Y0112025D02*
X0123494Y0112025D01*
X0123494Y0113024D02*
X0141959Y0113024D01*
X0141900Y0114022D02*
X0122597Y0114022D01*
X0121598Y0115021D02*
X0138812Y0115021D01*
X0138505Y0115328D02*
X0138505Y0115328D01*
X0140430Y0110028D02*
X0123494Y0110028D01*
X0123210Y0109030D02*
X0139431Y0109030D01*
X0138433Y0108031D02*
X0122212Y0108031D01*
X0118594Y0111027D02*
X0111619Y0111027D01*
X0111914Y0110028D02*
X0114294Y0110028D01*
X0114579Y0109030D02*
X0111914Y0109030D01*
X0111914Y0108031D02*
X0115577Y0108031D01*
X0116576Y0107033D02*
X0111914Y0107033D01*
X0114294Y0112025D02*
X0083622Y0112025D01*
X0084091Y0111027D02*
X0086800Y0111027D01*
X0086505Y0110028D02*
X0084367Y0110028D01*
X0082492Y0113024D02*
X0114294Y0113024D01*
X0115192Y0114022D02*
X0083530Y0114022D01*
X0084053Y0115021D02*
X0116190Y0115021D01*
X0117058Y0117018D02*
X0084218Y0117018D01*
X0084257Y0116019D02*
X0130670Y0116019D01*
X0129122Y0117018D02*
X0120730Y0117018D01*
X0122174Y0118016D02*
X0128123Y0118016D01*
X0119194Y0115021D02*
X0118594Y0115021D01*
X0118594Y0114022D02*
X0119194Y0114022D01*
X0119194Y0113024D02*
X0118594Y0113024D01*
X0118594Y0112025D02*
X0119194Y0112025D01*
X0115614Y0118016D02*
X0083805Y0118016D01*
X0082932Y0119015D02*
X0114845Y0119015D01*
X0114432Y0120013D02*
X0083245Y0120013D01*
X0083942Y0121012D02*
X0087200Y0121012D01*
X0086505Y0122010D02*
X0084241Y0122010D01*
X0084272Y0122708D02*
X0084272Y0122870D01*
X0084135Y0123559D01*
X0083866Y0124208D01*
X0083476Y0124792D01*
X0082979Y0125289D01*
X0082395Y0125680D01*
X0081746Y0125948D01*
X0081057Y0126085D01*
X0080894Y0126085D01*
X0080894Y0122708D01*
X0084272Y0122708D01*
X0084245Y0123009D02*
X0086505Y0123009D01*
X0086505Y0124007D02*
X0083949Y0124007D01*
X0083262Y0125006D02*
X0086505Y0125006D01*
X0086505Y0126004D02*
X0081464Y0126004D01*
X0080894Y0126004D02*
X0080516Y0126004D01*
X0079947Y0126004D02*
X0053934Y0126004D01*
X0053934Y0125006D02*
X0078148Y0125006D01*
X0077461Y0124007D02*
X0053934Y0124007D01*
X0053934Y0123009D02*
X0077166Y0123009D01*
X0077170Y0122010D02*
X0072850Y0122010D01*
X0072481Y0122379D02*
X0071176Y0122920D01*
X0069763Y0122920D01*
X0068458Y0122379D01*
X0067459Y0121381D01*
X0066918Y0120075D01*
X0066918Y0118663D01*
X0067459Y0117357D01*
X0068458Y0116358D01*
X0068793Y0116219D01*
X0068458Y0116080D01*
X0067459Y0115081D01*
X0066918Y0113776D01*
X0066918Y0112363D01*
X0067459Y0111058D01*
X0068458Y0110059D01*
X0069763Y0109519D01*
X0071176Y0109519D01*
X0072481Y0110059D01*
X0073480Y0111058D01*
X0074020Y0112363D01*
X0074020Y0113776D01*
X0073480Y0115081D01*
X0072481Y0116080D01*
X0072145Y0116219D01*
X0072481Y0116358D01*
X0073480Y0117357D01*
X0074020Y0118663D01*
X0074020Y0120075D01*
X0073480Y0121381D01*
X0072481Y0122379D01*
X0073632Y0121012D02*
X0077469Y0121012D01*
X0078166Y0120013D02*
X0074020Y0120013D01*
X0074020Y0119015D02*
X0078479Y0119015D01*
X0077606Y0118016D02*
X0073753Y0118016D01*
X0073140Y0117018D02*
X0077192Y0117018D01*
X0077154Y0116019D02*
X0072542Y0116019D01*
X0073505Y0115021D02*
X0077358Y0115021D01*
X0077880Y0114022D02*
X0073918Y0114022D01*
X0074020Y0113024D02*
X0078919Y0113024D01*
X0077788Y0112025D02*
X0073880Y0112025D01*
X0073448Y0111027D02*
X0077320Y0111027D01*
X0077154Y0110028D02*
X0072406Y0110028D01*
X0068532Y0110028D02*
X0053934Y0110028D01*
X0053934Y0109030D02*
X0077230Y0109030D01*
X0077644Y0108031D02*
X0053934Y0108031D01*
X0053934Y0107033D02*
X0078571Y0107033D01*
X0078725Y0105036D02*
X0072450Y0105036D01*
X0072874Y0104860D02*
X0071569Y0105400D01*
X0070156Y0105400D01*
X0068851Y0104860D01*
X0067852Y0103861D01*
X0067312Y0102556D01*
X0067312Y0101143D01*
X0067852Y0099838D01*
X0068851Y0098839D01*
X0070156Y0098298D01*
X0071569Y0098298D01*
X0072874Y0098839D01*
X0073873Y0099838D01*
X0074414Y0101143D01*
X0074414Y0102556D01*
X0073873Y0103861D01*
X0072874Y0104860D01*
X0073697Y0104037D02*
X0077478Y0104037D01*
X0076961Y0103039D02*
X0074214Y0103039D01*
X0074414Y0102040D02*
X0076760Y0102040D01*
X0076802Y0101042D02*
X0074372Y0101042D01*
X0073959Y0100043D02*
X0077216Y0100043D01*
X0078094Y0099045D02*
X0073080Y0099045D01*
X0068645Y0099045D02*
X0053934Y0099045D01*
X0053934Y0100043D02*
X0067767Y0100043D01*
X0067354Y0101042D02*
X0053934Y0101042D01*
X0053934Y0102040D02*
X0067312Y0102040D01*
X0067512Y0103039D02*
X0053934Y0103039D01*
X0053934Y0104037D02*
X0068029Y0104037D01*
X0069276Y0105036D02*
X0053934Y0105036D01*
X0053934Y0106034D02*
X0080822Y0106034D01*
X0083146Y0104037D02*
X0086505Y0104037D01*
X0086669Y0103039D02*
X0083663Y0103039D01*
X0067490Y0111027D02*
X0053934Y0111027D01*
X0053934Y0112025D02*
X0067058Y0112025D01*
X0066918Y0113024D02*
X0053934Y0113024D01*
X0053934Y0114022D02*
X0067020Y0114022D01*
X0067434Y0115021D02*
X0053934Y0115021D01*
X0053934Y0116019D02*
X0068397Y0116019D01*
X0067798Y0117018D02*
X0053934Y0117018D01*
X0053934Y0118016D02*
X0067186Y0118016D01*
X0066918Y0119015D02*
X0053934Y0119015D01*
X0053934Y0120013D02*
X0066918Y0120013D01*
X0067306Y0121012D02*
X0053934Y0121012D01*
X0053934Y0122010D02*
X0068089Y0122010D01*
X0070156Y0127038D02*
X0071569Y0127038D01*
X0072874Y0127579D01*
X0073873Y0128578D01*
X0074414Y0129883D01*
X0074414Y0131296D01*
X0073873Y0132601D01*
X0072874Y0133600D01*
X0071569Y0134141D01*
X0070156Y0134141D01*
X0068851Y0133600D01*
X0067852Y0132601D01*
X0067312Y0131296D01*
X0067312Y0129883D01*
X0067852Y0128578D01*
X0068851Y0127579D01*
X0070156Y0127038D01*
X0068429Y0128002D02*
X0053934Y0128002D01*
X0053934Y0129000D02*
X0067677Y0129000D01*
X0067312Y0129999D02*
X0053934Y0129999D01*
X0053934Y0130997D02*
X0067312Y0130997D01*
X0067602Y0131996D02*
X0053934Y0131996D01*
X0053934Y0132994D02*
X0068245Y0132994D01*
X0069799Y0133993D02*
X0053934Y0133993D01*
X0053934Y0134991D02*
X0087768Y0134991D01*
X0087773Y0134983D02*
X0088052Y0134704D01*
X0088394Y0134507D01*
X0088776Y0134404D01*
X0091032Y0134404D01*
X0091032Y0138357D01*
X0087473Y0138357D01*
X0087473Y0135707D01*
X0087575Y0135325D01*
X0087773Y0134983D01*
X0087473Y0135990D02*
X0053934Y0135990D01*
X0053934Y0136988D02*
X0087473Y0136988D01*
X0087473Y0137987D02*
X0053934Y0137987D01*
X0053934Y0138985D02*
X0091032Y0138985D01*
X0091032Y0139357D02*
X0087473Y0139357D01*
X0087473Y0142007D01*
X0087575Y0142389D01*
X0087773Y0142731D01*
X0088052Y0143010D01*
X0088394Y0143208D01*
X0088776Y0143310D01*
X0091032Y0143310D01*
X0091032Y0139357D01*
X0091032Y0139984D02*
X0092032Y0139984D01*
X0092032Y0140982D02*
X0091032Y0140982D01*
X0091032Y0141981D02*
X0092032Y0141981D01*
X0092032Y0142979D02*
X0091032Y0142979D01*
X0088021Y0142979D02*
X0053934Y0142979D01*
X0053934Y0141981D02*
X0087473Y0141981D01*
X0087473Y0140982D02*
X0053934Y0140982D01*
X0053934Y0139984D02*
X0087473Y0139984D01*
X0091032Y0137987D02*
X0092032Y0137987D01*
X0092032Y0136988D02*
X0091032Y0136988D01*
X0091032Y0135990D02*
X0092032Y0135990D01*
X0092032Y0134991D02*
X0091032Y0134991D01*
X0096347Y0133993D02*
X0081375Y0133993D01*
X0081018Y0134141D02*
X0079605Y0134141D01*
X0078300Y0133600D01*
X0077301Y0132601D01*
X0076760Y0131296D01*
X0076760Y0129883D01*
X0077301Y0128578D01*
X0078300Y0127579D01*
X0079605Y0127038D01*
X0081018Y0127038D01*
X0082323Y0127579D01*
X0083322Y0128578D01*
X0083863Y0129883D01*
X0083863Y0131296D01*
X0083322Y0132601D01*
X0082323Y0133600D01*
X0081018Y0134141D01*
X0079248Y0133993D02*
X0071927Y0133993D01*
X0073480Y0132994D02*
X0077694Y0132994D01*
X0077050Y0131996D02*
X0074124Y0131996D01*
X0074414Y0130997D02*
X0076760Y0130997D01*
X0076760Y0129999D02*
X0074414Y0129999D01*
X0074048Y0129000D02*
X0077126Y0129000D01*
X0077877Y0128002D02*
X0073297Y0128002D01*
X0080516Y0125006D02*
X0080894Y0125006D01*
X0080894Y0124007D02*
X0080516Y0124007D01*
X0080516Y0123009D02*
X0080894Y0123009D01*
X0086505Y0127003D02*
X0053934Y0127003D01*
X0053934Y0143978D02*
X0148284Y0143978D01*
X0148284Y0144976D02*
X0053934Y0144976D01*
X0053934Y0153963D02*
X0062438Y0153963D01*
X0061251Y0154961D02*
X0053934Y0154961D01*
X0053934Y0155960D02*
X0060289Y0155960D01*
X0059875Y0156958D02*
X0053934Y0156958D01*
X0053934Y0157957D02*
X0059462Y0157957D01*
X0059339Y0158955D02*
X0053934Y0158955D01*
X0053934Y0159954D02*
X0059339Y0159954D01*
X0059402Y0160952D02*
X0053934Y0160952D01*
X0053934Y0161951D02*
X0059816Y0161951D01*
X0060229Y0162949D02*
X0053934Y0162949D01*
X0053934Y0163948D02*
X0061107Y0163948D01*
X0062106Y0164946D02*
X0053934Y0164946D01*
X0053934Y0167942D02*
X0305902Y0167942D01*
X0305902Y0168940D02*
X0053934Y0168940D01*
X0053934Y0169939D02*
X0305902Y0169939D01*
X0305902Y0170937D02*
X0053934Y0170937D01*
X0083931Y0158955D02*
X0086951Y0158955D01*
X0085953Y0157957D02*
X0084929Y0157957D01*
X0095043Y0142979D02*
X0095524Y0142979D01*
X0102501Y0142979D02*
X0148284Y0142979D01*
X0148284Y0141981D02*
X0103056Y0141981D01*
X0096347Y0132994D02*
X0082929Y0132994D01*
X0083573Y0131996D02*
X0096347Y0131996D01*
X0096347Y0130997D02*
X0083863Y0130997D01*
X0083863Y0129999D02*
X0087267Y0129999D01*
X0086505Y0129000D02*
X0083497Y0129000D01*
X0082746Y0128002D02*
X0086505Y0128002D01*
X0111151Y0129999D02*
X0115245Y0129999D01*
X0115245Y0129000D02*
X0111914Y0129000D01*
X0111914Y0128002D02*
X0115245Y0128002D01*
X0115245Y0127003D02*
X0111914Y0127003D01*
X0111914Y0126004D02*
X0115245Y0126004D01*
X0115245Y0125006D02*
X0111914Y0125006D01*
X0111914Y0124007D02*
X0115199Y0124007D01*
X0114674Y0123009D02*
X0111914Y0123009D01*
X0111914Y0122010D02*
X0114310Y0122010D01*
X0114310Y0121012D02*
X0111219Y0121012D01*
X0138982Y0101042D02*
X0146347Y0101042D01*
X0147057Y0102040D02*
X0139981Y0102040D01*
X0140979Y0103039D02*
X0148055Y0103039D01*
X0149054Y0104037D02*
X0141978Y0104037D01*
X0142976Y0105036D02*
X0150052Y0105036D01*
X0146815Y0106034D02*
X0143975Y0106034D01*
X0144973Y0107033D02*
X0146347Y0107033D01*
X0146347Y0108031D02*
X0145972Y0108031D01*
X0152925Y0102040D02*
X0153761Y0102040D01*
X0154760Y0101042D02*
X0151926Y0101042D01*
X0152327Y0100043D02*
X0154359Y0100043D01*
X0153827Y0099045D02*
X0152859Y0099045D01*
X0152859Y0098046D02*
X0153827Y0098046D01*
X0153827Y0097048D02*
X0152859Y0097048D01*
X0152859Y0096049D02*
X0153827Y0096049D01*
X0153827Y0095051D02*
X0152859Y0095051D01*
X0152859Y0094052D02*
X0153827Y0094052D01*
X0153937Y0093054D02*
X0152749Y0093054D01*
X0152738Y0092055D02*
X0153948Y0092055D01*
X0153812Y0091057D02*
X0152875Y0091057D01*
X0152875Y0090058D02*
X0153812Y0090058D01*
X0153812Y0088061D02*
X0152875Y0088061D01*
X0152875Y0087063D02*
X0153812Y0087063D01*
X0153821Y0086064D02*
X0152865Y0086064D01*
X0152240Y0085066D02*
X0154447Y0085066D01*
X0157764Y0089060D02*
X0148922Y0089060D01*
X0148922Y0088061D02*
X0147922Y0088061D01*
X0147922Y0088357D02*
X0147922Y0084798D01*
X0145272Y0084798D01*
X0144890Y0084900D01*
X0144548Y0085098D01*
X0144269Y0085377D01*
X0144071Y0085719D01*
X0143969Y0086101D01*
X0143969Y0088357D01*
X0147922Y0088357D01*
X0147922Y0089060D02*
X0127000Y0089060D01*
X0127998Y0090058D02*
X0143969Y0090058D01*
X0143969Y0091057D02*
X0128997Y0091057D01*
X0129996Y0092055D02*
X0144106Y0092055D01*
X0144095Y0093054D02*
X0130994Y0093054D01*
X0131993Y0094052D02*
X0143985Y0094052D01*
X0143985Y0095051D02*
X0132991Y0095051D01*
X0133990Y0096049D02*
X0143985Y0096049D01*
X0143985Y0097048D02*
X0134988Y0097048D01*
X0135987Y0098046D02*
X0143985Y0098046D01*
X0143985Y0099045D02*
X0136985Y0099045D01*
X0137984Y0100043D02*
X0144517Y0100043D01*
X0143969Y0088061D02*
X0126001Y0088061D01*
X0125003Y0087063D02*
X0143969Y0087063D01*
X0143979Y0086064D02*
X0124004Y0086064D01*
X0123006Y0085066D02*
X0144604Y0085066D01*
X0147922Y0085066D02*
X0148922Y0085066D01*
X0148922Y0086064D02*
X0147922Y0086064D01*
X0147922Y0087063D02*
X0148922Y0087063D01*
X0162717Y0091057D02*
X0262095Y0091057D01*
X0262513Y0092055D02*
X0162580Y0092055D01*
X0162591Y0093054D02*
X0264556Y0093054D01*
X0264556Y0094052D02*
X0162701Y0094052D01*
X0162701Y0095051D02*
X0264556Y0095051D01*
X0264556Y0096049D02*
X0162701Y0096049D01*
X0162701Y0097048D02*
X0262542Y0097048D01*
X0262095Y0098046D02*
X0162701Y0098046D01*
X0162701Y0099045D02*
X0262095Y0099045D01*
X0262095Y0100043D02*
X0162170Y0100043D01*
X0173894Y0123009D02*
X0175644Y0123009D01*
X0175449Y0124007D02*
X0176341Y0124007D01*
X0171730Y0127003D02*
X0158334Y0127003D01*
X0158334Y0126004D02*
X0171021Y0126004D01*
X0170022Y0125006D02*
X0158334Y0125006D01*
X0158334Y0137987D02*
X0158611Y0137987D01*
X0165844Y0145975D02*
X0166433Y0145975D01*
X0167902Y0146973D02*
X0161204Y0146973D01*
X0162203Y0147972D02*
X0167024Y0147972D01*
X0257386Y0130997D02*
X0262095Y0130997D01*
X0262095Y0129999D02*
X0257386Y0129999D01*
X0257386Y0129000D02*
X0262095Y0129000D01*
X0262095Y0128002D02*
X0257386Y0128002D01*
X0257386Y0127003D02*
X0262095Y0127003D01*
X0262095Y0126004D02*
X0257386Y0126004D01*
X0257386Y0125006D02*
X0262095Y0125006D01*
X0262576Y0124007D02*
X0257386Y0124007D01*
X0257386Y0123009D02*
X0262095Y0123009D01*
X0262095Y0122010D02*
X0257386Y0122010D01*
X0257635Y0121012D02*
X0262095Y0121012D01*
X0262095Y0120013D02*
X0258633Y0120013D01*
X0259632Y0119015D02*
X0262095Y0119015D01*
X0262095Y0118016D02*
X0260630Y0118016D01*
X0261629Y0117018D02*
X0262257Y0117018D01*
X0286859Y0106034D02*
X0287314Y0106034D01*
X0278556Y0134656D02*
X0276556Y0134656D01*
X0274708Y0135422D01*
X0273294Y0136836D01*
X0272528Y0138684D01*
X0272528Y0140684D01*
X0273294Y0142532D01*
X0274708Y0143946D01*
X0276556Y0144711D01*
X0278556Y0144711D01*
X0280404Y0143946D01*
X0281818Y0142532D01*
X0282583Y0140684D01*
X0282583Y0138684D01*
X0281818Y0136836D01*
X0280404Y0135422D01*
X0278556Y0134656D01*
X0279364Y0134991D02*
X0305902Y0134991D01*
X0305902Y0133993D02*
X0268509Y0133993D01*
X0268509Y0134991D02*
X0275748Y0134991D01*
X0274140Y0135990D02*
X0268509Y0135990D01*
X0270969Y0136988D02*
X0273231Y0136988D01*
X0272817Y0137987D02*
X0270969Y0137987D01*
X0270969Y0138985D02*
X0272528Y0138985D01*
X0272528Y0139984D02*
X0270969Y0139984D01*
X0270969Y0140982D02*
X0272652Y0140982D01*
X0273065Y0141981D02*
X0270969Y0141981D01*
X0270969Y0142979D02*
X0273741Y0142979D01*
X0274784Y0143978D02*
X0270624Y0143978D01*
X0270985Y0144976D02*
X0305902Y0144976D01*
X0305902Y0143978D02*
X0280327Y0143978D01*
X0281371Y0142979D02*
X0305902Y0142979D01*
X0305902Y0141981D02*
X0282046Y0141981D01*
X0282460Y0140982D02*
X0305902Y0140982D01*
X0305902Y0139984D02*
X0282583Y0139984D01*
X0282583Y0138985D02*
X0305902Y0138985D01*
X0305902Y0137987D02*
X0282295Y0137987D01*
X0281881Y0136988D02*
X0305902Y0136988D01*
X0305902Y0135990D02*
X0280971Y0135990D01*
X0270985Y0145975D02*
X0305902Y0145975D01*
X0305902Y0146973D02*
X0270985Y0146973D01*
X0297398Y0153963D02*
X0305902Y0153963D01*
X0305902Y0154961D02*
X0298585Y0154961D01*
X0299547Y0155960D02*
X0305902Y0155960D01*
X0305902Y0156958D02*
X0299961Y0156958D01*
X0300374Y0157957D02*
X0305902Y0157957D01*
X0305902Y0158955D02*
X0300497Y0158955D01*
X0300497Y0159954D02*
X0305902Y0159954D01*
X0305902Y0160952D02*
X0300434Y0160952D01*
X0300020Y0161951D02*
X0305902Y0161951D01*
X0305902Y0162949D02*
X0299607Y0162949D01*
X0298728Y0163948D02*
X0305902Y0163948D01*
X0305902Y0164946D02*
X0297730Y0164946D01*
X0188130Y0067092D02*
X0068433Y0067092D01*
X0063057Y0067092D02*
X0053934Y0067092D01*
X0053934Y0068091D02*
X0061507Y0068091D01*
X0060509Y0069089D02*
X0053934Y0069089D01*
X0053934Y0070088D02*
X0059981Y0070088D01*
X0059568Y0071086D02*
X0053934Y0071086D01*
X0053934Y0072085D02*
X0059339Y0072085D01*
X0059339Y0073083D02*
X0053934Y0073083D01*
X0053934Y0074082D02*
X0059339Y0074082D01*
X0059710Y0075080D02*
X0053934Y0075080D01*
X0053934Y0076079D02*
X0060123Y0076079D01*
X0060851Y0077077D02*
X0053934Y0077077D01*
X0053934Y0078076D02*
X0061850Y0078076D01*
X0063883Y0079074D02*
X0053934Y0079074D01*
X0053934Y0082070D02*
X0091920Y0082070D01*
X0093229Y0083068D02*
X0053934Y0083068D01*
X0053934Y0084067D02*
X0104919Y0084067D01*
X0087925Y0081071D02*
X0084452Y0081071D01*
X0085451Y0080073D02*
X0086927Y0080073D01*
X0086760Y0073083D02*
X0085617Y0073083D01*
X0084619Y0072085D02*
X0087759Y0072085D01*
D29*
X0144959Y0110788D02*
X0145979Y0110788D01*
X0148459Y0110788D01*
X0148422Y0110788D01*
X0148422Y0107361D01*
X0150390Y0107361D01*
X0150390Y0110788D01*
X0150359Y0110788D01*
X0152359Y0110788D02*
X0152359Y0104408D01*
X0148422Y0100471D01*
X0148422Y0096337D01*
X0158264Y0096337D02*
X0158264Y0100471D01*
X0154359Y0104377D01*
X0154359Y0110788D01*
X0159759Y0116188D02*
X0164201Y0116188D01*
X0166138Y0114251D01*
X0159759Y0118188D02*
X0181886Y0118188D01*
X0177949Y0122125D02*
X0176012Y0120188D01*
X0159759Y0120188D01*
X0159759Y0122088D02*
X0170038Y0122088D01*
X0174012Y0126062D01*
X0177949Y0122125D02*
X0176012Y0120188D01*
X0156259Y0125588D02*
X0156259Y0139804D01*
X0158264Y0141810D01*
X0162398Y0141810D01*
X0169879Y0141810D02*
X0178146Y0141810D01*
X0154359Y0131542D02*
X0154359Y0125588D01*
X0154327Y0125588D01*
X0152359Y0125588D02*
X0152359Y0131574D01*
X0153343Y0132558D01*
X0154359Y0131542D01*
X0150359Y0125588D02*
X0150359Y0161463D01*
X0150390Y0161495D01*
X0156493Y0161495D01*
X0150390Y0161495D02*
X0144288Y0161495D01*
X0140361Y0130196D02*
X0140351Y0130196D01*
X0145219Y0125338D02*
X0145469Y0125588D01*
X0148459Y0125588D01*
X0145219Y0125338D02*
X0144959Y0125078D01*
X0144959Y0122088D01*
X0144959Y0120188D02*
X0140579Y0120188D01*
X0140548Y0120156D01*
X0140548Y0118188D01*
X0144959Y0118188D01*
X0144959Y0116188D02*
X0140579Y0116188D01*
X0140548Y0116219D01*
X0140548Y0118188D01*
X0144959Y0114288D02*
X0144959Y0111808D01*
X0145979Y0110788D01*
X0152359Y0118188D02*
X0154327Y0120156D01*
X0132674Y0122125D02*
X0132674Y0130196D01*
D30*
X0140351Y0130196D01*
X0140361Y0130196D02*
X0145219Y0125338D01*
X0140068Y0118667D02*
X0131242Y0118667D01*
X0128690Y0121219D01*
X0118894Y0121219D01*
X0117910Y0122204D01*
X0117910Y0132952D01*
X0108068Y0132952D01*
X0099454Y0132952D01*
X0099012Y0132510D01*
X0099012Y0125668D01*
X0099209Y0125471D01*
X0099012Y0132510D02*
X0099012Y0138857D01*
X0102162Y0132952D02*
X0108068Y0132952D01*
X0140068Y0118667D02*
X0140548Y0118188D01*
X0144959Y0110788D02*
X0114760Y0080589D01*
X0109052Y0080589D01*
X0094209Y0080589D01*
X0090115Y0076495D01*
X0083658Y0106967D02*
X0080705Y0109920D01*
X0083658Y0106967D02*
X0099209Y0106967D01*
X0163973Y0161495D02*
X0182319Y0161495D01*
X0184071Y0159743D01*
X0213304Y0159743D01*
X0212595Y0159034D01*
X0212595Y0145747D01*
X0212595Y0151734D01*
X0212460Y0151869D01*
X0213304Y0159743D02*
X0227494Y0159743D01*
X0242694Y0159743D01*
X0254721Y0147715D01*
X0254721Y0120156D01*
X0261170Y0113708D01*
X0266572Y0113708D01*
X0266532Y0113669D01*
X0266532Y0120353D01*
X0266572Y0113708D02*
X0272879Y0113708D01*
X0279327Y0120156D01*
X0266532Y0113669D02*
X0266532Y0108148D01*
X0240548Y0112282D02*
X0240548Y0114285D01*
X0238973Y0115860D01*
X0238973Y0143778D01*
X0237005Y0145747D01*
X0229918Y0145747D01*
X0201965Y0114841D02*
X0194319Y0122487D01*
X0201965Y0114841D02*
X0201965Y0112282D01*
D31*
X0227494Y0159743D03*
D32*
X0266532Y0140038D02*
X0266532Y0127834D01*
X0278383Y0127834D01*
X0288186Y0118030D01*
X0288186Y0110156D02*
X0278698Y0100668D01*
X0266532Y0100668D01*
X0266532Y0088463D01*
X0169879Y0141810D02*
X0169879Y0147912D01*
X0167123Y0150668D01*
X0159406Y0150668D01*
M02*
