G75*
%MOIN*%
%OFA0B0*%
%FSLAX25Y25*%
%IPPOS*%
%LPD*%
%AMOC8*
5,1,8,0,0,1.08239X$1,22.5*
%
%ADD10C,0.00000*%
%ADD11C,0.01000*%
%ADD12C,0.01181*%
%ADD13C,0.00600*%
%ADD14C,0.00200*%
%ADD15C,0.00500*%
%ADD16C,0.00300*%
%ADD17C,0.00400*%
D10*
X0001500Y0057164D02*
X0001500Y0175274D01*
X0257406Y0175274D01*
X0257406Y0057164D01*
X0001500Y0057164D01*
X0222956Y0088503D02*
X0222958Y0088637D01*
X0222964Y0088771D01*
X0222974Y0088905D01*
X0222988Y0089039D01*
X0223006Y0089172D01*
X0223027Y0089304D01*
X0223053Y0089436D01*
X0223083Y0089567D01*
X0223116Y0089697D01*
X0223153Y0089825D01*
X0223195Y0089953D01*
X0223239Y0090080D01*
X0223288Y0090205D01*
X0223340Y0090328D01*
X0223396Y0090450D01*
X0223456Y0090571D01*
X0223519Y0090689D01*
X0223585Y0090806D01*
X0223655Y0090920D01*
X0223728Y0091033D01*
X0223805Y0091143D01*
X0223885Y0091251D01*
X0223968Y0091356D01*
X0224054Y0091459D01*
X0224143Y0091559D01*
X0224235Y0091657D01*
X0224330Y0091752D01*
X0224428Y0091844D01*
X0224528Y0091933D01*
X0224631Y0092019D01*
X0224736Y0092102D01*
X0224844Y0092182D01*
X0224954Y0092259D01*
X0225067Y0092332D01*
X0225181Y0092402D01*
X0225298Y0092468D01*
X0225416Y0092531D01*
X0225537Y0092591D01*
X0225659Y0092647D01*
X0225782Y0092699D01*
X0225907Y0092748D01*
X0226034Y0092792D01*
X0226162Y0092834D01*
X0226290Y0092871D01*
X0226420Y0092904D01*
X0226551Y0092934D01*
X0226683Y0092960D01*
X0226815Y0092981D01*
X0226948Y0092999D01*
X0227082Y0093013D01*
X0227216Y0093023D01*
X0227350Y0093029D01*
X0227484Y0093031D01*
X0227618Y0093029D01*
X0227752Y0093023D01*
X0227886Y0093013D01*
X0228020Y0092999D01*
X0228153Y0092981D01*
X0228285Y0092960D01*
X0228417Y0092934D01*
X0228548Y0092904D01*
X0228678Y0092871D01*
X0228806Y0092834D01*
X0228934Y0092792D01*
X0229061Y0092748D01*
X0229186Y0092699D01*
X0229309Y0092647D01*
X0229431Y0092591D01*
X0229552Y0092531D01*
X0229670Y0092468D01*
X0229787Y0092402D01*
X0229901Y0092332D01*
X0230014Y0092259D01*
X0230124Y0092182D01*
X0230232Y0092102D01*
X0230337Y0092019D01*
X0230440Y0091933D01*
X0230540Y0091844D01*
X0230638Y0091752D01*
X0230733Y0091657D01*
X0230825Y0091559D01*
X0230914Y0091459D01*
X0231000Y0091356D01*
X0231083Y0091251D01*
X0231163Y0091143D01*
X0231240Y0091033D01*
X0231313Y0090920D01*
X0231383Y0090806D01*
X0231449Y0090689D01*
X0231512Y0090571D01*
X0231572Y0090450D01*
X0231628Y0090328D01*
X0231680Y0090205D01*
X0231729Y0090080D01*
X0231773Y0089953D01*
X0231815Y0089825D01*
X0231852Y0089697D01*
X0231885Y0089567D01*
X0231915Y0089436D01*
X0231941Y0089304D01*
X0231962Y0089172D01*
X0231980Y0089039D01*
X0231994Y0088905D01*
X0232004Y0088771D01*
X0232010Y0088637D01*
X0232012Y0088503D01*
X0232010Y0088369D01*
X0232004Y0088235D01*
X0231994Y0088101D01*
X0231980Y0087967D01*
X0231962Y0087834D01*
X0231941Y0087702D01*
X0231915Y0087570D01*
X0231885Y0087439D01*
X0231852Y0087309D01*
X0231815Y0087181D01*
X0231773Y0087053D01*
X0231729Y0086926D01*
X0231680Y0086801D01*
X0231628Y0086678D01*
X0231572Y0086556D01*
X0231512Y0086435D01*
X0231449Y0086317D01*
X0231383Y0086200D01*
X0231313Y0086086D01*
X0231240Y0085973D01*
X0231163Y0085863D01*
X0231083Y0085755D01*
X0231000Y0085650D01*
X0230914Y0085547D01*
X0230825Y0085447D01*
X0230733Y0085349D01*
X0230638Y0085254D01*
X0230540Y0085162D01*
X0230440Y0085073D01*
X0230337Y0084987D01*
X0230232Y0084904D01*
X0230124Y0084824D01*
X0230014Y0084747D01*
X0229901Y0084674D01*
X0229787Y0084604D01*
X0229670Y0084538D01*
X0229552Y0084475D01*
X0229431Y0084415D01*
X0229309Y0084359D01*
X0229186Y0084307D01*
X0229061Y0084258D01*
X0228934Y0084214D01*
X0228806Y0084172D01*
X0228678Y0084135D01*
X0228548Y0084102D01*
X0228417Y0084072D01*
X0228285Y0084046D01*
X0228153Y0084025D01*
X0228020Y0084007D01*
X0227886Y0083993D01*
X0227752Y0083983D01*
X0227618Y0083977D01*
X0227484Y0083975D01*
X0227350Y0083977D01*
X0227216Y0083983D01*
X0227082Y0083993D01*
X0226948Y0084007D01*
X0226815Y0084025D01*
X0226683Y0084046D01*
X0226551Y0084072D01*
X0226420Y0084102D01*
X0226290Y0084135D01*
X0226162Y0084172D01*
X0226034Y0084214D01*
X0225907Y0084258D01*
X0225782Y0084307D01*
X0225659Y0084359D01*
X0225537Y0084415D01*
X0225416Y0084475D01*
X0225298Y0084538D01*
X0225181Y0084604D01*
X0225067Y0084674D01*
X0224954Y0084747D01*
X0224844Y0084824D01*
X0224736Y0084904D01*
X0224631Y0084987D01*
X0224528Y0085073D01*
X0224428Y0085162D01*
X0224330Y0085254D01*
X0224235Y0085349D01*
X0224143Y0085447D01*
X0224054Y0085547D01*
X0223968Y0085650D01*
X0223885Y0085755D01*
X0223805Y0085863D01*
X0223728Y0085973D01*
X0223655Y0086086D01*
X0223585Y0086200D01*
X0223519Y0086317D01*
X0223456Y0086435D01*
X0223396Y0086556D01*
X0223340Y0086678D01*
X0223288Y0086801D01*
X0223239Y0086926D01*
X0223195Y0087053D01*
X0223153Y0087181D01*
X0223116Y0087309D01*
X0223083Y0087439D01*
X0223053Y0087570D01*
X0223027Y0087702D01*
X0223006Y0087834D01*
X0222988Y0087967D01*
X0222974Y0088101D01*
X0222964Y0088235D01*
X0222958Y0088369D01*
X0222956Y0088503D01*
X0222563Y0139684D02*
X0222565Y0139818D01*
X0222571Y0139952D01*
X0222581Y0140086D01*
X0222595Y0140220D01*
X0222613Y0140353D01*
X0222634Y0140485D01*
X0222660Y0140617D01*
X0222690Y0140748D01*
X0222723Y0140878D01*
X0222760Y0141006D01*
X0222802Y0141134D01*
X0222846Y0141261D01*
X0222895Y0141386D01*
X0222947Y0141509D01*
X0223003Y0141631D01*
X0223063Y0141752D01*
X0223126Y0141870D01*
X0223192Y0141987D01*
X0223262Y0142101D01*
X0223335Y0142214D01*
X0223412Y0142324D01*
X0223492Y0142432D01*
X0223575Y0142537D01*
X0223661Y0142640D01*
X0223750Y0142740D01*
X0223842Y0142838D01*
X0223937Y0142933D01*
X0224035Y0143025D01*
X0224135Y0143114D01*
X0224238Y0143200D01*
X0224343Y0143283D01*
X0224451Y0143363D01*
X0224561Y0143440D01*
X0224674Y0143513D01*
X0224788Y0143583D01*
X0224905Y0143649D01*
X0225023Y0143712D01*
X0225144Y0143772D01*
X0225266Y0143828D01*
X0225389Y0143880D01*
X0225514Y0143929D01*
X0225641Y0143973D01*
X0225769Y0144015D01*
X0225897Y0144052D01*
X0226027Y0144085D01*
X0226158Y0144115D01*
X0226290Y0144141D01*
X0226422Y0144162D01*
X0226555Y0144180D01*
X0226689Y0144194D01*
X0226823Y0144204D01*
X0226957Y0144210D01*
X0227091Y0144212D01*
X0227225Y0144210D01*
X0227359Y0144204D01*
X0227493Y0144194D01*
X0227627Y0144180D01*
X0227760Y0144162D01*
X0227892Y0144141D01*
X0228024Y0144115D01*
X0228155Y0144085D01*
X0228285Y0144052D01*
X0228413Y0144015D01*
X0228541Y0143973D01*
X0228668Y0143929D01*
X0228793Y0143880D01*
X0228916Y0143828D01*
X0229038Y0143772D01*
X0229159Y0143712D01*
X0229277Y0143649D01*
X0229394Y0143583D01*
X0229508Y0143513D01*
X0229621Y0143440D01*
X0229731Y0143363D01*
X0229839Y0143283D01*
X0229944Y0143200D01*
X0230047Y0143114D01*
X0230147Y0143025D01*
X0230245Y0142933D01*
X0230340Y0142838D01*
X0230432Y0142740D01*
X0230521Y0142640D01*
X0230607Y0142537D01*
X0230690Y0142432D01*
X0230770Y0142324D01*
X0230847Y0142214D01*
X0230920Y0142101D01*
X0230990Y0141987D01*
X0231056Y0141870D01*
X0231119Y0141752D01*
X0231179Y0141631D01*
X0231235Y0141509D01*
X0231287Y0141386D01*
X0231336Y0141261D01*
X0231380Y0141134D01*
X0231422Y0141006D01*
X0231459Y0140878D01*
X0231492Y0140748D01*
X0231522Y0140617D01*
X0231548Y0140485D01*
X0231569Y0140353D01*
X0231587Y0140220D01*
X0231601Y0140086D01*
X0231611Y0139952D01*
X0231617Y0139818D01*
X0231619Y0139684D01*
X0231617Y0139550D01*
X0231611Y0139416D01*
X0231601Y0139282D01*
X0231587Y0139148D01*
X0231569Y0139015D01*
X0231548Y0138883D01*
X0231522Y0138751D01*
X0231492Y0138620D01*
X0231459Y0138490D01*
X0231422Y0138362D01*
X0231380Y0138234D01*
X0231336Y0138107D01*
X0231287Y0137982D01*
X0231235Y0137859D01*
X0231179Y0137737D01*
X0231119Y0137616D01*
X0231056Y0137498D01*
X0230990Y0137381D01*
X0230920Y0137267D01*
X0230847Y0137154D01*
X0230770Y0137044D01*
X0230690Y0136936D01*
X0230607Y0136831D01*
X0230521Y0136728D01*
X0230432Y0136628D01*
X0230340Y0136530D01*
X0230245Y0136435D01*
X0230147Y0136343D01*
X0230047Y0136254D01*
X0229944Y0136168D01*
X0229839Y0136085D01*
X0229731Y0136005D01*
X0229621Y0135928D01*
X0229508Y0135855D01*
X0229394Y0135785D01*
X0229277Y0135719D01*
X0229159Y0135656D01*
X0229038Y0135596D01*
X0228916Y0135540D01*
X0228793Y0135488D01*
X0228668Y0135439D01*
X0228541Y0135395D01*
X0228413Y0135353D01*
X0228285Y0135316D01*
X0228155Y0135283D01*
X0228024Y0135253D01*
X0227892Y0135227D01*
X0227760Y0135206D01*
X0227627Y0135188D01*
X0227493Y0135174D01*
X0227359Y0135164D01*
X0227225Y0135158D01*
X0227091Y0135156D01*
X0226957Y0135158D01*
X0226823Y0135164D01*
X0226689Y0135174D01*
X0226555Y0135188D01*
X0226422Y0135206D01*
X0226290Y0135227D01*
X0226158Y0135253D01*
X0226027Y0135283D01*
X0225897Y0135316D01*
X0225769Y0135353D01*
X0225641Y0135395D01*
X0225514Y0135439D01*
X0225389Y0135488D01*
X0225266Y0135540D01*
X0225144Y0135596D01*
X0225023Y0135656D01*
X0224905Y0135719D01*
X0224788Y0135785D01*
X0224674Y0135855D01*
X0224561Y0135928D01*
X0224451Y0136005D01*
X0224343Y0136085D01*
X0224238Y0136168D01*
X0224135Y0136254D01*
X0224035Y0136343D01*
X0223937Y0136435D01*
X0223842Y0136530D01*
X0223750Y0136628D01*
X0223661Y0136728D01*
X0223575Y0136831D01*
X0223492Y0136936D01*
X0223412Y0137044D01*
X0223335Y0137154D01*
X0223262Y0137267D01*
X0223192Y0137381D01*
X0223126Y0137498D01*
X0223063Y0137616D01*
X0223003Y0137737D01*
X0222947Y0137859D01*
X0222895Y0137982D01*
X0222846Y0138107D01*
X0222802Y0138234D01*
X0222760Y0138362D01*
X0222723Y0138490D01*
X0222690Y0138620D01*
X0222660Y0138751D01*
X0222634Y0138883D01*
X0222613Y0139015D01*
X0222595Y0139148D01*
X0222581Y0139282D01*
X0222571Y0139416D01*
X0222565Y0139550D01*
X0222563Y0139684D01*
D11*
X0210161Y0139841D02*
X0210161Y0143778D01*
X0210161Y0147715D02*
X0210161Y0151652D01*
X0205787Y0151652D01*
X0201850Y0151652D02*
X0197476Y0151652D01*
X0193538Y0151652D02*
X0189164Y0151652D01*
X0185227Y0151652D02*
X0180853Y0151652D01*
X0176916Y0151652D02*
X0172541Y0151652D01*
X0168604Y0151652D02*
X0164230Y0151652D01*
X0160293Y0151652D02*
X0155918Y0151652D01*
X0151981Y0151652D02*
X0147607Y0151652D01*
X0143670Y0151652D02*
X0139295Y0151652D01*
X0139295Y0157558D01*
X0139295Y0161495D02*
X0139295Y0167400D01*
X0134921Y0167400D01*
X0130984Y0167400D02*
X0126609Y0167400D01*
X0122672Y0167400D02*
X0118298Y0167400D01*
X0114361Y0167400D02*
X0109986Y0167400D01*
X0106049Y0167400D02*
X0101675Y0167400D01*
X0097738Y0167400D02*
X0093364Y0167400D01*
X0089427Y0167400D02*
X0085052Y0167400D01*
X0081115Y0167400D02*
X0076741Y0167400D01*
X0072804Y0167400D02*
X0068429Y0167400D01*
X0068429Y0163161D01*
X0068429Y0159224D02*
X0068429Y0154984D01*
X0068429Y0151047D02*
X0068429Y0146807D01*
X0068429Y0142870D02*
X0068429Y0138630D01*
X0068429Y0134693D02*
X0068429Y0130453D01*
X0068429Y0126516D02*
X0068429Y0122276D01*
X0068429Y0118339D02*
X0068429Y0114099D01*
X0068429Y0110162D02*
X0068429Y0105923D01*
X0068429Y0101986D02*
X0068429Y0097746D01*
X0068429Y0093809D02*
X0068429Y0089569D01*
X0068429Y0085632D02*
X0068429Y0081392D01*
X0068429Y0077455D02*
X0068429Y0073215D01*
X0068429Y0069278D02*
X0068429Y0065038D01*
X0072804Y0065038D01*
X0076741Y0065038D02*
X0081115Y0065038D01*
X0085052Y0065038D02*
X0089427Y0065038D01*
X0093364Y0065038D02*
X0097738Y0065038D01*
X0101675Y0065038D02*
X0106049Y0065038D01*
X0109986Y0065038D02*
X0114361Y0065038D01*
X0118298Y0065038D02*
X0122672Y0065038D01*
X0126609Y0065038D02*
X0130984Y0065038D01*
X0134921Y0065038D02*
X0139295Y0065038D01*
X0139295Y0068975D01*
X0139295Y0072912D02*
X0139295Y0076849D01*
X0143670Y0076849D01*
X0147607Y0076849D02*
X0151981Y0076849D01*
X0155918Y0076849D02*
X0160293Y0076849D01*
X0164230Y0076849D02*
X0168604Y0076849D01*
X0172541Y0076849D02*
X0176916Y0076849D01*
X0180853Y0076849D02*
X0185227Y0076849D01*
X0189164Y0076849D02*
X0193538Y0076849D01*
X0197476Y0076849D02*
X0201850Y0076849D01*
X0205787Y0076849D02*
X0210161Y0076849D01*
X0210161Y0080786D01*
X0210161Y0084723D02*
X0210161Y0088660D01*
X0210161Y0092597D02*
X0210161Y0096534D01*
X0210161Y0100471D02*
X0210161Y0104408D01*
X0210161Y0108345D02*
X0210161Y0112282D01*
X0210161Y0116219D02*
X0210161Y0120156D01*
X0210161Y0124093D02*
X0210161Y0128030D01*
X0210161Y0131967D02*
X0210161Y0135904D01*
X0139295Y0135904D02*
X0139295Y0131967D01*
X0139295Y0128030D02*
X0139295Y0124093D01*
X0139295Y0120156D02*
X0139295Y0116219D01*
X0139295Y0112282D02*
X0139295Y0108345D01*
X0139295Y0104408D02*
X0139295Y0100471D01*
X0139295Y0096534D02*
X0139295Y0092597D01*
X0139295Y0088660D02*
X0139295Y0084723D01*
X0139295Y0080786D02*
X0139295Y0076849D01*
X0139295Y0139841D02*
X0139295Y0143778D01*
X0139295Y0147715D02*
X0139295Y0151652D01*
D12*
X0210161Y0151652D02*
X0214098Y0151652D01*
X0218035Y0151652D02*
X0221972Y0151652D01*
X0221972Y0147715D01*
X0221972Y0143778D02*
X0221972Y0139841D01*
X0221972Y0135904D02*
X0221972Y0131967D01*
X0221972Y0128030D02*
X0221972Y0124093D01*
X0221972Y0120156D02*
X0221972Y0116219D01*
X0221972Y0112282D02*
X0221972Y0108345D01*
X0221972Y0104408D02*
X0221972Y0100471D01*
X0221972Y0096534D02*
X0221972Y0092597D01*
X0221972Y0088660D02*
X0221972Y0084723D01*
X0221972Y0080786D02*
X0221972Y0076849D01*
X0218035Y0076849D01*
X0214098Y0076849D02*
X0210161Y0076849D01*
D13*
X0112894Y0113488D02*
X0111894Y0113488D01*
X0112894Y0113488D02*
X0112894Y0114988D01*
X0111894Y0114988D01*
X0109694Y0112388D02*
X0109694Y0110388D01*
X0107694Y0110388D01*
X0096094Y0110388D02*
X0094094Y0110388D01*
X0094094Y0112388D01*
X0091894Y0121388D02*
X0090894Y0121388D01*
X0090894Y0122888D01*
X0091894Y0122888D01*
X0094094Y0123988D02*
X0094094Y0125988D01*
X0096094Y0125988D01*
X0107694Y0125988D02*
X0109694Y0125988D01*
X0109694Y0123988D01*
X0046476Y0170903D02*
X0042205Y0170903D01*
X0040570Y0170903D02*
X0036300Y0170903D01*
X0038435Y0173038D02*
X0038435Y0168768D01*
X0046309Y0068708D02*
X0046309Y0064437D01*
X0048444Y0066572D02*
X0044174Y0066572D01*
X0038602Y0066572D02*
X0034331Y0066572D01*
D14*
X0057125Y0065571D02*
X0058961Y0065571D01*
X0058043Y0065571D02*
X0058043Y0068326D01*
X0058961Y0067408D01*
X0059843Y0067867D02*
X0060303Y0068326D01*
X0061221Y0068326D01*
X0061680Y0067867D01*
X0061680Y0066030D01*
X0061221Y0065571D01*
X0060303Y0065571D01*
X0059843Y0066030D01*
X0096239Y0081464D02*
X0096239Y0083300D01*
X0096698Y0083759D01*
X0097616Y0083759D01*
X0098076Y0083300D01*
X0098076Y0082841D01*
X0097616Y0082382D01*
X0096239Y0082382D01*
X0096239Y0081464D02*
X0096698Y0081004D01*
X0097616Y0081004D01*
X0098076Y0081464D01*
X0098958Y0081004D02*
X0099876Y0081923D01*
X0099417Y0081923D02*
X0100794Y0081923D01*
X0100794Y0081004D02*
X0100794Y0083759D01*
X0099417Y0083759D01*
X0098958Y0083300D01*
X0098958Y0082382D01*
X0099417Y0081923D01*
X0105255Y0081345D02*
X0105714Y0080886D01*
X0106632Y0080886D01*
X0107091Y0081345D01*
X0105255Y0083182D01*
X0105255Y0081345D01*
X0107091Y0081345D02*
X0107091Y0083182D01*
X0106632Y0083641D01*
X0105714Y0083641D01*
X0105255Y0083182D01*
X0107973Y0080886D02*
X0109810Y0080886D01*
X0110692Y0080886D02*
X0111611Y0081805D01*
X0111151Y0081805D02*
X0112529Y0081805D01*
X0112529Y0080886D02*
X0112529Y0083641D01*
X0111151Y0083641D01*
X0110692Y0083182D01*
X0110692Y0082264D01*
X0111151Y0081805D01*
X0109810Y0082723D02*
X0108892Y0083641D01*
X0108892Y0080886D01*
X0064633Y0102540D02*
X0062796Y0102540D01*
X0061914Y0102540D02*
X0060077Y0102540D01*
X0060996Y0102540D02*
X0060996Y0105295D01*
X0061914Y0104377D01*
X0064633Y0105295D02*
X0064633Y0102540D01*
X0087020Y0130685D02*
X0086561Y0131144D01*
X0086561Y0132062D01*
X0087020Y0132522D01*
X0087020Y0133404D02*
X0086561Y0133863D01*
X0086561Y0134781D01*
X0087020Y0135240D01*
X0087479Y0135240D01*
X0087938Y0134781D01*
X0087938Y0134322D01*
X0087938Y0134781D02*
X0088397Y0135240D01*
X0088857Y0135240D01*
X0089316Y0134781D01*
X0089316Y0133863D01*
X0088857Y0133404D01*
X0088857Y0132522D02*
X0089316Y0132062D01*
X0089316Y0131144D01*
X0088857Y0130685D01*
X0087020Y0130685D01*
X0088824Y0153642D02*
X0089742Y0153642D01*
X0090202Y0154101D01*
X0090202Y0155020D02*
X0089283Y0155479D01*
X0088824Y0155479D01*
X0088365Y0155020D01*
X0088365Y0154101D01*
X0088824Y0153642D01*
X0090202Y0155020D02*
X0090202Y0156397D01*
X0088365Y0156397D01*
X0091084Y0155938D02*
X0091084Y0155020D01*
X0091543Y0154561D01*
X0092920Y0154561D01*
X0092002Y0154561D02*
X0091084Y0153642D01*
X0092920Y0153642D02*
X0092920Y0156397D01*
X0091543Y0156397D01*
X0091084Y0155938D01*
X0108050Y0155020D02*
X0109887Y0155020D01*
X0108509Y0156397D01*
X0108509Y0153642D01*
X0110769Y0153642D02*
X0111687Y0154561D01*
X0111228Y0154561D02*
X0112605Y0154561D01*
X0112605Y0153642D02*
X0112605Y0156397D01*
X0111228Y0156397D01*
X0110769Y0155938D01*
X0110769Y0155020D01*
X0111228Y0154561D01*
X0113955Y0136712D02*
X0114874Y0136253D01*
X0115792Y0135335D01*
X0114415Y0135335D01*
X0113955Y0134876D01*
X0113955Y0134416D01*
X0114415Y0133957D01*
X0115333Y0133957D01*
X0115792Y0134416D01*
X0115792Y0135335D01*
X0116674Y0135335D02*
X0116674Y0136253D01*
X0117133Y0136712D01*
X0118511Y0136712D01*
X0118511Y0133957D01*
X0118511Y0134876D02*
X0117133Y0134876D01*
X0116674Y0135335D01*
X0117593Y0134876D02*
X0116674Y0133957D01*
X0129703Y0136253D02*
X0131540Y0134416D01*
X0131540Y0133957D01*
X0132422Y0133957D02*
X0133341Y0134876D01*
X0132881Y0134876D02*
X0134259Y0134876D01*
X0134259Y0133957D02*
X0134259Y0136712D01*
X0132881Y0136712D01*
X0132422Y0136253D01*
X0132422Y0135335D01*
X0132881Y0134876D01*
X0131540Y0136712D02*
X0129703Y0136712D01*
X0129703Y0136253D01*
X0066914Y0153905D02*
X0066455Y0153445D01*
X0064618Y0153445D01*
X0064159Y0153905D01*
X0064159Y0154823D01*
X0064618Y0155282D01*
X0064618Y0156164D02*
X0065077Y0156164D01*
X0065537Y0156623D01*
X0065537Y0157542D01*
X0065077Y0158001D01*
X0064618Y0158001D01*
X0064159Y0157542D01*
X0064159Y0156623D01*
X0064618Y0156164D01*
X0065537Y0156623D02*
X0065996Y0156164D01*
X0066455Y0156164D01*
X0066914Y0156623D01*
X0066914Y0157542D01*
X0066455Y0158001D01*
X0065996Y0158001D01*
X0065537Y0157542D01*
X0066455Y0155282D02*
X0066914Y0154823D01*
X0066914Y0153905D01*
X0030891Y0153991D02*
X0030891Y0153073D01*
X0030431Y0152614D01*
X0028595Y0152614D01*
X0028135Y0153073D01*
X0028135Y0153991D01*
X0028595Y0154451D01*
X0028135Y0155333D02*
X0029972Y0157170D01*
X0030431Y0157170D01*
X0030891Y0156710D01*
X0030891Y0155792D01*
X0030431Y0155333D01*
X0030431Y0154451D02*
X0030891Y0153991D01*
X0028135Y0155333D02*
X0028135Y0157170D01*
X0205340Y0144945D02*
X0205340Y0143108D01*
X0207177Y0144945D01*
X0207636Y0144945D01*
X0208095Y0144486D01*
X0208095Y0143568D01*
X0207636Y0143108D01*
X0208095Y0141308D02*
X0205340Y0141308D01*
X0205340Y0140390D02*
X0205340Y0142226D01*
X0207177Y0140390D02*
X0208095Y0141308D01*
X0207636Y0139507D02*
X0206718Y0139507D01*
X0206259Y0139048D01*
X0206259Y0137671D01*
X0206259Y0138589D02*
X0205340Y0139507D01*
X0205340Y0137671D02*
X0208095Y0137671D01*
X0208095Y0139048D01*
X0207636Y0139507D01*
X0205340Y0127268D02*
X0205340Y0125431D01*
X0205340Y0124549D02*
X0205340Y0122712D01*
X0205340Y0121830D02*
X0206259Y0120912D01*
X0206259Y0121371D02*
X0206259Y0119993D01*
X0205340Y0119993D02*
X0208095Y0119993D01*
X0208095Y0121371D01*
X0207636Y0121830D01*
X0206718Y0121830D01*
X0206259Y0121371D01*
X0207177Y0122712D02*
X0208095Y0123631D01*
X0205340Y0123631D01*
X0207177Y0125431D02*
X0208095Y0126350D01*
X0205340Y0126350D01*
X0205799Y0107583D02*
X0205340Y0107124D01*
X0205340Y0106205D01*
X0205799Y0105746D01*
X0205340Y0104864D02*
X0205340Y0103027D01*
X0205340Y0102145D02*
X0206259Y0101227D01*
X0206259Y0101686D02*
X0206259Y0100308D01*
X0205340Y0100308D02*
X0208095Y0100308D01*
X0208095Y0101686D01*
X0207636Y0102145D01*
X0206718Y0102145D01*
X0206259Y0101686D01*
X0207177Y0103027D02*
X0208095Y0103946D01*
X0205340Y0103946D01*
X0207636Y0105746D02*
X0208095Y0106205D01*
X0208095Y0107124D01*
X0207636Y0107583D01*
X0207177Y0107583D01*
X0206718Y0107124D01*
X0206259Y0107583D01*
X0205799Y0107583D01*
X0206718Y0107124D02*
X0206718Y0106665D01*
X0206718Y0087898D02*
X0206718Y0086061D01*
X0208095Y0087439D01*
X0205340Y0087439D01*
X0205340Y0085179D02*
X0205340Y0083342D01*
X0205340Y0082460D02*
X0206259Y0081542D01*
X0206259Y0082001D02*
X0206259Y0080623D01*
X0205340Y0080623D02*
X0208095Y0080623D01*
X0208095Y0082001D01*
X0207636Y0082460D01*
X0206718Y0082460D01*
X0206259Y0082001D01*
X0207177Y0083342D02*
X0208095Y0084261D01*
X0205340Y0084261D01*
D15*
X0194413Y0088660D02*
X0194413Y0135904D01*
X0147169Y0135904D01*
X0147169Y0088660D01*
X0194413Y0088660D01*
X0060555Y0108345D02*
X0056618Y0104408D01*
X0040870Y0104408D01*
X0036933Y0108345D01*
X0036933Y0124093D01*
X0040870Y0128030D01*
X0056618Y0128030D01*
X0060555Y0124093D01*
X0060555Y0108345D01*
D16*
X0093924Y0128702D02*
X0097060Y0131838D01*
X0097060Y0130270D02*
X0093924Y0130270D01*
X0093924Y0131838D02*
X0097060Y0128702D01*
X0095492Y0128702D02*
X0095492Y0131838D01*
X0108567Y0129909D02*
X0108567Y0129466D01*
X0110337Y0127696D01*
X0108567Y0127696D01*
X0108567Y0129909D02*
X0109009Y0130351D01*
X0109894Y0130351D01*
X0110337Y0129909D01*
X0111286Y0129909D02*
X0111728Y0130351D01*
X0112613Y0130351D01*
X0113056Y0129909D01*
X0113056Y0128139D01*
X0112613Y0127696D01*
X0111728Y0127696D01*
X0111286Y0128139D01*
X0113983Y0127696D02*
X0114868Y0127696D01*
X0114426Y0127696D02*
X0114426Y0130351D01*
X0114868Y0130351D02*
X0113983Y0130351D01*
D17*
X0191144Y0140041D02*
X0194213Y0140041D01*
X0194213Y0144645D01*
M02*
