G75*
%MOIN*%
%OFA0B0*%
%FSLAX25Y25*%
%IPPOS*%
%LPD*%
%AMOC8*
5,1,8,0,0,1.08239X$1,22.5*
%
%ADD10C,0.00000*%
%ADD11C,0.00205*%
%ADD12C,0.00252*%
%ADD13C,0.00204*%
%ADD14C,0.00216*%
%ADD15C,0.00220*%
D10*
X0001500Y0059133D02*
X0001500Y0175274D01*
X0253469Y0175274D01*
X0253469Y0059133D01*
X0001500Y0059133D01*
X0220988Y0088503D02*
X0220990Y0088637D01*
X0220996Y0088771D01*
X0221006Y0088905D01*
X0221020Y0089039D01*
X0221038Y0089172D01*
X0221059Y0089304D01*
X0221085Y0089436D01*
X0221115Y0089567D01*
X0221148Y0089697D01*
X0221185Y0089825D01*
X0221227Y0089953D01*
X0221271Y0090080D01*
X0221320Y0090205D01*
X0221372Y0090328D01*
X0221428Y0090450D01*
X0221488Y0090571D01*
X0221551Y0090689D01*
X0221617Y0090806D01*
X0221687Y0090920D01*
X0221760Y0091033D01*
X0221837Y0091143D01*
X0221917Y0091251D01*
X0222000Y0091356D01*
X0222086Y0091459D01*
X0222175Y0091559D01*
X0222267Y0091657D01*
X0222362Y0091752D01*
X0222460Y0091844D01*
X0222560Y0091933D01*
X0222663Y0092019D01*
X0222768Y0092102D01*
X0222876Y0092182D01*
X0222986Y0092259D01*
X0223099Y0092332D01*
X0223213Y0092402D01*
X0223330Y0092468D01*
X0223448Y0092531D01*
X0223569Y0092591D01*
X0223691Y0092647D01*
X0223814Y0092699D01*
X0223939Y0092748D01*
X0224066Y0092792D01*
X0224194Y0092834D01*
X0224322Y0092871D01*
X0224452Y0092904D01*
X0224583Y0092934D01*
X0224715Y0092960D01*
X0224847Y0092981D01*
X0224980Y0092999D01*
X0225114Y0093013D01*
X0225248Y0093023D01*
X0225382Y0093029D01*
X0225516Y0093031D01*
X0225650Y0093029D01*
X0225784Y0093023D01*
X0225918Y0093013D01*
X0226052Y0092999D01*
X0226185Y0092981D01*
X0226317Y0092960D01*
X0226449Y0092934D01*
X0226580Y0092904D01*
X0226710Y0092871D01*
X0226838Y0092834D01*
X0226966Y0092792D01*
X0227093Y0092748D01*
X0227218Y0092699D01*
X0227341Y0092647D01*
X0227463Y0092591D01*
X0227584Y0092531D01*
X0227702Y0092468D01*
X0227819Y0092402D01*
X0227933Y0092332D01*
X0228046Y0092259D01*
X0228156Y0092182D01*
X0228264Y0092102D01*
X0228369Y0092019D01*
X0228472Y0091933D01*
X0228572Y0091844D01*
X0228670Y0091752D01*
X0228765Y0091657D01*
X0228857Y0091559D01*
X0228946Y0091459D01*
X0229032Y0091356D01*
X0229115Y0091251D01*
X0229195Y0091143D01*
X0229272Y0091033D01*
X0229345Y0090920D01*
X0229415Y0090806D01*
X0229481Y0090689D01*
X0229544Y0090571D01*
X0229604Y0090450D01*
X0229660Y0090328D01*
X0229712Y0090205D01*
X0229761Y0090080D01*
X0229805Y0089953D01*
X0229847Y0089825D01*
X0229884Y0089697D01*
X0229917Y0089567D01*
X0229947Y0089436D01*
X0229973Y0089304D01*
X0229994Y0089172D01*
X0230012Y0089039D01*
X0230026Y0088905D01*
X0230036Y0088771D01*
X0230042Y0088637D01*
X0230044Y0088503D01*
X0230042Y0088369D01*
X0230036Y0088235D01*
X0230026Y0088101D01*
X0230012Y0087967D01*
X0229994Y0087834D01*
X0229973Y0087702D01*
X0229947Y0087570D01*
X0229917Y0087439D01*
X0229884Y0087309D01*
X0229847Y0087181D01*
X0229805Y0087053D01*
X0229761Y0086926D01*
X0229712Y0086801D01*
X0229660Y0086678D01*
X0229604Y0086556D01*
X0229544Y0086435D01*
X0229481Y0086317D01*
X0229415Y0086200D01*
X0229345Y0086086D01*
X0229272Y0085973D01*
X0229195Y0085863D01*
X0229115Y0085755D01*
X0229032Y0085650D01*
X0228946Y0085547D01*
X0228857Y0085447D01*
X0228765Y0085349D01*
X0228670Y0085254D01*
X0228572Y0085162D01*
X0228472Y0085073D01*
X0228369Y0084987D01*
X0228264Y0084904D01*
X0228156Y0084824D01*
X0228046Y0084747D01*
X0227933Y0084674D01*
X0227819Y0084604D01*
X0227702Y0084538D01*
X0227584Y0084475D01*
X0227463Y0084415D01*
X0227341Y0084359D01*
X0227218Y0084307D01*
X0227093Y0084258D01*
X0226966Y0084214D01*
X0226838Y0084172D01*
X0226710Y0084135D01*
X0226580Y0084102D01*
X0226449Y0084072D01*
X0226317Y0084046D01*
X0226185Y0084025D01*
X0226052Y0084007D01*
X0225918Y0083993D01*
X0225784Y0083983D01*
X0225650Y0083977D01*
X0225516Y0083975D01*
X0225382Y0083977D01*
X0225248Y0083983D01*
X0225114Y0083993D01*
X0224980Y0084007D01*
X0224847Y0084025D01*
X0224715Y0084046D01*
X0224583Y0084072D01*
X0224452Y0084102D01*
X0224322Y0084135D01*
X0224194Y0084172D01*
X0224066Y0084214D01*
X0223939Y0084258D01*
X0223814Y0084307D01*
X0223691Y0084359D01*
X0223569Y0084415D01*
X0223448Y0084475D01*
X0223330Y0084538D01*
X0223213Y0084604D01*
X0223099Y0084674D01*
X0222986Y0084747D01*
X0222876Y0084824D01*
X0222768Y0084904D01*
X0222663Y0084987D01*
X0222560Y0085073D01*
X0222460Y0085162D01*
X0222362Y0085254D01*
X0222267Y0085349D01*
X0222175Y0085447D01*
X0222086Y0085547D01*
X0222000Y0085650D01*
X0221917Y0085755D01*
X0221837Y0085863D01*
X0221760Y0085973D01*
X0221687Y0086086D01*
X0221617Y0086200D01*
X0221551Y0086317D01*
X0221488Y0086435D01*
X0221428Y0086556D01*
X0221372Y0086678D01*
X0221320Y0086801D01*
X0221271Y0086926D01*
X0221227Y0087053D01*
X0221185Y0087181D01*
X0221148Y0087309D01*
X0221115Y0087439D01*
X0221085Y0087570D01*
X0221059Y0087702D01*
X0221038Y0087834D01*
X0221020Y0087967D01*
X0221006Y0088101D01*
X0220996Y0088235D01*
X0220990Y0088369D01*
X0220988Y0088503D01*
X0220594Y0139684D02*
X0220596Y0139818D01*
X0220602Y0139952D01*
X0220612Y0140086D01*
X0220626Y0140220D01*
X0220644Y0140353D01*
X0220665Y0140485D01*
X0220691Y0140617D01*
X0220721Y0140748D01*
X0220754Y0140878D01*
X0220791Y0141006D01*
X0220833Y0141134D01*
X0220877Y0141261D01*
X0220926Y0141386D01*
X0220978Y0141509D01*
X0221034Y0141631D01*
X0221094Y0141752D01*
X0221157Y0141870D01*
X0221223Y0141987D01*
X0221293Y0142101D01*
X0221366Y0142214D01*
X0221443Y0142324D01*
X0221523Y0142432D01*
X0221606Y0142537D01*
X0221692Y0142640D01*
X0221781Y0142740D01*
X0221873Y0142838D01*
X0221968Y0142933D01*
X0222066Y0143025D01*
X0222166Y0143114D01*
X0222269Y0143200D01*
X0222374Y0143283D01*
X0222482Y0143363D01*
X0222592Y0143440D01*
X0222705Y0143513D01*
X0222819Y0143583D01*
X0222936Y0143649D01*
X0223054Y0143712D01*
X0223175Y0143772D01*
X0223297Y0143828D01*
X0223420Y0143880D01*
X0223545Y0143929D01*
X0223672Y0143973D01*
X0223800Y0144015D01*
X0223928Y0144052D01*
X0224058Y0144085D01*
X0224189Y0144115D01*
X0224321Y0144141D01*
X0224453Y0144162D01*
X0224586Y0144180D01*
X0224720Y0144194D01*
X0224854Y0144204D01*
X0224988Y0144210D01*
X0225122Y0144212D01*
X0225256Y0144210D01*
X0225390Y0144204D01*
X0225524Y0144194D01*
X0225658Y0144180D01*
X0225791Y0144162D01*
X0225923Y0144141D01*
X0226055Y0144115D01*
X0226186Y0144085D01*
X0226316Y0144052D01*
X0226444Y0144015D01*
X0226572Y0143973D01*
X0226699Y0143929D01*
X0226824Y0143880D01*
X0226947Y0143828D01*
X0227069Y0143772D01*
X0227190Y0143712D01*
X0227308Y0143649D01*
X0227425Y0143583D01*
X0227539Y0143513D01*
X0227652Y0143440D01*
X0227762Y0143363D01*
X0227870Y0143283D01*
X0227975Y0143200D01*
X0228078Y0143114D01*
X0228178Y0143025D01*
X0228276Y0142933D01*
X0228371Y0142838D01*
X0228463Y0142740D01*
X0228552Y0142640D01*
X0228638Y0142537D01*
X0228721Y0142432D01*
X0228801Y0142324D01*
X0228878Y0142214D01*
X0228951Y0142101D01*
X0229021Y0141987D01*
X0229087Y0141870D01*
X0229150Y0141752D01*
X0229210Y0141631D01*
X0229266Y0141509D01*
X0229318Y0141386D01*
X0229367Y0141261D01*
X0229411Y0141134D01*
X0229453Y0141006D01*
X0229490Y0140878D01*
X0229523Y0140748D01*
X0229553Y0140617D01*
X0229579Y0140485D01*
X0229600Y0140353D01*
X0229618Y0140220D01*
X0229632Y0140086D01*
X0229642Y0139952D01*
X0229648Y0139818D01*
X0229650Y0139684D01*
X0229648Y0139550D01*
X0229642Y0139416D01*
X0229632Y0139282D01*
X0229618Y0139148D01*
X0229600Y0139015D01*
X0229579Y0138883D01*
X0229553Y0138751D01*
X0229523Y0138620D01*
X0229490Y0138490D01*
X0229453Y0138362D01*
X0229411Y0138234D01*
X0229367Y0138107D01*
X0229318Y0137982D01*
X0229266Y0137859D01*
X0229210Y0137737D01*
X0229150Y0137616D01*
X0229087Y0137498D01*
X0229021Y0137381D01*
X0228951Y0137267D01*
X0228878Y0137154D01*
X0228801Y0137044D01*
X0228721Y0136936D01*
X0228638Y0136831D01*
X0228552Y0136728D01*
X0228463Y0136628D01*
X0228371Y0136530D01*
X0228276Y0136435D01*
X0228178Y0136343D01*
X0228078Y0136254D01*
X0227975Y0136168D01*
X0227870Y0136085D01*
X0227762Y0136005D01*
X0227652Y0135928D01*
X0227539Y0135855D01*
X0227425Y0135785D01*
X0227308Y0135719D01*
X0227190Y0135656D01*
X0227069Y0135596D01*
X0226947Y0135540D01*
X0226824Y0135488D01*
X0226699Y0135439D01*
X0226572Y0135395D01*
X0226444Y0135353D01*
X0226316Y0135316D01*
X0226186Y0135283D01*
X0226055Y0135253D01*
X0225923Y0135227D01*
X0225791Y0135206D01*
X0225658Y0135188D01*
X0225524Y0135174D01*
X0225390Y0135164D01*
X0225256Y0135158D01*
X0225122Y0135156D01*
X0224988Y0135158D01*
X0224854Y0135164D01*
X0224720Y0135174D01*
X0224586Y0135188D01*
X0224453Y0135206D01*
X0224321Y0135227D01*
X0224189Y0135253D01*
X0224058Y0135283D01*
X0223928Y0135316D01*
X0223800Y0135353D01*
X0223672Y0135395D01*
X0223545Y0135439D01*
X0223420Y0135488D01*
X0223297Y0135540D01*
X0223175Y0135596D01*
X0223054Y0135656D01*
X0222936Y0135719D01*
X0222819Y0135785D01*
X0222705Y0135855D01*
X0222592Y0135928D01*
X0222482Y0136005D01*
X0222374Y0136085D01*
X0222269Y0136168D01*
X0222166Y0136254D01*
X0222066Y0136343D01*
X0221968Y0136435D01*
X0221873Y0136530D01*
X0221781Y0136628D01*
X0221692Y0136728D01*
X0221606Y0136831D01*
X0221523Y0136936D01*
X0221443Y0137044D01*
X0221366Y0137154D01*
X0221293Y0137267D01*
X0221223Y0137381D01*
X0221157Y0137498D01*
X0221094Y0137616D01*
X0221034Y0137737D01*
X0220978Y0137859D01*
X0220926Y0137982D01*
X0220877Y0138107D01*
X0220833Y0138234D01*
X0220791Y0138362D01*
X0220754Y0138490D01*
X0220721Y0138620D01*
X0220691Y0138751D01*
X0220665Y0138883D01*
X0220644Y0139015D01*
X0220626Y0139148D01*
X0220612Y0139282D01*
X0220602Y0139416D01*
X0220596Y0139550D01*
X0220594Y0139684D01*
D11*
X0211287Y0137660D02*
X0211287Y0142574D01*
X0216989Y0142574D01*
X0216989Y0137660D01*
X0211287Y0137660D01*
X0211287Y0137864D02*
X0216989Y0137864D01*
X0216989Y0138068D02*
X0211287Y0138068D01*
X0211287Y0138272D02*
X0216989Y0138272D01*
X0216989Y0138476D02*
X0211287Y0138476D01*
X0211287Y0138680D02*
X0216989Y0138680D01*
X0216989Y0138884D02*
X0211287Y0138884D01*
X0211287Y0139088D02*
X0216989Y0139088D01*
X0216989Y0139292D02*
X0211287Y0139292D01*
X0211287Y0139496D02*
X0216989Y0139496D01*
X0216989Y0139700D02*
X0211287Y0139700D01*
X0211287Y0139904D02*
X0216989Y0139904D01*
X0216989Y0140108D02*
X0211287Y0140108D01*
X0211287Y0140312D02*
X0216989Y0140312D01*
X0216989Y0140516D02*
X0211287Y0140516D01*
X0211287Y0140720D02*
X0216989Y0140720D01*
X0216989Y0140924D02*
X0211287Y0140924D01*
X0211287Y0141128D02*
X0216989Y0141128D01*
X0216989Y0141332D02*
X0211287Y0141332D01*
X0211287Y0141536D02*
X0216989Y0141536D01*
X0216989Y0141740D02*
X0211287Y0141740D01*
X0211287Y0141944D02*
X0216989Y0141944D01*
X0216989Y0142148D02*
X0211287Y0142148D01*
X0211287Y0142352D02*
X0216989Y0142352D01*
X0216989Y0142556D02*
X0211287Y0142556D01*
X0211287Y0145140D02*
X0211287Y0150054D01*
X0216989Y0150054D01*
X0216989Y0145140D01*
X0211287Y0145140D01*
X0211287Y0145344D02*
X0216989Y0145344D01*
X0216989Y0145548D02*
X0211287Y0145548D01*
X0211287Y0145752D02*
X0216989Y0145752D01*
X0216989Y0145956D02*
X0211287Y0145956D01*
X0211287Y0146160D02*
X0216989Y0146160D01*
X0216989Y0146364D02*
X0211287Y0146364D01*
X0211287Y0146568D02*
X0216989Y0146568D01*
X0216989Y0146772D02*
X0211287Y0146772D01*
X0211287Y0146976D02*
X0216989Y0146976D01*
X0216989Y0147180D02*
X0211287Y0147180D01*
X0211287Y0147384D02*
X0216989Y0147384D01*
X0216989Y0147588D02*
X0211287Y0147588D01*
X0211287Y0147792D02*
X0216989Y0147792D01*
X0216989Y0147996D02*
X0211287Y0147996D01*
X0211287Y0148200D02*
X0216989Y0148200D01*
X0216989Y0148404D02*
X0211287Y0148404D01*
X0211287Y0148608D02*
X0216989Y0148608D01*
X0216989Y0148812D02*
X0211287Y0148812D01*
X0211287Y0149016D02*
X0216989Y0149016D01*
X0216989Y0149220D02*
X0211287Y0149220D01*
X0211287Y0149424D02*
X0216989Y0149424D01*
X0216989Y0149628D02*
X0211287Y0149628D01*
X0211287Y0149832D02*
X0216989Y0149832D01*
X0216989Y0150036D02*
X0211287Y0150036D01*
X0211287Y0130369D02*
X0211287Y0125455D01*
X0211287Y0130369D02*
X0216989Y0130369D01*
X0216989Y0125455D01*
X0211287Y0125455D01*
X0211287Y0125659D02*
X0216989Y0125659D01*
X0216989Y0125863D02*
X0211287Y0125863D01*
X0211287Y0126067D02*
X0216989Y0126067D01*
X0216989Y0126271D02*
X0211287Y0126271D01*
X0211287Y0126475D02*
X0216989Y0126475D01*
X0216989Y0126679D02*
X0211287Y0126679D01*
X0211287Y0126883D02*
X0216989Y0126883D01*
X0216989Y0127087D02*
X0211287Y0127087D01*
X0211287Y0127291D02*
X0216989Y0127291D01*
X0216989Y0127495D02*
X0211287Y0127495D01*
X0211287Y0127699D02*
X0216989Y0127699D01*
X0216989Y0127903D02*
X0211287Y0127903D01*
X0211287Y0128107D02*
X0216989Y0128107D01*
X0216989Y0128311D02*
X0211287Y0128311D01*
X0211287Y0128515D02*
X0216989Y0128515D01*
X0216989Y0128719D02*
X0211287Y0128719D01*
X0211287Y0128923D02*
X0216989Y0128923D01*
X0216989Y0129127D02*
X0211287Y0129127D01*
X0211287Y0129331D02*
X0216989Y0129331D01*
X0216989Y0129535D02*
X0211287Y0129535D01*
X0211287Y0129739D02*
X0216989Y0129739D01*
X0216989Y0129943D02*
X0211287Y0129943D01*
X0211287Y0130147D02*
X0216989Y0130147D01*
X0216989Y0130351D02*
X0211287Y0130351D01*
X0211287Y0122889D02*
X0211287Y0117975D01*
X0211287Y0122889D02*
X0216989Y0122889D01*
X0216989Y0117975D01*
X0211287Y0117975D01*
X0211287Y0118179D02*
X0216989Y0118179D01*
X0216989Y0118383D02*
X0211287Y0118383D01*
X0211287Y0118587D02*
X0216989Y0118587D01*
X0216989Y0118791D02*
X0211287Y0118791D01*
X0211287Y0118995D02*
X0216989Y0118995D01*
X0216989Y0119199D02*
X0211287Y0119199D01*
X0211287Y0119403D02*
X0216989Y0119403D01*
X0216989Y0119607D02*
X0211287Y0119607D01*
X0211287Y0119811D02*
X0216989Y0119811D01*
X0216989Y0120015D02*
X0211287Y0120015D01*
X0211287Y0120219D02*
X0216989Y0120219D01*
X0216989Y0120423D02*
X0211287Y0120423D01*
X0211287Y0120627D02*
X0216989Y0120627D01*
X0216989Y0120831D02*
X0211287Y0120831D01*
X0211287Y0121035D02*
X0216989Y0121035D01*
X0216989Y0121239D02*
X0211287Y0121239D01*
X0211287Y0121443D02*
X0216989Y0121443D01*
X0216989Y0121647D02*
X0211287Y0121647D01*
X0211287Y0121851D02*
X0216989Y0121851D01*
X0216989Y0122055D02*
X0211287Y0122055D01*
X0211287Y0122259D02*
X0216989Y0122259D01*
X0216989Y0122463D02*
X0211287Y0122463D01*
X0211287Y0122667D02*
X0216989Y0122667D01*
X0216989Y0122871D02*
X0211287Y0122871D01*
X0216989Y0110684D02*
X0216989Y0105770D01*
X0211287Y0105770D01*
X0211287Y0110684D01*
X0216989Y0110684D01*
X0216989Y0105974D02*
X0211287Y0105974D01*
X0211287Y0106178D02*
X0216989Y0106178D01*
X0216989Y0106382D02*
X0211287Y0106382D01*
X0211287Y0106586D02*
X0216989Y0106586D01*
X0216989Y0106790D02*
X0211287Y0106790D01*
X0211287Y0106994D02*
X0216989Y0106994D01*
X0216989Y0107198D02*
X0211287Y0107198D01*
X0211287Y0107402D02*
X0216989Y0107402D01*
X0216989Y0107606D02*
X0211287Y0107606D01*
X0211287Y0107810D02*
X0216989Y0107810D01*
X0216989Y0108014D02*
X0211287Y0108014D01*
X0211287Y0108218D02*
X0216989Y0108218D01*
X0216989Y0108422D02*
X0211287Y0108422D01*
X0211287Y0108626D02*
X0216989Y0108626D01*
X0216989Y0108830D02*
X0211287Y0108830D01*
X0211287Y0109034D02*
X0216989Y0109034D01*
X0216989Y0109238D02*
X0211287Y0109238D01*
X0211287Y0109442D02*
X0216989Y0109442D01*
X0216989Y0109646D02*
X0211287Y0109646D01*
X0211287Y0109850D02*
X0216989Y0109850D01*
X0216989Y0110054D02*
X0211287Y0110054D01*
X0211287Y0110258D02*
X0216989Y0110258D01*
X0216989Y0110462D02*
X0211287Y0110462D01*
X0211287Y0110666D02*
X0216989Y0110666D01*
X0216989Y0103204D02*
X0216989Y0098290D01*
X0211287Y0098290D01*
X0211287Y0103204D01*
X0216989Y0103204D01*
X0216989Y0098494D02*
X0211287Y0098494D01*
X0211287Y0098698D02*
X0216989Y0098698D01*
X0216989Y0098902D02*
X0211287Y0098902D01*
X0211287Y0099106D02*
X0216989Y0099106D01*
X0216989Y0099310D02*
X0211287Y0099310D01*
X0211287Y0099514D02*
X0216989Y0099514D01*
X0216989Y0099718D02*
X0211287Y0099718D01*
X0211287Y0099922D02*
X0216989Y0099922D01*
X0216989Y0100126D02*
X0211287Y0100126D01*
X0211287Y0100330D02*
X0216989Y0100330D01*
X0216989Y0100534D02*
X0211287Y0100534D01*
X0211287Y0100738D02*
X0216989Y0100738D01*
X0216989Y0100942D02*
X0211287Y0100942D01*
X0211287Y0101146D02*
X0216989Y0101146D01*
X0216989Y0101350D02*
X0211287Y0101350D01*
X0211287Y0101554D02*
X0216989Y0101554D01*
X0216989Y0101758D02*
X0211287Y0101758D01*
X0211287Y0101962D02*
X0216989Y0101962D01*
X0216989Y0102166D02*
X0211287Y0102166D01*
X0211287Y0102370D02*
X0216989Y0102370D01*
X0216989Y0102574D02*
X0211287Y0102574D01*
X0211287Y0102778D02*
X0216989Y0102778D01*
X0216989Y0102982D02*
X0211287Y0102982D01*
X0211287Y0103186D02*
X0216989Y0103186D01*
X0216989Y0090999D02*
X0216989Y0086085D01*
X0211287Y0086085D01*
X0211287Y0090999D01*
X0216989Y0090999D01*
X0216989Y0086289D02*
X0211287Y0086289D01*
X0211287Y0086493D02*
X0216989Y0086493D01*
X0216989Y0086697D02*
X0211287Y0086697D01*
X0211287Y0086901D02*
X0216989Y0086901D01*
X0216989Y0087105D02*
X0211287Y0087105D01*
X0211287Y0087309D02*
X0216989Y0087309D01*
X0216989Y0087513D02*
X0211287Y0087513D01*
X0211287Y0087717D02*
X0216989Y0087717D01*
X0216989Y0087921D02*
X0211287Y0087921D01*
X0211287Y0088125D02*
X0216989Y0088125D01*
X0216989Y0088329D02*
X0211287Y0088329D01*
X0211287Y0088533D02*
X0216989Y0088533D01*
X0216989Y0088737D02*
X0211287Y0088737D01*
X0211287Y0088941D02*
X0216989Y0088941D01*
X0216989Y0089145D02*
X0211287Y0089145D01*
X0211287Y0089349D02*
X0216989Y0089349D01*
X0216989Y0089553D02*
X0211287Y0089553D01*
X0211287Y0089757D02*
X0216989Y0089757D01*
X0216989Y0089961D02*
X0211287Y0089961D01*
X0211287Y0090165D02*
X0216989Y0090165D01*
X0216989Y0090369D02*
X0211287Y0090369D01*
X0211287Y0090573D02*
X0216989Y0090573D01*
X0216989Y0090777D02*
X0211287Y0090777D01*
X0211287Y0090981D02*
X0216989Y0090981D01*
X0216989Y0083519D02*
X0216989Y0078605D01*
X0211287Y0078605D01*
X0211287Y0083519D01*
X0216989Y0083519D01*
X0216989Y0078809D02*
X0211287Y0078809D01*
X0211287Y0079013D02*
X0216989Y0079013D01*
X0216989Y0079217D02*
X0211287Y0079217D01*
X0211287Y0079421D02*
X0216989Y0079421D01*
X0216989Y0079625D02*
X0211287Y0079625D01*
X0211287Y0079829D02*
X0216989Y0079829D01*
X0216989Y0080033D02*
X0211287Y0080033D01*
X0211287Y0080237D02*
X0216989Y0080237D01*
X0216989Y0080441D02*
X0211287Y0080441D01*
X0211287Y0080645D02*
X0216989Y0080645D01*
X0216989Y0080849D02*
X0211287Y0080849D01*
X0211287Y0081053D02*
X0216989Y0081053D01*
X0216989Y0081257D02*
X0211287Y0081257D01*
X0211287Y0081461D02*
X0216989Y0081461D01*
X0216989Y0081665D02*
X0211287Y0081665D01*
X0211287Y0081869D02*
X0216989Y0081869D01*
X0216989Y0082073D02*
X0211287Y0082073D01*
X0211287Y0082277D02*
X0216989Y0082277D01*
X0216989Y0082481D02*
X0211287Y0082481D01*
X0211287Y0082685D02*
X0216989Y0082685D01*
X0216989Y0082889D02*
X0211287Y0082889D01*
X0211287Y0083093D02*
X0216989Y0083093D01*
X0216989Y0083297D02*
X0211287Y0083297D01*
X0211287Y0083501D02*
X0216989Y0083501D01*
X0135650Y0138959D02*
X0130736Y0138959D01*
X0130736Y0144661D01*
X0135650Y0144661D01*
X0135650Y0138959D01*
X0135650Y0139163D02*
X0130736Y0139163D01*
X0130736Y0139367D02*
X0135650Y0139367D01*
X0135650Y0139571D02*
X0130736Y0139571D01*
X0130736Y0139775D02*
X0135650Y0139775D01*
X0135650Y0139979D02*
X0130736Y0139979D01*
X0130736Y0140183D02*
X0135650Y0140183D01*
X0135650Y0140387D02*
X0130736Y0140387D01*
X0130736Y0140591D02*
X0135650Y0140591D01*
X0135650Y0140795D02*
X0130736Y0140795D01*
X0130736Y0140999D02*
X0135650Y0140999D01*
X0135650Y0141203D02*
X0130736Y0141203D01*
X0130736Y0141407D02*
X0135650Y0141407D01*
X0135650Y0141611D02*
X0130736Y0141611D01*
X0130736Y0141815D02*
X0135650Y0141815D01*
X0135650Y0142019D02*
X0130736Y0142019D01*
X0130736Y0142223D02*
X0135650Y0142223D01*
X0135650Y0142427D02*
X0130736Y0142427D01*
X0130736Y0142631D02*
X0135650Y0142631D01*
X0135650Y0142835D02*
X0130736Y0142835D01*
X0130736Y0143039D02*
X0135650Y0143039D01*
X0135650Y0143243D02*
X0130736Y0143243D01*
X0130736Y0143447D02*
X0135650Y0143447D01*
X0135650Y0143651D02*
X0130736Y0143651D01*
X0130736Y0143855D02*
X0135650Y0143855D01*
X0135650Y0144059D02*
X0130736Y0144059D01*
X0130736Y0144263D02*
X0135650Y0144263D01*
X0135650Y0144467D02*
X0130736Y0144467D01*
X0128170Y0138959D02*
X0123256Y0138959D01*
X0123256Y0144661D01*
X0128170Y0144661D01*
X0128170Y0138959D01*
X0128170Y0139163D02*
X0123256Y0139163D01*
X0123256Y0139367D02*
X0128170Y0139367D01*
X0128170Y0139571D02*
X0123256Y0139571D01*
X0123256Y0139775D02*
X0128170Y0139775D01*
X0128170Y0139979D02*
X0123256Y0139979D01*
X0123256Y0140183D02*
X0128170Y0140183D01*
X0128170Y0140387D02*
X0123256Y0140387D01*
X0123256Y0140591D02*
X0128170Y0140591D01*
X0128170Y0140795D02*
X0123256Y0140795D01*
X0123256Y0140999D02*
X0128170Y0140999D01*
X0128170Y0141203D02*
X0123256Y0141203D01*
X0123256Y0141407D02*
X0128170Y0141407D01*
X0128170Y0141611D02*
X0123256Y0141611D01*
X0123256Y0141815D02*
X0128170Y0141815D01*
X0128170Y0142019D02*
X0123256Y0142019D01*
X0123256Y0142223D02*
X0128170Y0142223D01*
X0128170Y0142427D02*
X0123256Y0142427D01*
X0123256Y0142631D02*
X0128170Y0142631D01*
X0128170Y0142835D02*
X0123256Y0142835D01*
X0123256Y0143039D02*
X0128170Y0143039D01*
X0128170Y0143243D02*
X0123256Y0143243D01*
X0123256Y0143447D02*
X0128170Y0143447D01*
X0128170Y0143651D02*
X0123256Y0143651D01*
X0123256Y0143855D02*
X0128170Y0143855D01*
X0128170Y0144059D02*
X0123256Y0144059D01*
X0123256Y0144263D02*
X0128170Y0144263D01*
X0128170Y0144467D02*
X0123256Y0144467D01*
X0119902Y0138959D02*
X0114988Y0138959D01*
X0114988Y0144661D01*
X0119902Y0144661D01*
X0119902Y0138959D01*
X0119902Y0139163D02*
X0114988Y0139163D01*
X0114988Y0139367D02*
X0119902Y0139367D01*
X0119902Y0139571D02*
X0114988Y0139571D01*
X0114988Y0139775D02*
X0119902Y0139775D01*
X0119902Y0139979D02*
X0114988Y0139979D01*
X0114988Y0140183D02*
X0119902Y0140183D01*
X0119902Y0140387D02*
X0114988Y0140387D01*
X0114988Y0140591D02*
X0119902Y0140591D01*
X0119902Y0140795D02*
X0114988Y0140795D01*
X0114988Y0140999D02*
X0119902Y0140999D01*
X0119902Y0141203D02*
X0114988Y0141203D01*
X0114988Y0141407D02*
X0119902Y0141407D01*
X0119902Y0141611D02*
X0114988Y0141611D01*
X0114988Y0141815D02*
X0119902Y0141815D01*
X0119902Y0142019D02*
X0114988Y0142019D01*
X0114988Y0142223D02*
X0119902Y0142223D01*
X0119902Y0142427D02*
X0114988Y0142427D01*
X0114988Y0142631D02*
X0119902Y0142631D01*
X0119902Y0142835D02*
X0114988Y0142835D01*
X0114988Y0143039D02*
X0119902Y0143039D01*
X0119902Y0143243D02*
X0114988Y0143243D01*
X0114988Y0143447D02*
X0119902Y0143447D01*
X0119902Y0143651D02*
X0114988Y0143651D01*
X0114988Y0143855D02*
X0119902Y0143855D01*
X0119902Y0144059D02*
X0114988Y0144059D01*
X0114988Y0144263D02*
X0119902Y0144263D01*
X0119902Y0144467D02*
X0114988Y0144467D01*
X0112422Y0138959D02*
X0107508Y0138959D01*
X0107508Y0144661D01*
X0112422Y0144661D01*
X0112422Y0138959D01*
X0112422Y0139163D02*
X0107508Y0139163D01*
X0107508Y0139367D02*
X0112422Y0139367D01*
X0112422Y0139571D02*
X0107508Y0139571D01*
X0107508Y0139775D02*
X0112422Y0139775D01*
X0112422Y0139979D02*
X0107508Y0139979D01*
X0107508Y0140183D02*
X0112422Y0140183D01*
X0112422Y0140387D02*
X0107508Y0140387D01*
X0107508Y0140591D02*
X0112422Y0140591D01*
X0112422Y0140795D02*
X0107508Y0140795D01*
X0107508Y0140999D02*
X0112422Y0140999D01*
X0112422Y0141203D02*
X0107508Y0141203D01*
X0107508Y0141407D02*
X0112422Y0141407D01*
X0112422Y0141611D02*
X0107508Y0141611D01*
X0107508Y0141815D02*
X0112422Y0141815D01*
X0112422Y0142019D02*
X0107508Y0142019D01*
X0107508Y0142223D02*
X0112422Y0142223D01*
X0112422Y0142427D02*
X0107508Y0142427D01*
X0107508Y0142631D02*
X0112422Y0142631D01*
X0112422Y0142835D02*
X0107508Y0142835D01*
X0107508Y0143039D02*
X0112422Y0143039D01*
X0112422Y0143243D02*
X0107508Y0143243D01*
X0107508Y0143447D02*
X0112422Y0143447D01*
X0112422Y0143651D02*
X0107508Y0143651D01*
X0107508Y0143855D02*
X0112422Y0143855D01*
X0112422Y0144059D02*
X0107508Y0144059D01*
X0107508Y0144263D02*
X0112422Y0144263D01*
X0112422Y0144467D02*
X0107508Y0144467D01*
X0106516Y0158644D02*
X0101602Y0158644D01*
X0101602Y0164346D01*
X0106516Y0164346D01*
X0106516Y0158644D01*
X0106516Y0158848D02*
X0101602Y0158848D01*
X0101602Y0159052D02*
X0106516Y0159052D01*
X0106516Y0159256D02*
X0101602Y0159256D01*
X0101602Y0159460D02*
X0106516Y0159460D01*
X0106516Y0159664D02*
X0101602Y0159664D01*
X0101602Y0159868D02*
X0106516Y0159868D01*
X0106516Y0160072D02*
X0101602Y0160072D01*
X0101602Y0160276D02*
X0106516Y0160276D01*
X0106516Y0160480D02*
X0101602Y0160480D01*
X0101602Y0160684D02*
X0106516Y0160684D01*
X0106516Y0160888D02*
X0101602Y0160888D01*
X0101602Y0161092D02*
X0106516Y0161092D01*
X0106516Y0161296D02*
X0101602Y0161296D01*
X0101602Y0161500D02*
X0106516Y0161500D01*
X0106516Y0161704D02*
X0101602Y0161704D01*
X0101602Y0161908D02*
X0106516Y0161908D01*
X0106516Y0162112D02*
X0101602Y0162112D01*
X0101602Y0162316D02*
X0106516Y0162316D01*
X0106516Y0162520D02*
X0101602Y0162520D01*
X0101602Y0162724D02*
X0106516Y0162724D01*
X0106516Y0162928D02*
X0101602Y0162928D01*
X0101602Y0163132D02*
X0106516Y0163132D01*
X0106516Y0163336D02*
X0101602Y0163336D01*
X0101602Y0163540D02*
X0106516Y0163540D01*
X0106516Y0163744D02*
X0101602Y0163744D01*
X0101602Y0163948D02*
X0106516Y0163948D01*
X0106516Y0164152D02*
X0101602Y0164152D01*
X0094311Y0158644D02*
X0089397Y0158644D01*
X0089397Y0164346D01*
X0094311Y0164346D01*
X0094311Y0158644D01*
X0094311Y0158848D02*
X0089397Y0158848D01*
X0089397Y0159052D02*
X0094311Y0159052D01*
X0094311Y0159256D02*
X0089397Y0159256D01*
X0089397Y0159460D02*
X0094311Y0159460D01*
X0094311Y0159664D02*
X0089397Y0159664D01*
X0089397Y0159868D02*
X0094311Y0159868D01*
X0094311Y0160072D02*
X0089397Y0160072D01*
X0089397Y0160276D02*
X0094311Y0160276D01*
X0094311Y0160480D02*
X0089397Y0160480D01*
X0089397Y0160684D02*
X0094311Y0160684D01*
X0094311Y0160888D02*
X0089397Y0160888D01*
X0089397Y0161092D02*
X0094311Y0161092D01*
X0094311Y0161296D02*
X0089397Y0161296D01*
X0089397Y0161500D02*
X0094311Y0161500D01*
X0094311Y0161704D02*
X0089397Y0161704D01*
X0089397Y0161908D02*
X0094311Y0161908D01*
X0094311Y0162112D02*
X0089397Y0162112D01*
X0089397Y0162316D02*
X0094311Y0162316D01*
X0094311Y0162520D02*
X0089397Y0162520D01*
X0089397Y0162724D02*
X0094311Y0162724D01*
X0094311Y0162928D02*
X0089397Y0162928D01*
X0089397Y0163132D02*
X0094311Y0163132D01*
X0094311Y0163336D02*
X0089397Y0163336D01*
X0089397Y0163540D02*
X0094311Y0163540D01*
X0094311Y0163744D02*
X0089397Y0163744D01*
X0089397Y0163948D02*
X0094311Y0163948D01*
X0094311Y0164152D02*
X0089397Y0164152D01*
X0086831Y0158644D02*
X0081917Y0158644D01*
X0081917Y0164346D01*
X0086831Y0164346D01*
X0086831Y0158644D01*
X0086831Y0158848D02*
X0081917Y0158848D01*
X0081917Y0159052D02*
X0086831Y0159052D01*
X0086831Y0159256D02*
X0081917Y0159256D01*
X0081917Y0159460D02*
X0086831Y0159460D01*
X0086831Y0159664D02*
X0081917Y0159664D01*
X0081917Y0159868D02*
X0086831Y0159868D01*
X0086831Y0160072D02*
X0081917Y0160072D01*
X0081917Y0160276D02*
X0086831Y0160276D01*
X0086831Y0160480D02*
X0081917Y0160480D01*
X0081917Y0160684D02*
X0086831Y0160684D01*
X0086831Y0160888D02*
X0081917Y0160888D01*
X0081917Y0161092D02*
X0086831Y0161092D01*
X0086831Y0161296D02*
X0081917Y0161296D01*
X0081917Y0161500D02*
X0086831Y0161500D01*
X0086831Y0161704D02*
X0081917Y0161704D01*
X0081917Y0161908D02*
X0086831Y0161908D01*
X0086831Y0162112D02*
X0081917Y0162112D01*
X0081917Y0162316D02*
X0086831Y0162316D01*
X0086831Y0162520D02*
X0081917Y0162520D01*
X0081917Y0162724D02*
X0086831Y0162724D01*
X0086831Y0162928D02*
X0081917Y0162928D01*
X0081917Y0163132D02*
X0086831Y0163132D01*
X0086831Y0163336D02*
X0081917Y0163336D01*
X0081917Y0163540D02*
X0086831Y0163540D01*
X0086831Y0163744D02*
X0081917Y0163744D01*
X0081917Y0163948D02*
X0086831Y0163948D01*
X0086831Y0164152D02*
X0081917Y0164152D01*
X0059469Y0161787D02*
X0059469Y0156873D01*
X0053767Y0156873D01*
X0053767Y0161787D01*
X0059469Y0161787D01*
X0059469Y0157077D02*
X0053767Y0157077D01*
X0053767Y0157281D02*
X0059469Y0157281D01*
X0059469Y0157485D02*
X0053767Y0157485D01*
X0053767Y0157689D02*
X0059469Y0157689D01*
X0059469Y0157893D02*
X0053767Y0157893D01*
X0053767Y0158097D02*
X0059469Y0158097D01*
X0059469Y0158301D02*
X0053767Y0158301D01*
X0053767Y0158505D02*
X0059469Y0158505D01*
X0059469Y0158709D02*
X0053767Y0158709D01*
X0053767Y0158913D02*
X0059469Y0158913D01*
X0059469Y0159117D02*
X0053767Y0159117D01*
X0053767Y0159321D02*
X0059469Y0159321D01*
X0059469Y0159525D02*
X0053767Y0159525D01*
X0053767Y0159729D02*
X0059469Y0159729D01*
X0059469Y0159933D02*
X0053767Y0159933D01*
X0053767Y0160137D02*
X0059469Y0160137D01*
X0059469Y0160341D02*
X0053767Y0160341D01*
X0053767Y0160545D02*
X0059469Y0160545D01*
X0059469Y0160749D02*
X0053767Y0160749D01*
X0053767Y0160953D02*
X0059469Y0160953D01*
X0059469Y0161157D02*
X0053767Y0161157D01*
X0053767Y0161361D02*
X0059469Y0161361D01*
X0059469Y0161565D02*
X0053767Y0161565D01*
X0053767Y0161769D02*
X0059469Y0161769D01*
X0059469Y0154306D02*
X0059469Y0149392D01*
X0053767Y0149392D01*
X0053767Y0154306D01*
X0059469Y0154306D01*
X0059469Y0149596D02*
X0053767Y0149596D01*
X0053767Y0149800D02*
X0059469Y0149800D01*
X0059469Y0150004D02*
X0053767Y0150004D01*
X0053767Y0150208D02*
X0059469Y0150208D01*
X0059469Y0150412D02*
X0053767Y0150412D01*
X0053767Y0150616D02*
X0059469Y0150616D01*
X0059469Y0150820D02*
X0053767Y0150820D01*
X0053767Y0151024D02*
X0059469Y0151024D01*
X0059469Y0151228D02*
X0053767Y0151228D01*
X0053767Y0151432D02*
X0059469Y0151432D01*
X0059469Y0151636D02*
X0053767Y0151636D01*
X0053767Y0151840D02*
X0059469Y0151840D01*
X0059469Y0152044D02*
X0053767Y0152044D01*
X0053767Y0152248D02*
X0059469Y0152248D01*
X0059469Y0152452D02*
X0053767Y0152452D01*
X0053767Y0152656D02*
X0059469Y0152656D01*
X0059469Y0152860D02*
X0053767Y0152860D01*
X0053767Y0153064D02*
X0059469Y0153064D01*
X0059469Y0153268D02*
X0053767Y0153268D01*
X0053767Y0153472D02*
X0059469Y0153472D01*
X0059469Y0153676D02*
X0053767Y0153676D01*
X0053767Y0153880D02*
X0059469Y0153880D01*
X0059469Y0154084D02*
X0053767Y0154084D01*
X0053767Y0154288D02*
X0059469Y0154288D01*
X0083091Y0140133D02*
X0083091Y0135219D01*
X0077389Y0135219D01*
X0077389Y0140133D01*
X0083091Y0140133D01*
X0083091Y0135423D02*
X0077389Y0135423D01*
X0077389Y0135627D02*
X0083091Y0135627D01*
X0083091Y0135831D02*
X0077389Y0135831D01*
X0077389Y0136035D02*
X0083091Y0136035D01*
X0083091Y0136239D02*
X0077389Y0136239D01*
X0077389Y0136443D02*
X0083091Y0136443D01*
X0083091Y0136647D02*
X0077389Y0136647D01*
X0077389Y0136851D02*
X0083091Y0136851D01*
X0083091Y0137055D02*
X0077389Y0137055D01*
X0077389Y0137259D02*
X0083091Y0137259D01*
X0083091Y0137463D02*
X0077389Y0137463D01*
X0077389Y0137667D02*
X0083091Y0137667D01*
X0083091Y0137871D02*
X0077389Y0137871D01*
X0077389Y0138075D02*
X0083091Y0138075D01*
X0083091Y0138279D02*
X0077389Y0138279D01*
X0077389Y0138483D02*
X0083091Y0138483D01*
X0083091Y0138687D02*
X0077389Y0138687D01*
X0077389Y0138891D02*
X0083091Y0138891D01*
X0083091Y0139095D02*
X0077389Y0139095D01*
X0077389Y0139299D02*
X0083091Y0139299D01*
X0083091Y0139503D02*
X0077389Y0139503D01*
X0077389Y0139707D02*
X0083091Y0139707D01*
X0083091Y0139911D02*
X0077389Y0139911D01*
X0077389Y0140115D02*
X0083091Y0140115D01*
X0083091Y0132653D02*
X0083091Y0127739D01*
X0077389Y0127739D01*
X0077389Y0132653D01*
X0083091Y0132653D01*
X0083091Y0127943D02*
X0077389Y0127943D01*
X0077389Y0128147D02*
X0083091Y0128147D01*
X0083091Y0128351D02*
X0077389Y0128351D01*
X0077389Y0128555D02*
X0083091Y0128555D01*
X0083091Y0128759D02*
X0077389Y0128759D01*
X0077389Y0128963D02*
X0083091Y0128963D01*
X0083091Y0129167D02*
X0077389Y0129167D01*
X0077389Y0129371D02*
X0083091Y0129371D01*
X0083091Y0129575D02*
X0077389Y0129575D01*
X0077389Y0129779D02*
X0083091Y0129779D01*
X0083091Y0129983D02*
X0077389Y0129983D01*
X0077389Y0130187D02*
X0083091Y0130187D01*
X0083091Y0130391D02*
X0077389Y0130391D01*
X0077389Y0130595D02*
X0083091Y0130595D01*
X0083091Y0130799D02*
X0077389Y0130799D01*
X0077389Y0131003D02*
X0083091Y0131003D01*
X0083091Y0131207D02*
X0077389Y0131207D01*
X0077389Y0131411D02*
X0083091Y0131411D01*
X0083091Y0131615D02*
X0077389Y0131615D01*
X0077389Y0131819D02*
X0083091Y0131819D01*
X0083091Y0132023D02*
X0077389Y0132023D01*
X0077389Y0132227D02*
X0083091Y0132227D01*
X0083091Y0132431D02*
X0077389Y0132431D01*
X0077389Y0132635D02*
X0083091Y0132635D01*
X0109082Y0158644D02*
X0113996Y0158644D01*
X0109082Y0158644D02*
X0109082Y0164346D01*
X0113996Y0164346D01*
X0113996Y0158644D01*
X0113996Y0158848D02*
X0109082Y0158848D01*
X0109082Y0159052D02*
X0113996Y0159052D01*
X0113996Y0159256D02*
X0109082Y0159256D01*
X0109082Y0159460D02*
X0113996Y0159460D01*
X0113996Y0159664D02*
X0109082Y0159664D01*
X0109082Y0159868D02*
X0113996Y0159868D01*
X0113996Y0160072D02*
X0109082Y0160072D01*
X0109082Y0160276D02*
X0113996Y0160276D01*
X0113996Y0160480D02*
X0109082Y0160480D01*
X0109082Y0160684D02*
X0113996Y0160684D01*
X0113996Y0160888D02*
X0109082Y0160888D01*
X0109082Y0161092D02*
X0113996Y0161092D01*
X0113996Y0161296D02*
X0109082Y0161296D01*
X0109082Y0161500D02*
X0113996Y0161500D01*
X0113996Y0161704D02*
X0109082Y0161704D01*
X0109082Y0161908D02*
X0113996Y0161908D01*
X0113996Y0162112D02*
X0109082Y0162112D01*
X0109082Y0162316D02*
X0113996Y0162316D01*
X0113996Y0162520D02*
X0109082Y0162520D01*
X0109082Y0162724D02*
X0113996Y0162724D01*
X0113996Y0162928D02*
X0109082Y0162928D01*
X0109082Y0163132D02*
X0113996Y0163132D01*
X0113996Y0163336D02*
X0109082Y0163336D01*
X0109082Y0163540D02*
X0113996Y0163540D01*
X0113996Y0163744D02*
X0109082Y0163744D01*
X0109082Y0163948D02*
X0113996Y0163948D01*
X0113996Y0164152D02*
X0109082Y0164152D01*
X0102980Y0098794D02*
X0102980Y0093880D01*
X0102980Y0098794D02*
X0108682Y0098794D01*
X0108682Y0093880D01*
X0102980Y0093880D01*
X0102980Y0094084D02*
X0108682Y0094084D01*
X0108682Y0094288D02*
X0102980Y0094288D01*
X0102980Y0094492D02*
X0108682Y0094492D01*
X0108682Y0094696D02*
X0102980Y0094696D01*
X0102980Y0094900D02*
X0108682Y0094900D01*
X0108682Y0095104D02*
X0102980Y0095104D01*
X0102980Y0095308D02*
X0108682Y0095308D01*
X0108682Y0095512D02*
X0102980Y0095512D01*
X0102980Y0095716D02*
X0108682Y0095716D01*
X0108682Y0095920D02*
X0102980Y0095920D01*
X0102980Y0096124D02*
X0108682Y0096124D01*
X0108682Y0096328D02*
X0102980Y0096328D01*
X0102980Y0096532D02*
X0108682Y0096532D01*
X0108682Y0096736D02*
X0102980Y0096736D01*
X0102980Y0096940D02*
X0108682Y0096940D01*
X0108682Y0097144D02*
X0102980Y0097144D01*
X0102980Y0097348D02*
X0108682Y0097348D01*
X0108682Y0097552D02*
X0102980Y0097552D01*
X0102980Y0097756D02*
X0108682Y0097756D01*
X0108682Y0097960D02*
X0102980Y0097960D01*
X0102980Y0098164D02*
X0108682Y0098164D01*
X0108682Y0098368D02*
X0102980Y0098368D01*
X0102980Y0098572D02*
X0108682Y0098572D01*
X0108682Y0098776D02*
X0102980Y0098776D01*
X0093137Y0098794D02*
X0093137Y0093880D01*
X0093137Y0098794D02*
X0098839Y0098794D01*
X0098839Y0093880D01*
X0093137Y0093880D01*
X0093137Y0094084D02*
X0098839Y0094084D01*
X0098839Y0094288D02*
X0093137Y0094288D01*
X0093137Y0094492D02*
X0098839Y0094492D01*
X0098839Y0094696D02*
X0093137Y0094696D01*
X0093137Y0094900D02*
X0098839Y0094900D01*
X0098839Y0095104D02*
X0093137Y0095104D01*
X0093137Y0095308D02*
X0098839Y0095308D01*
X0098839Y0095512D02*
X0093137Y0095512D01*
X0093137Y0095716D02*
X0098839Y0095716D01*
X0098839Y0095920D02*
X0093137Y0095920D01*
X0093137Y0096124D02*
X0098839Y0096124D01*
X0098839Y0096328D02*
X0093137Y0096328D01*
X0093137Y0096532D02*
X0098839Y0096532D01*
X0098839Y0096736D02*
X0093137Y0096736D01*
X0093137Y0096940D02*
X0098839Y0096940D01*
X0098839Y0097144D02*
X0093137Y0097144D01*
X0093137Y0097348D02*
X0098839Y0097348D01*
X0098839Y0097552D02*
X0093137Y0097552D01*
X0093137Y0097756D02*
X0098839Y0097756D01*
X0098839Y0097960D02*
X0093137Y0097960D01*
X0093137Y0098164D02*
X0098839Y0098164D01*
X0098839Y0098368D02*
X0093137Y0098368D01*
X0093137Y0098572D02*
X0098839Y0098572D01*
X0098839Y0098776D02*
X0093137Y0098776D01*
X0093137Y0091314D02*
X0093137Y0086400D01*
X0093137Y0091314D02*
X0098839Y0091314D01*
X0098839Y0086400D01*
X0093137Y0086400D01*
X0093137Y0086604D02*
X0098839Y0086604D01*
X0098839Y0086808D02*
X0093137Y0086808D01*
X0093137Y0087012D02*
X0098839Y0087012D01*
X0098839Y0087216D02*
X0093137Y0087216D01*
X0093137Y0087420D02*
X0098839Y0087420D01*
X0098839Y0087624D02*
X0093137Y0087624D01*
X0093137Y0087828D02*
X0098839Y0087828D01*
X0098839Y0088032D02*
X0093137Y0088032D01*
X0093137Y0088236D02*
X0098839Y0088236D01*
X0098839Y0088440D02*
X0093137Y0088440D01*
X0093137Y0088644D02*
X0098839Y0088644D01*
X0098839Y0088848D02*
X0093137Y0088848D01*
X0093137Y0089052D02*
X0098839Y0089052D01*
X0098839Y0089256D02*
X0093137Y0089256D01*
X0093137Y0089460D02*
X0098839Y0089460D01*
X0098839Y0089664D02*
X0093137Y0089664D01*
X0093137Y0089868D02*
X0098839Y0089868D01*
X0098839Y0090072D02*
X0093137Y0090072D01*
X0093137Y0090276D02*
X0098839Y0090276D01*
X0098839Y0090480D02*
X0093137Y0090480D01*
X0093137Y0090684D02*
X0098839Y0090684D01*
X0098839Y0090888D02*
X0093137Y0090888D01*
X0093137Y0091092D02*
X0098839Y0091092D01*
X0098839Y0091296D02*
X0093137Y0091296D01*
X0102980Y0091314D02*
X0102980Y0086400D01*
X0102980Y0091314D02*
X0108682Y0091314D01*
X0108682Y0086400D01*
X0102980Y0086400D01*
X0102980Y0086604D02*
X0108682Y0086604D01*
X0108682Y0086808D02*
X0102980Y0086808D01*
X0102980Y0087012D02*
X0108682Y0087012D01*
X0108682Y0087216D02*
X0102980Y0087216D01*
X0102980Y0087420D02*
X0108682Y0087420D01*
X0108682Y0087624D02*
X0102980Y0087624D01*
X0102980Y0087828D02*
X0108682Y0087828D01*
X0108682Y0088032D02*
X0102980Y0088032D01*
X0102980Y0088236D02*
X0108682Y0088236D01*
X0108682Y0088440D02*
X0102980Y0088440D01*
X0102980Y0088644D02*
X0108682Y0088644D01*
X0108682Y0088848D02*
X0102980Y0088848D01*
X0102980Y0089052D02*
X0108682Y0089052D01*
X0108682Y0089256D02*
X0102980Y0089256D01*
X0102980Y0089460D02*
X0108682Y0089460D01*
X0108682Y0089664D02*
X0102980Y0089664D01*
X0102980Y0089868D02*
X0108682Y0089868D01*
X0108682Y0090072D02*
X0102980Y0090072D01*
X0102980Y0090276D02*
X0108682Y0090276D01*
X0108682Y0090480D02*
X0102980Y0090480D01*
X0102980Y0090684D02*
X0108682Y0090684D01*
X0108682Y0090888D02*
X0102980Y0090888D01*
X0102980Y0091092D02*
X0108682Y0091092D01*
X0108682Y0091296D02*
X0102980Y0091296D01*
X0053767Y0083046D02*
X0053767Y0078132D01*
X0053767Y0083046D02*
X0059469Y0083046D01*
X0059469Y0078132D01*
X0053767Y0078132D01*
X0053767Y0078336D02*
X0059469Y0078336D01*
X0059469Y0078540D02*
X0053767Y0078540D01*
X0053767Y0078744D02*
X0059469Y0078744D01*
X0059469Y0078948D02*
X0053767Y0078948D01*
X0053767Y0079152D02*
X0059469Y0079152D01*
X0059469Y0079356D02*
X0053767Y0079356D01*
X0053767Y0079560D02*
X0059469Y0079560D01*
X0059469Y0079764D02*
X0053767Y0079764D01*
X0053767Y0079968D02*
X0059469Y0079968D01*
X0059469Y0080172D02*
X0053767Y0080172D01*
X0053767Y0080376D02*
X0059469Y0080376D01*
X0059469Y0080580D02*
X0053767Y0080580D01*
X0053767Y0080784D02*
X0059469Y0080784D01*
X0059469Y0080988D02*
X0053767Y0080988D01*
X0053767Y0081192D02*
X0059469Y0081192D01*
X0059469Y0081396D02*
X0053767Y0081396D01*
X0053767Y0081600D02*
X0059469Y0081600D01*
X0059469Y0081804D02*
X0053767Y0081804D01*
X0053767Y0082008D02*
X0059469Y0082008D01*
X0059469Y0082212D02*
X0053767Y0082212D01*
X0053767Y0082416D02*
X0059469Y0082416D01*
X0059469Y0082620D02*
X0053767Y0082620D01*
X0053767Y0082824D02*
X0059469Y0082824D01*
X0059469Y0083028D02*
X0053767Y0083028D01*
X0053767Y0075566D02*
X0053767Y0070652D01*
X0053767Y0075566D02*
X0059469Y0075566D01*
X0059469Y0070652D01*
X0053767Y0070652D01*
X0053767Y0070856D02*
X0059469Y0070856D01*
X0059469Y0071060D02*
X0053767Y0071060D01*
X0053767Y0071264D02*
X0059469Y0071264D01*
X0059469Y0071468D02*
X0053767Y0071468D01*
X0053767Y0071672D02*
X0059469Y0071672D01*
X0059469Y0071876D02*
X0053767Y0071876D01*
X0053767Y0072080D02*
X0059469Y0072080D01*
X0059469Y0072284D02*
X0053767Y0072284D01*
X0053767Y0072488D02*
X0059469Y0072488D01*
X0059469Y0072692D02*
X0053767Y0072692D01*
X0053767Y0072896D02*
X0059469Y0072896D01*
X0059469Y0073100D02*
X0053767Y0073100D01*
X0053767Y0073304D02*
X0059469Y0073304D01*
X0059469Y0073508D02*
X0053767Y0073508D01*
X0053767Y0073712D02*
X0059469Y0073712D01*
X0059469Y0073916D02*
X0053767Y0073916D01*
X0053767Y0074120D02*
X0059469Y0074120D01*
X0059469Y0074324D02*
X0053767Y0074324D01*
X0053767Y0074528D02*
X0059469Y0074528D01*
X0059469Y0074732D02*
X0053767Y0074732D01*
X0053767Y0074936D02*
X0059469Y0074936D01*
X0059469Y0075140D02*
X0053767Y0075140D01*
X0053767Y0075344D02*
X0059469Y0075344D01*
X0059469Y0075548D02*
X0053767Y0075548D01*
X0018334Y0149392D02*
X0018334Y0154306D01*
X0024036Y0154306D01*
X0024036Y0149392D01*
X0018334Y0149392D01*
X0018334Y0149596D02*
X0024036Y0149596D01*
X0024036Y0149800D02*
X0018334Y0149800D01*
X0018334Y0150004D02*
X0024036Y0150004D01*
X0024036Y0150208D02*
X0018334Y0150208D01*
X0018334Y0150412D02*
X0024036Y0150412D01*
X0024036Y0150616D02*
X0018334Y0150616D01*
X0018334Y0150820D02*
X0024036Y0150820D01*
X0024036Y0151024D02*
X0018334Y0151024D01*
X0018334Y0151228D02*
X0024036Y0151228D01*
X0024036Y0151432D02*
X0018334Y0151432D01*
X0018334Y0151636D02*
X0024036Y0151636D01*
X0024036Y0151840D02*
X0018334Y0151840D01*
X0018334Y0152044D02*
X0024036Y0152044D01*
X0024036Y0152248D02*
X0018334Y0152248D01*
X0018334Y0152452D02*
X0024036Y0152452D01*
X0024036Y0152656D02*
X0018334Y0152656D01*
X0018334Y0152860D02*
X0024036Y0152860D01*
X0024036Y0153064D02*
X0018334Y0153064D01*
X0018334Y0153268D02*
X0024036Y0153268D01*
X0024036Y0153472D02*
X0018334Y0153472D01*
X0018334Y0153676D02*
X0024036Y0153676D01*
X0024036Y0153880D02*
X0018334Y0153880D01*
X0018334Y0154084D02*
X0024036Y0154084D01*
X0024036Y0154288D02*
X0018334Y0154288D01*
X0018334Y0156873D02*
X0018334Y0161787D01*
X0024036Y0161787D01*
X0024036Y0156873D01*
X0018334Y0156873D01*
X0018334Y0157077D02*
X0024036Y0157077D01*
X0024036Y0157281D02*
X0018334Y0157281D01*
X0018334Y0157485D02*
X0024036Y0157485D01*
X0024036Y0157689D02*
X0018334Y0157689D01*
X0018334Y0157893D02*
X0024036Y0157893D01*
X0024036Y0158097D02*
X0018334Y0158097D01*
X0018334Y0158301D02*
X0024036Y0158301D01*
X0024036Y0158505D02*
X0018334Y0158505D01*
X0018334Y0158709D02*
X0024036Y0158709D01*
X0024036Y0158913D02*
X0018334Y0158913D01*
X0018334Y0159117D02*
X0024036Y0159117D01*
X0024036Y0159321D02*
X0018334Y0159321D01*
X0018334Y0159525D02*
X0024036Y0159525D01*
X0024036Y0159729D02*
X0018334Y0159729D01*
X0018334Y0159933D02*
X0024036Y0159933D01*
X0024036Y0160137D02*
X0018334Y0160137D01*
X0018334Y0160341D02*
X0024036Y0160341D01*
X0024036Y0160545D02*
X0018334Y0160545D01*
X0018334Y0160749D02*
X0024036Y0160749D01*
X0024036Y0160953D02*
X0018334Y0160953D01*
X0018334Y0161157D02*
X0024036Y0161157D01*
X0024036Y0161361D02*
X0018334Y0161361D01*
X0018334Y0161565D02*
X0024036Y0161565D01*
X0024036Y0161769D02*
X0018334Y0161769D01*
D12*
X0035682Y0144046D02*
X0057870Y0144046D01*
X0057870Y0131700D01*
X0035682Y0131700D01*
X0035682Y0144046D01*
X0035682Y0131951D02*
X0057870Y0131951D01*
X0057870Y0132202D02*
X0035682Y0132202D01*
X0035682Y0132453D02*
X0057870Y0132453D01*
X0057870Y0132704D02*
X0035682Y0132704D01*
X0035682Y0132955D02*
X0057870Y0132955D01*
X0057870Y0133206D02*
X0035682Y0133206D01*
X0035682Y0133457D02*
X0057870Y0133457D01*
X0057870Y0133708D02*
X0035682Y0133708D01*
X0035682Y0133959D02*
X0057870Y0133959D01*
X0057870Y0134210D02*
X0035682Y0134210D01*
X0035682Y0134461D02*
X0057870Y0134461D01*
X0057870Y0134712D02*
X0035682Y0134712D01*
X0035682Y0134963D02*
X0057870Y0134963D01*
X0057870Y0135214D02*
X0035682Y0135214D01*
X0035682Y0135465D02*
X0057870Y0135465D01*
X0057870Y0135716D02*
X0035682Y0135716D01*
X0035682Y0135967D02*
X0057870Y0135967D01*
X0057870Y0136218D02*
X0035682Y0136218D01*
X0035682Y0136469D02*
X0057870Y0136469D01*
X0057870Y0136720D02*
X0035682Y0136720D01*
X0035682Y0136971D02*
X0057870Y0136971D01*
X0057870Y0137222D02*
X0035682Y0137222D01*
X0035682Y0137473D02*
X0057870Y0137473D01*
X0057870Y0137724D02*
X0035682Y0137724D01*
X0035682Y0137975D02*
X0057870Y0137975D01*
X0057870Y0138226D02*
X0035682Y0138226D01*
X0035682Y0138477D02*
X0057870Y0138477D01*
X0057870Y0138728D02*
X0035682Y0138728D01*
X0035682Y0138979D02*
X0057870Y0138979D01*
X0057870Y0139230D02*
X0035682Y0139230D01*
X0035682Y0139481D02*
X0057870Y0139481D01*
X0057870Y0139732D02*
X0035682Y0139732D01*
X0035682Y0139983D02*
X0057870Y0139983D01*
X0057870Y0140234D02*
X0035682Y0140234D01*
X0035682Y0140485D02*
X0057870Y0140485D01*
X0057870Y0140736D02*
X0035682Y0140736D01*
X0035682Y0140987D02*
X0057870Y0140987D01*
X0057870Y0141238D02*
X0035682Y0141238D01*
X0035682Y0141489D02*
X0057870Y0141489D01*
X0057870Y0141740D02*
X0035682Y0141740D01*
X0035682Y0141991D02*
X0057870Y0141991D01*
X0057870Y0142242D02*
X0035682Y0142242D01*
X0035682Y0142493D02*
X0057870Y0142493D01*
X0057870Y0142744D02*
X0035682Y0142744D01*
X0035682Y0142995D02*
X0057870Y0142995D01*
X0057870Y0143246D02*
X0035682Y0143246D01*
X0035682Y0143497D02*
X0057870Y0143497D01*
X0057870Y0143748D02*
X0035682Y0143748D01*
X0035682Y0143999D02*
X0057870Y0143999D01*
X0057870Y0100739D02*
X0035682Y0100739D01*
X0057870Y0100739D02*
X0057870Y0088393D01*
X0035682Y0088393D01*
X0035682Y0100739D01*
X0035682Y0088644D02*
X0057870Y0088644D01*
X0057870Y0088895D02*
X0035682Y0088895D01*
X0035682Y0089146D02*
X0057870Y0089146D01*
X0057870Y0089397D02*
X0035682Y0089397D01*
X0035682Y0089648D02*
X0057870Y0089648D01*
X0057870Y0089899D02*
X0035682Y0089899D01*
X0035682Y0090150D02*
X0057870Y0090150D01*
X0057870Y0090401D02*
X0035682Y0090401D01*
X0035682Y0090652D02*
X0057870Y0090652D01*
X0057870Y0090903D02*
X0035682Y0090903D01*
X0035682Y0091154D02*
X0057870Y0091154D01*
X0057870Y0091405D02*
X0035682Y0091405D01*
X0035682Y0091656D02*
X0057870Y0091656D01*
X0057870Y0091907D02*
X0035682Y0091907D01*
X0035682Y0092158D02*
X0057870Y0092158D01*
X0057870Y0092409D02*
X0035682Y0092409D01*
X0035682Y0092660D02*
X0057870Y0092660D01*
X0057870Y0092911D02*
X0035682Y0092911D01*
X0035682Y0093162D02*
X0057870Y0093162D01*
X0057870Y0093413D02*
X0035682Y0093413D01*
X0035682Y0093664D02*
X0057870Y0093664D01*
X0057870Y0093915D02*
X0035682Y0093915D01*
X0035682Y0094166D02*
X0057870Y0094166D01*
X0057870Y0094417D02*
X0035682Y0094417D01*
X0035682Y0094668D02*
X0057870Y0094668D01*
X0057870Y0094919D02*
X0035682Y0094919D01*
X0035682Y0095170D02*
X0057870Y0095170D01*
X0057870Y0095421D02*
X0035682Y0095421D01*
X0035682Y0095672D02*
X0057870Y0095672D01*
X0057870Y0095923D02*
X0035682Y0095923D01*
X0035682Y0096174D02*
X0057870Y0096174D01*
X0057870Y0096425D02*
X0035682Y0096425D01*
X0035682Y0096676D02*
X0057870Y0096676D01*
X0057870Y0096927D02*
X0035682Y0096927D01*
X0035682Y0097178D02*
X0057870Y0097178D01*
X0057870Y0097429D02*
X0035682Y0097429D01*
X0035682Y0097680D02*
X0057870Y0097680D01*
X0057870Y0097931D02*
X0035682Y0097931D01*
X0035682Y0098182D02*
X0057870Y0098182D01*
X0057870Y0098433D02*
X0035682Y0098433D01*
X0035682Y0098684D02*
X0057870Y0098684D01*
X0057870Y0098935D02*
X0035682Y0098935D01*
X0035682Y0099186D02*
X0057870Y0099186D01*
X0057870Y0099437D02*
X0035682Y0099437D01*
X0035682Y0099688D02*
X0057870Y0099688D01*
X0057870Y0099939D02*
X0035682Y0099939D01*
X0035682Y0100190D02*
X0057870Y0100190D01*
X0057870Y0100441D02*
X0035682Y0100441D01*
X0035682Y0100692D02*
X0057870Y0100692D01*
D13*
X0094023Y0113790D02*
X0094023Y0114786D01*
X0094023Y0113790D02*
X0091027Y0113790D01*
X0091027Y0114786D01*
X0094023Y0114786D01*
X0094023Y0113993D02*
X0091027Y0113993D01*
X0091027Y0114196D02*
X0094023Y0114196D01*
X0094023Y0114399D02*
X0091027Y0114399D01*
X0091027Y0114602D02*
X0094023Y0114602D01*
X0094023Y0115690D02*
X0094023Y0116686D01*
X0094023Y0115690D02*
X0091027Y0115690D01*
X0091027Y0116686D01*
X0094023Y0116686D01*
X0094023Y0115893D02*
X0091027Y0115893D01*
X0091027Y0116096D02*
X0094023Y0116096D01*
X0094023Y0116299D02*
X0091027Y0116299D01*
X0091027Y0116502D02*
X0094023Y0116502D01*
X0094023Y0117690D02*
X0094023Y0118686D01*
X0094023Y0117690D02*
X0091027Y0117690D01*
X0091027Y0118686D01*
X0094023Y0118686D01*
X0094023Y0117893D02*
X0091027Y0117893D01*
X0091027Y0118096D02*
X0094023Y0118096D01*
X0094023Y0118299D02*
X0091027Y0118299D01*
X0091027Y0118502D02*
X0094023Y0118502D01*
X0094023Y0119690D02*
X0094023Y0120686D01*
X0094023Y0119690D02*
X0091027Y0119690D01*
X0091027Y0120686D01*
X0094023Y0120686D01*
X0094023Y0119893D02*
X0091027Y0119893D01*
X0091027Y0120096D02*
X0094023Y0120096D01*
X0094023Y0120299D02*
X0091027Y0120299D01*
X0091027Y0120502D02*
X0094023Y0120502D01*
X0094023Y0121590D02*
X0094023Y0122586D01*
X0094023Y0121590D02*
X0091027Y0121590D01*
X0091027Y0122586D01*
X0094023Y0122586D01*
X0094023Y0121793D02*
X0091027Y0121793D01*
X0091027Y0121996D02*
X0094023Y0121996D01*
X0094023Y0122199D02*
X0091027Y0122199D01*
X0091027Y0122402D02*
X0094023Y0122402D01*
X0095527Y0124090D02*
X0096523Y0124090D01*
X0095527Y0124090D02*
X0095527Y0127086D01*
X0096523Y0127086D01*
X0096523Y0124090D01*
X0096523Y0124293D02*
X0095527Y0124293D01*
X0095527Y0124496D02*
X0096523Y0124496D01*
X0096523Y0124699D02*
X0095527Y0124699D01*
X0095527Y0124902D02*
X0096523Y0124902D01*
X0096523Y0125105D02*
X0095527Y0125105D01*
X0095527Y0125308D02*
X0096523Y0125308D01*
X0096523Y0125511D02*
X0095527Y0125511D01*
X0095527Y0125714D02*
X0096523Y0125714D01*
X0096523Y0125917D02*
X0095527Y0125917D01*
X0095527Y0126120D02*
X0096523Y0126120D01*
X0096523Y0126323D02*
X0095527Y0126323D01*
X0095527Y0126526D02*
X0096523Y0126526D01*
X0096523Y0126729D02*
X0095527Y0126729D01*
X0095527Y0126932D02*
X0096523Y0126932D01*
X0097427Y0124090D02*
X0098423Y0124090D01*
X0097427Y0124090D02*
X0097427Y0127086D01*
X0098423Y0127086D01*
X0098423Y0124090D01*
X0098423Y0124293D02*
X0097427Y0124293D01*
X0097427Y0124496D02*
X0098423Y0124496D01*
X0098423Y0124699D02*
X0097427Y0124699D01*
X0097427Y0124902D02*
X0098423Y0124902D01*
X0098423Y0125105D02*
X0097427Y0125105D01*
X0097427Y0125308D02*
X0098423Y0125308D01*
X0098423Y0125511D02*
X0097427Y0125511D01*
X0097427Y0125714D02*
X0098423Y0125714D01*
X0098423Y0125917D02*
X0097427Y0125917D01*
X0097427Y0126120D02*
X0098423Y0126120D01*
X0098423Y0126323D02*
X0097427Y0126323D01*
X0097427Y0126526D02*
X0098423Y0126526D01*
X0098423Y0126729D02*
X0097427Y0126729D01*
X0097427Y0126932D02*
X0098423Y0126932D01*
X0099427Y0124090D02*
X0100423Y0124090D01*
X0099427Y0124090D02*
X0099427Y0127086D01*
X0100423Y0127086D01*
X0100423Y0124090D01*
X0100423Y0124293D02*
X0099427Y0124293D01*
X0099427Y0124496D02*
X0100423Y0124496D01*
X0100423Y0124699D02*
X0099427Y0124699D01*
X0099427Y0124902D02*
X0100423Y0124902D01*
X0100423Y0125105D02*
X0099427Y0125105D01*
X0099427Y0125308D02*
X0100423Y0125308D01*
X0100423Y0125511D02*
X0099427Y0125511D01*
X0099427Y0125714D02*
X0100423Y0125714D01*
X0100423Y0125917D02*
X0099427Y0125917D01*
X0099427Y0126120D02*
X0100423Y0126120D01*
X0100423Y0126323D02*
X0099427Y0126323D01*
X0099427Y0126526D02*
X0100423Y0126526D01*
X0100423Y0126729D02*
X0099427Y0126729D01*
X0099427Y0126932D02*
X0100423Y0126932D01*
X0101427Y0124090D02*
X0102423Y0124090D01*
X0101427Y0124090D02*
X0101427Y0127086D01*
X0102423Y0127086D01*
X0102423Y0124090D01*
X0102423Y0124293D02*
X0101427Y0124293D01*
X0101427Y0124496D02*
X0102423Y0124496D01*
X0102423Y0124699D02*
X0101427Y0124699D01*
X0101427Y0124902D02*
X0102423Y0124902D01*
X0102423Y0125105D02*
X0101427Y0125105D01*
X0101427Y0125308D02*
X0102423Y0125308D01*
X0102423Y0125511D02*
X0101427Y0125511D01*
X0101427Y0125714D02*
X0102423Y0125714D01*
X0102423Y0125917D02*
X0101427Y0125917D01*
X0101427Y0126120D02*
X0102423Y0126120D01*
X0102423Y0126323D02*
X0101427Y0126323D01*
X0101427Y0126526D02*
X0102423Y0126526D01*
X0102423Y0126729D02*
X0101427Y0126729D01*
X0101427Y0126932D02*
X0102423Y0126932D01*
X0103327Y0124090D02*
X0104323Y0124090D01*
X0103327Y0124090D02*
X0103327Y0127086D01*
X0104323Y0127086D01*
X0104323Y0124090D01*
X0104323Y0124293D02*
X0103327Y0124293D01*
X0103327Y0124496D02*
X0104323Y0124496D01*
X0104323Y0124699D02*
X0103327Y0124699D01*
X0103327Y0124902D02*
X0104323Y0124902D01*
X0104323Y0125105D02*
X0103327Y0125105D01*
X0103327Y0125308D02*
X0104323Y0125308D01*
X0104323Y0125511D02*
X0103327Y0125511D01*
X0103327Y0125714D02*
X0104323Y0125714D01*
X0104323Y0125917D02*
X0103327Y0125917D01*
X0103327Y0126120D02*
X0104323Y0126120D01*
X0104323Y0126323D02*
X0103327Y0126323D01*
X0103327Y0126526D02*
X0104323Y0126526D01*
X0104323Y0126729D02*
X0103327Y0126729D01*
X0103327Y0126932D02*
X0104323Y0126932D01*
X0108823Y0122586D02*
X0108823Y0121590D01*
X0105827Y0121590D01*
X0105827Y0122586D01*
X0108823Y0122586D01*
X0108823Y0121793D02*
X0105827Y0121793D01*
X0105827Y0121996D02*
X0108823Y0121996D01*
X0108823Y0122199D02*
X0105827Y0122199D01*
X0105827Y0122402D02*
X0108823Y0122402D01*
X0108823Y0120686D02*
X0108823Y0119690D01*
X0105827Y0119690D01*
X0105827Y0120686D01*
X0108823Y0120686D01*
X0108823Y0119893D02*
X0105827Y0119893D01*
X0105827Y0120096D02*
X0108823Y0120096D01*
X0108823Y0120299D02*
X0105827Y0120299D01*
X0105827Y0120502D02*
X0108823Y0120502D01*
X0108823Y0118686D02*
X0108823Y0117690D01*
X0105827Y0117690D01*
X0105827Y0118686D01*
X0108823Y0118686D01*
X0108823Y0117893D02*
X0105827Y0117893D01*
X0105827Y0118096D02*
X0108823Y0118096D01*
X0108823Y0118299D02*
X0105827Y0118299D01*
X0105827Y0118502D02*
X0108823Y0118502D01*
X0108823Y0116686D02*
X0108823Y0115690D01*
X0105827Y0115690D01*
X0105827Y0116686D01*
X0108823Y0116686D01*
X0108823Y0115893D02*
X0105827Y0115893D01*
X0105827Y0116096D02*
X0108823Y0116096D01*
X0108823Y0116299D02*
X0105827Y0116299D01*
X0105827Y0116502D02*
X0108823Y0116502D01*
X0108823Y0114786D02*
X0108823Y0113790D01*
X0105827Y0113790D01*
X0105827Y0114786D01*
X0108823Y0114786D01*
X0108823Y0113993D02*
X0105827Y0113993D01*
X0105827Y0114196D02*
X0108823Y0114196D01*
X0108823Y0114399D02*
X0105827Y0114399D01*
X0105827Y0114602D02*
X0108823Y0114602D01*
X0104323Y0109290D02*
X0103327Y0109290D01*
X0103327Y0112286D01*
X0104323Y0112286D01*
X0104323Y0109290D01*
X0104323Y0109493D02*
X0103327Y0109493D01*
X0103327Y0109696D02*
X0104323Y0109696D01*
X0104323Y0109899D02*
X0103327Y0109899D01*
X0103327Y0110102D02*
X0104323Y0110102D01*
X0104323Y0110305D02*
X0103327Y0110305D01*
X0103327Y0110508D02*
X0104323Y0110508D01*
X0104323Y0110711D02*
X0103327Y0110711D01*
X0103327Y0110914D02*
X0104323Y0110914D01*
X0104323Y0111117D02*
X0103327Y0111117D01*
X0103327Y0111320D02*
X0104323Y0111320D01*
X0104323Y0111523D02*
X0103327Y0111523D01*
X0103327Y0111726D02*
X0104323Y0111726D01*
X0104323Y0111929D02*
X0103327Y0111929D01*
X0103327Y0112132D02*
X0104323Y0112132D01*
X0102423Y0109290D02*
X0101427Y0109290D01*
X0101427Y0112286D01*
X0102423Y0112286D01*
X0102423Y0109290D01*
X0102423Y0109493D02*
X0101427Y0109493D01*
X0101427Y0109696D02*
X0102423Y0109696D01*
X0102423Y0109899D02*
X0101427Y0109899D01*
X0101427Y0110102D02*
X0102423Y0110102D01*
X0102423Y0110305D02*
X0101427Y0110305D01*
X0101427Y0110508D02*
X0102423Y0110508D01*
X0102423Y0110711D02*
X0101427Y0110711D01*
X0101427Y0110914D02*
X0102423Y0110914D01*
X0102423Y0111117D02*
X0101427Y0111117D01*
X0101427Y0111320D02*
X0102423Y0111320D01*
X0102423Y0111523D02*
X0101427Y0111523D01*
X0101427Y0111726D02*
X0102423Y0111726D01*
X0102423Y0111929D02*
X0101427Y0111929D01*
X0101427Y0112132D02*
X0102423Y0112132D01*
X0100423Y0109290D02*
X0099427Y0109290D01*
X0099427Y0112286D01*
X0100423Y0112286D01*
X0100423Y0109290D01*
X0100423Y0109493D02*
X0099427Y0109493D01*
X0099427Y0109696D02*
X0100423Y0109696D01*
X0100423Y0109899D02*
X0099427Y0109899D01*
X0099427Y0110102D02*
X0100423Y0110102D01*
X0100423Y0110305D02*
X0099427Y0110305D01*
X0099427Y0110508D02*
X0100423Y0110508D01*
X0100423Y0110711D02*
X0099427Y0110711D01*
X0099427Y0110914D02*
X0100423Y0110914D01*
X0100423Y0111117D02*
X0099427Y0111117D01*
X0099427Y0111320D02*
X0100423Y0111320D01*
X0100423Y0111523D02*
X0099427Y0111523D01*
X0099427Y0111726D02*
X0100423Y0111726D01*
X0100423Y0111929D02*
X0099427Y0111929D01*
X0099427Y0112132D02*
X0100423Y0112132D01*
X0098423Y0109290D02*
X0097427Y0109290D01*
X0097427Y0112286D01*
X0098423Y0112286D01*
X0098423Y0109290D01*
X0098423Y0109493D02*
X0097427Y0109493D01*
X0097427Y0109696D02*
X0098423Y0109696D01*
X0098423Y0109899D02*
X0097427Y0109899D01*
X0097427Y0110102D02*
X0098423Y0110102D01*
X0098423Y0110305D02*
X0097427Y0110305D01*
X0097427Y0110508D02*
X0098423Y0110508D01*
X0098423Y0110711D02*
X0097427Y0110711D01*
X0097427Y0110914D02*
X0098423Y0110914D01*
X0098423Y0111117D02*
X0097427Y0111117D01*
X0097427Y0111320D02*
X0098423Y0111320D01*
X0098423Y0111523D02*
X0097427Y0111523D01*
X0097427Y0111726D02*
X0098423Y0111726D01*
X0098423Y0111929D02*
X0097427Y0111929D01*
X0097427Y0112132D02*
X0098423Y0112132D01*
X0096523Y0109290D02*
X0095527Y0109290D01*
X0095527Y0112286D01*
X0096523Y0112286D01*
X0096523Y0109290D01*
X0096523Y0109493D02*
X0095527Y0109493D01*
X0095527Y0109696D02*
X0096523Y0109696D01*
X0096523Y0109899D02*
X0095527Y0109899D01*
X0095527Y0110102D02*
X0096523Y0110102D01*
X0096523Y0110305D02*
X0095527Y0110305D01*
X0095527Y0110508D02*
X0096523Y0110508D01*
X0096523Y0110711D02*
X0095527Y0110711D01*
X0095527Y0110914D02*
X0096523Y0110914D01*
X0096523Y0111117D02*
X0095527Y0111117D01*
X0095527Y0111320D02*
X0096523Y0111320D01*
X0096523Y0111523D02*
X0095527Y0111523D01*
X0095527Y0111726D02*
X0096523Y0111726D01*
X0096523Y0111929D02*
X0095527Y0111929D01*
X0095527Y0112132D02*
X0096523Y0112132D01*
D14*
X0094633Y0112896D02*
X0094633Y0123480D01*
X0105217Y0123480D01*
X0105217Y0112896D01*
X0094633Y0112896D01*
X0094633Y0113111D02*
X0105217Y0113111D01*
X0105217Y0113326D02*
X0094633Y0113326D01*
X0094633Y0113541D02*
X0105217Y0113541D01*
X0105217Y0113756D02*
X0094633Y0113756D01*
X0094633Y0113971D02*
X0105217Y0113971D01*
X0105217Y0114186D02*
X0094633Y0114186D01*
X0094633Y0114401D02*
X0105217Y0114401D01*
X0105217Y0114616D02*
X0094633Y0114616D01*
X0094633Y0114831D02*
X0105217Y0114831D01*
X0105217Y0115046D02*
X0094633Y0115046D01*
X0094633Y0115261D02*
X0105217Y0115261D01*
X0105217Y0115476D02*
X0094633Y0115476D01*
X0094633Y0115691D02*
X0105217Y0115691D01*
X0105217Y0115906D02*
X0094633Y0115906D01*
X0094633Y0116121D02*
X0105217Y0116121D01*
X0105217Y0116336D02*
X0094633Y0116336D01*
X0094633Y0116551D02*
X0105217Y0116551D01*
X0105217Y0116766D02*
X0094633Y0116766D01*
X0094633Y0116981D02*
X0105217Y0116981D01*
X0105217Y0117196D02*
X0094633Y0117196D01*
X0094633Y0117411D02*
X0105217Y0117411D01*
X0105217Y0117626D02*
X0094633Y0117626D01*
X0094633Y0117841D02*
X0105217Y0117841D01*
X0105217Y0118056D02*
X0094633Y0118056D01*
X0094633Y0118271D02*
X0105217Y0118271D01*
X0105217Y0118486D02*
X0094633Y0118486D01*
X0094633Y0118701D02*
X0105217Y0118701D01*
X0105217Y0118916D02*
X0094633Y0118916D01*
X0094633Y0119131D02*
X0105217Y0119131D01*
X0105217Y0119346D02*
X0094633Y0119346D01*
X0094633Y0119561D02*
X0105217Y0119561D01*
X0105217Y0119776D02*
X0094633Y0119776D01*
X0094633Y0119991D02*
X0105217Y0119991D01*
X0105217Y0120206D02*
X0094633Y0120206D01*
X0094633Y0120421D02*
X0105217Y0120421D01*
X0105217Y0120636D02*
X0094633Y0120636D01*
X0094633Y0120851D02*
X0105217Y0120851D01*
X0105217Y0121066D02*
X0094633Y0121066D01*
X0094633Y0121281D02*
X0105217Y0121281D01*
X0105217Y0121496D02*
X0094633Y0121496D01*
X0094633Y0121711D02*
X0105217Y0121711D01*
X0105217Y0121926D02*
X0094633Y0121926D01*
X0094633Y0122141D02*
X0105217Y0122141D01*
X0105217Y0122356D02*
X0094633Y0122356D01*
X0094633Y0122571D02*
X0105217Y0122571D01*
X0105217Y0122786D02*
X0094633Y0122786D01*
X0094633Y0123001D02*
X0105217Y0123001D01*
X0105217Y0123216D02*
X0094633Y0123216D01*
X0094633Y0123431D02*
X0105217Y0123431D01*
D15*
X0154933Y0122802D02*
X0154933Y0101762D01*
X0144129Y0101762D01*
X0144129Y0122802D01*
X0154933Y0122802D01*
X0154933Y0101981D02*
X0144129Y0101981D01*
X0144129Y0102200D02*
X0154933Y0102200D01*
X0154933Y0102419D02*
X0144129Y0102419D01*
X0144129Y0102638D02*
X0154933Y0102638D01*
X0154933Y0102857D02*
X0144129Y0102857D01*
X0144129Y0103076D02*
X0154933Y0103076D01*
X0154933Y0103295D02*
X0144129Y0103295D01*
X0144129Y0103514D02*
X0154933Y0103514D01*
X0154933Y0103733D02*
X0144129Y0103733D01*
X0144129Y0103952D02*
X0154933Y0103952D01*
X0154933Y0104171D02*
X0144129Y0104171D01*
X0144129Y0104390D02*
X0154933Y0104390D01*
X0154933Y0104609D02*
X0144129Y0104609D01*
X0144129Y0104828D02*
X0154933Y0104828D01*
X0154933Y0105047D02*
X0144129Y0105047D01*
X0144129Y0105266D02*
X0154933Y0105266D01*
X0154933Y0105485D02*
X0144129Y0105485D01*
X0144129Y0105704D02*
X0154933Y0105704D01*
X0154933Y0105923D02*
X0144129Y0105923D01*
X0144129Y0106142D02*
X0154933Y0106142D01*
X0154933Y0106361D02*
X0144129Y0106361D01*
X0144129Y0106580D02*
X0154933Y0106580D01*
X0154933Y0106799D02*
X0144129Y0106799D01*
X0144129Y0107018D02*
X0154933Y0107018D01*
X0154933Y0107237D02*
X0144129Y0107237D01*
X0144129Y0107456D02*
X0154933Y0107456D01*
X0154933Y0107675D02*
X0144129Y0107675D01*
X0144129Y0107894D02*
X0154933Y0107894D01*
X0154933Y0108113D02*
X0144129Y0108113D01*
X0144129Y0108332D02*
X0154933Y0108332D01*
X0154933Y0108551D02*
X0144129Y0108551D01*
X0144129Y0108770D02*
X0154933Y0108770D01*
X0154933Y0108989D02*
X0144129Y0108989D01*
X0144129Y0109208D02*
X0154933Y0109208D01*
X0154933Y0109427D02*
X0144129Y0109427D01*
X0144129Y0109646D02*
X0154933Y0109646D01*
X0154933Y0109865D02*
X0144129Y0109865D01*
X0144129Y0110084D02*
X0154933Y0110084D01*
X0154933Y0110303D02*
X0144129Y0110303D01*
X0144129Y0110522D02*
X0154933Y0110522D01*
X0154933Y0110741D02*
X0144129Y0110741D01*
X0144129Y0110960D02*
X0154933Y0110960D01*
X0154933Y0111179D02*
X0144129Y0111179D01*
X0144129Y0111398D02*
X0154933Y0111398D01*
X0154933Y0111617D02*
X0144129Y0111617D01*
X0144129Y0111836D02*
X0154933Y0111836D01*
X0154933Y0112055D02*
X0144129Y0112055D01*
X0144129Y0112274D02*
X0154933Y0112274D01*
X0154933Y0112493D02*
X0144129Y0112493D01*
X0144129Y0112712D02*
X0154933Y0112712D01*
X0154933Y0112931D02*
X0144129Y0112931D01*
X0144129Y0113150D02*
X0154933Y0113150D01*
X0154933Y0113369D02*
X0144129Y0113369D01*
X0144129Y0113588D02*
X0154933Y0113588D01*
X0154933Y0113807D02*
X0144129Y0113807D01*
X0144129Y0114026D02*
X0154933Y0114026D01*
X0154933Y0114245D02*
X0144129Y0114245D01*
X0144129Y0114464D02*
X0154933Y0114464D01*
X0154933Y0114683D02*
X0144129Y0114683D01*
X0144129Y0114902D02*
X0154933Y0114902D01*
X0154933Y0115121D02*
X0144129Y0115121D01*
X0144129Y0115340D02*
X0154933Y0115340D01*
X0154933Y0115559D02*
X0144129Y0115559D01*
X0144129Y0115778D02*
X0154933Y0115778D01*
X0154933Y0115997D02*
X0144129Y0115997D01*
X0144129Y0116216D02*
X0154933Y0116216D01*
X0154933Y0116435D02*
X0144129Y0116435D01*
X0144129Y0116654D02*
X0154933Y0116654D01*
X0154933Y0116873D02*
X0144129Y0116873D01*
X0144129Y0117092D02*
X0154933Y0117092D01*
X0154933Y0117311D02*
X0144129Y0117311D01*
X0144129Y0117530D02*
X0154933Y0117530D01*
X0154933Y0117749D02*
X0144129Y0117749D01*
X0144129Y0117968D02*
X0154933Y0117968D01*
X0154933Y0118187D02*
X0144129Y0118187D01*
X0144129Y0118406D02*
X0154933Y0118406D01*
X0154933Y0118625D02*
X0144129Y0118625D01*
X0144129Y0118844D02*
X0154933Y0118844D01*
X0154933Y0119063D02*
X0144129Y0119063D01*
X0144129Y0119282D02*
X0154933Y0119282D01*
X0154933Y0119501D02*
X0144129Y0119501D01*
X0144129Y0119720D02*
X0154933Y0119720D01*
X0154933Y0119939D02*
X0144129Y0119939D01*
X0144129Y0120158D02*
X0154933Y0120158D01*
X0154933Y0120377D02*
X0144129Y0120377D01*
X0144129Y0120596D02*
X0154933Y0120596D01*
X0154933Y0120815D02*
X0144129Y0120815D01*
X0144129Y0121034D02*
X0154933Y0121034D01*
X0154933Y0121253D02*
X0144129Y0121253D01*
X0144129Y0121472D02*
X0154933Y0121472D01*
X0154933Y0121691D02*
X0144129Y0121691D01*
X0144129Y0121910D02*
X0154933Y0121910D01*
X0154933Y0122129D02*
X0144129Y0122129D01*
X0144129Y0122348D02*
X0154933Y0122348D01*
X0154933Y0122567D02*
X0144129Y0122567D01*
X0144129Y0122786D02*
X0154933Y0122786D01*
X0193516Y0122802D02*
X0193516Y0101762D01*
X0182712Y0101762D01*
X0182712Y0122802D01*
X0193516Y0122802D01*
X0193516Y0101981D02*
X0182712Y0101981D01*
X0182712Y0102200D02*
X0193516Y0102200D01*
X0193516Y0102419D02*
X0182712Y0102419D01*
X0182712Y0102638D02*
X0193516Y0102638D01*
X0193516Y0102857D02*
X0182712Y0102857D01*
X0182712Y0103076D02*
X0193516Y0103076D01*
X0193516Y0103295D02*
X0182712Y0103295D01*
X0182712Y0103514D02*
X0193516Y0103514D01*
X0193516Y0103733D02*
X0182712Y0103733D01*
X0182712Y0103952D02*
X0193516Y0103952D01*
X0193516Y0104171D02*
X0182712Y0104171D01*
X0182712Y0104390D02*
X0193516Y0104390D01*
X0193516Y0104609D02*
X0182712Y0104609D01*
X0182712Y0104828D02*
X0193516Y0104828D01*
X0193516Y0105047D02*
X0182712Y0105047D01*
X0182712Y0105266D02*
X0193516Y0105266D01*
X0193516Y0105485D02*
X0182712Y0105485D01*
X0182712Y0105704D02*
X0193516Y0105704D01*
X0193516Y0105923D02*
X0182712Y0105923D01*
X0182712Y0106142D02*
X0193516Y0106142D01*
X0193516Y0106361D02*
X0182712Y0106361D01*
X0182712Y0106580D02*
X0193516Y0106580D01*
X0193516Y0106799D02*
X0182712Y0106799D01*
X0182712Y0107018D02*
X0193516Y0107018D01*
X0193516Y0107237D02*
X0182712Y0107237D01*
X0182712Y0107456D02*
X0193516Y0107456D01*
X0193516Y0107675D02*
X0182712Y0107675D01*
X0182712Y0107894D02*
X0193516Y0107894D01*
X0193516Y0108113D02*
X0182712Y0108113D01*
X0182712Y0108332D02*
X0193516Y0108332D01*
X0193516Y0108551D02*
X0182712Y0108551D01*
X0182712Y0108770D02*
X0193516Y0108770D01*
X0193516Y0108989D02*
X0182712Y0108989D01*
X0182712Y0109208D02*
X0193516Y0109208D01*
X0193516Y0109427D02*
X0182712Y0109427D01*
X0182712Y0109646D02*
X0193516Y0109646D01*
X0193516Y0109865D02*
X0182712Y0109865D01*
X0182712Y0110084D02*
X0193516Y0110084D01*
X0193516Y0110303D02*
X0182712Y0110303D01*
X0182712Y0110522D02*
X0193516Y0110522D01*
X0193516Y0110741D02*
X0182712Y0110741D01*
X0182712Y0110960D02*
X0193516Y0110960D01*
X0193516Y0111179D02*
X0182712Y0111179D01*
X0182712Y0111398D02*
X0193516Y0111398D01*
X0193516Y0111617D02*
X0182712Y0111617D01*
X0182712Y0111836D02*
X0193516Y0111836D01*
X0193516Y0112055D02*
X0182712Y0112055D01*
X0182712Y0112274D02*
X0193516Y0112274D01*
X0193516Y0112493D02*
X0182712Y0112493D01*
X0182712Y0112712D02*
X0193516Y0112712D01*
X0193516Y0112931D02*
X0182712Y0112931D01*
X0182712Y0113150D02*
X0193516Y0113150D01*
X0193516Y0113369D02*
X0182712Y0113369D01*
X0182712Y0113588D02*
X0193516Y0113588D01*
X0193516Y0113807D02*
X0182712Y0113807D01*
X0182712Y0114026D02*
X0193516Y0114026D01*
X0193516Y0114245D02*
X0182712Y0114245D01*
X0182712Y0114464D02*
X0193516Y0114464D01*
X0193516Y0114683D02*
X0182712Y0114683D01*
X0182712Y0114902D02*
X0193516Y0114902D01*
X0193516Y0115121D02*
X0182712Y0115121D01*
X0182712Y0115340D02*
X0193516Y0115340D01*
X0193516Y0115559D02*
X0182712Y0115559D01*
X0182712Y0115778D02*
X0193516Y0115778D01*
X0193516Y0115997D02*
X0182712Y0115997D01*
X0182712Y0116216D02*
X0193516Y0116216D01*
X0193516Y0116435D02*
X0182712Y0116435D01*
X0182712Y0116654D02*
X0193516Y0116654D01*
X0193516Y0116873D02*
X0182712Y0116873D01*
X0182712Y0117092D02*
X0193516Y0117092D01*
X0193516Y0117311D02*
X0182712Y0117311D01*
X0182712Y0117530D02*
X0193516Y0117530D01*
X0193516Y0117749D02*
X0182712Y0117749D01*
X0182712Y0117968D02*
X0193516Y0117968D01*
X0193516Y0118187D02*
X0182712Y0118187D01*
X0182712Y0118406D02*
X0193516Y0118406D01*
X0193516Y0118625D02*
X0182712Y0118625D01*
X0182712Y0118844D02*
X0193516Y0118844D01*
X0193516Y0119063D02*
X0182712Y0119063D01*
X0182712Y0119282D02*
X0193516Y0119282D01*
X0193516Y0119501D02*
X0182712Y0119501D01*
X0182712Y0119720D02*
X0193516Y0119720D01*
X0193516Y0119939D02*
X0182712Y0119939D01*
X0182712Y0120158D02*
X0193516Y0120158D01*
X0193516Y0120377D02*
X0182712Y0120377D01*
X0182712Y0120596D02*
X0193516Y0120596D01*
X0193516Y0120815D02*
X0182712Y0120815D01*
X0182712Y0121034D02*
X0193516Y0121034D01*
X0193516Y0121253D02*
X0182712Y0121253D01*
X0182712Y0121472D02*
X0193516Y0121472D01*
X0193516Y0121691D02*
X0182712Y0121691D01*
X0182712Y0121910D02*
X0193516Y0121910D01*
X0193516Y0122129D02*
X0182712Y0122129D01*
X0182712Y0122348D02*
X0193516Y0122348D01*
X0193516Y0122567D02*
X0182712Y0122567D01*
X0182712Y0122786D02*
X0193516Y0122786D01*
M02*
