G04 EAGLE Gerber RS-274X export*
G75*
%MOMM*%
%FSLAX35Y35*%
%LPD*%
%INslot_drills_and_holes*%
%IPPOS*%
%AMOC8*
5,1,8,0,0,1.08239X$1,22.5*%
G01*
%ADD10C,0.010000*%
%ADD11C,0.000000*%


D10*
X-2300000Y17800000D02*
X-2300000Y12800000D01*
X-2300088Y12792751D01*
X-2300350Y12785506D01*
X-2300788Y12778270D01*
X-2301401Y12771046D01*
X-2302187Y12763839D01*
X-2303148Y12756653D01*
X-2304282Y12749493D01*
X-2305589Y12742362D01*
X-2307068Y12735265D01*
X-2308717Y12728205D01*
X-2310537Y12721188D01*
X-2312526Y12714216D01*
X-2314683Y12707295D01*
X-2317006Y12700428D01*
X-2319495Y12693619D01*
X-2322148Y12686872D01*
X-2324962Y12680191D01*
X-2327938Y12673580D01*
X-2331072Y12667043D01*
X-2334363Y12660583D01*
X-2337810Y12654205D01*
X-2341409Y12647912D01*
X-2345160Y12641708D01*
X-2349059Y12635596D01*
X-2353105Y12629581D01*
X-2357295Y12623664D01*
X-2361627Y12617851D01*
X-2366098Y12612144D01*
X-2370705Y12606547D01*
X-2375447Y12601063D01*
X-2380319Y12595695D01*
X-2385320Y12590447D01*
X-2390447Y12585320D01*
X-2395695Y12580319D01*
X-2401063Y12575447D01*
X-2406547Y12570705D01*
X-2412144Y12566098D01*
X-2417851Y12561627D01*
X-2423664Y12557295D01*
X-2429581Y12553105D01*
X-2435596Y12549059D01*
X-2441708Y12545160D01*
X-2447912Y12541409D01*
X-2454205Y12537810D01*
X-2460583Y12534363D01*
X-2467043Y12531072D01*
X-2473580Y12527938D01*
X-2480191Y12524962D01*
X-2486872Y12522148D01*
X-2493619Y12519495D01*
X-2500428Y12517006D01*
X-2507295Y12514683D01*
X-2514216Y12512526D01*
X-2521188Y12510537D01*
X-2528205Y12508717D01*
X-2535265Y12507068D01*
X-2542362Y12505589D01*
X-2549493Y12504282D01*
X-2556653Y12503148D01*
X-2563839Y12502187D01*
X-2571046Y12501401D01*
X-2578270Y12500788D01*
X-2585506Y12500350D01*
X-2592751Y12500088D01*
X-2600000Y12500000D01*
X-5500000Y12500000D01*
X-5507249Y12500088D01*
X-5514494Y12500350D01*
X-5521730Y12500788D01*
X-5528954Y12501401D01*
X-5536161Y12502187D01*
X-5543347Y12503148D01*
X-5550507Y12504282D01*
X-5557638Y12505589D01*
X-5564735Y12507068D01*
X-5571795Y12508717D01*
X-5578812Y12510537D01*
X-5585784Y12512526D01*
X-5592705Y12514683D01*
X-5599572Y12517006D01*
X-5606381Y12519495D01*
X-5613128Y12522148D01*
X-5619809Y12524962D01*
X-5626420Y12527938D01*
X-5632957Y12531072D01*
X-5639417Y12534363D01*
X-5645795Y12537810D01*
X-5652088Y12541409D01*
X-5658292Y12545160D01*
X-5664404Y12549059D01*
X-5670419Y12553105D01*
X-5676336Y12557295D01*
X-5682149Y12561627D01*
X-5687856Y12566098D01*
X-5693453Y12570705D01*
X-5698937Y12575447D01*
X-5704305Y12580319D01*
X-5709553Y12585320D01*
X-5714680Y12590447D01*
X-5719681Y12595695D01*
X-5724553Y12601063D01*
X-5729295Y12606547D01*
X-5733902Y12612144D01*
X-5738373Y12617851D01*
X-5742705Y12623664D01*
X-5746895Y12629581D01*
X-5750941Y12635596D01*
X-5754840Y12641708D01*
X-5758591Y12647912D01*
X-5762190Y12654205D01*
X-5765637Y12660583D01*
X-5768928Y12667043D01*
X-5772062Y12673580D01*
X-5775038Y12680191D01*
X-5777852Y12686872D01*
X-5780505Y12693619D01*
X-5782994Y12700428D01*
X-5785317Y12707295D01*
X-5787474Y12714216D01*
X-5789463Y12721188D01*
X-5791283Y12728205D01*
X-5792932Y12735265D01*
X-5794411Y12742362D01*
X-5795718Y12749493D01*
X-5796852Y12756653D01*
X-5797813Y12763839D01*
X-5798599Y12771046D01*
X-5799212Y12778270D01*
X-5799650Y12785506D01*
X-5799912Y12792751D01*
X-5800000Y12800000D01*
X-5800000Y17800000D01*
X-5799912Y17807249D01*
X-5799650Y17814494D01*
X-5799212Y17821730D01*
X-5798599Y17828954D01*
X-5797813Y17836161D01*
X-5796852Y17843347D01*
X-5795718Y17850507D01*
X-5794411Y17857638D01*
X-5792932Y17864735D01*
X-5791283Y17871795D01*
X-5789463Y17878812D01*
X-5787474Y17885784D01*
X-5785317Y17892705D01*
X-5782994Y17899572D01*
X-5780505Y17906381D01*
X-5777852Y17913128D01*
X-5775038Y17919809D01*
X-5772062Y17926420D01*
X-5768928Y17932957D01*
X-5765637Y17939417D01*
X-5762190Y17945795D01*
X-5758591Y17952088D01*
X-5754840Y17958292D01*
X-5750941Y17964404D01*
X-5746895Y17970419D01*
X-5742705Y17976336D01*
X-5738373Y17982149D01*
X-5733902Y17987856D01*
X-5729295Y17993453D01*
X-5724553Y17998937D01*
X-5719681Y18004305D01*
X-5714680Y18009553D01*
X-5709553Y18014680D01*
X-5704305Y18019681D01*
X-5698937Y18024553D01*
X-5693453Y18029295D01*
X-5687856Y18033902D01*
X-5682149Y18038373D01*
X-5676336Y18042705D01*
X-5670419Y18046895D01*
X-5664404Y18050941D01*
X-5658292Y18054840D01*
X-5652088Y18058591D01*
X-5645795Y18062190D01*
X-5639417Y18065637D01*
X-5632957Y18068928D01*
X-5626420Y18072062D01*
X-5619809Y18075038D01*
X-5613128Y18077852D01*
X-5606381Y18080505D01*
X-5599572Y18082994D01*
X-5592705Y18085317D01*
X-5585784Y18087474D01*
X-5578812Y18089463D01*
X-5571795Y18091283D01*
X-5564735Y18092932D01*
X-5557638Y18094411D01*
X-5550507Y18095718D01*
X-5543347Y18096852D01*
X-5536161Y18097813D01*
X-5528954Y18098599D01*
X-5521730Y18099212D01*
X-5514494Y18099650D01*
X-5507249Y18099912D01*
X-5500000Y18100000D01*
X-2600000Y18100000D01*
X-2592751Y18099912D01*
X-2585506Y18099650D01*
X-2578270Y18099212D01*
X-2571046Y18098599D01*
X-2563839Y18097813D01*
X-2556653Y18096852D01*
X-2549493Y18095718D01*
X-2542362Y18094411D01*
X-2535265Y18092932D01*
X-2528205Y18091283D01*
X-2521188Y18089463D01*
X-2514216Y18087474D01*
X-2507295Y18085317D01*
X-2500428Y18082994D01*
X-2493619Y18080505D01*
X-2486872Y18077852D01*
X-2480191Y18075038D01*
X-2473580Y18072062D01*
X-2467043Y18068928D01*
X-2460583Y18065637D01*
X-2454205Y18062190D01*
X-2447912Y18058591D01*
X-2441708Y18054840D01*
X-2435596Y18050941D01*
X-2429581Y18046895D01*
X-2423664Y18042705D01*
X-2417851Y18038373D01*
X-2412144Y18033902D01*
X-2406547Y18029295D01*
X-2401063Y18024553D01*
X-2395695Y18019681D01*
X-2390447Y18014680D01*
X-2385320Y18009553D01*
X-2380319Y18004305D01*
X-2375447Y17998937D01*
X-2370705Y17993453D01*
X-2366098Y17987856D01*
X-2361627Y17982149D01*
X-2357295Y17976336D01*
X-2353105Y17970419D01*
X-2349059Y17964404D01*
X-2345160Y17958292D01*
X-2341409Y17952088D01*
X-2337810Y17945795D01*
X-2334363Y17939417D01*
X-2331072Y17932957D01*
X-2327938Y17926420D01*
X-2324962Y17919809D01*
X-2322148Y17913128D01*
X-2319495Y17906381D01*
X-2317006Y17899572D01*
X-2314683Y17892705D01*
X-2312526Y17885784D01*
X-2310537Y17878812D01*
X-2308717Y17871795D01*
X-2307068Y17864735D01*
X-2305589Y17857638D01*
X-2304282Y17850507D01*
X-2303148Y17843347D01*
X-2302187Y17836161D01*
X-2301401Y17828954D01*
X-2300788Y17821730D01*
X-2300350Y17814494D01*
X-2300088Y17807249D01*
X-2300000Y17800000D01*
D11*
X-5245000Y15080000D02*
X-5244986Y15081104D01*
X-5244946Y15082208D01*
X-5244878Y15083310D01*
X-5244783Y15084411D01*
X-5244662Y15085508D01*
X-5244513Y15086603D01*
X-5244337Y15087693D01*
X-5244135Y15088779D01*
X-5243907Y15089860D01*
X-5243651Y15090934D01*
X-5243370Y15092002D01*
X-5243062Y15093063D01*
X-5242729Y15094116D01*
X-5242369Y15095160D01*
X-5241985Y15096195D01*
X-5241575Y15097221D01*
X-5241139Y15098236D01*
X-5240680Y15099240D01*
X-5240195Y15100233D01*
X-5239686Y15101213D01*
X-5239154Y15102180D01*
X-5238598Y15103135D01*
X-5238018Y15104075D01*
X-5237416Y15105001D01*
X-5236791Y15105911D01*
X-5236144Y15106806D01*
X-5235476Y15107685D01*
X-5234785Y15108548D01*
X-5234074Y15109393D01*
X-5233343Y15110220D01*
X-5232591Y15111029D01*
X-5231820Y15111820D01*
X-5231029Y15112591D01*
X-5230220Y15113343D01*
X-5229393Y15114074D01*
X-5228548Y15114785D01*
X-5227685Y15115476D01*
X-5226806Y15116144D01*
X-5225911Y15116791D01*
X-5225001Y15117416D01*
X-5224075Y15118018D01*
X-5223135Y15118598D01*
X-5222180Y15119154D01*
X-5221213Y15119686D01*
X-5220233Y15120195D01*
X-5219240Y15120680D01*
X-5218236Y15121139D01*
X-5217221Y15121575D01*
X-5216195Y15121985D01*
X-5215160Y15122369D01*
X-5214116Y15122729D01*
X-5213063Y15123062D01*
X-5212002Y15123370D01*
X-5210934Y15123651D01*
X-5209860Y15123907D01*
X-5208779Y15124135D01*
X-5207693Y15124337D01*
X-5206603Y15124513D01*
X-5205508Y15124662D01*
X-5204411Y15124783D01*
X-5203310Y15124878D01*
X-5202208Y15124946D01*
X-5201104Y15124986D01*
X-5200000Y15125000D01*
X-5198896Y15124986D01*
X-5197792Y15124946D01*
X-5196690Y15124878D01*
X-5195589Y15124783D01*
X-5194492Y15124662D01*
X-5193397Y15124513D01*
X-5192307Y15124337D01*
X-5191221Y15124135D01*
X-5190140Y15123907D01*
X-5189066Y15123651D01*
X-5187998Y15123370D01*
X-5186937Y15123062D01*
X-5185884Y15122729D01*
X-5184840Y15122369D01*
X-5183805Y15121985D01*
X-5182779Y15121575D01*
X-5181764Y15121139D01*
X-5180760Y15120680D01*
X-5179767Y15120195D01*
X-5178787Y15119686D01*
X-5177820Y15119154D01*
X-5176865Y15118598D01*
X-5175925Y15118018D01*
X-5174999Y15117416D01*
X-5174089Y15116791D01*
X-5173194Y15116144D01*
X-5172315Y15115476D01*
X-5171452Y15114785D01*
X-5170607Y15114074D01*
X-5169780Y15113343D01*
X-5168971Y15112591D01*
X-5168180Y15111820D01*
X-5167409Y15111029D01*
X-5166657Y15110220D01*
X-5165926Y15109393D01*
X-5165215Y15108548D01*
X-5164524Y15107685D01*
X-5163856Y15106806D01*
X-5163209Y15105911D01*
X-5162584Y15105001D01*
X-5161982Y15104075D01*
X-5161402Y15103135D01*
X-5160846Y15102180D01*
X-5160314Y15101213D01*
X-5159805Y15100233D01*
X-5159320Y15099240D01*
X-5158861Y15098236D01*
X-5158425Y15097221D01*
X-5158015Y15096195D01*
X-5157631Y15095160D01*
X-5157271Y15094116D01*
X-5156938Y15093063D01*
X-5156630Y15092002D01*
X-5156349Y15090934D01*
X-5156093Y15089860D01*
X-5155865Y15088779D01*
X-5155663Y15087693D01*
X-5155487Y15086603D01*
X-5155338Y15085508D01*
X-5155217Y15084411D01*
X-5155122Y15083310D01*
X-5155054Y15082208D01*
X-5155014Y15081104D01*
X-5155000Y15080000D01*
X-5155014Y15078896D01*
X-5155054Y15077792D01*
X-5155122Y15076690D01*
X-5155217Y15075589D01*
X-5155338Y15074492D01*
X-5155487Y15073397D01*
X-5155663Y15072307D01*
X-5155865Y15071221D01*
X-5156093Y15070140D01*
X-5156349Y15069066D01*
X-5156630Y15067998D01*
X-5156938Y15066937D01*
X-5157271Y15065884D01*
X-5157631Y15064840D01*
X-5158015Y15063805D01*
X-5158425Y15062779D01*
X-5158861Y15061764D01*
X-5159320Y15060760D01*
X-5159805Y15059767D01*
X-5160314Y15058787D01*
X-5160846Y15057820D01*
X-5161402Y15056865D01*
X-5161982Y15055925D01*
X-5162584Y15054999D01*
X-5163209Y15054089D01*
X-5163856Y15053194D01*
X-5164524Y15052315D01*
X-5165215Y15051452D01*
X-5165926Y15050607D01*
X-5166657Y15049780D01*
X-5167409Y15048971D01*
X-5168180Y15048180D01*
X-5168971Y15047409D01*
X-5169780Y15046657D01*
X-5170607Y15045926D01*
X-5171452Y15045215D01*
X-5172315Y15044524D01*
X-5173194Y15043856D01*
X-5174089Y15043209D01*
X-5174999Y15042584D01*
X-5175925Y15041982D01*
X-5176865Y15041402D01*
X-5177820Y15040846D01*
X-5178787Y15040314D01*
X-5179767Y15039805D01*
X-5180760Y15039320D01*
X-5181764Y15038861D01*
X-5182779Y15038425D01*
X-5183805Y15038015D01*
X-5184840Y15037631D01*
X-5185884Y15037271D01*
X-5186937Y15036938D01*
X-5187998Y15036630D01*
X-5189066Y15036349D01*
X-5190140Y15036093D01*
X-5191221Y15035865D01*
X-5192307Y15035663D01*
X-5193397Y15035487D01*
X-5194492Y15035338D01*
X-5195589Y15035217D01*
X-5196690Y15035122D01*
X-5197792Y15035054D01*
X-5198896Y15035014D01*
X-5200000Y15035000D01*
X-5201104Y15035014D01*
X-5202208Y15035054D01*
X-5203310Y15035122D01*
X-5204411Y15035217D01*
X-5205508Y15035338D01*
X-5206603Y15035487D01*
X-5207693Y15035663D01*
X-5208779Y15035865D01*
X-5209860Y15036093D01*
X-5210934Y15036349D01*
X-5212002Y15036630D01*
X-5213063Y15036938D01*
X-5214116Y15037271D01*
X-5215160Y15037631D01*
X-5216195Y15038015D01*
X-5217221Y15038425D01*
X-5218236Y15038861D01*
X-5219240Y15039320D01*
X-5220233Y15039805D01*
X-5221213Y15040314D01*
X-5222180Y15040846D01*
X-5223135Y15041402D01*
X-5224075Y15041982D01*
X-5225001Y15042584D01*
X-5225911Y15043209D01*
X-5226806Y15043856D01*
X-5227685Y15044524D01*
X-5228548Y15045215D01*
X-5229393Y15045926D01*
X-5230220Y15046657D01*
X-5231029Y15047409D01*
X-5231820Y15048180D01*
X-5232591Y15048971D01*
X-5233343Y15049780D01*
X-5234074Y15050607D01*
X-5234785Y15051452D01*
X-5235476Y15052315D01*
X-5236144Y15053194D01*
X-5236791Y15054089D01*
X-5237416Y15054999D01*
X-5238018Y15055925D01*
X-5238598Y15056865D01*
X-5239154Y15057820D01*
X-5239686Y15058787D01*
X-5240195Y15059767D01*
X-5240680Y15060760D01*
X-5241139Y15061764D01*
X-5241575Y15062779D01*
X-5241985Y15063805D01*
X-5242369Y15064840D01*
X-5242729Y15065884D01*
X-5243062Y15066937D01*
X-5243370Y15067998D01*
X-5243651Y15069066D01*
X-5243907Y15070140D01*
X-5244135Y15071221D01*
X-5244337Y15072307D01*
X-5244513Y15073397D01*
X-5244662Y15074492D01*
X-5244783Y15075589D01*
X-5244878Y15076690D01*
X-5244946Y15077792D01*
X-5244986Y15078896D01*
X-5245000Y15080000D01*
X-5245000Y15520000D02*
X-5244986Y15521104D01*
X-5244946Y15522208D01*
X-5244878Y15523310D01*
X-5244783Y15524411D01*
X-5244662Y15525508D01*
X-5244513Y15526603D01*
X-5244337Y15527693D01*
X-5244135Y15528779D01*
X-5243907Y15529860D01*
X-5243651Y15530934D01*
X-5243370Y15532002D01*
X-5243062Y15533063D01*
X-5242729Y15534116D01*
X-5242369Y15535160D01*
X-5241985Y15536195D01*
X-5241575Y15537221D01*
X-5241139Y15538236D01*
X-5240680Y15539240D01*
X-5240195Y15540233D01*
X-5239686Y15541213D01*
X-5239154Y15542180D01*
X-5238598Y15543135D01*
X-5238018Y15544075D01*
X-5237416Y15545001D01*
X-5236791Y15545911D01*
X-5236144Y15546806D01*
X-5235476Y15547685D01*
X-5234785Y15548548D01*
X-5234074Y15549393D01*
X-5233343Y15550220D01*
X-5232591Y15551029D01*
X-5231820Y15551820D01*
X-5231029Y15552591D01*
X-5230220Y15553343D01*
X-5229393Y15554074D01*
X-5228548Y15554785D01*
X-5227685Y15555476D01*
X-5226806Y15556144D01*
X-5225911Y15556791D01*
X-5225001Y15557416D01*
X-5224075Y15558018D01*
X-5223135Y15558598D01*
X-5222180Y15559154D01*
X-5221213Y15559686D01*
X-5220233Y15560195D01*
X-5219240Y15560680D01*
X-5218236Y15561139D01*
X-5217221Y15561575D01*
X-5216195Y15561985D01*
X-5215160Y15562369D01*
X-5214116Y15562729D01*
X-5213063Y15563062D01*
X-5212002Y15563370D01*
X-5210934Y15563651D01*
X-5209860Y15563907D01*
X-5208779Y15564135D01*
X-5207693Y15564337D01*
X-5206603Y15564513D01*
X-5205508Y15564662D01*
X-5204411Y15564783D01*
X-5203310Y15564878D01*
X-5202208Y15564946D01*
X-5201104Y15564986D01*
X-5200000Y15565000D01*
X-5198896Y15564986D01*
X-5197792Y15564946D01*
X-5196690Y15564878D01*
X-5195589Y15564783D01*
X-5194492Y15564662D01*
X-5193397Y15564513D01*
X-5192307Y15564337D01*
X-5191221Y15564135D01*
X-5190140Y15563907D01*
X-5189066Y15563651D01*
X-5187998Y15563370D01*
X-5186937Y15563062D01*
X-5185884Y15562729D01*
X-5184840Y15562369D01*
X-5183805Y15561985D01*
X-5182779Y15561575D01*
X-5181764Y15561139D01*
X-5180760Y15560680D01*
X-5179767Y15560195D01*
X-5178787Y15559686D01*
X-5177820Y15559154D01*
X-5176865Y15558598D01*
X-5175925Y15558018D01*
X-5174999Y15557416D01*
X-5174089Y15556791D01*
X-5173194Y15556144D01*
X-5172315Y15555476D01*
X-5171452Y15554785D01*
X-5170607Y15554074D01*
X-5169780Y15553343D01*
X-5168971Y15552591D01*
X-5168180Y15551820D01*
X-5167409Y15551029D01*
X-5166657Y15550220D01*
X-5165926Y15549393D01*
X-5165215Y15548548D01*
X-5164524Y15547685D01*
X-5163856Y15546806D01*
X-5163209Y15545911D01*
X-5162584Y15545001D01*
X-5161982Y15544075D01*
X-5161402Y15543135D01*
X-5160846Y15542180D01*
X-5160314Y15541213D01*
X-5159805Y15540233D01*
X-5159320Y15539240D01*
X-5158861Y15538236D01*
X-5158425Y15537221D01*
X-5158015Y15536195D01*
X-5157631Y15535160D01*
X-5157271Y15534116D01*
X-5156938Y15533063D01*
X-5156630Y15532002D01*
X-5156349Y15530934D01*
X-5156093Y15529860D01*
X-5155865Y15528779D01*
X-5155663Y15527693D01*
X-5155487Y15526603D01*
X-5155338Y15525508D01*
X-5155217Y15524411D01*
X-5155122Y15523310D01*
X-5155054Y15522208D01*
X-5155014Y15521104D01*
X-5155000Y15520000D01*
X-5155014Y15518896D01*
X-5155054Y15517792D01*
X-5155122Y15516690D01*
X-5155217Y15515589D01*
X-5155338Y15514492D01*
X-5155487Y15513397D01*
X-5155663Y15512307D01*
X-5155865Y15511221D01*
X-5156093Y15510140D01*
X-5156349Y15509066D01*
X-5156630Y15507998D01*
X-5156938Y15506937D01*
X-5157271Y15505884D01*
X-5157631Y15504840D01*
X-5158015Y15503805D01*
X-5158425Y15502779D01*
X-5158861Y15501764D01*
X-5159320Y15500760D01*
X-5159805Y15499767D01*
X-5160314Y15498787D01*
X-5160846Y15497820D01*
X-5161402Y15496865D01*
X-5161982Y15495925D01*
X-5162584Y15494999D01*
X-5163209Y15494089D01*
X-5163856Y15493194D01*
X-5164524Y15492315D01*
X-5165215Y15491452D01*
X-5165926Y15490607D01*
X-5166657Y15489780D01*
X-5167409Y15488971D01*
X-5168180Y15488180D01*
X-5168971Y15487409D01*
X-5169780Y15486657D01*
X-5170607Y15485926D01*
X-5171452Y15485215D01*
X-5172315Y15484524D01*
X-5173194Y15483856D01*
X-5174089Y15483209D01*
X-5174999Y15482584D01*
X-5175925Y15481982D01*
X-5176865Y15481402D01*
X-5177820Y15480846D01*
X-5178787Y15480314D01*
X-5179767Y15479805D01*
X-5180760Y15479320D01*
X-5181764Y15478861D01*
X-5182779Y15478425D01*
X-5183805Y15478015D01*
X-5184840Y15477631D01*
X-5185884Y15477271D01*
X-5186937Y15476938D01*
X-5187998Y15476630D01*
X-5189066Y15476349D01*
X-5190140Y15476093D01*
X-5191221Y15475865D01*
X-5192307Y15475663D01*
X-5193397Y15475487D01*
X-5194492Y15475338D01*
X-5195589Y15475217D01*
X-5196690Y15475122D01*
X-5197792Y15475054D01*
X-5198896Y15475014D01*
X-5200000Y15475000D01*
X-5201104Y15475014D01*
X-5202208Y15475054D01*
X-5203310Y15475122D01*
X-5204411Y15475217D01*
X-5205508Y15475338D01*
X-5206603Y15475487D01*
X-5207693Y15475663D01*
X-5208779Y15475865D01*
X-5209860Y15476093D01*
X-5210934Y15476349D01*
X-5212002Y15476630D01*
X-5213063Y15476938D01*
X-5214116Y15477271D01*
X-5215160Y15477631D01*
X-5216195Y15478015D01*
X-5217221Y15478425D01*
X-5218236Y15478861D01*
X-5219240Y15479320D01*
X-5220233Y15479805D01*
X-5221213Y15480314D01*
X-5222180Y15480846D01*
X-5223135Y15481402D01*
X-5224075Y15481982D01*
X-5225001Y15482584D01*
X-5225911Y15483209D01*
X-5226806Y15483856D01*
X-5227685Y15484524D01*
X-5228548Y15485215D01*
X-5229393Y15485926D01*
X-5230220Y15486657D01*
X-5231029Y15487409D01*
X-5231820Y15488180D01*
X-5232591Y15488971D01*
X-5233343Y15489780D01*
X-5234074Y15490607D01*
X-5234785Y15491452D01*
X-5235476Y15492315D01*
X-5236144Y15493194D01*
X-5236791Y15494089D01*
X-5237416Y15494999D01*
X-5238018Y15495925D01*
X-5238598Y15496865D01*
X-5239154Y15497820D01*
X-5239686Y15498787D01*
X-5240195Y15499767D01*
X-5240680Y15500760D01*
X-5241139Y15501764D01*
X-5241575Y15502779D01*
X-5241985Y15503805D01*
X-5242369Y15504840D01*
X-5242729Y15505884D01*
X-5243062Y15506937D01*
X-5243370Y15507998D01*
X-5243651Y15509066D01*
X-5243907Y15510140D01*
X-5244135Y15511221D01*
X-5244337Y15512307D01*
X-5244513Y15513397D01*
X-5244662Y15514492D01*
X-5244783Y15515589D01*
X-5244878Y15516690D01*
X-5244946Y15517792D01*
X-5244986Y15518896D01*
X-5245000Y15520000D01*
X-4865000Y17250000D02*
X-4864980Y17251595D01*
X-4864922Y17253189D01*
X-4864824Y17254782D01*
X-4864687Y17256371D01*
X-4864511Y17257957D01*
X-4864296Y17259537D01*
X-4864043Y17261113D01*
X-4863751Y17262681D01*
X-4863421Y17264242D01*
X-4863052Y17265794D01*
X-4862645Y17267336D01*
X-4862201Y17268869D01*
X-4861719Y17270389D01*
X-4861200Y17271898D01*
X-4860645Y17273393D01*
X-4860052Y17274874D01*
X-4859424Y17276341D01*
X-4858759Y17277791D01*
X-4858060Y17279225D01*
X-4857325Y17280641D01*
X-4856556Y17282038D01*
X-4855752Y17283417D01*
X-4854915Y17284775D01*
X-4854046Y17286112D01*
X-4853143Y17287428D01*
X-4852208Y17288720D01*
X-4851243Y17289990D01*
X-4850246Y17291236D01*
X-4849219Y17292456D01*
X-4848162Y17293651D01*
X-4847076Y17294820D01*
X-4845962Y17295962D01*
X-4844820Y17297076D01*
X-4843651Y17298162D01*
X-4842456Y17299219D01*
X-4841236Y17300246D01*
X-4839990Y17301243D01*
X-4838720Y17302208D01*
X-4837428Y17303143D01*
X-4836112Y17304046D01*
X-4834775Y17304915D01*
X-4833417Y17305752D01*
X-4832038Y17306556D01*
X-4830641Y17307325D01*
X-4829225Y17308060D01*
X-4827791Y17308759D01*
X-4826341Y17309424D01*
X-4824874Y17310052D01*
X-4823393Y17310645D01*
X-4821898Y17311200D01*
X-4820389Y17311719D01*
X-4818869Y17312201D01*
X-4817336Y17312645D01*
X-4815794Y17313052D01*
X-4814242Y17313421D01*
X-4812681Y17313751D01*
X-4811113Y17314043D01*
X-4809537Y17314296D01*
X-4807957Y17314511D01*
X-4806371Y17314687D01*
X-4804782Y17314824D01*
X-4803189Y17314922D01*
X-4801595Y17314980D01*
X-4800000Y17315000D01*
X-4798405Y17314980D01*
X-4796811Y17314922D01*
X-4795218Y17314824D01*
X-4793629Y17314687D01*
X-4792043Y17314511D01*
X-4790463Y17314296D01*
X-4788887Y17314043D01*
X-4787319Y17313751D01*
X-4785758Y17313421D01*
X-4784206Y17313052D01*
X-4782664Y17312645D01*
X-4781131Y17312201D01*
X-4779611Y17311719D01*
X-4778102Y17311200D01*
X-4776607Y17310645D01*
X-4775126Y17310052D01*
X-4773659Y17309424D01*
X-4772209Y17308759D01*
X-4770775Y17308060D01*
X-4769359Y17307325D01*
X-4767962Y17306556D01*
X-4766583Y17305752D01*
X-4765225Y17304915D01*
X-4763888Y17304046D01*
X-4762572Y17303143D01*
X-4761280Y17302208D01*
X-4760010Y17301243D01*
X-4758764Y17300246D01*
X-4757544Y17299219D01*
X-4756349Y17298162D01*
X-4755180Y17297076D01*
X-4754038Y17295962D01*
X-4752924Y17294820D01*
X-4751838Y17293651D01*
X-4750781Y17292456D01*
X-4749754Y17291236D01*
X-4748757Y17289990D01*
X-4747792Y17288720D01*
X-4746857Y17287428D01*
X-4745954Y17286112D01*
X-4745085Y17284775D01*
X-4744248Y17283417D01*
X-4743444Y17282038D01*
X-4742675Y17280641D01*
X-4741940Y17279225D01*
X-4741241Y17277791D01*
X-4740576Y17276341D01*
X-4739948Y17274874D01*
X-4739355Y17273393D01*
X-4738800Y17271898D01*
X-4738281Y17270389D01*
X-4737799Y17268869D01*
X-4737355Y17267336D01*
X-4736948Y17265794D01*
X-4736579Y17264242D01*
X-4736249Y17262681D01*
X-4735957Y17261113D01*
X-4735704Y17259537D01*
X-4735489Y17257957D01*
X-4735313Y17256371D01*
X-4735176Y17254782D01*
X-4735078Y17253189D01*
X-4735020Y17251595D01*
X-4735000Y17250000D01*
X-4735020Y17248405D01*
X-4735078Y17246811D01*
X-4735176Y17245218D01*
X-4735313Y17243629D01*
X-4735489Y17242043D01*
X-4735704Y17240463D01*
X-4735957Y17238887D01*
X-4736249Y17237319D01*
X-4736579Y17235758D01*
X-4736948Y17234206D01*
X-4737355Y17232664D01*
X-4737799Y17231131D01*
X-4738281Y17229611D01*
X-4738800Y17228102D01*
X-4739355Y17226607D01*
X-4739948Y17225126D01*
X-4740576Y17223659D01*
X-4741241Y17222209D01*
X-4741940Y17220775D01*
X-4742675Y17219359D01*
X-4743444Y17217962D01*
X-4744248Y17216583D01*
X-4745085Y17215225D01*
X-4745954Y17213888D01*
X-4746857Y17212572D01*
X-4747792Y17211280D01*
X-4748757Y17210010D01*
X-4749754Y17208764D01*
X-4750781Y17207544D01*
X-4751838Y17206349D01*
X-4752924Y17205180D01*
X-4754038Y17204038D01*
X-4755180Y17202924D01*
X-4756349Y17201838D01*
X-4757544Y17200781D01*
X-4758764Y17199754D01*
X-4760010Y17198757D01*
X-4761280Y17197792D01*
X-4762572Y17196857D01*
X-4763888Y17195954D01*
X-4765225Y17195085D01*
X-4766583Y17194248D01*
X-4767962Y17193444D01*
X-4769359Y17192675D01*
X-4770775Y17191940D01*
X-4772209Y17191241D01*
X-4773659Y17190576D01*
X-4775126Y17189948D01*
X-4776607Y17189355D01*
X-4778102Y17188800D01*
X-4779611Y17188281D01*
X-4781131Y17187799D01*
X-4782664Y17187355D01*
X-4784206Y17186948D01*
X-4785758Y17186579D01*
X-4787319Y17186249D01*
X-4788887Y17185957D01*
X-4790463Y17185704D01*
X-4792043Y17185489D01*
X-4793629Y17185313D01*
X-4795218Y17185176D01*
X-4796811Y17185078D01*
X-4798405Y17185020D01*
X-4800000Y17185000D01*
X-4801595Y17185020D01*
X-4803189Y17185078D01*
X-4804782Y17185176D01*
X-4806371Y17185313D01*
X-4807957Y17185489D01*
X-4809537Y17185704D01*
X-4811113Y17185957D01*
X-4812681Y17186249D01*
X-4814242Y17186579D01*
X-4815794Y17186948D01*
X-4817336Y17187355D01*
X-4818869Y17187799D01*
X-4820389Y17188281D01*
X-4821898Y17188800D01*
X-4823393Y17189355D01*
X-4824874Y17189948D01*
X-4826341Y17190576D01*
X-4827791Y17191241D01*
X-4829225Y17191940D01*
X-4830641Y17192675D01*
X-4832038Y17193444D01*
X-4833417Y17194248D01*
X-4834775Y17195085D01*
X-4836112Y17195954D01*
X-4837428Y17196857D01*
X-4838720Y17197792D01*
X-4839990Y17198757D01*
X-4841236Y17199754D01*
X-4842456Y17200781D01*
X-4843651Y17201838D01*
X-4844820Y17202924D01*
X-4845962Y17204038D01*
X-4847076Y17205180D01*
X-4848162Y17206349D01*
X-4849219Y17207544D01*
X-4850246Y17208764D01*
X-4851243Y17210010D01*
X-4852208Y17211280D01*
X-4853143Y17212572D01*
X-4854046Y17213888D01*
X-4854915Y17215225D01*
X-4855752Y17216583D01*
X-4856556Y17217962D01*
X-4857325Y17219359D01*
X-4858060Y17220775D01*
X-4858759Y17222209D01*
X-4859424Y17223659D01*
X-4860052Y17225126D01*
X-4860645Y17226607D01*
X-4861200Y17228102D01*
X-4861719Y17229611D01*
X-4862201Y17231131D01*
X-4862645Y17232664D01*
X-4863052Y17234206D01*
X-4863421Y17235758D01*
X-4863751Y17237319D01*
X-4864043Y17238887D01*
X-4864296Y17240463D01*
X-4864511Y17242043D01*
X-4864687Y17243629D01*
X-4864824Y17245218D01*
X-4864922Y17246811D01*
X-4864980Y17248405D01*
X-4865000Y17250000D01*
X-4865000Y16750000D02*
X-4864980Y16751595D01*
X-4864922Y16753189D01*
X-4864824Y16754782D01*
X-4864687Y16756371D01*
X-4864511Y16757957D01*
X-4864296Y16759537D01*
X-4864043Y16761113D01*
X-4863751Y16762681D01*
X-4863421Y16764242D01*
X-4863052Y16765794D01*
X-4862645Y16767336D01*
X-4862201Y16768869D01*
X-4861719Y16770389D01*
X-4861200Y16771898D01*
X-4860645Y16773393D01*
X-4860052Y16774874D01*
X-4859424Y16776341D01*
X-4858759Y16777791D01*
X-4858060Y16779225D01*
X-4857325Y16780641D01*
X-4856556Y16782038D01*
X-4855752Y16783417D01*
X-4854915Y16784775D01*
X-4854046Y16786112D01*
X-4853143Y16787428D01*
X-4852208Y16788720D01*
X-4851243Y16789990D01*
X-4850246Y16791236D01*
X-4849219Y16792456D01*
X-4848162Y16793651D01*
X-4847076Y16794820D01*
X-4845962Y16795962D01*
X-4844820Y16797076D01*
X-4843651Y16798162D01*
X-4842456Y16799219D01*
X-4841236Y16800246D01*
X-4839990Y16801243D01*
X-4838720Y16802208D01*
X-4837428Y16803143D01*
X-4836112Y16804046D01*
X-4834775Y16804915D01*
X-4833417Y16805752D01*
X-4832038Y16806556D01*
X-4830641Y16807325D01*
X-4829225Y16808060D01*
X-4827791Y16808759D01*
X-4826341Y16809424D01*
X-4824874Y16810052D01*
X-4823393Y16810645D01*
X-4821898Y16811200D01*
X-4820389Y16811719D01*
X-4818869Y16812201D01*
X-4817336Y16812645D01*
X-4815794Y16813052D01*
X-4814242Y16813421D01*
X-4812681Y16813751D01*
X-4811113Y16814043D01*
X-4809537Y16814296D01*
X-4807957Y16814511D01*
X-4806371Y16814687D01*
X-4804782Y16814824D01*
X-4803189Y16814922D01*
X-4801595Y16814980D01*
X-4800000Y16815000D01*
X-4798405Y16814980D01*
X-4796811Y16814922D01*
X-4795218Y16814824D01*
X-4793629Y16814687D01*
X-4792043Y16814511D01*
X-4790463Y16814296D01*
X-4788887Y16814043D01*
X-4787319Y16813751D01*
X-4785758Y16813421D01*
X-4784206Y16813052D01*
X-4782664Y16812645D01*
X-4781131Y16812201D01*
X-4779611Y16811719D01*
X-4778102Y16811200D01*
X-4776607Y16810645D01*
X-4775126Y16810052D01*
X-4773659Y16809424D01*
X-4772209Y16808759D01*
X-4770775Y16808060D01*
X-4769359Y16807325D01*
X-4767962Y16806556D01*
X-4766583Y16805752D01*
X-4765225Y16804915D01*
X-4763888Y16804046D01*
X-4762572Y16803143D01*
X-4761280Y16802208D01*
X-4760010Y16801243D01*
X-4758764Y16800246D01*
X-4757544Y16799219D01*
X-4756349Y16798162D01*
X-4755180Y16797076D01*
X-4754038Y16795962D01*
X-4752924Y16794820D01*
X-4751838Y16793651D01*
X-4750781Y16792456D01*
X-4749754Y16791236D01*
X-4748757Y16789990D01*
X-4747792Y16788720D01*
X-4746857Y16787428D01*
X-4745954Y16786112D01*
X-4745085Y16784775D01*
X-4744248Y16783417D01*
X-4743444Y16782038D01*
X-4742675Y16780641D01*
X-4741940Y16779225D01*
X-4741241Y16777791D01*
X-4740576Y16776341D01*
X-4739948Y16774874D01*
X-4739355Y16773393D01*
X-4738800Y16771898D01*
X-4738281Y16770389D01*
X-4737799Y16768869D01*
X-4737355Y16767336D01*
X-4736948Y16765794D01*
X-4736579Y16764242D01*
X-4736249Y16762681D01*
X-4735957Y16761113D01*
X-4735704Y16759537D01*
X-4735489Y16757957D01*
X-4735313Y16756371D01*
X-4735176Y16754782D01*
X-4735078Y16753189D01*
X-4735020Y16751595D01*
X-4735000Y16750000D01*
X-4735020Y16748405D01*
X-4735078Y16746811D01*
X-4735176Y16745218D01*
X-4735313Y16743629D01*
X-4735489Y16742043D01*
X-4735704Y16740463D01*
X-4735957Y16738887D01*
X-4736249Y16737319D01*
X-4736579Y16735758D01*
X-4736948Y16734206D01*
X-4737355Y16732664D01*
X-4737799Y16731131D01*
X-4738281Y16729611D01*
X-4738800Y16728102D01*
X-4739355Y16726607D01*
X-4739948Y16725126D01*
X-4740576Y16723659D01*
X-4741241Y16722209D01*
X-4741940Y16720775D01*
X-4742675Y16719359D01*
X-4743444Y16717962D01*
X-4744248Y16716583D01*
X-4745085Y16715225D01*
X-4745954Y16713888D01*
X-4746857Y16712572D01*
X-4747792Y16711280D01*
X-4748757Y16710010D01*
X-4749754Y16708764D01*
X-4750781Y16707544D01*
X-4751838Y16706349D01*
X-4752924Y16705180D01*
X-4754038Y16704038D01*
X-4755180Y16702924D01*
X-4756349Y16701838D01*
X-4757544Y16700781D01*
X-4758764Y16699754D01*
X-4760010Y16698757D01*
X-4761280Y16697792D01*
X-4762572Y16696857D01*
X-4763888Y16695954D01*
X-4765225Y16695085D01*
X-4766583Y16694248D01*
X-4767962Y16693444D01*
X-4769359Y16692675D01*
X-4770775Y16691940D01*
X-4772209Y16691241D01*
X-4773659Y16690576D01*
X-4775126Y16689948D01*
X-4776607Y16689355D01*
X-4778102Y16688800D01*
X-4779611Y16688281D01*
X-4781131Y16687799D01*
X-4782664Y16687355D01*
X-4784206Y16686948D01*
X-4785758Y16686579D01*
X-4787319Y16686249D01*
X-4788887Y16685957D01*
X-4790463Y16685704D01*
X-4792043Y16685489D01*
X-4793629Y16685313D01*
X-4795218Y16685176D01*
X-4796811Y16685078D01*
X-4798405Y16685020D01*
X-4800000Y16685000D01*
X-4801595Y16685020D01*
X-4803189Y16685078D01*
X-4804782Y16685176D01*
X-4806371Y16685313D01*
X-4807957Y16685489D01*
X-4809537Y16685704D01*
X-4811113Y16685957D01*
X-4812681Y16686249D01*
X-4814242Y16686579D01*
X-4815794Y16686948D01*
X-4817336Y16687355D01*
X-4818869Y16687799D01*
X-4820389Y16688281D01*
X-4821898Y16688800D01*
X-4823393Y16689355D01*
X-4824874Y16689948D01*
X-4826341Y16690576D01*
X-4827791Y16691241D01*
X-4829225Y16691940D01*
X-4830641Y16692675D01*
X-4832038Y16693444D01*
X-4833417Y16694248D01*
X-4834775Y16695085D01*
X-4836112Y16695954D01*
X-4837428Y16696857D01*
X-4838720Y16697792D01*
X-4839990Y16698757D01*
X-4841236Y16699754D01*
X-4842456Y16700781D01*
X-4843651Y16701838D01*
X-4844820Y16702924D01*
X-4845962Y16704038D01*
X-4847076Y16705180D01*
X-4848162Y16706349D01*
X-4849219Y16707544D01*
X-4850246Y16708764D01*
X-4851243Y16710010D01*
X-4852208Y16711280D01*
X-4853143Y16712572D01*
X-4854046Y16713888D01*
X-4854915Y16715225D01*
X-4855752Y16716583D01*
X-4856556Y16717962D01*
X-4857325Y16719359D01*
X-4858060Y16720775D01*
X-4858759Y16722209D01*
X-4859424Y16723659D01*
X-4860052Y16725126D01*
X-4860645Y16726607D01*
X-4861200Y16728102D01*
X-4861719Y16729611D01*
X-4862201Y16731131D01*
X-4862645Y16732664D01*
X-4863052Y16734206D01*
X-4863421Y16735758D01*
X-4863751Y16737319D01*
X-4864043Y16738887D01*
X-4864296Y16740463D01*
X-4864511Y16742043D01*
X-4864687Y16743629D01*
X-4864824Y16745218D01*
X-4864922Y16746811D01*
X-4864980Y16748405D01*
X-4865000Y16750000D01*
M02*
