G75*
%MOIN*%
%OFA0B0*%
%FSLAX25Y25*%
%IPPOS*%
%LPD*%
%AMOC8*
5,1,8,0,0,1.08239X$1,22.5*
%
%ADD10C,0.00000*%
%ADD11C,0.00237*%
%ADD12C,0.08400*%
%ADD13C,0.00268*%
%ADD14OC8,0.07400*%
%ADD15OC8,0.06000*%
%ADD16C,0.05556*%
%ADD17C,0.00340*%
%ADD18C,0.00232*%
%ADD19C,0.06343*%
%ADD20C,0.09855*%
%ADD21OC8,0.07000*%
%ADD22C,0.07000*%
%ADD23C,0.00236*%
%ADD24C,0.03384*%
D10*
X0001500Y0059133D02*
X0001500Y0175274D01*
X0253469Y0175274D01*
X0253469Y0059133D01*
X0001500Y0059133D01*
X0220988Y0088503D02*
X0220990Y0088637D01*
X0220996Y0088771D01*
X0221006Y0088905D01*
X0221020Y0089039D01*
X0221038Y0089172D01*
X0221059Y0089304D01*
X0221085Y0089436D01*
X0221115Y0089567D01*
X0221148Y0089697D01*
X0221185Y0089825D01*
X0221227Y0089953D01*
X0221271Y0090080D01*
X0221320Y0090205D01*
X0221372Y0090328D01*
X0221428Y0090450D01*
X0221488Y0090571D01*
X0221551Y0090689D01*
X0221617Y0090806D01*
X0221687Y0090920D01*
X0221760Y0091033D01*
X0221837Y0091143D01*
X0221917Y0091251D01*
X0222000Y0091356D01*
X0222086Y0091459D01*
X0222175Y0091559D01*
X0222267Y0091657D01*
X0222362Y0091752D01*
X0222460Y0091844D01*
X0222560Y0091933D01*
X0222663Y0092019D01*
X0222768Y0092102D01*
X0222876Y0092182D01*
X0222986Y0092259D01*
X0223099Y0092332D01*
X0223213Y0092402D01*
X0223330Y0092468D01*
X0223448Y0092531D01*
X0223569Y0092591D01*
X0223691Y0092647D01*
X0223814Y0092699D01*
X0223939Y0092748D01*
X0224066Y0092792D01*
X0224194Y0092834D01*
X0224322Y0092871D01*
X0224452Y0092904D01*
X0224583Y0092934D01*
X0224715Y0092960D01*
X0224847Y0092981D01*
X0224980Y0092999D01*
X0225114Y0093013D01*
X0225248Y0093023D01*
X0225382Y0093029D01*
X0225516Y0093031D01*
X0225650Y0093029D01*
X0225784Y0093023D01*
X0225918Y0093013D01*
X0226052Y0092999D01*
X0226185Y0092981D01*
X0226317Y0092960D01*
X0226449Y0092934D01*
X0226580Y0092904D01*
X0226710Y0092871D01*
X0226838Y0092834D01*
X0226966Y0092792D01*
X0227093Y0092748D01*
X0227218Y0092699D01*
X0227341Y0092647D01*
X0227463Y0092591D01*
X0227584Y0092531D01*
X0227702Y0092468D01*
X0227819Y0092402D01*
X0227933Y0092332D01*
X0228046Y0092259D01*
X0228156Y0092182D01*
X0228264Y0092102D01*
X0228369Y0092019D01*
X0228472Y0091933D01*
X0228572Y0091844D01*
X0228670Y0091752D01*
X0228765Y0091657D01*
X0228857Y0091559D01*
X0228946Y0091459D01*
X0229032Y0091356D01*
X0229115Y0091251D01*
X0229195Y0091143D01*
X0229272Y0091033D01*
X0229345Y0090920D01*
X0229415Y0090806D01*
X0229481Y0090689D01*
X0229544Y0090571D01*
X0229604Y0090450D01*
X0229660Y0090328D01*
X0229712Y0090205D01*
X0229761Y0090080D01*
X0229805Y0089953D01*
X0229847Y0089825D01*
X0229884Y0089697D01*
X0229917Y0089567D01*
X0229947Y0089436D01*
X0229973Y0089304D01*
X0229994Y0089172D01*
X0230012Y0089039D01*
X0230026Y0088905D01*
X0230036Y0088771D01*
X0230042Y0088637D01*
X0230044Y0088503D01*
X0230042Y0088369D01*
X0230036Y0088235D01*
X0230026Y0088101D01*
X0230012Y0087967D01*
X0229994Y0087834D01*
X0229973Y0087702D01*
X0229947Y0087570D01*
X0229917Y0087439D01*
X0229884Y0087309D01*
X0229847Y0087181D01*
X0229805Y0087053D01*
X0229761Y0086926D01*
X0229712Y0086801D01*
X0229660Y0086678D01*
X0229604Y0086556D01*
X0229544Y0086435D01*
X0229481Y0086317D01*
X0229415Y0086200D01*
X0229345Y0086086D01*
X0229272Y0085973D01*
X0229195Y0085863D01*
X0229115Y0085755D01*
X0229032Y0085650D01*
X0228946Y0085547D01*
X0228857Y0085447D01*
X0228765Y0085349D01*
X0228670Y0085254D01*
X0228572Y0085162D01*
X0228472Y0085073D01*
X0228369Y0084987D01*
X0228264Y0084904D01*
X0228156Y0084824D01*
X0228046Y0084747D01*
X0227933Y0084674D01*
X0227819Y0084604D01*
X0227702Y0084538D01*
X0227584Y0084475D01*
X0227463Y0084415D01*
X0227341Y0084359D01*
X0227218Y0084307D01*
X0227093Y0084258D01*
X0226966Y0084214D01*
X0226838Y0084172D01*
X0226710Y0084135D01*
X0226580Y0084102D01*
X0226449Y0084072D01*
X0226317Y0084046D01*
X0226185Y0084025D01*
X0226052Y0084007D01*
X0225918Y0083993D01*
X0225784Y0083983D01*
X0225650Y0083977D01*
X0225516Y0083975D01*
X0225382Y0083977D01*
X0225248Y0083983D01*
X0225114Y0083993D01*
X0224980Y0084007D01*
X0224847Y0084025D01*
X0224715Y0084046D01*
X0224583Y0084072D01*
X0224452Y0084102D01*
X0224322Y0084135D01*
X0224194Y0084172D01*
X0224066Y0084214D01*
X0223939Y0084258D01*
X0223814Y0084307D01*
X0223691Y0084359D01*
X0223569Y0084415D01*
X0223448Y0084475D01*
X0223330Y0084538D01*
X0223213Y0084604D01*
X0223099Y0084674D01*
X0222986Y0084747D01*
X0222876Y0084824D01*
X0222768Y0084904D01*
X0222663Y0084987D01*
X0222560Y0085073D01*
X0222460Y0085162D01*
X0222362Y0085254D01*
X0222267Y0085349D01*
X0222175Y0085447D01*
X0222086Y0085547D01*
X0222000Y0085650D01*
X0221917Y0085755D01*
X0221837Y0085863D01*
X0221760Y0085973D01*
X0221687Y0086086D01*
X0221617Y0086200D01*
X0221551Y0086317D01*
X0221488Y0086435D01*
X0221428Y0086556D01*
X0221372Y0086678D01*
X0221320Y0086801D01*
X0221271Y0086926D01*
X0221227Y0087053D01*
X0221185Y0087181D01*
X0221148Y0087309D01*
X0221115Y0087439D01*
X0221085Y0087570D01*
X0221059Y0087702D01*
X0221038Y0087834D01*
X0221020Y0087967D01*
X0221006Y0088101D01*
X0220996Y0088235D01*
X0220990Y0088369D01*
X0220988Y0088503D01*
X0220594Y0139684D02*
X0220596Y0139818D01*
X0220602Y0139952D01*
X0220612Y0140086D01*
X0220626Y0140220D01*
X0220644Y0140353D01*
X0220665Y0140485D01*
X0220691Y0140617D01*
X0220721Y0140748D01*
X0220754Y0140878D01*
X0220791Y0141006D01*
X0220833Y0141134D01*
X0220877Y0141261D01*
X0220926Y0141386D01*
X0220978Y0141509D01*
X0221034Y0141631D01*
X0221094Y0141752D01*
X0221157Y0141870D01*
X0221223Y0141987D01*
X0221293Y0142101D01*
X0221366Y0142214D01*
X0221443Y0142324D01*
X0221523Y0142432D01*
X0221606Y0142537D01*
X0221692Y0142640D01*
X0221781Y0142740D01*
X0221873Y0142838D01*
X0221968Y0142933D01*
X0222066Y0143025D01*
X0222166Y0143114D01*
X0222269Y0143200D01*
X0222374Y0143283D01*
X0222482Y0143363D01*
X0222592Y0143440D01*
X0222705Y0143513D01*
X0222819Y0143583D01*
X0222936Y0143649D01*
X0223054Y0143712D01*
X0223175Y0143772D01*
X0223297Y0143828D01*
X0223420Y0143880D01*
X0223545Y0143929D01*
X0223672Y0143973D01*
X0223800Y0144015D01*
X0223928Y0144052D01*
X0224058Y0144085D01*
X0224189Y0144115D01*
X0224321Y0144141D01*
X0224453Y0144162D01*
X0224586Y0144180D01*
X0224720Y0144194D01*
X0224854Y0144204D01*
X0224988Y0144210D01*
X0225122Y0144212D01*
X0225256Y0144210D01*
X0225390Y0144204D01*
X0225524Y0144194D01*
X0225658Y0144180D01*
X0225791Y0144162D01*
X0225923Y0144141D01*
X0226055Y0144115D01*
X0226186Y0144085D01*
X0226316Y0144052D01*
X0226444Y0144015D01*
X0226572Y0143973D01*
X0226699Y0143929D01*
X0226824Y0143880D01*
X0226947Y0143828D01*
X0227069Y0143772D01*
X0227190Y0143712D01*
X0227308Y0143649D01*
X0227425Y0143583D01*
X0227539Y0143513D01*
X0227652Y0143440D01*
X0227762Y0143363D01*
X0227870Y0143283D01*
X0227975Y0143200D01*
X0228078Y0143114D01*
X0228178Y0143025D01*
X0228276Y0142933D01*
X0228371Y0142838D01*
X0228463Y0142740D01*
X0228552Y0142640D01*
X0228638Y0142537D01*
X0228721Y0142432D01*
X0228801Y0142324D01*
X0228878Y0142214D01*
X0228951Y0142101D01*
X0229021Y0141987D01*
X0229087Y0141870D01*
X0229150Y0141752D01*
X0229210Y0141631D01*
X0229266Y0141509D01*
X0229318Y0141386D01*
X0229367Y0141261D01*
X0229411Y0141134D01*
X0229453Y0141006D01*
X0229490Y0140878D01*
X0229523Y0140748D01*
X0229553Y0140617D01*
X0229579Y0140485D01*
X0229600Y0140353D01*
X0229618Y0140220D01*
X0229632Y0140086D01*
X0229642Y0139952D01*
X0229648Y0139818D01*
X0229650Y0139684D01*
X0229648Y0139550D01*
X0229642Y0139416D01*
X0229632Y0139282D01*
X0229618Y0139148D01*
X0229600Y0139015D01*
X0229579Y0138883D01*
X0229553Y0138751D01*
X0229523Y0138620D01*
X0229490Y0138490D01*
X0229453Y0138362D01*
X0229411Y0138234D01*
X0229367Y0138107D01*
X0229318Y0137982D01*
X0229266Y0137859D01*
X0229210Y0137737D01*
X0229150Y0137616D01*
X0229087Y0137498D01*
X0229021Y0137381D01*
X0228951Y0137267D01*
X0228878Y0137154D01*
X0228801Y0137044D01*
X0228721Y0136936D01*
X0228638Y0136831D01*
X0228552Y0136728D01*
X0228463Y0136628D01*
X0228371Y0136530D01*
X0228276Y0136435D01*
X0228178Y0136343D01*
X0228078Y0136254D01*
X0227975Y0136168D01*
X0227870Y0136085D01*
X0227762Y0136005D01*
X0227652Y0135928D01*
X0227539Y0135855D01*
X0227425Y0135785D01*
X0227308Y0135719D01*
X0227190Y0135656D01*
X0227069Y0135596D01*
X0226947Y0135540D01*
X0226824Y0135488D01*
X0226699Y0135439D01*
X0226572Y0135395D01*
X0226444Y0135353D01*
X0226316Y0135316D01*
X0226186Y0135283D01*
X0226055Y0135253D01*
X0225923Y0135227D01*
X0225791Y0135206D01*
X0225658Y0135188D01*
X0225524Y0135174D01*
X0225390Y0135164D01*
X0225256Y0135158D01*
X0225122Y0135156D01*
X0224988Y0135158D01*
X0224854Y0135164D01*
X0224720Y0135174D01*
X0224586Y0135188D01*
X0224453Y0135206D01*
X0224321Y0135227D01*
X0224189Y0135253D01*
X0224058Y0135283D01*
X0223928Y0135316D01*
X0223800Y0135353D01*
X0223672Y0135395D01*
X0223545Y0135439D01*
X0223420Y0135488D01*
X0223297Y0135540D01*
X0223175Y0135596D01*
X0223054Y0135656D01*
X0222936Y0135719D01*
X0222819Y0135785D01*
X0222705Y0135855D01*
X0222592Y0135928D01*
X0222482Y0136005D01*
X0222374Y0136085D01*
X0222269Y0136168D01*
X0222166Y0136254D01*
X0222066Y0136343D01*
X0221968Y0136435D01*
X0221873Y0136530D01*
X0221781Y0136628D01*
X0221692Y0136728D01*
X0221606Y0136831D01*
X0221523Y0136936D01*
X0221443Y0137044D01*
X0221366Y0137154D01*
X0221293Y0137267D01*
X0221223Y0137381D01*
X0221157Y0137498D01*
X0221094Y0137616D01*
X0221034Y0137737D01*
X0220978Y0137859D01*
X0220926Y0137982D01*
X0220877Y0138107D01*
X0220833Y0138234D01*
X0220791Y0138362D01*
X0220754Y0138490D01*
X0220721Y0138620D01*
X0220691Y0138751D01*
X0220665Y0138883D01*
X0220644Y0139015D01*
X0220626Y0139148D01*
X0220612Y0139282D01*
X0220602Y0139416D01*
X0220596Y0139550D01*
X0220594Y0139684D01*
D11*
X0210903Y0137276D02*
X0210903Y0142958D01*
X0217373Y0142958D01*
X0217373Y0137276D01*
X0210903Y0137276D01*
X0210903Y0137512D02*
X0217373Y0137512D01*
X0217373Y0137748D02*
X0210903Y0137748D01*
X0210903Y0137984D02*
X0217373Y0137984D01*
X0217373Y0138220D02*
X0210903Y0138220D01*
X0210903Y0138456D02*
X0217373Y0138456D01*
X0217373Y0138692D02*
X0210903Y0138692D01*
X0210903Y0138928D02*
X0217373Y0138928D01*
X0217373Y0139164D02*
X0210903Y0139164D01*
X0210903Y0139400D02*
X0217373Y0139400D01*
X0217373Y0139636D02*
X0210903Y0139636D01*
X0210903Y0139872D02*
X0217373Y0139872D01*
X0217373Y0140108D02*
X0210903Y0140108D01*
X0210903Y0140344D02*
X0217373Y0140344D01*
X0217373Y0140580D02*
X0210903Y0140580D01*
X0210903Y0140816D02*
X0217373Y0140816D01*
X0217373Y0141052D02*
X0210903Y0141052D01*
X0210903Y0141288D02*
X0217373Y0141288D01*
X0217373Y0141524D02*
X0210903Y0141524D01*
X0210903Y0141760D02*
X0217373Y0141760D01*
X0217373Y0141996D02*
X0210903Y0141996D01*
X0210903Y0142232D02*
X0217373Y0142232D01*
X0217373Y0142468D02*
X0210903Y0142468D01*
X0210903Y0142704D02*
X0217373Y0142704D01*
X0217373Y0142940D02*
X0210903Y0142940D01*
X0210903Y0144756D02*
X0210903Y0150438D01*
X0217373Y0150438D01*
X0217373Y0144756D01*
X0210903Y0144756D01*
X0210903Y0144992D02*
X0217373Y0144992D01*
X0217373Y0145228D02*
X0210903Y0145228D01*
X0210903Y0145464D02*
X0217373Y0145464D01*
X0217373Y0145700D02*
X0210903Y0145700D01*
X0210903Y0145936D02*
X0217373Y0145936D01*
X0217373Y0146172D02*
X0210903Y0146172D01*
X0210903Y0146408D02*
X0217373Y0146408D01*
X0217373Y0146644D02*
X0210903Y0146644D01*
X0210903Y0146880D02*
X0217373Y0146880D01*
X0217373Y0147116D02*
X0210903Y0147116D01*
X0210903Y0147352D02*
X0217373Y0147352D01*
X0217373Y0147588D02*
X0210903Y0147588D01*
X0210903Y0147824D02*
X0217373Y0147824D01*
X0217373Y0148060D02*
X0210903Y0148060D01*
X0210903Y0148296D02*
X0217373Y0148296D01*
X0217373Y0148532D02*
X0210903Y0148532D01*
X0210903Y0148768D02*
X0217373Y0148768D01*
X0217373Y0149004D02*
X0210903Y0149004D01*
X0210903Y0149240D02*
X0217373Y0149240D01*
X0217373Y0149476D02*
X0210903Y0149476D01*
X0210903Y0149712D02*
X0217373Y0149712D01*
X0217373Y0149948D02*
X0210903Y0149948D01*
X0210903Y0150184D02*
X0217373Y0150184D01*
X0217373Y0150420D02*
X0210903Y0150420D01*
X0210903Y0130753D02*
X0210903Y0125071D01*
X0210903Y0130753D02*
X0217373Y0130753D01*
X0217373Y0125071D01*
X0210903Y0125071D01*
X0210903Y0125307D02*
X0217373Y0125307D01*
X0217373Y0125543D02*
X0210903Y0125543D01*
X0210903Y0125779D02*
X0217373Y0125779D01*
X0217373Y0126015D02*
X0210903Y0126015D01*
X0210903Y0126251D02*
X0217373Y0126251D01*
X0217373Y0126487D02*
X0210903Y0126487D01*
X0210903Y0126723D02*
X0217373Y0126723D01*
X0217373Y0126959D02*
X0210903Y0126959D01*
X0210903Y0127195D02*
X0217373Y0127195D01*
X0217373Y0127431D02*
X0210903Y0127431D01*
X0210903Y0127667D02*
X0217373Y0127667D01*
X0217373Y0127903D02*
X0210903Y0127903D01*
X0210903Y0128139D02*
X0217373Y0128139D01*
X0217373Y0128375D02*
X0210903Y0128375D01*
X0210903Y0128611D02*
X0217373Y0128611D01*
X0217373Y0128847D02*
X0210903Y0128847D01*
X0210903Y0129083D02*
X0217373Y0129083D01*
X0217373Y0129319D02*
X0210903Y0129319D01*
X0210903Y0129555D02*
X0217373Y0129555D01*
X0217373Y0129791D02*
X0210903Y0129791D01*
X0210903Y0130027D02*
X0217373Y0130027D01*
X0217373Y0130263D02*
X0210903Y0130263D01*
X0210903Y0130499D02*
X0217373Y0130499D01*
X0217373Y0130735D02*
X0210903Y0130735D01*
X0210903Y0123273D02*
X0210903Y0117591D01*
X0210903Y0123273D02*
X0217373Y0123273D01*
X0217373Y0117591D01*
X0210903Y0117591D01*
X0210903Y0117827D02*
X0217373Y0117827D01*
X0217373Y0118063D02*
X0210903Y0118063D01*
X0210903Y0118299D02*
X0217373Y0118299D01*
X0217373Y0118535D02*
X0210903Y0118535D01*
X0210903Y0118771D02*
X0217373Y0118771D01*
X0217373Y0119007D02*
X0210903Y0119007D01*
X0210903Y0119243D02*
X0217373Y0119243D01*
X0217373Y0119479D02*
X0210903Y0119479D01*
X0210903Y0119715D02*
X0217373Y0119715D01*
X0217373Y0119951D02*
X0210903Y0119951D01*
X0210903Y0120187D02*
X0217373Y0120187D01*
X0217373Y0120423D02*
X0210903Y0120423D01*
X0210903Y0120659D02*
X0217373Y0120659D01*
X0217373Y0120895D02*
X0210903Y0120895D01*
X0210903Y0121131D02*
X0217373Y0121131D01*
X0217373Y0121367D02*
X0210903Y0121367D01*
X0210903Y0121603D02*
X0217373Y0121603D01*
X0217373Y0121839D02*
X0210903Y0121839D01*
X0210903Y0122075D02*
X0217373Y0122075D01*
X0217373Y0122311D02*
X0210903Y0122311D01*
X0210903Y0122547D02*
X0217373Y0122547D01*
X0217373Y0122783D02*
X0210903Y0122783D01*
X0210903Y0123019D02*
X0217373Y0123019D01*
X0217373Y0123255D02*
X0210903Y0123255D01*
X0217373Y0111068D02*
X0217373Y0105386D01*
X0210903Y0105386D01*
X0210903Y0111068D01*
X0217373Y0111068D01*
X0217373Y0105622D02*
X0210903Y0105622D01*
X0210903Y0105858D02*
X0217373Y0105858D01*
X0217373Y0106094D02*
X0210903Y0106094D01*
X0210903Y0106330D02*
X0217373Y0106330D01*
X0217373Y0106566D02*
X0210903Y0106566D01*
X0210903Y0106802D02*
X0217373Y0106802D01*
X0217373Y0107038D02*
X0210903Y0107038D01*
X0210903Y0107274D02*
X0217373Y0107274D01*
X0217373Y0107510D02*
X0210903Y0107510D01*
X0210903Y0107746D02*
X0217373Y0107746D01*
X0217373Y0107982D02*
X0210903Y0107982D01*
X0210903Y0108218D02*
X0217373Y0108218D01*
X0217373Y0108454D02*
X0210903Y0108454D01*
X0210903Y0108690D02*
X0217373Y0108690D01*
X0217373Y0108926D02*
X0210903Y0108926D01*
X0210903Y0109162D02*
X0217373Y0109162D01*
X0217373Y0109398D02*
X0210903Y0109398D01*
X0210903Y0109634D02*
X0217373Y0109634D01*
X0217373Y0109870D02*
X0210903Y0109870D01*
X0210903Y0110106D02*
X0217373Y0110106D01*
X0217373Y0110342D02*
X0210903Y0110342D01*
X0210903Y0110578D02*
X0217373Y0110578D01*
X0217373Y0110814D02*
X0210903Y0110814D01*
X0210903Y0111050D02*
X0217373Y0111050D01*
X0217373Y0103588D02*
X0217373Y0097906D01*
X0210903Y0097906D01*
X0210903Y0103588D01*
X0217373Y0103588D01*
X0217373Y0098142D02*
X0210903Y0098142D01*
X0210903Y0098378D02*
X0217373Y0098378D01*
X0217373Y0098614D02*
X0210903Y0098614D01*
X0210903Y0098850D02*
X0217373Y0098850D01*
X0217373Y0099086D02*
X0210903Y0099086D01*
X0210903Y0099322D02*
X0217373Y0099322D01*
X0217373Y0099558D02*
X0210903Y0099558D01*
X0210903Y0099794D02*
X0217373Y0099794D01*
X0217373Y0100030D02*
X0210903Y0100030D01*
X0210903Y0100266D02*
X0217373Y0100266D01*
X0217373Y0100502D02*
X0210903Y0100502D01*
X0210903Y0100738D02*
X0217373Y0100738D01*
X0217373Y0100974D02*
X0210903Y0100974D01*
X0210903Y0101210D02*
X0217373Y0101210D01*
X0217373Y0101446D02*
X0210903Y0101446D01*
X0210903Y0101682D02*
X0217373Y0101682D01*
X0217373Y0101918D02*
X0210903Y0101918D01*
X0210903Y0102154D02*
X0217373Y0102154D01*
X0217373Y0102390D02*
X0210903Y0102390D01*
X0210903Y0102626D02*
X0217373Y0102626D01*
X0217373Y0102862D02*
X0210903Y0102862D01*
X0210903Y0103098D02*
X0217373Y0103098D01*
X0217373Y0103334D02*
X0210903Y0103334D01*
X0210903Y0103570D02*
X0217373Y0103570D01*
X0217373Y0091383D02*
X0217373Y0085701D01*
X0210903Y0085701D01*
X0210903Y0091383D01*
X0217373Y0091383D01*
X0217373Y0085937D02*
X0210903Y0085937D01*
X0210903Y0086173D02*
X0217373Y0086173D01*
X0217373Y0086409D02*
X0210903Y0086409D01*
X0210903Y0086645D02*
X0217373Y0086645D01*
X0217373Y0086881D02*
X0210903Y0086881D01*
X0210903Y0087117D02*
X0217373Y0087117D01*
X0217373Y0087353D02*
X0210903Y0087353D01*
X0210903Y0087589D02*
X0217373Y0087589D01*
X0217373Y0087825D02*
X0210903Y0087825D01*
X0210903Y0088061D02*
X0217373Y0088061D01*
X0217373Y0088297D02*
X0210903Y0088297D01*
X0210903Y0088533D02*
X0217373Y0088533D01*
X0217373Y0088769D02*
X0210903Y0088769D01*
X0210903Y0089005D02*
X0217373Y0089005D01*
X0217373Y0089241D02*
X0210903Y0089241D01*
X0210903Y0089477D02*
X0217373Y0089477D01*
X0217373Y0089713D02*
X0210903Y0089713D01*
X0210903Y0089949D02*
X0217373Y0089949D01*
X0217373Y0090185D02*
X0210903Y0090185D01*
X0210903Y0090421D02*
X0217373Y0090421D01*
X0217373Y0090657D02*
X0210903Y0090657D01*
X0210903Y0090893D02*
X0217373Y0090893D01*
X0217373Y0091129D02*
X0210903Y0091129D01*
X0210903Y0091365D02*
X0217373Y0091365D01*
X0217373Y0083903D02*
X0217373Y0078221D01*
X0210903Y0078221D01*
X0210903Y0083903D01*
X0217373Y0083903D01*
X0217373Y0078457D02*
X0210903Y0078457D01*
X0210903Y0078693D02*
X0217373Y0078693D01*
X0217373Y0078929D02*
X0210903Y0078929D01*
X0210903Y0079165D02*
X0217373Y0079165D01*
X0217373Y0079401D02*
X0210903Y0079401D01*
X0210903Y0079637D02*
X0217373Y0079637D01*
X0217373Y0079873D02*
X0210903Y0079873D01*
X0210903Y0080109D02*
X0217373Y0080109D01*
X0217373Y0080345D02*
X0210903Y0080345D01*
X0210903Y0080581D02*
X0217373Y0080581D01*
X0217373Y0080817D02*
X0210903Y0080817D01*
X0210903Y0081053D02*
X0217373Y0081053D01*
X0217373Y0081289D02*
X0210903Y0081289D01*
X0210903Y0081525D02*
X0217373Y0081525D01*
X0217373Y0081761D02*
X0210903Y0081761D01*
X0210903Y0081997D02*
X0217373Y0081997D01*
X0217373Y0082233D02*
X0210903Y0082233D01*
X0210903Y0082469D02*
X0217373Y0082469D01*
X0217373Y0082705D02*
X0210903Y0082705D01*
X0210903Y0082941D02*
X0217373Y0082941D01*
X0217373Y0083177D02*
X0210903Y0083177D01*
X0210903Y0083413D02*
X0217373Y0083413D01*
X0217373Y0083649D02*
X0210903Y0083649D01*
X0210903Y0083885D02*
X0217373Y0083885D01*
X0136034Y0138575D02*
X0130352Y0138575D01*
X0130352Y0145045D01*
X0136034Y0145045D01*
X0136034Y0138575D01*
X0136034Y0138811D02*
X0130352Y0138811D01*
X0130352Y0139047D02*
X0136034Y0139047D01*
X0136034Y0139283D02*
X0130352Y0139283D01*
X0130352Y0139519D02*
X0136034Y0139519D01*
X0136034Y0139755D02*
X0130352Y0139755D01*
X0130352Y0139991D02*
X0136034Y0139991D01*
X0136034Y0140227D02*
X0130352Y0140227D01*
X0130352Y0140463D02*
X0136034Y0140463D01*
X0136034Y0140699D02*
X0130352Y0140699D01*
X0130352Y0140935D02*
X0136034Y0140935D01*
X0136034Y0141171D02*
X0130352Y0141171D01*
X0130352Y0141407D02*
X0136034Y0141407D01*
X0136034Y0141643D02*
X0130352Y0141643D01*
X0130352Y0141879D02*
X0136034Y0141879D01*
X0136034Y0142115D02*
X0130352Y0142115D01*
X0130352Y0142351D02*
X0136034Y0142351D01*
X0136034Y0142587D02*
X0130352Y0142587D01*
X0130352Y0142823D02*
X0136034Y0142823D01*
X0136034Y0143059D02*
X0130352Y0143059D01*
X0130352Y0143295D02*
X0136034Y0143295D01*
X0136034Y0143531D02*
X0130352Y0143531D01*
X0130352Y0143767D02*
X0136034Y0143767D01*
X0136034Y0144003D02*
X0130352Y0144003D01*
X0130352Y0144239D02*
X0136034Y0144239D01*
X0136034Y0144475D02*
X0130352Y0144475D01*
X0130352Y0144711D02*
X0136034Y0144711D01*
X0136034Y0144947D02*
X0130352Y0144947D01*
X0128554Y0138575D02*
X0122872Y0138575D01*
X0122872Y0145045D01*
X0128554Y0145045D01*
X0128554Y0138575D01*
X0128554Y0138811D02*
X0122872Y0138811D01*
X0122872Y0139047D02*
X0128554Y0139047D01*
X0128554Y0139283D02*
X0122872Y0139283D01*
X0122872Y0139519D02*
X0128554Y0139519D01*
X0128554Y0139755D02*
X0122872Y0139755D01*
X0122872Y0139991D02*
X0128554Y0139991D01*
X0128554Y0140227D02*
X0122872Y0140227D01*
X0122872Y0140463D02*
X0128554Y0140463D01*
X0128554Y0140699D02*
X0122872Y0140699D01*
X0122872Y0140935D02*
X0128554Y0140935D01*
X0128554Y0141171D02*
X0122872Y0141171D01*
X0122872Y0141407D02*
X0128554Y0141407D01*
X0128554Y0141643D02*
X0122872Y0141643D01*
X0122872Y0141879D02*
X0128554Y0141879D01*
X0128554Y0142115D02*
X0122872Y0142115D01*
X0122872Y0142351D02*
X0128554Y0142351D01*
X0128554Y0142587D02*
X0122872Y0142587D01*
X0122872Y0142823D02*
X0128554Y0142823D01*
X0128554Y0143059D02*
X0122872Y0143059D01*
X0122872Y0143295D02*
X0128554Y0143295D01*
X0128554Y0143531D02*
X0122872Y0143531D01*
X0122872Y0143767D02*
X0128554Y0143767D01*
X0128554Y0144003D02*
X0122872Y0144003D01*
X0122872Y0144239D02*
X0128554Y0144239D01*
X0128554Y0144475D02*
X0122872Y0144475D01*
X0122872Y0144711D02*
X0128554Y0144711D01*
X0128554Y0144947D02*
X0122872Y0144947D01*
X0120286Y0138575D02*
X0114604Y0138575D01*
X0114604Y0145045D01*
X0120286Y0145045D01*
X0120286Y0138575D01*
X0120286Y0138811D02*
X0114604Y0138811D01*
X0114604Y0139047D02*
X0120286Y0139047D01*
X0120286Y0139283D02*
X0114604Y0139283D01*
X0114604Y0139519D02*
X0120286Y0139519D01*
X0120286Y0139755D02*
X0114604Y0139755D01*
X0114604Y0139991D02*
X0120286Y0139991D01*
X0120286Y0140227D02*
X0114604Y0140227D01*
X0114604Y0140463D02*
X0120286Y0140463D01*
X0120286Y0140699D02*
X0114604Y0140699D01*
X0114604Y0140935D02*
X0120286Y0140935D01*
X0120286Y0141171D02*
X0114604Y0141171D01*
X0114604Y0141407D02*
X0120286Y0141407D01*
X0120286Y0141643D02*
X0114604Y0141643D01*
X0114604Y0141879D02*
X0120286Y0141879D01*
X0120286Y0142115D02*
X0114604Y0142115D01*
X0114604Y0142351D02*
X0120286Y0142351D01*
X0120286Y0142587D02*
X0114604Y0142587D01*
X0114604Y0142823D02*
X0120286Y0142823D01*
X0120286Y0143059D02*
X0114604Y0143059D01*
X0114604Y0143295D02*
X0120286Y0143295D01*
X0120286Y0143531D02*
X0114604Y0143531D01*
X0114604Y0143767D02*
X0120286Y0143767D01*
X0120286Y0144003D02*
X0114604Y0144003D01*
X0114604Y0144239D02*
X0120286Y0144239D01*
X0120286Y0144475D02*
X0114604Y0144475D01*
X0114604Y0144711D02*
X0120286Y0144711D01*
X0120286Y0144947D02*
X0114604Y0144947D01*
X0112806Y0138575D02*
X0107124Y0138575D01*
X0107124Y0145045D01*
X0112806Y0145045D01*
X0112806Y0138575D01*
X0112806Y0138811D02*
X0107124Y0138811D01*
X0107124Y0139047D02*
X0112806Y0139047D01*
X0112806Y0139283D02*
X0107124Y0139283D01*
X0107124Y0139519D02*
X0112806Y0139519D01*
X0112806Y0139755D02*
X0107124Y0139755D01*
X0107124Y0139991D02*
X0112806Y0139991D01*
X0112806Y0140227D02*
X0107124Y0140227D01*
X0107124Y0140463D02*
X0112806Y0140463D01*
X0112806Y0140699D02*
X0107124Y0140699D01*
X0107124Y0140935D02*
X0112806Y0140935D01*
X0112806Y0141171D02*
X0107124Y0141171D01*
X0107124Y0141407D02*
X0112806Y0141407D01*
X0112806Y0141643D02*
X0107124Y0141643D01*
X0107124Y0141879D02*
X0112806Y0141879D01*
X0112806Y0142115D02*
X0107124Y0142115D01*
X0107124Y0142351D02*
X0112806Y0142351D01*
X0112806Y0142587D02*
X0107124Y0142587D01*
X0107124Y0142823D02*
X0112806Y0142823D01*
X0112806Y0143059D02*
X0107124Y0143059D01*
X0107124Y0143295D02*
X0112806Y0143295D01*
X0112806Y0143531D02*
X0107124Y0143531D01*
X0107124Y0143767D02*
X0112806Y0143767D01*
X0112806Y0144003D02*
X0107124Y0144003D01*
X0107124Y0144239D02*
X0112806Y0144239D01*
X0112806Y0144475D02*
X0107124Y0144475D01*
X0107124Y0144711D02*
X0112806Y0144711D01*
X0112806Y0144947D02*
X0107124Y0144947D01*
X0106900Y0158260D02*
X0101218Y0158260D01*
X0101218Y0164730D01*
X0106900Y0164730D01*
X0106900Y0158260D01*
X0106900Y0158496D02*
X0101218Y0158496D01*
X0101218Y0158732D02*
X0106900Y0158732D01*
X0106900Y0158968D02*
X0101218Y0158968D01*
X0101218Y0159204D02*
X0106900Y0159204D01*
X0106900Y0159440D02*
X0101218Y0159440D01*
X0101218Y0159676D02*
X0106900Y0159676D01*
X0106900Y0159912D02*
X0101218Y0159912D01*
X0101218Y0160148D02*
X0106900Y0160148D01*
X0106900Y0160384D02*
X0101218Y0160384D01*
X0101218Y0160620D02*
X0106900Y0160620D01*
X0106900Y0160856D02*
X0101218Y0160856D01*
X0101218Y0161092D02*
X0106900Y0161092D01*
X0106900Y0161328D02*
X0101218Y0161328D01*
X0101218Y0161564D02*
X0106900Y0161564D01*
X0106900Y0161800D02*
X0101218Y0161800D01*
X0101218Y0162036D02*
X0106900Y0162036D01*
X0106900Y0162272D02*
X0101218Y0162272D01*
X0101218Y0162508D02*
X0106900Y0162508D01*
X0106900Y0162744D02*
X0101218Y0162744D01*
X0101218Y0162980D02*
X0106900Y0162980D01*
X0106900Y0163216D02*
X0101218Y0163216D01*
X0101218Y0163452D02*
X0106900Y0163452D01*
X0106900Y0163688D02*
X0101218Y0163688D01*
X0101218Y0163924D02*
X0106900Y0163924D01*
X0106900Y0164160D02*
X0101218Y0164160D01*
X0101218Y0164396D02*
X0106900Y0164396D01*
X0106900Y0164632D02*
X0101218Y0164632D01*
X0094695Y0158260D02*
X0089013Y0158260D01*
X0089013Y0164730D01*
X0094695Y0164730D01*
X0094695Y0158260D01*
X0094695Y0158496D02*
X0089013Y0158496D01*
X0089013Y0158732D02*
X0094695Y0158732D01*
X0094695Y0158968D02*
X0089013Y0158968D01*
X0089013Y0159204D02*
X0094695Y0159204D01*
X0094695Y0159440D02*
X0089013Y0159440D01*
X0089013Y0159676D02*
X0094695Y0159676D01*
X0094695Y0159912D02*
X0089013Y0159912D01*
X0089013Y0160148D02*
X0094695Y0160148D01*
X0094695Y0160384D02*
X0089013Y0160384D01*
X0089013Y0160620D02*
X0094695Y0160620D01*
X0094695Y0160856D02*
X0089013Y0160856D01*
X0089013Y0161092D02*
X0094695Y0161092D01*
X0094695Y0161328D02*
X0089013Y0161328D01*
X0089013Y0161564D02*
X0094695Y0161564D01*
X0094695Y0161800D02*
X0089013Y0161800D01*
X0089013Y0162036D02*
X0094695Y0162036D01*
X0094695Y0162272D02*
X0089013Y0162272D01*
X0089013Y0162508D02*
X0094695Y0162508D01*
X0094695Y0162744D02*
X0089013Y0162744D01*
X0089013Y0162980D02*
X0094695Y0162980D01*
X0094695Y0163216D02*
X0089013Y0163216D01*
X0089013Y0163452D02*
X0094695Y0163452D01*
X0094695Y0163688D02*
X0089013Y0163688D01*
X0089013Y0163924D02*
X0094695Y0163924D01*
X0094695Y0164160D02*
X0089013Y0164160D01*
X0089013Y0164396D02*
X0094695Y0164396D01*
X0094695Y0164632D02*
X0089013Y0164632D01*
X0087215Y0158260D02*
X0081533Y0158260D01*
X0081533Y0164730D01*
X0087215Y0164730D01*
X0087215Y0158260D01*
X0087215Y0158496D02*
X0081533Y0158496D01*
X0081533Y0158732D02*
X0087215Y0158732D01*
X0087215Y0158968D02*
X0081533Y0158968D01*
X0081533Y0159204D02*
X0087215Y0159204D01*
X0087215Y0159440D02*
X0081533Y0159440D01*
X0081533Y0159676D02*
X0087215Y0159676D01*
X0087215Y0159912D02*
X0081533Y0159912D01*
X0081533Y0160148D02*
X0087215Y0160148D01*
X0087215Y0160384D02*
X0081533Y0160384D01*
X0081533Y0160620D02*
X0087215Y0160620D01*
X0087215Y0160856D02*
X0081533Y0160856D01*
X0081533Y0161092D02*
X0087215Y0161092D01*
X0087215Y0161328D02*
X0081533Y0161328D01*
X0081533Y0161564D02*
X0087215Y0161564D01*
X0087215Y0161800D02*
X0081533Y0161800D01*
X0081533Y0162036D02*
X0087215Y0162036D01*
X0087215Y0162272D02*
X0081533Y0162272D01*
X0081533Y0162508D02*
X0087215Y0162508D01*
X0087215Y0162744D02*
X0081533Y0162744D01*
X0081533Y0162980D02*
X0087215Y0162980D01*
X0087215Y0163216D02*
X0081533Y0163216D01*
X0081533Y0163452D02*
X0087215Y0163452D01*
X0087215Y0163688D02*
X0081533Y0163688D01*
X0081533Y0163924D02*
X0087215Y0163924D01*
X0087215Y0164160D02*
X0081533Y0164160D01*
X0081533Y0164396D02*
X0087215Y0164396D01*
X0087215Y0164632D02*
X0081533Y0164632D01*
X0059853Y0162171D02*
X0059853Y0156489D01*
X0053383Y0156489D01*
X0053383Y0162171D01*
X0059853Y0162171D01*
X0059853Y0156725D02*
X0053383Y0156725D01*
X0053383Y0156961D02*
X0059853Y0156961D01*
X0059853Y0157197D02*
X0053383Y0157197D01*
X0053383Y0157433D02*
X0059853Y0157433D01*
X0059853Y0157669D02*
X0053383Y0157669D01*
X0053383Y0157905D02*
X0059853Y0157905D01*
X0059853Y0158141D02*
X0053383Y0158141D01*
X0053383Y0158377D02*
X0059853Y0158377D01*
X0059853Y0158613D02*
X0053383Y0158613D01*
X0053383Y0158849D02*
X0059853Y0158849D01*
X0059853Y0159085D02*
X0053383Y0159085D01*
X0053383Y0159321D02*
X0059853Y0159321D01*
X0059853Y0159557D02*
X0053383Y0159557D01*
X0053383Y0159793D02*
X0059853Y0159793D01*
X0059853Y0160029D02*
X0053383Y0160029D01*
X0053383Y0160265D02*
X0059853Y0160265D01*
X0059853Y0160501D02*
X0053383Y0160501D01*
X0053383Y0160737D02*
X0059853Y0160737D01*
X0059853Y0160973D02*
X0053383Y0160973D01*
X0053383Y0161209D02*
X0059853Y0161209D01*
X0059853Y0161445D02*
X0053383Y0161445D01*
X0053383Y0161681D02*
X0059853Y0161681D01*
X0059853Y0161917D02*
X0053383Y0161917D01*
X0053383Y0162153D02*
X0059853Y0162153D01*
X0059853Y0154690D02*
X0059853Y0149008D01*
X0053383Y0149008D01*
X0053383Y0154690D01*
X0059853Y0154690D01*
X0059853Y0149244D02*
X0053383Y0149244D01*
X0053383Y0149480D02*
X0059853Y0149480D01*
X0059853Y0149716D02*
X0053383Y0149716D01*
X0053383Y0149952D02*
X0059853Y0149952D01*
X0059853Y0150188D02*
X0053383Y0150188D01*
X0053383Y0150424D02*
X0059853Y0150424D01*
X0059853Y0150660D02*
X0053383Y0150660D01*
X0053383Y0150896D02*
X0059853Y0150896D01*
X0059853Y0151132D02*
X0053383Y0151132D01*
X0053383Y0151368D02*
X0059853Y0151368D01*
X0059853Y0151604D02*
X0053383Y0151604D01*
X0053383Y0151840D02*
X0059853Y0151840D01*
X0059853Y0152076D02*
X0053383Y0152076D01*
X0053383Y0152312D02*
X0059853Y0152312D01*
X0059853Y0152548D02*
X0053383Y0152548D01*
X0053383Y0152784D02*
X0059853Y0152784D01*
X0059853Y0153020D02*
X0053383Y0153020D01*
X0053383Y0153256D02*
X0059853Y0153256D01*
X0059853Y0153492D02*
X0053383Y0153492D01*
X0053383Y0153728D02*
X0059853Y0153728D01*
X0059853Y0153964D02*
X0053383Y0153964D01*
X0053383Y0154200D02*
X0059853Y0154200D01*
X0059853Y0154436D02*
X0053383Y0154436D01*
X0053383Y0154672D02*
X0059853Y0154672D01*
X0083475Y0140517D02*
X0083475Y0134835D01*
X0077005Y0134835D01*
X0077005Y0140517D01*
X0083475Y0140517D01*
X0083475Y0135071D02*
X0077005Y0135071D01*
X0077005Y0135307D02*
X0083475Y0135307D01*
X0083475Y0135543D02*
X0077005Y0135543D01*
X0077005Y0135779D02*
X0083475Y0135779D01*
X0083475Y0136015D02*
X0077005Y0136015D01*
X0077005Y0136251D02*
X0083475Y0136251D01*
X0083475Y0136487D02*
X0077005Y0136487D01*
X0077005Y0136723D02*
X0083475Y0136723D01*
X0083475Y0136959D02*
X0077005Y0136959D01*
X0077005Y0137195D02*
X0083475Y0137195D01*
X0083475Y0137431D02*
X0077005Y0137431D01*
X0077005Y0137667D02*
X0083475Y0137667D01*
X0083475Y0137903D02*
X0077005Y0137903D01*
X0077005Y0138139D02*
X0083475Y0138139D01*
X0083475Y0138375D02*
X0077005Y0138375D01*
X0077005Y0138611D02*
X0083475Y0138611D01*
X0083475Y0138847D02*
X0077005Y0138847D01*
X0077005Y0139083D02*
X0083475Y0139083D01*
X0083475Y0139319D02*
X0077005Y0139319D01*
X0077005Y0139555D02*
X0083475Y0139555D01*
X0083475Y0139791D02*
X0077005Y0139791D01*
X0077005Y0140027D02*
X0083475Y0140027D01*
X0083475Y0140263D02*
X0077005Y0140263D01*
X0077005Y0140499D02*
X0083475Y0140499D01*
X0083475Y0133037D02*
X0083475Y0127355D01*
X0077005Y0127355D01*
X0077005Y0133037D01*
X0083475Y0133037D01*
X0083475Y0127591D02*
X0077005Y0127591D01*
X0077005Y0127827D02*
X0083475Y0127827D01*
X0083475Y0128063D02*
X0077005Y0128063D01*
X0077005Y0128299D02*
X0083475Y0128299D01*
X0083475Y0128535D02*
X0077005Y0128535D01*
X0077005Y0128771D02*
X0083475Y0128771D01*
X0083475Y0129007D02*
X0077005Y0129007D01*
X0077005Y0129243D02*
X0083475Y0129243D01*
X0083475Y0129479D02*
X0077005Y0129479D01*
X0077005Y0129715D02*
X0083475Y0129715D01*
X0083475Y0129951D02*
X0077005Y0129951D01*
X0077005Y0130187D02*
X0083475Y0130187D01*
X0083475Y0130423D02*
X0077005Y0130423D01*
X0077005Y0130659D02*
X0083475Y0130659D01*
X0083475Y0130895D02*
X0077005Y0130895D01*
X0077005Y0131131D02*
X0083475Y0131131D01*
X0083475Y0131367D02*
X0077005Y0131367D01*
X0077005Y0131603D02*
X0083475Y0131603D01*
X0083475Y0131839D02*
X0077005Y0131839D01*
X0077005Y0132075D02*
X0083475Y0132075D01*
X0083475Y0132311D02*
X0077005Y0132311D01*
X0077005Y0132547D02*
X0083475Y0132547D01*
X0083475Y0132783D02*
X0077005Y0132783D01*
X0077005Y0133019D02*
X0083475Y0133019D01*
X0108698Y0158260D02*
X0114380Y0158260D01*
X0108698Y0158260D02*
X0108698Y0164730D01*
X0114380Y0164730D01*
X0114380Y0158260D01*
X0114380Y0158496D02*
X0108698Y0158496D01*
X0108698Y0158732D02*
X0114380Y0158732D01*
X0114380Y0158968D02*
X0108698Y0158968D01*
X0108698Y0159204D02*
X0114380Y0159204D01*
X0114380Y0159440D02*
X0108698Y0159440D01*
X0108698Y0159676D02*
X0114380Y0159676D01*
X0114380Y0159912D02*
X0108698Y0159912D01*
X0108698Y0160148D02*
X0114380Y0160148D01*
X0114380Y0160384D02*
X0108698Y0160384D01*
X0108698Y0160620D02*
X0114380Y0160620D01*
X0114380Y0160856D02*
X0108698Y0160856D01*
X0108698Y0161092D02*
X0114380Y0161092D01*
X0114380Y0161328D02*
X0108698Y0161328D01*
X0108698Y0161564D02*
X0114380Y0161564D01*
X0114380Y0161800D02*
X0108698Y0161800D01*
X0108698Y0162036D02*
X0114380Y0162036D01*
X0114380Y0162272D02*
X0108698Y0162272D01*
X0108698Y0162508D02*
X0114380Y0162508D01*
X0114380Y0162744D02*
X0108698Y0162744D01*
X0108698Y0162980D02*
X0114380Y0162980D01*
X0114380Y0163216D02*
X0108698Y0163216D01*
X0108698Y0163452D02*
X0114380Y0163452D01*
X0114380Y0163688D02*
X0108698Y0163688D01*
X0108698Y0163924D02*
X0114380Y0163924D01*
X0114380Y0164160D02*
X0108698Y0164160D01*
X0108698Y0164396D02*
X0114380Y0164396D01*
X0114380Y0164632D02*
X0108698Y0164632D01*
X0102596Y0099178D02*
X0102596Y0093496D01*
X0102596Y0099178D02*
X0109066Y0099178D01*
X0109066Y0093496D01*
X0102596Y0093496D01*
X0102596Y0093732D02*
X0109066Y0093732D01*
X0109066Y0093968D02*
X0102596Y0093968D01*
X0102596Y0094204D02*
X0109066Y0094204D01*
X0109066Y0094440D02*
X0102596Y0094440D01*
X0102596Y0094676D02*
X0109066Y0094676D01*
X0109066Y0094912D02*
X0102596Y0094912D01*
X0102596Y0095148D02*
X0109066Y0095148D01*
X0109066Y0095384D02*
X0102596Y0095384D01*
X0102596Y0095620D02*
X0109066Y0095620D01*
X0109066Y0095856D02*
X0102596Y0095856D01*
X0102596Y0096092D02*
X0109066Y0096092D01*
X0109066Y0096328D02*
X0102596Y0096328D01*
X0102596Y0096564D02*
X0109066Y0096564D01*
X0109066Y0096800D02*
X0102596Y0096800D01*
X0102596Y0097036D02*
X0109066Y0097036D01*
X0109066Y0097272D02*
X0102596Y0097272D01*
X0102596Y0097508D02*
X0109066Y0097508D01*
X0109066Y0097744D02*
X0102596Y0097744D01*
X0102596Y0097980D02*
X0109066Y0097980D01*
X0109066Y0098216D02*
X0102596Y0098216D01*
X0102596Y0098452D02*
X0109066Y0098452D01*
X0109066Y0098688D02*
X0102596Y0098688D01*
X0102596Y0098924D02*
X0109066Y0098924D01*
X0109066Y0099160D02*
X0102596Y0099160D01*
X0092753Y0099178D02*
X0092753Y0093496D01*
X0092753Y0099178D02*
X0099223Y0099178D01*
X0099223Y0093496D01*
X0092753Y0093496D01*
X0092753Y0093732D02*
X0099223Y0093732D01*
X0099223Y0093968D02*
X0092753Y0093968D01*
X0092753Y0094204D02*
X0099223Y0094204D01*
X0099223Y0094440D02*
X0092753Y0094440D01*
X0092753Y0094676D02*
X0099223Y0094676D01*
X0099223Y0094912D02*
X0092753Y0094912D01*
X0092753Y0095148D02*
X0099223Y0095148D01*
X0099223Y0095384D02*
X0092753Y0095384D01*
X0092753Y0095620D02*
X0099223Y0095620D01*
X0099223Y0095856D02*
X0092753Y0095856D01*
X0092753Y0096092D02*
X0099223Y0096092D01*
X0099223Y0096328D02*
X0092753Y0096328D01*
X0092753Y0096564D02*
X0099223Y0096564D01*
X0099223Y0096800D02*
X0092753Y0096800D01*
X0092753Y0097036D02*
X0099223Y0097036D01*
X0099223Y0097272D02*
X0092753Y0097272D01*
X0092753Y0097508D02*
X0099223Y0097508D01*
X0099223Y0097744D02*
X0092753Y0097744D01*
X0092753Y0097980D02*
X0099223Y0097980D01*
X0099223Y0098216D02*
X0092753Y0098216D01*
X0092753Y0098452D02*
X0099223Y0098452D01*
X0099223Y0098688D02*
X0092753Y0098688D01*
X0092753Y0098924D02*
X0099223Y0098924D01*
X0099223Y0099160D02*
X0092753Y0099160D01*
X0092753Y0091698D02*
X0092753Y0086016D01*
X0092753Y0091698D02*
X0099223Y0091698D01*
X0099223Y0086016D01*
X0092753Y0086016D01*
X0092753Y0086252D02*
X0099223Y0086252D01*
X0099223Y0086488D02*
X0092753Y0086488D01*
X0092753Y0086724D02*
X0099223Y0086724D01*
X0099223Y0086960D02*
X0092753Y0086960D01*
X0092753Y0087196D02*
X0099223Y0087196D01*
X0099223Y0087432D02*
X0092753Y0087432D01*
X0092753Y0087668D02*
X0099223Y0087668D01*
X0099223Y0087904D02*
X0092753Y0087904D01*
X0092753Y0088140D02*
X0099223Y0088140D01*
X0099223Y0088376D02*
X0092753Y0088376D01*
X0092753Y0088612D02*
X0099223Y0088612D01*
X0099223Y0088848D02*
X0092753Y0088848D01*
X0092753Y0089084D02*
X0099223Y0089084D01*
X0099223Y0089320D02*
X0092753Y0089320D01*
X0092753Y0089556D02*
X0099223Y0089556D01*
X0099223Y0089792D02*
X0092753Y0089792D01*
X0092753Y0090028D02*
X0099223Y0090028D01*
X0099223Y0090264D02*
X0092753Y0090264D01*
X0092753Y0090500D02*
X0099223Y0090500D01*
X0099223Y0090736D02*
X0092753Y0090736D01*
X0092753Y0090972D02*
X0099223Y0090972D01*
X0099223Y0091208D02*
X0092753Y0091208D01*
X0092753Y0091444D02*
X0099223Y0091444D01*
X0099223Y0091680D02*
X0092753Y0091680D01*
X0102596Y0091698D02*
X0102596Y0086016D01*
X0102596Y0091698D02*
X0109066Y0091698D01*
X0109066Y0086016D01*
X0102596Y0086016D01*
X0102596Y0086252D02*
X0109066Y0086252D01*
X0109066Y0086488D02*
X0102596Y0086488D01*
X0102596Y0086724D02*
X0109066Y0086724D01*
X0109066Y0086960D02*
X0102596Y0086960D01*
X0102596Y0087196D02*
X0109066Y0087196D01*
X0109066Y0087432D02*
X0102596Y0087432D01*
X0102596Y0087668D02*
X0109066Y0087668D01*
X0109066Y0087904D02*
X0102596Y0087904D01*
X0102596Y0088140D02*
X0109066Y0088140D01*
X0109066Y0088376D02*
X0102596Y0088376D01*
X0102596Y0088612D02*
X0109066Y0088612D01*
X0109066Y0088848D02*
X0102596Y0088848D01*
X0102596Y0089084D02*
X0109066Y0089084D01*
X0109066Y0089320D02*
X0102596Y0089320D01*
X0102596Y0089556D02*
X0109066Y0089556D01*
X0109066Y0089792D02*
X0102596Y0089792D01*
X0102596Y0090028D02*
X0109066Y0090028D01*
X0109066Y0090264D02*
X0102596Y0090264D01*
X0102596Y0090500D02*
X0109066Y0090500D01*
X0109066Y0090736D02*
X0102596Y0090736D01*
X0102596Y0090972D02*
X0109066Y0090972D01*
X0109066Y0091208D02*
X0102596Y0091208D01*
X0102596Y0091444D02*
X0109066Y0091444D01*
X0109066Y0091680D02*
X0102596Y0091680D01*
X0053383Y0083430D02*
X0053383Y0077748D01*
X0053383Y0083430D02*
X0059853Y0083430D01*
X0059853Y0077748D01*
X0053383Y0077748D01*
X0053383Y0077984D02*
X0059853Y0077984D01*
X0059853Y0078220D02*
X0053383Y0078220D01*
X0053383Y0078456D02*
X0059853Y0078456D01*
X0059853Y0078692D02*
X0053383Y0078692D01*
X0053383Y0078928D02*
X0059853Y0078928D01*
X0059853Y0079164D02*
X0053383Y0079164D01*
X0053383Y0079400D02*
X0059853Y0079400D01*
X0059853Y0079636D02*
X0053383Y0079636D01*
X0053383Y0079872D02*
X0059853Y0079872D01*
X0059853Y0080108D02*
X0053383Y0080108D01*
X0053383Y0080344D02*
X0059853Y0080344D01*
X0059853Y0080580D02*
X0053383Y0080580D01*
X0053383Y0080816D02*
X0059853Y0080816D01*
X0059853Y0081052D02*
X0053383Y0081052D01*
X0053383Y0081288D02*
X0059853Y0081288D01*
X0059853Y0081524D02*
X0053383Y0081524D01*
X0053383Y0081760D02*
X0059853Y0081760D01*
X0059853Y0081996D02*
X0053383Y0081996D01*
X0053383Y0082232D02*
X0059853Y0082232D01*
X0059853Y0082468D02*
X0053383Y0082468D01*
X0053383Y0082704D02*
X0059853Y0082704D01*
X0059853Y0082940D02*
X0053383Y0082940D01*
X0053383Y0083176D02*
X0059853Y0083176D01*
X0059853Y0083412D02*
X0053383Y0083412D01*
X0053383Y0075950D02*
X0053383Y0070268D01*
X0053383Y0075950D02*
X0059853Y0075950D01*
X0059853Y0070268D01*
X0053383Y0070268D01*
X0053383Y0070504D02*
X0059853Y0070504D01*
X0059853Y0070740D02*
X0053383Y0070740D01*
X0053383Y0070976D02*
X0059853Y0070976D01*
X0059853Y0071212D02*
X0053383Y0071212D01*
X0053383Y0071448D02*
X0059853Y0071448D01*
X0059853Y0071684D02*
X0053383Y0071684D01*
X0053383Y0071920D02*
X0059853Y0071920D01*
X0059853Y0072156D02*
X0053383Y0072156D01*
X0053383Y0072392D02*
X0059853Y0072392D01*
X0059853Y0072628D02*
X0053383Y0072628D01*
X0053383Y0072864D02*
X0059853Y0072864D01*
X0059853Y0073100D02*
X0053383Y0073100D01*
X0053383Y0073336D02*
X0059853Y0073336D01*
X0059853Y0073572D02*
X0053383Y0073572D01*
X0053383Y0073808D02*
X0059853Y0073808D01*
X0059853Y0074044D02*
X0053383Y0074044D01*
X0053383Y0074280D02*
X0059853Y0074280D01*
X0059853Y0074516D02*
X0053383Y0074516D01*
X0053383Y0074752D02*
X0059853Y0074752D01*
X0059853Y0074988D02*
X0053383Y0074988D01*
X0053383Y0075224D02*
X0059853Y0075224D01*
X0059853Y0075460D02*
X0053383Y0075460D01*
X0053383Y0075696D02*
X0059853Y0075696D01*
X0059853Y0075932D02*
X0053383Y0075932D01*
X0017950Y0149008D02*
X0017950Y0154690D01*
X0024420Y0154690D01*
X0024420Y0149008D01*
X0017950Y0149008D01*
X0017950Y0149244D02*
X0024420Y0149244D01*
X0024420Y0149480D02*
X0017950Y0149480D01*
X0017950Y0149716D02*
X0024420Y0149716D01*
X0024420Y0149952D02*
X0017950Y0149952D01*
X0017950Y0150188D02*
X0024420Y0150188D01*
X0024420Y0150424D02*
X0017950Y0150424D01*
X0017950Y0150660D02*
X0024420Y0150660D01*
X0024420Y0150896D02*
X0017950Y0150896D01*
X0017950Y0151132D02*
X0024420Y0151132D01*
X0024420Y0151368D02*
X0017950Y0151368D01*
X0017950Y0151604D02*
X0024420Y0151604D01*
X0024420Y0151840D02*
X0017950Y0151840D01*
X0017950Y0152076D02*
X0024420Y0152076D01*
X0024420Y0152312D02*
X0017950Y0152312D01*
X0017950Y0152548D02*
X0024420Y0152548D01*
X0024420Y0152784D02*
X0017950Y0152784D01*
X0017950Y0153020D02*
X0024420Y0153020D01*
X0024420Y0153256D02*
X0017950Y0153256D01*
X0017950Y0153492D02*
X0024420Y0153492D01*
X0024420Y0153728D02*
X0017950Y0153728D01*
X0017950Y0153964D02*
X0024420Y0153964D01*
X0024420Y0154200D02*
X0017950Y0154200D01*
X0017950Y0154436D02*
X0024420Y0154436D01*
X0024420Y0154672D02*
X0017950Y0154672D01*
X0017950Y0156489D02*
X0017950Y0162171D01*
X0024420Y0162171D01*
X0024420Y0156489D01*
X0017950Y0156489D01*
X0017950Y0156725D02*
X0024420Y0156725D01*
X0024420Y0156961D02*
X0017950Y0156961D01*
X0017950Y0157197D02*
X0024420Y0157197D01*
X0024420Y0157433D02*
X0017950Y0157433D01*
X0017950Y0157669D02*
X0024420Y0157669D01*
X0024420Y0157905D02*
X0017950Y0157905D01*
X0017950Y0158141D02*
X0024420Y0158141D01*
X0024420Y0158377D02*
X0017950Y0158377D01*
X0017950Y0158613D02*
X0024420Y0158613D01*
X0024420Y0158849D02*
X0017950Y0158849D01*
X0017950Y0159085D02*
X0024420Y0159085D01*
X0024420Y0159321D02*
X0017950Y0159321D01*
X0017950Y0159557D02*
X0024420Y0159557D01*
X0024420Y0159793D02*
X0017950Y0159793D01*
X0017950Y0160029D02*
X0024420Y0160029D01*
X0024420Y0160265D02*
X0017950Y0160265D01*
X0017950Y0160501D02*
X0024420Y0160501D01*
X0024420Y0160737D02*
X0017950Y0160737D01*
X0017950Y0160973D02*
X0024420Y0160973D01*
X0024420Y0161209D02*
X0017950Y0161209D01*
X0017950Y0161445D02*
X0024420Y0161445D01*
X0024420Y0161681D02*
X0017950Y0161681D01*
X0017950Y0161917D02*
X0024420Y0161917D01*
X0024420Y0162153D02*
X0017950Y0162153D01*
D12*
X0202287Y0132282D03*
X0202287Y0092282D03*
D13*
X0058262Y0101131D02*
X0035290Y0101131D01*
X0058262Y0101131D02*
X0058262Y0088001D01*
X0035290Y0088001D01*
X0035290Y0101131D01*
X0035290Y0088268D02*
X0058262Y0088268D01*
X0058262Y0088535D02*
X0035290Y0088535D01*
X0035290Y0088802D02*
X0058262Y0088802D01*
X0058262Y0089069D02*
X0035290Y0089069D01*
X0035290Y0089336D02*
X0058262Y0089336D01*
X0058262Y0089603D02*
X0035290Y0089603D01*
X0035290Y0089870D02*
X0058262Y0089870D01*
X0058262Y0090137D02*
X0035290Y0090137D01*
X0035290Y0090404D02*
X0058262Y0090404D01*
X0058262Y0090671D02*
X0035290Y0090671D01*
X0035290Y0090938D02*
X0058262Y0090938D01*
X0058262Y0091205D02*
X0035290Y0091205D01*
X0035290Y0091472D02*
X0058262Y0091472D01*
X0058262Y0091739D02*
X0035290Y0091739D01*
X0035290Y0092006D02*
X0058262Y0092006D01*
X0058262Y0092273D02*
X0035290Y0092273D01*
X0035290Y0092540D02*
X0058262Y0092540D01*
X0058262Y0092807D02*
X0035290Y0092807D01*
X0035290Y0093074D02*
X0058262Y0093074D01*
X0058262Y0093341D02*
X0035290Y0093341D01*
X0035290Y0093608D02*
X0058262Y0093608D01*
X0058262Y0093875D02*
X0035290Y0093875D01*
X0035290Y0094142D02*
X0058262Y0094142D01*
X0058262Y0094409D02*
X0035290Y0094409D01*
X0035290Y0094676D02*
X0058262Y0094676D01*
X0058262Y0094943D02*
X0035290Y0094943D01*
X0035290Y0095210D02*
X0058262Y0095210D01*
X0058262Y0095477D02*
X0035290Y0095477D01*
X0035290Y0095744D02*
X0058262Y0095744D01*
X0058262Y0096011D02*
X0035290Y0096011D01*
X0035290Y0096278D02*
X0058262Y0096278D01*
X0058262Y0096545D02*
X0035290Y0096545D01*
X0035290Y0096812D02*
X0058262Y0096812D01*
X0058262Y0097079D02*
X0035290Y0097079D01*
X0035290Y0097346D02*
X0058262Y0097346D01*
X0058262Y0097613D02*
X0035290Y0097613D01*
X0035290Y0097880D02*
X0058262Y0097880D01*
X0058262Y0098147D02*
X0035290Y0098147D01*
X0035290Y0098414D02*
X0058262Y0098414D01*
X0058262Y0098681D02*
X0035290Y0098681D01*
X0035290Y0098948D02*
X0058262Y0098948D01*
X0058262Y0099215D02*
X0035290Y0099215D01*
X0035290Y0099482D02*
X0058262Y0099482D01*
X0058262Y0099749D02*
X0035290Y0099749D01*
X0035290Y0100016D02*
X0058262Y0100016D01*
X0058262Y0100283D02*
X0035290Y0100283D01*
X0035290Y0100550D02*
X0058262Y0100550D01*
X0058262Y0100817D02*
X0035290Y0100817D01*
X0035290Y0101084D02*
X0058262Y0101084D01*
X0058262Y0144438D02*
X0035290Y0144438D01*
X0058262Y0144438D02*
X0058262Y0131308D01*
X0035290Y0131308D01*
X0035290Y0144438D01*
X0035290Y0131575D02*
X0058262Y0131575D01*
X0058262Y0131842D02*
X0035290Y0131842D01*
X0035290Y0132109D02*
X0058262Y0132109D01*
X0058262Y0132376D02*
X0035290Y0132376D01*
X0035290Y0132643D02*
X0058262Y0132643D01*
X0058262Y0132910D02*
X0035290Y0132910D01*
X0035290Y0133177D02*
X0058262Y0133177D01*
X0058262Y0133444D02*
X0035290Y0133444D01*
X0035290Y0133711D02*
X0058262Y0133711D01*
X0058262Y0133978D02*
X0035290Y0133978D01*
X0035290Y0134245D02*
X0058262Y0134245D01*
X0058262Y0134512D02*
X0035290Y0134512D01*
X0035290Y0134779D02*
X0058262Y0134779D01*
X0058262Y0135046D02*
X0035290Y0135046D01*
X0035290Y0135313D02*
X0058262Y0135313D01*
X0058262Y0135580D02*
X0035290Y0135580D01*
X0035290Y0135847D02*
X0058262Y0135847D01*
X0058262Y0136114D02*
X0035290Y0136114D01*
X0035290Y0136381D02*
X0058262Y0136381D01*
X0058262Y0136648D02*
X0035290Y0136648D01*
X0035290Y0136915D02*
X0058262Y0136915D01*
X0058262Y0137182D02*
X0035290Y0137182D01*
X0035290Y0137449D02*
X0058262Y0137449D01*
X0058262Y0137716D02*
X0035290Y0137716D01*
X0035290Y0137983D02*
X0058262Y0137983D01*
X0058262Y0138250D02*
X0035290Y0138250D01*
X0035290Y0138517D02*
X0058262Y0138517D01*
X0058262Y0138784D02*
X0035290Y0138784D01*
X0035290Y0139051D02*
X0058262Y0139051D01*
X0058262Y0139318D02*
X0035290Y0139318D01*
X0035290Y0139585D02*
X0058262Y0139585D01*
X0058262Y0139852D02*
X0035290Y0139852D01*
X0035290Y0140119D02*
X0058262Y0140119D01*
X0058262Y0140386D02*
X0035290Y0140386D01*
X0035290Y0140653D02*
X0058262Y0140653D01*
X0058262Y0140920D02*
X0035290Y0140920D01*
X0035290Y0141187D02*
X0058262Y0141187D01*
X0058262Y0141454D02*
X0035290Y0141454D01*
X0035290Y0141721D02*
X0058262Y0141721D01*
X0058262Y0141988D02*
X0035290Y0141988D01*
X0035290Y0142255D02*
X0058262Y0142255D01*
X0058262Y0142522D02*
X0035290Y0142522D01*
X0035290Y0142789D02*
X0058262Y0142789D01*
X0058262Y0143056D02*
X0035290Y0143056D01*
X0035290Y0143323D02*
X0058262Y0143323D01*
X0058262Y0143590D02*
X0035290Y0143590D01*
X0035290Y0143857D02*
X0058262Y0143857D01*
X0058262Y0144124D02*
X0035290Y0144124D01*
X0035290Y0144391D02*
X0058262Y0144391D01*
D14*
X0042839Y0155589D03*
X0034965Y0155589D03*
X0035713Y0077479D03*
X0043587Y0077479D03*
D15*
X0087248Y0150708D03*
X0107248Y0150708D03*
D16*
X0028272Y0122519D03*
X0028272Y0116219D03*
X0028272Y0109920D03*
X0027878Y0101849D03*
X0018429Y0101849D03*
X0018035Y0113070D03*
X0018035Y0119369D03*
X0018429Y0130589D03*
X0027878Y0130589D03*
D17*
X0094355Y0122918D02*
X0094355Y0121258D01*
X0090695Y0121258D01*
X0090695Y0122918D01*
X0094355Y0122918D01*
X0094355Y0121597D02*
X0090695Y0121597D01*
X0090695Y0121936D02*
X0094355Y0121936D01*
X0094355Y0122275D02*
X0090695Y0122275D01*
X0090695Y0122614D02*
X0094355Y0122614D01*
X0094355Y0121018D02*
X0094355Y0119358D01*
X0090695Y0119358D01*
X0090695Y0121018D01*
X0094355Y0121018D01*
X0094355Y0119697D02*
X0090695Y0119697D01*
X0090695Y0120036D02*
X0094355Y0120036D01*
X0094355Y0120375D02*
X0090695Y0120375D01*
X0090695Y0120714D02*
X0094355Y0120714D01*
X0094355Y0119018D02*
X0094355Y0117358D01*
X0090695Y0117358D01*
X0090695Y0119018D01*
X0094355Y0119018D01*
X0094355Y0117697D02*
X0090695Y0117697D01*
X0090695Y0118036D02*
X0094355Y0118036D01*
X0094355Y0118375D02*
X0090695Y0118375D01*
X0090695Y0118714D02*
X0094355Y0118714D01*
X0094355Y0117018D02*
X0094355Y0115358D01*
X0090695Y0115358D01*
X0090695Y0117018D01*
X0094355Y0117018D01*
X0094355Y0115697D02*
X0090695Y0115697D01*
X0090695Y0116036D02*
X0094355Y0116036D01*
X0094355Y0116375D02*
X0090695Y0116375D01*
X0090695Y0116714D02*
X0094355Y0116714D01*
X0094355Y0115118D02*
X0094355Y0113458D01*
X0090695Y0113458D01*
X0090695Y0115118D01*
X0094355Y0115118D01*
X0094355Y0113797D02*
X0090695Y0113797D01*
X0090695Y0114136D02*
X0094355Y0114136D01*
X0094355Y0114475D02*
X0090695Y0114475D01*
X0090695Y0114814D02*
X0094355Y0114814D01*
X0095195Y0108958D02*
X0096855Y0108958D01*
X0095195Y0108958D02*
X0095195Y0112618D01*
X0096855Y0112618D01*
X0096855Y0108958D01*
X0096855Y0109297D02*
X0095195Y0109297D01*
X0095195Y0109636D02*
X0096855Y0109636D01*
X0096855Y0109975D02*
X0095195Y0109975D01*
X0095195Y0110314D02*
X0096855Y0110314D01*
X0096855Y0110653D02*
X0095195Y0110653D01*
X0095195Y0110992D02*
X0096855Y0110992D01*
X0096855Y0111331D02*
X0095195Y0111331D01*
X0095195Y0111670D02*
X0096855Y0111670D01*
X0096855Y0112009D02*
X0095195Y0112009D01*
X0095195Y0112348D02*
X0096855Y0112348D01*
X0097095Y0108958D02*
X0098755Y0108958D01*
X0097095Y0108958D02*
X0097095Y0112618D01*
X0098755Y0112618D01*
X0098755Y0108958D01*
X0098755Y0109297D02*
X0097095Y0109297D01*
X0097095Y0109636D02*
X0098755Y0109636D01*
X0098755Y0109975D02*
X0097095Y0109975D01*
X0097095Y0110314D02*
X0098755Y0110314D01*
X0098755Y0110653D02*
X0097095Y0110653D01*
X0097095Y0110992D02*
X0098755Y0110992D01*
X0098755Y0111331D02*
X0097095Y0111331D01*
X0097095Y0111670D02*
X0098755Y0111670D01*
X0098755Y0112009D02*
X0097095Y0112009D01*
X0097095Y0112348D02*
X0098755Y0112348D01*
X0099095Y0108958D02*
X0100755Y0108958D01*
X0099095Y0108958D02*
X0099095Y0112618D01*
X0100755Y0112618D01*
X0100755Y0108958D01*
X0100755Y0109297D02*
X0099095Y0109297D01*
X0099095Y0109636D02*
X0100755Y0109636D01*
X0100755Y0109975D02*
X0099095Y0109975D01*
X0099095Y0110314D02*
X0100755Y0110314D01*
X0100755Y0110653D02*
X0099095Y0110653D01*
X0099095Y0110992D02*
X0100755Y0110992D01*
X0100755Y0111331D02*
X0099095Y0111331D01*
X0099095Y0111670D02*
X0100755Y0111670D01*
X0100755Y0112009D02*
X0099095Y0112009D01*
X0099095Y0112348D02*
X0100755Y0112348D01*
X0101095Y0108958D02*
X0102755Y0108958D01*
X0101095Y0108958D02*
X0101095Y0112618D01*
X0102755Y0112618D01*
X0102755Y0108958D01*
X0102755Y0109297D02*
X0101095Y0109297D01*
X0101095Y0109636D02*
X0102755Y0109636D01*
X0102755Y0109975D02*
X0101095Y0109975D01*
X0101095Y0110314D02*
X0102755Y0110314D01*
X0102755Y0110653D02*
X0101095Y0110653D01*
X0101095Y0110992D02*
X0102755Y0110992D01*
X0102755Y0111331D02*
X0101095Y0111331D01*
X0101095Y0111670D02*
X0102755Y0111670D01*
X0102755Y0112009D02*
X0101095Y0112009D01*
X0101095Y0112348D02*
X0102755Y0112348D01*
X0102995Y0108958D02*
X0104655Y0108958D01*
X0102995Y0108958D02*
X0102995Y0112618D01*
X0104655Y0112618D01*
X0104655Y0108958D01*
X0104655Y0109297D02*
X0102995Y0109297D01*
X0102995Y0109636D02*
X0104655Y0109636D01*
X0104655Y0109975D02*
X0102995Y0109975D01*
X0102995Y0110314D02*
X0104655Y0110314D01*
X0104655Y0110653D02*
X0102995Y0110653D01*
X0102995Y0110992D02*
X0104655Y0110992D01*
X0104655Y0111331D02*
X0102995Y0111331D01*
X0102995Y0111670D02*
X0104655Y0111670D01*
X0104655Y0112009D02*
X0102995Y0112009D01*
X0102995Y0112348D02*
X0104655Y0112348D01*
X0109155Y0113458D02*
X0109155Y0115118D01*
X0109155Y0113458D02*
X0105495Y0113458D01*
X0105495Y0115118D01*
X0109155Y0115118D01*
X0109155Y0113797D02*
X0105495Y0113797D01*
X0105495Y0114136D02*
X0109155Y0114136D01*
X0109155Y0114475D02*
X0105495Y0114475D01*
X0105495Y0114814D02*
X0109155Y0114814D01*
X0109155Y0115358D02*
X0109155Y0117018D01*
X0109155Y0115358D02*
X0105495Y0115358D01*
X0105495Y0117018D01*
X0109155Y0117018D01*
X0109155Y0115697D02*
X0105495Y0115697D01*
X0105495Y0116036D02*
X0109155Y0116036D01*
X0109155Y0116375D02*
X0105495Y0116375D01*
X0105495Y0116714D02*
X0109155Y0116714D01*
X0109155Y0117358D02*
X0109155Y0119018D01*
X0109155Y0117358D02*
X0105495Y0117358D01*
X0105495Y0119018D01*
X0109155Y0119018D01*
X0109155Y0117697D02*
X0105495Y0117697D01*
X0105495Y0118036D02*
X0109155Y0118036D01*
X0109155Y0118375D02*
X0105495Y0118375D01*
X0105495Y0118714D02*
X0109155Y0118714D01*
X0109155Y0119358D02*
X0109155Y0121018D01*
X0109155Y0119358D02*
X0105495Y0119358D01*
X0105495Y0121018D01*
X0109155Y0121018D01*
X0109155Y0119697D02*
X0105495Y0119697D01*
X0105495Y0120036D02*
X0109155Y0120036D01*
X0109155Y0120375D02*
X0105495Y0120375D01*
X0105495Y0120714D02*
X0109155Y0120714D01*
X0109155Y0121258D02*
X0109155Y0122918D01*
X0109155Y0121258D02*
X0105495Y0121258D01*
X0105495Y0122918D01*
X0109155Y0122918D01*
X0109155Y0121597D02*
X0105495Y0121597D01*
X0105495Y0121936D02*
X0109155Y0121936D01*
X0109155Y0122275D02*
X0105495Y0122275D01*
X0105495Y0122614D02*
X0109155Y0122614D01*
X0104655Y0123758D02*
X0102995Y0123758D01*
X0102995Y0127418D01*
X0104655Y0127418D01*
X0104655Y0123758D01*
X0104655Y0124097D02*
X0102995Y0124097D01*
X0102995Y0124436D02*
X0104655Y0124436D01*
X0104655Y0124775D02*
X0102995Y0124775D01*
X0102995Y0125114D02*
X0104655Y0125114D01*
X0104655Y0125453D02*
X0102995Y0125453D01*
X0102995Y0125792D02*
X0104655Y0125792D01*
X0104655Y0126131D02*
X0102995Y0126131D01*
X0102995Y0126470D02*
X0104655Y0126470D01*
X0104655Y0126809D02*
X0102995Y0126809D01*
X0102995Y0127148D02*
X0104655Y0127148D01*
X0102755Y0123758D02*
X0101095Y0123758D01*
X0101095Y0127418D01*
X0102755Y0127418D01*
X0102755Y0123758D01*
X0102755Y0124097D02*
X0101095Y0124097D01*
X0101095Y0124436D02*
X0102755Y0124436D01*
X0102755Y0124775D02*
X0101095Y0124775D01*
X0101095Y0125114D02*
X0102755Y0125114D01*
X0102755Y0125453D02*
X0101095Y0125453D01*
X0101095Y0125792D02*
X0102755Y0125792D01*
X0102755Y0126131D02*
X0101095Y0126131D01*
X0101095Y0126470D02*
X0102755Y0126470D01*
X0102755Y0126809D02*
X0101095Y0126809D01*
X0101095Y0127148D02*
X0102755Y0127148D01*
X0100755Y0123758D02*
X0099095Y0123758D01*
X0099095Y0127418D01*
X0100755Y0127418D01*
X0100755Y0123758D01*
X0100755Y0124097D02*
X0099095Y0124097D01*
X0099095Y0124436D02*
X0100755Y0124436D01*
X0100755Y0124775D02*
X0099095Y0124775D01*
X0099095Y0125114D02*
X0100755Y0125114D01*
X0100755Y0125453D02*
X0099095Y0125453D01*
X0099095Y0125792D02*
X0100755Y0125792D01*
X0100755Y0126131D02*
X0099095Y0126131D01*
X0099095Y0126470D02*
X0100755Y0126470D01*
X0100755Y0126809D02*
X0099095Y0126809D01*
X0099095Y0127148D02*
X0100755Y0127148D01*
X0098755Y0123758D02*
X0097095Y0123758D01*
X0097095Y0127418D01*
X0098755Y0127418D01*
X0098755Y0123758D01*
X0098755Y0124097D02*
X0097095Y0124097D01*
X0097095Y0124436D02*
X0098755Y0124436D01*
X0098755Y0124775D02*
X0097095Y0124775D01*
X0097095Y0125114D02*
X0098755Y0125114D01*
X0098755Y0125453D02*
X0097095Y0125453D01*
X0097095Y0125792D02*
X0098755Y0125792D01*
X0098755Y0126131D02*
X0097095Y0126131D01*
X0097095Y0126470D02*
X0098755Y0126470D01*
X0098755Y0126809D02*
X0097095Y0126809D01*
X0097095Y0127148D02*
X0098755Y0127148D01*
X0096855Y0123758D02*
X0095195Y0123758D01*
X0095195Y0127418D01*
X0096855Y0127418D01*
X0096855Y0123758D01*
X0096855Y0124097D02*
X0095195Y0124097D01*
X0095195Y0124436D02*
X0096855Y0124436D01*
X0096855Y0124775D02*
X0095195Y0124775D01*
X0095195Y0125114D02*
X0096855Y0125114D01*
X0096855Y0125453D02*
X0095195Y0125453D01*
X0095195Y0125792D02*
X0096855Y0125792D01*
X0096855Y0126131D02*
X0095195Y0126131D01*
X0095195Y0126470D02*
X0096855Y0126470D01*
X0096855Y0126809D02*
X0095195Y0126809D01*
X0095195Y0127148D02*
X0096855Y0127148D01*
D18*
X0094241Y0123872D02*
X0094241Y0112504D01*
X0094241Y0123872D02*
X0105609Y0123872D01*
X0105609Y0112504D01*
X0094241Y0112504D01*
X0094241Y0112735D02*
X0105609Y0112735D01*
X0105609Y0112966D02*
X0094241Y0112966D01*
X0094241Y0113197D02*
X0105609Y0113197D01*
X0105609Y0113428D02*
X0094241Y0113428D01*
X0094241Y0113659D02*
X0105609Y0113659D01*
X0105609Y0113890D02*
X0094241Y0113890D01*
X0094241Y0114121D02*
X0105609Y0114121D01*
X0105609Y0114352D02*
X0094241Y0114352D01*
X0094241Y0114583D02*
X0105609Y0114583D01*
X0105609Y0114814D02*
X0094241Y0114814D01*
X0094241Y0115045D02*
X0105609Y0115045D01*
X0105609Y0115276D02*
X0094241Y0115276D01*
X0094241Y0115507D02*
X0105609Y0115507D01*
X0105609Y0115738D02*
X0094241Y0115738D01*
X0094241Y0115969D02*
X0105609Y0115969D01*
X0105609Y0116200D02*
X0094241Y0116200D01*
X0094241Y0116431D02*
X0105609Y0116431D01*
X0105609Y0116662D02*
X0094241Y0116662D01*
X0094241Y0116893D02*
X0105609Y0116893D01*
X0105609Y0117124D02*
X0094241Y0117124D01*
X0094241Y0117355D02*
X0105609Y0117355D01*
X0105609Y0117586D02*
X0094241Y0117586D01*
X0094241Y0117817D02*
X0105609Y0117817D01*
X0105609Y0118048D02*
X0094241Y0118048D01*
X0094241Y0118279D02*
X0105609Y0118279D01*
X0105609Y0118510D02*
X0094241Y0118510D01*
X0094241Y0118741D02*
X0105609Y0118741D01*
X0105609Y0118972D02*
X0094241Y0118972D01*
X0094241Y0119203D02*
X0105609Y0119203D01*
X0105609Y0119434D02*
X0094241Y0119434D01*
X0094241Y0119665D02*
X0105609Y0119665D01*
X0105609Y0119896D02*
X0094241Y0119896D01*
X0094241Y0120127D02*
X0105609Y0120127D01*
X0105609Y0120358D02*
X0094241Y0120358D01*
X0094241Y0120589D02*
X0105609Y0120589D01*
X0105609Y0120820D02*
X0094241Y0120820D01*
X0094241Y0121051D02*
X0105609Y0121051D01*
X0105609Y0121282D02*
X0094241Y0121282D01*
X0094241Y0121513D02*
X0105609Y0121513D01*
X0105609Y0121744D02*
X0094241Y0121744D01*
X0094241Y0121975D02*
X0105609Y0121975D01*
X0105609Y0122206D02*
X0094241Y0122206D01*
X0094241Y0122437D02*
X0105609Y0122437D01*
X0105609Y0122668D02*
X0094241Y0122668D01*
X0094241Y0122899D02*
X0105609Y0122899D01*
X0105609Y0123130D02*
X0094241Y0123130D01*
X0094241Y0123361D02*
X0105609Y0123361D01*
X0105609Y0123592D02*
X0094241Y0123592D01*
X0094241Y0123823D02*
X0105609Y0123823D01*
D19*
X0235752Y0127873D03*
X0235752Y0118030D03*
X0235752Y0110156D03*
X0235752Y0100314D03*
D20*
X0225516Y0088503D03*
X0225122Y0139684D03*
D21*
X0066461Y0111219D03*
D22*
X0066461Y0121219D03*
D23*
X0155325Y0123194D02*
X0155325Y0101370D01*
X0143737Y0101370D01*
X0143737Y0123194D01*
X0155325Y0123194D01*
X0155325Y0101605D02*
X0143737Y0101605D01*
X0143737Y0101840D02*
X0155325Y0101840D01*
X0155325Y0102075D02*
X0143737Y0102075D01*
X0143737Y0102310D02*
X0155325Y0102310D01*
X0155325Y0102545D02*
X0143737Y0102545D01*
X0143737Y0102780D02*
X0155325Y0102780D01*
X0155325Y0103015D02*
X0143737Y0103015D01*
X0143737Y0103250D02*
X0155325Y0103250D01*
X0155325Y0103485D02*
X0143737Y0103485D01*
X0143737Y0103720D02*
X0155325Y0103720D01*
X0155325Y0103955D02*
X0143737Y0103955D01*
X0143737Y0104190D02*
X0155325Y0104190D01*
X0155325Y0104425D02*
X0143737Y0104425D01*
X0143737Y0104660D02*
X0155325Y0104660D01*
X0155325Y0104895D02*
X0143737Y0104895D01*
X0143737Y0105130D02*
X0155325Y0105130D01*
X0155325Y0105365D02*
X0143737Y0105365D01*
X0143737Y0105600D02*
X0155325Y0105600D01*
X0155325Y0105835D02*
X0143737Y0105835D01*
X0143737Y0106070D02*
X0155325Y0106070D01*
X0155325Y0106305D02*
X0143737Y0106305D01*
X0143737Y0106540D02*
X0155325Y0106540D01*
X0155325Y0106775D02*
X0143737Y0106775D01*
X0143737Y0107010D02*
X0155325Y0107010D01*
X0155325Y0107245D02*
X0143737Y0107245D01*
X0143737Y0107480D02*
X0155325Y0107480D01*
X0155325Y0107715D02*
X0143737Y0107715D01*
X0143737Y0107950D02*
X0155325Y0107950D01*
X0155325Y0108185D02*
X0143737Y0108185D01*
X0143737Y0108420D02*
X0155325Y0108420D01*
X0155325Y0108655D02*
X0143737Y0108655D01*
X0143737Y0108890D02*
X0155325Y0108890D01*
X0155325Y0109125D02*
X0143737Y0109125D01*
X0143737Y0109360D02*
X0155325Y0109360D01*
X0155325Y0109595D02*
X0143737Y0109595D01*
X0143737Y0109830D02*
X0155325Y0109830D01*
X0155325Y0110065D02*
X0143737Y0110065D01*
X0143737Y0110300D02*
X0155325Y0110300D01*
X0155325Y0110535D02*
X0143737Y0110535D01*
X0143737Y0110770D02*
X0155325Y0110770D01*
X0155325Y0111005D02*
X0143737Y0111005D01*
X0143737Y0111240D02*
X0155325Y0111240D01*
X0155325Y0111475D02*
X0143737Y0111475D01*
X0143737Y0111710D02*
X0155325Y0111710D01*
X0155325Y0111945D02*
X0143737Y0111945D01*
X0143737Y0112180D02*
X0155325Y0112180D01*
X0155325Y0112415D02*
X0143737Y0112415D01*
X0143737Y0112650D02*
X0155325Y0112650D01*
X0155325Y0112885D02*
X0143737Y0112885D01*
X0143737Y0113120D02*
X0155325Y0113120D01*
X0155325Y0113355D02*
X0143737Y0113355D01*
X0143737Y0113590D02*
X0155325Y0113590D01*
X0155325Y0113825D02*
X0143737Y0113825D01*
X0143737Y0114060D02*
X0155325Y0114060D01*
X0155325Y0114295D02*
X0143737Y0114295D01*
X0143737Y0114530D02*
X0155325Y0114530D01*
X0155325Y0114765D02*
X0143737Y0114765D01*
X0143737Y0115000D02*
X0155325Y0115000D01*
X0155325Y0115235D02*
X0143737Y0115235D01*
X0143737Y0115470D02*
X0155325Y0115470D01*
X0155325Y0115705D02*
X0143737Y0115705D01*
X0143737Y0115940D02*
X0155325Y0115940D01*
X0155325Y0116175D02*
X0143737Y0116175D01*
X0143737Y0116410D02*
X0155325Y0116410D01*
X0155325Y0116645D02*
X0143737Y0116645D01*
X0143737Y0116880D02*
X0155325Y0116880D01*
X0155325Y0117115D02*
X0143737Y0117115D01*
X0143737Y0117350D02*
X0155325Y0117350D01*
X0155325Y0117585D02*
X0143737Y0117585D01*
X0143737Y0117820D02*
X0155325Y0117820D01*
X0155325Y0118055D02*
X0143737Y0118055D01*
X0143737Y0118290D02*
X0155325Y0118290D01*
X0155325Y0118525D02*
X0143737Y0118525D01*
X0143737Y0118760D02*
X0155325Y0118760D01*
X0155325Y0118995D02*
X0143737Y0118995D01*
X0143737Y0119230D02*
X0155325Y0119230D01*
X0155325Y0119465D02*
X0143737Y0119465D01*
X0143737Y0119700D02*
X0155325Y0119700D01*
X0155325Y0119935D02*
X0143737Y0119935D01*
X0143737Y0120170D02*
X0155325Y0120170D01*
X0155325Y0120405D02*
X0143737Y0120405D01*
X0143737Y0120640D02*
X0155325Y0120640D01*
X0155325Y0120875D02*
X0143737Y0120875D01*
X0143737Y0121110D02*
X0155325Y0121110D01*
X0155325Y0121345D02*
X0143737Y0121345D01*
X0143737Y0121580D02*
X0155325Y0121580D01*
X0155325Y0121815D02*
X0143737Y0121815D01*
X0143737Y0122050D02*
X0155325Y0122050D01*
X0155325Y0122285D02*
X0143737Y0122285D01*
X0143737Y0122520D02*
X0155325Y0122520D01*
X0155325Y0122755D02*
X0143737Y0122755D01*
X0143737Y0122990D02*
X0155325Y0122990D01*
X0193908Y0123194D02*
X0193908Y0101370D01*
X0182320Y0101370D01*
X0182320Y0123194D01*
X0193908Y0123194D01*
X0193908Y0101605D02*
X0182320Y0101605D01*
X0182320Y0101840D02*
X0193908Y0101840D01*
X0193908Y0102075D02*
X0182320Y0102075D01*
X0182320Y0102310D02*
X0193908Y0102310D01*
X0193908Y0102545D02*
X0182320Y0102545D01*
X0182320Y0102780D02*
X0193908Y0102780D01*
X0193908Y0103015D02*
X0182320Y0103015D01*
X0182320Y0103250D02*
X0193908Y0103250D01*
X0193908Y0103485D02*
X0182320Y0103485D01*
X0182320Y0103720D02*
X0193908Y0103720D01*
X0193908Y0103955D02*
X0182320Y0103955D01*
X0182320Y0104190D02*
X0193908Y0104190D01*
X0193908Y0104425D02*
X0182320Y0104425D01*
X0182320Y0104660D02*
X0193908Y0104660D01*
X0193908Y0104895D02*
X0182320Y0104895D01*
X0182320Y0105130D02*
X0193908Y0105130D01*
X0193908Y0105365D02*
X0182320Y0105365D01*
X0182320Y0105600D02*
X0193908Y0105600D01*
X0193908Y0105835D02*
X0182320Y0105835D01*
X0182320Y0106070D02*
X0193908Y0106070D01*
X0193908Y0106305D02*
X0182320Y0106305D01*
X0182320Y0106540D02*
X0193908Y0106540D01*
X0193908Y0106775D02*
X0182320Y0106775D01*
X0182320Y0107010D02*
X0193908Y0107010D01*
X0193908Y0107245D02*
X0182320Y0107245D01*
X0182320Y0107480D02*
X0193908Y0107480D01*
X0193908Y0107715D02*
X0182320Y0107715D01*
X0182320Y0107950D02*
X0193908Y0107950D01*
X0193908Y0108185D02*
X0182320Y0108185D01*
X0182320Y0108420D02*
X0193908Y0108420D01*
X0193908Y0108655D02*
X0182320Y0108655D01*
X0182320Y0108890D02*
X0193908Y0108890D01*
X0193908Y0109125D02*
X0182320Y0109125D01*
X0182320Y0109360D02*
X0193908Y0109360D01*
X0193908Y0109595D02*
X0182320Y0109595D01*
X0182320Y0109830D02*
X0193908Y0109830D01*
X0193908Y0110065D02*
X0182320Y0110065D01*
X0182320Y0110300D02*
X0193908Y0110300D01*
X0193908Y0110535D02*
X0182320Y0110535D01*
X0182320Y0110770D02*
X0193908Y0110770D01*
X0193908Y0111005D02*
X0182320Y0111005D01*
X0182320Y0111240D02*
X0193908Y0111240D01*
X0193908Y0111475D02*
X0182320Y0111475D01*
X0182320Y0111710D02*
X0193908Y0111710D01*
X0193908Y0111945D02*
X0182320Y0111945D01*
X0182320Y0112180D02*
X0193908Y0112180D01*
X0193908Y0112415D02*
X0182320Y0112415D01*
X0182320Y0112650D02*
X0193908Y0112650D01*
X0193908Y0112885D02*
X0182320Y0112885D01*
X0182320Y0113120D02*
X0193908Y0113120D01*
X0193908Y0113355D02*
X0182320Y0113355D01*
X0182320Y0113590D02*
X0193908Y0113590D01*
X0193908Y0113825D02*
X0182320Y0113825D01*
X0182320Y0114060D02*
X0193908Y0114060D01*
X0193908Y0114295D02*
X0182320Y0114295D01*
X0182320Y0114530D02*
X0193908Y0114530D01*
X0193908Y0114765D02*
X0182320Y0114765D01*
X0182320Y0115000D02*
X0193908Y0115000D01*
X0193908Y0115235D02*
X0182320Y0115235D01*
X0182320Y0115470D02*
X0193908Y0115470D01*
X0193908Y0115705D02*
X0182320Y0115705D01*
X0182320Y0115940D02*
X0193908Y0115940D01*
X0193908Y0116175D02*
X0182320Y0116175D01*
X0182320Y0116410D02*
X0193908Y0116410D01*
X0193908Y0116645D02*
X0182320Y0116645D01*
X0182320Y0116880D02*
X0193908Y0116880D01*
X0193908Y0117115D02*
X0182320Y0117115D01*
X0182320Y0117350D02*
X0193908Y0117350D01*
X0193908Y0117585D02*
X0182320Y0117585D01*
X0182320Y0117820D02*
X0193908Y0117820D01*
X0193908Y0118055D02*
X0182320Y0118055D01*
X0182320Y0118290D02*
X0193908Y0118290D01*
X0193908Y0118525D02*
X0182320Y0118525D01*
X0182320Y0118760D02*
X0193908Y0118760D01*
X0193908Y0118995D02*
X0182320Y0118995D01*
X0182320Y0119230D02*
X0193908Y0119230D01*
X0193908Y0119465D02*
X0182320Y0119465D01*
X0182320Y0119700D02*
X0193908Y0119700D01*
X0193908Y0119935D02*
X0182320Y0119935D01*
X0182320Y0120170D02*
X0193908Y0120170D01*
X0193908Y0120405D02*
X0182320Y0120405D01*
X0182320Y0120640D02*
X0193908Y0120640D01*
X0193908Y0120875D02*
X0182320Y0120875D01*
X0182320Y0121110D02*
X0193908Y0121110D01*
X0193908Y0121345D02*
X0182320Y0121345D01*
X0182320Y0121580D02*
X0193908Y0121580D01*
X0193908Y0121815D02*
X0182320Y0121815D01*
X0182320Y0122050D02*
X0193908Y0122050D01*
X0193908Y0122285D02*
X0182320Y0122285D01*
X0182320Y0122520D02*
X0193908Y0122520D01*
X0193908Y0122755D02*
X0182320Y0122755D01*
X0182320Y0122990D02*
X0193908Y0122990D01*
D24*
X0174728Y0141810D03*
X0137327Y0163463D03*
X0100831Y0130353D03*
X0088114Y0118188D03*
X0080240Y0122125D03*
X0109768Y0108345D03*
X0113705Y0114251D03*
X0125516Y0122125D03*
X0129453Y0118188D03*
X0121579Y0126062D03*
X0168823Y0082755D03*
X0137327Y0068975D03*
X0221972Y0114251D03*
M02*
