%
M48
M72
T01C0.00984
T02C0.02756
T03C0.03200
T04C0.03543
T05C0.04400
T06C0.09055
%
T01
X82209Y122125
X90083Y118188
X102799Y130353
X115673Y114251
X111736Y108345
X127484Y122125
X123547Y126062
X131421Y118188
X170791Y82755
X170791Y68975
X139295Y68975
X223941Y114251
X139295Y163463
T02
X20398Y130589
X29846Y130589
X30240Y122519
X30240Y116219
X30240Y109920
X29846Y101849
X20398Y101849
X20004Y113070
X20004Y119369
T03
X37681Y77479
X45555Y77479
X68429Y111219
X68429Y121219
X89217Y150708
X109217Y150708
X44807Y155589
X36933Y155589
T04
X237720Y100314
X237720Y110156
X237720Y118030
X237720Y127873
T05
X204256Y132282
X204256Y92282
T06
X227484Y88503
X227091Y139684
M30
