G75*
%MOIN*%
%OFA0B0*%
%FSLAX25Y25*%
%IPPOS*%
%LPD*%
%AMOC8*
5,1,8,0,0,1.08239X$1,22.5*
%
%ADD10C,0.00000*%
%ADD11C,0.00213*%
%ADD12C,0.00237*%
%ADD13C,0.08400*%
%ADD14C,0.00201*%
%ADD15OC8,0.07400*%
%ADD16OC8,0.06000*%
%ADD17C,0.05556*%
%ADD18C,0.00272*%
%ADD19C,0.00255*%
%ADD20C,0.06343*%
%ADD21C,0.09855*%
%ADD22OC8,0.07000*%
%ADD23C,0.07000*%
%ADD24C,0.10800*%
%ADD25C,0.03384*%
D10*
X0001500Y0059133D02*
X0001500Y0175274D01*
X0253469Y0175274D01*
X0253469Y0059133D01*
X0001500Y0059133D01*
X0220988Y0088503D02*
X0220990Y0088637D01*
X0220996Y0088771D01*
X0221006Y0088905D01*
X0221020Y0089039D01*
X0221038Y0089172D01*
X0221059Y0089304D01*
X0221085Y0089436D01*
X0221115Y0089567D01*
X0221148Y0089697D01*
X0221185Y0089825D01*
X0221227Y0089953D01*
X0221271Y0090080D01*
X0221320Y0090205D01*
X0221372Y0090328D01*
X0221428Y0090450D01*
X0221488Y0090571D01*
X0221551Y0090689D01*
X0221617Y0090806D01*
X0221687Y0090920D01*
X0221760Y0091033D01*
X0221837Y0091143D01*
X0221917Y0091251D01*
X0222000Y0091356D01*
X0222086Y0091459D01*
X0222175Y0091559D01*
X0222267Y0091657D01*
X0222362Y0091752D01*
X0222460Y0091844D01*
X0222560Y0091933D01*
X0222663Y0092019D01*
X0222768Y0092102D01*
X0222876Y0092182D01*
X0222986Y0092259D01*
X0223099Y0092332D01*
X0223213Y0092402D01*
X0223330Y0092468D01*
X0223448Y0092531D01*
X0223569Y0092591D01*
X0223691Y0092647D01*
X0223814Y0092699D01*
X0223939Y0092748D01*
X0224066Y0092792D01*
X0224194Y0092834D01*
X0224322Y0092871D01*
X0224452Y0092904D01*
X0224583Y0092934D01*
X0224715Y0092960D01*
X0224847Y0092981D01*
X0224980Y0092999D01*
X0225114Y0093013D01*
X0225248Y0093023D01*
X0225382Y0093029D01*
X0225516Y0093031D01*
X0225650Y0093029D01*
X0225784Y0093023D01*
X0225918Y0093013D01*
X0226052Y0092999D01*
X0226185Y0092981D01*
X0226317Y0092960D01*
X0226449Y0092934D01*
X0226580Y0092904D01*
X0226710Y0092871D01*
X0226838Y0092834D01*
X0226966Y0092792D01*
X0227093Y0092748D01*
X0227218Y0092699D01*
X0227341Y0092647D01*
X0227463Y0092591D01*
X0227584Y0092531D01*
X0227702Y0092468D01*
X0227819Y0092402D01*
X0227933Y0092332D01*
X0228046Y0092259D01*
X0228156Y0092182D01*
X0228264Y0092102D01*
X0228369Y0092019D01*
X0228472Y0091933D01*
X0228572Y0091844D01*
X0228670Y0091752D01*
X0228765Y0091657D01*
X0228857Y0091559D01*
X0228946Y0091459D01*
X0229032Y0091356D01*
X0229115Y0091251D01*
X0229195Y0091143D01*
X0229272Y0091033D01*
X0229345Y0090920D01*
X0229415Y0090806D01*
X0229481Y0090689D01*
X0229544Y0090571D01*
X0229604Y0090450D01*
X0229660Y0090328D01*
X0229712Y0090205D01*
X0229761Y0090080D01*
X0229805Y0089953D01*
X0229847Y0089825D01*
X0229884Y0089697D01*
X0229917Y0089567D01*
X0229947Y0089436D01*
X0229973Y0089304D01*
X0229994Y0089172D01*
X0230012Y0089039D01*
X0230026Y0088905D01*
X0230036Y0088771D01*
X0230042Y0088637D01*
X0230044Y0088503D01*
X0230042Y0088369D01*
X0230036Y0088235D01*
X0230026Y0088101D01*
X0230012Y0087967D01*
X0229994Y0087834D01*
X0229973Y0087702D01*
X0229947Y0087570D01*
X0229917Y0087439D01*
X0229884Y0087309D01*
X0229847Y0087181D01*
X0229805Y0087053D01*
X0229761Y0086926D01*
X0229712Y0086801D01*
X0229660Y0086678D01*
X0229604Y0086556D01*
X0229544Y0086435D01*
X0229481Y0086317D01*
X0229415Y0086200D01*
X0229345Y0086086D01*
X0229272Y0085973D01*
X0229195Y0085863D01*
X0229115Y0085755D01*
X0229032Y0085650D01*
X0228946Y0085547D01*
X0228857Y0085447D01*
X0228765Y0085349D01*
X0228670Y0085254D01*
X0228572Y0085162D01*
X0228472Y0085073D01*
X0228369Y0084987D01*
X0228264Y0084904D01*
X0228156Y0084824D01*
X0228046Y0084747D01*
X0227933Y0084674D01*
X0227819Y0084604D01*
X0227702Y0084538D01*
X0227584Y0084475D01*
X0227463Y0084415D01*
X0227341Y0084359D01*
X0227218Y0084307D01*
X0227093Y0084258D01*
X0226966Y0084214D01*
X0226838Y0084172D01*
X0226710Y0084135D01*
X0226580Y0084102D01*
X0226449Y0084072D01*
X0226317Y0084046D01*
X0226185Y0084025D01*
X0226052Y0084007D01*
X0225918Y0083993D01*
X0225784Y0083983D01*
X0225650Y0083977D01*
X0225516Y0083975D01*
X0225382Y0083977D01*
X0225248Y0083983D01*
X0225114Y0083993D01*
X0224980Y0084007D01*
X0224847Y0084025D01*
X0224715Y0084046D01*
X0224583Y0084072D01*
X0224452Y0084102D01*
X0224322Y0084135D01*
X0224194Y0084172D01*
X0224066Y0084214D01*
X0223939Y0084258D01*
X0223814Y0084307D01*
X0223691Y0084359D01*
X0223569Y0084415D01*
X0223448Y0084475D01*
X0223330Y0084538D01*
X0223213Y0084604D01*
X0223099Y0084674D01*
X0222986Y0084747D01*
X0222876Y0084824D01*
X0222768Y0084904D01*
X0222663Y0084987D01*
X0222560Y0085073D01*
X0222460Y0085162D01*
X0222362Y0085254D01*
X0222267Y0085349D01*
X0222175Y0085447D01*
X0222086Y0085547D01*
X0222000Y0085650D01*
X0221917Y0085755D01*
X0221837Y0085863D01*
X0221760Y0085973D01*
X0221687Y0086086D01*
X0221617Y0086200D01*
X0221551Y0086317D01*
X0221488Y0086435D01*
X0221428Y0086556D01*
X0221372Y0086678D01*
X0221320Y0086801D01*
X0221271Y0086926D01*
X0221227Y0087053D01*
X0221185Y0087181D01*
X0221148Y0087309D01*
X0221115Y0087439D01*
X0221085Y0087570D01*
X0221059Y0087702D01*
X0221038Y0087834D01*
X0221020Y0087967D01*
X0221006Y0088101D01*
X0220996Y0088235D01*
X0220990Y0088369D01*
X0220988Y0088503D01*
X0220594Y0139684D02*
X0220596Y0139818D01*
X0220602Y0139952D01*
X0220612Y0140086D01*
X0220626Y0140220D01*
X0220644Y0140353D01*
X0220665Y0140485D01*
X0220691Y0140617D01*
X0220721Y0140748D01*
X0220754Y0140878D01*
X0220791Y0141006D01*
X0220833Y0141134D01*
X0220877Y0141261D01*
X0220926Y0141386D01*
X0220978Y0141509D01*
X0221034Y0141631D01*
X0221094Y0141752D01*
X0221157Y0141870D01*
X0221223Y0141987D01*
X0221293Y0142101D01*
X0221366Y0142214D01*
X0221443Y0142324D01*
X0221523Y0142432D01*
X0221606Y0142537D01*
X0221692Y0142640D01*
X0221781Y0142740D01*
X0221873Y0142838D01*
X0221968Y0142933D01*
X0222066Y0143025D01*
X0222166Y0143114D01*
X0222269Y0143200D01*
X0222374Y0143283D01*
X0222482Y0143363D01*
X0222592Y0143440D01*
X0222705Y0143513D01*
X0222819Y0143583D01*
X0222936Y0143649D01*
X0223054Y0143712D01*
X0223175Y0143772D01*
X0223297Y0143828D01*
X0223420Y0143880D01*
X0223545Y0143929D01*
X0223672Y0143973D01*
X0223800Y0144015D01*
X0223928Y0144052D01*
X0224058Y0144085D01*
X0224189Y0144115D01*
X0224321Y0144141D01*
X0224453Y0144162D01*
X0224586Y0144180D01*
X0224720Y0144194D01*
X0224854Y0144204D01*
X0224988Y0144210D01*
X0225122Y0144212D01*
X0225256Y0144210D01*
X0225390Y0144204D01*
X0225524Y0144194D01*
X0225658Y0144180D01*
X0225791Y0144162D01*
X0225923Y0144141D01*
X0226055Y0144115D01*
X0226186Y0144085D01*
X0226316Y0144052D01*
X0226444Y0144015D01*
X0226572Y0143973D01*
X0226699Y0143929D01*
X0226824Y0143880D01*
X0226947Y0143828D01*
X0227069Y0143772D01*
X0227190Y0143712D01*
X0227308Y0143649D01*
X0227425Y0143583D01*
X0227539Y0143513D01*
X0227652Y0143440D01*
X0227762Y0143363D01*
X0227870Y0143283D01*
X0227975Y0143200D01*
X0228078Y0143114D01*
X0228178Y0143025D01*
X0228276Y0142933D01*
X0228371Y0142838D01*
X0228463Y0142740D01*
X0228552Y0142640D01*
X0228638Y0142537D01*
X0228721Y0142432D01*
X0228801Y0142324D01*
X0228878Y0142214D01*
X0228951Y0142101D01*
X0229021Y0141987D01*
X0229087Y0141870D01*
X0229150Y0141752D01*
X0229210Y0141631D01*
X0229266Y0141509D01*
X0229318Y0141386D01*
X0229367Y0141261D01*
X0229411Y0141134D01*
X0229453Y0141006D01*
X0229490Y0140878D01*
X0229523Y0140748D01*
X0229553Y0140617D01*
X0229579Y0140485D01*
X0229600Y0140353D01*
X0229618Y0140220D01*
X0229632Y0140086D01*
X0229642Y0139952D01*
X0229648Y0139818D01*
X0229650Y0139684D01*
X0229648Y0139550D01*
X0229642Y0139416D01*
X0229632Y0139282D01*
X0229618Y0139148D01*
X0229600Y0139015D01*
X0229579Y0138883D01*
X0229553Y0138751D01*
X0229523Y0138620D01*
X0229490Y0138490D01*
X0229453Y0138362D01*
X0229411Y0138234D01*
X0229367Y0138107D01*
X0229318Y0137982D01*
X0229266Y0137859D01*
X0229210Y0137737D01*
X0229150Y0137616D01*
X0229087Y0137498D01*
X0229021Y0137381D01*
X0228951Y0137267D01*
X0228878Y0137154D01*
X0228801Y0137044D01*
X0228721Y0136936D01*
X0228638Y0136831D01*
X0228552Y0136728D01*
X0228463Y0136628D01*
X0228371Y0136530D01*
X0228276Y0136435D01*
X0228178Y0136343D01*
X0228078Y0136254D01*
X0227975Y0136168D01*
X0227870Y0136085D01*
X0227762Y0136005D01*
X0227652Y0135928D01*
X0227539Y0135855D01*
X0227425Y0135785D01*
X0227308Y0135719D01*
X0227190Y0135656D01*
X0227069Y0135596D01*
X0226947Y0135540D01*
X0226824Y0135488D01*
X0226699Y0135439D01*
X0226572Y0135395D01*
X0226444Y0135353D01*
X0226316Y0135316D01*
X0226186Y0135283D01*
X0226055Y0135253D01*
X0225923Y0135227D01*
X0225791Y0135206D01*
X0225658Y0135188D01*
X0225524Y0135174D01*
X0225390Y0135164D01*
X0225256Y0135158D01*
X0225122Y0135156D01*
X0224988Y0135158D01*
X0224854Y0135164D01*
X0224720Y0135174D01*
X0224586Y0135188D01*
X0224453Y0135206D01*
X0224321Y0135227D01*
X0224189Y0135253D01*
X0224058Y0135283D01*
X0223928Y0135316D01*
X0223800Y0135353D01*
X0223672Y0135395D01*
X0223545Y0135439D01*
X0223420Y0135488D01*
X0223297Y0135540D01*
X0223175Y0135596D01*
X0223054Y0135656D01*
X0222936Y0135719D01*
X0222819Y0135785D01*
X0222705Y0135855D01*
X0222592Y0135928D01*
X0222482Y0136005D01*
X0222374Y0136085D01*
X0222269Y0136168D01*
X0222166Y0136254D01*
X0222066Y0136343D01*
X0221968Y0136435D01*
X0221873Y0136530D01*
X0221781Y0136628D01*
X0221692Y0136728D01*
X0221606Y0136831D01*
X0221523Y0136936D01*
X0221443Y0137044D01*
X0221366Y0137154D01*
X0221293Y0137267D01*
X0221223Y0137381D01*
X0221157Y0137498D01*
X0221094Y0137616D01*
X0221034Y0137737D01*
X0220978Y0137859D01*
X0220926Y0137982D01*
X0220877Y0138107D01*
X0220833Y0138234D01*
X0220791Y0138362D01*
X0220754Y0138490D01*
X0220721Y0138620D01*
X0220691Y0138751D01*
X0220665Y0138883D01*
X0220644Y0139015D01*
X0220626Y0139148D01*
X0220612Y0139282D01*
X0220602Y0139416D01*
X0220596Y0139550D01*
X0220594Y0139684D01*
D11*
X0189589Y0137576D02*
X0182703Y0137576D01*
X0189589Y0137576D02*
X0189589Y0126358D01*
X0182703Y0126358D01*
X0182703Y0137576D01*
X0182703Y0126570D02*
X0189589Y0126570D01*
X0189589Y0126782D02*
X0182703Y0126782D01*
X0182703Y0126994D02*
X0189589Y0126994D01*
X0189589Y0127206D02*
X0182703Y0127206D01*
X0182703Y0127418D02*
X0189589Y0127418D01*
X0189589Y0127630D02*
X0182703Y0127630D01*
X0182703Y0127842D02*
X0189589Y0127842D01*
X0189589Y0128054D02*
X0182703Y0128054D01*
X0182703Y0128266D02*
X0189589Y0128266D01*
X0189589Y0128478D02*
X0182703Y0128478D01*
X0182703Y0128690D02*
X0189589Y0128690D01*
X0189589Y0128902D02*
X0182703Y0128902D01*
X0182703Y0129114D02*
X0189589Y0129114D01*
X0189589Y0129326D02*
X0182703Y0129326D01*
X0182703Y0129538D02*
X0189589Y0129538D01*
X0189589Y0129750D02*
X0182703Y0129750D01*
X0182703Y0129962D02*
X0189589Y0129962D01*
X0189589Y0130174D02*
X0182703Y0130174D01*
X0182703Y0130386D02*
X0189589Y0130386D01*
X0189589Y0130598D02*
X0182703Y0130598D01*
X0182703Y0130810D02*
X0189589Y0130810D01*
X0189589Y0131022D02*
X0182703Y0131022D01*
X0182703Y0131234D02*
X0189589Y0131234D01*
X0189589Y0131446D02*
X0182703Y0131446D01*
X0182703Y0131658D02*
X0189589Y0131658D01*
X0189589Y0131870D02*
X0182703Y0131870D01*
X0182703Y0132082D02*
X0189589Y0132082D01*
X0189589Y0132294D02*
X0182703Y0132294D01*
X0182703Y0132506D02*
X0189589Y0132506D01*
X0189589Y0132718D02*
X0182703Y0132718D01*
X0182703Y0132930D02*
X0189589Y0132930D01*
X0189589Y0133142D02*
X0182703Y0133142D01*
X0182703Y0133354D02*
X0189589Y0133354D01*
X0189589Y0133566D02*
X0182703Y0133566D01*
X0182703Y0133778D02*
X0189589Y0133778D01*
X0189589Y0133990D02*
X0182703Y0133990D01*
X0182703Y0134202D02*
X0189589Y0134202D01*
X0189589Y0134414D02*
X0182703Y0134414D01*
X0182703Y0134626D02*
X0189589Y0134626D01*
X0189589Y0134838D02*
X0182703Y0134838D01*
X0182703Y0135050D02*
X0189589Y0135050D01*
X0189589Y0135262D02*
X0182703Y0135262D01*
X0182703Y0135474D02*
X0189589Y0135474D01*
X0189589Y0135686D02*
X0182703Y0135686D01*
X0182703Y0135898D02*
X0189589Y0135898D01*
X0189589Y0136110D02*
X0182703Y0136110D01*
X0182703Y0136322D02*
X0189589Y0136322D01*
X0189589Y0136534D02*
X0182703Y0136534D01*
X0182703Y0136746D02*
X0189589Y0136746D01*
X0189589Y0136958D02*
X0182703Y0136958D01*
X0182703Y0137170D02*
X0189589Y0137170D01*
X0189589Y0137382D02*
X0182703Y0137382D01*
X0178565Y0137576D02*
X0171679Y0137576D01*
X0178565Y0137576D02*
X0178565Y0126358D01*
X0171679Y0126358D01*
X0171679Y0137576D01*
X0171679Y0126570D02*
X0178565Y0126570D01*
X0178565Y0126782D02*
X0171679Y0126782D01*
X0171679Y0126994D02*
X0178565Y0126994D01*
X0178565Y0127206D02*
X0171679Y0127206D01*
X0171679Y0127418D02*
X0178565Y0127418D01*
X0178565Y0127630D02*
X0171679Y0127630D01*
X0171679Y0127842D02*
X0178565Y0127842D01*
X0178565Y0128054D02*
X0171679Y0128054D01*
X0171679Y0128266D02*
X0178565Y0128266D01*
X0178565Y0128478D02*
X0171679Y0128478D01*
X0171679Y0128690D02*
X0178565Y0128690D01*
X0178565Y0128902D02*
X0171679Y0128902D01*
X0171679Y0129114D02*
X0178565Y0129114D01*
X0178565Y0129326D02*
X0171679Y0129326D01*
X0171679Y0129538D02*
X0178565Y0129538D01*
X0178565Y0129750D02*
X0171679Y0129750D01*
X0171679Y0129962D02*
X0178565Y0129962D01*
X0178565Y0130174D02*
X0171679Y0130174D01*
X0171679Y0130386D02*
X0178565Y0130386D01*
X0178565Y0130598D02*
X0171679Y0130598D01*
X0171679Y0130810D02*
X0178565Y0130810D01*
X0178565Y0131022D02*
X0171679Y0131022D01*
X0171679Y0131234D02*
X0178565Y0131234D01*
X0178565Y0131446D02*
X0171679Y0131446D01*
X0171679Y0131658D02*
X0178565Y0131658D01*
X0178565Y0131870D02*
X0171679Y0131870D01*
X0171679Y0132082D02*
X0178565Y0132082D01*
X0178565Y0132294D02*
X0171679Y0132294D01*
X0171679Y0132506D02*
X0178565Y0132506D01*
X0178565Y0132718D02*
X0171679Y0132718D01*
X0171679Y0132930D02*
X0178565Y0132930D01*
X0178565Y0133142D02*
X0171679Y0133142D01*
X0171679Y0133354D02*
X0178565Y0133354D01*
X0178565Y0133566D02*
X0171679Y0133566D01*
X0171679Y0133778D02*
X0178565Y0133778D01*
X0178565Y0133990D02*
X0171679Y0133990D01*
X0171679Y0134202D02*
X0178565Y0134202D01*
X0178565Y0134414D02*
X0171679Y0134414D01*
X0171679Y0134626D02*
X0178565Y0134626D01*
X0178565Y0134838D02*
X0171679Y0134838D01*
X0171679Y0135050D02*
X0178565Y0135050D01*
X0178565Y0135262D02*
X0171679Y0135262D01*
X0171679Y0135474D02*
X0178565Y0135474D01*
X0178565Y0135686D02*
X0171679Y0135686D01*
X0171679Y0135898D02*
X0178565Y0135898D01*
X0178565Y0136110D02*
X0171679Y0136110D01*
X0171679Y0136322D02*
X0178565Y0136322D01*
X0178565Y0136534D02*
X0171679Y0136534D01*
X0171679Y0136746D02*
X0178565Y0136746D01*
X0178565Y0136958D02*
X0171679Y0136958D01*
X0171679Y0137170D02*
X0178565Y0137170D01*
X0178565Y0137382D02*
X0171679Y0137382D01*
X0165967Y0086988D02*
X0159081Y0086988D01*
X0159081Y0098206D01*
X0165967Y0098206D01*
X0165967Y0086988D01*
X0165967Y0087200D02*
X0159081Y0087200D01*
X0159081Y0087412D02*
X0165967Y0087412D01*
X0165967Y0087624D02*
X0159081Y0087624D01*
X0159081Y0087836D02*
X0165967Y0087836D01*
X0165967Y0088048D02*
X0159081Y0088048D01*
X0159081Y0088260D02*
X0165967Y0088260D01*
X0165967Y0088472D02*
X0159081Y0088472D01*
X0159081Y0088684D02*
X0165967Y0088684D01*
X0165967Y0088896D02*
X0159081Y0088896D01*
X0159081Y0089108D02*
X0165967Y0089108D01*
X0165967Y0089320D02*
X0159081Y0089320D01*
X0159081Y0089532D02*
X0165967Y0089532D01*
X0165967Y0089744D02*
X0159081Y0089744D01*
X0159081Y0089956D02*
X0165967Y0089956D01*
X0165967Y0090168D02*
X0159081Y0090168D01*
X0159081Y0090380D02*
X0165967Y0090380D01*
X0165967Y0090592D02*
X0159081Y0090592D01*
X0159081Y0090804D02*
X0165967Y0090804D01*
X0165967Y0091016D02*
X0159081Y0091016D01*
X0159081Y0091228D02*
X0165967Y0091228D01*
X0165967Y0091440D02*
X0159081Y0091440D01*
X0159081Y0091652D02*
X0165967Y0091652D01*
X0165967Y0091864D02*
X0159081Y0091864D01*
X0159081Y0092076D02*
X0165967Y0092076D01*
X0165967Y0092288D02*
X0159081Y0092288D01*
X0159081Y0092500D02*
X0165967Y0092500D01*
X0165967Y0092712D02*
X0159081Y0092712D01*
X0159081Y0092924D02*
X0165967Y0092924D01*
X0165967Y0093136D02*
X0159081Y0093136D01*
X0159081Y0093348D02*
X0165967Y0093348D01*
X0165967Y0093560D02*
X0159081Y0093560D01*
X0159081Y0093772D02*
X0165967Y0093772D01*
X0165967Y0093984D02*
X0159081Y0093984D01*
X0159081Y0094196D02*
X0165967Y0094196D01*
X0165967Y0094408D02*
X0159081Y0094408D01*
X0159081Y0094620D02*
X0165967Y0094620D01*
X0165967Y0094832D02*
X0159081Y0094832D01*
X0159081Y0095044D02*
X0165967Y0095044D01*
X0165967Y0095256D02*
X0159081Y0095256D01*
X0159081Y0095468D02*
X0165967Y0095468D01*
X0165967Y0095680D02*
X0159081Y0095680D01*
X0159081Y0095892D02*
X0165967Y0095892D01*
X0165967Y0096104D02*
X0159081Y0096104D01*
X0159081Y0096316D02*
X0165967Y0096316D01*
X0165967Y0096528D02*
X0159081Y0096528D01*
X0159081Y0096740D02*
X0165967Y0096740D01*
X0165967Y0096952D02*
X0159081Y0096952D01*
X0159081Y0097164D02*
X0165967Y0097164D01*
X0165967Y0097376D02*
X0159081Y0097376D01*
X0159081Y0097588D02*
X0165967Y0097588D01*
X0165967Y0097800D02*
X0159081Y0097800D01*
X0159081Y0098012D02*
X0165967Y0098012D01*
X0154943Y0086988D02*
X0148057Y0086988D01*
X0148057Y0098206D01*
X0154943Y0098206D01*
X0154943Y0086988D01*
X0154943Y0087200D02*
X0148057Y0087200D01*
X0148057Y0087412D02*
X0154943Y0087412D01*
X0154943Y0087624D02*
X0148057Y0087624D01*
X0148057Y0087836D02*
X0154943Y0087836D01*
X0154943Y0088048D02*
X0148057Y0088048D01*
X0148057Y0088260D02*
X0154943Y0088260D01*
X0154943Y0088472D02*
X0148057Y0088472D01*
X0148057Y0088684D02*
X0154943Y0088684D01*
X0154943Y0088896D02*
X0148057Y0088896D01*
X0148057Y0089108D02*
X0154943Y0089108D01*
X0154943Y0089320D02*
X0148057Y0089320D01*
X0148057Y0089532D02*
X0154943Y0089532D01*
X0154943Y0089744D02*
X0148057Y0089744D01*
X0148057Y0089956D02*
X0154943Y0089956D01*
X0154943Y0090168D02*
X0148057Y0090168D01*
X0148057Y0090380D02*
X0154943Y0090380D01*
X0154943Y0090592D02*
X0148057Y0090592D01*
X0148057Y0090804D02*
X0154943Y0090804D01*
X0154943Y0091016D02*
X0148057Y0091016D01*
X0148057Y0091228D02*
X0154943Y0091228D01*
X0154943Y0091440D02*
X0148057Y0091440D01*
X0148057Y0091652D02*
X0154943Y0091652D01*
X0154943Y0091864D02*
X0148057Y0091864D01*
X0148057Y0092076D02*
X0154943Y0092076D01*
X0154943Y0092288D02*
X0148057Y0092288D01*
X0148057Y0092500D02*
X0154943Y0092500D01*
X0154943Y0092712D02*
X0148057Y0092712D01*
X0148057Y0092924D02*
X0154943Y0092924D01*
X0154943Y0093136D02*
X0148057Y0093136D01*
X0148057Y0093348D02*
X0154943Y0093348D01*
X0154943Y0093560D02*
X0148057Y0093560D01*
X0148057Y0093772D02*
X0154943Y0093772D01*
X0154943Y0093984D02*
X0148057Y0093984D01*
X0148057Y0094196D02*
X0154943Y0094196D01*
X0154943Y0094408D02*
X0148057Y0094408D01*
X0148057Y0094620D02*
X0154943Y0094620D01*
X0154943Y0094832D02*
X0148057Y0094832D01*
X0148057Y0095044D02*
X0154943Y0095044D01*
X0154943Y0095256D02*
X0148057Y0095256D01*
X0148057Y0095468D02*
X0154943Y0095468D01*
X0154943Y0095680D02*
X0148057Y0095680D01*
X0148057Y0095892D02*
X0154943Y0095892D01*
X0154943Y0096104D02*
X0148057Y0096104D01*
X0148057Y0096316D02*
X0154943Y0096316D01*
X0154943Y0096528D02*
X0148057Y0096528D01*
X0148057Y0096740D02*
X0154943Y0096740D01*
X0154943Y0096952D02*
X0148057Y0096952D01*
X0148057Y0097164D02*
X0154943Y0097164D01*
X0154943Y0097376D02*
X0148057Y0097376D01*
X0148057Y0097588D02*
X0154943Y0097588D01*
X0154943Y0097800D02*
X0148057Y0097800D01*
X0148057Y0098012D02*
X0154943Y0098012D01*
D12*
X0148436Y0103733D02*
X0148436Y0109415D01*
X0148436Y0103733D02*
X0141966Y0103733D01*
X0141966Y0109415D01*
X0148436Y0109415D01*
X0148436Y0103969D02*
X0141966Y0103969D01*
X0141966Y0104205D02*
X0148436Y0104205D01*
X0148436Y0104441D02*
X0141966Y0104441D01*
X0141966Y0104677D02*
X0148436Y0104677D01*
X0148436Y0104913D02*
X0141966Y0104913D01*
X0141966Y0105149D02*
X0148436Y0105149D01*
X0148436Y0105385D02*
X0141966Y0105385D01*
X0141966Y0105621D02*
X0148436Y0105621D01*
X0148436Y0105857D02*
X0141966Y0105857D01*
X0141966Y0106093D02*
X0148436Y0106093D01*
X0148436Y0106329D02*
X0141966Y0106329D01*
X0141966Y0106565D02*
X0148436Y0106565D01*
X0148436Y0106801D02*
X0141966Y0106801D01*
X0141966Y0107037D02*
X0148436Y0107037D01*
X0148436Y0107273D02*
X0141966Y0107273D01*
X0141966Y0107509D02*
X0148436Y0107509D01*
X0148436Y0107745D02*
X0141966Y0107745D01*
X0141966Y0107981D02*
X0148436Y0107981D01*
X0148436Y0108217D02*
X0141966Y0108217D01*
X0141966Y0108453D02*
X0148436Y0108453D01*
X0148436Y0108689D02*
X0141966Y0108689D01*
X0141966Y0108925D02*
X0148436Y0108925D01*
X0148436Y0109161D02*
X0141966Y0109161D01*
X0141966Y0109397D02*
X0148436Y0109397D01*
X0148436Y0111213D02*
X0148436Y0116895D01*
X0148436Y0111213D02*
X0141966Y0111213D01*
X0141966Y0116895D01*
X0148436Y0116895D01*
X0148436Y0111449D02*
X0141966Y0111449D01*
X0141966Y0111685D02*
X0148436Y0111685D01*
X0148436Y0111921D02*
X0141966Y0111921D01*
X0141966Y0112157D02*
X0148436Y0112157D01*
X0148436Y0112393D02*
X0141966Y0112393D01*
X0141966Y0112629D02*
X0148436Y0112629D01*
X0148436Y0112865D02*
X0141966Y0112865D01*
X0141966Y0113101D02*
X0148436Y0113101D01*
X0148436Y0113337D02*
X0141966Y0113337D01*
X0141966Y0113573D02*
X0148436Y0113573D01*
X0148436Y0113809D02*
X0141966Y0113809D01*
X0141966Y0114045D02*
X0148436Y0114045D01*
X0148436Y0114281D02*
X0141966Y0114281D01*
X0141966Y0114517D02*
X0148436Y0114517D01*
X0148436Y0114753D02*
X0141966Y0114753D01*
X0141966Y0114989D02*
X0148436Y0114989D01*
X0148436Y0115225D02*
X0141966Y0115225D01*
X0141966Y0115461D02*
X0148436Y0115461D01*
X0148436Y0115697D02*
X0141966Y0115697D01*
X0141966Y0115933D02*
X0148436Y0115933D01*
X0148436Y0116169D02*
X0141966Y0116169D01*
X0141966Y0116405D02*
X0148436Y0116405D01*
X0148436Y0116641D02*
X0141966Y0116641D01*
X0141966Y0116877D02*
X0148436Y0116877D01*
X0146494Y0126764D02*
X0152176Y0126764D01*
X0146494Y0126764D02*
X0146494Y0133234D01*
X0152176Y0133234D01*
X0152176Y0126764D01*
X0152176Y0127000D02*
X0146494Y0127000D01*
X0146494Y0127236D02*
X0152176Y0127236D01*
X0152176Y0127472D02*
X0146494Y0127472D01*
X0146494Y0127708D02*
X0152176Y0127708D01*
X0152176Y0127944D02*
X0146494Y0127944D01*
X0146494Y0128180D02*
X0152176Y0128180D01*
X0152176Y0128416D02*
X0146494Y0128416D01*
X0146494Y0128652D02*
X0152176Y0128652D01*
X0152176Y0128888D02*
X0146494Y0128888D01*
X0146494Y0129124D02*
X0152176Y0129124D01*
X0152176Y0129360D02*
X0146494Y0129360D01*
X0146494Y0129596D02*
X0152176Y0129596D01*
X0152176Y0129832D02*
X0146494Y0129832D01*
X0146494Y0130068D02*
X0152176Y0130068D01*
X0152176Y0130304D02*
X0146494Y0130304D01*
X0146494Y0130540D02*
X0152176Y0130540D01*
X0152176Y0130776D02*
X0146494Y0130776D01*
X0146494Y0131012D02*
X0152176Y0131012D01*
X0152176Y0131248D02*
X0146494Y0131248D01*
X0146494Y0131484D02*
X0152176Y0131484D01*
X0152176Y0131720D02*
X0146494Y0131720D01*
X0146494Y0131956D02*
X0152176Y0131956D01*
X0152176Y0132192D02*
X0146494Y0132192D01*
X0146494Y0132428D02*
X0152176Y0132428D01*
X0152176Y0132664D02*
X0146494Y0132664D01*
X0146494Y0132900D02*
X0152176Y0132900D01*
X0152176Y0133136D02*
X0146494Y0133136D01*
X0153974Y0126764D02*
X0159656Y0126764D01*
X0153974Y0126764D02*
X0153974Y0133234D01*
X0159656Y0133234D01*
X0159656Y0126764D01*
X0159656Y0127000D02*
X0153974Y0127000D01*
X0153974Y0127236D02*
X0159656Y0127236D01*
X0159656Y0127472D02*
X0153974Y0127472D01*
X0153974Y0127708D02*
X0159656Y0127708D01*
X0159656Y0127944D02*
X0153974Y0127944D01*
X0153974Y0128180D02*
X0159656Y0128180D01*
X0159656Y0128416D02*
X0153974Y0128416D01*
X0153974Y0128652D02*
X0159656Y0128652D01*
X0159656Y0128888D02*
X0153974Y0128888D01*
X0153974Y0129124D02*
X0159656Y0129124D01*
X0159656Y0129360D02*
X0153974Y0129360D01*
X0153974Y0129596D02*
X0159656Y0129596D01*
X0159656Y0129832D02*
X0153974Y0129832D01*
X0153974Y0130068D02*
X0159656Y0130068D01*
X0159656Y0130304D02*
X0153974Y0130304D01*
X0153974Y0130540D02*
X0159656Y0130540D01*
X0159656Y0130776D02*
X0153974Y0130776D01*
X0153974Y0131012D02*
X0159656Y0131012D01*
X0159656Y0131248D02*
X0153974Y0131248D01*
X0153974Y0131484D02*
X0159656Y0131484D01*
X0159656Y0131720D02*
X0153974Y0131720D01*
X0153974Y0131956D02*
X0159656Y0131956D01*
X0159656Y0132192D02*
X0153974Y0132192D01*
X0153974Y0132428D02*
X0159656Y0132428D01*
X0159656Y0132664D02*
X0153974Y0132664D01*
X0153974Y0132900D02*
X0159656Y0132900D01*
X0159656Y0133136D02*
X0153974Y0133136D01*
X0195680Y0110989D02*
X0195680Y0105307D01*
X0189210Y0105307D01*
X0189210Y0110989D01*
X0195680Y0110989D01*
X0195680Y0105543D02*
X0189210Y0105543D01*
X0189210Y0105779D02*
X0195680Y0105779D01*
X0195680Y0106015D02*
X0189210Y0106015D01*
X0189210Y0106251D02*
X0195680Y0106251D01*
X0195680Y0106487D02*
X0189210Y0106487D01*
X0189210Y0106723D02*
X0195680Y0106723D01*
X0195680Y0106959D02*
X0189210Y0106959D01*
X0189210Y0107195D02*
X0195680Y0107195D01*
X0195680Y0107431D02*
X0189210Y0107431D01*
X0189210Y0107667D02*
X0195680Y0107667D01*
X0195680Y0107903D02*
X0189210Y0107903D01*
X0189210Y0108139D02*
X0195680Y0108139D01*
X0195680Y0108375D02*
X0189210Y0108375D01*
X0189210Y0108611D02*
X0195680Y0108611D01*
X0195680Y0108847D02*
X0189210Y0108847D01*
X0189210Y0109083D02*
X0195680Y0109083D01*
X0195680Y0109319D02*
X0189210Y0109319D01*
X0189210Y0109555D02*
X0195680Y0109555D01*
X0195680Y0109791D02*
X0189210Y0109791D01*
X0189210Y0110027D02*
X0195680Y0110027D01*
X0195680Y0110263D02*
X0189210Y0110263D01*
X0189210Y0110499D02*
X0195680Y0110499D01*
X0195680Y0110735D02*
X0189210Y0110735D01*
X0189210Y0110971D02*
X0195680Y0110971D01*
X0195680Y0103509D02*
X0195680Y0097827D01*
X0189210Y0097827D01*
X0189210Y0103509D01*
X0195680Y0103509D01*
X0195680Y0098063D02*
X0189210Y0098063D01*
X0189210Y0098299D02*
X0195680Y0098299D01*
X0195680Y0098535D02*
X0189210Y0098535D01*
X0189210Y0098771D02*
X0195680Y0098771D01*
X0195680Y0099007D02*
X0189210Y0099007D01*
X0189210Y0099243D02*
X0195680Y0099243D01*
X0195680Y0099479D02*
X0189210Y0099479D01*
X0189210Y0099715D02*
X0195680Y0099715D01*
X0195680Y0099951D02*
X0189210Y0099951D01*
X0189210Y0100187D02*
X0195680Y0100187D01*
X0195680Y0100423D02*
X0189210Y0100423D01*
X0189210Y0100659D02*
X0195680Y0100659D01*
X0195680Y0100895D02*
X0189210Y0100895D01*
X0189210Y0101131D02*
X0195680Y0101131D01*
X0195680Y0101367D02*
X0189210Y0101367D01*
X0189210Y0101603D02*
X0195680Y0101603D01*
X0195680Y0101839D02*
X0189210Y0101839D01*
X0189210Y0102075D02*
X0195680Y0102075D01*
X0195680Y0102311D02*
X0189210Y0102311D01*
X0189210Y0102547D02*
X0195680Y0102547D01*
X0195680Y0102783D02*
X0189210Y0102783D01*
X0189210Y0103019D02*
X0195680Y0103019D01*
X0195680Y0103255D02*
X0189210Y0103255D01*
X0189210Y0103491D02*
X0195680Y0103491D01*
X0098632Y0095268D02*
X0092950Y0095268D01*
X0092950Y0101738D01*
X0098632Y0101738D01*
X0098632Y0095268D01*
X0098632Y0095504D02*
X0092950Y0095504D01*
X0092950Y0095740D02*
X0098632Y0095740D01*
X0098632Y0095976D02*
X0092950Y0095976D01*
X0092950Y0096212D02*
X0098632Y0096212D01*
X0098632Y0096448D02*
X0092950Y0096448D01*
X0092950Y0096684D02*
X0098632Y0096684D01*
X0098632Y0096920D02*
X0092950Y0096920D01*
X0092950Y0097156D02*
X0098632Y0097156D01*
X0098632Y0097392D02*
X0092950Y0097392D01*
X0092950Y0097628D02*
X0098632Y0097628D01*
X0098632Y0097864D02*
X0092950Y0097864D01*
X0092950Y0098100D02*
X0098632Y0098100D01*
X0098632Y0098336D02*
X0092950Y0098336D01*
X0092950Y0098572D02*
X0098632Y0098572D01*
X0098632Y0098808D02*
X0092950Y0098808D01*
X0092950Y0099044D02*
X0098632Y0099044D01*
X0098632Y0099280D02*
X0092950Y0099280D01*
X0092950Y0099516D02*
X0098632Y0099516D01*
X0098632Y0099752D02*
X0092950Y0099752D01*
X0092950Y0099988D02*
X0098632Y0099988D01*
X0098632Y0100224D02*
X0092950Y0100224D01*
X0092950Y0100460D02*
X0098632Y0100460D01*
X0098632Y0100696D02*
X0092950Y0100696D01*
X0092950Y0100932D02*
X0098632Y0100932D01*
X0098632Y0101168D02*
X0092950Y0101168D01*
X0092950Y0101404D02*
X0098632Y0101404D01*
X0098632Y0101640D02*
X0092950Y0101640D01*
X0091152Y0095268D02*
X0085470Y0095268D01*
X0085470Y0101738D01*
X0091152Y0101738D01*
X0091152Y0095268D01*
X0091152Y0095504D02*
X0085470Y0095504D01*
X0085470Y0095740D02*
X0091152Y0095740D01*
X0091152Y0095976D02*
X0085470Y0095976D01*
X0085470Y0096212D02*
X0091152Y0096212D01*
X0091152Y0096448D02*
X0085470Y0096448D01*
X0085470Y0096684D02*
X0091152Y0096684D01*
X0091152Y0096920D02*
X0085470Y0096920D01*
X0085470Y0097156D02*
X0091152Y0097156D01*
X0091152Y0097392D02*
X0085470Y0097392D01*
X0085470Y0097628D02*
X0091152Y0097628D01*
X0091152Y0097864D02*
X0085470Y0097864D01*
X0085470Y0098100D02*
X0091152Y0098100D01*
X0091152Y0098336D02*
X0085470Y0098336D01*
X0085470Y0098572D02*
X0091152Y0098572D01*
X0091152Y0098808D02*
X0085470Y0098808D01*
X0085470Y0099044D02*
X0091152Y0099044D01*
X0091152Y0099280D02*
X0085470Y0099280D01*
X0085470Y0099516D02*
X0091152Y0099516D01*
X0091152Y0099752D02*
X0085470Y0099752D01*
X0085470Y0099988D02*
X0091152Y0099988D01*
X0091152Y0100224D02*
X0085470Y0100224D01*
X0085470Y0100460D02*
X0091152Y0100460D01*
X0091152Y0100696D02*
X0085470Y0100696D01*
X0085470Y0100932D02*
X0091152Y0100932D01*
X0091152Y0101168D02*
X0085470Y0101168D01*
X0085470Y0101404D02*
X0091152Y0101404D01*
X0091152Y0101640D02*
X0085470Y0101640D01*
X0085470Y0081488D02*
X0091152Y0081488D01*
X0085470Y0081488D02*
X0085470Y0087958D01*
X0091152Y0087958D01*
X0091152Y0081488D01*
X0091152Y0081724D02*
X0085470Y0081724D01*
X0085470Y0081960D02*
X0091152Y0081960D01*
X0091152Y0082196D02*
X0085470Y0082196D01*
X0085470Y0082432D02*
X0091152Y0082432D01*
X0091152Y0082668D02*
X0085470Y0082668D01*
X0085470Y0082904D02*
X0091152Y0082904D01*
X0091152Y0083140D02*
X0085470Y0083140D01*
X0085470Y0083376D02*
X0091152Y0083376D01*
X0091152Y0083612D02*
X0085470Y0083612D01*
X0085470Y0083848D02*
X0091152Y0083848D01*
X0091152Y0084084D02*
X0085470Y0084084D01*
X0085470Y0084320D02*
X0091152Y0084320D01*
X0091152Y0084556D02*
X0085470Y0084556D01*
X0085470Y0084792D02*
X0091152Y0084792D01*
X0091152Y0085028D02*
X0085470Y0085028D01*
X0085470Y0085264D02*
X0091152Y0085264D01*
X0091152Y0085500D02*
X0085470Y0085500D01*
X0085470Y0085736D02*
X0091152Y0085736D01*
X0091152Y0085972D02*
X0085470Y0085972D01*
X0085470Y0086208D02*
X0091152Y0086208D01*
X0091152Y0086444D02*
X0085470Y0086444D01*
X0085470Y0086680D02*
X0091152Y0086680D01*
X0091152Y0086916D02*
X0085470Y0086916D01*
X0085470Y0087152D02*
X0091152Y0087152D01*
X0091152Y0087388D02*
X0085470Y0087388D01*
X0085470Y0087624D02*
X0091152Y0087624D01*
X0091152Y0087860D02*
X0085470Y0087860D01*
X0092950Y0081488D02*
X0098632Y0081488D01*
X0092950Y0081488D02*
X0092950Y0087958D01*
X0098632Y0087958D01*
X0098632Y0081488D01*
X0098632Y0081724D02*
X0092950Y0081724D01*
X0092950Y0081960D02*
X0098632Y0081960D01*
X0098632Y0082196D02*
X0092950Y0082196D01*
X0092950Y0082432D02*
X0098632Y0082432D01*
X0098632Y0082668D02*
X0092950Y0082668D01*
X0092950Y0082904D02*
X0098632Y0082904D01*
X0098632Y0083140D02*
X0092950Y0083140D01*
X0092950Y0083376D02*
X0098632Y0083376D01*
X0098632Y0083612D02*
X0092950Y0083612D01*
X0092950Y0083848D02*
X0098632Y0083848D01*
X0098632Y0084084D02*
X0092950Y0084084D01*
X0092950Y0084320D02*
X0098632Y0084320D01*
X0098632Y0084556D02*
X0092950Y0084556D01*
X0092950Y0084792D02*
X0098632Y0084792D01*
X0098632Y0085028D02*
X0092950Y0085028D01*
X0092950Y0085264D02*
X0098632Y0085264D01*
X0098632Y0085500D02*
X0092950Y0085500D01*
X0092950Y0085736D02*
X0098632Y0085736D01*
X0098632Y0085972D02*
X0092950Y0085972D01*
X0092950Y0086208D02*
X0098632Y0086208D01*
X0098632Y0086444D02*
X0092950Y0086444D01*
X0092950Y0086680D02*
X0098632Y0086680D01*
X0098632Y0086916D02*
X0092950Y0086916D01*
X0092950Y0087152D02*
X0098632Y0087152D01*
X0098632Y0087388D02*
X0092950Y0087388D01*
X0092950Y0087624D02*
X0098632Y0087624D01*
X0098632Y0087860D02*
X0092950Y0087860D01*
X0092950Y0067709D02*
X0098632Y0067709D01*
X0092950Y0067709D02*
X0092950Y0074179D01*
X0098632Y0074179D01*
X0098632Y0067709D01*
X0098632Y0067945D02*
X0092950Y0067945D01*
X0092950Y0068181D02*
X0098632Y0068181D01*
X0098632Y0068417D02*
X0092950Y0068417D01*
X0092950Y0068653D02*
X0098632Y0068653D01*
X0098632Y0068889D02*
X0092950Y0068889D01*
X0092950Y0069125D02*
X0098632Y0069125D01*
X0098632Y0069361D02*
X0092950Y0069361D01*
X0092950Y0069597D02*
X0098632Y0069597D01*
X0098632Y0069833D02*
X0092950Y0069833D01*
X0092950Y0070069D02*
X0098632Y0070069D01*
X0098632Y0070305D02*
X0092950Y0070305D01*
X0092950Y0070541D02*
X0098632Y0070541D01*
X0098632Y0070777D02*
X0092950Y0070777D01*
X0092950Y0071013D02*
X0098632Y0071013D01*
X0098632Y0071249D02*
X0092950Y0071249D01*
X0092950Y0071485D02*
X0098632Y0071485D01*
X0098632Y0071721D02*
X0092950Y0071721D01*
X0092950Y0071957D02*
X0098632Y0071957D01*
X0098632Y0072193D02*
X0092950Y0072193D01*
X0092950Y0072429D02*
X0098632Y0072429D01*
X0098632Y0072665D02*
X0092950Y0072665D01*
X0092950Y0072901D02*
X0098632Y0072901D01*
X0098632Y0073137D02*
X0092950Y0073137D01*
X0092950Y0073373D02*
X0098632Y0073373D01*
X0098632Y0073609D02*
X0092950Y0073609D01*
X0092950Y0073845D02*
X0098632Y0073845D01*
X0098632Y0074081D02*
X0092950Y0074081D01*
X0091152Y0067709D02*
X0085470Y0067709D01*
X0085470Y0074179D01*
X0091152Y0074179D01*
X0091152Y0067709D01*
X0091152Y0067945D02*
X0085470Y0067945D01*
X0085470Y0068181D02*
X0091152Y0068181D01*
X0091152Y0068417D02*
X0085470Y0068417D01*
X0085470Y0068653D02*
X0091152Y0068653D01*
X0091152Y0068889D02*
X0085470Y0068889D01*
X0085470Y0069125D02*
X0091152Y0069125D01*
X0091152Y0069361D02*
X0085470Y0069361D01*
X0085470Y0069597D02*
X0091152Y0069597D01*
X0091152Y0069833D02*
X0085470Y0069833D01*
X0085470Y0070069D02*
X0091152Y0070069D01*
X0091152Y0070305D02*
X0085470Y0070305D01*
X0085470Y0070541D02*
X0091152Y0070541D01*
X0091152Y0070777D02*
X0085470Y0070777D01*
X0085470Y0071013D02*
X0091152Y0071013D01*
X0091152Y0071249D02*
X0085470Y0071249D01*
X0085470Y0071485D02*
X0091152Y0071485D01*
X0091152Y0071721D02*
X0085470Y0071721D01*
X0085470Y0071957D02*
X0091152Y0071957D01*
X0091152Y0072193D02*
X0085470Y0072193D01*
X0085470Y0072429D02*
X0091152Y0072429D01*
X0091152Y0072665D02*
X0085470Y0072665D01*
X0085470Y0072901D02*
X0091152Y0072901D01*
X0091152Y0073137D02*
X0085470Y0073137D01*
X0085470Y0073373D02*
X0091152Y0073373D01*
X0091152Y0073609D02*
X0085470Y0073609D01*
X0085470Y0073845D02*
X0091152Y0073845D01*
X0091152Y0074081D02*
X0085470Y0074081D01*
D13*
X0202287Y0092282D03*
X0202287Y0132282D03*
D14*
X0123847Y0101756D02*
X0117341Y0101756D01*
X0123847Y0101756D02*
X0123847Y0095250D01*
X0117341Y0095250D01*
X0117341Y0101756D01*
X0117341Y0095450D02*
X0123847Y0095450D01*
X0123847Y0095650D02*
X0117341Y0095650D01*
X0117341Y0095850D02*
X0123847Y0095850D01*
X0123847Y0096050D02*
X0117341Y0096050D01*
X0117341Y0096250D02*
X0123847Y0096250D01*
X0123847Y0096450D02*
X0117341Y0096450D01*
X0117341Y0096650D02*
X0123847Y0096650D01*
X0123847Y0096850D02*
X0117341Y0096850D01*
X0117341Y0097050D02*
X0123847Y0097050D01*
X0123847Y0097250D02*
X0117341Y0097250D01*
X0117341Y0097450D02*
X0123847Y0097450D01*
X0123847Y0097650D02*
X0117341Y0097650D01*
X0117341Y0097850D02*
X0123847Y0097850D01*
X0123847Y0098050D02*
X0117341Y0098050D01*
X0117341Y0098250D02*
X0123847Y0098250D01*
X0123847Y0098450D02*
X0117341Y0098450D01*
X0117341Y0098650D02*
X0123847Y0098650D01*
X0123847Y0098850D02*
X0117341Y0098850D01*
X0117341Y0099050D02*
X0123847Y0099050D01*
X0123847Y0099250D02*
X0117341Y0099250D01*
X0117341Y0099450D02*
X0123847Y0099450D01*
X0123847Y0099650D02*
X0117341Y0099650D01*
X0117341Y0099850D02*
X0123847Y0099850D01*
X0123847Y0100050D02*
X0117341Y0100050D01*
X0117341Y0100250D02*
X0123847Y0100250D01*
X0123847Y0100450D02*
X0117341Y0100450D01*
X0117341Y0100650D02*
X0123847Y0100650D01*
X0123847Y0100850D02*
X0117341Y0100850D01*
X0117341Y0101050D02*
X0123847Y0101050D01*
X0123847Y0101250D02*
X0117341Y0101250D01*
X0117341Y0101450D02*
X0123847Y0101450D01*
X0123847Y0101650D02*
X0117341Y0101650D01*
X0110068Y0101756D02*
X0103562Y0101756D01*
X0110068Y0101756D02*
X0110068Y0095250D01*
X0103562Y0095250D01*
X0103562Y0101756D01*
X0103562Y0095450D02*
X0110068Y0095450D01*
X0110068Y0095650D02*
X0103562Y0095650D01*
X0103562Y0095850D02*
X0110068Y0095850D01*
X0110068Y0096050D02*
X0103562Y0096050D01*
X0103562Y0096250D02*
X0110068Y0096250D01*
X0110068Y0096450D02*
X0103562Y0096450D01*
X0103562Y0096650D02*
X0110068Y0096650D01*
X0110068Y0096850D02*
X0103562Y0096850D01*
X0103562Y0097050D02*
X0110068Y0097050D01*
X0110068Y0097250D02*
X0103562Y0097250D01*
X0103562Y0097450D02*
X0110068Y0097450D01*
X0110068Y0097650D02*
X0103562Y0097650D01*
X0103562Y0097850D02*
X0110068Y0097850D01*
X0110068Y0098050D02*
X0103562Y0098050D01*
X0103562Y0098250D02*
X0110068Y0098250D01*
X0110068Y0098450D02*
X0103562Y0098450D01*
X0103562Y0098650D02*
X0110068Y0098650D01*
X0110068Y0098850D02*
X0103562Y0098850D01*
X0103562Y0099050D02*
X0110068Y0099050D01*
X0110068Y0099250D02*
X0103562Y0099250D01*
X0103562Y0099450D02*
X0110068Y0099450D01*
X0110068Y0099650D02*
X0103562Y0099650D01*
X0103562Y0099850D02*
X0110068Y0099850D01*
X0110068Y0100050D02*
X0103562Y0100050D01*
X0103562Y0100250D02*
X0110068Y0100250D01*
X0110068Y0100450D02*
X0103562Y0100450D01*
X0103562Y0100650D02*
X0110068Y0100650D01*
X0110068Y0100850D02*
X0103562Y0100850D01*
X0103562Y0101050D02*
X0110068Y0101050D01*
X0110068Y0101250D02*
X0103562Y0101250D01*
X0103562Y0101450D02*
X0110068Y0101450D01*
X0110068Y0101650D02*
X0103562Y0101650D01*
X0103562Y0087976D02*
X0110068Y0087976D01*
X0110068Y0081470D01*
X0103562Y0081470D01*
X0103562Y0087976D01*
X0103562Y0081670D02*
X0110068Y0081670D01*
X0110068Y0081870D02*
X0103562Y0081870D01*
X0103562Y0082070D02*
X0110068Y0082070D01*
X0110068Y0082270D02*
X0103562Y0082270D01*
X0103562Y0082470D02*
X0110068Y0082470D01*
X0110068Y0082670D02*
X0103562Y0082670D01*
X0103562Y0082870D02*
X0110068Y0082870D01*
X0110068Y0083070D02*
X0103562Y0083070D01*
X0103562Y0083270D02*
X0110068Y0083270D01*
X0110068Y0083470D02*
X0103562Y0083470D01*
X0103562Y0083670D02*
X0110068Y0083670D01*
X0110068Y0083870D02*
X0103562Y0083870D01*
X0103562Y0084070D02*
X0110068Y0084070D01*
X0110068Y0084270D02*
X0103562Y0084270D01*
X0103562Y0084470D02*
X0110068Y0084470D01*
X0110068Y0084670D02*
X0103562Y0084670D01*
X0103562Y0084870D02*
X0110068Y0084870D01*
X0110068Y0085070D02*
X0103562Y0085070D01*
X0103562Y0085270D02*
X0110068Y0085270D01*
X0110068Y0085470D02*
X0103562Y0085470D01*
X0103562Y0085670D02*
X0110068Y0085670D01*
X0110068Y0085870D02*
X0103562Y0085870D01*
X0103562Y0086070D02*
X0110068Y0086070D01*
X0110068Y0086270D02*
X0103562Y0086270D01*
X0103562Y0086470D02*
X0110068Y0086470D01*
X0110068Y0086670D02*
X0103562Y0086670D01*
X0103562Y0086870D02*
X0110068Y0086870D01*
X0110068Y0087070D02*
X0103562Y0087070D01*
X0103562Y0087270D02*
X0110068Y0087270D01*
X0110068Y0087470D02*
X0103562Y0087470D01*
X0103562Y0087670D02*
X0110068Y0087670D01*
X0110068Y0087870D02*
X0103562Y0087870D01*
X0117341Y0087976D02*
X0123847Y0087976D01*
X0123847Y0081470D01*
X0117341Y0081470D01*
X0117341Y0087976D01*
X0117341Y0081670D02*
X0123847Y0081670D01*
X0123847Y0081870D02*
X0117341Y0081870D01*
X0117341Y0082070D02*
X0123847Y0082070D01*
X0123847Y0082270D02*
X0117341Y0082270D01*
X0117341Y0082470D02*
X0123847Y0082470D01*
X0123847Y0082670D02*
X0117341Y0082670D01*
X0117341Y0082870D02*
X0123847Y0082870D01*
X0123847Y0083070D02*
X0117341Y0083070D01*
X0117341Y0083270D02*
X0123847Y0083270D01*
X0123847Y0083470D02*
X0117341Y0083470D01*
X0117341Y0083670D02*
X0123847Y0083670D01*
X0123847Y0083870D02*
X0117341Y0083870D01*
X0117341Y0084070D02*
X0123847Y0084070D01*
X0123847Y0084270D02*
X0117341Y0084270D01*
X0117341Y0084470D02*
X0123847Y0084470D01*
X0123847Y0084670D02*
X0117341Y0084670D01*
X0117341Y0084870D02*
X0123847Y0084870D01*
X0123847Y0085070D02*
X0117341Y0085070D01*
X0117341Y0085270D02*
X0123847Y0085270D01*
X0123847Y0085470D02*
X0117341Y0085470D01*
X0117341Y0085670D02*
X0123847Y0085670D01*
X0123847Y0085870D02*
X0117341Y0085870D01*
X0117341Y0086070D02*
X0123847Y0086070D01*
X0123847Y0086270D02*
X0117341Y0086270D01*
X0117341Y0086470D02*
X0123847Y0086470D01*
X0123847Y0086670D02*
X0117341Y0086670D01*
X0117341Y0086870D02*
X0123847Y0086870D01*
X0123847Y0087070D02*
X0117341Y0087070D01*
X0117341Y0087270D02*
X0123847Y0087270D01*
X0123847Y0087470D02*
X0117341Y0087470D01*
X0117341Y0087670D02*
X0123847Y0087670D01*
X0123847Y0087870D02*
X0117341Y0087870D01*
X0117341Y0074197D02*
X0123847Y0074197D01*
X0123847Y0067691D01*
X0117341Y0067691D01*
X0117341Y0074197D01*
X0117341Y0067891D02*
X0123847Y0067891D01*
X0123847Y0068091D02*
X0117341Y0068091D01*
X0117341Y0068291D02*
X0123847Y0068291D01*
X0123847Y0068491D02*
X0117341Y0068491D01*
X0117341Y0068691D02*
X0123847Y0068691D01*
X0123847Y0068891D02*
X0117341Y0068891D01*
X0117341Y0069091D02*
X0123847Y0069091D01*
X0123847Y0069291D02*
X0117341Y0069291D01*
X0117341Y0069491D02*
X0123847Y0069491D01*
X0123847Y0069691D02*
X0117341Y0069691D01*
X0117341Y0069891D02*
X0123847Y0069891D01*
X0123847Y0070091D02*
X0117341Y0070091D01*
X0117341Y0070291D02*
X0123847Y0070291D01*
X0123847Y0070491D02*
X0117341Y0070491D01*
X0117341Y0070691D02*
X0123847Y0070691D01*
X0123847Y0070891D02*
X0117341Y0070891D01*
X0117341Y0071091D02*
X0123847Y0071091D01*
X0123847Y0071291D02*
X0117341Y0071291D01*
X0117341Y0071491D02*
X0123847Y0071491D01*
X0123847Y0071691D02*
X0117341Y0071691D01*
X0117341Y0071891D02*
X0123847Y0071891D01*
X0123847Y0072091D02*
X0117341Y0072091D01*
X0117341Y0072291D02*
X0123847Y0072291D01*
X0123847Y0072491D02*
X0117341Y0072491D01*
X0117341Y0072691D02*
X0123847Y0072691D01*
X0123847Y0072891D02*
X0117341Y0072891D01*
X0117341Y0073091D02*
X0123847Y0073091D01*
X0123847Y0073291D02*
X0117341Y0073291D01*
X0117341Y0073491D02*
X0123847Y0073491D01*
X0123847Y0073691D02*
X0117341Y0073691D01*
X0117341Y0073891D02*
X0123847Y0073891D01*
X0123847Y0074091D02*
X0117341Y0074091D01*
X0110068Y0074197D02*
X0103562Y0074197D01*
X0110068Y0074197D02*
X0110068Y0067691D01*
X0103562Y0067691D01*
X0103562Y0074197D01*
X0103562Y0067891D02*
X0110068Y0067891D01*
X0110068Y0068091D02*
X0103562Y0068091D01*
X0103562Y0068291D02*
X0110068Y0068291D01*
X0110068Y0068491D02*
X0103562Y0068491D01*
X0103562Y0068691D02*
X0110068Y0068691D01*
X0110068Y0068891D02*
X0103562Y0068891D01*
X0103562Y0069091D02*
X0110068Y0069091D01*
X0110068Y0069291D02*
X0103562Y0069291D01*
X0103562Y0069491D02*
X0110068Y0069491D01*
X0110068Y0069691D02*
X0103562Y0069691D01*
X0103562Y0069891D02*
X0110068Y0069891D01*
X0110068Y0070091D02*
X0103562Y0070091D01*
X0103562Y0070291D02*
X0110068Y0070291D01*
X0110068Y0070491D02*
X0103562Y0070491D01*
X0103562Y0070691D02*
X0110068Y0070691D01*
X0110068Y0070891D02*
X0103562Y0070891D01*
X0103562Y0071091D02*
X0110068Y0071091D01*
X0110068Y0071291D02*
X0103562Y0071291D01*
X0103562Y0071491D02*
X0110068Y0071491D01*
X0110068Y0071691D02*
X0103562Y0071691D01*
X0103562Y0071891D02*
X0110068Y0071891D01*
X0110068Y0072091D02*
X0103562Y0072091D01*
X0103562Y0072291D02*
X0110068Y0072291D01*
X0110068Y0072491D02*
X0103562Y0072491D01*
X0103562Y0072691D02*
X0110068Y0072691D01*
X0110068Y0072891D02*
X0103562Y0072891D01*
X0103562Y0073091D02*
X0110068Y0073091D01*
X0110068Y0073291D02*
X0103562Y0073291D01*
X0103562Y0073491D02*
X0110068Y0073491D01*
X0110068Y0073691D02*
X0103562Y0073691D01*
X0103562Y0073891D02*
X0110068Y0073891D01*
X0110068Y0074091D02*
X0103562Y0074091D01*
D15*
X0043587Y0077479D03*
X0035713Y0077479D03*
X0034965Y0155589D03*
X0042839Y0155589D03*
D16*
X0087248Y0150708D03*
X0107248Y0150708D03*
D17*
X0028272Y0122519D03*
X0028272Y0116219D03*
X0028272Y0109920D03*
X0027878Y0101849D03*
X0018429Y0101849D03*
X0018035Y0113070D03*
X0018035Y0119369D03*
X0018429Y0130589D03*
X0027878Y0130589D03*
D18*
X0160987Y0121346D02*
X0160987Y0118218D01*
X0152459Y0118218D01*
X0152459Y0121346D01*
X0160987Y0121346D01*
X0160987Y0118489D02*
X0152459Y0118489D01*
X0152459Y0118760D02*
X0160987Y0118760D01*
X0160987Y0119031D02*
X0152459Y0119031D01*
X0152459Y0119302D02*
X0160987Y0119302D01*
X0160987Y0119573D02*
X0152459Y0119573D01*
X0152459Y0119844D02*
X0160987Y0119844D01*
X0160987Y0120115D02*
X0152459Y0120115D01*
X0152459Y0120386D02*
X0160987Y0120386D01*
X0160987Y0120657D02*
X0152459Y0120657D01*
X0152459Y0120928D02*
X0160987Y0120928D01*
X0160987Y0121199D02*
X0152459Y0121199D01*
X0160987Y0116346D02*
X0160987Y0113218D01*
X0152459Y0113218D01*
X0152459Y0116346D01*
X0160987Y0116346D01*
X0160987Y0113489D02*
X0152459Y0113489D01*
X0152459Y0113760D02*
X0160987Y0113760D01*
X0160987Y0114031D02*
X0152459Y0114031D01*
X0152459Y0114302D02*
X0160987Y0114302D01*
X0160987Y0114573D02*
X0152459Y0114573D01*
X0152459Y0114844D02*
X0160987Y0114844D01*
X0160987Y0115115D02*
X0152459Y0115115D01*
X0152459Y0115386D02*
X0160987Y0115386D01*
X0160987Y0115657D02*
X0152459Y0115657D01*
X0152459Y0115928D02*
X0160987Y0115928D01*
X0160987Y0116199D02*
X0152459Y0116199D01*
X0160987Y0111346D02*
X0160987Y0108218D01*
X0152459Y0108218D01*
X0152459Y0111346D01*
X0160987Y0111346D01*
X0160987Y0108489D02*
X0152459Y0108489D01*
X0152459Y0108760D02*
X0160987Y0108760D01*
X0160987Y0109031D02*
X0152459Y0109031D01*
X0152459Y0109302D02*
X0160987Y0109302D01*
X0160987Y0109573D02*
X0152459Y0109573D01*
X0152459Y0109844D02*
X0160987Y0109844D01*
X0160987Y0110115D02*
X0152459Y0110115D01*
X0152459Y0110386D02*
X0160987Y0110386D01*
X0160987Y0110657D02*
X0152459Y0110657D01*
X0152459Y0110928D02*
X0160987Y0110928D01*
X0160987Y0111199D02*
X0152459Y0111199D01*
X0160987Y0106346D02*
X0160987Y0103218D01*
X0152459Y0103218D01*
X0152459Y0106346D01*
X0160987Y0106346D01*
X0160987Y0103489D02*
X0152459Y0103489D01*
X0152459Y0103760D02*
X0160987Y0103760D01*
X0160987Y0104031D02*
X0152459Y0104031D01*
X0152459Y0104302D02*
X0160987Y0104302D01*
X0160987Y0104573D02*
X0152459Y0104573D01*
X0152459Y0104844D02*
X0160987Y0104844D01*
X0160987Y0105115D02*
X0152459Y0105115D01*
X0152459Y0105386D02*
X0160987Y0105386D01*
X0160987Y0105657D02*
X0152459Y0105657D01*
X0152459Y0105928D02*
X0160987Y0105928D01*
X0160987Y0106199D02*
X0152459Y0106199D01*
X0185187Y0106346D02*
X0185187Y0103218D01*
X0176659Y0103218D01*
X0176659Y0106346D01*
X0185187Y0106346D01*
X0185187Y0103489D02*
X0176659Y0103489D01*
X0176659Y0103760D02*
X0185187Y0103760D01*
X0185187Y0104031D02*
X0176659Y0104031D01*
X0176659Y0104302D02*
X0185187Y0104302D01*
X0185187Y0104573D02*
X0176659Y0104573D01*
X0176659Y0104844D02*
X0185187Y0104844D01*
X0185187Y0105115D02*
X0176659Y0105115D01*
X0176659Y0105386D02*
X0185187Y0105386D01*
X0185187Y0105657D02*
X0176659Y0105657D01*
X0176659Y0105928D02*
X0185187Y0105928D01*
X0185187Y0106199D02*
X0176659Y0106199D01*
X0185187Y0108218D02*
X0185187Y0111346D01*
X0185187Y0108218D02*
X0176659Y0108218D01*
X0176659Y0111346D01*
X0185187Y0111346D01*
X0185187Y0108489D02*
X0176659Y0108489D01*
X0176659Y0108760D02*
X0185187Y0108760D01*
X0185187Y0109031D02*
X0176659Y0109031D01*
X0176659Y0109302D02*
X0185187Y0109302D01*
X0185187Y0109573D02*
X0176659Y0109573D01*
X0176659Y0109844D02*
X0185187Y0109844D01*
X0185187Y0110115D02*
X0176659Y0110115D01*
X0176659Y0110386D02*
X0185187Y0110386D01*
X0185187Y0110657D02*
X0176659Y0110657D01*
X0176659Y0110928D02*
X0185187Y0110928D01*
X0185187Y0111199D02*
X0176659Y0111199D01*
X0185187Y0113218D02*
X0185187Y0116346D01*
X0185187Y0113218D02*
X0176659Y0113218D01*
X0176659Y0116346D01*
X0185187Y0116346D01*
X0185187Y0113489D02*
X0176659Y0113489D01*
X0176659Y0113760D02*
X0185187Y0113760D01*
X0185187Y0114031D02*
X0176659Y0114031D01*
X0176659Y0114302D02*
X0185187Y0114302D01*
X0185187Y0114573D02*
X0176659Y0114573D01*
X0176659Y0114844D02*
X0185187Y0114844D01*
X0185187Y0115115D02*
X0176659Y0115115D01*
X0176659Y0115386D02*
X0185187Y0115386D01*
X0185187Y0115657D02*
X0176659Y0115657D01*
X0176659Y0115928D02*
X0185187Y0115928D01*
X0185187Y0116199D02*
X0176659Y0116199D01*
X0185187Y0118218D02*
X0185187Y0121346D01*
X0185187Y0118218D02*
X0176659Y0118218D01*
X0176659Y0121346D01*
X0185187Y0121346D01*
X0185187Y0118489D02*
X0176659Y0118489D01*
X0176659Y0118760D02*
X0185187Y0118760D01*
X0185187Y0119031D02*
X0176659Y0119031D01*
X0176659Y0119302D02*
X0185187Y0119302D01*
X0185187Y0119573D02*
X0176659Y0119573D01*
X0176659Y0119844D02*
X0185187Y0119844D01*
X0185187Y0120115D02*
X0176659Y0120115D01*
X0176659Y0120386D02*
X0185187Y0120386D01*
X0185187Y0120657D02*
X0176659Y0120657D01*
X0176659Y0120928D02*
X0185187Y0120928D01*
X0185187Y0121199D02*
X0176659Y0121199D01*
D19*
X0156742Y0157103D02*
X0156742Y0161949D01*
X0165188Y0161949D01*
X0165188Y0157103D01*
X0156742Y0157103D01*
X0156742Y0157357D02*
X0165188Y0157357D01*
X0165188Y0157611D02*
X0156742Y0157611D01*
X0156742Y0157865D02*
X0165188Y0157865D01*
X0165188Y0158119D02*
X0156742Y0158119D01*
X0156742Y0158373D02*
X0165188Y0158373D01*
X0165188Y0158627D02*
X0156742Y0158627D01*
X0156742Y0158881D02*
X0165188Y0158881D01*
X0165188Y0159135D02*
X0156742Y0159135D01*
X0156742Y0159389D02*
X0165188Y0159389D01*
X0165188Y0159643D02*
X0156742Y0159643D01*
X0156742Y0159897D02*
X0165188Y0159897D01*
X0165188Y0160151D02*
X0156742Y0160151D01*
X0156742Y0160405D02*
X0165188Y0160405D01*
X0165188Y0160659D02*
X0156742Y0160659D01*
X0156742Y0160913D02*
X0165188Y0160913D01*
X0165188Y0161167D02*
X0156742Y0161167D01*
X0156742Y0161421D02*
X0165188Y0161421D01*
X0165188Y0161675D02*
X0156742Y0161675D01*
X0156742Y0161929D02*
X0165188Y0161929D01*
X0192142Y0161949D02*
X0192142Y0157103D01*
X0192142Y0161949D02*
X0200588Y0161949D01*
X0200588Y0157103D01*
X0192142Y0157103D01*
X0192142Y0157357D02*
X0200588Y0157357D01*
X0200588Y0157611D02*
X0192142Y0157611D01*
X0192142Y0157865D02*
X0200588Y0157865D01*
X0200588Y0158119D02*
X0192142Y0158119D01*
X0192142Y0158373D02*
X0200588Y0158373D01*
X0200588Y0158627D02*
X0192142Y0158627D01*
X0192142Y0158881D02*
X0200588Y0158881D01*
X0200588Y0159135D02*
X0192142Y0159135D01*
X0192142Y0159389D02*
X0200588Y0159389D01*
X0200588Y0159643D02*
X0192142Y0159643D01*
X0192142Y0159897D02*
X0200588Y0159897D01*
X0200588Y0160151D02*
X0192142Y0160151D01*
X0192142Y0160405D02*
X0200588Y0160405D01*
X0200588Y0160659D02*
X0192142Y0160659D01*
X0192142Y0160913D02*
X0200588Y0160913D01*
X0200588Y0161167D02*
X0192142Y0161167D01*
X0192142Y0161421D02*
X0200588Y0161421D01*
X0200588Y0161675D02*
X0192142Y0161675D01*
X0192142Y0161929D02*
X0200588Y0161929D01*
D20*
X0235752Y0127873D03*
X0235752Y0118030D03*
X0235752Y0110156D03*
X0235752Y0100314D03*
D21*
X0225516Y0088503D03*
X0225122Y0139684D03*
D22*
X0066461Y0111219D03*
D23*
X0066461Y0121219D03*
D24*
X0074335Y0151652D03*
X0125516Y0151652D03*
D25*
X0137327Y0163463D03*
X0174728Y0141810D03*
X0129453Y0118188D03*
X0125516Y0122125D03*
X0121579Y0126062D03*
X0113705Y0114251D03*
X0109768Y0108345D03*
X0088114Y0118188D03*
X0080240Y0122125D03*
X0100831Y0130353D03*
X0168823Y0082755D03*
X0137327Y0068975D03*
X0221972Y0114251D03*
M02*
