M48
;GenerationSoftware,Autodesk,EAGLE,9.6.2*%
;CreationDate,2022-04-28T19:58:11Z*%
FMAT,2
ICI,OFF
METRIC,TZ,000.00000
T5C0.30000
T4C0.35000
T3C0.90000
T2C1.00000
T1C1.30000
%
G90
M71
T1
X-4800000Y17250000
X-4800000Y16750000
T2
X-3427000Y14200000
X-3173000Y14200000
T3
X-5200000Y15080000
X-5200000Y15520000
T4
X-5425000Y14900000
X-5550000Y14900000
X-5550000Y15800000
X-5550000Y15700000
X-5425000Y15800000
X-5425000Y15700000
X-5000000Y15800000
X-5000000Y15700000
X-4875000Y15700000
X-4875000Y15800000
X-4825000Y17800000
X-4825000Y17675000
X-4700000Y17675000
X-4575000Y17675000
X-4450000Y17675000
X-4700000Y17800000
X-4575000Y17800000
X-4450000Y17800000
X-4825000Y16325000
X-4825000Y16200000
X-4700000Y16325000
X-4700000Y16200000
X-4575000Y16200000
X-4575000Y16325000
X-4450000Y16325000
X-4450000Y16200000
X-3600000Y13925000
X-3600000Y13775000
X-3400000Y13925000
X-3400000Y13775000
X-3200000Y13925000
X-3200000Y13775000
X-3600000Y13225000
X-3600000Y13075000
X-3400000Y13225000
X-3400000Y13075000
X-3200000Y13225000
X-3200000Y13075000
X-3650000Y17250000
X-3500000Y17250000
X-3375000Y17250000
X-3650000Y17000000
X-3500000Y17000000
X-3375000Y17000000
X-3250000Y17000000
X-3650000Y16750000
X-3500000Y16750000
X-3375000Y16750000
X-3200000Y16775000
X-3075000Y16775000
X-3200000Y17225000
X-3075000Y17225000
X-2725000Y17200000
X-2725000Y16800000
X-4450000Y15000000
X-4450000Y14850000
X-4250000Y15000000
X-4250000Y14850000
X-4050000Y14850000
X-4050000Y15000000
X-4000000Y14050000
X-4600000Y13925000
X-4400000Y13775000
X-4162500Y13775000
X-4000000Y13337500
X-4600000Y13225000
X-4400000Y13062500
X-4162500Y13075000
X-4162500Y14475000
X-4400000Y14462500
X-3600000Y16400000
X-3400000Y16400000
X-3200000Y16400000
X-3600000Y17600000
X-3400000Y17600000
X-3200000Y17600000
X-3000000Y17600000
X-3075000Y14950000
X-2650000Y15425000
X-5000000Y15125000
X-2550000Y12900000
X-2550000Y12800000
X-2550000Y13500000
X-2550000Y13600000
X-3225000Y14450000
X-3975000Y16125000
X-3775000Y16125000
X-4100000Y16700000
X-3900000Y17300000
X-4900000Y15125000
X-3645000Y15575000
X-3095000Y15350000
X-3425000Y15000000
X-4450000Y15300000
X-4450000Y15150000
X-4250000Y15300000
X-4250000Y15150000
X-4050000Y15300000
X-4050000Y15150000
X-3900000Y16700000
X-3590000Y17405000
X-3390000Y17405000
X-3200000Y17400000
X-3000000Y17400000
X-4412500Y17400000
X-4312500Y17400000
X-4512500Y17400000
X-4600000Y13800000
X-3600000Y13625000
X-3600000Y13475000
X-3400000Y13475000
X-3400000Y13625000
X-3200000Y13625000
X-3200000Y13475000
X-4600000Y13100000
X-3600000Y12925000
X-3600000Y12775000
X-3200000Y12775000
X-3200000Y12925000
X-3400000Y12925000
X-3400000Y12775000
X-4600000Y14500000
X-4950000Y15550000
X-3100000Y15830000
X-4450000Y15605000
X-4450000Y15455000
X-4250000Y15455000
X-4250000Y15605000
X-4050000Y15605000
X-4050000Y15455000
X-3125000Y15150000
X-3025000Y15150000
X-3600000Y16600000
X-3400000Y16600000
X-3200000Y16600000
X-3000000Y16600000
X-2600000Y17000000
X-2800000Y17600000
X-2625000Y17100000
X-2800000Y16600000
X-2625000Y16900000
X-3000000Y16400000
X-5500000Y13775000
X-3475000Y15750000
X-5500000Y14375000
X-3600000Y15800000
X-5500000Y13175000
X-3350000Y15700000
X-5000000Y14900000
X-5000000Y14800000
X-4875000Y14800000
X-4875000Y14900000
X-5550000Y14800000
X-5425000Y14800000
T5
X-3375000Y15250000
X-3475000Y15250000
X-3475000Y15350000
X-3375000Y15350000
M30