G75*
%MOIN*%
%OFA0B0*%
%FSLAX25Y25*%
%IPPOS*%
%LPD*%
%AMOC8*
5,1,8,0,0,1.08239X$1,22.5*
%
%ADD10C,0.00000*%
%ADD11C,0.00300*%
%ADD12C,0.00500*%
%ADD13C,0.00600*%
%ADD14C,0.00400*%
%ADD15R,0.02362X0.04331*%
%ADD16C,0.00800*%
D10*
X0065745Y0061101D02*
X0294091Y0061101D01*
X0294376Y0061104D01*
X0294662Y0061115D01*
X0294947Y0061132D01*
X0295231Y0061156D01*
X0295515Y0061187D01*
X0295798Y0061225D01*
X0296079Y0061270D01*
X0296360Y0061321D01*
X0296640Y0061379D01*
X0296918Y0061444D01*
X0297194Y0061516D01*
X0297468Y0061594D01*
X0297741Y0061679D01*
X0298011Y0061771D01*
X0298279Y0061869D01*
X0298545Y0061973D01*
X0298808Y0062084D01*
X0299068Y0062201D01*
X0299326Y0062324D01*
X0299580Y0062454D01*
X0299831Y0062590D01*
X0300079Y0062731D01*
X0300323Y0062879D01*
X0300564Y0063032D01*
X0300800Y0063192D01*
X0301033Y0063357D01*
X0301262Y0063527D01*
X0301487Y0063703D01*
X0301707Y0063885D01*
X0301923Y0064071D01*
X0302134Y0064263D01*
X0302341Y0064460D01*
X0302543Y0064662D01*
X0302740Y0064869D01*
X0302932Y0065080D01*
X0303118Y0065296D01*
X0303300Y0065516D01*
X0303476Y0065741D01*
X0303646Y0065970D01*
X0303811Y0066203D01*
X0303971Y0066439D01*
X0304124Y0066680D01*
X0304272Y0066924D01*
X0304413Y0067172D01*
X0304549Y0067423D01*
X0304679Y0067677D01*
X0304802Y0067935D01*
X0304919Y0068195D01*
X0305030Y0068458D01*
X0305134Y0068724D01*
X0305232Y0068992D01*
X0305324Y0069262D01*
X0305409Y0069535D01*
X0305487Y0069809D01*
X0305559Y0070085D01*
X0305624Y0070363D01*
X0305682Y0070643D01*
X0305733Y0070924D01*
X0305778Y0071205D01*
X0305816Y0071488D01*
X0305847Y0071772D01*
X0305871Y0072056D01*
X0305888Y0072341D01*
X0305899Y0072627D01*
X0305902Y0072912D01*
X0305902Y0159526D01*
X0305902Y0155589D02*
X0305902Y0076849D01*
X0288185Y0072912D02*
X0288187Y0073065D01*
X0288193Y0073219D01*
X0288203Y0073372D01*
X0288217Y0073524D01*
X0288235Y0073677D01*
X0288257Y0073828D01*
X0288282Y0073979D01*
X0288312Y0074130D01*
X0288346Y0074280D01*
X0288383Y0074428D01*
X0288424Y0074576D01*
X0288469Y0074722D01*
X0288518Y0074868D01*
X0288571Y0075012D01*
X0288627Y0075154D01*
X0288687Y0075295D01*
X0288751Y0075435D01*
X0288818Y0075573D01*
X0288889Y0075709D01*
X0288964Y0075843D01*
X0289041Y0075975D01*
X0289123Y0076105D01*
X0289207Y0076233D01*
X0289295Y0076359D01*
X0289386Y0076482D01*
X0289480Y0076603D01*
X0289578Y0076721D01*
X0289678Y0076837D01*
X0289782Y0076950D01*
X0289888Y0077061D01*
X0289997Y0077169D01*
X0290109Y0077274D01*
X0290223Y0077375D01*
X0290341Y0077474D01*
X0290460Y0077570D01*
X0290582Y0077663D01*
X0290707Y0077752D01*
X0290834Y0077839D01*
X0290963Y0077921D01*
X0291094Y0078001D01*
X0291227Y0078077D01*
X0291362Y0078150D01*
X0291499Y0078219D01*
X0291638Y0078284D01*
X0291778Y0078346D01*
X0291920Y0078404D01*
X0292063Y0078459D01*
X0292208Y0078510D01*
X0292354Y0078557D01*
X0292501Y0078600D01*
X0292649Y0078639D01*
X0292798Y0078675D01*
X0292948Y0078706D01*
X0293099Y0078734D01*
X0293250Y0078758D01*
X0293403Y0078778D01*
X0293555Y0078794D01*
X0293708Y0078806D01*
X0293861Y0078814D01*
X0294014Y0078818D01*
X0294168Y0078818D01*
X0294321Y0078814D01*
X0294474Y0078806D01*
X0294627Y0078794D01*
X0294779Y0078778D01*
X0294932Y0078758D01*
X0295083Y0078734D01*
X0295234Y0078706D01*
X0295384Y0078675D01*
X0295533Y0078639D01*
X0295681Y0078600D01*
X0295828Y0078557D01*
X0295974Y0078510D01*
X0296119Y0078459D01*
X0296262Y0078404D01*
X0296404Y0078346D01*
X0296544Y0078284D01*
X0296683Y0078219D01*
X0296820Y0078150D01*
X0296955Y0078077D01*
X0297088Y0078001D01*
X0297219Y0077921D01*
X0297348Y0077839D01*
X0297475Y0077752D01*
X0297600Y0077663D01*
X0297722Y0077570D01*
X0297841Y0077474D01*
X0297959Y0077375D01*
X0298073Y0077274D01*
X0298185Y0077169D01*
X0298294Y0077061D01*
X0298400Y0076950D01*
X0298504Y0076837D01*
X0298604Y0076721D01*
X0298702Y0076603D01*
X0298796Y0076482D01*
X0298887Y0076359D01*
X0298975Y0076233D01*
X0299059Y0076105D01*
X0299141Y0075975D01*
X0299218Y0075843D01*
X0299293Y0075709D01*
X0299364Y0075573D01*
X0299431Y0075435D01*
X0299495Y0075295D01*
X0299555Y0075154D01*
X0299611Y0075012D01*
X0299664Y0074868D01*
X0299713Y0074722D01*
X0299758Y0074576D01*
X0299799Y0074428D01*
X0299836Y0074280D01*
X0299870Y0074130D01*
X0299900Y0073979D01*
X0299925Y0073828D01*
X0299947Y0073677D01*
X0299965Y0073524D01*
X0299979Y0073372D01*
X0299989Y0073219D01*
X0299995Y0073065D01*
X0299997Y0072912D01*
X0299995Y0072759D01*
X0299989Y0072605D01*
X0299979Y0072452D01*
X0299965Y0072300D01*
X0299947Y0072147D01*
X0299925Y0071996D01*
X0299900Y0071845D01*
X0299870Y0071694D01*
X0299836Y0071544D01*
X0299799Y0071396D01*
X0299758Y0071248D01*
X0299713Y0071102D01*
X0299664Y0070956D01*
X0299611Y0070812D01*
X0299555Y0070670D01*
X0299495Y0070529D01*
X0299431Y0070389D01*
X0299364Y0070251D01*
X0299293Y0070115D01*
X0299218Y0069981D01*
X0299141Y0069849D01*
X0299059Y0069719D01*
X0298975Y0069591D01*
X0298887Y0069465D01*
X0298796Y0069342D01*
X0298702Y0069221D01*
X0298604Y0069103D01*
X0298504Y0068987D01*
X0298400Y0068874D01*
X0298294Y0068763D01*
X0298185Y0068655D01*
X0298073Y0068550D01*
X0297959Y0068449D01*
X0297841Y0068350D01*
X0297722Y0068254D01*
X0297600Y0068161D01*
X0297475Y0068072D01*
X0297348Y0067985D01*
X0297219Y0067903D01*
X0297088Y0067823D01*
X0296955Y0067747D01*
X0296820Y0067674D01*
X0296683Y0067605D01*
X0296544Y0067540D01*
X0296404Y0067478D01*
X0296262Y0067420D01*
X0296119Y0067365D01*
X0295974Y0067314D01*
X0295828Y0067267D01*
X0295681Y0067224D01*
X0295533Y0067185D01*
X0295384Y0067149D01*
X0295234Y0067118D01*
X0295083Y0067090D01*
X0294932Y0067066D01*
X0294779Y0067046D01*
X0294627Y0067030D01*
X0294474Y0067018D01*
X0294321Y0067010D01*
X0294168Y0067006D01*
X0294014Y0067006D01*
X0293861Y0067010D01*
X0293708Y0067018D01*
X0293555Y0067030D01*
X0293403Y0067046D01*
X0293250Y0067066D01*
X0293099Y0067090D01*
X0292948Y0067118D01*
X0292798Y0067149D01*
X0292649Y0067185D01*
X0292501Y0067224D01*
X0292354Y0067267D01*
X0292208Y0067314D01*
X0292063Y0067365D01*
X0291920Y0067420D01*
X0291778Y0067478D01*
X0291638Y0067540D01*
X0291499Y0067605D01*
X0291362Y0067674D01*
X0291227Y0067747D01*
X0291094Y0067823D01*
X0290963Y0067903D01*
X0290834Y0067985D01*
X0290707Y0068072D01*
X0290582Y0068161D01*
X0290460Y0068254D01*
X0290341Y0068350D01*
X0290223Y0068449D01*
X0290109Y0068550D01*
X0289997Y0068655D01*
X0289888Y0068763D01*
X0289782Y0068874D01*
X0289678Y0068987D01*
X0289578Y0069103D01*
X0289480Y0069221D01*
X0289386Y0069342D01*
X0289295Y0069465D01*
X0289207Y0069591D01*
X0289123Y0069719D01*
X0289041Y0069849D01*
X0288964Y0069981D01*
X0288889Y0070115D01*
X0288818Y0070251D01*
X0288751Y0070389D01*
X0288687Y0070529D01*
X0288627Y0070670D01*
X0288571Y0070812D01*
X0288518Y0070956D01*
X0288469Y0071102D01*
X0288424Y0071248D01*
X0288383Y0071396D01*
X0288346Y0071544D01*
X0288312Y0071694D01*
X0288282Y0071845D01*
X0288257Y0071996D01*
X0288235Y0072147D01*
X0288217Y0072300D01*
X0288203Y0072452D01*
X0288193Y0072605D01*
X0288187Y0072759D01*
X0288185Y0072912D01*
X0273421Y0088503D02*
X0273423Y0088637D01*
X0273429Y0088771D01*
X0273439Y0088905D01*
X0273453Y0089039D01*
X0273471Y0089172D01*
X0273492Y0089304D01*
X0273518Y0089436D01*
X0273548Y0089567D01*
X0273581Y0089697D01*
X0273618Y0089825D01*
X0273660Y0089953D01*
X0273704Y0090080D01*
X0273753Y0090205D01*
X0273805Y0090328D01*
X0273861Y0090450D01*
X0273921Y0090571D01*
X0273984Y0090689D01*
X0274050Y0090806D01*
X0274120Y0090920D01*
X0274193Y0091033D01*
X0274270Y0091143D01*
X0274350Y0091251D01*
X0274433Y0091356D01*
X0274519Y0091459D01*
X0274608Y0091559D01*
X0274700Y0091657D01*
X0274795Y0091752D01*
X0274893Y0091844D01*
X0274993Y0091933D01*
X0275096Y0092019D01*
X0275201Y0092102D01*
X0275309Y0092182D01*
X0275419Y0092259D01*
X0275532Y0092332D01*
X0275646Y0092402D01*
X0275763Y0092468D01*
X0275881Y0092531D01*
X0276002Y0092591D01*
X0276124Y0092647D01*
X0276247Y0092699D01*
X0276372Y0092748D01*
X0276499Y0092792D01*
X0276627Y0092834D01*
X0276755Y0092871D01*
X0276885Y0092904D01*
X0277016Y0092934D01*
X0277148Y0092960D01*
X0277280Y0092981D01*
X0277413Y0092999D01*
X0277547Y0093013D01*
X0277681Y0093023D01*
X0277815Y0093029D01*
X0277949Y0093031D01*
X0278083Y0093029D01*
X0278217Y0093023D01*
X0278351Y0093013D01*
X0278485Y0092999D01*
X0278618Y0092981D01*
X0278750Y0092960D01*
X0278882Y0092934D01*
X0279013Y0092904D01*
X0279143Y0092871D01*
X0279271Y0092834D01*
X0279399Y0092792D01*
X0279526Y0092748D01*
X0279651Y0092699D01*
X0279774Y0092647D01*
X0279896Y0092591D01*
X0280017Y0092531D01*
X0280135Y0092468D01*
X0280252Y0092402D01*
X0280366Y0092332D01*
X0280479Y0092259D01*
X0280589Y0092182D01*
X0280697Y0092102D01*
X0280802Y0092019D01*
X0280905Y0091933D01*
X0281005Y0091844D01*
X0281103Y0091752D01*
X0281198Y0091657D01*
X0281290Y0091559D01*
X0281379Y0091459D01*
X0281465Y0091356D01*
X0281548Y0091251D01*
X0281628Y0091143D01*
X0281705Y0091033D01*
X0281778Y0090920D01*
X0281848Y0090806D01*
X0281914Y0090689D01*
X0281977Y0090571D01*
X0282037Y0090450D01*
X0282093Y0090328D01*
X0282145Y0090205D01*
X0282194Y0090080D01*
X0282238Y0089953D01*
X0282280Y0089825D01*
X0282317Y0089697D01*
X0282350Y0089567D01*
X0282380Y0089436D01*
X0282406Y0089304D01*
X0282427Y0089172D01*
X0282445Y0089039D01*
X0282459Y0088905D01*
X0282469Y0088771D01*
X0282475Y0088637D01*
X0282477Y0088503D01*
X0282475Y0088369D01*
X0282469Y0088235D01*
X0282459Y0088101D01*
X0282445Y0087967D01*
X0282427Y0087834D01*
X0282406Y0087702D01*
X0282380Y0087570D01*
X0282350Y0087439D01*
X0282317Y0087309D01*
X0282280Y0087181D01*
X0282238Y0087053D01*
X0282194Y0086926D01*
X0282145Y0086801D01*
X0282093Y0086678D01*
X0282037Y0086556D01*
X0281977Y0086435D01*
X0281914Y0086317D01*
X0281848Y0086200D01*
X0281778Y0086086D01*
X0281705Y0085973D01*
X0281628Y0085863D01*
X0281548Y0085755D01*
X0281465Y0085650D01*
X0281379Y0085547D01*
X0281290Y0085447D01*
X0281198Y0085349D01*
X0281103Y0085254D01*
X0281005Y0085162D01*
X0280905Y0085073D01*
X0280802Y0084987D01*
X0280697Y0084904D01*
X0280589Y0084824D01*
X0280479Y0084747D01*
X0280366Y0084674D01*
X0280252Y0084604D01*
X0280135Y0084538D01*
X0280017Y0084475D01*
X0279896Y0084415D01*
X0279774Y0084359D01*
X0279651Y0084307D01*
X0279526Y0084258D01*
X0279399Y0084214D01*
X0279271Y0084172D01*
X0279143Y0084135D01*
X0279013Y0084102D01*
X0278882Y0084072D01*
X0278750Y0084046D01*
X0278618Y0084025D01*
X0278485Y0084007D01*
X0278351Y0083993D01*
X0278217Y0083983D01*
X0278083Y0083977D01*
X0277949Y0083975D01*
X0277815Y0083977D01*
X0277681Y0083983D01*
X0277547Y0083993D01*
X0277413Y0084007D01*
X0277280Y0084025D01*
X0277148Y0084046D01*
X0277016Y0084072D01*
X0276885Y0084102D01*
X0276755Y0084135D01*
X0276627Y0084172D01*
X0276499Y0084214D01*
X0276372Y0084258D01*
X0276247Y0084307D01*
X0276124Y0084359D01*
X0276002Y0084415D01*
X0275881Y0084475D01*
X0275763Y0084538D01*
X0275646Y0084604D01*
X0275532Y0084674D01*
X0275419Y0084747D01*
X0275309Y0084824D01*
X0275201Y0084904D01*
X0275096Y0084987D01*
X0274993Y0085073D01*
X0274893Y0085162D01*
X0274795Y0085254D01*
X0274700Y0085349D01*
X0274608Y0085447D01*
X0274519Y0085547D01*
X0274433Y0085650D01*
X0274350Y0085755D01*
X0274270Y0085863D01*
X0274193Y0085973D01*
X0274120Y0086086D01*
X0274050Y0086200D01*
X0273984Y0086317D01*
X0273921Y0086435D01*
X0273861Y0086556D01*
X0273805Y0086678D01*
X0273753Y0086801D01*
X0273704Y0086926D01*
X0273660Y0087053D01*
X0273618Y0087181D01*
X0273581Y0087309D01*
X0273548Y0087439D01*
X0273518Y0087570D01*
X0273492Y0087702D01*
X0273471Y0087834D01*
X0273453Y0087967D01*
X0273439Y0088101D01*
X0273429Y0088235D01*
X0273423Y0088369D01*
X0273421Y0088503D01*
X0273028Y0139684D02*
X0273030Y0139818D01*
X0273036Y0139952D01*
X0273046Y0140086D01*
X0273060Y0140220D01*
X0273078Y0140353D01*
X0273099Y0140485D01*
X0273125Y0140617D01*
X0273155Y0140748D01*
X0273188Y0140878D01*
X0273225Y0141006D01*
X0273267Y0141134D01*
X0273311Y0141261D01*
X0273360Y0141386D01*
X0273412Y0141509D01*
X0273468Y0141631D01*
X0273528Y0141752D01*
X0273591Y0141870D01*
X0273657Y0141987D01*
X0273727Y0142101D01*
X0273800Y0142214D01*
X0273877Y0142324D01*
X0273957Y0142432D01*
X0274040Y0142537D01*
X0274126Y0142640D01*
X0274215Y0142740D01*
X0274307Y0142838D01*
X0274402Y0142933D01*
X0274500Y0143025D01*
X0274600Y0143114D01*
X0274703Y0143200D01*
X0274808Y0143283D01*
X0274916Y0143363D01*
X0275026Y0143440D01*
X0275139Y0143513D01*
X0275253Y0143583D01*
X0275370Y0143649D01*
X0275488Y0143712D01*
X0275609Y0143772D01*
X0275731Y0143828D01*
X0275854Y0143880D01*
X0275979Y0143929D01*
X0276106Y0143973D01*
X0276234Y0144015D01*
X0276362Y0144052D01*
X0276492Y0144085D01*
X0276623Y0144115D01*
X0276755Y0144141D01*
X0276887Y0144162D01*
X0277020Y0144180D01*
X0277154Y0144194D01*
X0277288Y0144204D01*
X0277422Y0144210D01*
X0277556Y0144212D01*
X0277690Y0144210D01*
X0277824Y0144204D01*
X0277958Y0144194D01*
X0278092Y0144180D01*
X0278225Y0144162D01*
X0278357Y0144141D01*
X0278489Y0144115D01*
X0278620Y0144085D01*
X0278750Y0144052D01*
X0278878Y0144015D01*
X0279006Y0143973D01*
X0279133Y0143929D01*
X0279258Y0143880D01*
X0279381Y0143828D01*
X0279503Y0143772D01*
X0279624Y0143712D01*
X0279742Y0143649D01*
X0279859Y0143583D01*
X0279973Y0143513D01*
X0280086Y0143440D01*
X0280196Y0143363D01*
X0280304Y0143283D01*
X0280409Y0143200D01*
X0280512Y0143114D01*
X0280612Y0143025D01*
X0280710Y0142933D01*
X0280805Y0142838D01*
X0280897Y0142740D01*
X0280986Y0142640D01*
X0281072Y0142537D01*
X0281155Y0142432D01*
X0281235Y0142324D01*
X0281312Y0142214D01*
X0281385Y0142101D01*
X0281455Y0141987D01*
X0281521Y0141870D01*
X0281584Y0141752D01*
X0281644Y0141631D01*
X0281700Y0141509D01*
X0281752Y0141386D01*
X0281801Y0141261D01*
X0281845Y0141134D01*
X0281887Y0141006D01*
X0281924Y0140878D01*
X0281957Y0140748D01*
X0281987Y0140617D01*
X0282013Y0140485D01*
X0282034Y0140353D01*
X0282052Y0140220D01*
X0282066Y0140086D01*
X0282076Y0139952D01*
X0282082Y0139818D01*
X0282084Y0139684D01*
X0282082Y0139550D01*
X0282076Y0139416D01*
X0282066Y0139282D01*
X0282052Y0139148D01*
X0282034Y0139015D01*
X0282013Y0138883D01*
X0281987Y0138751D01*
X0281957Y0138620D01*
X0281924Y0138490D01*
X0281887Y0138362D01*
X0281845Y0138234D01*
X0281801Y0138107D01*
X0281752Y0137982D01*
X0281700Y0137859D01*
X0281644Y0137737D01*
X0281584Y0137616D01*
X0281521Y0137498D01*
X0281455Y0137381D01*
X0281385Y0137267D01*
X0281312Y0137154D01*
X0281235Y0137044D01*
X0281155Y0136936D01*
X0281072Y0136831D01*
X0280986Y0136728D01*
X0280897Y0136628D01*
X0280805Y0136530D01*
X0280710Y0136435D01*
X0280612Y0136343D01*
X0280512Y0136254D01*
X0280409Y0136168D01*
X0280304Y0136085D01*
X0280196Y0136005D01*
X0280086Y0135928D01*
X0279973Y0135855D01*
X0279859Y0135785D01*
X0279742Y0135719D01*
X0279624Y0135656D01*
X0279503Y0135596D01*
X0279381Y0135540D01*
X0279258Y0135488D01*
X0279133Y0135439D01*
X0279006Y0135395D01*
X0278878Y0135353D01*
X0278750Y0135316D01*
X0278620Y0135283D01*
X0278489Y0135253D01*
X0278357Y0135227D01*
X0278225Y0135206D01*
X0278092Y0135188D01*
X0277958Y0135174D01*
X0277824Y0135164D01*
X0277690Y0135158D01*
X0277556Y0135156D01*
X0277422Y0135158D01*
X0277288Y0135164D01*
X0277154Y0135174D01*
X0277020Y0135188D01*
X0276887Y0135206D01*
X0276755Y0135227D01*
X0276623Y0135253D01*
X0276492Y0135283D01*
X0276362Y0135316D01*
X0276234Y0135353D01*
X0276106Y0135395D01*
X0275979Y0135439D01*
X0275854Y0135488D01*
X0275731Y0135540D01*
X0275609Y0135596D01*
X0275488Y0135656D01*
X0275370Y0135719D01*
X0275253Y0135785D01*
X0275139Y0135855D01*
X0275026Y0135928D01*
X0274916Y0136005D01*
X0274808Y0136085D01*
X0274703Y0136168D01*
X0274600Y0136254D01*
X0274500Y0136343D01*
X0274402Y0136435D01*
X0274307Y0136530D01*
X0274215Y0136628D01*
X0274126Y0136728D01*
X0274040Y0136831D01*
X0273957Y0136936D01*
X0273877Y0137044D01*
X0273800Y0137154D01*
X0273727Y0137267D01*
X0273657Y0137381D01*
X0273591Y0137498D01*
X0273528Y0137616D01*
X0273468Y0137737D01*
X0273412Y0137859D01*
X0273360Y0137982D01*
X0273311Y0138107D01*
X0273267Y0138234D01*
X0273225Y0138362D01*
X0273188Y0138490D01*
X0273155Y0138620D01*
X0273125Y0138751D01*
X0273099Y0138883D01*
X0273078Y0139015D01*
X0273060Y0139148D01*
X0273046Y0139282D01*
X0273036Y0139416D01*
X0273030Y0139550D01*
X0273028Y0139684D01*
X0294091Y0171337D02*
X0294376Y0171334D01*
X0294662Y0171323D01*
X0294947Y0171306D01*
X0295231Y0171282D01*
X0295515Y0171251D01*
X0295798Y0171213D01*
X0296079Y0171168D01*
X0296360Y0171117D01*
X0296640Y0171059D01*
X0296918Y0170994D01*
X0297194Y0170922D01*
X0297468Y0170844D01*
X0297741Y0170759D01*
X0298011Y0170667D01*
X0298279Y0170569D01*
X0298545Y0170465D01*
X0298808Y0170354D01*
X0299068Y0170237D01*
X0299326Y0170114D01*
X0299580Y0169984D01*
X0299831Y0169848D01*
X0300079Y0169707D01*
X0300323Y0169559D01*
X0300564Y0169406D01*
X0300800Y0169246D01*
X0301033Y0169081D01*
X0301262Y0168911D01*
X0301487Y0168735D01*
X0301707Y0168553D01*
X0301923Y0168367D01*
X0302134Y0168175D01*
X0302341Y0167978D01*
X0302543Y0167776D01*
X0302740Y0167569D01*
X0302932Y0167358D01*
X0303118Y0167142D01*
X0303300Y0166922D01*
X0303476Y0166697D01*
X0303646Y0166468D01*
X0303811Y0166235D01*
X0303971Y0165999D01*
X0304124Y0165758D01*
X0304272Y0165514D01*
X0304413Y0165266D01*
X0304549Y0165015D01*
X0304679Y0164761D01*
X0304802Y0164503D01*
X0304919Y0164243D01*
X0305030Y0163980D01*
X0305134Y0163714D01*
X0305232Y0163446D01*
X0305324Y0163176D01*
X0305409Y0162903D01*
X0305487Y0162629D01*
X0305559Y0162353D01*
X0305624Y0162075D01*
X0305682Y0161795D01*
X0305733Y0161514D01*
X0305778Y0161233D01*
X0305816Y0160950D01*
X0305847Y0160666D01*
X0305871Y0160382D01*
X0305888Y0160097D01*
X0305899Y0159811D01*
X0305902Y0159526D01*
X0288185Y0159526D02*
X0288187Y0159679D01*
X0288193Y0159833D01*
X0288203Y0159986D01*
X0288217Y0160138D01*
X0288235Y0160291D01*
X0288257Y0160442D01*
X0288282Y0160593D01*
X0288312Y0160744D01*
X0288346Y0160894D01*
X0288383Y0161042D01*
X0288424Y0161190D01*
X0288469Y0161336D01*
X0288518Y0161482D01*
X0288571Y0161626D01*
X0288627Y0161768D01*
X0288687Y0161909D01*
X0288751Y0162049D01*
X0288818Y0162187D01*
X0288889Y0162323D01*
X0288964Y0162457D01*
X0289041Y0162589D01*
X0289123Y0162719D01*
X0289207Y0162847D01*
X0289295Y0162973D01*
X0289386Y0163096D01*
X0289480Y0163217D01*
X0289578Y0163335D01*
X0289678Y0163451D01*
X0289782Y0163564D01*
X0289888Y0163675D01*
X0289997Y0163783D01*
X0290109Y0163888D01*
X0290223Y0163989D01*
X0290341Y0164088D01*
X0290460Y0164184D01*
X0290582Y0164277D01*
X0290707Y0164366D01*
X0290834Y0164453D01*
X0290963Y0164535D01*
X0291094Y0164615D01*
X0291227Y0164691D01*
X0291362Y0164764D01*
X0291499Y0164833D01*
X0291638Y0164898D01*
X0291778Y0164960D01*
X0291920Y0165018D01*
X0292063Y0165073D01*
X0292208Y0165124D01*
X0292354Y0165171D01*
X0292501Y0165214D01*
X0292649Y0165253D01*
X0292798Y0165289D01*
X0292948Y0165320D01*
X0293099Y0165348D01*
X0293250Y0165372D01*
X0293403Y0165392D01*
X0293555Y0165408D01*
X0293708Y0165420D01*
X0293861Y0165428D01*
X0294014Y0165432D01*
X0294168Y0165432D01*
X0294321Y0165428D01*
X0294474Y0165420D01*
X0294627Y0165408D01*
X0294779Y0165392D01*
X0294932Y0165372D01*
X0295083Y0165348D01*
X0295234Y0165320D01*
X0295384Y0165289D01*
X0295533Y0165253D01*
X0295681Y0165214D01*
X0295828Y0165171D01*
X0295974Y0165124D01*
X0296119Y0165073D01*
X0296262Y0165018D01*
X0296404Y0164960D01*
X0296544Y0164898D01*
X0296683Y0164833D01*
X0296820Y0164764D01*
X0296955Y0164691D01*
X0297088Y0164615D01*
X0297219Y0164535D01*
X0297348Y0164453D01*
X0297475Y0164366D01*
X0297600Y0164277D01*
X0297722Y0164184D01*
X0297841Y0164088D01*
X0297959Y0163989D01*
X0298073Y0163888D01*
X0298185Y0163783D01*
X0298294Y0163675D01*
X0298400Y0163564D01*
X0298504Y0163451D01*
X0298604Y0163335D01*
X0298702Y0163217D01*
X0298796Y0163096D01*
X0298887Y0162973D01*
X0298975Y0162847D01*
X0299059Y0162719D01*
X0299141Y0162589D01*
X0299218Y0162457D01*
X0299293Y0162323D01*
X0299364Y0162187D01*
X0299431Y0162049D01*
X0299495Y0161909D01*
X0299555Y0161768D01*
X0299611Y0161626D01*
X0299664Y0161482D01*
X0299713Y0161336D01*
X0299758Y0161190D01*
X0299799Y0161042D01*
X0299836Y0160894D01*
X0299870Y0160744D01*
X0299900Y0160593D01*
X0299925Y0160442D01*
X0299947Y0160291D01*
X0299965Y0160138D01*
X0299979Y0159986D01*
X0299989Y0159833D01*
X0299995Y0159679D01*
X0299997Y0159526D01*
X0299995Y0159373D01*
X0299989Y0159219D01*
X0299979Y0159066D01*
X0299965Y0158914D01*
X0299947Y0158761D01*
X0299925Y0158610D01*
X0299900Y0158459D01*
X0299870Y0158308D01*
X0299836Y0158158D01*
X0299799Y0158010D01*
X0299758Y0157862D01*
X0299713Y0157716D01*
X0299664Y0157570D01*
X0299611Y0157426D01*
X0299555Y0157284D01*
X0299495Y0157143D01*
X0299431Y0157003D01*
X0299364Y0156865D01*
X0299293Y0156729D01*
X0299218Y0156595D01*
X0299141Y0156463D01*
X0299059Y0156333D01*
X0298975Y0156205D01*
X0298887Y0156079D01*
X0298796Y0155956D01*
X0298702Y0155835D01*
X0298604Y0155717D01*
X0298504Y0155601D01*
X0298400Y0155488D01*
X0298294Y0155377D01*
X0298185Y0155269D01*
X0298073Y0155164D01*
X0297959Y0155063D01*
X0297841Y0154964D01*
X0297722Y0154868D01*
X0297600Y0154775D01*
X0297475Y0154686D01*
X0297348Y0154599D01*
X0297219Y0154517D01*
X0297088Y0154437D01*
X0296955Y0154361D01*
X0296820Y0154288D01*
X0296683Y0154219D01*
X0296544Y0154154D01*
X0296404Y0154092D01*
X0296262Y0154034D01*
X0296119Y0153979D01*
X0295974Y0153928D01*
X0295828Y0153881D01*
X0295681Y0153838D01*
X0295533Y0153799D01*
X0295384Y0153763D01*
X0295234Y0153732D01*
X0295083Y0153704D01*
X0294932Y0153680D01*
X0294779Y0153660D01*
X0294627Y0153644D01*
X0294474Y0153632D01*
X0294321Y0153624D01*
X0294168Y0153620D01*
X0294014Y0153620D01*
X0293861Y0153624D01*
X0293708Y0153632D01*
X0293555Y0153644D01*
X0293403Y0153660D01*
X0293250Y0153680D01*
X0293099Y0153704D01*
X0292948Y0153732D01*
X0292798Y0153763D01*
X0292649Y0153799D01*
X0292501Y0153838D01*
X0292354Y0153881D01*
X0292208Y0153928D01*
X0292063Y0153979D01*
X0291920Y0154034D01*
X0291778Y0154092D01*
X0291638Y0154154D01*
X0291499Y0154219D01*
X0291362Y0154288D01*
X0291227Y0154361D01*
X0291094Y0154437D01*
X0290963Y0154517D01*
X0290834Y0154599D01*
X0290707Y0154686D01*
X0290582Y0154775D01*
X0290460Y0154868D01*
X0290341Y0154964D01*
X0290223Y0155063D01*
X0290109Y0155164D01*
X0289997Y0155269D01*
X0289888Y0155377D01*
X0289782Y0155488D01*
X0289678Y0155601D01*
X0289578Y0155717D01*
X0289480Y0155835D01*
X0289386Y0155956D01*
X0289295Y0156079D01*
X0289207Y0156205D01*
X0289123Y0156333D01*
X0289041Y0156463D01*
X0288964Y0156595D01*
X0288889Y0156729D01*
X0288818Y0156865D01*
X0288751Y0157003D01*
X0288687Y0157143D01*
X0288627Y0157284D01*
X0288571Y0157426D01*
X0288518Y0157570D01*
X0288469Y0157716D01*
X0288424Y0157862D01*
X0288383Y0158010D01*
X0288346Y0158158D01*
X0288312Y0158308D01*
X0288282Y0158459D01*
X0288257Y0158610D01*
X0288235Y0158761D01*
X0288217Y0158914D01*
X0288203Y0159066D01*
X0288193Y0159219D01*
X0288187Y0159373D01*
X0288185Y0159526D01*
X0294091Y0171337D02*
X0065745Y0171337D01*
X0065460Y0171334D01*
X0065174Y0171323D01*
X0064889Y0171306D01*
X0064605Y0171282D01*
X0064321Y0171251D01*
X0064038Y0171213D01*
X0063757Y0171168D01*
X0063476Y0171117D01*
X0063196Y0171059D01*
X0062918Y0170994D01*
X0062642Y0170922D01*
X0062368Y0170844D01*
X0062095Y0170759D01*
X0061825Y0170667D01*
X0061557Y0170569D01*
X0061291Y0170465D01*
X0061028Y0170354D01*
X0060768Y0170237D01*
X0060510Y0170114D01*
X0060256Y0169984D01*
X0060005Y0169848D01*
X0059757Y0169707D01*
X0059513Y0169559D01*
X0059272Y0169406D01*
X0059036Y0169246D01*
X0058803Y0169081D01*
X0058574Y0168911D01*
X0058349Y0168735D01*
X0058129Y0168553D01*
X0057913Y0168367D01*
X0057702Y0168175D01*
X0057495Y0167978D01*
X0057293Y0167776D01*
X0057096Y0167569D01*
X0056904Y0167358D01*
X0056718Y0167142D01*
X0056536Y0166922D01*
X0056360Y0166697D01*
X0056190Y0166468D01*
X0056025Y0166235D01*
X0055865Y0165999D01*
X0055712Y0165758D01*
X0055564Y0165514D01*
X0055423Y0165266D01*
X0055287Y0165015D01*
X0055157Y0164761D01*
X0055034Y0164503D01*
X0054917Y0164243D01*
X0054806Y0163980D01*
X0054702Y0163714D01*
X0054604Y0163446D01*
X0054512Y0163176D01*
X0054427Y0162903D01*
X0054349Y0162629D01*
X0054277Y0162353D01*
X0054212Y0162075D01*
X0054154Y0161795D01*
X0054103Y0161514D01*
X0054058Y0161233D01*
X0054020Y0160950D01*
X0053989Y0160666D01*
X0053965Y0160382D01*
X0053948Y0160097D01*
X0053937Y0159811D01*
X0053934Y0159526D01*
X0053934Y0072912D01*
X0053937Y0072627D01*
X0053948Y0072341D01*
X0053965Y0072056D01*
X0053989Y0071772D01*
X0054020Y0071488D01*
X0054058Y0071205D01*
X0054103Y0070924D01*
X0054154Y0070643D01*
X0054212Y0070363D01*
X0054277Y0070085D01*
X0054349Y0069809D01*
X0054427Y0069535D01*
X0054512Y0069262D01*
X0054604Y0068992D01*
X0054702Y0068724D01*
X0054806Y0068458D01*
X0054917Y0068195D01*
X0055034Y0067935D01*
X0055157Y0067677D01*
X0055287Y0067423D01*
X0055423Y0067172D01*
X0055564Y0066924D01*
X0055712Y0066680D01*
X0055865Y0066439D01*
X0056025Y0066203D01*
X0056190Y0065970D01*
X0056360Y0065741D01*
X0056536Y0065516D01*
X0056718Y0065296D01*
X0056904Y0065080D01*
X0057096Y0064869D01*
X0057293Y0064662D01*
X0057495Y0064460D01*
X0057702Y0064263D01*
X0057913Y0064071D01*
X0058129Y0063885D01*
X0058349Y0063703D01*
X0058574Y0063527D01*
X0058803Y0063357D01*
X0059036Y0063192D01*
X0059272Y0063032D01*
X0059513Y0062879D01*
X0059757Y0062731D01*
X0060005Y0062590D01*
X0060256Y0062454D01*
X0060510Y0062324D01*
X0060768Y0062201D01*
X0061028Y0062084D01*
X0061291Y0061973D01*
X0061557Y0061869D01*
X0061825Y0061771D01*
X0062095Y0061679D01*
X0062368Y0061594D01*
X0062642Y0061516D01*
X0062918Y0061444D01*
X0063196Y0061379D01*
X0063476Y0061321D01*
X0063757Y0061270D01*
X0064038Y0061225D01*
X0064321Y0061187D01*
X0064605Y0061156D01*
X0064889Y0061132D01*
X0065174Y0061115D01*
X0065460Y0061104D01*
X0065745Y0061101D01*
X0059839Y0072912D02*
X0059841Y0073065D01*
X0059847Y0073219D01*
X0059857Y0073372D01*
X0059871Y0073524D01*
X0059889Y0073677D01*
X0059911Y0073828D01*
X0059936Y0073979D01*
X0059966Y0074130D01*
X0060000Y0074280D01*
X0060037Y0074428D01*
X0060078Y0074576D01*
X0060123Y0074722D01*
X0060172Y0074868D01*
X0060225Y0075012D01*
X0060281Y0075154D01*
X0060341Y0075295D01*
X0060405Y0075435D01*
X0060472Y0075573D01*
X0060543Y0075709D01*
X0060618Y0075843D01*
X0060695Y0075975D01*
X0060777Y0076105D01*
X0060861Y0076233D01*
X0060949Y0076359D01*
X0061040Y0076482D01*
X0061134Y0076603D01*
X0061232Y0076721D01*
X0061332Y0076837D01*
X0061436Y0076950D01*
X0061542Y0077061D01*
X0061651Y0077169D01*
X0061763Y0077274D01*
X0061877Y0077375D01*
X0061995Y0077474D01*
X0062114Y0077570D01*
X0062236Y0077663D01*
X0062361Y0077752D01*
X0062488Y0077839D01*
X0062617Y0077921D01*
X0062748Y0078001D01*
X0062881Y0078077D01*
X0063016Y0078150D01*
X0063153Y0078219D01*
X0063292Y0078284D01*
X0063432Y0078346D01*
X0063574Y0078404D01*
X0063717Y0078459D01*
X0063862Y0078510D01*
X0064008Y0078557D01*
X0064155Y0078600D01*
X0064303Y0078639D01*
X0064452Y0078675D01*
X0064602Y0078706D01*
X0064753Y0078734D01*
X0064904Y0078758D01*
X0065057Y0078778D01*
X0065209Y0078794D01*
X0065362Y0078806D01*
X0065515Y0078814D01*
X0065668Y0078818D01*
X0065822Y0078818D01*
X0065975Y0078814D01*
X0066128Y0078806D01*
X0066281Y0078794D01*
X0066433Y0078778D01*
X0066586Y0078758D01*
X0066737Y0078734D01*
X0066888Y0078706D01*
X0067038Y0078675D01*
X0067187Y0078639D01*
X0067335Y0078600D01*
X0067482Y0078557D01*
X0067628Y0078510D01*
X0067773Y0078459D01*
X0067916Y0078404D01*
X0068058Y0078346D01*
X0068198Y0078284D01*
X0068337Y0078219D01*
X0068474Y0078150D01*
X0068609Y0078077D01*
X0068742Y0078001D01*
X0068873Y0077921D01*
X0069002Y0077839D01*
X0069129Y0077752D01*
X0069254Y0077663D01*
X0069376Y0077570D01*
X0069495Y0077474D01*
X0069613Y0077375D01*
X0069727Y0077274D01*
X0069839Y0077169D01*
X0069948Y0077061D01*
X0070054Y0076950D01*
X0070158Y0076837D01*
X0070258Y0076721D01*
X0070356Y0076603D01*
X0070450Y0076482D01*
X0070541Y0076359D01*
X0070629Y0076233D01*
X0070713Y0076105D01*
X0070795Y0075975D01*
X0070872Y0075843D01*
X0070947Y0075709D01*
X0071018Y0075573D01*
X0071085Y0075435D01*
X0071149Y0075295D01*
X0071209Y0075154D01*
X0071265Y0075012D01*
X0071318Y0074868D01*
X0071367Y0074722D01*
X0071412Y0074576D01*
X0071453Y0074428D01*
X0071490Y0074280D01*
X0071524Y0074130D01*
X0071554Y0073979D01*
X0071579Y0073828D01*
X0071601Y0073677D01*
X0071619Y0073524D01*
X0071633Y0073372D01*
X0071643Y0073219D01*
X0071649Y0073065D01*
X0071651Y0072912D01*
X0071649Y0072759D01*
X0071643Y0072605D01*
X0071633Y0072452D01*
X0071619Y0072300D01*
X0071601Y0072147D01*
X0071579Y0071996D01*
X0071554Y0071845D01*
X0071524Y0071694D01*
X0071490Y0071544D01*
X0071453Y0071396D01*
X0071412Y0071248D01*
X0071367Y0071102D01*
X0071318Y0070956D01*
X0071265Y0070812D01*
X0071209Y0070670D01*
X0071149Y0070529D01*
X0071085Y0070389D01*
X0071018Y0070251D01*
X0070947Y0070115D01*
X0070872Y0069981D01*
X0070795Y0069849D01*
X0070713Y0069719D01*
X0070629Y0069591D01*
X0070541Y0069465D01*
X0070450Y0069342D01*
X0070356Y0069221D01*
X0070258Y0069103D01*
X0070158Y0068987D01*
X0070054Y0068874D01*
X0069948Y0068763D01*
X0069839Y0068655D01*
X0069727Y0068550D01*
X0069613Y0068449D01*
X0069495Y0068350D01*
X0069376Y0068254D01*
X0069254Y0068161D01*
X0069129Y0068072D01*
X0069002Y0067985D01*
X0068873Y0067903D01*
X0068742Y0067823D01*
X0068609Y0067747D01*
X0068474Y0067674D01*
X0068337Y0067605D01*
X0068198Y0067540D01*
X0068058Y0067478D01*
X0067916Y0067420D01*
X0067773Y0067365D01*
X0067628Y0067314D01*
X0067482Y0067267D01*
X0067335Y0067224D01*
X0067187Y0067185D01*
X0067038Y0067149D01*
X0066888Y0067118D01*
X0066737Y0067090D01*
X0066586Y0067066D01*
X0066433Y0067046D01*
X0066281Y0067030D01*
X0066128Y0067018D01*
X0065975Y0067010D01*
X0065822Y0067006D01*
X0065668Y0067006D01*
X0065515Y0067010D01*
X0065362Y0067018D01*
X0065209Y0067030D01*
X0065057Y0067046D01*
X0064904Y0067066D01*
X0064753Y0067090D01*
X0064602Y0067118D01*
X0064452Y0067149D01*
X0064303Y0067185D01*
X0064155Y0067224D01*
X0064008Y0067267D01*
X0063862Y0067314D01*
X0063717Y0067365D01*
X0063574Y0067420D01*
X0063432Y0067478D01*
X0063292Y0067540D01*
X0063153Y0067605D01*
X0063016Y0067674D01*
X0062881Y0067747D01*
X0062748Y0067823D01*
X0062617Y0067903D01*
X0062488Y0067985D01*
X0062361Y0068072D01*
X0062236Y0068161D01*
X0062114Y0068254D01*
X0061995Y0068350D01*
X0061877Y0068449D01*
X0061763Y0068550D01*
X0061651Y0068655D01*
X0061542Y0068763D01*
X0061436Y0068874D01*
X0061332Y0068987D01*
X0061232Y0069103D01*
X0061134Y0069221D01*
X0061040Y0069342D01*
X0060949Y0069465D01*
X0060861Y0069591D01*
X0060777Y0069719D01*
X0060695Y0069849D01*
X0060618Y0069981D01*
X0060543Y0070115D01*
X0060472Y0070251D01*
X0060405Y0070389D01*
X0060341Y0070529D01*
X0060281Y0070670D01*
X0060225Y0070812D01*
X0060172Y0070956D01*
X0060123Y0071102D01*
X0060078Y0071248D01*
X0060037Y0071396D01*
X0060000Y0071544D01*
X0059966Y0071694D01*
X0059936Y0071845D01*
X0059911Y0071996D01*
X0059889Y0072147D01*
X0059871Y0072300D01*
X0059857Y0072452D01*
X0059847Y0072605D01*
X0059841Y0072759D01*
X0059839Y0072912D01*
X0059839Y0159526D02*
X0059841Y0159679D01*
X0059847Y0159833D01*
X0059857Y0159986D01*
X0059871Y0160138D01*
X0059889Y0160291D01*
X0059911Y0160442D01*
X0059936Y0160593D01*
X0059966Y0160744D01*
X0060000Y0160894D01*
X0060037Y0161042D01*
X0060078Y0161190D01*
X0060123Y0161336D01*
X0060172Y0161482D01*
X0060225Y0161626D01*
X0060281Y0161768D01*
X0060341Y0161909D01*
X0060405Y0162049D01*
X0060472Y0162187D01*
X0060543Y0162323D01*
X0060618Y0162457D01*
X0060695Y0162589D01*
X0060777Y0162719D01*
X0060861Y0162847D01*
X0060949Y0162973D01*
X0061040Y0163096D01*
X0061134Y0163217D01*
X0061232Y0163335D01*
X0061332Y0163451D01*
X0061436Y0163564D01*
X0061542Y0163675D01*
X0061651Y0163783D01*
X0061763Y0163888D01*
X0061877Y0163989D01*
X0061995Y0164088D01*
X0062114Y0164184D01*
X0062236Y0164277D01*
X0062361Y0164366D01*
X0062488Y0164453D01*
X0062617Y0164535D01*
X0062748Y0164615D01*
X0062881Y0164691D01*
X0063016Y0164764D01*
X0063153Y0164833D01*
X0063292Y0164898D01*
X0063432Y0164960D01*
X0063574Y0165018D01*
X0063717Y0165073D01*
X0063862Y0165124D01*
X0064008Y0165171D01*
X0064155Y0165214D01*
X0064303Y0165253D01*
X0064452Y0165289D01*
X0064602Y0165320D01*
X0064753Y0165348D01*
X0064904Y0165372D01*
X0065057Y0165392D01*
X0065209Y0165408D01*
X0065362Y0165420D01*
X0065515Y0165428D01*
X0065668Y0165432D01*
X0065822Y0165432D01*
X0065975Y0165428D01*
X0066128Y0165420D01*
X0066281Y0165408D01*
X0066433Y0165392D01*
X0066586Y0165372D01*
X0066737Y0165348D01*
X0066888Y0165320D01*
X0067038Y0165289D01*
X0067187Y0165253D01*
X0067335Y0165214D01*
X0067482Y0165171D01*
X0067628Y0165124D01*
X0067773Y0165073D01*
X0067916Y0165018D01*
X0068058Y0164960D01*
X0068198Y0164898D01*
X0068337Y0164833D01*
X0068474Y0164764D01*
X0068609Y0164691D01*
X0068742Y0164615D01*
X0068873Y0164535D01*
X0069002Y0164453D01*
X0069129Y0164366D01*
X0069254Y0164277D01*
X0069376Y0164184D01*
X0069495Y0164088D01*
X0069613Y0163989D01*
X0069727Y0163888D01*
X0069839Y0163783D01*
X0069948Y0163675D01*
X0070054Y0163564D01*
X0070158Y0163451D01*
X0070258Y0163335D01*
X0070356Y0163217D01*
X0070450Y0163096D01*
X0070541Y0162973D01*
X0070629Y0162847D01*
X0070713Y0162719D01*
X0070795Y0162589D01*
X0070872Y0162457D01*
X0070947Y0162323D01*
X0071018Y0162187D01*
X0071085Y0162049D01*
X0071149Y0161909D01*
X0071209Y0161768D01*
X0071265Y0161626D01*
X0071318Y0161482D01*
X0071367Y0161336D01*
X0071412Y0161190D01*
X0071453Y0161042D01*
X0071490Y0160894D01*
X0071524Y0160744D01*
X0071554Y0160593D01*
X0071579Y0160442D01*
X0071601Y0160291D01*
X0071619Y0160138D01*
X0071633Y0159986D01*
X0071643Y0159833D01*
X0071649Y0159679D01*
X0071651Y0159526D01*
X0071649Y0159373D01*
X0071643Y0159219D01*
X0071633Y0159066D01*
X0071619Y0158914D01*
X0071601Y0158761D01*
X0071579Y0158610D01*
X0071554Y0158459D01*
X0071524Y0158308D01*
X0071490Y0158158D01*
X0071453Y0158010D01*
X0071412Y0157862D01*
X0071367Y0157716D01*
X0071318Y0157570D01*
X0071265Y0157426D01*
X0071209Y0157284D01*
X0071149Y0157143D01*
X0071085Y0157003D01*
X0071018Y0156865D01*
X0070947Y0156729D01*
X0070872Y0156595D01*
X0070795Y0156463D01*
X0070713Y0156333D01*
X0070629Y0156205D01*
X0070541Y0156079D01*
X0070450Y0155956D01*
X0070356Y0155835D01*
X0070258Y0155717D01*
X0070158Y0155601D01*
X0070054Y0155488D01*
X0069948Y0155377D01*
X0069839Y0155269D01*
X0069727Y0155164D01*
X0069613Y0155063D01*
X0069495Y0154964D01*
X0069376Y0154868D01*
X0069254Y0154775D01*
X0069129Y0154686D01*
X0069002Y0154599D01*
X0068873Y0154517D01*
X0068742Y0154437D01*
X0068609Y0154361D01*
X0068474Y0154288D01*
X0068337Y0154219D01*
X0068198Y0154154D01*
X0068058Y0154092D01*
X0067916Y0154034D01*
X0067773Y0153979D01*
X0067628Y0153928D01*
X0067482Y0153881D01*
X0067335Y0153838D01*
X0067187Y0153799D01*
X0067038Y0153763D01*
X0066888Y0153732D01*
X0066737Y0153704D01*
X0066586Y0153680D01*
X0066433Y0153660D01*
X0066281Y0153644D01*
X0066128Y0153632D01*
X0065975Y0153624D01*
X0065822Y0153620D01*
X0065668Y0153620D01*
X0065515Y0153624D01*
X0065362Y0153632D01*
X0065209Y0153644D01*
X0065057Y0153660D01*
X0064904Y0153680D01*
X0064753Y0153704D01*
X0064602Y0153732D01*
X0064452Y0153763D01*
X0064303Y0153799D01*
X0064155Y0153838D01*
X0064008Y0153881D01*
X0063862Y0153928D01*
X0063717Y0153979D01*
X0063574Y0154034D01*
X0063432Y0154092D01*
X0063292Y0154154D01*
X0063153Y0154219D01*
X0063016Y0154288D01*
X0062881Y0154361D01*
X0062748Y0154437D01*
X0062617Y0154517D01*
X0062488Y0154599D01*
X0062361Y0154686D01*
X0062236Y0154775D01*
X0062114Y0154868D01*
X0061995Y0154964D01*
X0061877Y0155063D01*
X0061763Y0155164D01*
X0061651Y0155269D01*
X0061542Y0155377D01*
X0061436Y0155488D01*
X0061332Y0155601D01*
X0061232Y0155717D01*
X0061134Y0155835D01*
X0061040Y0155956D01*
X0060949Y0156079D01*
X0060861Y0156205D01*
X0060777Y0156333D01*
X0060695Y0156463D01*
X0060618Y0156595D01*
X0060543Y0156729D01*
X0060472Y0156865D01*
X0060405Y0157003D01*
X0060341Y0157143D01*
X0060281Y0157284D01*
X0060225Y0157426D01*
X0060172Y0157570D01*
X0060123Y0157716D01*
X0060078Y0157862D01*
X0060037Y0158010D01*
X0060000Y0158158D01*
X0059966Y0158308D01*
X0059936Y0158459D01*
X0059911Y0158610D01*
X0059889Y0158761D01*
X0059871Y0158914D01*
X0059857Y0159066D01*
X0059847Y0159219D01*
X0059841Y0159373D01*
X0059839Y0159526D01*
D11*
X0092696Y0147749D02*
X0093302Y0148356D01*
X0094516Y0148356D01*
X0095122Y0147749D01*
X0096321Y0147749D02*
X0096927Y0148356D01*
X0098141Y0148356D01*
X0098747Y0147749D01*
X0098747Y0145322D01*
X0098141Y0144716D01*
X0096927Y0144716D01*
X0096321Y0145322D01*
X0095122Y0144716D02*
X0092696Y0147143D01*
X0092696Y0147749D01*
X0092696Y0144716D02*
X0095122Y0144716D01*
X0110412Y0137039D02*
X0112839Y0137039D01*
X0111625Y0137039D02*
X0111625Y0140679D01*
X0112839Y0139465D01*
X0114037Y0140072D02*
X0114037Y0137645D01*
X0114644Y0137039D01*
X0116464Y0137039D01*
X0116464Y0140679D01*
X0114644Y0140679D01*
X0114037Y0140072D01*
X0123414Y0136103D02*
X0123414Y0134889D01*
X0124021Y0134283D01*
X0124021Y0133084D02*
X0123414Y0132478D01*
X0123414Y0131264D01*
X0124021Y0130658D01*
X0126448Y0130658D01*
X0127055Y0131264D01*
X0127055Y0132478D01*
X0126448Y0133084D01*
X0126448Y0134283D02*
X0127055Y0134889D01*
X0127055Y0136103D01*
X0126448Y0136709D01*
X0125841Y0136709D01*
X0125234Y0136103D01*
X0124628Y0136709D01*
X0124021Y0136709D01*
X0123414Y0136103D01*
X0125234Y0136103D02*
X0125234Y0135496D01*
X0144389Y0131838D02*
X0147525Y0128702D01*
X0147525Y0130270D02*
X0144389Y0130270D01*
X0144389Y0128702D02*
X0147525Y0131838D01*
X0145957Y0131838D02*
X0145957Y0128702D01*
X0162912Y0133748D02*
X0162912Y0134354D01*
X0163519Y0134961D01*
X0165339Y0134961D01*
X0165339Y0133748D01*
X0164732Y0133141D01*
X0163519Y0133141D01*
X0162912Y0133748D01*
X0164125Y0136174D02*
X0165339Y0134961D01*
X0166537Y0134961D02*
X0166537Y0136174D01*
X0167144Y0136781D01*
X0168964Y0136781D01*
X0168964Y0133141D01*
X0168964Y0134354D02*
X0167144Y0134354D01*
X0166537Y0134961D01*
X0167751Y0134354D02*
X0166537Y0133141D01*
X0164125Y0136174D02*
X0162912Y0136781D01*
X0178345Y0136742D02*
X0178345Y0136135D01*
X0180772Y0133708D01*
X0180772Y0133102D01*
X0181970Y0133102D02*
X0183184Y0134315D01*
X0182577Y0134315D02*
X0184397Y0134315D01*
X0184397Y0133102D02*
X0184397Y0136742D01*
X0182577Y0136742D01*
X0181970Y0136135D01*
X0181970Y0134922D01*
X0182577Y0134315D01*
X0180772Y0136742D02*
X0178345Y0136742D01*
X0199550Y0143460D02*
X0201977Y0143460D01*
X0199550Y0145887D01*
X0199550Y0146493D01*
X0200157Y0147100D01*
X0201370Y0147100D01*
X0201977Y0146493D01*
X0203175Y0146493D02*
X0203782Y0147100D01*
X0205602Y0147100D01*
X0205602Y0143460D01*
X0203782Y0143460D01*
X0203175Y0144067D01*
X0203175Y0146493D01*
X0170499Y0153023D02*
X0170499Y0156663D01*
X0168679Y0156663D01*
X0168073Y0156056D01*
X0168073Y0154843D01*
X0168679Y0154236D01*
X0170499Y0154236D01*
X0169286Y0154236D02*
X0168073Y0153023D01*
X0166874Y0154843D02*
X0164448Y0154843D01*
X0165054Y0156663D02*
X0166874Y0154843D01*
X0165054Y0153023D02*
X0165054Y0156663D01*
X0130972Y0160031D02*
X0130972Y0163671D01*
X0129152Y0163671D01*
X0128545Y0163064D01*
X0128545Y0161851D01*
X0129152Y0161244D01*
X0130972Y0161244D01*
X0129759Y0161244D02*
X0128545Y0160031D01*
X0127347Y0160637D02*
X0126740Y0160031D01*
X0125527Y0160031D01*
X0124920Y0160637D01*
X0124920Y0161851D01*
X0125527Y0162458D01*
X0126133Y0162458D01*
X0127347Y0161851D01*
X0127347Y0163671D01*
X0124920Y0163671D01*
X0102566Y0101820D02*
X0102566Y0098180D01*
X0100140Y0098180D01*
X0098941Y0098180D02*
X0096514Y0098180D01*
X0097728Y0098180D02*
X0097728Y0101820D01*
X0098941Y0100607D01*
X0100580Y0077261D02*
X0100580Y0074834D01*
X0100580Y0076047D02*
X0104220Y0076047D01*
X0103007Y0074834D01*
X0103613Y0073636D02*
X0104220Y0073029D01*
X0104220Y0071815D01*
X0103613Y0071209D01*
X0101186Y0071209D01*
X0100580Y0071815D01*
X0100580Y0073029D01*
X0101186Y0073636D01*
X0139438Y0089457D02*
X0143078Y0089457D01*
X0143078Y0091277D01*
X0142471Y0091884D01*
X0141258Y0091884D01*
X0140651Y0091277D01*
X0140651Y0089457D01*
X0140651Y0090670D02*
X0139438Y0091884D01*
X0140045Y0093082D02*
X0139438Y0093689D01*
X0139438Y0094902D01*
X0140045Y0095509D01*
X0142471Y0095509D01*
X0143078Y0094902D01*
X0143078Y0093689D01*
X0142471Y0093082D01*
X0141865Y0093082D01*
X0141258Y0093689D01*
X0141258Y0095509D01*
X0163966Y0095737D02*
X0164572Y0095131D01*
X0166999Y0097557D01*
X0164572Y0097557D01*
X0163966Y0096951D01*
X0163966Y0095737D01*
X0164572Y0095131D02*
X0166999Y0095131D01*
X0167606Y0095737D01*
X0167606Y0096951D01*
X0166999Y0097557D01*
X0163966Y0093932D02*
X0163966Y0091506D01*
X0163966Y0090307D02*
X0165179Y0089094D01*
X0165179Y0089701D02*
X0165179Y0087880D01*
X0163966Y0087880D02*
X0167606Y0087880D01*
X0167606Y0089701D01*
X0166999Y0090307D01*
X0165786Y0090307D01*
X0165179Y0089701D01*
X0166392Y0091506D02*
X0167606Y0092719D01*
X0163966Y0092719D01*
X0239034Y0085938D02*
X0239034Y0085332D01*
X0241461Y0082905D01*
X0239034Y0082905D01*
X0242659Y0082905D02*
X0245086Y0082905D01*
X0245086Y0086545D01*
X0241461Y0085938D02*
X0240854Y0086545D01*
X0239641Y0086545D01*
X0239034Y0085938D01*
X0257824Y0085487D02*
X0257824Y0083061D01*
X0257824Y0081862D02*
X0259037Y0080649D01*
X0259037Y0081256D02*
X0259037Y0079436D01*
X0257824Y0079436D02*
X0261464Y0079436D01*
X0261464Y0081256D01*
X0260857Y0081862D01*
X0259644Y0081862D01*
X0259037Y0081256D01*
X0260251Y0083061D02*
X0261464Y0084274D01*
X0257824Y0084274D01*
X0259644Y0086686D02*
X0259644Y0089113D01*
X0261464Y0088506D02*
X0259644Y0086686D01*
X0257824Y0088506D02*
X0261464Y0088506D01*
X0261464Y0099121D02*
X0257824Y0099121D01*
X0259037Y0099121D02*
X0259037Y0100941D01*
X0259644Y0101547D01*
X0260857Y0101547D01*
X0261464Y0100941D01*
X0261464Y0099121D01*
X0259037Y0100334D02*
X0257824Y0101547D01*
X0257824Y0102746D02*
X0257824Y0105172D01*
X0257824Y0103959D02*
X0261464Y0103959D01*
X0260251Y0102746D01*
X0260857Y0106371D02*
X0261464Y0106978D01*
X0261464Y0108191D01*
X0260857Y0108798D01*
X0260251Y0108798D01*
X0259644Y0108191D01*
X0259037Y0108798D01*
X0258431Y0108798D01*
X0257824Y0108191D01*
X0257824Y0106978D01*
X0258431Y0106371D01*
X0259644Y0107584D02*
X0259644Y0108191D01*
X0259037Y0118806D02*
X0259037Y0120626D01*
X0259644Y0121232D01*
X0260857Y0121232D01*
X0261464Y0120626D01*
X0261464Y0118806D01*
X0257824Y0118806D01*
X0259037Y0120019D02*
X0257824Y0121232D01*
X0257824Y0122431D02*
X0257824Y0124858D01*
X0257824Y0126056D02*
X0257824Y0128483D01*
X0257824Y0127269D02*
X0261464Y0127269D01*
X0260251Y0126056D01*
X0261464Y0123644D02*
X0257824Y0123644D01*
X0260251Y0122431D02*
X0261464Y0123644D01*
X0261464Y0138491D02*
X0257824Y0138491D01*
X0259037Y0138491D02*
X0259037Y0140311D01*
X0259644Y0140917D01*
X0260857Y0140917D01*
X0261464Y0140311D01*
X0261464Y0138491D01*
X0259037Y0139704D02*
X0257824Y0140917D01*
X0257824Y0142116D02*
X0257824Y0144543D01*
X0257824Y0145741D02*
X0260251Y0148168D01*
X0260857Y0148168D01*
X0261464Y0147561D01*
X0261464Y0146348D01*
X0260857Y0145741D01*
X0261464Y0143329D02*
X0257824Y0143329D01*
X0257824Y0145741D02*
X0257824Y0148168D01*
X0261464Y0143329D02*
X0260251Y0142116D01*
D12*
X0244879Y0135904D02*
X0244879Y0088660D01*
X0197635Y0088660D01*
X0197635Y0135904D01*
X0244879Y0135904D01*
X0111020Y0128030D02*
X0111020Y0104408D01*
X0087398Y0104408D01*
X0087398Y0128030D01*
X0111020Y0128030D01*
D13*
X0144559Y0125988D02*
X0144559Y0123988D01*
X0144559Y0125988D02*
X0146559Y0125988D01*
X0158159Y0125988D02*
X0160159Y0125988D01*
X0160159Y0123988D01*
X0160159Y0112388D02*
X0160159Y0110388D01*
X0158159Y0110388D01*
X0146559Y0110388D02*
X0144559Y0110388D01*
X0144559Y0112388D01*
D14*
X0139417Y0113137D02*
X0138237Y0113137D01*
X0138827Y0113137D02*
X0138827Y0109597D01*
X0139417Y0109597D02*
X0138237Y0109597D01*
X0137000Y0110187D02*
X0136410Y0109597D01*
X0135230Y0109597D01*
X0134640Y0110187D01*
X0133375Y0109597D02*
X0131015Y0111957D01*
X0131015Y0112547D01*
X0131605Y0113137D01*
X0132785Y0113137D01*
X0133375Y0112547D01*
X0134640Y0112547D02*
X0135230Y0113137D01*
X0136410Y0113137D01*
X0137000Y0112547D01*
X0137000Y0110187D01*
X0133375Y0109597D02*
X0131015Y0109597D01*
X0116335Y0130786D02*
X0109642Y0130786D01*
X0109642Y0135117D02*
X0116335Y0135117D01*
X0212357Y0138247D02*
X0230157Y0138247D01*
X0230157Y0153247D02*
X0212357Y0153247D01*
D15*
X0111611Y0132952D03*
D16*
X0217989Y0145747D02*
X0222016Y0149684D01*
X0222016Y0141810D01*
X0217989Y0145747D01*
M02*
