G04 EAGLE Gerber RS-274X export*
G75*
%MOMM*%
%FSLAX35Y35*%
%LPD*%
%INsolder_mask_top*%
%IPPOS*%
%AMOC8*
5,1,8,0,0,1.08239X$1,22.5*%
G01*
%ADD10C,0.010000*%
%ADD11C,0.203200*%
%ADD12R,1.627000X1.427000*%
%ADD13R,1.427000X1.627000*%
%ADD14C,1.627000*%
%ADD15R,1.927000X2.327000*%
%ADD16R,0.577000X1.577000*%
%ADD17R,0.927000X0.402000*%
%ADD18R,0.402000X0.927000*%
%ADD19R,2.627000X2.627000*%
%ADD20R,0.927000X0.377000*%
%ADD21R,0.377000X0.927000*%
%ADD22R,2.027000X0.377000*%
%ADD23R,1.677000X0.377000*%
%ADD24R,0.727000X0.377000*%
%ADD25R,3.527000X1.127000*%
%ADD26R,1.627000X1.627000*%
%ADD27R,5.207000X2.667000*%
%ADD28R,1.527000X1.127000*%
%ADD29R,2.377000X0.627000*%
%ADD30R,2.627000X2.127000*%
%ADD31C,0.000000*%
%ADD32C,1.027000*%
%ADD33C,1.427000*%
%ADD34R,2.927000X1.027000*%
%ADD35R,5.127000X2.627000*%
%ADD36C,0.627000*%
%ADD37C,0.731000*%

G36*
X-4274521Y17344861D02*
X-4274521Y17344861D01*
X-4274580Y17344940D01*
X-4274501Y17345000D01*
X-4274501Y17460000D01*
X-4274861Y17460479D01*
X-4274940Y17460420D01*
X-4275000Y17460499D01*
X-4565000Y17460499D01*
X-4565479Y17460139D01*
X-4565420Y17460060D01*
X-4565499Y17460000D01*
X-4565499Y17345000D01*
X-4565139Y17344521D01*
X-4565060Y17344580D01*
X-4565000Y17344501D01*
X-4275000Y17344501D01*
X-4274521Y17344861D01*
G37*
D10*
X-2300000Y17800000D02*
X-2300000Y12800000D01*
X-2300088Y12792751D01*
X-2300350Y12785506D01*
X-2300788Y12778270D01*
X-2301401Y12771046D01*
X-2302187Y12763839D01*
X-2303148Y12756653D01*
X-2304282Y12749493D01*
X-2305589Y12742362D01*
X-2307068Y12735265D01*
X-2308717Y12728205D01*
X-2310537Y12721188D01*
X-2312526Y12714216D01*
X-2314683Y12707295D01*
X-2317006Y12700428D01*
X-2319495Y12693619D01*
X-2322148Y12686872D01*
X-2324962Y12680191D01*
X-2327938Y12673580D01*
X-2331072Y12667043D01*
X-2334363Y12660583D01*
X-2337810Y12654205D01*
X-2341409Y12647912D01*
X-2345160Y12641708D01*
X-2349059Y12635596D01*
X-2353105Y12629581D01*
X-2357295Y12623664D01*
X-2361627Y12617851D01*
X-2366098Y12612144D01*
X-2370705Y12606547D01*
X-2375447Y12601063D01*
X-2380319Y12595695D01*
X-2385320Y12590447D01*
X-2390447Y12585320D01*
X-2395695Y12580319D01*
X-2401063Y12575447D01*
X-2406547Y12570705D01*
X-2412144Y12566098D01*
X-2417851Y12561627D01*
X-2423664Y12557295D01*
X-2429581Y12553105D01*
X-2435596Y12549059D01*
X-2441708Y12545160D01*
X-2447912Y12541409D01*
X-2454205Y12537810D01*
X-2460583Y12534363D01*
X-2467043Y12531072D01*
X-2473580Y12527938D01*
X-2480191Y12524962D01*
X-2486872Y12522148D01*
X-2493619Y12519495D01*
X-2500428Y12517006D01*
X-2507295Y12514683D01*
X-2514216Y12512526D01*
X-2521188Y12510537D01*
X-2528205Y12508717D01*
X-2535265Y12507068D01*
X-2542362Y12505589D01*
X-2549493Y12504282D01*
X-2556653Y12503148D01*
X-2563839Y12502187D01*
X-2571046Y12501401D01*
X-2578270Y12500788D01*
X-2585506Y12500350D01*
X-2592751Y12500088D01*
X-2600000Y12500000D01*
X-5500000Y12500000D01*
X-5507249Y12500088D01*
X-5514494Y12500350D01*
X-5521730Y12500788D01*
X-5528954Y12501401D01*
X-5536161Y12502187D01*
X-5543347Y12503148D01*
X-5550507Y12504282D01*
X-5557638Y12505589D01*
X-5564735Y12507068D01*
X-5571795Y12508717D01*
X-5578812Y12510537D01*
X-5585784Y12512526D01*
X-5592705Y12514683D01*
X-5599572Y12517006D01*
X-5606381Y12519495D01*
X-5613128Y12522148D01*
X-5619809Y12524962D01*
X-5626420Y12527938D01*
X-5632957Y12531072D01*
X-5639417Y12534363D01*
X-5645795Y12537810D01*
X-5652088Y12541409D01*
X-5658292Y12545160D01*
X-5664404Y12549059D01*
X-5670419Y12553105D01*
X-5676336Y12557295D01*
X-5682149Y12561627D01*
X-5687856Y12566098D01*
X-5693453Y12570705D01*
X-5698937Y12575447D01*
X-5704305Y12580319D01*
X-5709553Y12585320D01*
X-5714680Y12590447D01*
X-5719681Y12595695D01*
X-5724553Y12601063D01*
X-5729295Y12606547D01*
X-5733902Y12612144D01*
X-5738373Y12617851D01*
X-5742705Y12623664D01*
X-5746895Y12629581D01*
X-5750941Y12635596D01*
X-5754840Y12641708D01*
X-5758591Y12647912D01*
X-5762190Y12654205D01*
X-5765637Y12660583D01*
X-5768928Y12667043D01*
X-5772062Y12673580D01*
X-5775038Y12680191D01*
X-5777852Y12686872D01*
X-5780505Y12693619D01*
X-5782994Y12700428D01*
X-5785317Y12707295D01*
X-5787474Y12714216D01*
X-5789463Y12721188D01*
X-5791283Y12728205D01*
X-5792932Y12735265D01*
X-5794411Y12742362D01*
X-5795718Y12749493D01*
X-5796852Y12756653D01*
X-5797813Y12763839D01*
X-5798599Y12771046D01*
X-5799212Y12778270D01*
X-5799650Y12785506D01*
X-5799912Y12792751D01*
X-5800000Y12800000D01*
X-5800000Y17800000D01*
X-5799912Y17807249D01*
X-5799650Y17814494D01*
X-5799212Y17821730D01*
X-5798599Y17828954D01*
X-5797813Y17836161D01*
X-5796852Y17843347D01*
X-5795718Y17850507D01*
X-5794411Y17857638D01*
X-5792932Y17864735D01*
X-5791283Y17871795D01*
X-5789463Y17878812D01*
X-5787474Y17885784D01*
X-5785317Y17892705D01*
X-5782994Y17899572D01*
X-5780505Y17906381D01*
X-5777852Y17913128D01*
X-5775038Y17919809D01*
X-5772062Y17926420D01*
X-5768928Y17932957D01*
X-5765637Y17939417D01*
X-5762190Y17945795D01*
X-5758591Y17952088D01*
X-5754840Y17958292D01*
X-5750941Y17964404D01*
X-5746895Y17970419D01*
X-5742705Y17976336D01*
X-5738373Y17982149D01*
X-5733902Y17987856D01*
X-5729295Y17993453D01*
X-5724553Y17998937D01*
X-5719681Y18004305D01*
X-5714680Y18009553D01*
X-5709553Y18014680D01*
X-5704305Y18019681D01*
X-5698937Y18024553D01*
X-5693453Y18029295D01*
X-5687856Y18033902D01*
X-5682149Y18038373D01*
X-5676336Y18042705D01*
X-5670419Y18046895D01*
X-5664404Y18050941D01*
X-5658292Y18054840D01*
X-5652088Y18058591D01*
X-5645795Y18062190D01*
X-5639417Y18065637D01*
X-5632957Y18068928D01*
X-5626420Y18072062D01*
X-5619809Y18075038D01*
X-5613128Y18077852D01*
X-5606381Y18080505D01*
X-5599572Y18082994D01*
X-5592705Y18085317D01*
X-5585784Y18087474D01*
X-5578812Y18089463D01*
X-5571795Y18091283D01*
X-5564735Y18092932D01*
X-5557638Y18094411D01*
X-5550507Y18095718D01*
X-5543347Y18096852D01*
X-5536161Y18097813D01*
X-5528954Y18098599D01*
X-5521730Y18099212D01*
X-5514494Y18099650D01*
X-5507249Y18099912D01*
X-5500000Y18100000D01*
X-2600000Y18100000D01*
X-2592751Y18099912D01*
X-2585506Y18099650D01*
X-2578270Y18099212D01*
X-2571046Y18098599D01*
X-2563839Y18097813D01*
X-2556653Y18096852D01*
X-2549493Y18095718D01*
X-2542362Y18094411D01*
X-2535265Y18092932D01*
X-2528205Y18091283D01*
X-2521188Y18089463D01*
X-2514216Y18087474D01*
X-2507295Y18085317D01*
X-2500428Y18082994D01*
X-2493619Y18080505D01*
X-2486872Y18077852D01*
X-2480191Y18075038D01*
X-2473580Y18072062D01*
X-2467043Y18068928D01*
X-2460583Y18065637D01*
X-2454205Y18062190D01*
X-2447912Y18058591D01*
X-2441708Y18054840D01*
X-2435596Y18050941D01*
X-2429581Y18046895D01*
X-2423664Y18042705D01*
X-2417851Y18038373D01*
X-2412144Y18033902D01*
X-2406547Y18029295D01*
X-2401063Y18024553D01*
X-2395695Y18019681D01*
X-2390447Y18014680D01*
X-2385320Y18009553D01*
X-2380319Y18004305D01*
X-2375447Y17998937D01*
X-2370705Y17993453D01*
X-2366098Y17987856D01*
X-2361627Y17982149D01*
X-2357295Y17976336D01*
X-2353105Y17970419D01*
X-2349059Y17964404D01*
X-2345160Y17958292D01*
X-2341409Y17952088D01*
X-2337810Y17945795D01*
X-2334363Y17939417D01*
X-2331072Y17932957D01*
X-2327938Y17926420D01*
X-2324962Y17919809D01*
X-2322148Y17913128D01*
X-2319495Y17906381D01*
X-2317006Y17899572D01*
X-2314683Y17892705D01*
X-2312526Y17885784D01*
X-2310537Y17878812D01*
X-2308717Y17871795D01*
X-2307068Y17864735D01*
X-2305589Y17857638D01*
X-2304282Y17850507D01*
X-2303148Y17843347D01*
X-2302187Y17836161D01*
X-2301401Y17828954D01*
X-2300788Y17821730D01*
X-2300350Y17814494D01*
X-2300088Y17807249D01*
X-2300000Y17800000D01*
D11*
X-2810160Y14133753D02*
X-2989840Y14133753D01*
X-2810160Y14133753D02*
X-2810160Y14183664D01*
X-2810169Y14184388D01*
X-2810195Y14185111D01*
X-2810239Y14185833D01*
X-2810300Y14186554D01*
X-2810378Y14187274D01*
X-2810474Y14187991D01*
X-2810587Y14188706D01*
X-2810718Y14189417D01*
X-2810866Y14190126D01*
X-2811030Y14190831D01*
X-2811212Y14191531D01*
X-2811410Y14192227D01*
X-2811626Y14192918D01*
X-2811858Y14193603D01*
X-2812106Y14194283D01*
X-2812371Y14194957D01*
X-2812652Y14195623D01*
X-2812949Y14196283D01*
X-2813262Y14196936D01*
X-2813590Y14197581D01*
X-2813934Y14198217D01*
X-2814294Y14198846D01*
X-2814668Y14199465D01*
X-2815057Y14200075D01*
X-2815461Y14200675D01*
X-2815879Y14201266D01*
X-2816312Y14201846D01*
X-2816758Y14202416D01*
X-2817218Y14202975D01*
X-2817691Y14203522D01*
X-2818178Y14204058D01*
X-2818677Y14204582D01*
X-2819188Y14205093D01*
X-2819712Y14205593D01*
X-2820248Y14206079D01*
X-2820796Y14206552D01*
X-2821354Y14207012D01*
X-2821924Y14207459D01*
X-2822504Y14207891D01*
X-2823095Y14208309D01*
X-2823695Y14208713D01*
X-2824305Y14209102D01*
X-2824925Y14209477D01*
X-2825553Y14209836D01*
X-2826190Y14210180D01*
X-2826834Y14210508D01*
X-2827487Y14210821D01*
X-2828147Y14211118D01*
X-2828814Y14211399D01*
X-2829487Y14211664D01*
X-2830167Y14211912D01*
X-2830852Y14212144D01*
X-2831543Y14212360D01*
X-2832239Y14212558D01*
X-2832940Y14212740D01*
X-2833644Y14212905D01*
X-2834353Y14213052D01*
X-2835065Y14213183D01*
X-2835779Y14213296D01*
X-2836497Y14213392D01*
X-2837216Y14213470D01*
X-2837937Y14213531D01*
X-2838660Y14213575D01*
X-2839383Y14213601D01*
X-2840106Y14213610D01*
X-2840107Y14213611D02*
X-2900000Y14213611D01*
X-2900724Y14213602D01*
X-2901447Y14213576D01*
X-2902169Y14213532D01*
X-2902890Y14213471D01*
X-2903610Y14213393D01*
X-2904327Y14213297D01*
X-2905042Y14213184D01*
X-2905754Y14213053D01*
X-2906462Y14212905D01*
X-2907167Y14212741D01*
X-2907867Y14212559D01*
X-2908563Y14212361D01*
X-2909254Y14212145D01*
X-2909940Y14211913D01*
X-2910619Y14211665D01*
X-2911293Y14211400D01*
X-2911960Y14211119D01*
X-2912620Y14210822D01*
X-2913272Y14210509D01*
X-2913917Y14210181D01*
X-2914554Y14209837D01*
X-2915182Y14209477D01*
X-2915801Y14209103D01*
X-2916411Y14208714D01*
X-2917012Y14208310D01*
X-2917602Y14207892D01*
X-2918183Y14207459D01*
X-2918752Y14207013D01*
X-2919311Y14206553D01*
X-2919859Y14206080D01*
X-2920394Y14205593D01*
X-2920918Y14205094D01*
X-2921430Y14204582D01*
X-2921929Y14204058D01*
X-2922416Y14203523D01*
X-2922889Y14202975D01*
X-2923349Y14202416D01*
X-2923795Y14201847D01*
X-2924228Y14201266D01*
X-2924646Y14200676D01*
X-2925050Y14200075D01*
X-2925439Y14199465D01*
X-2925813Y14198846D01*
X-2926173Y14198218D01*
X-2926517Y14197581D01*
X-2926845Y14196936D01*
X-2927158Y14196284D01*
X-2927455Y14195624D01*
X-2927736Y14194957D01*
X-2928001Y14194283D01*
X-2928249Y14193604D01*
X-2928481Y14192918D01*
X-2928697Y14192227D01*
X-2928895Y14191531D01*
X-2929077Y14190831D01*
X-2929241Y14190126D01*
X-2929389Y14189418D01*
X-2929520Y14188706D01*
X-2929633Y14187991D01*
X-2929729Y14187274D01*
X-2929807Y14186554D01*
X-2929868Y14185833D01*
X-2929912Y14185111D01*
X-2929938Y14184388D01*
X-2929947Y14183664D01*
X-2929947Y14133753D01*
X-2810160Y14312393D02*
X-2810160Y14362304D01*
X-2810160Y14312393D02*
X-2810169Y14311669D01*
X-2810195Y14310946D01*
X-2810239Y14310224D01*
X-2810300Y14309503D01*
X-2810378Y14308783D01*
X-2810474Y14308066D01*
X-2810587Y14307351D01*
X-2810718Y14306639D01*
X-2810866Y14305931D01*
X-2811030Y14305226D01*
X-2811212Y14304526D01*
X-2811410Y14303830D01*
X-2811626Y14303139D01*
X-2811858Y14302453D01*
X-2812106Y14301774D01*
X-2812371Y14301100D01*
X-2812652Y14300433D01*
X-2812949Y14299773D01*
X-2813262Y14299121D01*
X-2813590Y14298476D01*
X-2813934Y14297839D01*
X-2814294Y14297211D01*
X-2814668Y14296592D01*
X-2815057Y14295982D01*
X-2815461Y14295381D01*
X-2815879Y14294791D01*
X-2816312Y14294210D01*
X-2816758Y14293641D01*
X-2817218Y14293082D01*
X-2817691Y14292534D01*
X-2818178Y14291999D01*
X-2818677Y14291475D01*
X-2819189Y14290963D01*
X-2819713Y14290464D01*
X-2820248Y14289977D01*
X-2820796Y14289504D01*
X-2821355Y14289044D01*
X-2821924Y14288598D01*
X-2822505Y14288165D01*
X-2823095Y14287747D01*
X-2823696Y14287343D01*
X-2824306Y14286954D01*
X-2824925Y14286580D01*
X-2825553Y14286220D01*
X-2826190Y14285876D01*
X-2826835Y14285548D01*
X-2827487Y14285235D01*
X-2828147Y14284938D01*
X-2828814Y14284657D01*
X-2829488Y14284392D01*
X-2830167Y14284144D01*
X-2830853Y14283912D01*
X-2831544Y14283696D01*
X-2832240Y14283498D01*
X-2832940Y14283316D01*
X-2833645Y14283152D01*
X-2834353Y14283004D01*
X-2835065Y14282873D01*
X-2835780Y14282760D01*
X-2836497Y14282664D01*
X-2837217Y14282586D01*
X-2837938Y14282525D01*
X-2838660Y14282481D01*
X-2839383Y14282455D01*
X-2840107Y14282446D01*
X-2890018Y14282446D01*
X-2890990Y14282458D01*
X-2891962Y14282493D01*
X-2892933Y14282553D01*
X-2893901Y14282635D01*
X-2894868Y14282742D01*
X-2895832Y14282872D01*
X-2896792Y14283025D01*
X-2897748Y14283201D01*
X-2898700Y14283401D01*
X-2899646Y14283624D01*
X-2900587Y14283870D01*
X-2901522Y14284139D01*
X-2902449Y14284430D01*
X-2903369Y14284744D01*
X-2904282Y14285081D01*
X-2905186Y14285439D01*
X-2906081Y14285819D01*
X-2906966Y14286221D01*
X-2907841Y14286645D01*
X-2908706Y14287089D01*
X-2909560Y14287555D01*
X-2910402Y14288041D01*
X-2911232Y14288548D01*
X-2912050Y14289074D01*
X-2912854Y14289621D01*
X-2913645Y14290186D01*
X-2914422Y14290771D01*
X-2915184Y14291375D01*
X-2915931Y14291997D01*
X-2916663Y14292637D01*
X-2917380Y14293295D01*
X-2918080Y14293970D01*
X-2918763Y14294661D01*
X-2919429Y14295370D01*
X-2920078Y14296094D01*
X-2920709Y14296833D01*
X-2921322Y14297588D01*
X-2921916Y14298358D01*
X-2922492Y14299142D01*
X-2923048Y14299940D01*
X-2923584Y14300751D01*
X-2924101Y14301574D01*
X-2924598Y14302411D01*
X-2925073Y14303258D01*
X-2925529Y14304118D01*
X-2925963Y14304988D01*
X-2926375Y14305868D01*
X-2926767Y14306759D01*
X-2927136Y14307658D01*
X-2927483Y14308566D01*
X-2927808Y14309483D01*
X-2928111Y14310407D01*
X-2928391Y14311338D01*
X-2928649Y14312276D01*
X-2928883Y14313219D01*
X-2929095Y14314168D01*
X-2929283Y14315122D01*
X-2929448Y14316081D01*
X-2929589Y14317043D01*
X-2929707Y14318008D01*
X-2929802Y14318976D01*
X-2929873Y14319945D01*
X-2929920Y14320917D01*
X-2929944Y14321889D01*
X-2929944Y14322861D01*
X-2929920Y14323833D01*
X-2929873Y14324805D01*
X-2929802Y14325774D01*
X-2929707Y14326742D01*
X-2929589Y14327707D01*
X-2929448Y14328669D01*
X-2929283Y14329628D01*
X-2929095Y14330582D01*
X-2928883Y14331531D01*
X-2928649Y14332474D01*
X-2928391Y14333412D01*
X-2928111Y14334343D01*
X-2927808Y14335267D01*
X-2927483Y14336184D01*
X-2927136Y14337092D01*
X-2926767Y14337991D01*
X-2926375Y14338882D01*
X-2925963Y14339762D01*
X-2925529Y14340632D01*
X-2925073Y14341492D01*
X-2924598Y14342340D01*
X-2924101Y14343176D01*
X-2923584Y14343999D01*
X-2923048Y14344810D01*
X-2922492Y14345608D01*
X-2921916Y14346392D01*
X-2921322Y14347162D01*
X-2920709Y14347917D01*
X-2920078Y14348656D01*
X-2919429Y14349380D01*
X-2918763Y14350089D01*
X-2918080Y14350780D01*
X-2917380Y14351455D01*
X-2916663Y14352113D01*
X-2915931Y14352753D01*
X-2915184Y14353375D01*
X-2914422Y14353979D01*
X-2913645Y14354564D01*
X-2912854Y14355129D01*
X-2912050Y14355676D01*
X-2911232Y14356202D01*
X-2910402Y14356709D01*
X-2909560Y14357195D01*
X-2908706Y14357661D01*
X-2907841Y14358105D01*
X-2906966Y14358529D01*
X-2906081Y14358931D01*
X-2905186Y14359311D01*
X-2904282Y14359669D01*
X-2903369Y14360006D01*
X-2902449Y14360320D01*
X-2901522Y14360611D01*
X-2900587Y14360880D01*
X-2899646Y14361126D01*
X-2898700Y14361349D01*
X-2897748Y14361549D01*
X-2896792Y14361725D01*
X-2895832Y14361878D01*
X-2894868Y14362008D01*
X-2893901Y14362115D01*
X-2892933Y14362197D01*
X-2891962Y14362257D01*
X-2890990Y14362292D01*
X-2890018Y14362304D01*
X-2870053Y14362304D01*
X-2870053Y14282446D01*
X-2810160Y14438503D02*
X-2989840Y14438503D01*
X-2810160Y14438503D02*
X-2810160Y14488414D01*
X-2810169Y14489138D01*
X-2810195Y14489861D01*
X-2810239Y14490583D01*
X-2810300Y14491304D01*
X-2810378Y14492024D01*
X-2810474Y14492741D01*
X-2810587Y14493456D01*
X-2810718Y14494167D01*
X-2810866Y14494876D01*
X-2811030Y14495581D01*
X-2811212Y14496281D01*
X-2811410Y14496977D01*
X-2811626Y14497668D01*
X-2811858Y14498353D01*
X-2812106Y14499033D01*
X-2812371Y14499707D01*
X-2812652Y14500373D01*
X-2812949Y14501033D01*
X-2813262Y14501686D01*
X-2813590Y14502331D01*
X-2813934Y14502967D01*
X-2814294Y14503596D01*
X-2814668Y14504215D01*
X-2815057Y14504825D01*
X-2815461Y14505425D01*
X-2815879Y14506016D01*
X-2816312Y14506596D01*
X-2816758Y14507166D01*
X-2817218Y14507725D01*
X-2817691Y14508272D01*
X-2818178Y14508808D01*
X-2818677Y14509332D01*
X-2819188Y14509843D01*
X-2819712Y14510343D01*
X-2820248Y14510829D01*
X-2820796Y14511302D01*
X-2821354Y14511762D01*
X-2821924Y14512209D01*
X-2822504Y14512641D01*
X-2823095Y14513059D01*
X-2823695Y14513463D01*
X-2824305Y14513852D01*
X-2824925Y14514227D01*
X-2825553Y14514586D01*
X-2826190Y14514930D01*
X-2826834Y14515258D01*
X-2827487Y14515571D01*
X-2828147Y14515868D01*
X-2828814Y14516149D01*
X-2829487Y14516414D01*
X-2830167Y14516662D01*
X-2830852Y14516894D01*
X-2831543Y14517110D01*
X-2832239Y14517308D01*
X-2832940Y14517490D01*
X-2833644Y14517655D01*
X-2834353Y14517802D01*
X-2835065Y14517933D01*
X-2835779Y14518046D01*
X-2836497Y14518142D01*
X-2837216Y14518220D01*
X-2837937Y14518281D01*
X-2838660Y14518325D01*
X-2839383Y14518351D01*
X-2840106Y14518360D01*
X-2840107Y14518361D02*
X-2900000Y14518361D01*
X-2900724Y14518352D01*
X-2901447Y14518326D01*
X-2902169Y14518282D01*
X-2902890Y14518221D01*
X-2903610Y14518143D01*
X-2904327Y14518047D01*
X-2905042Y14517934D01*
X-2905754Y14517803D01*
X-2906462Y14517655D01*
X-2907167Y14517491D01*
X-2907867Y14517309D01*
X-2908563Y14517111D01*
X-2909254Y14516895D01*
X-2909940Y14516663D01*
X-2910619Y14516415D01*
X-2911293Y14516150D01*
X-2911960Y14515869D01*
X-2912620Y14515572D01*
X-2913272Y14515259D01*
X-2913917Y14514931D01*
X-2914554Y14514587D01*
X-2915182Y14514227D01*
X-2915801Y14513853D01*
X-2916411Y14513464D01*
X-2917012Y14513060D01*
X-2917602Y14512642D01*
X-2918183Y14512209D01*
X-2918752Y14511763D01*
X-2919311Y14511303D01*
X-2919859Y14510830D01*
X-2920394Y14510343D01*
X-2920918Y14509844D01*
X-2921430Y14509332D01*
X-2921929Y14508808D01*
X-2922416Y14508273D01*
X-2922889Y14507725D01*
X-2923349Y14507166D01*
X-2923795Y14506597D01*
X-2924228Y14506016D01*
X-2924646Y14505426D01*
X-2925050Y14504825D01*
X-2925439Y14504215D01*
X-2925813Y14503596D01*
X-2926173Y14502968D01*
X-2926517Y14502331D01*
X-2926845Y14501686D01*
X-2927158Y14501034D01*
X-2927455Y14500374D01*
X-2927736Y14499707D01*
X-2928001Y14499033D01*
X-2928249Y14498354D01*
X-2928481Y14497668D01*
X-2928697Y14496977D01*
X-2928895Y14496281D01*
X-2929077Y14495581D01*
X-2929241Y14494876D01*
X-2929389Y14494168D01*
X-2929520Y14493456D01*
X-2929633Y14492741D01*
X-2929729Y14492024D01*
X-2929807Y14491304D01*
X-2929868Y14490583D01*
X-2929912Y14489861D01*
X-2929938Y14489138D01*
X-2929947Y14488414D01*
X-2929947Y14438503D01*
X-2880035Y14621326D02*
X-2880035Y14666246D01*
X-2880036Y14621326D02*
X-2880026Y14620475D01*
X-2879995Y14619625D01*
X-2879943Y14618776D01*
X-2879870Y14617928D01*
X-2879777Y14617082D01*
X-2879664Y14616239D01*
X-2879530Y14615399D01*
X-2879375Y14614562D01*
X-2879200Y14613729D01*
X-2879005Y14612901D01*
X-2878790Y14612078D01*
X-2878555Y14611260D01*
X-2878300Y14610449D01*
X-2878025Y14609643D01*
X-2877731Y14608845D01*
X-2877417Y14608054D01*
X-2877084Y14607271D01*
X-2876733Y14606496D01*
X-2876362Y14605730D01*
X-2875973Y14604974D01*
X-2875566Y14604227D01*
X-2875140Y14603490D01*
X-2874697Y14602764D01*
X-2874236Y14602048D01*
X-2873758Y14601345D01*
X-2873263Y14600653D01*
X-2872751Y14599973D01*
X-2872223Y14599306D01*
X-2871679Y14598652D01*
X-2871119Y14598011D01*
X-2870543Y14597384D01*
X-2869953Y14596772D01*
X-2869348Y14596174D01*
X-2868728Y14595591D01*
X-2868094Y14595023D01*
X-2867447Y14594471D01*
X-2866786Y14593935D01*
X-2866113Y14593415D01*
X-2865427Y14592911D01*
X-2864729Y14592425D01*
X-2864019Y14591955D01*
X-2863299Y14591503D01*
X-2862567Y14591069D01*
X-2861825Y14590652D01*
X-2861073Y14590254D01*
X-2860312Y14589874D01*
X-2859541Y14589513D01*
X-2858762Y14589171D01*
X-2857975Y14588848D01*
X-2857181Y14588544D01*
X-2856379Y14588259D01*
X-2855570Y14587994D01*
X-2854755Y14587749D01*
X-2853935Y14587524D01*
X-2853109Y14587319D01*
X-2852279Y14587134D01*
X-2851444Y14586969D01*
X-2850606Y14586825D01*
X-2849764Y14586701D01*
X-2848919Y14586598D01*
X-2848072Y14586515D01*
X-2847224Y14586453D01*
X-2846374Y14586411D01*
X-2845523Y14586391D01*
X-2844673Y14586391D01*
X-2843822Y14586411D01*
X-2842972Y14586453D01*
X-2842124Y14586515D01*
X-2841277Y14586598D01*
X-2840432Y14586701D01*
X-2839590Y14586825D01*
X-2838752Y14586969D01*
X-2837917Y14587134D01*
X-2837087Y14587319D01*
X-2836261Y14587524D01*
X-2835441Y14587749D01*
X-2834626Y14587994D01*
X-2833817Y14588259D01*
X-2833015Y14588544D01*
X-2832221Y14588848D01*
X-2831434Y14589171D01*
X-2830655Y14589513D01*
X-2829884Y14589874D01*
X-2829123Y14590254D01*
X-2828371Y14590652D01*
X-2827629Y14591069D01*
X-2826897Y14591503D01*
X-2826177Y14591955D01*
X-2825467Y14592425D01*
X-2824769Y14592911D01*
X-2824083Y14593415D01*
X-2823410Y14593935D01*
X-2822749Y14594471D01*
X-2822102Y14595023D01*
X-2821468Y14595591D01*
X-2820848Y14596174D01*
X-2820243Y14596772D01*
X-2819653Y14597384D01*
X-2819077Y14598011D01*
X-2818517Y14598652D01*
X-2817973Y14599306D01*
X-2817445Y14599973D01*
X-2816933Y14600653D01*
X-2816438Y14601345D01*
X-2815960Y14602048D01*
X-2815499Y14602764D01*
X-2815056Y14603490D01*
X-2814630Y14604227D01*
X-2814223Y14604974D01*
X-2813834Y14605730D01*
X-2813463Y14606496D01*
X-2813112Y14607271D01*
X-2812779Y14608054D01*
X-2812465Y14608845D01*
X-2812171Y14609643D01*
X-2811896Y14610449D01*
X-2811641Y14611260D01*
X-2811406Y14612078D01*
X-2811191Y14612901D01*
X-2810996Y14613729D01*
X-2810821Y14614562D01*
X-2810666Y14615399D01*
X-2810532Y14616239D01*
X-2810419Y14617082D01*
X-2810326Y14617928D01*
X-2810253Y14618776D01*
X-2810201Y14619625D01*
X-2810170Y14620475D01*
X-2810160Y14621326D01*
X-2810160Y14666246D01*
X-2900000Y14666246D01*
X-2900000Y14666247D02*
X-2900724Y14666238D01*
X-2901447Y14666212D01*
X-2902169Y14666168D01*
X-2902890Y14666107D01*
X-2903610Y14666029D01*
X-2904327Y14665933D01*
X-2905042Y14665820D01*
X-2905754Y14665689D01*
X-2906462Y14665541D01*
X-2907167Y14665377D01*
X-2907867Y14665195D01*
X-2908563Y14664997D01*
X-2909254Y14664781D01*
X-2909940Y14664549D01*
X-2910619Y14664301D01*
X-2911293Y14664036D01*
X-2911960Y14663755D01*
X-2912620Y14663458D01*
X-2913272Y14663145D01*
X-2913917Y14662817D01*
X-2914554Y14662473D01*
X-2915182Y14662113D01*
X-2915801Y14661739D01*
X-2916411Y14661350D01*
X-2917012Y14660946D01*
X-2917602Y14660528D01*
X-2918183Y14660095D01*
X-2918752Y14659649D01*
X-2919311Y14659189D01*
X-2919859Y14658716D01*
X-2920394Y14658229D01*
X-2920918Y14657730D01*
X-2921430Y14657218D01*
X-2921929Y14656694D01*
X-2922416Y14656159D01*
X-2922889Y14655611D01*
X-2923349Y14655052D01*
X-2923795Y14654483D01*
X-2924228Y14653902D01*
X-2924646Y14653312D01*
X-2925050Y14652711D01*
X-2925439Y14652101D01*
X-2925813Y14651482D01*
X-2926173Y14650854D01*
X-2926517Y14650217D01*
X-2926845Y14649572D01*
X-2927158Y14648920D01*
X-2927455Y14648260D01*
X-2927736Y14647593D01*
X-2928001Y14646919D01*
X-2928249Y14646240D01*
X-2928481Y14645554D01*
X-2928697Y14644863D01*
X-2928895Y14644167D01*
X-2929077Y14643467D01*
X-2929241Y14642762D01*
X-2929389Y14642054D01*
X-2929520Y14641342D01*
X-2929633Y14640627D01*
X-2929729Y14639910D01*
X-2929807Y14639190D01*
X-2929868Y14638469D01*
X-2929912Y14637747D01*
X-2929938Y14637024D01*
X-2929947Y14636300D01*
X-2929947Y14596371D01*
X-2629947Y14114058D02*
X-2510160Y14114058D01*
X-2629947Y14114058D02*
X-2629947Y14173952D01*
X-2609982Y14173952D01*
X-2510160Y14258049D02*
X-2510160Y14307960D01*
X-2510160Y14258049D02*
X-2510169Y14257325D01*
X-2510195Y14256602D01*
X-2510239Y14255880D01*
X-2510300Y14255159D01*
X-2510378Y14254439D01*
X-2510474Y14253722D01*
X-2510587Y14253007D01*
X-2510718Y14252295D01*
X-2510866Y14251587D01*
X-2511030Y14250882D01*
X-2511212Y14250182D01*
X-2511410Y14249486D01*
X-2511626Y14248795D01*
X-2511858Y14248109D01*
X-2512106Y14247430D01*
X-2512371Y14246756D01*
X-2512652Y14246089D01*
X-2512949Y14245429D01*
X-2513262Y14244777D01*
X-2513590Y14244132D01*
X-2513934Y14243495D01*
X-2514294Y14242867D01*
X-2514668Y14242248D01*
X-2515057Y14241638D01*
X-2515461Y14241037D01*
X-2515879Y14240447D01*
X-2516312Y14239866D01*
X-2516758Y14239297D01*
X-2517218Y14238738D01*
X-2517691Y14238190D01*
X-2518178Y14237655D01*
X-2518677Y14237131D01*
X-2519189Y14236619D01*
X-2519713Y14236120D01*
X-2520248Y14235633D01*
X-2520796Y14235160D01*
X-2521355Y14234700D01*
X-2521924Y14234254D01*
X-2522505Y14233821D01*
X-2523095Y14233403D01*
X-2523696Y14232999D01*
X-2524306Y14232610D01*
X-2524925Y14232236D01*
X-2525553Y14231876D01*
X-2526190Y14231532D01*
X-2526835Y14231204D01*
X-2527487Y14230891D01*
X-2528147Y14230594D01*
X-2528814Y14230313D01*
X-2529488Y14230048D01*
X-2530167Y14229800D01*
X-2530853Y14229568D01*
X-2531544Y14229352D01*
X-2532240Y14229154D01*
X-2532940Y14228972D01*
X-2533645Y14228808D01*
X-2534353Y14228660D01*
X-2535065Y14228529D01*
X-2535780Y14228416D01*
X-2536497Y14228320D01*
X-2537217Y14228242D01*
X-2537938Y14228181D01*
X-2538660Y14228137D01*
X-2539383Y14228111D01*
X-2540107Y14228102D01*
X-2590018Y14228102D01*
X-2590990Y14228114D01*
X-2591962Y14228149D01*
X-2592933Y14228209D01*
X-2593901Y14228291D01*
X-2594868Y14228398D01*
X-2595832Y14228528D01*
X-2596792Y14228681D01*
X-2597748Y14228857D01*
X-2598700Y14229057D01*
X-2599646Y14229280D01*
X-2600587Y14229526D01*
X-2601522Y14229795D01*
X-2602449Y14230086D01*
X-2603369Y14230400D01*
X-2604282Y14230737D01*
X-2605186Y14231095D01*
X-2606081Y14231475D01*
X-2606966Y14231877D01*
X-2607841Y14232301D01*
X-2608706Y14232745D01*
X-2609560Y14233211D01*
X-2610402Y14233697D01*
X-2611232Y14234204D01*
X-2612050Y14234730D01*
X-2612854Y14235277D01*
X-2613645Y14235842D01*
X-2614422Y14236427D01*
X-2615184Y14237031D01*
X-2615931Y14237653D01*
X-2616663Y14238293D01*
X-2617380Y14238951D01*
X-2618080Y14239626D01*
X-2618763Y14240317D01*
X-2619429Y14241026D01*
X-2620078Y14241750D01*
X-2620709Y14242489D01*
X-2621322Y14243244D01*
X-2621916Y14244014D01*
X-2622492Y14244798D01*
X-2623048Y14245596D01*
X-2623584Y14246407D01*
X-2624101Y14247230D01*
X-2624598Y14248067D01*
X-2625073Y14248914D01*
X-2625529Y14249774D01*
X-2625963Y14250644D01*
X-2626375Y14251524D01*
X-2626767Y14252415D01*
X-2627136Y14253314D01*
X-2627483Y14254222D01*
X-2627808Y14255139D01*
X-2628111Y14256063D01*
X-2628391Y14256994D01*
X-2628649Y14257932D01*
X-2628883Y14258875D01*
X-2629095Y14259824D01*
X-2629283Y14260778D01*
X-2629448Y14261737D01*
X-2629589Y14262699D01*
X-2629707Y14263664D01*
X-2629802Y14264632D01*
X-2629873Y14265601D01*
X-2629920Y14266573D01*
X-2629944Y14267545D01*
X-2629944Y14268517D01*
X-2629920Y14269489D01*
X-2629873Y14270461D01*
X-2629802Y14271430D01*
X-2629707Y14272398D01*
X-2629589Y14273363D01*
X-2629448Y14274325D01*
X-2629283Y14275284D01*
X-2629095Y14276238D01*
X-2628883Y14277187D01*
X-2628649Y14278130D01*
X-2628391Y14279068D01*
X-2628111Y14279999D01*
X-2627808Y14280923D01*
X-2627483Y14281840D01*
X-2627136Y14282748D01*
X-2626767Y14283647D01*
X-2626375Y14284538D01*
X-2625963Y14285418D01*
X-2625529Y14286288D01*
X-2625073Y14287148D01*
X-2624598Y14287996D01*
X-2624101Y14288832D01*
X-2623584Y14289655D01*
X-2623048Y14290466D01*
X-2622492Y14291264D01*
X-2621916Y14292048D01*
X-2621322Y14292818D01*
X-2620709Y14293573D01*
X-2620078Y14294312D01*
X-2619429Y14295036D01*
X-2618763Y14295745D01*
X-2618080Y14296436D01*
X-2617380Y14297111D01*
X-2616663Y14297769D01*
X-2615931Y14298409D01*
X-2615184Y14299031D01*
X-2614422Y14299635D01*
X-2613645Y14300220D01*
X-2612854Y14300785D01*
X-2612050Y14301332D01*
X-2611232Y14301858D01*
X-2610402Y14302365D01*
X-2609560Y14302851D01*
X-2608706Y14303317D01*
X-2607841Y14303761D01*
X-2606966Y14304185D01*
X-2606081Y14304587D01*
X-2605186Y14304967D01*
X-2604282Y14305325D01*
X-2603369Y14305662D01*
X-2602449Y14305976D01*
X-2601522Y14306267D01*
X-2600587Y14306536D01*
X-2599646Y14306782D01*
X-2598700Y14307005D01*
X-2597748Y14307205D01*
X-2596792Y14307381D01*
X-2595832Y14307534D01*
X-2594868Y14307664D01*
X-2593901Y14307771D01*
X-2592933Y14307853D01*
X-2591962Y14307913D01*
X-2590990Y14307948D01*
X-2590018Y14307960D01*
X-2570053Y14307960D01*
X-2570053Y14228102D01*
X-2629947Y14371852D02*
X-2510160Y14411781D01*
X-2629947Y14451710D01*
X-2520142Y14510290D02*
X-2510160Y14510290D01*
X-2520142Y14510290D02*
X-2520142Y14520272D01*
X-2510160Y14520272D01*
X-2510160Y14510290D01*
X-2649911Y14586119D02*
X-2689840Y14636030D01*
X-2510160Y14636030D01*
X-2510160Y14586119D02*
X-2510160Y14685942D01*
X-2510160Y15673768D02*
X-2510160Y15723679D01*
X-2510160Y15673768D02*
X-2510169Y15673044D01*
X-2510195Y15672321D01*
X-2510239Y15671599D01*
X-2510300Y15670878D01*
X-2510378Y15670158D01*
X-2510474Y15669441D01*
X-2510587Y15668726D01*
X-2510718Y15668014D01*
X-2510866Y15667306D01*
X-2511030Y15666601D01*
X-2511212Y15665901D01*
X-2511410Y15665205D01*
X-2511626Y15664514D01*
X-2511858Y15663828D01*
X-2512106Y15663149D01*
X-2512371Y15662475D01*
X-2512652Y15661808D01*
X-2512949Y15661148D01*
X-2513262Y15660496D01*
X-2513590Y15659851D01*
X-2513934Y15659214D01*
X-2514294Y15658586D01*
X-2514668Y15657967D01*
X-2515057Y15657357D01*
X-2515461Y15656756D01*
X-2515879Y15656166D01*
X-2516312Y15655585D01*
X-2516758Y15655016D01*
X-2517218Y15654457D01*
X-2517691Y15653909D01*
X-2518178Y15653374D01*
X-2518677Y15652850D01*
X-2519189Y15652338D01*
X-2519713Y15651839D01*
X-2520248Y15651352D01*
X-2520796Y15650879D01*
X-2521355Y15650419D01*
X-2521924Y15649973D01*
X-2522505Y15649540D01*
X-2523095Y15649122D01*
X-2523696Y15648718D01*
X-2524306Y15648329D01*
X-2524925Y15647955D01*
X-2525553Y15647595D01*
X-2526190Y15647251D01*
X-2526835Y15646923D01*
X-2527487Y15646610D01*
X-2528147Y15646313D01*
X-2528814Y15646032D01*
X-2529488Y15645767D01*
X-2530167Y15645519D01*
X-2530853Y15645287D01*
X-2531544Y15645071D01*
X-2532240Y15644873D01*
X-2532940Y15644691D01*
X-2533645Y15644527D01*
X-2534353Y15644379D01*
X-2535065Y15644248D01*
X-2535780Y15644135D01*
X-2536497Y15644039D01*
X-2537217Y15643961D01*
X-2537938Y15643900D01*
X-2538660Y15643856D01*
X-2539383Y15643830D01*
X-2540107Y15643821D01*
X-2540107Y15643822D02*
X-2590018Y15643822D01*
X-2590018Y15643821D02*
X-2590990Y15643833D01*
X-2591962Y15643868D01*
X-2592933Y15643928D01*
X-2593901Y15644010D01*
X-2594868Y15644117D01*
X-2595832Y15644247D01*
X-2596792Y15644400D01*
X-2597748Y15644576D01*
X-2598700Y15644776D01*
X-2599646Y15644999D01*
X-2600587Y15645245D01*
X-2601522Y15645514D01*
X-2602449Y15645805D01*
X-2603369Y15646119D01*
X-2604282Y15646456D01*
X-2605186Y15646814D01*
X-2606081Y15647194D01*
X-2606966Y15647596D01*
X-2607841Y15648020D01*
X-2608706Y15648464D01*
X-2609560Y15648930D01*
X-2610402Y15649416D01*
X-2611232Y15649923D01*
X-2612050Y15650449D01*
X-2612854Y15650996D01*
X-2613645Y15651561D01*
X-2614422Y15652146D01*
X-2615184Y15652750D01*
X-2615931Y15653372D01*
X-2616663Y15654012D01*
X-2617380Y15654670D01*
X-2618080Y15655345D01*
X-2618763Y15656036D01*
X-2619429Y15656745D01*
X-2620078Y15657469D01*
X-2620709Y15658208D01*
X-2621322Y15658963D01*
X-2621916Y15659733D01*
X-2622492Y15660517D01*
X-2623048Y15661315D01*
X-2623584Y15662126D01*
X-2624101Y15662949D01*
X-2624598Y15663786D01*
X-2625073Y15664633D01*
X-2625529Y15665493D01*
X-2625963Y15666363D01*
X-2626375Y15667243D01*
X-2626767Y15668134D01*
X-2627136Y15669033D01*
X-2627483Y15669941D01*
X-2627808Y15670858D01*
X-2628111Y15671782D01*
X-2628391Y15672713D01*
X-2628649Y15673651D01*
X-2628883Y15674594D01*
X-2629095Y15675543D01*
X-2629283Y15676497D01*
X-2629448Y15677456D01*
X-2629589Y15678418D01*
X-2629707Y15679383D01*
X-2629802Y15680351D01*
X-2629873Y15681320D01*
X-2629920Y15682292D01*
X-2629944Y15683264D01*
X-2629944Y15684236D01*
X-2629920Y15685208D01*
X-2629873Y15686180D01*
X-2629802Y15687149D01*
X-2629707Y15688117D01*
X-2629589Y15689082D01*
X-2629448Y15690044D01*
X-2629283Y15691003D01*
X-2629095Y15691957D01*
X-2628883Y15692906D01*
X-2628649Y15693849D01*
X-2628391Y15694787D01*
X-2628111Y15695718D01*
X-2627808Y15696642D01*
X-2627483Y15697559D01*
X-2627136Y15698467D01*
X-2626767Y15699366D01*
X-2626375Y15700257D01*
X-2625963Y15701137D01*
X-2625529Y15702007D01*
X-2625073Y15702867D01*
X-2624598Y15703715D01*
X-2624101Y15704551D01*
X-2623584Y15705374D01*
X-2623048Y15706185D01*
X-2622492Y15706983D01*
X-2621916Y15707767D01*
X-2621322Y15708537D01*
X-2620709Y15709292D01*
X-2620078Y15710031D01*
X-2619429Y15710755D01*
X-2618763Y15711464D01*
X-2618080Y15712155D01*
X-2617380Y15712830D01*
X-2616663Y15713488D01*
X-2615931Y15714128D01*
X-2615184Y15714750D01*
X-2614422Y15715354D01*
X-2613645Y15715939D01*
X-2612854Y15716504D01*
X-2612050Y15717051D01*
X-2611232Y15717577D01*
X-2610402Y15718084D01*
X-2609560Y15718570D01*
X-2608706Y15719036D01*
X-2607841Y15719480D01*
X-2606966Y15719904D01*
X-2606081Y15720306D01*
X-2605186Y15720686D01*
X-2604282Y15721044D01*
X-2603369Y15721381D01*
X-2602449Y15721695D01*
X-2601522Y15721986D01*
X-2600587Y15722255D01*
X-2599646Y15722501D01*
X-2598700Y15722724D01*
X-2597748Y15722924D01*
X-2596792Y15723100D01*
X-2595832Y15723253D01*
X-2594868Y15723383D01*
X-2593901Y15723490D01*
X-2592933Y15723572D01*
X-2591962Y15723632D01*
X-2590990Y15723667D01*
X-2590018Y15723679D01*
X-2570053Y15723679D01*
X-2570053Y15643822D01*
X-2629947Y15790344D02*
X-2480213Y15790344D01*
X-2479478Y15790335D01*
X-2478744Y15790308D01*
X-2478010Y15790263D01*
X-2477278Y15790200D01*
X-2476547Y15790119D01*
X-2475819Y15790020D01*
X-2475093Y15789903D01*
X-2474371Y15789769D01*
X-2473652Y15789616D01*
X-2472937Y15789447D01*
X-2472226Y15789259D01*
X-2471520Y15789055D01*
X-2470819Y15788833D01*
X-2470124Y15788593D01*
X-2469435Y15788337D01*
X-2468753Y15788064D01*
X-2468077Y15787775D01*
X-2467409Y15787469D01*
X-2466749Y15787146D01*
X-2466096Y15786808D01*
X-2465452Y15786454D01*
X-2464817Y15786083D01*
X-2464192Y15785698D01*
X-2463575Y15785297D01*
X-2462969Y15784881D01*
X-2462374Y15784451D01*
X-2461789Y15784006D01*
X-2461215Y15783546D01*
X-2460653Y15783073D01*
X-2460102Y15782586D01*
X-2459563Y15782086D01*
X-2459037Y15781573D01*
X-2458524Y15781047D01*
X-2458024Y15780508D01*
X-2457537Y15779958D01*
X-2457064Y15779395D01*
X-2456605Y15778821D01*
X-2456159Y15778237D01*
X-2455729Y15777641D01*
X-2455313Y15777035D01*
X-2454912Y15776419D01*
X-2454527Y15775793D01*
X-2454157Y15775158D01*
X-2453802Y15774514D01*
X-2453464Y15773862D01*
X-2453141Y15773201D01*
X-2452835Y15772533D01*
X-2452546Y15771857D01*
X-2452273Y15771175D01*
X-2452017Y15770486D01*
X-2451778Y15769791D01*
X-2451556Y15769090D01*
X-2451351Y15768384D01*
X-2451164Y15767674D01*
X-2450994Y15766959D01*
X-2450841Y15766240D01*
X-2450707Y15765517D01*
X-2450590Y15764791D01*
X-2450491Y15764063D01*
X-2450410Y15763333D01*
X-2450347Y15762600D01*
X-2450302Y15761867D01*
X-2450275Y15761132D01*
X-2450266Y15760397D01*
X-2450267Y15760398D02*
X-2450267Y15750415D01*
X-2679858Y15785353D02*
X-2689840Y15785353D01*
X-2689840Y15795335D01*
X-2679858Y15795335D01*
X-2679858Y15785353D01*
X-2590018Y15862322D02*
X-2550089Y15862322D01*
X-2590018Y15862321D02*
X-2590990Y15862333D01*
X-2591962Y15862368D01*
X-2592933Y15862428D01*
X-2593901Y15862510D01*
X-2594868Y15862617D01*
X-2595832Y15862747D01*
X-2596792Y15862900D01*
X-2597748Y15863076D01*
X-2598700Y15863276D01*
X-2599646Y15863499D01*
X-2600587Y15863745D01*
X-2601522Y15864014D01*
X-2602449Y15864305D01*
X-2603369Y15864619D01*
X-2604282Y15864956D01*
X-2605186Y15865314D01*
X-2606081Y15865694D01*
X-2606966Y15866096D01*
X-2607841Y15866520D01*
X-2608706Y15866964D01*
X-2609560Y15867430D01*
X-2610402Y15867916D01*
X-2611232Y15868423D01*
X-2612050Y15868949D01*
X-2612854Y15869496D01*
X-2613645Y15870061D01*
X-2614422Y15870646D01*
X-2615184Y15871250D01*
X-2615931Y15871872D01*
X-2616663Y15872512D01*
X-2617380Y15873170D01*
X-2618080Y15873845D01*
X-2618763Y15874536D01*
X-2619429Y15875245D01*
X-2620078Y15875969D01*
X-2620709Y15876708D01*
X-2621322Y15877463D01*
X-2621916Y15878233D01*
X-2622492Y15879017D01*
X-2623048Y15879815D01*
X-2623584Y15880626D01*
X-2624101Y15881449D01*
X-2624598Y15882286D01*
X-2625073Y15883133D01*
X-2625529Y15883993D01*
X-2625963Y15884863D01*
X-2626375Y15885743D01*
X-2626767Y15886634D01*
X-2627136Y15887533D01*
X-2627483Y15888441D01*
X-2627808Y15889358D01*
X-2628111Y15890282D01*
X-2628391Y15891213D01*
X-2628649Y15892151D01*
X-2628883Y15893094D01*
X-2629095Y15894043D01*
X-2629283Y15894997D01*
X-2629448Y15895956D01*
X-2629589Y15896918D01*
X-2629707Y15897883D01*
X-2629802Y15898851D01*
X-2629873Y15899820D01*
X-2629920Y15900792D01*
X-2629944Y15901764D01*
X-2629944Y15902736D01*
X-2629920Y15903708D01*
X-2629873Y15904680D01*
X-2629802Y15905649D01*
X-2629707Y15906617D01*
X-2629589Y15907582D01*
X-2629448Y15908544D01*
X-2629283Y15909503D01*
X-2629095Y15910457D01*
X-2628883Y15911406D01*
X-2628649Y15912349D01*
X-2628391Y15913287D01*
X-2628111Y15914218D01*
X-2627808Y15915142D01*
X-2627483Y15916059D01*
X-2627136Y15916967D01*
X-2626767Y15917866D01*
X-2626375Y15918757D01*
X-2625963Y15919637D01*
X-2625529Y15920507D01*
X-2625073Y15921367D01*
X-2624598Y15922215D01*
X-2624101Y15923051D01*
X-2623584Y15923874D01*
X-2623048Y15924685D01*
X-2622492Y15925483D01*
X-2621916Y15926267D01*
X-2621322Y15927037D01*
X-2620709Y15927792D01*
X-2620078Y15928531D01*
X-2619429Y15929255D01*
X-2618763Y15929964D01*
X-2618080Y15930655D01*
X-2617380Y15931330D01*
X-2616663Y15931988D01*
X-2615931Y15932628D01*
X-2615184Y15933250D01*
X-2614422Y15933854D01*
X-2613645Y15934439D01*
X-2612854Y15935004D01*
X-2612050Y15935551D01*
X-2611232Y15936077D01*
X-2610402Y15936584D01*
X-2609560Y15937070D01*
X-2608706Y15937536D01*
X-2607841Y15937980D01*
X-2606966Y15938404D01*
X-2606081Y15938806D01*
X-2605186Y15939186D01*
X-2604282Y15939544D01*
X-2603369Y15939881D01*
X-2602449Y15940195D01*
X-2601522Y15940486D01*
X-2600587Y15940755D01*
X-2599646Y15941001D01*
X-2598700Y15941224D01*
X-2597748Y15941424D01*
X-2596792Y15941600D01*
X-2595832Y15941753D01*
X-2594868Y15941883D01*
X-2593901Y15941990D01*
X-2592933Y15942072D01*
X-2591962Y15942132D01*
X-2590990Y15942167D01*
X-2590018Y15942179D01*
X-2550089Y15942179D01*
X-2549117Y15942167D01*
X-2548145Y15942132D01*
X-2547174Y15942072D01*
X-2546206Y15941990D01*
X-2545239Y15941883D01*
X-2544275Y15941753D01*
X-2543315Y15941600D01*
X-2542359Y15941424D01*
X-2541407Y15941224D01*
X-2540461Y15941001D01*
X-2539520Y15940755D01*
X-2538585Y15940486D01*
X-2537658Y15940195D01*
X-2536738Y15939881D01*
X-2535825Y15939544D01*
X-2534921Y15939186D01*
X-2534026Y15938806D01*
X-2533141Y15938404D01*
X-2532266Y15937980D01*
X-2531401Y15937536D01*
X-2530547Y15937070D01*
X-2529705Y15936584D01*
X-2528875Y15936077D01*
X-2528057Y15935551D01*
X-2527253Y15935004D01*
X-2526462Y15934439D01*
X-2525685Y15933854D01*
X-2524923Y15933250D01*
X-2524176Y15932628D01*
X-2523444Y15931988D01*
X-2522727Y15931330D01*
X-2522027Y15930655D01*
X-2521344Y15929964D01*
X-2520678Y15929255D01*
X-2520029Y15928531D01*
X-2519398Y15927792D01*
X-2518785Y15927037D01*
X-2518191Y15926267D01*
X-2517615Y15925483D01*
X-2517059Y15924685D01*
X-2516523Y15923874D01*
X-2516006Y15923051D01*
X-2515509Y15922215D01*
X-2515034Y15921367D01*
X-2514578Y15920507D01*
X-2514144Y15919637D01*
X-2513732Y15918757D01*
X-2513340Y15917866D01*
X-2512971Y15916967D01*
X-2512624Y15916059D01*
X-2512299Y15915142D01*
X-2511996Y15914218D01*
X-2511716Y15913287D01*
X-2511458Y15912349D01*
X-2511224Y15911406D01*
X-2511012Y15910457D01*
X-2510824Y15909503D01*
X-2510659Y15908544D01*
X-2510518Y15907582D01*
X-2510400Y15906617D01*
X-2510305Y15905649D01*
X-2510234Y15904680D01*
X-2510187Y15903708D01*
X-2510163Y15902736D01*
X-2510163Y15901764D01*
X-2510187Y15900792D01*
X-2510234Y15899820D01*
X-2510305Y15898851D01*
X-2510400Y15897883D01*
X-2510518Y15896918D01*
X-2510659Y15895956D01*
X-2510824Y15894997D01*
X-2511012Y15894043D01*
X-2511224Y15893094D01*
X-2511458Y15892151D01*
X-2511716Y15891213D01*
X-2511996Y15890282D01*
X-2512299Y15889358D01*
X-2512624Y15888441D01*
X-2512971Y15887533D01*
X-2513340Y15886634D01*
X-2513732Y15885743D01*
X-2514144Y15884863D01*
X-2514578Y15883993D01*
X-2515034Y15883133D01*
X-2515509Y15882286D01*
X-2516006Y15881449D01*
X-2516523Y15880626D01*
X-2517059Y15879815D01*
X-2517615Y15879017D01*
X-2518191Y15878233D01*
X-2518785Y15877463D01*
X-2519398Y15876708D01*
X-2520029Y15875969D01*
X-2520678Y15875245D01*
X-2521344Y15874536D01*
X-2522027Y15873845D01*
X-2522727Y15873170D01*
X-2523444Y15872512D01*
X-2524176Y15871872D01*
X-2524923Y15871250D01*
X-2525685Y15870646D01*
X-2526462Y15870061D01*
X-2527253Y15869496D01*
X-2528057Y15868949D01*
X-2528875Y15868423D01*
X-2529705Y15867916D01*
X-2530547Y15867430D01*
X-2531401Y15866964D01*
X-2532266Y15866520D01*
X-2533141Y15866096D01*
X-2534026Y15865694D01*
X-2534921Y15865314D01*
X-2535825Y15864956D01*
X-2536738Y15864619D01*
X-2537658Y15864305D01*
X-2538585Y15864014D01*
X-2539520Y15863745D01*
X-2540461Y15863499D01*
X-2541407Y15863276D01*
X-2542359Y15863076D01*
X-2543315Y15862900D01*
X-2544275Y15862747D01*
X-2545239Y15862617D01*
X-2546206Y15862510D01*
X-2547174Y15862428D01*
X-2548145Y15862368D01*
X-2549117Y15862333D01*
X-2550089Y15862321D01*
X-2629947Y16006072D02*
X-2510160Y16046000D01*
X-2629947Y16085929D01*
X-2629947Y16156528D02*
X-2510160Y16156528D01*
X-2629947Y16156528D02*
X-2629947Y16216421D01*
X-2609982Y16216421D01*
X-2689840Y16276321D02*
X-2510160Y16276321D01*
X-2629947Y16276321D02*
X-2629947Y16326232D01*
X-2629938Y16326956D01*
X-2629912Y16327679D01*
X-2629868Y16328401D01*
X-2629807Y16329122D01*
X-2629729Y16329842D01*
X-2629633Y16330559D01*
X-2629520Y16331274D01*
X-2629389Y16331986D01*
X-2629241Y16332694D01*
X-2629077Y16333399D01*
X-2628895Y16334099D01*
X-2628697Y16334795D01*
X-2628481Y16335486D01*
X-2628249Y16336172D01*
X-2628001Y16336851D01*
X-2627736Y16337525D01*
X-2627455Y16338192D01*
X-2627158Y16338852D01*
X-2626845Y16339504D01*
X-2626517Y16340149D01*
X-2626173Y16340786D01*
X-2625813Y16341414D01*
X-2625439Y16342033D01*
X-2625050Y16342643D01*
X-2624646Y16343244D01*
X-2624228Y16343834D01*
X-2623795Y16344415D01*
X-2623349Y16344984D01*
X-2622889Y16345543D01*
X-2622416Y16346091D01*
X-2621929Y16346626D01*
X-2621430Y16347150D01*
X-2620918Y16347662D01*
X-2620394Y16348161D01*
X-2619859Y16348648D01*
X-2619311Y16349121D01*
X-2618752Y16349581D01*
X-2618183Y16350027D01*
X-2617602Y16350460D01*
X-2617012Y16350878D01*
X-2616411Y16351282D01*
X-2615801Y16351671D01*
X-2615182Y16352045D01*
X-2614554Y16352405D01*
X-2613917Y16352749D01*
X-2613272Y16353077D01*
X-2612620Y16353390D01*
X-2611960Y16353687D01*
X-2611293Y16353968D01*
X-2610619Y16354233D01*
X-2609940Y16354481D01*
X-2609254Y16354713D01*
X-2608563Y16354929D01*
X-2607867Y16355127D01*
X-2607167Y16355309D01*
X-2606462Y16355473D01*
X-2605754Y16355621D01*
X-2605042Y16355752D01*
X-2604327Y16355865D01*
X-2603610Y16355961D01*
X-2602890Y16356039D01*
X-2602169Y16356100D01*
X-2601447Y16356144D01*
X-2600724Y16356170D01*
X-2600000Y16356179D01*
X-2510160Y16356179D01*
D12*
X-4000000Y14495000D03*
X-4000000Y14305000D03*
X-4000000Y13795000D03*
X-4000000Y13605000D03*
X-4000000Y13095000D03*
X-4000000Y12905000D03*
X-3900000Y15170000D03*
X-3900000Y14980000D03*
X-3075000Y15145000D03*
X-3075000Y14955000D03*
D13*
X-3420000Y14450000D03*
X-3230000Y14450000D03*
D14*
X-3427000Y14200000D03*
X-3173000Y14200000D03*
D12*
X-3200000Y16405000D03*
X-3200000Y16595000D03*
X-3400000Y16405000D03*
X-3400000Y16595000D03*
X-3600000Y16405000D03*
X-3600000Y16595000D03*
X-2800000Y16405000D03*
X-2800000Y16595000D03*
X-3600000Y17595000D03*
X-3600000Y17405000D03*
X-3400000Y17595000D03*
X-3400000Y17405000D03*
X-3200000Y17595000D03*
X-3200000Y17405000D03*
X-3000000Y17595000D03*
X-3000000Y17405000D03*
D15*
X-3055000Y12850000D03*
X-2545000Y12850000D03*
D16*
X-4203000Y14623000D03*
X-4268000Y14623000D03*
X-4333000Y14623000D03*
X-4398000Y14623000D03*
X-4203000Y14183000D03*
X-4268000Y14183000D03*
X-4333000Y14183000D03*
X-4398000Y14183000D03*
X-4203000Y13923000D03*
X-4268000Y13923000D03*
X-4333000Y13923000D03*
X-4398000Y13923000D03*
X-4203000Y13483000D03*
X-4268000Y13483000D03*
X-4333000Y13483000D03*
X-4398000Y13483000D03*
X-4203000Y13223000D03*
X-4268000Y13223000D03*
X-4333000Y13223000D03*
X-4398000Y13223000D03*
X-4203000Y12783000D03*
X-4268000Y12783000D03*
X-4333000Y12783000D03*
X-4398000Y12783000D03*
D17*
X-3237040Y15200940D03*
X-3237040Y15249200D03*
X-3237040Y15300000D03*
X-3237040Y15350800D03*
X-3237040Y15399060D03*
D18*
X-3325940Y15487960D03*
X-3374200Y15487960D03*
X-3425000Y15487960D03*
X-3475800Y15487960D03*
X-3524060Y15487960D03*
D17*
X-3612960Y15399060D03*
X-3612960Y15350800D03*
X-3612960Y15300000D03*
X-3612960Y15249200D03*
X-3612960Y15200940D03*
D18*
X-3524060Y15112040D03*
X-3475800Y15112040D03*
X-3425000Y15112040D03*
X-3374200Y15112040D03*
X-3325940Y15112040D03*
D19*
X-3425000Y15300000D03*
D20*
X-2765000Y17025000D03*
X-2765000Y17075000D03*
X-2765000Y16925000D03*
X-2765000Y16975000D03*
D21*
X-2825000Y16840000D03*
X-2875000Y16840000D03*
X-2925000Y16840000D03*
X-2975000Y16840000D03*
X-2825000Y17160000D03*
X-2875000Y17160000D03*
X-2925000Y17160000D03*
X-2975000Y17160000D03*
D22*
X-2981500Y17000000D03*
D23*
X-2999000Y16950000D03*
D24*
X-2950000Y16867500D03*
D23*
X-2999000Y17050000D03*
D24*
X-2950500Y17132500D03*
D25*
X-3500000Y16881500D03*
X-3500000Y17118500D03*
D26*
X-5500000Y13175000D03*
X-5500000Y12825000D03*
X-5500000Y13775000D03*
X-5500000Y13425000D03*
X-5500000Y14375000D03*
X-5500000Y14025000D03*
D27*
X-3400000Y13550000D03*
X-3400000Y13850000D03*
X-3400000Y12850000D03*
X-3400000Y13150000D03*
X-4250000Y15525000D03*
X-4250000Y15225000D03*
X-4250000Y14925000D03*
D28*
X-4810000Y14400000D03*
X-4590000Y14495000D03*
X-4590000Y14305000D03*
X-4810000Y13700000D03*
X-4590000Y13795000D03*
X-4590000Y13605000D03*
X-4810000Y13000000D03*
X-4590000Y13095000D03*
X-4590000Y12905000D03*
D12*
X-4100000Y17105000D03*
X-4100000Y17295000D03*
X-3900000Y17295000D03*
X-3900000Y17105000D03*
X-3900000Y16895000D03*
X-3900000Y16705000D03*
X-4100000Y16705000D03*
X-4100000Y16895000D03*
X-5300000Y13095000D03*
X-5300000Y12905000D03*
X-5300000Y13695000D03*
X-5300000Y13505000D03*
X-5300000Y14295000D03*
X-5300000Y14105000D03*
X-2850000Y15230000D03*
X-2850000Y15420000D03*
X-2650000Y15420000D03*
X-2650000Y15230000D03*
X-3100000Y15630000D03*
X-3100000Y15820000D03*
X-3975000Y15930000D03*
X-3975000Y16120000D03*
X-3775000Y15930000D03*
X-3775000Y16120000D03*
X-2900000Y15820000D03*
X-2900000Y15630000D03*
X-3000000Y16405000D03*
X-3000000Y16595000D03*
X-2800000Y17595000D03*
X-2800000Y17405000D03*
D29*
X-4954000Y15460000D03*
X-4954000Y15380000D03*
X-4954000Y15300000D03*
X-4954000Y15220000D03*
X-4954000Y15140000D03*
D30*
X-5487000Y14855000D03*
X-5487000Y15745000D03*
X-4942000Y14855000D03*
X-4942000Y15745000D03*
D31*
X-5245000Y15080000D02*
X-5244986Y15081104D01*
X-5244946Y15082208D01*
X-5244878Y15083310D01*
X-5244783Y15084411D01*
X-5244662Y15085508D01*
X-5244513Y15086603D01*
X-5244337Y15087693D01*
X-5244135Y15088779D01*
X-5243907Y15089860D01*
X-5243651Y15090934D01*
X-5243370Y15092002D01*
X-5243062Y15093063D01*
X-5242729Y15094116D01*
X-5242369Y15095160D01*
X-5241985Y15096195D01*
X-5241575Y15097221D01*
X-5241139Y15098236D01*
X-5240680Y15099240D01*
X-5240195Y15100233D01*
X-5239686Y15101213D01*
X-5239154Y15102180D01*
X-5238598Y15103135D01*
X-5238018Y15104075D01*
X-5237416Y15105001D01*
X-5236791Y15105911D01*
X-5236144Y15106806D01*
X-5235476Y15107685D01*
X-5234785Y15108548D01*
X-5234074Y15109393D01*
X-5233343Y15110220D01*
X-5232591Y15111029D01*
X-5231820Y15111820D01*
X-5231029Y15112591D01*
X-5230220Y15113343D01*
X-5229393Y15114074D01*
X-5228548Y15114785D01*
X-5227685Y15115476D01*
X-5226806Y15116144D01*
X-5225911Y15116791D01*
X-5225001Y15117416D01*
X-5224075Y15118018D01*
X-5223135Y15118598D01*
X-5222180Y15119154D01*
X-5221213Y15119686D01*
X-5220233Y15120195D01*
X-5219240Y15120680D01*
X-5218236Y15121139D01*
X-5217221Y15121575D01*
X-5216195Y15121985D01*
X-5215160Y15122369D01*
X-5214116Y15122729D01*
X-5213063Y15123062D01*
X-5212002Y15123370D01*
X-5210934Y15123651D01*
X-5209860Y15123907D01*
X-5208779Y15124135D01*
X-5207693Y15124337D01*
X-5206603Y15124513D01*
X-5205508Y15124662D01*
X-5204411Y15124783D01*
X-5203310Y15124878D01*
X-5202208Y15124946D01*
X-5201104Y15124986D01*
X-5200000Y15125000D01*
X-5198896Y15124986D01*
X-5197792Y15124946D01*
X-5196690Y15124878D01*
X-5195589Y15124783D01*
X-5194492Y15124662D01*
X-5193397Y15124513D01*
X-5192307Y15124337D01*
X-5191221Y15124135D01*
X-5190140Y15123907D01*
X-5189066Y15123651D01*
X-5187998Y15123370D01*
X-5186937Y15123062D01*
X-5185884Y15122729D01*
X-5184840Y15122369D01*
X-5183805Y15121985D01*
X-5182779Y15121575D01*
X-5181764Y15121139D01*
X-5180760Y15120680D01*
X-5179767Y15120195D01*
X-5178787Y15119686D01*
X-5177820Y15119154D01*
X-5176865Y15118598D01*
X-5175925Y15118018D01*
X-5174999Y15117416D01*
X-5174089Y15116791D01*
X-5173194Y15116144D01*
X-5172315Y15115476D01*
X-5171452Y15114785D01*
X-5170607Y15114074D01*
X-5169780Y15113343D01*
X-5168971Y15112591D01*
X-5168180Y15111820D01*
X-5167409Y15111029D01*
X-5166657Y15110220D01*
X-5165926Y15109393D01*
X-5165215Y15108548D01*
X-5164524Y15107685D01*
X-5163856Y15106806D01*
X-5163209Y15105911D01*
X-5162584Y15105001D01*
X-5161982Y15104075D01*
X-5161402Y15103135D01*
X-5160846Y15102180D01*
X-5160314Y15101213D01*
X-5159805Y15100233D01*
X-5159320Y15099240D01*
X-5158861Y15098236D01*
X-5158425Y15097221D01*
X-5158015Y15096195D01*
X-5157631Y15095160D01*
X-5157271Y15094116D01*
X-5156938Y15093063D01*
X-5156630Y15092002D01*
X-5156349Y15090934D01*
X-5156093Y15089860D01*
X-5155865Y15088779D01*
X-5155663Y15087693D01*
X-5155487Y15086603D01*
X-5155338Y15085508D01*
X-5155217Y15084411D01*
X-5155122Y15083310D01*
X-5155054Y15082208D01*
X-5155014Y15081104D01*
X-5155000Y15080000D01*
X-5155014Y15078896D01*
X-5155054Y15077792D01*
X-5155122Y15076690D01*
X-5155217Y15075589D01*
X-5155338Y15074492D01*
X-5155487Y15073397D01*
X-5155663Y15072307D01*
X-5155865Y15071221D01*
X-5156093Y15070140D01*
X-5156349Y15069066D01*
X-5156630Y15067998D01*
X-5156938Y15066937D01*
X-5157271Y15065884D01*
X-5157631Y15064840D01*
X-5158015Y15063805D01*
X-5158425Y15062779D01*
X-5158861Y15061764D01*
X-5159320Y15060760D01*
X-5159805Y15059767D01*
X-5160314Y15058787D01*
X-5160846Y15057820D01*
X-5161402Y15056865D01*
X-5161982Y15055925D01*
X-5162584Y15054999D01*
X-5163209Y15054089D01*
X-5163856Y15053194D01*
X-5164524Y15052315D01*
X-5165215Y15051452D01*
X-5165926Y15050607D01*
X-5166657Y15049780D01*
X-5167409Y15048971D01*
X-5168180Y15048180D01*
X-5168971Y15047409D01*
X-5169780Y15046657D01*
X-5170607Y15045926D01*
X-5171452Y15045215D01*
X-5172315Y15044524D01*
X-5173194Y15043856D01*
X-5174089Y15043209D01*
X-5174999Y15042584D01*
X-5175925Y15041982D01*
X-5176865Y15041402D01*
X-5177820Y15040846D01*
X-5178787Y15040314D01*
X-5179767Y15039805D01*
X-5180760Y15039320D01*
X-5181764Y15038861D01*
X-5182779Y15038425D01*
X-5183805Y15038015D01*
X-5184840Y15037631D01*
X-5185884Y15037271D01*
X-5186937Y15036938D01*
X-5187998Y15036630D01*
X-5189066Y15036349D01*
X-5190140Y15036093D01*
X-5191221Y15035865D01*
X-5192307Y15035663D01*
X-5193397Y15035487D01*
X-5194492Y15035338D01*
X-5195589Y15035217D01*
X-5196690Y15035122D01*
X-5197792Y15035054D01*
X-5198896Y15035014D01*
X-5200000Y15035000D01*
X-5201104Y15035014D01*
X-5202208Y15035054D01*
X-5203310Y15035122D01*
X-5204411Y15035217D01*
X-5205508Y15035338D01*
X-5206603Y15035487D01*
X-5207693Y15035663D01*
X-5208779Y15035865D01*
X-5209860Y15036093D01*
X-5210934Y15036349D01*
X-5212002Y15036630D01*
X-5213063Y15036938D01*
X-5214116Y15037271D01*
X-5215160Y15037631D01*
X-5216195Y15038015D01*
X-5217221Y15038425D01*
X-5218236Y15038861D01*
X-5219240Y15039320D01*
X-5220233Y15039805D01*
X-5221213Y15040314D01*
X-5222180Y15040846D01*
X-5223135Y15041402D01*
X-5224075Y15041982D01*
X-5225001Y15042584D01*
X-5225911Y15043209D01*
X-5226806Y15043856D01*
X-5227685Y15044524D01*
X-5228548Y15045215D01*
X-5229393Y15045926D01*
X-5230220Y15046657D01*
X-5231029Y15047409D01*
X-5231820Y15048180D01*
X-5232591Y15048971D01*
X-5233343Y15049780D01*
X-5234074Y15050607D01*
X-5234785Y15051452D01*
X-5235476Y15052315D01*
X-5236144Y15053194D01*
X-5236791Y15054089D01*
X-5237416Y15054999D01*
X-5238018Y15055925D01*
X-5238598Y15056865D01*
X-5239154Y15057820D01*
X-5239686Y15058787D01*
X-5240195Y15059767D01*
X-5240680Y15060760D01*
X-5241139Y15061764D01*
X-5241575Y15062779D01*
X-5241985Y15063805D01*
X-5242369Y15064840D01*
X-5242729Y15065884D01*
X-5243062Y15066937D01*
X-5243370Y15067998D01*
X-5243651Y15069066D01*
X-5243907Y15070140D01*
X-5244135Y15071221D01*
X-5244337Y15072307D01*
X-5244513Y15073397D01*
X-5244662Y15074492D01*
X-5244783Y15075589D01*
X-5244878Y15076690D01*
X-5244946Y15077792D01*
X-5244986Y15078896D01*
X-5245000Y15080000D01*
D32*
X-5200000Y15080000D03*
D31*
X-5245000Y15520000D02*
X-5244986Y15521104D01*
X-5244946Y15522208D01*
X-5244878Y15523310D01*
X-5244783Y15524411D01*
X-5244662Y15525508D01*
X-5244513Y15526603D01*
X-5244337Y15527693D01*
X-5244135Y15528779D01*
X-5243907Y15529860D01*
X-5243651Y15530934D01*
X-5243370Y15532002D01*
X-5243062Y15533063D01*
X-5242729Y15534116D01*
X-5242369Y15535160D01*
X-5241985Y15536195D01*
X-5241575Y15537221D01*
X-5241139Y15538236D01*
X-5240680Y15539240D01*
X-5240195Y15540233D01*
X-5239686Y15541213D01*
X-5239154Y15542180D01*
X-5238598Y15543135D01*
X-5238018Y15544075D01*
X-5237416Y15545001D01*
X-5236791Y15545911D01*
X-5236144Y15546806D01*
X-5235476Y15547685D01*
X-5234785Y15548548D01*
X-5234074Y15549393D01*
X-5233343Y15550220D01*
X-5232591Y15551029D01*
X-5231820Y15551820D01*
X-5231029Y15552591D01*
X-5230220Y15553343D01*
X-5229393Y15554074D01*
X-5228548Y15554785D01*
X-5227685Y15555476D01*
X-5226806Y15556144D01*
X-5225911Y15556791D01*
X-5225001Y15557416D01*
X-5224075Y15558018D01*
X-5223135Y15558598D01*
X-5222180Y15559154D01*
X-5221213Y15559686D01*
X-5220233Y15560195D01*
X-5219240Y15560680D01*
X-5218236Y15561139D01*
X-5217221Y15561575D01*
X-5216195Y15561985D01*
X-5215160Y15562369D01*
X-5214116Y15562729D01*
X-5213063Y15563062D01*
X-5212002Y15563370D01*
X-5210934Y15563651D01*
X-5209860Y15563907D01*
X-5208779Y15564135D01*
X-5207693Y15564337D01*
X-5206603Y15564513D01*
X-5205508Y15564662D01*
X-5204411Y15564783D01*
X-5203310Y15564878D01*
X-5202208Y15564946D01*
X-5201104Y15564986D01*
X-5200000Y15565000D01*
X-5198896Y15564986D01*
X-5197792Y15564946D01*
X-5196690Y15564878D01*
X-5195589Y15564783D01*
X-5194492Y15564662D01*
X-5193397Y15564513D01*
X-5192307Y15564337D01*
X-5191221Y15564135D01*
X-5190140Y15563907D01*
X-5189066Y15563651D01*
X-5187998Y15563370D01*
X-5186937Y15563062D01*
X-5185884Y15562729D01*
X-5184840Y15562369D01*
X-5183805Y15561985D01*
X-5182779Y15561575D01*
X-5181764Y15561139D01*
X-5180760Y15560680D01*
X-5179767Y15560195D01*
X-5178787Y15559686D01*
X-5177820Y15559154D01*
X-5176865Y15558598D01*
X-5175925Y15558018D01*
X-5174999Y15557416D01*
X-5174089Y15556791D01*
X-5173194Y15556144D01*
X-5172315Y15555476D01*
X-5171452Y15554785D01*
X-5170607Y15554074D01*
X-5169780Y15553343D01*
X-5168971Y15552591D01*
X-5168180Y15551820D01*
X-5167409Y15551029D01*
X-5166657Y15550220D01*
X-5165926Y15549393D01*
X-5165215Y15548548D01*
X-5164524Y15547685D01*
X-5163856Y15546806D01*
X-5163209Y15545911D01*
X-5162584Y15545001D01*
X-5161982Y15544075D01*
X-5161402Y15543135D01*
X-5160846Y15542180D01*
X-5160314Y15541213D01*
X-5159805Y15540233D01*
X-5159320Y15539240D01*
X-5158861Y15538236D01*
X-5158425Y15537221D01*
X-5158015Y15536195D01*
X-5157631Y15535160D01*
X-5157271Y15534116D01*
X-5156938Y15533063D01*
X-5156630Y15532002D01*
X-5156349Y15530934D01*
X-5156093Y15529860D01*
X-5155865Y15528779D01*
X-5155663Y15527693D01*
X-5155487Y15526603D01*
X-5155338Y15525508D01*
X-5155217Y15524411D01*
X-5155122Y15523310D01*
X-5155054Y15522208D01*
X-5155014Y15521104D01*
X-5155000Y15520000D01*
X-5155014Y15518896D01*
X-5155054Y15517792D01*
X-5155122Y15516690D01*
X-5155217Y15515589D01*
X-5155338Y15514492D01*
X-5155487Y15513397D01*
X-5155663Y15512307D01*
X-5155865Y15511221D01*
X-5156093Y15510140D01*
X-5156349Y15509066D01*
X-5156630Y15507998D01*
X-5156938Y15506937D01*
X-5157271Y15505884D01*
X-5157631Y15504840D01*
X-5158015Y15503805D01*
X-5158425Y15502779D01*
X-5158861Y15501764D01*
X-5159320Y15500760D01*
X-5159805Y15499767D01*
X-5160314Y15498787D01*
X-5160846Y15497820D01*
X-5161402Y15496865D01*
X-5161982Y15495925D01*
X-5162584Y15494999D01*
X-5163209Y15494089D01*
X-5163856Y15493194D01*
X-5164524Y15492315D01*
X-5165215Y15491452D01*
X-5165926Y15490607D01*
X-5166657Y15489780D01*
X-5167409Y15488971D01*
X-5168180Y15488180D01*
X-5168971Y15487409D01*
X-5169780Y15486657D01*
X-5170607Y15485926D01*
X-5171452Y15485215D01*
X-5172315Y15484524D01*
X-5173194Y15483856D01*
X-5174089Y15483209D01*
X-5174999Y15482584D01*
X-5175925Y15481982D01*
X-5176865Y15481402D01*
X-5177820Y15480846D01*
X-5178787Y15480314D01*
X-5179767Y15479805D01*
X-5180760Y15479320D01*
X-5181764Y15478861D01*
X-5182779Y15478425D01*
X-5183805Y15478015D01*
X-5184840Y15477631D01*
X-5185884Y15477271D01*
X-5186937Y15476938D01*
X-5187998Y15476630D01*
X-5189066Y15476349D01*
X-5190140Y15476093D01*
X-5191221Y15475865D01*
X-5192307Y15475663D01*
X-5193397Y15475487D01*
X-5194492Y15475338D01*
X-5195589Y15475217D01*
X-5196690Y15475122D01*
X-5197792Y15475054D01*
X-5198896Y15475014D01*
X-5200000Y15475000D01*
X-5201104Y15475014D01*
X-5202208Y15475054D01*
X-5203310Y15475122D01*
X-5204411Y15475217D01*
X-5205508Y15475338D01*
X-5206603Y15475487D01*
X-5207693Y15475663D01*
X-5208779Y15475865D01*
X-5209860Y15476093D01*
X-5210934Y15476349D01*
X-5212002Y15476630D01*
X-5213063Y15476938D01*
X-5214116Y15477271D01*
X-5215160Y15477631D01*
X-5216195Y15478015D01*
X-5217221Y15478425D01*
X-5218236Y15478861D01*
X-5219240Y15479320D01*
X-5220233Y15479805D01*
X-5221213Y15480314D01*
X-5222180Y15480846D01*
X-5223135Y15481402D01*
X-5224075Y15481982D01*
X-5225001Y15482584D01*
X-5225911Y15483209D01*
X-5226806Y15483856D01*
X-5227685Y15484524D01*
X-5228548Y15485215D01*
X-5229393Y15485926D01*
X-5230220Y15486657D01*
X-5231029Y15487409D01*
X-5231820Y15488180D01*
X-5232591Y15488971D01*
X-5233343Y15489780D01*
X-5234074Y15490607D01*
X-5234785Y15491452D01*
X-5235476Y15492315D01*
X-5236144Y15493194D01*
X-5236791Y15494089D01*
X-5237416Y15494999D01*
X-5238018Y15495925D01*
X-5238598Y15496865D01*
X-5239154Y15497820D01*
X-5239686Y15498787D01*
X-5240195Y15499767D01*
X-5240680Y15500760D01*
X-5241139Y15501764D01*
X-5241575Y15502779D01*
X-5241985Y15503805D01*
X-5242369Y15504840D01*
X-5242729Y15505884D01*
X-5243062Y15506937D01*
X-5243370Y15507998D01*
X-5243651Y15509066D01*
X-5243907Y15510140D01*
X-5244135Y15511221D01*
X-5244337Y15512307D01*
X-5244513Y15513397D01*
X-5244662Y15514492D01*
X-5244783Y15515589D01*
X-5244878Y15516690D01*
X-5244946Y15517792D01*
X-5244986Y15518896D01*
X-5245000Y15520000D01*
D32*
X-5200000Y15520000D03*
D31*
X-4865000Y17250000D02*
X-4864980Y17251595D01*
X-4864922Y17253189D01*
X-4864824Y17254782D01*
X-4864687Y17256371D01*
X-4864511Y17257957D01*
X-4864296Y17259537D01*
X-4864043Y17261113D01*
X-4863751Y17262681D01*
X-4863421Y17264242D01*
X-4863052Y17265794D01*
X-4862645Y17267336D01*
X-4862201Y17268869D01*
X-4861719Y17270389D01*
X-4861200Y17271898D01*
X-4860645Y17273393D01*
X-4860052Y17274874D01*
X-4859424Y17276341D01*
X-4858759Y17277791D01*
X-4858060Y17279225D01*
X-4857325Y17280641D01*
X-4856556Y17282038D01*
X-4855752Y17283417D01*
X-4854915Y17284775D01*
X-4854046Y17286112D01*
X-4853143Y17287428D01*
X-4852208Y17288720D01*
X-4851243Y17289990D01*
X-4850246Y17291236D01*
X-4849219Y17292456D01*
X-4848162Y17293651D01*
X-4847076Y17294820D01*
X-4845962Y17295962D01*
X-4844820Y17297076D01*
X-4843651Y17298162D01*
X-4842456Y17299219D01*
X-4841236Y17300246D01*
X-4839990Y17301243D01*
X-4838720Y17302208D01*
X-4837428Y17303143D01*
X-4836112Y17304046D01*
X-4834775Y17304915D01*
X-4833417Y17305752D01*
X-4832038Y17306556D01*
X-4830641Y17307325D01*
X-4829225Y17308060D01*
X-4827791Y17308759D01*
X-4826341Y17309424D01*
X-4824874Y17310052D01*
X-4823393Y17310645D01*
X-4821898Y17311200D01*
X-4820389Y17311719D01*
X-4818869Y17312201D01*
X-4817336Y17312645D01*
X-4815794Y17313052D01*
X-4814242Y17313421D01*
X-4812681Y17313751D01*
X-4811113Y17314043D01*
X-4809537Y17314296D01*
X-4807957Y17314511D01*
X-4806371Y17314687D01*
X-4804782Y17314824D01*
X-4803189Y17314922D01*
X-4801595Y17314980D01*
X-4800000Y17315000D01*
X-4798405Y17314980D01*
X-4796811Y17314922D01*
X-4795218Y17314824D01*
X-4793629Y17314687D01*
X-4792043Y17314511D01*
X-4790463Y17314296D01*
X-4788887Y17314043D01*
X-4787319Y17313751D01*
X-4785758Y17313421D01*
X-4784206Y17313052D01*
X-4782664Y17312645D01*
X-4781131Y17312201D01*
X-4779611Y17311719D01*
X-4778102Y17311200D01*
X-4776607Y17310645D01*
X-4775126Y17310052D01*
X-4773659Y17309424D01*
X-4772209Y17308759D01*
X-4770775Y17308060D01*
X-4769359Y17307325D01*
X-4767962Y17306556D01*
X-4766583Y17305752D01*
X-4765225Y17304915D01*
X-4763888Y17304046D01*
X-4762572Y17303143D01*
X-4761280Y17302208D01*
X-4760010Y17301243D01*
X-4758764Y17300246D01*
X-4757544Y17299219D01*
X-4756349Y17298162D01*
X-4755180Y17297076D01*
X-4754038Y17295962D01*
X-4752924Y17294820D01*
X-4751838Y17293651D01*
X-4750781Y17292456D01*
X-4749754Y17291236D01*
X-4748757Y17289990D01*
X-4747792Y17288720D01*
X-4746857Y17287428D01*
X-4745954Y17286112D01*
X-4745085Y17284775D01*
X-4744248Y17283417D01*
X-4743444Y17282038D01*
X-4742675Y17280641D01*
X-4741940Y17279225D01*
X-4741241Y17277791D01*
X-4740576Y17276341D01*
X-4739948Y17274874D01*
X-4739355Y17273393D01*
X-4738800Y17271898D01*
X-4738281Y17270389D01*
X-4737799Y17268869D01*
X-4737355Y17267336D01*
X-4736948Y17265794D01*
X-4736579Y17264242D01*
X-4736249Y17262681D01*
X-4735957Y17261113D01*
X-4735704Y17259537D01*
X-4735489Y17257957D01*
X-4735313Y17256371D01*
X-4735176Y17254782D01*
X-4735078Y17253189D01*
X-4735020Y17251595D01*
X-4735000Y17250000D01*
X-4735020Y17248405D01*
X-4735078Y17246811D01*
X-4735176Y17245218D01*
X-4735313Y17243629D01*
X-4735489Y17242043D01*
X-4735704Y17240463D01*
X-4735957Y17238887D01*
X-4736249Y17237319D01*
X-4736579Y17235758D01*
X-4736948Y17234206D01*
X-4737355Y17232664D01*
X-4737799Y17231131D01*
X-4738281Y17229611D01*
X-4738800Y17228102D01*
X-4739355Y17226607D01*
X-4739948Y17225126D01*
X-4740576Y17223659D01*
X-4741241Y17222209D01*
X-4741940Y17220775D01*
X-4742675Y17219359D01*
X-4743444Y17217962D01*
X-4744248Y17216583D01*
X-4745085Y17215225D01*
X-4745954Y17213888D01*
X-4746857Y17212572D01*
X-4747792Y17211280D01*
X-4748757Y17210010D01*
X-4749754Y17208764D01*
X-4750781Y17207544D01*
X-4751838Y17206349D01*
X-4752924Y17205180D01*
X-4754038Y17204038D01*
X-4755180Y17202924D01*
X-4756349Y17201838D01*
X-4757544Y17200781D01*
X-4758764Y17199754D01*
X-4760010Y17198757D01*
X-4761280Y17197792D01*
X-4762572Y17196857D01*
X-4763888Y17195954D01*
X-4765225Y17195085D01*
X-4766583Y17194248D01*
X-4767962Y17193444D01*
X-4769359Y17192675D01*
X-4770775Y17191940D01*
X-4772209Y17191241D01*
X-4773659Y17190576D01*
X-4775126Y17189948D01*
X-4776607Y17189355D01*
X-4778102Y17188800D01*
X-4779611Y17188281D01*
X-4781131Y17187799D01*
X-4782664Y17187355D01*
X-4784206Y17186948D01*
X-4785758Y17186579D01*
X-4787319Y17186249D01*
X-4788887Y17185957D01*
X-4790463Y17185704D01*
X-4792043Y17185489D01*
X-4793629Y17185313D01*
X-4795218Y17185176D01*
X-4796811Y17185078D01*
X-4798405Y17185020D01*
X-4800000Y17185000D01*
X-4801595Y17185020D01*
X-4803189Y17185078D01*
X-4804782Y17185176D01*
X-4806371Y17185313D01*
X-4807957Y17185489D01*
X-4809537Y17185704D01*
X-4811113Y17185957D01*
X-4812681Y17186249D01*
X-4814242Y17186579D01*
X-4815794Y17186948D01*
X-4817336Y17187355D01*
X-4818869Y17187799D01*
X-4820389Y17188281D01*
X-4821898Y17188800D01*
X-4823393Y17189355D01*
X-4824874Y17189948D01*
X-4826341Y17190576D01*
X-4827791Y17191241D01*
X-4829225Y17191940D01*
X-4830641Y17192675D01*
X-4832038Y17193444D01*
X-4833417Y17194248D01*
X-4834775Y17195085D01*
X-4836112Y17195954D01*
X-4837428Y17196857D01*
X-4838720Y17197792D01*
X-4839990Y17198757D01*
X-4841236Y17199754D01*
X-4842456Y17200781D01*
X-4843651Y17201838D01*
X-4844820Y17202924D01*
X-4845962Y17204038D01*
X-4847076Y17205180D01*
X-4848162Y17206349D01*
X-4849219Y17207544D01*
X-4850246Y17208764D01*
X-4851243Y17210010D01*
X-4852208Y17211280D01*
X-4853143Y17212572D01*
X-4854046Y17213888D01*
X-4854915Y17215225D01*
X-4855752Y17216583D01*
X-4856556Y17217962D01*
X-4857325Y17219359D01*
X-4858060Y17220775D01*
X-4858759Y17222209D01*
X-4859424Y17223659D01*
X-4860052Y17225126D01*
X-4860645Y17226607D01*
X-4861200Y17228102D01*
X-4861719Y17229611D01*
X-4862201Y17231131D01*
X-4862645Y17232664D01*
X-4863052Y17234206D01*
X-4863421Y17235758D01*
X-4863751Y17237319D01*
X-4864043Y17238887D01*
X-4864296Y17240463D01*
X-4864511Y17242043D01*
X-4864687Y17243629D01*
X-4864824Y17245218D01*
X-4864922Y17246811D01*
X-4864980Y17248405D01*
X-4865000Y17250000D01*
D33*
X-4800000Y17250000D03*
D31*
X-4865000Y16750000D02*
X-4864980Y16751595D01*
X-4864922Y16753189D01*
X-4864824Y16754782D01*
X-4864687Y16756371D01*
X-4864511Y16757957D01*
X-4864296Y16759537D01*
X-4864043Y16761113D01*
X-4863751Y16762681D01*
X-4863421Y16764242D01*
X-4863052Y16765794D01*
X-4862645Y16767336D01*
X-4862201Y16768869D01*
X-4861719Y16770389D01*
X-4861200Y16771898D01*
X-4860645Y16773393D01*
X-4860052Y16774874D01*
X-4859424Y16776341D01*
X-4858759Y16777791D01*
X-4858060Y16779225D01*
X-4857325Y16780641D01*
X-4856556Y16782038D01*
X-4855752Y16783417D01*
X-4854915Y16784775D01*
X-4854046Y16786112D01*
X-4853143Y16787428D01*
X-4852208Y16788720D01*
X-4851243Y16789990D01*
X-4850246Y16791236D01*
X-4849219Y16792456D01*
X-4848162Y16793651D01*
X-4847076Y16794820D01*
X-4845962Y16795962D01*
X-4844820Y16797076D01*
X-4843651Y16798162D01*
X-4842456Y16799219D01*
X-4841236Y16800246D01*
X-4839990Y16801243D01*
X-4838720Y16802208D01*
X-4837428Y16803143D01*
X-4836112Y16804046D01*
X-4834775Y16804915D01*
X-4833417Y16805752D01*
X-4832038Y16806556D01*
X-4830641Y16807325D01*
X-4829225Y16808060D01*
X-4827791Y16808759D01*
X-4826341Y16809424D01*
X-4824874Y16810052D01*
X-4823393Y16810645D01*
X-4821898Y16811200D01*
X-4820389Y16811719D01*
X-4818869Y16812201D01*
X-4817336Y16812645D01*
X-4815794Y16813052D01*
X-4814242Y16813421D01*
X-4812681Y16813751D01*
X-4811113Y16814043D01*
X-4809537Y16814296D01*
X-4807957Y16814511D01*
X-4806371Y16814687D01*
X-4804782Y16814824D01*
X-4803189Y16814922D01*
X-4801595Y16814980D01*
X-4800000Y16815000D01*
X-4798405Y16814980D01*
X-4796811Y16814922D01*
X-4795218Y16814824D01*
X-4793629Y16814687D01*
X-4792043Y16814511D01*
X-4790463Y16814296D01*
X-4788887Y16814043D01*
X-4787319Y16813751D01*
X-4785758Y16813421D01*
X-4784206Y16813052D01*
X-4782664Y16812645D01*
X-4781131Y16812201D01*
X-4779611Y16811719D01*
X-4778102Y16811200D01*
X-4776607Y16810645D01*
X-4775126Y16810052D01*
X-4773659Y16809424D01*
X-4772209Y16808759D01*
X-4770775Y16808060D01*
X-4769359Y16807325D01*
X-4767962Y16806556D01*
X-4766583Y16805752D01*
X-4765225Y16804915D01*
X-4763888Y16804046D01*
X-4762572Y16803143D01*
X-4761280Y16802208D01*
X-4760010Y16801243D01*
X-4758764Y16800246D01*
X-4757544Y16799219D01*
X-4756349Y16798162D01*
X-4755180Y16797076D01*
X-4754038Y16795962D01*
X-4752924Y16794820D01*
X-4751838Y16793651D01*
X-4750781Y16792456D01*
X-4749754Y16791236D01*
X-4748757Y16789990D01*
X-4747792Y16788720D01*
X-4746857Y16787428D01*
X-4745954Y16786112D01*
X-4745085Y16784775D01*
X-4744248Y16783417D01*
X-4743444Y16782038D01*
X-4742675Y16780641D01*
X-4741940Y16779225D01*
X-4741241Y16777791D01*
X-4740576Y16776341D01*
X-4739948Y16774874D01*
X-4739355Y16773393D01*
X-4738800Y16771898D01*
X-4738281Y16770389D01*
X-4737799Y16768869D01*
X-4737355Y16767336D01*
X-4736948Y16765794D01*
X-4736579Y16764242D01*
X-4736249Y16762681D01*
X-4735957Y16761113D01*
X-4735704Y16759537D01*
X-4735489Y16757957D01*
X-4735313Y16756371D01*
X-4735176Y16754782D01*
X-4735078Y16753189D01*
X-4735020Y16751595D01*
X-4735000Y16750000D01*
X-4735020Y16748405D01*
X-4735078Y16746811D01*
X-4735176Y16745218D01*
X-4735313Y16743629D01*
X-4735489Y16742043D01*
X-4735704Y16740463D01*
X-4735957Y16738887D01*
X-4736249Y16737319D01*
X-4736579Y16735758D01*
X-4736948Y16734206D01*
X-4737355Y16732664D01*
X-4737799Y16731131D01*
X-4738281Y16729611D01*
X-4738800Y16728102D01*
X-4739355Y16726607D01*
X-4739948Y16725126D01*
X-4740576Y16723659D01*
X-4741241Y16722209D01*
X-4741940Y16720775D01*
X-4742675Y16719359D01*
X-4743444Y16717962D01*
X-4744248Y16716583D01*
X-4745085Y16715225D01*
X-4745954Y16713888D01*
X-4746857Y16712572D01*
X-4747792Y16711280D01*
X-4748757Y16710010D01*
X-4749754Y16708764D01*
X-4750781Y16707544D01*
X-4751838Y16706349D01*
X-4752924Y16705180D01*
X-4754038Y16704038D01*
X-4755180Y16702924D01*
X-4756349Y16701838D01*
X-4757544Y16700781D01*
X-4758764Y16699754D01*
X-4760010Y16698757D01*
X-4761280Y16697792D01*
X-4762572Y16696857D01*
X-4763888Y16695954D01*
X-4765225Y16695085D01*
X-4766583Y16694248D01*
X-4767962Y16693444D01*
X-4769359Y16692675D01*
X-4770775Y16691940D01*
X-4772209Y16691241D01*
X-4773659Y16690576D01*
X-4775126Y16689948D01*
X-4776607Y16689355D01*
X-4778102Y16688800D01*
X-4779611Y16688281D01*
X-4781131Y16687799D01*
X-4782664Y16687355D01*
X-4784206Y16686948D01*
X-4785758Y16686579D01*
X-4787319Y16686249D01*
X-4788887Y16685957D01*
X-4790463Y16685704D01*
X-4792043Y16685489D01*
X-4793629Y16685313D01*
X-4795218Y16685176D01*
X-4796811Y16685078D01*
X-4798405Y16685020D01*
X-4800000Y16685000D01*
X-4801595Y16685020D01*
X-4803189Y16685078D01*
X-4804782Y16685176D01*
X-4806371Y16685313D01*
X-4807957Y16685489D01*
X-4809537Y16685704D01*
X-4811113Y16685957D01*
X-4812681Y16686249D01*
X-4814242Y16686579D01*
X-4815794Y16686948D01*
X-4817336Y16687355D01*
X-4818869Y16687799D01*
X-4820389Y16688281D01*
X-4821898Y16688800D01*
X-4823393Y16689355D01*
X-4824874Y16689948D01*
X-4826341Y16690576D01*
X-4827791Y16691241D01*
X-4829225Y16691940D01*
X-4830641Y16692675D01*
X-4832038Y16693444D01*
X-4833417Y16694248D01*
X-4834775Y16695085D01*
X-4836112Y16695954D01*
X-4837428Y16696857D01*
X-4838720Y16697792D01*
X-4839990Y16698757D01*
X-4841236Y16699754D01*
X-4842456Y16700781D01*
X-4843651Y16701838D01*
X-4844820Y16702924D01*
X-4845962Y16704038D01*
X-4847076Y16705180D01*
X-4848162Y16706349D01*
X-4849219Y16707544D01*
X-4850246Y16708764D01*
X-4851243Y16710010D01*
X-4852208Y16711280D01*
X-4853143Y16712572D01*
X-4854046Y16713888D01*
X-4854915Y16715225D01*
X-4855752Y16716583D01*
X-4856556Y16717962D01*
X-4857325Y16719359D01*
X-4858060Y16720775D01*
X-4858759Y16722209D01*
X-4859424Y16723659D01*
X-4860052Y16725126D01*
X-4860645Y16726607D01*
X-4861200Y16728102D01*
X-4861719Y16729611D01*
X-4862201Y16731131D01*
X-4862645Y16732664D01*
X-4863052Y16734206D01*
X-4863421Y16735758D01*
X-4863751Y16737319D01*
X-4864043Y16738887D01*
X-4864296Y16740463D01*
X-4864511Y16742043D01*
X-4864687Y16743629D01*
X-4864824Y16745218D01*
X-4864922Y16746811D01*
X-4864980Y16748405D01*
X-4865000Y16750000D01*
D33*
X-4800000Y16750000D03*
D34*
X-4415000Y16650000D03*
X-4415000Y17100000D03*
X-4415000Y17350000D03*
X-4415000Y16900000D03*
D35*
X-4640000Y17725000D03*
X-4640000Y16275000D03*
D15*
X-3055000Y13550000D03*
X-2545000Y13550000D03*
D36*
X-2550000Y13200000D03*
X-2550000Y17800000D03*
X-4950000Y12750000D03*
D37*
X-5000000Y14900000D03*
X-5000000Y14800000D03*
X-4875000Y14800000D03*
X-4875000Y14900000D03*
X-5550000Y14800000D03*
X-5425000Y14800000D03*
X-5425000Y14900000D03*
X-5550000Y14900000D03*
X-5550000Y15800000D03*
X-5550000Y15700000D03*
X-5425000Y15800000D03*
X-5425000Y15700000D03*
X-5000000Y15800000D03*
X-5000000Y15700000D03*
X-4875000Y15700000D03*
X-4875000Y15800000D03*
X-4825000Y17800000D03*
X-4825000Y17675000D03*
X-4700000Y17675000D03*
X-4575000Y17675000D03*
X-4450000Y17675000D03*
X-4700000Y17800000D03*
X-4575000Y17800000D03*
X-4450000Y17800000D03*
X-4825000Y16325000D03*
X-4825000Y16200000D03*
X-4700000Y16325000D03*
X-4700000Y16200000D03*
X-4575000Y16200000D03*
X-4575000Y16325000D03*
X-4450000Y16325000D03*
X-4450000Y16200000D03*
X-3600000Y13925000D03*
X-3600000Y13775000D03*
X-3400000Y13925000D03*
X-3400000Y13775000D03*
X-3200000Y13925000D03*
X-3200000Y13775000D03*
X-3600000Y13225000D03*
X-3600000Y13075000D03*
X-3400000Y13225000D03*
X-3400000Y13075000D03*
X-3200000Y13225000D03*
X-3200000Y13075000D03*
X-3650000Y17250000D03*
X-3500000Y17250000D03*
X-3375000Y17250000D03*
X-3650000Y17000000D03*
X-3500000Y17000000D03*
X-3375000Y17000000D03*
X-3250000Y17000000D03*
X-3650000Y16750000D03*
X-3500000Y16750000D03*
X-3375000Y16750000D03*
X-3200000Y16775000D03*
X-3075000Y16775000D03*
X-3200000Y17225000D03*
X-3075000Y17225000D03*
X-2725000Y17200000D03*
X-2725000Y16800000D03*
X-4450000Y15000000D03*
X-4450000Y14850000D03*
X-4250000Y15000000D03*
X-4250000Y14850000D03*
X-4050000Y14850000D03*
X-4050000Y15000000D03*
X-4000000Y14050000D03*
X-4600000Y13925000D03*
X-4400000Y13775000D03*
X-4162500Y13775000D03*
X-4000000Y13337500D03*
X-4600000Y13225000D03*
X-4400000Y13062500D03*
X-4162500Y13075000D03*
X-4162500Y14475000D03*
X-4400000Y14462500D03*
X-3600000Y16400000D03*
X-3400000Y16400000D03*
X-3200000Y16400000D03*
X-3600000Y17600000D03*
X-3400000Y17600000D03*
X-3200000Y17600000D03*
X-3000000Y17600000D03*
X-3075000Y14950000D03*
X-2650000Y15425000D03*
X-5000000Y15125000D03*
X-2550000Y12900000D03*
X-2550000Y12800000D03*
X-2550000Y13500000D03*
X-2550000Y13600000D03*
X-3225000Y14450000D03*
X-3975000Y16125000D03*
X-3775000Y16125000D03*
X-4100000Y16700000D03*
X-3900000Y17300000D03*
X-4900000Y15125000D03*
X-3645000Y15575000D03*
X-3095000Y15350000D03*
X-3425000Y15000000D03*
X-4450000Y15300000D03*
X-4450000Y15150000D03*
X-4250000Y15300000D03*
X-4250000Y15150000D03*
X-4050000Y15300000D03*
X-4050000Y15150000D03*
X-3900000Y16700000D03*
X-3590000Y17405000D03*
X-3390000Y17405000D03*
X-3200000Y17400000D03*
X-3000000Y17400000D03*
X-4412500Y17400000D03*
X-4312500Y17400000D03*
X-4512500Y17400000D03*
X-4600000Y13800000D03*
X-3600000Y13625000D03*
X-3600000Y13475000D03*
X-3400000Y13475000D03*
X-3400000Y13625000D03*
X-3200000Y13625000D03*
X-3200000Y13475000D03*
X-4600000Y13100000D03*
X-3600000Y12925000D03*
X-3600000Y12775000D03*
X-3200000Y12775000D03*
X-3200000Y12925000D03*
X-3400000Y12925000D03*
X-3400000Y12775000D03*
X-4600000Y14500000D03*
X-4950000Y15550000D03*
X-3100000Y15830000D03*
X-4450000Y15605000D03*
X-4450000Y15455000D03*
X-4250000Y15455000D03*
X-4250000Y15605000D03*
X-4050000Y15605000D03*
X-4050000Y15455000D03*
X-3125000Y15150000D03*
X-3025000Y15150000D03*
X-3600000Y16600000D03*
X-3400000Y16600000D03*
X-3200000Y16600000D03*
X-3000000Y16600000D03*
X-2600000Y17000000D03*
X-2800000Y17600000D03*
X-2625000Y17100000D03*
X-2800000Y16600000D03*
X-2625000Y16900000D03*
X-3000000Y16400000D03*
X-5500000Y13775000D03*
X-3475000Y15750000D03*
X-5500000Y14375000D03*
X-3600000Y15800000D03*
X-5500000Y13175000D03*
X-3350000Y15700000D03*
M02*
